<svg xmlns="http://www.w3.org/2000/svg" xmlns:rdkit="http://www.rdkit.org/xml" xmlns:xlink="http://www.w3.org/1999/xlink" version="1.1" baseProfile="full" xml:space="preserve" width="900px" height="160px" viewBox="0 0 900 160">
<!-- END OF HEADER -->
<rect style="opacity:1.0;fill:#FFFFFF;stroke:none" width="900.0" height="160.0" x="0.0" y="0.0"> </rect>
<path class="bond-0 atom-0 atom-1" d="M 25.5,62.2 L 38.6,78.0" style="fill:none;fill-rule:evenodd;stroke:#000000;stroke-width:2.0px;stroke-linecap:butt;stroke-linejoin:miter;stroke-opacity:1"/>
<path class="bond-1 atom-1 atom-2" d="M 38.6,78.0 L 31.4,97.2" style="fill:none;fill-rule:evenodd;stroke:#000000;stroke-width:2.0px;stroke-linecap:butt;stroke-linejoin:miter;stroke-opacity:1"/>
<path class="bond-1 atom-1 atom-2" d="M 41.4,82.3 L 36.3,95.8" style="fill:none;fill-rule:evenodd;stroke:#000000;stroke-width:2.0px;stroke-linecap:butt;stroke-linejoin:miter;stroke-opacity:1"/>
<path class="bond-2 atom-2 atom-3" d="M 31.4,97.2 L 44.5,113.1" style="fill:none;fill-rule:evenodd;stroke:#000000;stroke-width:2.0px;stroke-linecap:butt;stroke-linejoin:miter;stroke-opacity:1"/>
<path class="bond-3 atom-3 atom-4" d="M 44.5,113.1 L 64.7,109.7" style="fill:none;fill-rule:evenodd;stroke:#000000;stroke-width:2.0px;stroke-linecap:butt;stroke-linejoin:miter;stroke-opacity:1"/>
<path class="bond-3 atom-3 atom-4" d="M 46.8,108.5 L 61.0,106.1" style="fill:none;fill-rule:evenodd;stroke:#000000;stroke-width:2.0px;stroke-linecap:butt;stroke-linejoin:miter;stroke-opacity:1"/>
<path class="bond-4 atom-4 atom-5" d="M 64.7,109.7 L 69.8,115.8" style="fill:none;fill-rule:evenodd;stroke:#000000;stroke-width:2.0px;stroke-linecap:butt;stroke-linejoin:miter;stroke-opacity:1"/>
<path class="bond-4 atom-4 atom-5" d="M 69.8,115.8 L 74.8,121.9" style="fill:none;fill-rule:evenodd;stroke:#FF0000;stroke-width:2.0px;stroke-linecap:butt;stroke-linejoin:miter;stroke-opacity:1"/>
<path class="bond-5 atom-4 atom-6" d="M 64.7,109.7 L 71.9,90.5" style="fill:none;fill-rule:evenodd;stroke:#000000;stroke-width:2.0px;stroke-linecap:butt;stroke-linejoin:miter;stroke-opacity:1"/>
<path class="bond-6 atom-6 atom-7" d="M 71.9,90.5 L 58.9,74.6" style="fill:none;fill-rule:evenodd;stroke:#000000;stroke-width:2.0px;stroke-linecap:butt;stroke-linejoin:miter;stroke-opacity:1"/>
<path class="bond-6 atom-6 atom-7" d="M 66.8,90.7 L 57.6,79.6" style="fill:none;fill-rule:evenodd;stroke:#000000;stroke-width:2.0px;stroke-linecap:butt;stroke-linejoin:miter;stroke-opacity:1"/>
<path class="bond-7 atom-7 atom-8" d="M 58.9,74.6 L 61.8,66.8" style="fill:none;fill-rule:evenodd;stroke:#000000;stroke-width:2.0px;stroke-linecap:butt;stroke-linejoin:miter;stroke-opacity:1"/>
<path class="bond-7 atom-7 atom-8" d="M 61.8,66.8 L 64.7,59.0" style="fill:none;fill-rule:evenodd;stroke:#0000FF;stroke-width:2.0px;stroke-linecap:butt;stroke-linejoin:miter;stroke-opacity:1"/>
<path class="bond-8 atom-8 atom-9" d="M 63.2,51.9 L 59.3,47.2" style="fill:none;fill-rule:evenodd;stroke:#0000FF;stroke-width:2.0px;stroke-linecap:butt;stroke-linejoin:miter;stroke-opacity:1"/>
<path class="bond-8 atom-8 atom-9" d="M 59.3,47.2 L 55.5,42.6" style="fill:none;fill-rule:evenodd;stroke:#FF7F00;stroke-width:2.0px;stroke-linecap:butt;stroke-linejoin:miter;stroke-opacity:1"/>
<path class="bond-9 atom-8 atom-10" d="M 68.9,54.9 L 76.3,53.6" style="fill:none;fill-rule:evenodd;stroke:#0000FF;stroke-width:2.0px;stroke-linecap:butt;stroke-linejoin:miter;stroke-opacity:1"/>
<path class="bond-9 atom-8 atom-10" d="M 76.3,53.6 L 83.8,52.4" style="fill:none;fill-rule:evenodd;stroke:#FF7F00;stroke-width:2.0px;stroke-linecap:butt;stroke-linejoin:miter;stroke-opacity:1"/>
<path class="bond-10 atom-10 atom-11" d="M 89.2,55.6 L 93.0,60.1" style="fill:none;fill-rule:evenodd;stroke:#FF7F00;stroke-width:2.0px;stroke-linecap:butt;stroke-linejoin:miter;stroke-opacity:1"/>
<path class="bond-10 atom-10 atom-11" d="M 93.0,60.1 L 96.8,64.7" style="fill:none;fill-rule:evenodd;stroke:#CCCC00;stroke-width:2.0px;stroke-linecap:butt;stroke-linejoin:miter;stroke-opacity:1"/>
<path class="bond-11 atom-10 atom-12" d="M 87.6,48.4 L 89.9,42.4" style="fill:none;fill-rule:evenodd;stroke:#FF7F00;stroke-width:2.0px;stroke-linecap:butt;stroke-linejoin:miter;stroke-opacity:1"/>
<path class="bond-11 atom-10 atom-12" d="M 89.9,42.4 L 92.1,36.3" style="fill:none;fill-rule:evenodd;stroke:#0000FF;stroke-width:2.0px;stroke-linecap:butt;stroke-linejoin:miter;stroke-opacity:1"/>
<path class="bond-12 atom-12 atom-13" d="M 90.6,29.3 L 87.0,24.9" style="fill:none;fill-rule:evenodd;stroke:#0000FF;stroke-width:2.0px;stroke-linecap:butt;stroke-linejoin:miter;stroke-opacity:1"/>
<path class="bond-12 atom-12 atom-13" d="M 87.0,24.9 L 83.5,20.6" style="fill:none;fill-rule:evenodd;stroke:#FF0000;stroke-width:2.0px;stroke-linecap:butt;stroke-linejoin:miter;stroke-opacity:1"/>
<path class="bond-13 atom-12 atom-14" d="M 96.4,32.3 L 103.4,31.1" style="fill:none;fill-rule:evenodd;stroke:#0000FF;stroke-width:2.0px;stroke-linecap:butt;stroke-linejoin:miter;stroke-opacity:1"/>
<path class="bond-13 atom-12 atom-14" d="M 103.4,31.1 L 110.4,29.9" style="fill:none;fill-rule:evenodd;stroke:#FF0000;stroke-width:2.0px;stroke-linecap:butt;stroke-linejoin:miter;stroke-opacity:1"/>
<path class="bond-14 atom-14 atom-15" d="M 116.8,33.1 L 121.8,39.1" style="fill:none;fill-rule:evenodd;stroke:#FF0000;stroke-width:2.0px;stroke-linecap:butt;stroke-linejoin:miter;stroke-opacity:1"/>
<path class="bond-14 atom-14 atom-15" d="M 121.8,39.1 L 126.8,45.2" style="fill:none;fill-rule:evenodd;stroke:#000000;stroke-width:2.0px;stroke-linecap:butt;stroke-linejoin:miter;stroke-opacity:1"/>
<path class="bond-15 atom-15 atom-16" d="M 126.8,45.2 L 119.6,64.4" style="fill:none;fill-rule:evenodd;stroke:#000000;stroke-width:2.0px;stroke-linecap:butt;stroke-linejoin:miter;stroke-opacity:1"/>
<path class="bond-15 atom-15 atom-16" d="M 129.6,49.5 L 124.5,63.0" style="fill:none;fill-rule:evenodd;stroke:#000000;stroke-width:2.0px;stroke-linecap:butt;stroke-linejoin:miter;stroke-opacity:1"/>
<path class="bond-16 atom-16 atom-17" d="M 119.6,64.4 L 132.7,80.3" style="fill:none;fill-rule:evenodd;stroke:#000000;stroke-width:2.0px;stroke-linecap:butt;stroke-linejoin:miter;stroke-opacity:1"/>
<path class="bond-17 atom-17 atom-18" d="M 132.7,80.3 L 152.9,76.9" style="fill:none;fill-rule:evenodd;stroke:#000000;stroke-width:2.0px;stroke-linecap:butt;stroke-linejoin:miter;stroke-opacity:1"/>
<path class="bond-17 atom-17 atom-18" d="M 135.0,75.7 L 149.2,73.3" style="fill:none;fill-rule:evenodd;stroke:#000000;stroke-width:2.0px;stroke-linecap:butt;stroke-linejoin:miter;stroke-opacity:1"/>
<path class="bond-18 atom-18 atom-19" d="M 152.9,76.9 L 169.0,89.6" style="fill:none;fill-rule:evenodd;stroke:#000000;stroke-width:2.0px;stroke-linecap:butt;stroke-linejoin:miter;stroke-opacity:1"/>
<path class="bond-19 atom-19 atom-20" d="M 169.0,89.6 L 168.1,110.2" style="fill:none;fill-rule:evenodd;stroke:#000000;stroke-width:2.0px;stroke-linecap:butt;stroke-linejoin:miter;stroke-opacity:1"/>
<path class="bond-20 atom-20 atom-21" d="M 169.1,112.0 L 161.6,115.9" style="fill:none;fill-rule:evenodd;stroke:#000000;stroke-width:2.0px;stroke-linecap:butt;stroke-linejoin:miter;stroke-opacity:1"/>
<path class="bond-20 atom-20 atom-21" d="M 161.6,115.9 L 154.2,119.7" style="fill:none;fill-rule:evenodd;stroke:#FF0000;stroke-width:2.0px;stroke-linecap:butt;stroke-linejoin:miter;stroke-opacity:1"/>
<path class="bond-20 atom-20 atom-21" d="M 167.2,108.3 L 159.7,112.2" style="fill:none;fill-rule:evenodd;stroke:#000000;stroke-width:2.0px;stroke-linecap:butt;stroke-linejoin:miter;stroke-opacity:1"/>
<path class="bond-20 atom-20 atom-21" d="M 159.7,112.2 L 152.3,116.1" style="fill:none;fill-rule:evenodd;stroke:#FF0000;stroke-width:2.0px;stroke-linecap:butt;stroke-linejoin:miter;stroke-opacity:1"/>
<path class="bond-21 atom-20 atom-22" d="M 168.1,110.2 L 175.3,114.8" style="fill:none;fill-rule:evenodd;stroke:#000000;stroke-width:2.0px;stroke-linecap:butt;stroke-linejoin:miter;stroke-opacity:1"/>
<path class="bond-21 atom-20 atom-22" d="M 175.3,114.8 L 182.5,119.4" style="fill:none;fill-rule:evenodd;stroke:#0000FF;stroke-width:2.0px;stroke-linecap:butt;stroke-linejoin:miter;stroke-opacity:1"/>
<path class="bond-22 atom-22 atom-23" d="M 185.3,124.8 L 184.9,133.2" style="fill:none;fill-rule:evenodd;stroke:#0000FF;stroke-width:2.0px;stroke-linecap:butt;stroke-linejoin:miter;stroke-opacity:1"/>
<path class="bond-22 atom-22 atom-23" d="M 184.9,133.2 L 184.5,141.7" style="fill:none;fill-rule:evenodd;stroke:#000000;stroke-width:2.0px;stroke-linecap:butt;stroke-linejoin:miter;stroke-opacity:1"/>
<path class="bond-23 atom-23 atom-24" d="M 184.5,141.7 L 201.9,152.7" style="fill:none;fill-rule:evenodd;stroke:#000000;stroke-width:2.0px;stroke-linecap:butt;stroke-linejoin:miter;stroke-opacity:1"/>
<path class="bond-24 atom-24 atom-25" d="M 201.9,152.7 L 209.5,148.7" style="fill:none;fill-rule:evenodd;stroke:#000000;stroke-width:2.0px;stroke-linecap:butt;stroke-linejoin:miter;stroke-opacity:1"/>
<path class="bond-24 atom-24 atom-25" d="M 209.5,148.7 L 217.2,144.7" style="fill:none;fill-rule:evenodd;stroke:#0000FF;stroke-width:2.0px;stroke-linecap:butt;stroke-linejoin:miter;stroke-opacity:1"/>
<path class="bond-25 atom-25 atom-26" d="M 220.2,139.7 L 220.6,131.2" style="fill:none;fill-rule:evenodd;stroke:#0000FF;stroke-width:2.0px;stroke-linecap:butt;stroke-linejoin:miter;stroke-opacity:1"/>
<path class="bond-25 atom-25 atom-26" d="M 220.6,131.2 L 221.0,122.7" style="fill:none;fill-rule:evenodd;stroke:#000000;stroke-width:2.0px;stroke-linecap:butt;stroke-linejoin:miter;stroke-opacity:1"/>
<path class="bond-26 atom-26 atom-27" d="M 221.0,122.7 L 203.6,111.7" style="fill:none;fill-rule:evenodd;stroke:#000000;stroke-width:2.0px;stroke-linecap:butt;stroke-linejoin:miter;stroke-opacity:1"/>
<path class="bond-27 atom-19 atom-28" d="M 169.0,89.6 L 186.1,78.3" style="fill:none;fill-rule:evenodd;stroke:#000000;stroke-width:2.0px;stroke-linecap:butt;stroke-linejoin:miter;stroke-opacity:1"/>
<path class="bond-27 atom-19 atom-28" d="M 169.3,84.5 L 181.3,76.6" style="fill:none;fill-rule:evenodd;stroke:#000000;stroke-width:2.0px;stroke-linecap:butt;stroke-linejoin:miter;stroke-opacity:1"/>
<path class="bond-28 atom-28 atom-29" d="M 186.1,78.3 L 205.4,85.5" style="fill:none;fill-rule:evenodd;stroke:#000000;stroke-width:2.0px;stroke-linecap:butt;stroke-linejoin:miter;stroke-opacity:1"/>
<path class="bond-29 atom-29 atom-30" d="M 205.4,85.5 L 221.2,72.4" style="fill:none;fill-rule:evenodd;stroke:#000000;stroke-width:2.0px;stroke-linecap:butt;stroke-linejoin:miter;stroke-opacity:1"/>
<path class="bond-30 atom-30 atom-31" d="M 221.2,72.4 L 217.8,52.2" style="fill:none;fill-rule:evenodd;stroke:#000000;stroke-width:2.0px;stroke-linecap:butt;stroke-linejoin:miter;stroke-opacity:1"/>
<path class="bond-30 atom-30 atom-31" d="M 224.7,68.7 L 222.4,54.5" style="fill:none;fill-rule:evenodd;stroke:#000000;stroke-width:2.0px;stroke-linecap:butt;stroke-linejoin:miter;stroke-opacity:1"/>
<path class="bond-31 atom-31 atom-32" d="M 217.8,52.2 L 233.6,39.1" style="fill:none;fill-rule:evenodd;stroke:#000000;stroke-width:2.0px;stroke-linecap:butt;stroke-linejoin:miter;stroke-opacity:1"/>
<path class="bond-32 atom-32 atom-33" d="M 233.6,39.1 L 252.9,46.3" style="fill:none;fill-rule:evenodd;stroke:#000000;stroke-width:2.0px;stroke-linecap:butt;stroke-linejoin:miter;stroke-opacity:1"/>
<path class="bond-32 atom-32 atom-33" d="M 235.1,44.0 L 248.5,49.1" style="fill:none;fill-rule:evenodd;stroke:#000000;stroke-width:2.0px;stroke-linecap:butt;stroke-linejoin:miter;stroke-opacity:1"/>
<path class="bond-33 atom-33 atom-34" d="M 252.9,46.3 L 256.3,66.5" style="fill:none;fill-rule:evenodd;stroke:#000000;stroke-width:2.0px;stroke-linecap:butt;stroke-linejoin:miter;stroke-opacity:1"/>
<path class="bond-34 atom-34 atom-35" d="M 256.3,66.5 L 264.7,69.7" style="fill:none;fill-rule:evenodd;stroke:#000000;stroke-width:2.0px;stroke-linecap:butt;stroke-linejoin:miter;stroke-opacity:1"/>
<path class="bond-34 atom-34 atom-35" d="M 264.7,69.7 L 273.1,72.8" style="fill:none;fill-rule:evenodd;stroke:#33CCCC;stroke-width:2.0px;stroke-linecap:butt;stroke-linejoin:miter;stroke-opacity:1"/>
<path class="bond-35 atom-34 atom-36" d="M 256.3,66.5 L 240.4,79.6" style="fill:none;fill-rule:evenodd;stroke:#000000;stroke-width:2.0px;stroke-linecap:butt;stroke-linejoin:miter;stroke-opacity:1"/>
<path class="bond-35 atom-34 atom-36" d="M 251.3,65.3 L 240.2,74.5" style="fill:none;fill-rule:evenodd;stroke:#000000;stroke-width:2.0px;stroke-linecap:butt;stroke-linejoin:miter;stroke-opacity:1"/>
<path class="bond-36 atom-36 atom-37" d="M 240.4,79.6 L 243.8,99.9" style="fill:none;fill-rule:evenodd;stroke:#000000;stroke-width:2.0px;stroke-linecap:butt;stroke-linejoin:miter;stroke-opacity:1"/>
<path class="bond-37 atom-28 atom-38" d="M 186.1,78.3 L 183.9,70.2" style="fill:none;fill-rule:evenodd;stroke:#000000;stroke-width:2.0px;stroke-linecap:butt;stroke-linejoin:miter;stroke-opacity:1"/>
<path class="bond-37 atom-28 atom-38" d="M 183.9,70.2 L 181.6,62.1" style="fill:none;fill-rule:evenodd;stroke:#0000FF;stroke-width:2.0px;stroke-linecap:butt;stroke-linejoin:miter;stroke-opacity:1"/>
<path class="bond-38 atom-38 atom-39" d="M 183.5,54.9 L 188.4,48.7" style="fill:none;fill-rule:evenodd;stroke:#0000FF;stroke-width:2.0px;stroke-linecap:butt;stroke-linejoin:miter;stroke-opacity:1"/>
<path class="bond-38 atom-38 atom-39" d="M 188.4,48.7 L 193.4,42.4" style="fill:none;fill-rule:evenodd;stroke:#000000;stroke-width:2.0px;stroke-linecap:butt;stroke-linejoin:miter;stroke-opacity:1"/>
<path class="bond-39 atom-39 atom-40" d="M 193.4,42.4 L 213.7,45.5" style="fill:none;fill-rule:evenodd;stroke:#000000;stroke-width:2.0px;stroke-linecap:butt;stroke-linejoin:miter;stroke-opacity:1"/>
<path class="bond-39 atom-39 atom-40" d="M 197.1,38.8 L 211.3,41.0" style="fill:none;fill-rule:evenodd;stroke:#000000;stroke-width:2.0px;stroke-linecap:butt;stroke-linejoin:miter;stroke-opacity:1"/>
<path class="bond-40 atom-40 atom-41" d="M 213.7,45.5 L 226.5,29.4" style="fill:none;fill-rule:evenodd;stroke:#000000;stroke-width:2.0px;stroke-linecap:butt;stroke-linejoin:miter;stroke-opacity:1"/>
<path class="bond-41 atom-41 atom-42" d="M 226.5,29.4 L 219.0,10.3" style="fill:none;fill-rule:evenodd;stroke:#000000;stroke-width:2.0px;stroke-linecap:butt;stroke-linejoin:miter;stroke-opacity:1"/>
<path class="bond-41 atom-41 atom-42" d="M 221.5,28.0 L 216.3,14.7" style="fill:none;fill-rule:evenodd;stroke:#000000;stroke-width:2.0px;stroke-linecap:butt;stroke-linejoin:miter;stroke-opacity:1"/>
<path class="bond-42 atom-42 atom-43" d="M 219.0,10.3 L 198.6,7.3" style="fill:none;fill-rule:evenodd;stroke:#000000;stroke-width:2.0px;stroke-linecap:butt;stroke-linejoin:miter;stroke-opacity:1"/>
<path class="bond-43 atom-43 atom-44" d="M 198.6,7.3 L 185.9,23.3" style="fill:none;fill-rule:evenodd;stroke:#000000;stroke-width:2.0px;stroke-linecap:butt;stroke-linejoin:miter;stroke-opacity:1"/>
<path class="bond-43 atom-43 atom-44" d="M 199.9,12.2 L 191.0,23.5" style="fill:none;fill-rule:evenodd;stroke:#000000;stroke-width:2.0px;stroke-linecap:butt;stroke-linejoin:miter;stroke-opacity:1"/>
<path class="bond-44 atom-38 atom-45" d="M 177.7,58.4 L 168.9,58.0" style="fill:none;fill-rule:evenodd;stroke:#0000FF;stroke-width:2.0px;stroke-linecap:butt;stroke-linejoin:miter;stroke-opacity:1"/>
<path class="bond-44 atom-38 atom-45" d="M 168.9,58.0 L 160.1,57.6" style="fill:none;fill-rule:evenodd;stroke:#000000;stroke-width:2.0px;stroke-linecap:butt;stroke-linejoin:miter;stroke-opacity:1"/>
<path class="bond-45 atom-45 atom-46" d="M 160.1,57.6 L 147.0,41.8" style="fill:none;fill-rule:evenodd;stroke:#000000;stroke-width:2.0px;stroke-linecap:butt;stroke-linejoin:miter;stroke-opacity:1"/>
<path class="bond-45 atom-45 atom-46" d="M 155.0,57.9 L 145.8,46.8" style="fill:none;fill-rule:evenodd;stroke:#000000;stroke-width:2.0px;stroke-linecap:butt;stroke-linejoin:miter;stroke-opacity:1"/>
<path class="bond-46 atom-7 atom-1" d="M 58.9,74.6 L 38.6,78.0" style="fill:none;fill-rule:evenodd;stroke:#000000;stroke-width:2.0px;stroke-linecap:butt;stroke-linejoin:miter;stroke-opacity:1"/>
<path class="bond-47 atom-46 atom-15" d="M 147.0,41.8 L 126.8,45.2" style="fill:none;fill-rule:evenodd;stroke:#000000;stroke-width:2.0px;stroke-linecap:butt;stroke-linejoin:miter;stroke-opacity:1"/>
<path class="bond-48 atom-45 atom-18" d="M 160.1,57.6 L 152.9,76.9" style="fill:none;fill-rule:evenodd;stroke:#000000;stroke-width:2.0px;stroke-linecap:butt;stroke-linejoin:miter;stroke-opacity:1"/>
<path class="bond-49 atom-27 atom-22" d="M 203.6,111.7 L 196.0,115.7" style="fill:none;fill-rule:evenodd;stroke:#000000;stroke-width:2.0px;stroke-linecap:butt;stroke-linejoin:miter;stroke-opacity:1"/>
<path class="bond-49 atom-27 atom-22" d="M 196.0,115.7 L 188.3,119.7" style="fill:none;fill-rule:evenodd;stroke:#0000FF;stroke-width:2.0px;stroke-linecap:butt;stroke-linejoin:miter;stroke-opacity:1"/>
<path class="bond-50 atom-36 atom-30" d="M 240.4,79.6 L 221.2,72.4" style="fill:none;fill-rule:evenodd;stroke:#000000;stroke-width:2.0px;stroke-linecap:butt;stroke-linejoin:miter;stroke-opacity:1"/>
<path class="bond-51 atom-44 atom-39" d="M 185.9,23.3 L 193.4,42.4" style="fill:none;fill-rule:evenodd;stroke:#000000;stroke-width:2.0px;stroke-linecap:butt;stroke-linejoin:miter;stroke-opacity:1"/>
<path class="atom-5" d="M 75.1 125.5 Q 75.1 124.1, 75.8 123.4 Q 76.5 122.6, 77.8 122.6 Q 79.1 122.6, 79.8 123.4 Q 80.5 124.1, 80.5 125.5 Q 80.5 127.0, 79.8 127.8 Q 79.1 128.6, 77.8 128.6 Q 76.5 128.6, 75.8 127.8 Q 75.1 127.0, 75.1 125.5 M 77.8 127.9 Q 78.7 127.9, 79.2 127.3 Q 79.7 126.7, 79.7 125.5 Q 79.7 124.4, 79.2 123.8 Q 78.7 123.2, 77.8 123.2 Q 76.9 123.2, 76.4 123.8 Q 76.0 124.4, 76.0 125.5 Q 76.0 126.7, 76.4 127.3 Q 76.9 127.9, 77.8 127.9 " fill="#FF0000"/>
<path class="atom-5" d="M 80.9 122.7 L 81.7 122.7 L 81.7 125.1 L 84.6 125.1 L 84.6 122.7 L 85.4 122.7 L 85.4 128.5 L 84.6 128.5 L 84.6 125.8 L 81.7 125.8 L 81.7 128.5 L 80.9 128.5 L 80.9 122.7 " fill="#FF0000"/>
<path class="atom-8" d="M 64.8 52.5 L 66.7 55.5 Q 66.9 55.9, 67.2 56.4 Q 67.5 57.0, 67.5 57.0 L 67.5 52.5 L 68.2 52.5 L 68.2 58.3 L 67.5 58.3 L 65.4 54.9 Q 65.2 54.5, 64.9 54.1 Q 64.7 53.6, 64.6 53.5 L 64.6 58.3 L 63.8 58.3 L 63.8 52.5 L 64.8 52.5 " fill="#0000FF"/>
<path class="atom-9" d="M 52.8 36.6 Q 53.8 36.6, 54.3 37.1 Q 54.8 37.5, 54.8 38.3 Q 54.8 39.1, 54.3 39.6 Q 53.8 40.1, 52.8 40.1 L 51.9 40.1 L 51.9 42.4 L 51.1 42.4 L 51.1 36.6 L 52.8 36.6 M 52.8 39.4 Q 53.4 39.4, 53.7 39.1 Q 54.0 38.9, 54.0 38.3 Q 54.0 37.8, 53.7 37.6 Q 53.4 37.3, 52.8 37.3 L 51.9 37.3 L 51.9 39.4 L 52.8 39.4 " fill="#FF7F00"/>
<path class="atom-10" d="M 86.2 49.1 Q 87.1 49.1, 87.6 49.5 Q 88.1 50.0, 88.1 50.8 Q 88.1 51.6, 87.6 52.0 Q 87.1 52.5, 86.2 52.5 L 85.2 52.5 L 85.2 54.9 L 84.4 54.9 L 84.4 49.1 L 86.2 49.1 M 86.2 51.8 Q 86.7 51.8, 87.0 51.6 Q 87.3 51.3, 87.3 50.8 Q 87.3 50.3, 87.0 50.0 Q 86.7 49.7, 86.2 49.7 L 85.2 49.7 L 85.2 51.8 L 86.2 51.8 " fill="#FF7F00"/>
<path class="atom-10" d="M 84.0 55.5 L 84.8 55.5 L 84.8 57.9 L 87.8 57.9 L 87.8 55.5 L 88.6 55.5 L 88.6 61.3 L 87.8 61.3 L 87.8 58.6 L 84.8 58.6 L 84.8 61.3 L 84.0 61.3 L 84.0 55.5 " fill="#FF7F00"/>
<path class="atom-11" d="M 97.7 69.8 Q 97.8 69.8, 98.1 70.0 Q 98.3 70.1, 98.6 70.1 Q 98.9 70.2, 99.2 70.2 Q 99.8 70.2, 100.1 69.9 Q 100.4 69.7, 100.4 69.2 Q 100.4 68.9, 100.2 68.7 Q 100.1 68.5, 99.8 68.4 Q 99.6 68.3, 99.2 68.2 Q 98.7 68.0, 98.4 67.9 Q 98.1 67.7, 97.8 67.4 Q 97.6 67.1, 97.6 66.6 Q 97.6 65.8, 98.1 65.4 Q 98.6 64.9, 99.6 64.9 Q 100.3 64.9, 101.0 65.2 L 100.8 65.9 Q 100.1 65.6, 99.6 65.6 Q 99.1 65.6, 98.7 65.8 Q 98.4 66.1, 98.4 66.5 Q 98.4 66.8, 98.6 67.0 Q 98.8 67.1, 99.0 67.3 Q 99.2 67.4, 99.6 67.5 Q 100.1 67.6, 100.5 67.8 Q 100.8 68.0, 101.0 68.3 Q 101.2 68.6, 101.2 69.2 Q 101.2 70.0, 100.7 70.4 Q 100.1 70.9, 99.3 70.9 Q 98.7 70.9, 98.3 70.8 Q 98.0 70.7, 97.5 70.5 L 97.7 69.8 " fill="#CCCC00"/>
<path class="atom-12" d="M 92.2 29.8 L 94.1 32.9 Q 94.3 33.2, 94.6 33.8 Q 94.9 34.3, 94.9 34.4 L 94.9 29.8 L 95.7 29.8 L 95.7 35.7 L 94.9 35.7 L 92.8 32.3 Q 92.6 31.9, 92.3 31.4 Q 92.1 31.0, 92.0 30.8 L 92.0 35.7 L 91.3 35.7 L 91.3 29.8 L 92.2 29.8 " fill="#0000FF"/>
<path class="atom-13" d="M 72.5 14.0 L 73.3 14.0 L 73.3 16.5 L 76.3 16.5 L 76.3 14.0 L 77.0 14.0 L 77.0 19.8 L 76.3 19.8 L 76.3 17.2 L 73.3 17.2 L 73.3 19.8 L 72.5 19.8 L 72.5 14.0 " fill="#FF0000"/>
<path class="atom-13" d="M 77.7 16.9 Q 77.7 15.5, 78.4 14.7 Q 79.1 14.0, 80.4 14.0 Q 81.7 14.0, 82.4 14.7 Q 83.1 15.5, 83.1 16.9 Q 83.1 18.3, 82.4 19.1 Q 81.7 19.9, 80.4 19.9 Q 79.1 19.9, 78.4 19.1 Q 77.7 18.3, 77.7 16.9 M 80.4 19.3 Q 81.3 19.3, 81.8 18.7 Q 82.3 18.1, 82.3 16.9 Q 82.3 15.8, 81.8 15.2 Q 81.3 14.6, 80.4 14.6 Q 79.5 14.6, 79.0 15.2 Q 78.6 15.8, 78.6 16.9 Q 78.6 18.1, 79.0 18.7 Q 79.5 19.3, 80.4 19.3 " fill="#FF0000"/>
<path class="atom-14" d="M 111.1 29.4 Q 111.1 28.0, 111.7 27.2 Q 112.4 26.4, 113.7 26.4 Q 115.0 26.4, 115.7 27.2 Q 116.4 28.0, 116.4 29.4 Q 116.4 30.8, 115.7 31.6 Q 115.0 32.4, 113.7 32.4 Q 112.4 32.4, 111.7 31.6 Q 111.1 30.8, 111.1 29.4 M 113.7 31.7 Q 114.6 31.7, 115.1 31.1 Q 115.6 30.5, 115.6 29.4 Q 115.6 28.2, 115.1 27.6 Q 114.6 27.1, 113.7 27.1 Q 112.8 27.1, 112.4 27.6 Q 111.9 28.2, 111.9 29.4 Q 111.9 30.5, 112.4 31.1 Q 112.8 31.7, 113.7 31.7 " fill="#FF0000"/>
<path class="atom-21" d="M 147.2 119.7 Q 147.2 118.3, 147.9 117.5 Q 148.6 116.7, 149.9 116.7 Q 151.2 116.7, 151.9 117.5 Q 152.6 118.3, 152.6 119.7 Q 152.6 121.1, 151.9 121.9 Q 151.2 122.7, 149.9 122.7 Q 148.6 122.7, 147.9 121.9 Q 147.2 121.1, 147.2 119.7 M 149.9 122.0 Q 150.8 122.0, 151.3 121.4 Q 151.7 120.8, 151.7 119.7 Q 151.7 118.5, 151.3 117.9 Q 150.8 117.4, 149.9 117.4 Q 149.0 117.4, 148.5 117.9 Q 148.1 118.5, 148.1 119.7 Q 148.1 120.8, 148.5 121.4 Q 149.0 122.0, 149.9 122.0 " fill="#FF0000"/>
<path class="atom-22" d="M 184.1 118.3 L 186.1 121.4 Q 186.2 121.7, 186.5 122.2 Q 186.8 122.8, 186.9 122.8 L 186.9 118.3 L 187.6 118.3 L 187.6 124.1 L 186.8 124.1 L 184.8 120.7 Q 184.6 120.3, 184.3 119.9 Q 184.1 119.4, 184.0 119.3 L 184.0 124.1 L 183.2 124.1 L 183.2 118.3 L 184.1 118.3 " fill="#0000FF"/>
<path class="atom-25" d="M 218.8 140.3 L 220.7 143.4 Q 220.9 143.7, 221.2 144.3 Q 221.5 144.8, 221.5 144.8 L 221.5 140.3 L 222.3 140.3 L 222.3 146.1 L 221.5 146.1 L 219.4 142.8 Q 219.2 142.4, 218.9 141.9 Q 218.7 141.5, 218.6 141.3 L 218.6 146.1 L 217.9 146.1 L 217.9 140.3 L 218.8 140.3 " fill="#0000FF"/>
<path class="atom-25" d="M 223.0 140.3 L 223.7 140.3 L 223.7 142.8 L 226.7 142.8 L 226.7 140.3 L 227.5 140.3 L 227.5 146.1 L 226.7 146.1 L 226.7 143.5 L 223.7 143.5 L 223.7 146.1 L 223.0 146.1 L 223.0 140.3 " fill="#0000FF"/>
<path class="atom-35" d="M 273.8 70.8 L 277.2 70.8 L 277.2 71.5 L 274.6 71.5 L 274.6 73.3 L 276.9 73.3 L 276.9 73.9 L 274.6 73.9 L 274.6 76.6 L 273.8 76.6 L 273.8 70.8 " fill="#33CCCC"/>
<path class="atom-38" d="M 179.3 55.6 L 181.2 58.7 Q 181.4 59.0, 181.7 59.5 Q 182.0 60.1, 182.1 60.1 L 182.1 55.6 L 182.8 55.6 L 182.8 61.4 L 182.0 61.4 L 180.0 58.1 Q 179.7 57.7, 179.5 57.2 Q 179.2 56.8, 179.2 56.6 L 179.2 61.4 L 178.4 61.4 L 178.4 55.6 L 179.3 55.6 " fill="#0000FF"/>
<path class="atom-0" d="M 23.5,60.1 L 23.5,60.1 L 23.5,60.2 L 23.5,60.2 L 23.5,60.3 L 23.4,60.3 L 23.4,60.3 L 23.4,60.3 L 23.4,60.4 L 23.4,60.4 L 23.3,60.4 L 23.3,60.4 L 23.3,60.5 L 23.3,60.5 L 23.2,60.5 L 23.2,60.5 L 23.2,60.5 L 23.1,60.5 L 23.1,60.5 L 23.0,60.5 L 23.0,60.5 L 23.0,60.5 L 22.9,60.5 L 22.9,60.5 L 22.9,60.5 L 22.9,60.5 L 22.8,60.4 L 22.8,60.4 L 22.8,60.4 L 22.7,60.4 L 22.7,60.3 L 22.7,60.3 L 22.7,60.3 L 22.7,60.2 L 22.7,60.2 L 22.7,60.2 L 22.7,60.1 L 22.7,60.1 L 22.7,60.1 L 22.7,60.0 L 22.7,60.0 L 22.7,60.0 L 22.7,59.9 L 22.7,59.9 L 22.7,59.9 L 22.8,59.8 L 22.8,59.8 L 22.8,59.8 L 22.9,59.8 L 22.9,59.8 L 22.9,59.7 L 22.9,59.7 L 23.0,59.7 L 23.0,59.7 L 23.0,59.7 L 23.1,59.7 L 23.1,59.7 L 23.2,59.7 L 23.2,59.7 L 23.2,59.7 L 23.3,59.7 L 23.3,59.8 L 23.3,59.8 L 23.3,59.8 L 23.4,59.8 L 23.4,59.9 L 23.4,59.9 L 23.4,59.9 L 23.4,59.9 L 23.5,60.0 L 23.5,60.0 L 23.5,60.0 L 23.5,60.1 L 23.5,60.1 L 23.1,60.1 Z" style="fill:#000000;fill-rule:evenodd;fill-opacity:1;stroke:#000000;stroke-width:0.0px;stroke-linecap:butt;stroke-linejoin:miter;stroke-opacity:1;"/>
<path class="atom-0" d="M 23.5,64.2 L 23.5,64.3 L 23.5,64.3 L 23.5,64.3 L 23.5,64.4 L 23.4,64.4 L 23.4,64.4 L 23.4,64.5 L 23.4,64.5 L 23.4,64.5 L 23.3,64.5 L 23.3,64.6 L 23.3,64.6 L 23.3,64.6 L 23.2,64.6 L 23.2,64.6 L 23.2,64.6 L 23.1,64.6 L 23.1,64.6 L 23.0,64.6 L 23.0,64.6 L 23.0,64.6 L 22.9,64.6 L 22.9,64.6 L 22.9,64.6 L 22.9,64.6 L 22.8,64.5 L 22.8,64.5 L 22.8,64.5 L 22.7,64.5 L 22.7,64.4 L 22.7,64.4 L 22.7,64.4 L 22.7,64.3 L 22.7,64.3 L 22.7,64.3 L 22.7,64.2 L 22.7,64.2 L 22.7,64.2 L 22.7,64.1 L 22.7,64.1 L 22.7,64.1 L 22.7,64.0 L 22.7,64.0 L 22.7,64.0 L 22.8,63.9 L 22.8,63.9 L 22.8,63.9 L 22.9,63.9 L 22.9,63.9 L 22.9,63.8 L 22.9,63.8 L 23.0,63.8 L 23.0,63.8 L 23.0,63.8 L 23.1,63.8 L 23.1,63.8 L 23.2,63.8 L 23.2,63.8 L 23.2,63.8 L 23.3,63.9 L 23.3,63.9 L 23.3,63.9 L 23.3,63.9 L 23.4,63.9 L 23.4,64.0 L 23.4,64.0 L 23.4,64.0 L 23.4,64.0 L 23.5,64.1 L 23.5,64.1 L 23.5,64.2 L 23.5,64.2 L 23.5,64.2 L 23.1,64.2 Z" style="fill:#000000;fill-rule:evenodd;fill-opacity:1;stroke:#000000;stroke-width:0.0px;stroke-linecap:butt;stroke-linejoin:miter;stroke-opacity:1;"/>
<path class="atom-0" d="M 23.5,62.2 L 23.5,62.2 L 23.5,62.2 L 23.5,62.3 L 23.5,62.3 L 23.4,62.3 L 23.4,62.4 L 23.4,62.4 L 23.4,62.4 L 23.4,62.5 L 23.3,62.5 L 23.3,62.5 L 23.3,62.5 L 23.3,62.5 L 23.2,62.6 L 23.2,62.6 L 23.2,62.6 L 23.1,62.6 L 23.1,62.6 L 23.0,62.6 L 23.0,62.6 L 23.0,62.6 L 22.9,62.6 L 22.9,62.5 L 22.9,62.5 L 22.9,62.5 L 22.8,62.5 L 22.8,62.5 L 22.8,62.4 L 22.7,62.4 L 22.7,62.4 L 22.7,62.4 L 22.7,62.3 L 22.7,62.3 L 22.7,62.3 L 22.7,62.2 L 22.7,62.2 L 22.7,62.2 L 22.7,62.1 L 22.7,62.1 L 22.7,62.0 L 22.7,62.0 L 22.7,62.0 L 22.7,61.9 L 22.7,61.9 L 22.8,61.9 L 22.8,61.9 L 22.8,61.8 L 22.9,61.8 L 22.9,61.8 L 22.9,61.8 L 22.9,61.8 L 23.0,61.8 L 23.0,61.8 L 23.0,61.8 L 23.1,61.8 L 23.1,61.8 L 23.2,61.8 L 23.2,61.8 L 23.2,61.8 L 23.3,61.8 L 23.3,61.8 L 23.3,61.8 L 23.3,61.9 L 23.4,61.9 L 23.4,61.9 L 23.4,61.9 L 23.4,62.0 L 23.4,62.0 L 23.5,62.0 L 23.5,62.1 L 23.5,62.1 L 23.5,62.1 L 23.5,62.2 L 23.1,62.2 Z" style="fill:#000000;fill-rule:evenodd;fill-opacity:1;stroke:#000000;stroke-width:0.0px;stroke-linecap:butt;stroke-linejoin:miter;stroke-opacity:1;"/>
<path class="atom-9" d="M 50.3,40.4 L 50.3,40.4 L 50.3,40.4 L 50.3,40.5 L 50.3,40.5 L 50.3,40.5 L 50.2,40.6 L 50.2,40.6 L 50.2,40.6 L 50.2,40.6 L 50.2,40.7 L 50.1,40.7 L 50.1,40.7 L 50.1,40.7 L 50.0,40.7 L 50.0,40.8 L 50.0,40.8 L 49.9,40.8 L 49.9,40.8 L 49.9,40.8 L 49.8,40.8 L 49.8,40.8 L 49.8,40.7 L 49.7,40.7 L 49.7,40.7 L 49.7,40.7 L 49.6,40.7 L 49.6,40.7 L 49.6,40.6 L 49.6,40.6 L 49.5,40.6 L 49.5,40.5 L 49.5,40.5 L 49.5,40.5 L 49.5,40.4 L 49.5,40.4 L 49.5,40.4 L 49.5,40.3 L 49.5,40.3 L 49.5,40.3 L 49.5,40.2 L 49.5,40.2 L 49.5,40.2 L 49.5,40.1 L 49.6,40.1 L 49.6,40.1 L 49.6,40.1 L 49.6,40.0 L 49.7,40.0 L 49.7,40.0 L 49.7,40.0 L 49.8,40.0 L 49.8,40.0 L 49.8,40.0 L 49.9,39.9 L 49.9,39.9 L 49.9,39.9 L 50.0,40.0 L 50.0,40.0 L 50.0,40.0 L 50.1,40.0 L 50.1,40.0 L 50.1,40.0 L 50.2,40.0 L 50.2,40.1 L 50.2,40.1 L 50.2,40.1 L 50.2,40.2 L 50.3,40.2 L 50.3,40.2 L 50.3,40.3 L 50.3,40.3 L 50.3,40.3 L 50.3,40.4 L 49.9,40.4 Z" style="fill:#000000;fill-rule:evenodd;fill-opacity:1;stroke:#000000;stroke-width:0.0px;stroke-linecap:butt;stroke-linejoin:miter;stroke-opacity:1;"/>
<path class="atom-9" d="M 50.3,38.7 L 50.3,38.8 L 50.3,38.8 L 50.3,38.8 L 50.3,38.9 L 50.3,38.9 L 50.2,38.9 L 50.2,38.9 L 50.2,39.0 L 50.2,39.0 L 50.2,39.0 L 50.1,39.0 L 50.1,39.1 L 50.1,39.1 L 50.0,39.1 L 50.0,39.1 L 50.0,39.1 L 49.9,39.1 L 49.9,39.1 L 49.9,39.1 L 49.8,39.1 L 49.8,39.1 L 49.8,39.1 L 49.7,39.1 L 49.7,39.1 L 49.7,39.1 L 49.6,39.0 L 49.6,39.0 L 49.6,39.0 L 49.6,39.0 L 49.5,38.9 L 49.5,38.9 L 49.5,38.9 L 49.5,38.8 L 49.5,38.8 L 49.5,38.8 L 49.5,38.7 L 49.5,38.7 L 49.5,38.7 L 49.5,38.6 L 49.5,38.6 L 49.5,38.6 L 49.5,38.5 L 49.5,38.5 L 49.6,38.5 L 49.6,38.4 L 49.6,38.4 L 49.6,38.4 L 49.7,38.4 L 49.7,38.4 L 49.7,38.3 L 49.8,38.3 L 49.8,38.3 L 49.8,38.3 L 49.9,38.3 L 49.9,38.3 L 49.9,38.3 L 50.0,38.3 L 50.0,38.3 L 50.0,38.3 L 50.1,38.3 L 50.1,38.4 L 50.1,38.4 L 50.2,38.4 L 50.2,38.4 L 50.2,38.5 L 50.2,38.5 L 50.2,38.5 L 50.3,38.5 L 50.3,38.6 L 50.3,38.6 L 50.3,38.6 L 50.3,38.7 L 50.3,38.7 L 49.9,38.7 Z" style="fill:#000000;fill-rule:evenodd;fill-opacity:1;stroke:#000000;stroke-width:0.0px;stroke-linecap:butt;stroke-linejoin:miter;stroke-opacity:1;"/>
<path class="atom-10" d="M 90.2,52.0 L 90.2,52.0 L 90.2,52.1 L 90.2,52.1 L 90.2,52.1 L 90.2,52.2 L 90.2,52.2 L 90.1,52.2 L 90.1,52.2 L 90.1,52.3 L 90.1,52.3 L 90.0,52.3 L 90.0,52.3 L 90.0,52.4 L 89.9,52.4 L 89.9,52.4 L 89.9,52.4 L 89.8,52.4 L 89.8,52.4 L 89.8,52.4 L 89.7,52.4 L 89.7,52.4 L 89.7,52.4 L 89.6,52.4 L 89.6,52.3 L 89.6,52.3 L 89.5,52.3 L 89.5,52.3 L 89.5,52.3 L 89.5,52.2 L 89.5,52.2 L 89.4,52.2 L 89.4,52.1 L 89.4,52.1 L 89.4,52.1 L 89.4,52.0 L 89.4,52.0 L 89.4,52.0 L 89.4,51.9 L 89.4,51.9 L 89.4,51.9 L 89.4,51.8 L 89.4,51.8 L 89.5,51.8 L 89.5,51.7 L 89.5,51.7 L 89.5,51.7 L 89.5,51.7 L 89.6,51.6 L 89.6,51.6 L 89.6,51.6 L 89.7,51.6 L 89.7,51.6 L 89.7,51.6 L 89.8,51.6 L 89.8,51.6 L 89.8,51.6 L 89.9,51.6 L 89.9,51.6 L 89.9,51.6 L 90.0,51.6 L 90.0,51.6 L 90.0,51.6 L 90.1,51.7 L 90.1,51.7 L 90.1,51.7 L 90.1,51.7 L 90.2,51.8 L 90.2,51.8 L 90.2,51.8 L 90.2,51.9 L 90.2,51.9 L 90.2,51.9 L 90.2,52.0 L 89.8,52.0 Z" style="fill:#000000;fill-rule:evenodd;fill-opacity:1;stroke:#000000;stroke-width:0.0px;stroke-linecap:butt;stroke-linejoin:miter;stroke-opacity:1;"/>
<path class="atom-11" d="M 102.9,67.8 L 102.9,67.9 L 102.9,67.9 L 102.9,67.9 L 102.8,68.0 L 102.8,68.0 L 102.8,68.0 L 102.8,68.1 L 102.8,68.1 L 102.7,68.1 L 102.7,68.1 L 102.7,68.2 L 102.7,68.2 L 102.6,68.2 L 102.6,68.2 L 102.6,68.2 L 102.5,68.2 L 102.5,68.2 L 102.5,68.2 L 102.4,68.2 L 102.4,68.2 L 102.4,68.2 L 102.3,68.2 L 102.3,68.2 L 102.3,68.2 L 102.2,68.2 L 102.2,68.1 L 102.2,68.1 L 102.1,68.1 L 102.1,68.1 L 102.1,68.0 L 102.1,68.0 L 102.1,68.0 L 102.1,67.9 L 102.1,67.9 L 102.0,67.9 L 102.0,67.8 L 102.0,67.8 L 102.0,67.8 L 102.1,67.7 L 102.1,67.7 L 102.1,67.7 L 102.1,67.6 L 102.1,67.6 L 102.1,67.6 L 102.1,67.5 L 102.2,67.5 L 102.2,67.5 L 102.2,67.5 L 102.3,67.5 L 102.3,67.4 L 102.3,67.4 L 102.4,67.4 L 102.4,67.4 L 102.4,67.4 L 102.5,67.4 L 102.5,67.4 L 102.5,67.4 L 102.6,67.4 L 102.6,67.4 L 102.6,67.5 L 102.7,67.5 L 102.7,67.5 L 102.7,67.5 L 102.7,67.5 L 102.8,67.6 L 102.8,67.6 L 102.8,67.6 L 102.8,67.6 L 102.8,67.7 L 102.9,67.7 L 102.9,67.8 L 102.9,67.8 L 102.9,67.8 L 102.5,67.8 Z" style="fill:#000000;fill-rule:evenodd;fill-opacity:1;stroke:#000000;stroke-width:0.0px;stroke-linecap:butt;stroke-linejoin:miter;stroke-opacity:1;"/>
<path class="bond-0 atom-0 atom-1" d="M 376.4,127.5 L 366.6,109.5" style="fill:none;fill-rule:evenodd;stroke:#000000;stroke-width:2.0px;stroke-linecap:butt;stroke-linejoin:miter;stroke-opacity:1"/>
<path class="bond-1 atom-1 atom-2" d="M 366.6,109.5 L 346.1,109.0" style="fill:none;fill-rule:evenodd;stroke:#000000;stroke-width:2.0px;stroke-linecap:butt;stroke-linejoin:miter;stroke-opacity:1"/>
<path class="bond-1 atom-1 atom-2" d="M 363.6,105.3 L 349.2,105.0" style="fill:none;fill-rule:evenodd;stroke:#000000;stroke-width:2.0px;stroke-linecap:butt;stroke-linejoin:miter;stroke-opacity:1"/>
<path class="bond-2 atom-2 atom-3" d="M 346.1,109.0 L 336.2,91.0" style="fill:none;fill-rule:evenodd;stroke:#000000;stroke-width:2.0px;stroke-linecap:butt;stroke-linejoin:miter;stroke-opacity:1"/>
<path class="bond-3 atom-3 atom-4" d="M 336.2,91.0 L 346.9,73.4" style="fill:none;fill-rule:evenodd;stroke:#000000;stroke-width:2.0px;stroke-linecap:butt;stroke-linejoin:miter;stroke-opacity:1"/>
<path class="bond-3 atom-3 atom-4" d="M 341.3,90.5 L 348.8,78.2" style="fill:none;fill-rule:evenodd;stroke:#000000;stroke-width:2.0px;stroke-linecap:butt;stroke-linejoin:miter;stroke-opacity:1"/>
<path class="bond-4 atom-4 atom-5" d="M 346.9,73.4 L 343.0,66.3" style="fill:none;fill-rule:evenodd;stroke:#000000;stroke-width:2.0px;stroke-linecap:butt;stroke-linejoin:miter;stroke-opacity:1"/>
<path class="bond-4 atom-4 atom-5" d="M 343.0,66.3 L 339.1,59.1" style="fill:none;fill-rule:evenodd;stroke:#FF0000;stroke-width:2.0px;stroke-linecap:butt;stroke-linejoin:miter;stroke-opacity:1"/>
<path class="bond-5 atom-4 atom-6" d="M 346.9,73.4 L 367.5,74.0" style="fill:none;fill-rule:evenodd;stroke:#000000;stroke-width:2.0px;stroke-linecap:butt;stroke-linejoin:miter;stroke-opacity:1"/>
<path class="bond-6 atom-6 atom-7" d="M 367.5,74.0 L 377.3,92.0" style="fill:none;fill-rule:evenodd;stroke:#000000;stroke-width:2.0px;stroke-linecap:butt;stroke-linejoin:miter;stroke-opacity:1"/>
<path class="bond-6 atom-6 atom-7" d="M 365.3,78.6 L 372.2,91.3" style="fill:none;fill-rule:evenodd;stroke:#000000;stroke-width:2.0px;stroke-linecap:butt;stroke-linejoin:miter;stroke-opacity:1"/>
<path class="bond-7 atom-7 atom-8" d="M 377.3,92.0 L 386.1,92.2" style="fill:none;fill-rule:evenodd;stroke:#000000;stroke-width:2.0px;stroke-linecap:butt;stroke-linejoin:miter;stroke-opacity:1"/>
<path class="bond-7 atom-7 atom-8" d="M 386.1,92.2 L 394.9,92.4" style="fill:none;fill-rule:evenodd;stroke:#0000FF;stroke-width:2.0px;stroke-linecap:butt;stroke-linejoin:miter;stroke-opacity:1"/>
<path class="bond-8 atom-8 atom-9" d="M 399.8,96.1 L 402.7,101.5" style="fill:none;fill-rule:evenodd;stroke:#0000FF;stroke-width:2.0px;stroke-linecap:butt;stroke-linejoin:miter;stroke-opacity:1"/>
<path class="bond-8 atom-8 atom-9" d="M 402.7,101.5 L 405.7,106.9" style="fill:none;fill-rule:evenodd;stroke:#FF0000;stroke-width:2.0px;stroke-linecap:butt;stroke-linejoin:miter;stroke-opacity:1"/>
<path class="bond-9 atom-9 atom-10" d="M 411.0,110.6 L 419.6,110.8" style="fill:none;fill-rule:evenodd;stroke:#FF0000;stroke-width:2.0px;stroke-linecap:butt;stroke-linejoin:miter;stroke-opacity:1"/>
<path class="bond-9 atom-9 atom-10" d="M 419.6,110.8 L 428.2,111.1" style="fill:none;fill-rule:evenodd;stroke:#000000;stroke-width:2.0px;stroke-linecap:butt;stroke-linejoin:miter;stroke-opacity:1"/>
<path class="bond-10 atom-10 atom-11" d="M 428.2,111.1 L 438.0,129.1" style="fill:none;fill-rule:evenodd;stroke:#000000;stroke-width:2.0px;stroke-linecap:butt;stroke-linejoin:miter;stroke-opacity:1"/>
<path class="bond-10 atom-10 atom-11" d="M 433.2,111.8 L 440.1,124.4" style="fill:none;fill-rule:evenodd;stroke:#000000;stroke-width:2.0px;stroke-linecap:butt;stroke-linejoin:miter;stroke-opacity:1"/>
<path class="bond-11 atom-11 atom-12" d="M 438.0,129.1 L 458.5,129.6" style="fill:none;fill-rule:evenodd;stroke:#000000;stroke-width:2.0px;stroke-linecap:butt;stroke-linejoin:miter;stroke-opacity:1"/>
<path class="bond-12 atom-12 atom-13" d="M 458.5,129.6 L 469.2,112.1" style="fill:none;fill-rule:evenodd;stroke:#000000;stroke-width:2.0px;stroke-linecap:butt;stroke-linejoin:miter;stroke-opacity:1"/>
<path class="bond-12 atom-12 atom-13" d="M 456.6,124.8 L 464.1,112.6" style="fill:none;fill-rule:evenodd;stroke:#000000;stroke-width:2.0px;stroke-linecap:butt;stroke-linejoin:miter;stroke-opacity:1"/>
<path class="bond-13 atom-13 atom-14" d="M 469.2,112.1 L 489.4,108.3" style="fill:none;fill-rule:evenodd;stroke:#000000;stroke-width:2.0px;stroke-linecap:butt;stroke-linejoin:miter;stroke-opacity:1"/>
<path class="bond-14 atom-14 atom-15" d="M 489.4,108.3 L 504.3,122.4" style="fill:none;fill-rule:evenodd;stroke:#000000;stroke-width:2.0px;stroke-linecap:butt;stroke-linejoin:miter;stroke-opacity:1"/>
<path class="bond-15 atom-15 atom-16" d="M 506.3,122.9 L 504.4,131.1" style="fill:none;fill-rule:evenodd;stroke:#000000;stroke-width:2.0px;stroke-linecap:butt;stroke-linejoin:miter;stroke-opacity:1"/>
<path class="bond-15 atom-15 atom-16" d="M 504.4,131.1 L 502.4,139.3" style="fill:none;fill-rule:evenodd;stroke:#FF0000;stroke-width:2.0px;stroke-linecap:butt;stroke-linejoin:miter;stroke-opacity:1"/>
<path class="bond-15 atom-15 atom-16" d="M 502.3,122.0 L 500.4,130.1" style="fill:none;fill-rule:evenodd;stroke:#000000;stroke-width:2.0px;stroke-linecap:butt;stroke-linejoin:miter;stroke-opacity:1"/>
<path class="bond-15 atom-15 atom-16" d="M 500.4,130.1 L 498.4,138.3" style="fill:none;fill-rule:evenodd;stroke:#FF0000;stroke-width:2.0px;stroke-linecap:butt;stroke-linejoin:miter;stroke-opacity:1"/>
<path class="bond-16 atom-15 atom-17" d="M 504.3,122.4 L 512.7,119.9" style="fill:none;fill-rule:evenodd;stroke:#000000;stroke-width:2.0px;stroke-linecap:butt;stroke-linejoin:miter;stroke-opacity:1"/>
<path class="bond-16 atom-15 atom-17" d="M 512.7,119.9 L 521.1,117.4" style="fill:none;fill-rule:evenodd;stroke:#0000FF;stroke-width:2.0px;stroke-linecap:butt;stroke-linejoin:miter;stroke-opacity:1"/>
<path class="bond-17 atom-17 atom-18" d="M 526.9,119.3 L 532.9,125.0" style="fill:none;fill-rule:evenodd;stroke:#0000FF;stroke-width:2.0px;stroke-linecap:butt;stroke-linejoin:miter;stroke-opacity:1"/>
<path class="bond-17 atom-17 atom-18" d="M 532.9,125.0 L 538.9,130.7" style="fill:none;fill-rule:evenodd;stroke:#000000;stroke-width:2.0px;stroke-linecap:butt;stroke-linejoin:miter;stroke-opacity:1"/>
<path class="bond-18 atom-18 atom-19" d="M 538.9,130.7 L 558.6,124.9" style="fill:none;fill-rule:evenodd;stroke:#000000;stroke-width:2.0px;stroke-linecap:butt;stroke-linejoin:miter;stroke-opacity:1"/>
<path class="bond-19 atom-19 atom-20" d="M 558.6,124.9 L 560.5,116.7" style="fill:none;fill-rule:evenodd;stroke:#000000;stroke-width:2.0px;stroke-linecap:butt;stroke-linejoin:miter;stroke-opacity:1"/>
<path class="bond-19 atom-19 atom-20" d="M 560.5,116.7 L 562.5,108.5" style="fill:none;fill-rule:evenodd;stroke:#0000FF;stroke-width:2.0px;stroke-linecap:butt;stroke-linejoin:miter;stroke-opacity:1"/>
<path class="bond-20 atom-20 atom-21" d="M 560.5,102.2 L 554.5,96.5" style="fill:none;fill-rule:evenodd;stroke:#0000FF;stroke-width:2.0px;stroke-linecap:butt;stroke-linejoin:miter;stroke-opacity:1"/>
<path class="bond-20 atom-20 atom-21" d="M 554.5,96.5 L 548.4,90.8" style="fill:none;fill-rule:evenodd;stroke:#000000;stroke-width:2.0px;stroke-linecap:butt;stroke-linejoin:miter;stroke-opacity:1"/>
<path class="bond-21 atom-21 atom-22" d="M 548.4,90.8 L 528.8,96.6" style="fill:none;fill-rule:evenodd;stroke:#000000;stroke-width:2.0px;stroke-linecap:butt;stroke-linejoin:miter;stroke-opacity:1"/>
<path class="bond-22 atom-14 atom-23" d="M 489.4,108.3 L 492.1,88.0" style="fill:none;fill-rule:evenodd;stroke:#000000;stroke-width:2.0px;stroke-linecap:butt;stroke-linejoin:miter;stroke-opacity:1"/>
<path class="bond-22 atom-14 atom-23" d="M 485.7,104.7 L 487.6,90.5" style="fill:none;fill-rule:evenodd;stroke:#000000;stroke-width:2.0px;stroke-linecap:butt;stroke-linejoin:miter;stroke-opacity:1"/>
<path class="bond-23 atom-23 atom-24" d="M 492.1,88.0 L 510.1,78.1" style="fill:none;fill-rule:evenodd;stroke:#000000;stroke-width:2.0px;stroke-linecap:butt;stroke-linejoin:miter;stroke-opacity:1"/>
<path class="bond-24 atom-24 atom-25" d="M 510.1,78.1 L 510.6,57.6" style="fill:none;fill-rule:evenodd;stroke:#000000;stroke-width:2.0px;stroke-linecap:butt;stroke-linejoin:miter;stroke-opacity:1"/>
<path class="bond-25 atom-25 atom-26" d="M 510.6,57.6 L 493.1,46.9" style="fill:none;fill-rule:evenodd;stroke:#000000;stroke-width:2.0px;stroke-linecap:butt;stroke-linejoin:miter;stroke-opacity:1"/>
<path class="bond-25 atom-25 atom-26" d="M 510.1,52.5 L 497.9,45.0" style="fill:none;fill-rule:evenodd;stroke:#000000;stroke-width:2.0px;stroke-linecap:butt;stroke-linejoin:miter;stroke-opacity:1"/>
<path class="bond-26 atom-26 atom-27" d="M 493.1,46.9 L 493.6,26.4" style="fill:none;fill-rule:evenodd;stroke:#000000;stroke-width:2.0px;stroke-linecap:butt;stroke-linejoin:miter;stroke-opacity:1"/>
<path class="bond-27 atom-27 atom-28" d="M 493.6,26.4 L 511.6,16.6" style="fill:none;fill-rule:evenodd;stroke:#000000;stroke-width:2.0px;stroke-linecap:butt;stroke-linejoin:miter;stroke-opacity:1"/>
<path class="bond-27 atom-27 atom-28" d="M 498.3,28.5 L 510.9,21.6" style="fill:none;fill-rule:evenodd;stroke:#000000;stroke-width:2.0px;stroke-linecap:butt;stroke-linejoin:miter;stroke-opacity:1"/>
<path class="bond-28 atom-28 atom-29" d="M 511.6,16.6 L 529.2,27.3" style="fill:none;fill-rule:evenodd;stroke:#000000;stroke-width:2.0px;stroke-linecap:butt;stroke-linejoin:miter;stroke-opacity:1"/>
<path class="bond-29 atom-29 atom-30" d="M 529.2,27.3 L 537.0,23.0" style="fill:none;fill-rule:evenodd;stroke:#000000;stroke-width:2.0px;stroke-linecap:butt;stroke-linejoin:miter;stroke-opacity:1"/>
<path class="bond-29 atom-29 atom-30" d="M 537.0,23.0 L 544.8,18.8" style="fill:none;fill-rule:evenodd;stroke:#33CCCC;stroke-width:2.0px;stroke-linecap:butt;stroke-linejoin:miter;stroke-opacity:1"/>
<path class="bond-30 atom-29 atom-31" d="M 529.2,27.3 L 528.6,47.8" style="fill:none;fill-rule:evenodd;stroke:#000000;stroke-width:2.0px;stroke-linecap:butt;stroke-linejoin:miter;stroke-opacity:1"/>
<path class="bond-30 atom-29 atom-31" d="M 525.0,30.3 L 524.6,44.6" style="fill:none;fill-rule:evenodd;stroke:#000000;stroke-width:2.0px;stroke-linecap:butt;stroke-linejoin:miter;stroke-opacity:1"/>
<path class="bond-31 atom-31 atom-32" d="M 528.6,47.8 L 546.2,58.5" style="fill:none;fill-rule:evenodd;stroke:#000000;stroke-width:2.0px;stroke-linecap:butt;stroke-linejoin:miter;stroke-opacity:1"/>
<path class="bond-32 atom-23 atom-33" d="M 492.1,88.0 L 484.2,84.2" style="fill:none;fill-rule:evenodd;stroke:#000000;stroke-width:2.0px;stroke-linecap:butt;stroke-linejoin:miter;stroke-opacity:1"/>
<path class="bond-32 atom-23 atom-33" d="M 484.2,84.2 L 476.4,80.5" style="fill:none;fill-rule:evenodd;stroke:#0000FF;stroke-width:2.0px;stroke-linecap:butt;stroke-linejoin:miter;stroke-opacity:1"/>
<path class="bond-33 atom-33 atom-34" d="M 472.8,75.6 L 471.3,67.3" style="fill:none;fill-rule:evenodd;stroke:#0000FF;stroke-width:2.0px;stroke-linecap:butt;stroke-linejoin:miter;stroke-opacity:1"/>
<path class="bond-33 atom-33 atom-34" d="M 471.3,67.3 L 469.8,59.0" style="fill:none;fill-rule:evenodd;stroke:#000000;stroke-width:2.0px;stroke-linecap:butt;stroke-linejoin:miter;stroke-opacity:1"/>
<path class="bond-34 atom-34 atom-35" d="M 469.8,59.0 L 485.3,45.6" style="fill:none;fill-rule:evenodd;stroke:#000000;stroke-width:2.0px;stroke-linecap:butt;stroke-linejoin:miter;stroke-opacity:1"/>
<path class="bond-34 atom-34 atom-35" d="M 469.4,53.8 L 480.3,44.5" style="fill:none;fill-rule:evenodd;stroke:#000000;stroke-width:2.0px;stroke-linecap:butt;stroke-linejoin:miter;stroke-opacity:1"/>
<path class="bond-35 atom-35 atom-36" d="M 485.3,45.6 L 481.6,25.4" style="fill:none;fill-rule:evenodd;stroke:#000000;stroke-width:2.0px;stroke-linecap:butt;stroke-linejoin:miter;stroke-opacity:1"/>
<path class="bond-36 atom-36 atom-37" d="M 481.6,25.4 L 462.2,18.6" style="fill:none;fill-rule:evenodd;stroke:#000000;stroke-width:2.0px;stroke-linecap:butt;stroke-linejoin:miter;stroke-opacity:1"/>
<path class="bond-36 atom-36 atom-37" d="M 477.3,28.3 L 463.8,23.5" style="fill:none;fill-rule:evenodd;stroke:#000000;stroke-width:2.0px;stroke-linecap:butt;stroke-linejoin:miter;stroke-opacity:1"/>
<path class="bond-37 atom-37 atom-38" d="M 462.2,18.6 L 446.6,31.9" style="fill:none;fill-rule:evenodd;stroke:#000000;stroke-width:2.0px;stroke-linecap:butt;stroke-linejoin:miter;stroke-opacity:1"/>
<path class="bond-38 atom-38 atom-39" d="M 446.6,31.9 L 450.4,52.1" style="fill:none;fill-rule:evenodd;stroke:#000000;stroke-width:2.0px;stroke-linecap:butt;stroke-linejoin:miter;stroke-opacity:1"/>
<path class="bond-38 atom-38 atom-39" d="M 451.2,34.2 L 453.9,48.3" style="fill:none;fill-rule:evenodd;stroke:#000000;stroke-width:2.0px;stroke-linecap:butt;stroke-linejoin:miter;stroke-opacity:1"/>
<path class="bond-39 atom-33 atom-40" d="M 470.6,82.2 L 465.0,88.1" style="fill:none;fill-rule:evenodd;stroke:#0000FF;stroke-width:2.0px;stroke-linecap:butt;stroke-linejoin:miter;stroke-opacity:1"/>
<path class="bond-39 atom-33 atom-40" d="M 465.0,88.1 L 459.4,94.1" style="fill:none;fill-rule:evenodd;stroke:#000000;stroke-width:2.0px;stroke-linecap:butt;stroke-linejoin:miter;stroke-opacity:1"/>
<path class="bond-40 atom-40 atom-41" d="M 459.4,94.1 L 438.9,93.5" style="fill:none;fill-rule:evenodd;stroke:#000000;stroke-width:2.0px;stroke-linecap:butt;stroke-linejoin:miter;stroke-opacity:1"/>
<path class="bond-40 atom-40 atom-41" d="M 456.2,98.1 L 441.8,97.7" style="fill:none;fill-rule:evenodd;stroke:#000000;stroke-width:2.0px;stroke-linecap:butt;stroke-linejoin:miter;stroke-opacity:1"/>
<path class="bond-41 atom-8 atom-42" d="M 400.0,88.9 L 404.3,82.0" style="fill:none;fill-rule:evenodd;stroke:#0000FF;stroke-width:2.0px;stroke-linecap:butt;stroke-linejoin:miter;stroke-opacity:1"/>
<path class="bond-41 atom-8 atom-42" d="M 404.3,82.0 L 408.5,75.0" style="fill:none;fill-rule:evenodd;stroke:#000000;stroke-width:2.0px;stroke-linecap:butt;stroke-linejoin:miter;stroke-opacity:1"/>
<path class="bond-42 atom-42 atom-43" d="M 408.5,75.0 L 429.1,75.5" style="fill:none;fill-rule:evenodd;stroke:#000000;stroke-width:2.0px;stroke-linecap:butt;stroke-linejoin:miter;stroke-opacity:1"/>
<path class="bond-42 atom-42 atom-43" d="M 411.7,71.0 L 426.1,71.3" style="fill:none;fill-rule:evenodd;stroke:#000000;stroke-width:2.0px;stroke-linecap:butt;stroke-linejoin:miter;stroke-opacity:1"/>
<path class="bond-43 atom-43 atom-44" d="M 429.1,75.5 L 439.8,58.0" style="fill:none;fill-rule:evenodd;stroke:#000000;stroke-width:2.0px;stroke-linecap:butt;stroke-linejoin:miter;stroke-opacity:1"/>
<path class="bond-44 atom-44 atom-45" d="M 439.8,58.0 L 429.9,40.0" style="fill:none;fill-rule:evenodd;stroke:#000000;stroke-width:2.0px;stroke-linecap:butt;stroke-linejoin:miter;stroke-opacity:1"/>
<path class="bond-44 atom-44 atom-45" d="M 434.7,57.2 L 427.8,44.6" style="fill:none;fill-rule:evenodd;stroke:#000000;stroke-width:2.0px;stroke-linecap:butt;stroke-linejoin:miter;stroke-opacity:1"/>
<path class="bond-45 atom-45 atom-46" d="M 429.9,40.0 L 409.4,39.4" style="fill:none;fill-rule:evenodd;stroke:#000000;stroke-width:2.0px;stroke-linecap:butt;stroke-linejoin:miter;stroke-opacity:1"/>
<path class="bond-46 atom-46 atom-47" d="M 409.4,39.4 L 405.5,32.3" style="fill:none;fill-rule:evenodd;stroke:#000000;stroke-width:2.0px;stroke-linecap:butt;stroke-linejoin:miter;stroke-opacity:1"/>
<path class="bond-46 atom-46 atom-47" d="M 405.5,32.3 L 401.6,25.1" style="fill:none;fill-rule:evenodd;stroke:#FF0000;stroke-width:2.0px;stroke-linecap:butt;stroke-linejoin:miter;stroke-opacity:1"/>
<path class="bond-47 atom-46 atom-48" d="M 409.4,39.4 L 398.7,57.0" style="fill:none;fill-rule:evenodd;stroke:#000000;stroke-width:2.0px;stroke-linecap:butt;stroke-linejoin:miter;stroke-opacity:1"/>
<path class="bond-47 atom-46 atom-48" d="M 411.3,44.2 L 403.8,56.5" style="fill:none;fill-rule:evenodd;stroke:#000000;stroke-width:2.0px;stroke-linecap:butt;stroke-linejoin:miter;stroke-opacity:1"/>
<path class="bond-48 atom-48 atom-49" d="M 398.7,57.0 L 389.9,56.7" style="fill:none;fill-rule:evenodd;stroke:#000000;stroke-width:2.0px;stroke-linecap:butt;stroke-linejoin:miter;stroke-opacity:1"/>
<path class="bond-48 atom-48 atom-49" d="M 389.9,56.7 L 381.1,56.5" style="fill:none;fill-rule:evenodd;stroke:#0000FF;stroke-width:2.0px;stroke-linecap:butt;stroke-linejoin:miter;stroke-opacity:1"/>
<path class="bond-49 atom-49 atom-50" d="M 376.2,52.9 L 373.3,47.4" style="fill:none;fill-rule:evenodd;stroke:#0000FF;stroke-width:2.0px;stroke-linecap:butt;stroke-linejoin:miter;stroke-opacity:1"/>
<path class="bond-49 atom-49 atom-50" d="M 373.3,47.4 L 370.3,42.0" style="fill:none;fill-rule:evenodd;stroke:#FF7F00;stroke-width:2.0px;stroke-linecap:butt;stroke-linejoin:miter;stroke-opacity:1"/>
<path class="bond-50 atom-7 atom-1" d="M 377.3,92.0 L 366.6,109.5" style="fill:none;fill-rule:evenodd;stroke:#000000;stroke-width:2.0px;stroke-linecap:butt;stroke-linejoin:miter;stroke-opacity:1"/>
<path class="bond-51 atom-41 atom-10" d="M 438.9,93.5 L 428.2,111.1" style="fill:none;fill-rule:evenodd;stroke:#000000;stroke-width:2.0px;stroke-linecap:butt;stroke-linejoin:miter;stroke-opacity:1"/>
<path class="bond-52 atom-48 atom-42" d="M 398.7,57.0 L 408.5,75.0" style="fill:none;fill-rule:evenodd;stroke:#000000;stroke-width:2.0px;stroke-linecap:butt;stroke-linejoin:miter;stroke-opacity:1"/>
<path class="bond-53 atom-40 atom-13" d="M 459.4,94.1 L 469.2,112.1" style="fill:none;fill-rule:evenodd;stroke:#000000;stroke-width:2.0px;stroke-linecap:butt;stroke-linejoin:miter;stroke-opacity:1"/>
<path class="bond-54 atom-22 atom-17" d="M 528.8,96.6 L 526.8,104.8" style="fill:none;fill-rule:evenodd;stroke:#000000;stroke-width:2.0px;stroke-linecap:butt;stroke-linejoin:miter;stroke-opacity:1"/>
<path class="bond-54 atom-22 atom-17" d="M 526.8,104.8 L 524.8,113.0" style="fill:none;fill-rule:evenodd;stroke:#0000FF;stroke-width:2.0px;stroke-linecap:butt;stroke-linejoin:miter;stroke-opacity:1"/>
<path class="bond-55 atom-31 atom-25" d="M 528.6,47.8 L 510.6,57.6" style="fill:none;fill-rule:evenodd;stroke:#000000;stroke-width:2.0px;stroke-linecap:butt;stroke-linejoin:miter;stroke-opacity:1"/>
<path class="bond-56 atom-39 atom-34" d="M 450.4,52.1 L 469.8,59.0" style="fill:none;fill-rule:evenodd;stroke:#000000;stroke-width:2.0px;stroke-linecap:butt;stroke-linejoin:miter;stroke-opacity:1"/>
<path class="atom-5" d="M 329.2 52.5 L 330.0 52.5 L 330.0 55.0 L 333.0 55.0 L 333.0 52.5 L 333.8 52.5 L 333.8 58.4 L 333.0 58.4 L 333.0 55.7 L 330.0 55.7 L 330.0 58.4 L 329.2 58.4 L 329.2 52.5 " fill="#FF0000"/>
<path class="atom-5" d="M 334.5 55.4 Q 334.5 54.0, 335.1 53.3 Q 335.8 52.5, 337.1 52.5 Q 338.4 52.5, 339.1 53.3 Q 339.8 54.0, 339.8 55.4 Q 339.8 56.8, 339.1 57.6 Q 338.4 58.4, 337.1 58.4 Q 335.8 58.4, 335.1 57.6 Q 334.5 56.8, 334.5 55.4 M 337.1 57.8 Q 338.0 57.8, 338.5 57.2 Q 339.0 56.6, 339.0 55.4 Q 339.0 54.3, 338.5 53.7 Q 338.0 53.1, 337.1 53.1 Q 336.2 53.1, 335.8 53.7 Q 335.3 54.3, 335.3 55.4 Q 335.3 56.6, 335.8 57.2 Q 336.2 57.8, 337.1 57.8 " fill="#FF0000"/>
<path class="atom-8" d="M 396.5 89.6 L 398.4 92.7 Q 398.6 93.0, 398.9 93.5 Q 399.2 94.1, 399.2 94.1 L 399.2 89.6 L 400.0 89.6 L 400.0 95.4 L 399.2 95.4 L 397.2 92.1 Q 396.9 91.7, 396.7 91.2 Q 396.4 90.8, 396.4 90.6 L 396.4 95.4 L 395.6 95.4 L 395.6 89.6 L 396.5 89.6 " fill="#0000FF"/>
<path class="atom-9" d="M 405.0 110.6 Q 405.0 109.2, 405.7 108.4 Q 406.3 107.6, 407.6 107.6 Q 408.9 107.6, 409.6 108.4 Q 410.3 109.2, 410.3 110.6 Q 410.3 112.0, 409.6 112.8 Q 408.9 113.6, 407.6 113.6 Q 406.4 113.6, 405.7 112.8 Q 405.0 112.0, 405.0 110.6 M 407.6 112.9 Q 408.5 112.9, 409.0 112.3 Q 409.5 111.7, 409.5 110.6 Q 409.5 109.4, 409.0 108.8 Q 408.5 108.3, 407.6 108.3 Q 406.7 108.3, 406.3 108.8 Q 405.8 109.4, 405.8 110.6 Q 405.8 111.7, 406.3 112.3 Q 406.7 112.9, 407.6 112.9 " fill="#FF0000"/>
<path class="atom-16" d="M 496.9 142.4 Q 496.9 141.0, 497.6 140.3 Q 498.2 139.5, 499.5 139.5 Q 500.8 139.5, 501.5 140.3 Q 502.2 141.0, 502.2 142.4 Q 502.2 143.8, 501.5 144.6 Q 500.8 145.4, 499.5 145.4 Q 498.3 145.4, 497.6 144.6 Q 496.9 143.9, 496.9 142.4 M 499.5 144.8 Q 500.4 144.8, 500.9 144.2 Q 501.4 143.6, 501.4 142.4 Q 501.4 141.3, 500.9 140.7 Q 500.4 140.1, 499.5 140.1 Q 498.6 140.1, 498.2 140.7 Q 497.7 141.3, 497.7 142.4 Q 497.7 143.6, 498.2 144.2 Q 498.6 144.8, 499.5 144.8 " fill="#FF0000"/>
<path class="atom-17" d="M 522.7 113.7 L 524.6 116.8 Q 524.8 117.1, 525.1 117.6 Q 525.4 118.2, 525.4 118.2 L 525.4 113.7 L 526.2 113.7 L 526.2 119.5 L 525.4 119.5 L 523.4 116.1 Q 523.1 115.7, 522.9 115.3 Q 522.6 114.8, 522.5 114.7 L 522.5 119.5 L 521.8 119.5 L 521.8 113.7 L 522.7 113.7 " fill="#0000FF"/>
<path class="atom-20" d="M 562.1 102.0 L 564.0 105.1 Q 564.2 105.4, 564.5 105.9 Q 564.8 106.5, 564.8 106.5 L 564.8 102.0 L 565.6 102.0 L 565.6 107.8 L 564.8 107.8 L 562.7 104.4 Q 562.5 104.0, 562.2 103.6 Q 562.0 103.1, 561.9 103.0 L 561.9 107.8 L 561.1 107.8 L 561.1 102.0 L 562.1 102.0 " fill="#0000FF"/>
<path class="atom-20" d="M 566.2 102.0 L 567.0 102.0 L 567.0 104.5 L 570.0 104.5 L 570.0 102.0 L 570.8 102.0 L 570.8 107.8 L 570.0 107.8 L 570.0 105.1 L 567.0 105.1 L 567.0 107.8 L 566.2 107.8 L 566.2 102.0 " fill="#0000FF"/>
<path class="atom-30" d="M 545.5 14.6 L 548.9 14.6 L 548.9 15.2 L 546.2 15.2 L 546.2 17.0 L 548.6 17.0 L 548.6 17.7 L 546.2 17.7 L 546.2 20.4 L 545.5 20.4 L 545.5 14.6 " fill="#33CCCC"/>
<path class="atom-33" d="M 472.2 76.2 L 474.1 79.3 Q 474.3 79.6, 474.6 80.2 Q 474.9 80.7, 474.9 80.8 L 474.9 76.2 L 475.7 76.2 L 475.7 82.1 L 474.9 82.1 L 472.9 78.7 Q 472.6 78.3, 472.4 77.8 Q 472.1 77.4, 472.1 77.2 L 472.1 82.1 L 471.3 82.1 L 471.3 76.2 L 472.2 76.2 " fill="#0000FF"/>
<path class="atom-47" d="M 391.7 18.5 L 392.5 18.5 L 392.5 21.0 L 395.4 21.0 L 395.4 18.5 L 396.2 18.5 L 396.2 24.3 L 395.4 24.3 L 395.4 21.7 L 392.5 21.7 L 392.5 24.3 L 391.7 24.3 L 391.7 18.5 " fill="#FF0000"/>
<path class="atom-47" d="M 396.9 21.4 Q 396.9 20.0, 397.6 19.2 Q 398.3 18.5, 399.6 18.5 Q 400.9 18.5, 401.6 19.2 Q 402.3 20.0, 402.3 21.4 Q 402.3 22.8, 401.6 23.6 Q 400.9 24.4, 399.6 24.4 Q 398.3 24.4, 397.6 23.6 Q 396.9 22.8, 396.9 21.4 M 399.6 23.8 Q 400.5 23.8, 401.0 23.2 Q 401.4 22.6, 401.4 21.4 Q 401.4 20.3, 401.0 19.7 Q 400.5 19.1, 399.6 19.1 Q 398.7 19.1, 398.2 19.7 Q 397.8 20.3, 397.8 21.4 Q 397.8 22.6, 398.2 23.2 Q 398.7 23.8, 399.6 23.8 " fill="#FF0000"/>
<path class="atom-49" d="M 370.7 53.5 L 371.5 53.5 L 371.5 56.0 L 374.5 56.0 L 374.5 53.5 L 375.3 53.5 L 375.3 59.3 L 374.5 59.3 L 374.5 56.7 L 371.5 56.7 L 371.5 59.3 L 370.7 59.3 L 370.7 53.5 " fill="#0000FF"/>
<path class="atom-49" d="M 376.9 53.5 L 378.8 56.6 Q 379.0 56.9, 379.3 57.5 Q 379.6 58.0, 379.6 58.1 L 379.6 53.5 L 380.4 53.5 L 380.4 59.3 L 379.6 59.3 L 377.5 56.0 Q 377.3 55.6, 377.1 55.1 Q 376.8 54.7, 376.7 54.5 L 376.7 59.3 L 376.0 59.3 L 376.0 53.5 L 376.9 53.5 " fill="#0000FF"/>
<path class="atom-50" d="M 358.4 35.5 L 359.1 35.5 L 359.1 38.0 L 362.1 38.0 L 362.1 35.5 L 362.9 35.5 L 362.9 41.3 L 362.1 41.3 L 362.1 38.6 L 359.1 38.6 L 359.1 41.3 L 358.4 41.3 L 358.4 35.5 " fill="#FF7F00"/>
<path class="atom-50" d="M 365.5 42.2 Q 365.8 42.3, 366.0 42.6 Q 366.2 42.8, 366.2 43.2 Q 366.2 43.5, 366.0 43.8 Q 365.9 44.0, 365.6 44.1 Q 365.3 44.3, 364.9 44.3 Q 364.5 44.3, 364.2 44.1 Q 363.9 44.0, 363.6 43.7 L 363.9 43.4 Q 364.2 43.6, 364.4 43.7 Q 364.6 43.8, 364.9 43.8 Q 365.2 43.8, 365.4 43.7 Q 365.6 43.5, 365.6 43.2 Q 365.6 42.8, 365.4 42.6 Q 365.2 42.4, 364.7 42.4 L 364.5 42.4 L 364.5 42.0 L 364.7 42.0 Q 365.1 42.0, 365.3 41.8 Q 365.6 41.7, 365.6 41.3 Q 365.6 41.1, 365.4 40.9 Q 365.2 40.8, 364.9 40.8 Q 364.6 40.8, 364.4 40.9 Q 364.2 41.0, 364.0 41.3 L 363.6 41.1 Q 363.8 40.8, 364.1 40.6 Q 364.4 40.3, 364.9 40.3 Q 365.4 40.3, 365.8 40.6 Q 366.1 40.9, 366.1 41.3 Q 366.1 41.6, 365.9 41.9 Q 365.8 42.1, 365.5 42.2 " fill="#FF7F00"/>
<path class="atom-50" d="M 368.2 35.5 Q 369.2 35.5, 369.7 36.0 Q 370.2 36.4, 370.2 37.2 Q 370.2 38.0, 369.7 38.5 Q 369.2 38.9, 368.2 38.9 L 367.3 38.9 L 367.3 41.3 L 366.5 41.3 L 366.5 35.5 L 368.2 35.5 M 368.2 38.3 Q 368.8 38.3, 369.1 38.0 Q 369.4 37.7, 369.4 37.2 Q 369.4 36.7, 369.1 36.4 Q 368.8 36.2, 368.2 36.2 L 367.3 36.2 L 367.3 38.3 L 368.2 38.3 " fill="#FF7F00"/>
<path class="atom-50" d="M 370.6 36.5 L 371.6 36.5 L 371.6 35.5 L 372.1 35.5 L 372.1 36.5 L 373.1 36.5 L 373.1 36.9 L 372.1 36.9 L 372.1 38.0 L 371.6 38.0 L 371.6 36.9 L 370.6 36.9 L 370.6 36.5 " fill="#FF7F00"/>
<path class="atom-0" d="M 379.3,125.5 L 379.3,125.5 L 379.3,125.6 L 379.3,125.6 L 379.2,125.6 L 379.2,125.7 L 379.2,125.7 L 379.2,125.7 L 379.2,125.8 L 379.2,125.8 L 379.1,125.8 L 379.1,125.8 L 379.1,125.8 L 379.0,125.9 L 379.0,125.9 L 379.0,125.9 L 378.9,125.9 L 378.9,125.9 L 378.9,125.9 L 378.8,125.9 L 378.8,125.9 L 378.8,125.9 L 378.7,125.9 L 378.7,125.9 L 378.7,125.9 L 378.6,125.8 L 378.6,125.8 L 378.6,125.8 L 378.6,125.8 L 378.5,125.7 L 378.5,125.7 L 378.5,125.7 L 378.5,125.7 L 378.5,125.6 L 378.5,125.6 L 378.5,125.5 L 378.5,125.5 L 378.5,125.5 L 378.5,125.4 L 378.5,125.4 L 378.5,125.4 L 378.5,125.3 L 378.5,125.3 L 378.5,125.3 L 378.5,125.2 L 378.6,125.2 L 378.6,125.2 L 378.6,125.2 L 378.6,125.2 L 378.7,125.1 L 378.7,125.1 L 378.7,125.1 L 378.8,125.1 L 378.8,125.1 L 378.8,125.1 L 378.9,125.1 L 378.9,125.1 L 378.9,125.1 L 379.0,125.1 L 379.0,125.1 L 379.0,125.1 L 379.1,125.1 L 379.1,125.2 L 379.1,125.2 L 379.2,125.2 L 379.2,125.2 L 379.2,125.3 L 379.2,125.3 L 379.2,125.3 L 379.2,125.4 L 379.3,125.4 L 379.3,125.4 L 379.3,125.5 L 379.3,125.5 L 378.9,125.5 Z" style="fill:#000000;fill-rule:evenodd;fill-opacity:1;stroke:#000000;stroke-width:0.0px;stroke-linecap:butt;stroke-linejoin:miter;stroke-opacity:1;"/>
<path class="atom-0" d="M 379.3,129.6 L 379.3,129.6 L 379.3,129.7 L 379.3,129.7 L 379.2,129.7 L 379.2,129.8 L 379.2,129.8 L 379.2,129.8 L 379.2,129.9 L 379.2,129.9 L 379.1,129.9 L 379.1,129.9 L 379.1,130.0 L 379.0,130.0 L 379.0,130.0 L 379.0,130.0 L 378.9,130.0 L 378.9,130.0 L 378.9,130.0 L 378.8,130.0 L 378.8,130.0 L 378.8,130.0 L 378.7,130.0 L 378.7,130.0 L 378.7,130.0 L 378.6,129.9 L 378.6,129.9 L 378.6,129.9 L 378.6,129.9 L 378.5,129.8 L 378.5,129.8 L 378.5,129.8 L 378.5,129.8 L 378.5,129.7 L 378.5,129.7 L 378.5,129.7 L 378.5,129.6 L 378.5,129.6 L 378.5,129.5 L 378.5,129.5 L 378.5,129.5 L 378.5,129.4 L 378.5,129.4 L 378.5,129.4 L 378.5,129.4 L 378.6,129.3 L 378.6,129.3 L 378.6,129.3 L 378.6,129.3 L 378.7,129.2 L 378.7,129.2 L 378.7,129.2 L 378.8,129.2 L 378.8,129.2 L 378.8,129.2 L 378.9,129.2 L 378.9,129.2 L 378.9,129.2 L 379.0,129.2 L 379.0,129.2 L 379.0,129.2 L 379.1,129.2 L 379.1,129.3 L 379.1,129.3 L 379.2,129.3 L 379.2,129.3 L 379.2,129.4 L 379.2,129.4 L 379.2,129.4 L 379.2,129.5 L 379.3,129.5 L 379.3,129.5 L 379.3,129.6 L 379.3,129.6 L 378.9,129.6 Z" style="fill:#000000;fill-rule:evenodd;fill-opacity:1;stroke:#000000;stroke-width:0.0px;stroke-linecap:butt;stroke-linejoin:miter;stroke-opacity:1;"/>
<path class="atom-0" d="M 379.3,127.5 L 379.3,127.6 L 379.3,127.6 L 379.3,127.7 L 379.2,127.7 L 379.2,127.7 L 379.2,127.8 L 379.2,127.8 L 379.2,127.8 L 379.2,127.8 L 379.1,127.9 L 379.1,127.9 L 379.1,127.9 L 379.0,127.9 L 379.0,127.9 L 379.0,127.9 L 378.9,128.0 L 378.9,128.0 L 378.9,128.0 L 378.8,128.0 L 378.8,128.0 L 378.8,127.9 L 378.7,127.9 L 378.7,127.9 L 378.7,127.9 L 378.6,127.9 L 378.6,127.9 L 378.6,127.8 L 378.6,127.8 L 378.5,127.8 L 378.5,127.8 L 378.5,127.7 L 378.5,127.7 L 378.5,127.7 L 378.5,127.6 L 378.5,127.6 L 378.5,127.6 L 378.5,127.5 L 378.5,127.5 L 378.5,127.5 L 378.5,127.4 L 378.5,127.4 L 378.5,127.4 L 378.5,127.3 L 378.5,127.3 L 378.6,127.3 L 378.6,127.2 L 378.6,127.2 L 378.6,127.2 L 378.7,127.2 L 378.7,127.2 L 378.7,127.2 L 378.8,127.1 L 378.8,127.1 L 378.8,127.1 L 378.9,127.1 L 378.9,127.1 L 378.9,127.1 L 379.0,127.2 L 379.0,127.2 L 379.0,127.2 L 379.1,127.2 L 379.1,127.2 L 379.1,127.2 L 379.2,127.3 L 379.2,127.3 L 379.2,127.3 L 379.2,127.3 L 379.2,127.4 L 379.2,127.4 L 379.3,127.4 L 379.3,127.5 L 379.3,127.5 L 379.3,127.5 L 378.9,127.5 Z" style="fill:#000000;fill-rule:evenodd;fill-opacity:1;stroke:#000000;stroke-width:0.0px;stroke-linecap:butt;stroke-linejoin:miter;stroke-opacity:1;"/>
<path class="bond-0 atom-0 atom-1" d="M 676.5,128.0 L 666.7,110.0" style="fill:none;fill-rule:evenodd;stroke:#000000;stroke-width:2.0px;stroke-linecap:butt;stroke-linejoin:miter;stroke-opacity:1"/>
<path class="bond-1 atom-1 atom-2" d="M 666.7,110.0 L 646.1,109.5" style="fill:none;fill-rule:evenodd;stroke:#000000;stroke-width:2.0px;stroke-linecap:butt;stroke-linejoin:miter;stroke-opacity:1"/>
<path class="bond-1 atom-1 atom-2" d="M 663.7,105.8 L 649.3,105.5" style="fill:none;fill-rule:evenodd;stroke:#000000;stroke-width:2.0px;stroke-linecap:butt;stroke-linejoin:miter;stroke-opacity:1"/>
<path class="bond-2 atom-2 atom-3" d="M 646.1,109.5 L 636.3,91.5" style="fill:none;fill-rule:evenodd;stroke:#000000;stroke-width:2.0px;stroke-linecap:butt;stroke-linejoin:miter;stroke-opacity:1"/>
<path class="bond-3 atom-3 atom-4" d="M 636.3,91.5 L 646.9,74.0" style="fill:none;fill-rule:evenodd;stroke:#000000;stroke-width:2.0px;stroke-linecap:butt;stroke-linejoin:miter;stroke-opacity:1"/>
<path class="bond-3 atom-3 atom-4" d="M 641.4,91.0 L 648.8,78.7" style="fill:none;fill-rule:evenodd;stroke:#000000;stroke-width:2.0px;stroke-linecap:butt;stroke-linejoin:miter;stroke-opacity:1"/>
<path class="bond-4 atom-4 atom-5" d="M 646.9,74.0 L 643.0,66.8" style="fill:none;fill-rule:evenodd;stroke:#000000;stroke-width:2.0px;stroke-linecap:butt;stroke-linejoin:miter;stroke-opacity:1"/>
<path class="bond-4 atom-4 atom-5" d="M 643.0,66.8 L 639.1,59.7" style="fill:none;fill-rule:evenodd;stroke:#FF0000;stroke-width:2.0px;stroke-linecap:butt;stroke-linejoin:miter;stroke-opacity:1"/>
<path class="bond-5 atom-4 atom-6" d="M 646.9,74.0 L 667.5,74.4" style="fill:none;fill-rule:evenodd;stroke:#000000;stroke-width:2.0px;stroke-linecap:butt;stroke-linejoin:miter;stroke-opacity:1"/>
<path class="bond-6 atom-6 atom-7" d="M 667.5,74.4 L 677.3,92.4" style="fill:none;fill-rule:evenodd;stroke:#000000;stroke-width:2.0px;stroke-linecap:butt;stroke-linejoin:miter;stroke-opacity:1"/>
<path class="bond-6 atom-6 atom-7" d="M 665.3,79.1 L 672.2,91.7" style="fill:none;fill-rule:evenodd;stroke:#000000;stroke-width:2.0px;stroke-linecap:butt;stroke-linejoin:miter;stroke-opacity:1"/>
<path class="bond-7 atom-7 atom-8" d="M 677.3,92.4 L 686.1,92.6" style="fill:none;fill-rule:evenodd;stroke:#000000;stroke-width:2.0px;stroke-linecap:butt;stroke-linejoin:miter;stroke-opacity:1"/>
<path class="bond-7 atom-7 atom-8" d="M 686.1,92.6 L 695.0,92.8" style="fill:none;fill-rule:evenodd;stroke:#0000FF;stroke-width:2.0px;stroke-linecap:butt;stroke-linejoin:miter;stroke-opacity:1"/>
<path class="bond-8 atom-8 atom-9" d="M 699.8,96.5 L 702.8,101.9" style="fill:none;fill-rule:evenodd;stroke:#0000FF;stroke-width:2.0px;stroke-linecap:butt;stroke-linejoin:miter;stroke-opacity:1"/>
<path class="bond-8 atom-8 atom-9" d="M 702.8,101.9 L 705.7,107.3" style="fill:none;fill-rule:evenodd;stroke:#FF0000;stroke-width:2.0px;stroke-linecap:butt;stroke-linejoin:miter;stroke-opacity:1"/>
<path class="bond-9 atom-9 atom-10" d="M 711.1,111.0 L 719.7,111.2" style="fill:none;fill-rule:evenodd;stroke:#FF0000;stroke-width:2.0px;stroke-linecap:butt;stroke-linejoin:miter;stroke-opacity:1"/>
<path class="bond-9 atom-9 atom-10" d="M 719.7,111.2 L 728.3,111.3" style="fill:none;fill-rule:evenodd;stroke:#000000;stroke-width:2.0px;stroke-linecap:butt;stroke-linejoin:miter;stroke-opacity:1"/>
<path class="bond-10 atom-10 atom-11" d="M 728.3,111.3 L 738.1,129.4" style="fill:none;fill-rule:evenodd;stroke:#000000;stroke-width:2.0px;stroke-linecap:butt;stroke-linejoin:miter;stroke-opacity:1"/>
<path class="bond-10 atom-10 atom-11" d="M 733.3,112.1 L 740.2,124.7" style="fill:none;fill-rule:evenodd;stroke:#000000;stroke-width:2.0px;stroke-linecap:butt;stroke-linejoin:miter;stroke-opacity:1"/>
<path class="bond-11 atom-11 atom-12" d="M 738.1,129.4 L 758.7,129.8" style="fill:none;fill-rule:evenodd;stroke:#000000;stroke-width:2.0px;stroke-linecap:butt;stroke-linejoin:miter;stroke-opacity:1"/>
<path class="bond-12 atom-12 atom-13" d="M 758.7,129.8 L 769.3,112.3" style="fill:none;fill-rule:evenodd;stroke:#000000;stroke-width:2.0px;stroke-linecap:butt;stroke-linejoin:miter;stroke-opacity:1"/>
<path class="bond-12 atom-12 atom-13" d="M 756.7,125.0 L 764.2,112.8" style="fill:none;fill-rule:evenodd;stroke:#000000;stroke-width:2.0px;stroke-linecap:butt;stroke-linejoin:miter;stroke-opacity:1"/>
<path class="bond-13 atom-13 atom-14" d="M 769.3,112.3 L 789.5,108.4" style="fill:none;fill-rule:evenodd;stroke:#000000;stroke-width:2.0px;stroke-linecap:butt;stroke-linejoin:miter;stroke-opacity:1"/>
<path class="bond-14 atom-14 atom-15" d="M 789.5,108.4 L 804.4,122.5" style="fill:none;fill-rule:evenodd;stroke:#000000;stroke-width:2.0px;stroke-linecap:butt;stroke-linejoin:miter;stroke-opacity:1"/>
<path class="bond-15 atom-15 atom-16" d="M 806.4,123.0 L 804.5,131.2" style="fill:none;fill-rule:evenodd;stroke:#000000;stroke-width:2.0px;stroke-linecap:butt;stroke-linejoin:miter;stroke-opacity:1"/>
<path class="bond-15 atom-15 atom-16" d="M 804.5,131.2 L 802.6,139.3" style="fill:none;fill-rule:evenodd;stroke:#FF0000;stroke-width:2.0px;stroke-linecap:butt;stroke-linejoin:miter;stroke-opacity:1"/>
<path class="bond-15 atom-15 atom-16" d="M 802.4,122.0 L 800.5,130.2" style="fill:none;fill-rule:evenodd;stroke:#000000;stroke-width:2.0px;stroke-linecap:butt;stroke-linejoin:miter;stroke-opacity:1"/>
<path class="bond-15 atom-15 atom-16" d="M 800.5,130.2 L 798.6,138.4" style="fill:none;fill-rule:evenodd;stroke:#FF0000;stroke-width:2.0px;stroke-linecap:butt;stroke-linejoin:miter;stroke-opacity:1"/>
<path class="bond-16 atom-15 atom-17" d="M 804.4,122.5 L 812.8,120.0" style="fill:none;fill-rule:evenodd;stroke:#000000;stroke-width:2.0px;stroke-linecap:butt;stroke-linejoin:miter;stroke-opacity:1"/>
<path class="bond-16 atom-15 atom-17" d="M 812.8,120.0 L 821.2,117.5" style="fill:none;fill-rule:evenodd;stroke:#0000FF;stroke-width:2.0px;stroke-linecap:butt;stroke-linejoin:miter;stroke-opacity:1"/>
<path class="bond-17 atom-17 atom-18" d="M 827.0,119.3 L 833.0,125.0" style="fill:none;fill-rule:evenodd;stroke:#0000FF;stroke-width:2.0px;stroke-linecap:butt;stroke-linejoin:miter;stroke-opacity:1"/>
<path class="bond-17 atom-17 atom-18" d="M 833.0,125.0 L 839.1,130.7" style="fill:none;fill-rule:evenodd;stroke:#000000;stroke-width:2.0px;stroke-linecap:butt;stroke-linejoin:miter;stroke-opacity:1"/>
<path class="bond-18 atom-18 atom-19" d="M 839.1,130.7 L 858.7,124.7" style="fill:none;fill-rule:evenodd;stroke:#000000;stroke-width:2.0px;stroke-linecap:butt;stroke-linejoin:miter;stroke-opacity:1"/>
<path class="bond-19 atom-19 atom-20" d="M 858.7,124.7 L 860.6,116.5" style="fill:none;fill-rule:evenodd;stroke:#000000;stroke-width:2.0px;stroke-linecap:butt;stroke-linejoin:miter;stroke-opacity:1"/>
<path class="bond-19 atom-19 atom-20" d="M 860.6,116.5 L 862.6,108.3" style="fill:none;fill-rule:evenodd;stroke:#0000FF;stroke-width:2.0px;stroke-linecap:butt;stroke-linejoin:miter;stroke-opacity:1"/>
<path class="bond-20 atom-20 atom-21" d="M 860.5,102.1 L 854.5,96.4" style="fill:none;fill-rule:evenodd;stroke:#0000FF;stroke-width:2.0px;stroke-linecap:butt;stroke-linejoin:miter;stroke-opacity:1"/>
<path class="bond-20 atom-20 atom-21" d="M 854.5,96.4 L 848.5,90.7" style="fill:none;fill-rule:evenodd;stroke:#000000;stroke-width:2.0px;stroke-linecap:butt;stroke-linejoin:miter;stroke-opacity:1"/>
<path class="bond-21 atom-21 atom-22" d="M 848.5,90.7 L 828.8,96.6" style="fill:none;fill-rule:evenodd;stroke:#000000;stroke-width:2.0px;stroke-linecap:butt;stroke-linejoin:miter;stroke-opacity:1"/>
<path class="bond-22 atom-14 atom-23" d="M 789.5,108.4 L 792.1,88.1" style="fill:none;fill-rule:evenodd;stroke:#000000;stroke-width:2.0px;stroke-linecap:butt;stroke-linejoin:miter;stroke-opacity:1"/>
<path class="bond-22 atom-14 atom-23" d="M 785.8,104.9 L 787.6,90.6" style="fill:none;fill-rule:evenodd;stroke:#000000;stroke-width:2.0px;stroke-linecap:butt;stroke-linejoin:miter;stroke-opacity:1"/>
<path class="bond-23 atom-23 atom-24" d="M 792.1,88.1 L 810.1,78.2" style="fill:none;fill-rule:evenodd;stroke:#000000;stroke-width:2.0px;stroke-linecap:butt;stroke-linejoin:miter;stroke-opacity:1"/>
<path class="bond-24 atom-24 atom-25" d="M 810.1,78.2 L 810.5,57.7" style="fill:none;fill-rule:evenodd;stroke:#000000;stroke-width:2.0px;stroke-linecap:butt;stroke-linejoin:miter;stroke-opacity:1"/>
<path class="bond-25 atom-25 atom-26" d="M 810.5,57.7 L 793.0,47.0" style="fill:none;fill-rule:evenodd;stroke:#000000;stroke-width:2.0px;stroke-linecap:butt;stroke-linejoin:miter;stroke-opacity:1"/>
<path class="bond-25 atom-25 atom-26" d="M 810.0,52.6 L 797.7,45.1" style="fill:none;fill-rule:evenodd;stroke:#000000;stroke-width:2.0px;stroke-linecap:butt;stroke-linejoin:miter;stroke-opacity:1"/>
<path class="bond-26 atom-26 atom-27" d="M 793.0,47.0 L 793.4,26.5" style="fill:none;fill-rule:evenodd;stroke:#000000;stroke-width:2.0px;stroke-linecap:butt;stroke-linejoin:miter;stroke-opacity:1"/>
<path class="bond-27 atom-27 atom-28" d="M 793.4,26.5 L 811.4,16.6" style="fill:none;fill-rule:evenodd;stroke:#000000;stroke-width:2.0px;stroke-linecap:butt;stroke-linejoin:miter;stroke-opacity:1"/>
<path class="bond-27 atom-27 atom-28" d="M 798.1,28.6 L 810.7,21.7" style="fill:none;fill-rule:evenodd;stroke:#000000;stroke-width:2.0px;stroke-linecap:butt;stroke-linejoin:miter;stroke-opacity:1"/>
<path class="bond-28 atom-28 atom-29" d="M 811.4,16.6 L 829.0,27.3" style="fill:none;fill-rule:evenodd;stroke:#000000;stroke-width:2.0px;stroke-linecap:butt;stroke-linejoin:miter;stroke-opacity:1"/>
<path class="bond-29 atom-29 atom-30" d="M 829.0,27.3 L 836.8,23.0" style="fill:none;fill-rule:evenodd;stroke:#000000;stroke-width:2.0px;stroke-linecap:butt;stroke-linejoin:miter;stroke-opacity:1"/>
<path class="bond-29 atom-29 atom-30" d="M 836.8,23.0 L 844.6,18.7" style="fill:none;fill-rule:evenodd;stroke:#33CCCC;stroke-width:2.0px;stroke-linecap:butt;stroke-linejoin:miter;stroke-opacity:1"/>
<path class="bond-30 atom-29 atom-31" d="M 829.0,27.3 L 828.5,47.8" style="fill:none;fill-rule:evenodd;stroke:#000000;stroke-width:2.0px;stroke-linecap:butt;stroke-linejoin:miter;stroke-opacity:1"/>
<path class="bond-30 atom-29 atom-31" d="M 824.8,30.2 L 824.5,44.6" style="fill:none;fill-rule:evenodd;stroke:#000000;stroke-width:2.0px;stroke-linecap:butt;stroke-linejoin:miter;stroke-opacity:1"/>
<path class="bond-31 atom-31 atom-32" d="M 828.5,47.8 L 846.1,58.4" style="fill:none;fill-rule:evenodd;stroke:#000000;stroke-width:2.0px;stroke-linecap:butt;stroke-linejoin:miter;stroke-opacity:1"/>
<path class="bond-32 atom-23 atom-33" d="M 792.1,88.1 L 784.2,84.4" style="fill:none;fill-rule:evenodd;stroke:#000000;stroke-width:2.0px;stroke-linecap:butt;stroke-linejoin:miter;stroke-opacity:1"/>
<path class="bond-32 atom-23 atom-33" d="M 784.2,84.4 L 776.4,80.7" style="fill:none;fill-rule:evenodd;stroke:#0000FF;stroke-width:2.0px;stroke-linecap:butt;stroke-linejoin:miter;stroke-opacity:1"/>
<path class="bond-33 atom-33 atom-34" d="M 772.8,75.7 L 771.3,67.4" style="fill:none;fill-rule:evenodd;stroke:#0000FF;stroke-width:2.0px;stroke-linecap:butt;stroke-linejoin:miter;stroke-opacity:1"/>
<path class="bond-33 atom-33 atom-34" d="M 771.3,67.4 L 769.7,59.1" style="fill:none;fill-rule:evenodd;stroke:#000000;stroke-width:2.0px;stroke-linecap:butt;stroke-linejoin:miter;stroke-opacity:1"/>
<path class="bond-34 atom-34 atom-35" d="M 769.7,59.1 L 785.2,45.7" style="fill:none;fill-rule:evenodd;stroke:#000000;stroke-width:2.0px;stroke-linecap:butt;stroke-linejoin:miter;stroke-opacity:1"/>
<path class="bond-34 atom-34 atom-35" d="M 769.3,54.0 L 780.2,44.6" style="fill:none;fill-rule:evenodd;stroke:#000000;stroke-width:2.0px;stroke-linecap:butt;stroke-linejoin:miter;stroke-opacity:1"/>
<path class="bond-35 atom-35 atom-36" d="M 785.2,45.7 L 781.4,25.6" style="fill:none;fill-rule:evenodd;stroke:#000000;stroke-width:2.0px;stroke-linecap:butt;stroke-linejoin:miter;stroke-opacity:1"/>
<path class="bond-36 atom-36 atom-37" d="M 781.4,25.6 L 762.0,18.8" style="fill:none;fill-rule:evenodd;stroke:#000000;stroke-width:2.0px;stroke-linecap:butt;stroke-linejoin:miter;stroke-opacity:1"/>
<path class="bond-36 atom-36 atom-37" d="M 777.2,28.4 L 763.6,23.7" style="fill:none;fill-rule:evenodd;stroke:#000000;stroke-width:2.0px;stroke-linecap:butt;stroke-linejoin:miter;stroke-opacity:1"/>
<path class="bond-37 atom-37 atom-38" d="M 762.0,18.8 L 746.5,32.2" style="fill:none;fill-rule:evenodd;stroke:#000000;stroke-width:2.0px;stroke-linecap:butt;stroke-linejoin:miter;stroke-opacity:1"/>
<path class="bond-38 atom-38 atom-39" d="M 746.5,32.2 L 750.3,52.4" style="fill:none;fill-rule:evenodd;stroke:#000000;stroke-width:2.0px;stroke-linecap:butt;stroke-linejoin:miter;stroke-opacity:1"/>
<path class="bond-38 atom-38 atom-39" d="M 751.1,34.4 L 753.8,48.6" style="fill:none;fill-rule:evenodd;stroke:#000000;stroke-width:2.0px;stroke-linecap:butt;stroke-linejoin:miter;stroke-opacity:1"/>
<path class="bond-39 atom-33 atom-40" d="M 770.6,82.4 L 765.0,88.3" style="fill:none;fill-rule:evenodd;stroke:#0000FF;stroke-width:2.0px;stroke-linecap:butt;stroke-linejoin:miter;stroke-opacity:1"/>
<path class="bond-39 atom-33 atom-40" d="M 765.0,88.3 L 759.4,94.3" style="fill:none;fill-rule:evenodd;stroke:#000000;stroke-width:2.0px;stroke-linecap:butt;stroke-linejoin:miter;stroke-opacity:1"/>
<path class="bond-40 atom-40 atom-41" d="M 759.4,94.3 L 738.9,93.8" style="fill:none;fill-rule:evenodd;stroke:#000000;stroke-width:2.0px;stroke-linecap:butt;stroke-linejoin:miter;stroke-opacity:1"/>
<path class="bond-40 atom-40 atom-41" d="M 756.3,98.3 L 741.9,98.0" style="fill:none;fill-rule:evenodd;stroke:#000000;stroke-width:2.0px;stroke-linecap:butt;stroke-linejoin:miter;stroke-opacity:1"/>
<path class="bond-41 atom-8 atom-42" d="M 700.0,89.3 L 704.3,82.3" style="fill:none;fill-rule:evenodd;stroke:#0000FF;stroke-width:2.0px;stroke-linecap:butt;stroke-linejoin:miter;stroke-opacity:1"/>
<path class="bond-41 atom-8 atom-42" d="M 704.3,82.3 L 708.5,75.3" style="fill:none;fill-rule:evenodd;stroke:#000000;stroke-width:2.0px;stroke-linecap:butt;stroke-linejoin:miter;stroke-opacity:1"/>
<path class="bond-42 atom-42 atom-43" d="M 708.5,75.3 L 729.0,75.8" style="fill:none;fill-rule:evenodd;stroke:#000000;stroke-width:2.0px;stroke-linecap:butt;stroke-linejoin:miter;stroke-opacity:1"/>
<path class="bond-42 atom-42 atom-43" d="M 711.7,71.3 L 726.0,71.6" style="fill:none;fill-rule:evenodd;stroke:#000000;stroke-width:2.0px;stroke-linecap:butt;stroke-linejoin:miter;stroke-opacity:1"/>
<path class="bond-43 atom-43 atom-44" d="M 729.0,75.8 L 739.7,58.2" style="fill:none;fill-rule:evenodd;stroke:#000000;stroke-width:2.0px;stroke-linecap:butt;stroke-linejoin:miter;stroke-opacity:1"/>
<path class="bond-44 atom-44 atom-45" d="M 739.7,58.2 L 729.8,40.2" style="fill:none;fill-rule:evenodd;stroke:#000000;stroke-width:2.0px;stroke-linecap:butt;stroke-linejoin:miter;stroke-opacity:1"/>
<path class="bond-44 atom-44 atom-45" d="M 734.6,57.5 L 727.7,44.9" style="fill:none;fill-rule:evenodd;stroke:#000000;stroke-width:2.0px;stroke-linecap:butt;stroke-linejoin:miter;stroke-opacity:1"/>
<path class="bond-45 atom-45 atom-46" d="M 729.8,40.2 L 709.3,39.8" style="fill:none;fill-rule:evenodd;stroke:#000000;stroke-width:2.0px;stroke-linecap:butt;stroke-linejoin:miter;stroke-opacity:1"/>
<path class="bond-46 atom-46 atom-47" d="M 709.3,39.8 L 705.4,32.6" style="fill:none;fill-rule:evenodd;stroke:#000000;stroke-width:2.0px;stroke-linecap:butt;stroke-linejoin:miter;stroke-opacity:1"/>
<path class="bond-46 atom-46 atom-47" d="M 705.4,32.6 L 701.5,25.5" style="fill:none;fill-rule:evenodd;stroke:#FF0000;stroke-width:2.0px;stroke-linecap:butt;stroke-linejoin:miter;stroke-opacity:1"/>
<path class="bond-47 atom-46 atom-48" d="M 709.3,39.8 L 698.6,57.3" style="fill:none;fill-rule:evenodd;stroke:#000000;stroke-width:2.0px;stroke-linecap:butt;stroke-linejoin:miter;stroke-opacity:1"/>
<path class="bond-47 atom-46 atom-48" d="M 711.2,44.5 L 703.7,56.8" style="fill:none;fill-rule:evenodd;stroke:#000000;stroke-width:2.0px;stroke-linecap:butt;stroke-linejoin:miter;stroke-opacity:1"/>
<path class="bond-48 atom-48 atom-49" d="M 698.6,57.3 L 689.8,57.1" style="fill:none;fill-rule:evenodd;stroke:#000000;stroke-width:2.0px;stroke-linecap:butt;stroke-linejoin:miter;stroke-opacity:1"/>
<path class="bond-48 atom-48 atom-49" d="M 689.8,57.1 L 681.0,56.9" style="fill:none;fill-rule:evenodd;stroke:#0000FF;stroke-width:2.0px;stroke-linecap:butt;stroke-linejoin:miter;stroke-opacity:1"/>
<path class="bond-49 atom-49 atom-50" d="M 676.1,53.3 L 673.2,47.9" style="fill:none;fill-rule:evenodd;stroke:#0000FF;stroke-width:2.0px;stroke-linecap:butt;stroke-linejoin:miter;stroke-opacity:1"/>
<path class="bond-49 atom-49 atom-50" d="M 673.2,47.9 L 670.2,42.5" style="fill:none;fill-rule:evenodd;stroke:#FF7F00;stroke-width:2.0px;stroke-linecap:butt;stroke-linejoin:miter;stroke-opacity:1"/>
<path class="bond-50 atom-49 atom-51" d="M 675.2,59.7 L 670.6,64.3" style="fill:none;fill-rule:evenodd;stroke:#0000FF;stroke-width:2.0px;stroke-linecap:butt;stroke-linejoin:miter;stroke-opacity:1"/>
<path class="bond-50 atom-49 atom-51" d="M 670.6,64.3 L 666.1,68.8" style="fill:none;fill-rule:evenodd;stroke:#FF7F00;stroke-width:2.0px;stroke-linecap:butt;stroke-linejoin:miter;stroke-opacity:1"/>
<path class="bond-51 atom-7 atom-1" d="M 677.3,92.4 L 666.7,110.0" style="fill:none;fill-rule:evenodd;stroke:#000000;stroke-width:2.0px;stroke-linecap:butt;stroke-linejoin:miter;stroke-opacity:1"/>
<path class="bond-52 atom-41 atom-10" d="M 738.9,93.8 L 728.3,111.3" style="fill:none;fill-rule:evenodd;stroke:#000000;stroke-width:2.0px;stroke-linecap:butt;stroke-linejoin:miter;stroke-opacity:1"/>
<path class="bond-53 atom-48 atom-42" d="M 698.6,57.3 L 708.5,75.3" style="fill:none;fill-rule:evenodd;stroke:#000000;stroke-width:2.0px;stroke-linecap:butt;stroke-linejoin:miter;stroke-opacity:1"/>
<path class="bond-54 atom-40 atom-13" d="M 759.4,94.3 L 769.3,112.3" style="fill:none;fill-rule:evenodd;stroke:#000000;stroke-width:2.0px;stroke-linecap:butt;stroke-linejoin:miter;stroke-opacity:1"/>
<path class="bond-55 atom-22 atom-17" d="M 828.8,96.6 L 826.9,104.8" style="fill:none;fill-rule:evenodd;stroke:#000000;stroke-width:2.0px;stroke-linecap:butt;stroke-linejoin:miter;stroke-opacity:1"/>
<path class="bond-55 atom-22 atom-17" d="M 826.9,104.8 L 824.9,113.0" style="fill:none;fill-rule:evenodd;stroke:#0000FF;stroke-width:2.0px;stroke-linecap:butt;stroke-linejoin:miter;stroke-opacity:1"/>
<path class="bond-56 atom-31 atom-25" d="M 828.5,47.8 L 810.5,57.7" style="fill:none;fill-rule:evenodd;stroke:#000000;stroke-width:2.0px;stroke-linecap:butt;stroke-linejoin:miter;stroke-opacity:1"/>
<path class="bond-57 atom-39 atom-34" d="M 750.3,52.4 L 769.7,59.1" style="fill:none;fill-rule:evenodd;stroke:#000000;stroke-width:2.0px;stroke-linecap:butt;stroke-linejoin:miter;stroke-opacity:1"/>
<path class="atom-5" d="M 629.1 53.1 L 629.9 53.1 L 629.9 55.6 L 632.9 55.6 L 632.9 53.1 L 633.7 53.1 L 633.7 58.9 L 632.9 58.9 L 632.9 56.2 L 629.9 56.2 L 629.9 58.9 L 629.1 58.9 L 629.1 53.1 " fill="#FF0000"/>
<path class="atom-5" d="M 634.4 56.0 Q 634.4 54.6, 635.1 53.8 Q 635.8 53.0, 637.1 53.0 Q 638.3 53.0, 639.0 53.8 Q 639.7 54.6, 639.7 56.0 Q 639.7 57.4, 639.0 58.2 Q 638.3 59.0, 637.1 59.0 Q 635.8 59.0, 635.1 58.2 Q 634.4 57.4, 634.4 56.0 M 637.1 58.4 Q 637.9 58.4, 638.4 57.8 Q 638.9 57.2, 638.9 56.0 Q 638.9 54.9, 638.4 54.3 Q 637.9 53.7, 637.1 53.7 Q 636.2 53.7, 635.7 54.3 Q 635.2 54.8, 635.2 56.0 Q 635.2 57.2, 635.7 57.8 Q 636.2 58.4, 637.1 58.4 " fill="#FF0000"/>
<path class="atom-8" d="M 696.6 90.0 L 698.5 93.1 Q 698.7 93.4, 699.0 93.9 Q 699.3 94.5, 699.3 94.5 L 699.3 90.0 L 700.1 90.0 L 700.1 95.8 L 699.3 95.8 L 697.2 92.4 Q 697.0 92.0, 696.7 91.6 Q 696.5 91.1, 696.4 91.0 L 696.4 95.8 L 695.6 95.8 L 695.6 90.0 L 696.6 90.0 " fill="#0000FF"/>
<path class="atom-9" d="M 705.1 110.9 Q 705.1 109.5, 705.7 108.7 Q 706.4 108.0, 707.7 108.0 Q 709.0 108.0, 709.7 108.7 Q 710.4 109.5, 710.4 110.9 Q 710.4 112.3, 709.7 113.1 Q 709.0 113.9, 707.7 113.9 Q 706.4 113.9, 705.7 113.1 Q 705.1 112.3, 705.1 110.9 M 707.7 113.3 Q 708.6 113.3, 709.1 112.7 Q 709.6 112.1, 709.6 110.9 Q 709.6 109.8, 709.1 109.2 Q 708.6 108.6, 707.7 108.6 Q 706.8 108.6, 706.4 109.2 Q 705.9 109.8, 705.9 110.9 Q 705.9 112.1, 706.4 112.7 Q 706.8 113.3, 707.7 113.3 " fill="#FF0000"/>
<path class="atom-16" d="M 797.1 142.5 Q 797.1 141.1, 797.7 140.3 Q 798.4 139.5, 799.7 139.5 Q 801.0 139.5, 801.7 140.3 Q 802.4 141.1, 802.4 142.5 Q 802.4 143.9, 801.7 144.7 Q 801.0 145.5, 799.7 145.5 Q 798.4 145.5, 797.7 144.7 Q 797.1 143.9, 797.1 142.5 M 799.7 144.9 Q 800.6 144.9, 801.1 144.3 Q 801.6 143.7, 801.6 142.5 Q 801.6 141.4, 801.1 140.8 Q 800.6 140.2, 799.7 140.2 Q 798.8 140.2, 798.4 140.8 Q 797.9 141.4, 797.9 142.5 Q 797.9 143.7, 798.4 144.3 Q 798.8 144.9, 799.7 144.9 " fill="#FF0000"/>
<path class="atom-17" d="M 822.8 113.7 L 824.7 116.8 Q 824.9 117.1, 825.2 117.6 Q 825.5 118.2, 825.5 118.2 L 825.5 113.7 L 826.3 113.7 L 826.3 119.5 L 825.5 119.5 L 823.5 116.1 Q 823.2 115.7, 823.0 115.3 Q 822.7 114.8, 822.7 114.7 L 822.7 119.5 L 821.9 119.5 L 821.9 113.7 L 822.8 113.7 " fill="#0000FF"/>
<path class="atom-20" d="M 862.1 101.9 L 864.0 104.9 Q 864.2 105.2, 864.5 105.8 Q 864.8 106.3, 864.9 106.4 L 864.9 101.9 L 865.6 101.9 L 865.6 107.7 L 864.8 107.7 L 862.8 104.3 Q 862.6 103.9, 862.3 103.5 Q 862.1 103.0, 862.0 102.9 L 862.0 107.7 L 861.2 107.7 L 861.2 101.9 L 862.1 101.9 " fill="#0000FF"/>
<path class="atom-20" d="M 866.3 101.9 L 867.1 101.9 L 867.1 104.3 L 870.1 104.3 L 870.1 101.9 L 870.9 101.9 L 870.9 107.7 L 870.1 107.7 L 870.1 105.0 L 867.1 105.0 L 867.1 107.7 L 866.3 107.7 L 866.3 101.9 " fill="#0000FF"/>
<path class="atom-30" d="M 845.3 14.5 L 848.7 14.5 L 848.7 15.1 L 846.1 15.1 L 846.1 16.9 L 848.4 16.9 L 848.4 17.6 L 846.1 17.6 L 846.1 20.3 L 845.3 20.3 L 845.3 14.5 " fill="#33CCCC"/>
<path class="atom-33" d="M 772.2 76.4 L 774.1 79.5 Q 774.3 79.8, 774.6 80.3 Q 774.9 80.9, 774.9 80.9 L 774.9 76.4 L 775.7 76.4 L 775.7 82.2 L 774.9 82.2 L 772.9 78.8 Q 772.6 78.4, 772.4 78.0 Q 772.1 77.5, 772.1 77.4 L 772.1 82.2 L 771.3 82.2 L 771.3 76.4 L 772.2 76.4 " fill="#0000FF"/>
<path class="atom-47" d="M 691.5 18.9 L 692.3 18.9 L 692.3 21.4 L 695.3 21.4 L 695.3 18.9 L 696.1 18.9 L 696.1 24.7 L 695.3 24.7 L 695.3 22.0 L 692.3 22.0 L 692.3 24.7 L 691.5 24.7 L 691.5 18.9 " fill="#FF0000"/>
<path class="atom-47" d="M 696.8 21.8 Q 696.8 20.4, 697.4 19.6 Q 698.1 18.8, 699.4 18.8 Q 700.7 18.8, 701.4 19.6 Q 702.1 20.4, 702.1 21.8 Q 702.1 23.2, 701.4 24.0 Q 700.7 24.8, 699.4 24.8 Q 698.1 24.8, 697.4 24.0 Q 696.8 23.2, 696.8 21.8 M 699.4 24.2 Q 700.3 24.2, 700.8 23.6 Q 701.3 23.0, 701.3 21.8 Q 701.3 20.7, 700.8 20.1 Q 700.3 19.5, 699.4 19.5 Q 698.5 19.5, 698.1 20.1 Q 697.6 20.6, 697.6 21.8 Q 697.6 23.0, 698.1 23.6 Q 698.5 24.2, 699.4 24.2 " fill="#FF0000"/>
<path class="atom-49" d="M 676.8 54.0 L 678.7 57.1 Q 678.9 57.4, 679.2 57.9 Q 679.5 58.5, 679.5 58.5 L 679.5 54.0 L 680.3 54.0 L 680.3 59.8 L 679.5 59.8 L 677.5 56.4 Q 677.2 56.0, 677.0 55.6 Q 676.7 55.1, 676.7 55.0 L 676.7 59.8 L 675.9 59.8 L 675.9 54.0 L 676.8 54.0 " fill="#0000FF"/>
<path class="atom-50" d="M 668.1 36.0 Q 669.1 36.0, 669.6 36.4 Q 670.1 36.9, 670.1 37.7 Q 670.1 38.5, 669.6 38.9 Q 669.1 39.4, 668.1 39.4 L 667.2 39.4 L 667.2 41.8 L 666.4 41.8 L 666.4 36.0 L 668.1 36.0 M 668.1 38.7 Q 668.7 38.7, 669.0 38.5 Q 669.3 38.2, 669.3 37.7 Q 669.3 37.2, 669.0 36.9 Q 668.7 36.6, 668.1 36.6 L 667.2 36.6 L 667.2 38.7 L 668.1 38.7 " fill="#FF7F00"/>
<path class="atom-51" d="M 663.4 68.4 Q 664.4 68.4, 664.9 68.9 Q 665.4 69.3, 665.4 70.1 Q 665.4 70.9, 664.9 71.4 Q 664.4 71.9, 663.4 71.9 L 662.5 71.9 L 662.5 74.2 L 661.7 74.2 L 661.7 68.4 L 663.4 68.4 M 663.4 71.2 Q 664.0 71.2, 664.3 70.9 Q 664.6 70.7, 664.6 70.1 Q 664.6 69.6, 664.3 69.4 Q 664.0 69.1, 663.4 69.1 L 662.5 69.1 L 662.5 71.2 L 663.4 71.2 " fill="#FF7F00"/>
<path class="atom-0" d="M 679.4,125.9 L 679.4,126.0 L 679.4,126.0 L 679.4,126.0 L 679.4,126.1 L 679.4,126.1 L 679.4,126.1 L 679.3,126.2 L 679.3,126.2 L 679.3,126.2 L 679.3,126.3 L 679.2,126.3 L 679.2,126.3 L 679.2,126.3 L 679.2,126.3 L 679.1,126.3 L 679.1,126.3 L 679.0,126.4 L 679.0,126.4 L 679.0,126.4 L 678.9,126.3 L 678.9,126.3 L 678.9,126.3 L 678.8,126.3 L 678.8,126.3 L 678.8,126.3 L 678.8,126.3 L 678.7,126.2 L 678.7,126.2 L 678.7,126.2 L 678.7,126.2 L 678.6,126.1 L 678.6,126.1 L 678.6,126.1 L 678.6,126.0 L 678.6,126.0 L 678.6,126.0 L 678.6,125.9 L 678.6,125.9 L 678.6,125.9 L 678.6,125.8 L 678.6,125.8 L 678.6,125.8 L 678.7,125.7 L 678.7,125.7 L 678.7,125.7 L 678.7,125.6 L 678.8,125.6 L 678.8,125.6 L 678.8,125.6 L 678.8,125.6 L 678.9,125.6 L 678.9,125.5 L 678.9,125.5 L 679.0,125.5 L 679.0,125.5 L 679.0,125.5 L 679.1,125.5 L 679.1,125.5 L 679.2,125.6 L 679.2,125.6 L 679.2,125.6 L 679.2,125.6 L 679.3,125.6 L 679.3,125.7 L 679.3,125.7 L 679.3,125.7 L 679.4,125.7 L 679.4,125.8 L 679.4,125.8 L 679.4,125.8 L 679.4,125.9 L 679.4,125.9 L 679.4,125.9 L 679.0,125.9 Z" style="fill:#000000;fill-rule:evenodd;fill-opacity:1;stroke:#000000;stroke-width:0.0px;stroke-linecap:butt;stroke-linejoin:miter;stroke-opacity:1;"/>
<path class="atom-0" d="M 679.4,130.0 L 679.4,130.1 L 679.4,130.1 L 679.4,130.2 L 679.4,130.2 L 679.4,130.2 L 679.4,130.3 L 679.3,130.3 L 679.3,130.3 L 679.3,130.3 L 679.3,130.4 L 679.2,130.4 L 679.2,130.4 L 679.2,130.4 L 679.2,130.4 L 679.1,130.4 L 679.1,130.5 L 679.0,130.5 L 679.0,130.5 L 679.0,130.5 L 678.9,130.5 L 678.9,130.4 L 678.9,130.4 L 678.8,130.4 L 678.8,130.4 L 678.8,130.4 L 678.8,130.4 L 678.7,130.3 L 678.7,130.3 L 678.7,130.3 L 678.7,130.3 L 678.6,130.2 L 678.6,130.2 L 678.6,130.2 L 678.6,130.1 L 678.6,130.1 L 678.6,130.1 L 678.6,130.0 L 678.6,130.0 L 678.6,130.0 L 678.6,129.9 L 678.6,129.9 L 678.6,129.9 L 678.7,129.8 L 678.7,129.8 L 678.7,129.8 L 678.7,129.7 L 678.8,129.7 L 678.8,129.7 L 678.8,129.7 L 678.8,129.7 L 678.9,129.7 L 678.9,129.7 L 678.9,129.6 L 679.0,129.6 L 679.0,129.6 L 679.0,129.6 L 679.1,129.6 L 679.1,129.7 L 679.2,129.7 L 679.2,129.7 L 679.2,129.7 L 679.2,129.7 L 679.3,129.7 L 679.3,129.8 L 679.3,129.8 L 679.3,129.8 L 679.4,129.8 L 679.4,129.9 L 679.4,129.9 L 679.4,129.9 L 679.4,130.0 L 679.4,130.0 L 679.4,130.0 L 679.0,130.0 Z" style="fill:#000000;fill-rule:evenodd;fill-opacity:1;stroke:#000000;stroke-width:0.0px;stroke-linecap:butt;stroke-linejoin:miter;stroke-opacity:1;"/>
<path class="atom-0" d="M 679.4,128.0 L 679.4,128.0 L 679.4,128.1 L 679.4,128.1 L 679.4,128.1 L 679.4,128.2 L 679.4,128.2 L 679.3,128.2 L 679.3,128.3 L 679.3,128.3 L 679.3,128.3 L 679.2,128.3 L 679.2,128.3 L 679.2,128.4 L 679.2,128.4 L 679.1,128.4 L 679.1,128.4 L 679.0,128.4 L 679.0,128.4 L 679.0,128.4 L 678.9,128.4 L 678.9,128.4 L 678.9,128.4 L 678.8,128.4 L 678.8,128.4 L 678.8,128.3 L 678.8,128.3 L 678.7,128.3 L 678.7,128.3 L 678.7,128.2 L 678.7,128.2 L 678.6,128.2 L 678.6,128.2 L 678.6,128.1 L 678.6,128.1 L 678.6,128.0 L 678.6,128.0 L 678.6,128.0 L 678.6,127.9 L 678.6,127.9 L 678.6,127.9 L 678.6,127.8 L 678.6,127.8 L 678.7,127.8 L 678.7,127.7 L 678.7,127.7 L 678.7,127.7 L 678.8,127.7 L 678.8,127.7 L 678.8,127.6 L 678.8,127.6 L 678.9,127.6 L 678.9,127.6 L 678.9,127.6 L 679.0,127.6 L 679.0,127.6 L 679.0,127.6 L 679.1,127.6 L 679.1,127.6 L 679.2,127.6 L 679.2,127.6 L 679.2,127.6 L 679.2,127.7 L 679.3,127.7 L 679.3,127.7 L 679.3,127.7 L 679.3,127.8 L 679.4,127.8 L 679.4,127.8 L 679.4,127.9 L 679.4,127.9 L 679.4,127.9 L 679.4,128.0 L 679.4,128.0 L 679.0,128.0 Z" style="fill:#000000;fill-rule:evenodd;fill-opacity:1;stroke:#000000;stroke-width:0.0px;stroke-linecap:butt;stroke-linejoin:miter;stroke-opacity:1;"/>
<path class="atom-50" d="M 665.6,39.7 L 665.6,39.7 L 665.6,39.8 L 665.5,39.8 L 665.5,39.8 L 665.5,39.9 L 665.5,39.9 L 665.5,39.9 L 665.5,40.0 L 665.4,40.0 L 665.4,40.0 L 665.4,40.0 L 665.4,40.1 L 665.3,40.1 L 665.3,40.1 L 665.3,40.1 L 665.2,40.1 L 665.2,40.1 L 665.2,40.1 L 665.1,40.1 L 665.1,40.1 L 665.1,40.1 L 665.0,40.1 L 665.0,40.1 L 665.0,40.1 L 664.9,40.0 L 664.9,40.0 L 664.9,40.0 L 664.8,40.0 L 664.8,39.9 L 664.8,39.9 L 664.8,39.9 L 664.8,39.9 L 664.8,39.8 L 664.7,39.8 L 664.7,39.8 L 664.7,39.7 L 664.7,39.7 L 664.7,39.6 L 664.7,39.6 L 664.8,39.6 L 664.8,39.5 L 664.8,39.5 L 664.8,39.5 L 664.8,39.5 L 664.8,39.4 L 664.9,39.4 L 664.9,39.4 L 664.9,39.4 L 665.0,39.3 L 665.0,39.3 L 665.0,39.3 L 665.1,39.3 L 665.1,39.3 L 665.1,39.3 L 665.2,39.3 L 665.2,39.3 L 665.2,39.3 L 665.3,39.3 L 665.3,39.3 L 665.3,39.3 L 665.4,39.3 L 665.4,39.4 L 665.4,39.4 L 665.4,39.4 L 665.5,39.4 L 665.5,39.5 L 665.5,39.5 L 665.5,39.5 L 665.5,39.6 L 665.5,39.6 L 665.6,39.6 L 665.6,39.7 L 665.6,39.7 L 665.1,39.7 Z" style="fill:#000000;fill-rule:evenodd;fill-opacity:1;stroke:#000000;stroke-width:0.0px;stroke-linecap:butt;stroke-linejoin:miter;stroke-opacity:1;"/>
<path class="atom-50" d="M 665.6,38.1 L 665.6,38.1 L 665.6,38.1 L 665.5,38.2 L 665.5,38.2 L 665.5,38.2 L 665.5,38.3 L 665.5,38.3 L 665.5,38.3 L 665.4,38.3 L 665.4,38.4 L 665.4,38.4 L 665.4,38.4 L 665.3,38.4 L 665.3,38.4 L 665.3,38.5 L 665.2,38.5 L 665.2,38.5 L 665.2,38.5 L 665.1,38.5 L 665.1,38.5 L 665.1,38.5 L 665.0,38.4 L 665.0,38.4 L 665.0,38.4 L 664.9,38.4 L 664.9,38.4 L 664.9,38.4 L 664.8,38.3 L 664.8,38.3 L 664.8,38.3 L 664.8,38.2 L 664.8,38.2 L 664.8,38.2 L 664.7,38.1 L 664.7,38.1 L 664.7,38.1 L 664.7,38.0 L 664.7,38.0 L 664.7,38.0 L 664.8,37.9 L 664.8,37.9 L 664.8,37.9 L 664.8,37.8 L 664.8,37.8 L 664.8,37.8 L 664.9,37.8 L 664.9,37.7 L 664.9,37.7 L 665.0,37.7 L 665.0,37.7 L 665.0,37.7 L 665.1,37.7 L 665.1,37.7 L 665.1,37.6 L 665.2,37.6 L 665.2,37.7 L 665.2,37.7 L 665.3,37.7 L 665.3,37.7 L 665.3,37.7 L 665.4,37.7 L 665.4,37.7 L 665.4,37.7 L 665.4,37.8 L 665.5,37.8 L 665.5,37.8 L 665.5,37.9 L 665.5,37.9 L 665.5,37.9 L 665.5,38.0 L 665.6,38.0 L 665.6,38.0 L 665.6,38.1 L 665.1,38.1 Z" style="fill:#000000;fill-rule:evenodd;fill-opacity:1;stroke:#000000;stroke-width:0.0px;stroke-linecap:butt;stroke-linejoin:miter;stroke-opacity:1;"/>
<path class="atom-51" d="M 660.8,72.2 L 660.8,72.2 L 660.8,72.2 L 660.8,72.3 L 660.8,72.3 L 660.8,72.3 L 660.8,72.4 L 660.8,72.4 L 660.8,72.4 L 660.7,72.4 L 660.7,72.5 L 660.7,72.5 L 660.6,72.5 L 660.6,72.5 L 660.6,72.5 L 660.5,72.6 L 660.5,72.6 L 660.5,72.6 L 660.4,72.6 L 660.4,72.6 L 660.4,72.6 L 660.3,72.6 L 660.3,72.5 L 660.3,72.5 L 660.2,72.5 L 660.2,72.5 L 660.2,72.5 L 660.2,72.5 L 660.1,72.4 L 660.1,72.4 L 660.1,72.4 L 660.1,72.3 L 660.1,72.3 L 660.0,72.3 L 660.0,72.2 L 660.0,72.2 L 660.0,72.2 L 660.0,72.1 L 660.0,72.1 L 660.0,72.1 L 660.0,72.0 L 660.1,72.0 L 660.1,72.0 L 660.1,71.9 L 660.1,71.9 L 660.1,71.9 L 660.2,71.9 L 660.2,71.8 L 660.2,71.8 L 660.2,71.8 L 660.3,71.8 L 660.3,71.8 L 660.3,71.8 L 660.4,71.8 L 660.4,71.7 L 660.4,71.7 L 660.5,71.7 L 660.5,71.8 L 660.5,71.8 L 660.6,71.8 L 660.6,71.8 L 660.6,71.8 L 660.7,71.8 L 660.7,71.8 L 660.7,71.9 L 660.8,71.9 L 660.8,71.9 L 660.8,72.0 L 660.8,72.0 L 660.8,72.0 L 660.8,72.1 L 660.8,72.1 L 660.8,72.1 L 660.8,72.2 L 660.4,72.2 Z" style="fill:#000000;fill-rule:evenodd;fill-opacity:1;stroke:#000000;stroke-width:0.0px;stroke-linecap:butt;stroke-linejoin:miter;stroke-opacity:1;"/>
<path class="atom-51" d="M 660.8,70.5 L 660.8,70.5 L 660.8,70.6 L 660.8,70.6 L 660.8,70.7 L 660.8,70.7 L 660.8,70.7 L 660.8,70.7 L 660.8,70.8 L 660.7,70.8 L 660.7,70.8 L 660.7,70.8 L 660.6,70.9 L 660.6,70.9 L 660.6,70.9 L 660.5,70.9 L 660.5,70.9 L 660.5,70.9 L 660.4,70.9 L 660.4,70.9 L 660.4,70.9 L 660.3,70.9 L 660.3,70.9 L 660.3,70.9 L 660.2,70.9 L 660.2,70.9 L 660.2,70.8 L 660.2,70.8 L 660.1,70.8 L 660.1,70.8 L 660.1,70.7 L 660.1,70.7 L 660.1,70.7 L 660.0,70.6 L 660.0,70.6 L 660.0,70.6 L 660.0,70.5 L 660.0,70.5 L 660.0,70.5 L 660.0,70.4 L 660.0,70.4 L 660.1,70.4 L 660.1,70.3 L 660.1,70.3 L 660.1,70.3 L 660.1,70.2 L 660.2,70.2 L 660.2,70.2 L 660.2,70.2 L 660.2,70.2 L 660.3,70.1 L 660.3,70.1 L 660.3,70.1 L 660.4,70.1 L 660.4,70.1 L 660.4,70.1 L 660.5,70.1 L 660.5,70.1 L 660.5,70.1 L 660.6,70.1 L 660.6,70.1 L 660.6,70.2 L 660.7,70.2 L 660.7,70.2 L 660.7,70.2 L 660.8,70.3 L 660.8,70.3 L 660.8,70.3 L 660.8,70.3 L 660.8,70.4 L 660.8,70.4 L 660.8,70.4 L 660.8,70.5 L 660.8,70.5 L 660.4,70.5 Z" style="fill:#000000;fill-rule:evenodd;fill-opacity:1;stroke:#000000;stroke-width:0.0px;stroke-linecap:butt;stroke-linejoin:miter;stroke-opacity:1;"/>
</svg>