<svg xmlns="http://www.w3.org/2000/svg" xmlns:rdkit="http://www.rdkit.org/xml" xmlns:xlink="http://www.w3.org/1999/xlink" version="1.1" baseProfile="full" xml:space="preserve" width="1500px" height="160px" viewBox="0 0 1500 160">
<!-- END OF HEADER -->
<rect style="opacity:1.0;fill:#FFFFFF;stroke:none" width="1500.0" height="160.0" x="0.0" y="0.0"> </rect>
<path class="bond-0 atom-0 atom-1" d="M 69.3,72.3 L 78.3,70.5" style="fill:none;fill-rule:evenodd;stroke:#000000;stroke-width:2.0px;stroke-linecap:butt;stroke-linejoin:miter;stroke-opacity:1"/>
<path class="bond-0 atom-0 atom-1" d="M 78.3,70.5 L 87.4,68.6" style="fill:none;fill-rule:evenodd;stroke:#CCCC00;stroke-width:2.0px;stroke-linecap:butt;stroke-linejoin:miter;stroke-opacity:1"/>
<path class="bond-1 atom-1 atom-2" d="M 92.0,72.0 L 95.9,79.4" style="fill:none;fill-rule:evenodd;stroke:#CCCC00;stroke-width:2.0px;stroke-linecap:butt;stroke-linejoin:miter;stroke-opacity:1"/>
<path class="bond-1 atom-1 atom-2" d="M 95.9,79.4 L 99.9,86.8" style="fill:none;fill-rule:evenodd;stroke:#000000;stroke-width:2.0px;stroke-linecap:butt;stroke-linejoin:miter;stroke-opacity:1"/>
<path class="bond-2 atom-2 atom-3" d="M 99.9,86.8 L 118.3,97.2" style="fill:none;fill-rule:evenodd;stroke:#000000;stroke-width:2.0px;stroke-linecap:butt;stroke-linejoin:miter;stroke-opacity:1"/>
<path class="bond-3 atom-3 atom-4" d="M 118.3,97.2 L 127.3,96.7" style="fill:none;fill-rule:evenodd;stroke:#000000;stroke-width:2.0px;stroke-linecap:butt;stroke-linejoin:miter;stroke-opacity:1"/>
<path class="bond-3 atom-3 atom-4" d="M 127.3,96.7 L 136.4,96.1" style="fill:none;fill-rule:evenodd;stroke:#0000FF;stroke-width:2.0px;stroke-linecap:butt;stroke-linejoin:miter;stroke-opacity:1"/>
<path class="bond-4 atom-4 atom-5" d="M 142.3,93.8 L 149.4,88.7" style="fill:none;fill-rule:evenodd;stroke:#0000FF;stroke-width:2.0px;stroke-linecap:butt;stroke-linejoin:miter;stroke-opacity:1"/>
<path class="bond-4 atom-4 atom-5" d="M 149.4,88.7 L 156.4,83.6" style="fill:none;fill-rule:evenodd;stroke:#000000;stroke-width:2.0px;stroke-linecap:butt;stroke-linejoin:miter;stroke-opacity:1"/>
<path class="bond-5 atom-5 atom-6" d="M 156.4,83.6 L 164.1,63.9" style="fill:none;fill-rule:evenodd;stroke:#000000;stroke-width:2.0px;stroke-linecap:butt;stroke-linejoin:miter;stroke-opacity:1"/>
<path class="bond-6 atom-6 atom-7" d="M 164.1,63.9 L 162.4,55.4" style="fill:none;fill-rule:evenodd;stroke:#000000;stroke-width:2.0px;stroke-linecap:butt;stroke-linejoin:miter;stroke-opacity:1"/>
<path class="bond-6 atom-6 atom-7" d="M 162.4,55.4 L 160.6,46.8" style="fill:none;fill-rule:evenodd;stroke:#0000FF;stroke-width:2.0px;stroke-linecap:butt;stroke-linejoin:miter;stroke-opacity:1"/>
<path class="bond-7 atom-7 atom-8" d="M 162.9,41.6 L 170.7,37.4" style="fill:none;fill-rule:evenodd;stroke:#0000FF;stroke-width:2.0px;stroke-linecap:butt;stroke-linejoin:miter;stroke-opacity:1"/>
<path class="bond-7 atom-7 atom-8" d="M 170.7,37.4 L 178.6,33.3" style="fill:none;fill-rule:evenodd;stroke:#000000;stroke-width:2.0px;stroke-linecap:butt;stroke-linejoin:miter;stroke-opacity:1"/>
<path class="bond-8 atom-8 atom-9" d="M 176.5,33.2 L 176.8,24.6" style="fill:none;fill-rule:evenodd;stroke:#000000;stroke-width:2.0px;stroke-linecap:butt;stroke-linejoin:miter;stroke-opacity:1"/>
<path class="bond-8 atom-8 atom-9" d="M 176.8,24.6 L 177.1,15.9" style="fill:none;fill-rule:evenodd;stroke:#FF0000;stroke-width:2.0px;stroke-linecap:butt;stroke-linejoin:miter;stroke-opacity:1"/>
<path class="bond-8 atom-8 atom-9" d="M 180.7,33.4 L 181.0,24.7" style="fill:none;fill-rule:evenodd;stroke:#000000;stroke-width:2.0px;stroke-linecap:butt;stroke-linejoin:miter;stroke-opacity:1"/>
<path class="bond-8 atom-8 atom-9" d="M 181.0,24.7 L 181.3,16.1" style="fill:none;fill-rule:evenodd;stroke:#FF0000;stroke-width:2.0px;stroke-linecap:butt;stroke-linejoin:miter;stroke-opacity:1"/>
<path class="bond-9 atom-8 atom-10" d="M 178.6,33.3 L 196.5,44.5" style="fill:none;fill-rule:evenodd;stroke:#000000;stroke-width:2.0px;stroke-linecap:butt;stroke-linejoin:miter;stroke-opacity:1"/>
<path class="bond-10 atom-10 atom-11" d="M 196.5,44.5 L 197.9,65.6" style="fill:none;fill-rule:evenodd;stroke:#000000;stroke-width:2.0px;stroke-linecap:butt;stroke-linejoin:miter;stroke-opacity:1"/>
<path class="bond-10 atom-10 atom-11" d="M 200.9,47.4 L 201.9,62.2" style="fill:none;fill-rule:evenodd;stroke:#000000;stroke-width:2.0px;stroke-linecap:butt;stroke-linejoin:miter;stroke-opacity:1"/>
<path class="bond-11 atom-11 atom-12" d="M 197.9,65.6 L 181.6,79.2" style="fill:none;fill-rule:evenodd;stroke:#000000;stroke-width:2.0px;stroke-linecap:butt;stroke-linejoin:miter;stroke-opacity:1"/>
<path class="bond-12 atom-12 atom-13" d="M 181.6,79.2 L 185.2,100.0" style="fill:none;fill-rule:evenodd;stroke:#000000;stroke-width:2.0px;stroke-linecap:butt;stroke-linejoin:miter;stroke-opacity:1"/>
<path class="bond-13 atom-13 atom-14" d="M 185.2,100.0 L 205.1,107.3" style="fill:none;fill-rule:evenodd;stroke:#000000;stroke-width:2.0px;stroke-linecap:butt;stroke-linejoin:miter;stroke-opacity:1"/>
<path class="bond-13 atom-13 atom-14" d="M 186.8,105.0 L 200.6,110.1" style="fill:none;fill-rule:evenodd;stroke:#000000;stroke-width:2.0px;stroke-linecap:butt;stroke-linejoin:miter;stroke-opacity:1"/>
<path class="bond-14 atom-14 atom-15" d="M 205.1,107.3 L 208.7,128.1" style="fill:none;fill-rule:evenodd;stroke:#000000;stroke-width:2.0px;stroke-linecap:butt;stroke-linejoin:miter;stroke-opacity:1"/>
<path class="bond-15 atom-15 atom-16" d="M 208.7,128.1 L 192.5,141.6" style="fill:none;fill-rule:evenodd;stroke:#000000;stroke-width:2.0px;stroke-linecap:butt;stroke-linejoin:miter;stroke-opacity:1"/>
<path class="bond-15 atom-15 atom-16" d="M 203.5,126.9 L 192.2,136.3" style="fill:none;fill-rule:evenodd;stroke:#000000;stroke-width:2.0px;stroke-linecap:butt;stroke-linejoin:miter;stroke-opacity:1"/>
<path class="bond-16 atom-16 atom-17" d="M 192.5,141.6 L 172.6,134.3" style="fill:none;fill-rule:evenodd;stroke:#000000;stroke-width:2.0px;stroke-linecap:butt;stroke-linejoin:miter;stroke-opacity:1"/>
<path class="bond-17 atom-17 atom-18" d="M 172.6,134.3 L 165.8,140.0" style="fill:none;fill-rule:evenodd;stroke:#000000;stroke-width:2.0px;stroke-linecap:butt;stroke-linejoin:miter;stroke-opacity:1"/>
<path class="bond-17 atom-17 atom-18" d="M 165.8,140.0 L 158.9,145.8" style="fill:none;fill-rule:evenodd;stroke:#33CCCC;stroke-width:2.0px;stroke-linecap:butt;stroke-linejoin:miter;stroke-opacity:1"/>
<path class="bond-18 atom-17 atom-19" d="M 172.6,134.3 L 169.0,113.5" style="fill:none;fill-rule:evenodd;stroke:#000000;stroke-width:2.0px;stroke-linecap:butt;stroke-linejoin:miter;stroke-opacity:1"/>
<path class="bond-18 atom-17 atom-19" d="M 176.3,130.5 L 173.7,115.9" style="fill:none;fill-rule:evenodd;stroke:#000000;stroke-width:2.0px;stroke-linecap:butt;stroke-linejoin:miter;stroke-opacity:1"/>
<path class="bond-19 atom-19 atom-20" d="M 169.0,113.5 L 149.2,106.2" style="fill:none;fill-rule:evenodd;stroke:#000000;stroke-width:2.0px;stroke-linecap:butt;stroke-linejoin:miter;stroke-opacity:1"/>
<path class="bond-20 atom-11 atom-21" d="M 197.9,65.6 L 206.6,67.8" style="fill:none;fill-rule:evenodd;stroke:#000000;stroke-width:2.0px;stroke-linecap:butt;stroke-linejoin:miter;stroke-opacity:1"/>
<path class="bond-20 atom-11 atom-21" d="M 206.6,67.8 L 215.4,70.0" style="fill:none;fill-rule:evenodd;stroke:#0000FF;stroke-width:2.0px;stroke-linecap:butt;stroke-linejoin:miter;stroke-opacity:1"/>
<path class="bond-21 atom-21 atom-22" d="M 219.8,74.5 L 223.0,82.4" style="fill:none;fill-rule:evenodd;stroke:#0000FF;stroke-width:2.0px;stroke-linecap:butt;stroke-linejoin:miter;stroke-opacity:1"/>
<path class="bond-21 atom-21 atom-22" d="M 223.0,82.4 L 226.2,90.4" style="fill:none;fill-rule:evenodd;stroke:#000000;stroke-width:2.0px;stroke-linecap:butt;stroke-linejoin:miter;stroke-opacity:1"/>
<path class="bond-22 atom-22 atom-23" d="M 226.2,90.4 L 213.1,107.0" style="fill:none;fill-rule:evenodd;stroke:#000000;stroke-width:2.0px;stroke-linecap:butt;stroke-linejoin:miter;stroke-opacity:1"/>
<path class="bond-22 atom-22 atom-23" d="M 227.6,95.5 L 218.4,107.1" style="fill:none;fill-rule:evenodd;stroke:#000000;stroke-width:2.0px;stroke-linecap:butt;stroke-linejoin:miter;stroke-opacity:1"/>
<path class="bond-23 atom-23 atom-24" d="M 213.1,107.0 L 221.0,126.6" style="fill:none;fill-rule:evenodd;stroke:#000000;stroke-width:2.0px;stroke-linecap:butt;stroke-linejoin:miter;stroke-opacity:1"/>
<path class="bond-24 atom-24 atom-25" d="M 221.0,126.6 L 241.9,129.6" style="fill:none;fill-rule:evenodd;stroke:#000000;stroke-width:2.0px;stroke-linecap:butt;stroke-linejoin:miter;stroke-opacity:1"/>
<path class="bond-24 atom-24 atom-25" d="M 224.7,122.9 L 239.4,125.0" style="fill:none;fill-rule:evenodd;stroke:#000000;stroke-width:2.0px;stroke-linecap:butt;stroke-linejoin:miter;stroke-opacity:1"/>
<path class="bond-25 atom-25 atom-26" d="M 241.9,129.6 L 255.0,113.0" style="fill:none;fill-rule:evenodd;stroke:#000000;stroke-width:2.0px;stroke-linecap:butt;stroke-linejoin:miter;stroke-opacity:1"/>
<path class="bond-26 atom-26 atom-27" d="M 255.0,113.0 L 247.1,93.4" style="fill:none;fill-rule:evenodd;stroke:#000000;stroke-width:2.0px;stroke-linecap:butt;stroke-linejoin:miter;stroke-opacity:1"/>
<path class="bond-26 atom-26 atom-27" d="M 249.9,111.7 L 244.4,97.9" style="fill:none;fill-rule:evenodd;stroke:#000000;stroke-width:2.0px;stroke-linecap:butt;stroke-linejoin:miter;stroke-opacity:1"/>
<path class="bond-27 atom-21 atom-28" d="M 220.7,67.1 L 225.1,60.0" style="fill:none;fill-rule:evenodd;stroke:#0000FF;stroke-width:2.0px;stroke-linecap:butt;stroke-linejoin:miter;stroke-opacity:1"/>
<path class="bond-27 atom-21 atom-28" d="M 225.1,60.0 L 229.6,52.9" style="fill:none;fill-rule:evenodd;stroke:#000000;stroke-width:2.0px;stroke-linecap:butt;stroke-linejoin:miter;stroke-opacity:1"/>
<path class="bond-28 atom-28 atom-29" d="M 229.6,52.9 L 250.4,49.3" style="fill:none;fill-rule:evenodd;stroke:#000000;stroke-width:2.0px;stroke-linecap:butt;stroke-linejoin:miter;stroke-opacity:1"/>
<path class="bond-28 atom-28 atom-29" d="M 232.0,48.2 L 246.6,45.7" style="fill:none;fill-rule:evenodd;stroke:#000000;stroke-width:2.0px;stroke-linecap:butt;stroke-linejoin:miter;stroke-opacity:1"/>
<path class="bond-29 atom-29 atom-30" d="M 250.4,49.3 L 257.7,29.5" style="fill:none;fill-rule:evenodd;stroke:#000000;stroke-width:2.0px;stroke-linecap:butt;stroke-linejoin:miter;stroke-opacity:1"/>
<path class="bond-30 atom-30 atom-31" d="M 257.7,29.5 L 266.4,28.0" style="fill:none;fill-rule:evenodd;stroke:#000000;stroke-width:2.0px;stroke-linecap:butt;stroke-linejoin:miter;stroke-opacity:1"/>
<path class="bond-30 atom-30 atom-31" d="M 266.4,28.0 L 275.1,26.5" style="fill:none;fill-rule:evenodd;stroke:#FF0000;stroke-width:2.0px;stroke-linecap:butt;stroke-linejoin:miter;stroke-opacity:1"/>
<path class="bond-31 atom-30 atom-32" d="M 257.7,29.5 L 244.2,13.3" style="fill:none;fill-rule:evenodd;stroke:#000000;stroke-width:2.0px;stroke-linecap:butt;stroke-linejoin:miter;stroke-opacity:1"/>
<path class="bond-31 atom-30 atom-32" d="M 252.4,29.8 L 243.0,18.4" style="fill:none;fill-rule:evenodd;stroke:#000000;stroke-width:2.0px;stroke-linecap:butt;stroke-linejoin:miter;stroke-opacity:1"/>
<path class="bond-32 atom-32 atom-33" d="M 244.2,13.3 L 223.4,16.9" style="fill:none;fill-rule:evenodd;stroke:#000000;stroke-width:2.0px;stroke-linecap:butt;stroke-linejoin:miter;stroke-opacity:1"/>
<path class="bond-33 atom-33 atom-34" d="M 223.4,16.9 L 216.1,36.7" style="fill:none;fill-rule:evenodd;stroke:#000000;stroke-width:2.0px;stroke-linecap:butt;stroke-linejoin:miter;stroke-opacity:1"/>
<path class="bond-33 atom-33 atom-34" d="M 226.2,21.3 L 221.1,35.2" style="fill:none;fill-rule:evenodd;stroke:#000000;stroke-width:2.0px;stroke-linecap:butt;stroke-linejoin:miter;stroke-opacity:1"/>
<path class="bond-34 atom-7 atom-35" d="M 156.9,40.1 L 151.0,34.1" style="fill:none;fill-rule:evenodd;stroke:#0000FF;stroke-width:2.0px;stroke-linecap:butt;stroke-linejoin:miter;stroke-opacity:1"/>
<path class="bond-34 atom-7 atom-35" d="M 151.0,34.1 L 145.2,28.0" style="fill:none;fill-rule:evenodd;stroke:#000000;stroke-width:2.0px;stroke-linecap:butt;stroke-linejoin:miter;stroke-opacity:1"/>
<path class="bond-35 atom-35 atom-36" d="M 145.2,28.0 L 124.6,23.2" style="fill:none;fill-rule:evenodd;stroke:#000000;stroke-width:2.0px;stroke-linecap:butt;stroke-linejoin:miter;stroke-opacity:1"/>
<path class="bond-36 atom-36 atom-37" d="M 124.6,23.2 L 117.8,25.7" style="fill:none;fill-rule:evenodd;stroke:#000000;stroke-width:2.0px;stroke-linecap:butt;stroke-linejoin:miter;stroke-opacity:1"/>
<path class="bond-36 atom-36 atom-37" d="M 117.8,25.7 L 111.0,28.1" style="fill:none;fill-rule:evenodd;stroke:#0000FF;stroke-width:2.0px;stroke-linecap:butt;stroke-linejoin:miter;stroke-opacity:1"/>
<path class="bond-37 atom-37 atom-38" d="M 101.9,34.0 L 95.4,42.4" style="fill:none;fill-rule:evenodd;stroke:#0000FF;stroke-width:2.0px;stroke-linecap:butt;stroke-linejoin:miter;stroke-opacity:1"/>
<path class="bond-38 atom-38 atom-1" d="M 91.5,50.8 L 90.9,57.6" style="fill:none;fill-rule:evenodd;stroke:#0000FF;stroke-width:2.0px;stroke-linecap:butt;stroke-linejoin:miter;stroke-opacity:1"/>
<path class="bond-38 atom-38 atom-1" d="M 90.9,57.6 L 90.3,64.4" style="fill:none;fill-rule:evenodd;stroke:#CCCC00;stroke-width:2.0px;stroke-linecap:butt;stroke-linejoin:miter;stroke-opacity:1"/>
<path class="bond-39 atom-34 atom-10" d="M 216.1,36.7 L 196.5,44.5" style="fill:none;fill-rule:evenodd;stroke:#000000;stroke-width:2.0px;stroke-linecap:butt;stroke-linejoin:miter;stroke-opacity:1"/>
<path class="bond-40 atom-19 atom-13" d="M 169.0,113.5 L 185.2,100.0" style="fill:none;fill-rule:evenodd;stroke:#000000;stroke-width:2.0px;stroke-linecap:butt;stroke-linejoin:miter;stroke-opacity:1"/>
<path class="bond-41 atom-27 atom-22" d="M 247.1,93.4 L 226.2,90.4" style="fill:none;fill-rule:evenodd;stroke:#000000;stroke-width:2.0px;stroke-linecap:butt;stroke-linejoin:miter;stroke-opacity:1"/>
<path class="bond-42 atom-34 atom-28" d="M 216.1,36.7 L 229.6,52.9" style="fill:none;fill-rule:evenodd;stroke:#000000;stroke-width:2.0px;stroke-linecap:butt;stroke-linejoin:miter;stroke-opacity:1"/>
<path class="atom-1" d="M 88.3 70.2 Q 88.4 70.2, 88.7 70.3 Q 88.9 70.4, 89.2 70.5 Q 89.5 70.6, 89.9 70.6 Q 90.4 70.6, 90.7 70.3 Q 91.1 70.0, 91.1 69.5 Q 91.1 69.2, 90.9 69.0 Q 90.7 68.8, 90.5 68.7 Q 90.2 68.6, 89.8 68.5 Q 89.3 68.3, 89.0 68.1 Q 88.7 68.0, 88.4 67.7 Q 88.2 67.4, 88.2 66.8 Q 88.2 66.1, 88.7 65.6 Q 89.2 65.1, 90.2 65.1 Q 90.9 65.1, 91.7 65.5 L 91.5 66.1 Q 90.8 65.8, 90.3 65.8 Q 89.7 65.8, 89.4 66.1 Q 89.0 66.3, 89.0 66.7 Q 89.0 67.0, 89.2 67.2 Q 89.4 67.4, 89.6 67.5 Q 89.9 67.6, 90.3 67.8 Q 90.8 67.9, 91.1 68.1 Q 91.4 68.3, 91.7 68.6 Q 91.9 69.0, 91.9 69.5 Q 91.9 70.4, 91.4 70.8 Q 90.8 71.3, 89.9 71.3 Q 89.4 71.3, 88.9 71.1 Q 88.5 71.0, 88.1 70.8 L 88.3 70.2 " fill="#CCCC00"/>
<path class="atom-1" d="M 92.3 64.8 Q 92.5 64.5, 92.8 64.2 Q 93.2 64.0, 93.6 64.0 Q 94.2 64.0, 94.6 64.4 Q 94.9 64.7, 94.9 65.3 Q 94.9 65.8, 94.5 66.4 Q 94.0 66.9, 93.1 67.6 L 95.0 67.6 L 95.0 68.0 L 92.3 68.0 L 92.3 67.7 Q 93.0 67.1, 93.5 66.7 Q 93.9 66.4, 94.1 66.0 Q 94.3 65.6, 94.3 65.3 Q 94.3 64.9, 94.2 64.7 Q 94.0 64.5, 93.6 64.5 Q 93.3 64.5, 93.1 64.6 Q 92.9 64.7, 92.7 65.0 L 92.3 64.8 " fill="#CCCC00"/>
<path class="atom-1" d="M 95.3 66.1 L 96.4 66.1 L 96.4 65.0 L 96.8 65.0 L 96.8 66.1 L 97.9 66.1 L 97.9 66.5 L 96.8 66.5 L 96.8 67.6 L 96.4 67.6 L 96.4 66.5 L 95.3 66.5 L 95.3 66.1 " fill="#CCCC00"/>
<path class="atom-4" d="M 138.0 93.0 L 140.0 96.1 Q 140.2 96.5, 140.5 97.0 Q 140.8 97.6, 140.8 97.6 L 140.8 93.0 L 141.6 93.0 L 141.6 99.0 L 140.8 99.0 L 138.7 95.5 Q 138.4 95.1, 138.2 94.6 Q 137.9 94.2, 137.9 94.0 L 137.9 99.0 L 137.1 99.0 L 137.1 93.0 L 138.0 93.0 " fill="#0000FF"/>
<path class="atom-4" d="M 137.0 99.6 L 137.8 99.6 L 137.8 102.1 L 140.9 102.1 L 140.9 99.6 L 141.7 99.6 L 141.7 105.5 L 140.9 105.5 L 140.9 102.8 L 137.8 102.8 L 137.8 105.5 L 137.0 105.5 L 137.0 99.6 " fill="#0000FF"/>
<path class="atom-7" d="M 158.6 40.2 L 160.5 43.3 Q 160.7 43.6, 161.0 44.2 Q 161.4 44.8, 161.4 44.8 L 161.4 40.2 L 162.2 40.2 L 162.2 46.2 L 161.3 46.2 L 159.2 42.7 Q 159.0 42.3, 158.7 41.8 Q 158.5 41.4, 158.4 41.2 L 158.4 46.2 L 157.6 46.2 L 157.6 40.2 L 158.6 40.2 " fill="#0000FF"/>
<path class="atom-9" d="M 176.6 12.2 Q 176.6 10.8, 177.3 10.0 Q 178.1 9.2, 179.4 9.2 Q 180.7 9.2, 181.4 10.0 Q 182.1 10.8, 182.1 12.2 Q 182.1 13.7, 181.4 14.5 Q 180.7 15.3, 179.4 15.3 Q 178.1 15.3, 177.3 14.5 Q 176.6 13.7, 176.6 12.2 M 179.4 14.6 Q 180.3 14.6, 180.8 14.0 Q 181.3 13.4, 181.3 12.2 Q 181.3 11.0, 180.8 10.4 Q 180.3 9.8, 179.4 9.8 Q 178.5 9.8, 178.0 10.4 Q 177.5 11.0, 177.5 12.2 Q 177.5 13.4, 178.0 14.0 Q 178.5 14.6, 179.4 14.6 " fill="#FF0000"/>
<path class="atom-18" d="M 154.6 144.9 L 158.2 144.9 L 158.2 145.5 L 155.4 145.5 L 155.4 147.4 L 157.9 147.4 L 157.9 148.0 L 155.4 148.0 L 155.4 150.8 L 154.6 150.8 L 154.6 144.9 " fill="#33CCCC"/>
<path class="atom-21" d="M 217.0 67.8 L 219.0 71.0 Q 219.2 71.3, 219.5 71.9 Q 219.8 72.4, 219.8 72.5 L 219.8 67.8 L 220.6 67.8 L 220.6 73.8 L 219.8 73.8 L 217.7 70.3 Q 217.4 69.9, 217.2 69.5 Q 216.9 69.0, 216.9 68.8 L 216.9 73.8 L 216.1 73.8 L 216.1 67.8 L 217.0 67.8 " fill="#0000FF"/>
<path class="atom-31" d="M 275.8 25.9 Q 275.8 24.5, 276.5 23.7 Q 277.2 22.9, 278.5 22.9 Q 279.8 22.9, 280.6 23.7 Q 281.3 24.5, 281.3 25.9 Q 281.3 27.3, 280.5 28.2 Q 279.8 29.0, 278.5 29.0 Q 277.2 29.0, 276.5 28.2 Q 275.8 27.4, 275.8 25.9 M 278.5 28.3 Q 279.4 28.3, 279.9 27.7 Q 280.4 27.1, 280.4 25.9 Q 280.4 24.7, 279.9 24.1 Q 279.4 23.5, 278.5 23.5 Q 277.6 23.5, 277.1 24.1 Q 276.6 24.7, 276.6 25.9 Q 276.6 27.1, 277.1 27.7 Q 277.6 28.3, 278.5 28.3 " fill="#FF0000"/>
<path class="atom-31" d="M 281.7 22.9 L 282.5 22.9 L 282.5 25.5 L 285.6 25.5 L 285.6 22.9 L 286.4 22.9 L 286.4 28.9 L 285.6 28.9 L 285.6 26.1 L 282.5 26.1 L 282.5 28.9 L 281.7 28.9 L 281.7 22.9 " fill="#FF0000"/>
<path class="atom-37" d="M 103.4 27.3 L 105.3 30.5 Q 105.5 30.8, 105.8 31.4 Q 106.2 32.0, 106.2 32.0 L 106.2 27.3 L 107.0 27.3 L 107.0 33.3 L 106.1 33.3 L 104.0 29.9 Q 103.8 29.5, 103.5 29.0 Q 103.3 28.5, 103.2 28.4 L 103.2 33.3 L 102.4 33.3 L 102.4 27.3 L 103.4 27.3 " fill="#0000FF"/>
<path class="atom-37" d="M 107.7 28.4 L 108.7 28.4 L 108.7 27.3 L 109.2 27.3 L 109.2 28.4 L 110.3 28.4 L 110.3 28.8 L 109.2 28.8 L 109.2 29.9 L 108.7 29.9 L 108.7 28.8 L 107.7 28.8 L 107.7 28.4 " fill="#0000FF"/>
<path class="atom-38" d="M 90.5 44.1 L 92.4 47.2 Q 92.6 47.6, 92.9 48.1 Q 93.3 48.7, 93.3 48.7 L 93.3 44.1 L 94.1 44.1 L 94.1 50.1 L 93.2 50.1 L 91.1 46.6 Q 90.9 46.2, 90.6 45.7 Q 90.4 45.3, 90.3 45.1 L 90.3 50.1 L 89.5 50.1 L 89.5 44.1 L 90.5 44.1 " fill="#0000FF"/>
<path class="atom-38" d="M 96.1 43.1 Q 96.8 43.1, 97.2 43.5 Q 97.5 44.0, 97.5 45.0 Q 97.5 46.0, 97.1 46.6 Q 96.6 47.1, 95.8 47.1 Q 95.5 47.1, 95.3 47.1 Q 95.1 47.0, 94.9 46.9 L 95.1 46.5 Q 95.4 46.7, 95.8 46.7 Q 96.3 46.7, 96.6 46.3 Q 96.9 45.9, 96.9 45.2 Q 96.7 45.4, 96.5 45.5 Q 96.2 45.6, 96.0 45.6 Q 95.6 45.6, 95.3 45.4 Q 95.1 45.3, 94.9 45.0 Q 94.8 44.7, 94.8 44.4 Q 94.8 44.0, 94.9 43.7 Q 95.1 43.4, 95.4 43.2 Q 95.7 43.1, 96.1 43.1 M 95.3 44.4 Q 95.3 44.7, 95.5 44.9 Q 95.7 45.1, 96.1 45.1 Q 96.3 45.1, 96.5 45.0 Q 96.8 44.9, 96.9 44.8 Q 96.9 44.1, 96.7 43.8 Q 96.5 43.5, 96.1 43.5 Q 95.9 43.5, 95.7 43.6 Q 95.5 43.8, 95.4 43.9 Q 95.3 44.1, 95.3 44.4 " fill="#0000FF"/>
<path class="atom-38" d="M 97.9 43.9 Q 98.0 43.5, 98.4 43.3 Q 98.7 43.1, 99.2 43.1 Q 99.8 43.1, 100.1 43.4 Q 100.5 43.7, 100.5 44.3 Q 100.5 44.9, 100.0 45.4 Q 99.6 46.0, 98.7 46.6 L 100.5 46.6 L 100.5 47.1 L 97.9 47.1 L 97.9 46.7 Q 98.6 46.2, 99.1 45.8 Q 99.5 45.4, 99.7 45.0 Q 99.9 44.7, 99.9 44.3 Q 99.9 43.9, 99.7 43.7 Q 99.5 43.5, 99.2 43.5 Q 98.9 43.5, 98.7 43.6 Q 98.5 43.8, 98.3 44.1 L 97.9 43.9 " fill="#0000FF"/>
<path class="atom-38" d="M 100.9 45.2 L 101.9 45.2 L 101.9 44.0 L 102.4 44.0 L 102.4 45.2 L 103.5 45.2 L 103.5 45.6 L 102.4 45.6 L 102.4 46.7 L 101.9 46.7 L 101.9 45.6 L 100.9 45.6 L 100.9 45.2 " fill="#0000FF"/>
<path class="atom-0" d="M 67.2,70.2 L 67.2,70.2 L 67.2,70.3 L 67.2,70.3 L 67.2,70.3 L 67.1,70.4 L 67.1,70.4 L 67.1,70.4 L 67.1,70.5 L 67.1,70.5 L 67.0,70.5 L 67.0,70.5 L 67.0,70.6 L 66.9,70.6 L 66.9,70.6 L 66.9,70.6 L 66.8,70.6 L 66.8,70.6 L 66.8,70.6 L 66.7,70.6 L 66.7,70.6 L 66.7,70.6 L 66.6,70.6 L 66.6,70.6 L 66.6,70.6 L 66.5,70.5 L 66.5,70.5 L 66.5,70.5 L 66.4,70.5 L 66.4,70.5 L 66.4,70.4 L 66.4,70.4 L 66.4,70.4 L 66.4,70.3 L 66.3,70.3 L 66.3,70.3 L 66.3,70.2 L 66.3,70.2 L 66.3,70.1 L 66.3,70.1 L 66.4,70.1 L 66.4,70.0 L 66.4,70.0 L 66.4,70.0 L 66.4,69.9 L 66.4,69.9 L 66.5,69.9 L 66.5,69.9 L 66.5,69.8 L 66.6,69.8 L 66.6,69.8 L 66.6,69.8 L 66.7,69.8 L 66.7,69.8 L 66.7,69.8 L 66.8,69.8 L 66.8,69.8 L 66.8,69.8 L 66.9,69.8 L 66.9,69.8 L 66.9,69.8 L 67.0,69.8 L 67.0,69.9 L 67.0,69.9 L 67.1,69.9 L 67.1,69.9 L 67.1,70.0 L 67.1,70.0 L 67.1,70.0 L 67.2,70.1 L 67.2,70.1 L 67.2,70.1 L 67.2,70.2 L 67.2,70.2 L 66.8,70.2 Z" style="fill:#000000;fill-rule:evenodd;fill-opacity:1;stroke:#000000;stroke-width:0.0px;stroke-linecap:butt;stroke-linejoin:miter;stroke-opacity:1;"/>
<path class="atom-0" d="M 67.2,74.4 L 67.2,74.5 L 67.2,74.5 L 67.2,74.5 L 67.2,74.6 L 67.1,74.6 L 67.1,74.6 L 67.1,74.7 L 67.1,74.7 L 67.1,74.7 L 67.0,74.7 L 67.0,74.8 L 67.0,74.8 L 66.9,74.8 L 66.9,74.8 L 66.9,74.8 L 66.8,74.8 L 66.8,74.8 L 66.8,74.8 L 66.7,74.8 L 66.7,74.8 L 66.7,74.8 L 66.6,74.8 L 66.6,74.8 L 66.6,74.8 L 66.5,74.8 L 66.5,74.8 L 66.5,74.7 L 66.4,74.7 L 66.4,74.7 L 66.4,74.6 L 66.4,74.6 L 66.4,74.6 L 66.4,74.5 L 66.3,74.5 L 66.3,74.5 L 66.3,74.4 L 66.3,74.4 L 66.3,74.4 L 66.3,74.3 L 66.4,74.3 L 66.4,74.3 L 66.4,74.2 L 66.4,74.2 L 66.4,74.2 L 66.4,74.1 L 66.5,74.1 L 66.5,74.1 L 66.5,74.1 L 66.6,74.0 L 66.6,74.0 L 66.6,74.0 L 66.7,74.0 L 66.7,74.0 L 66.7,74.0 L 66.8,74.0 L 66.8,74.0 L 66.8,74.0 L 66.9,74.0 L 66.9,74.0 L 66.9,74.0 L 67.0,74.1 L 67.0,74.1 L 67.0,74.1 L 67.1,74.1 L 67.1,74.2 L 67.1,74.2 L 67.1,74.2 L 67.1,74.2 L 67.2,74.3 L 67.2,74.3 L 67.2,74.3 L 67.2,74.4 L 67.2,74.4 L 66.8,74.4 Z" style="fill:#000000;fill-rule:evenodd;fill-opacity:1;stroke:#000000;stroke-width:0.0px;stroke-linecap:butt;stroke-linejoin:miter;stroke-opacity:1;"/>
<path class="atom-0" d="M 67.2,72.3 L 67.2,72.3 L 67.2,72.4 L 67.2,72.4 L 67.2,72.5 L 67.1,72.5 L 67.1,72.5 L 67.1,72.5 L 67.1,72.6 L 67.1,72.6 L 67.0,72.6 L 67.0,72.7 L 67.0,72.7 L 66.9,72.7 L 66.9,72.7 L 66.9,72.7 L 66.8,72.7 L 66.8,72.7 L 66.8,72.7 L 66.7,72.7 L 66.7,72.7 L 66.7,72.7 L 66.6,72.7 L 66.6,72.7 L 66.6,72.7 L 66.5,72.7 L 66.5,72.6 L 66.5,72.6 L 66.4,72.6 L 66.4,72.6 L 66.4,72.5 L 66.4,72.5 L 66.4,72.5 L 66.4,72.4 L 66.3,72.4 L 66.3,72.4 L 66.3,72.3 L 66.3,72.3 L 66.3,72.3 L 66.3,72.2 L 66.4,72.2 L 66.4,72.1 L 66.4,72.1 L 66.4,72.1 L 66.4,72.1 L 66.4,72.0 L 66.5,72.0 L 66.5,72.0 L 66.5,72.0 L 66.6,71.9 L 66.6,71.9 L 66.6,71.9 L 66.7,71.9 L 66.7,71.9 L 66.7,71.9 L 66.8,71.9 L 66.8,71.9 L 66.8,71.9 L 66.9,71.9 L 66.9,71.9 L 66.9,71.9 L 67.0,71.9 L 67.0,72.0 L 67.0,72.0 L 67.1,72.0 L 67.1,72.0 L 67.1,72.1 L 67.1,72.1 L 67.1,72.1 L 67.2,72.2 L 67.2,72.2 L 67.2,72.2 L 67.2,72.3 L 67.2,72.3 L 66.8,72.3 Z" style="fill:#000000;fill-rule:evenodd;fill-opacity:1;stroke:#000000;stroke-width:0.0px;stroke-linecap:butt;stroke-linejoin:miter;stroke-opacity:1;"/>
<path class="atom-1" d="M 99.6,68.1 L 99.6,68.1 L 99.6,68.2 L 99.6,68.2 L 99.6,68.3 L 99.6,68.3 L 99.5,68.3 L 99.5,68.4 L 99.5,68.4 L 99.5,68.4 L 99.5,68.4 L 99.4,68.5 L 99.4,68.5 L 99.4,68.5 L 99.3,68.5 L 99.3,68.5 L 99.3,68.5 L 99.2,68.5 L 99.2,68.5 L 99.1,68.5 L 99.1,68.5 L 99.1,68.5 L 99.0,68.5 L 99.0,68.5 L 99.0,68.5 L 98.9,68.5 L 98.9,68.4 L 98.9,68.4 L 98.9,68.4 L 98.8,68.4 L 98.8,68.3 L 98.8,68.3 L 98.8,68.3 L 98.8,68.2 L 98.8,68.2 L 98.8,68.2 L 98.8,68.1 L 98.8,68.1 L 98.8,68.1 L 98.8,68.0 L 98.8,68.0 L 98.8,68.0 L 98.8,67.9 L 98.8,67.9 L 98.8,67.9 L 98.9,67.8 L 98.9,67.8 L 98.9,67.8 L 98.9,67.8 L 99.0,67.7 L 99.0,67.7 L 99.0,67.7 L 99.1,67.7 L 99.1,67.7 L 99.1,67.7 L 99.2,67.7 L 99.2,67.7 L 99.3,67.7 L 99.3,67.7 L 99.3,67.7 L 99.4,67.7 L 99.4,67.7 L 99.4,67.8 L 99.5,67.8 L 99.5,67.8 L 99.5,67.8 L 99.5,67.9 L 99.5,67.9 L 99.6,67.9 L 99.6,68.0 L 99.6,68.0 L 99.6,68.0 L 99.6,68.1 L 99.6,68.1 L 99.2,68.1 Z" style="fill:#000000;fill-rule:evenodd;fill-opacity:1;stroke:#000000;stroke-width:0.0px;stroke-linecap:butt;stroke-linejoin:miter;stroke-opacity:1;"/>
<path class="atom-37" d="M 101.6,31.2 L 101.6,31.2 L 101.6,31.2 L 101.6,31.3 L 101.6,31.3 L 101.5,31.4 L 101.5,31.4 L 101.5,31.4 L 101.5,31.4 L 101.5,31.5 L 101.4,31.5 L 101.4,31.5 L 101.4,31.5 L 101.3,31.6 L 101.3,31.6 L 101.3,31.6 L 101.2,31.6 L 101.2,31.6 L 101.2,31.6 L 101.1,31.6 L 101.1,31.6 L 101.1,31.6 L 101.0,31.6 L 101.0,31.6 L 101.0,31.5 L 100.9,31.5 L 100.9,31.5 L 100.9,31.5 L 100.8,31.5 L 100.8,31.4 L 100.8,31.4 L 100.8,31.4 L 100.8,31.3 L 100.8,31.3 L 100.7,31.3 L 100.7,31.2 L 100.7,31.2 L 100.7,31.2 L 100.7,31.1 L 100.7,31.1 L 100.8,31.1 L 100.8,31.0 L 100.8,31.0 L 100.8,31.0 L 100.8,30.9 L 100.8,30.9 L 100.9,30.9 L 100.9,30.8 L 100.9,30.8 L 101.0,30.8 L 101.0,30.8 L 101.0,30.8 L 101.1,30.8 L 101.1,30.8 L 101.1,30.8 L 101.2,30.8 L 101.2,30.8 L 101.2,30.8 L 101.3,30.8 L 101.3,30.8 L 101.3,30.8 L 101.4,30.8 L 101.4,30.8 L 101.4,30.9 L 101.5,30.9 L 101.5,30.9 L 101.5,30.9 L 101.5,31.0 L 101.5,31.0 L 101.6,31.0 L 101.6,31.1 L 101.6,31.1 L 101.6,31.1 L 101.6,31.2 L 101.2,31.2 Z" style="fill:#000000;fill-rule:evenodd;fill-opacity:1;stroke:#000000;stroke-width:0.0px;stroke-linecap:butt;stroke-linejoin:miter;stroke-opacity:1;"/>
<path class="atom-37" d="M 101.6,29.5 L 101.6,29.5 L 101.6,29.6 L 101.6,29.6 L 101.6,29.6 L 101.5,29.7 L 101.5,29.7 L 101.5,29.7 L 101.5,29.8 L 101.5,29.8 L 101.4,29.8 L 101.4,29.8 L 101.4,29.9 L 101.3,29.9 L 101.3,29.9 L 101.3,29.9 L 101.2,29.9 L 101.2,29.9 L 101.2,29.9 L 101.1,29.9 L 101.1,29.9 L 101.1,29.9 L 101.0,29.9 L 101.0,29.9 L 101.0,29.9 L 100.9,29.8 L 100.9,29.8 L 100.9,29.8 L 100.8,29.8 L 100.8,29.7 L 100.8,29.7 L 100.8,29.7 L 100.8,29.6 L 100.8,29.6 L 100.7,29.6 L 100.7,29.5 L 100.7,29.5 L 100.7,29.5 L 100.7,29.4 L 100.7,29.4 L 100.8,29.4 L 100.8,29.3 L 100.8,29.3 L 100.8,29.3 L 100.8,29.2 L 100.8,29.2 L 100.9,29.2 L 100.9,29.2 L 100.9,29.1 L 101.0,29.1 L 101.0,29.1 L 101.0,29.1 L 101.1,29.1 L 101.1,29.1 L 101.1,29.1 L 101.2,29.1 L 101.2,29.1 L 101.2,29.1 L 101.3,29.1 L 101.3,29.1 L 101.3,29.1 L 101.4,29.1 L 101.4,29.1 L 101.4,29.2 L 101.5,29.2 L 101.5,29.2 L 101.5,29.2 L 101.5,29.3 L 101.5,29.3 L 101.6,29.3 L 101.6,29.4 L 101.6,29.4 L 101.6,29.5 L 101.6,29.5 L 101.2,29.5 Z" style="fill:#000000;fill-rule:evenodd;fill-opacity:1;stroke:#000000;stroke-width:0.0px;stroke-linecap:butt;stroke-linejoin:miter;stroke-opacity:1;"/>
<path class="bond-0 atom-0 atom-1" d="M 367.2,72.3 L 376.2,70.5" style="fill:none;fill-rule:evenodd;stroke:#000000;stroke-width:2.0px;stroke-linecap:butt;stroke-linejoin:miter;stroke-opacity:1"/>
<path class="bond-0 atom-0 atom-1" d="M 376.2,70.5 L 385.3,68.6" style="fill:none;fill-rule:evenodd;stroke:#CCCC00;stroke-width:2.0px;stroke-linecap:butt;stroke-linejoin:miter;stroke-opacity:1"/>
<path class="bond-1 atom-1 atom-2" d="M 389.9,72.0 L 393.8,79.4" style="fill:none;fill-rule:evenodd;stroke:#CCCC00;stroke-width:2.0px;stroke-linecap:butt;stroke-linejoin:miter;stroke-opacity:1"/>
<path class="bond-1 atom-1 atom-2" d="M 393.8,79.4 L 397.7,86.8" style="fill:none;fill-rule:evenodd;stroke:#000000;stroke-width:2.0px;stroke-linecap:butt;stroke-linejoin:miter;stroke-opacity:1"/>
<path class="bond-2 atom-2 atom-3" d="M 397.7,86.8 L 416.1,97.2" style="fill:none;fill-rule:evenodd;stroke:#000000;stroke-width:2.0px;stroke-linecap:butt;stroke-linejoin:miter;stroke-opacity:1"/>
<path class="bond-3 atom-3 atom-4" d="M 416.1,97.2 L 425.2,96.7" style="fill:none;fill-rule:evenodd;stroke:#000000;stroke-width:2.0px;stroke-linecap:butt;stroke-linejoin:miter;stroke-opacity:1"/>
<path class="bond-3 atom-3 atom-4" d="M 425.2,96.7 L 434.3,96.1" style="fill:none;fill-rule:evenodd;stroke:#0000FF;stroke-width:2.0px;stroke-linecap:butt;stroke-linejoin:miter;stroke-opacity:1"/>
<path class="bond-4 atom-4 atom-5" d="M 440.2,93.8 L 447.3,88.7" style="fill:none;fill-rule:evenodd;stroke:#0000FF;stroke-width:2.0px;stroke-linecap:butt;stroke-linejoin:miter;stroke-opacity:1"/>
<path class="bond-4 atom-4 atom-5" d="M 447.3,88.7 L 454.3,83.6" style="fill:none;fill-rule:evenodd;stroke:#000000;stroke-width:2.0px;stroke-linecap:butt;stroke-linejoin:miter;stroke-opacity:1"/>
<path class="bond-5 atom-5 atom-6" d="M 454.3,83.6 L 462.0,63.9" style="fill:none;fill-rule:evenodd;stroke:#000000;stroke-width:2.0px;stroke-linecap:butt;stroke-linejoin:miter;stroke-opacity:1"/>
<path class="bond-6 atom-6 atom-7" d="M 462.0,63.9 L 460.3,55.4" style="fill:none;fill-rule:evenodd;stroke:#000000;stroke-width:2.0px;stroke-linecap:butt;stroke-linejoin:miter;stroke-opacity:1"/>
<path class="bond-6 atom-6 atom-7" d="M 460.3,55.4 L 458.5,46.8" style="fill:none;fill-rule:evenodd;stroke:#0000FF;stroke-width:2.0px;stroke-linecap:butt;stroke-linejoin:miter;stroke-opacity:1"/>
<path class="bond-7 atom-7 atom-8" d="M 460.7,41.6 L 468.6,37.4" style="fill:none;fill-rule:evenodd;stroke:#0000FF;stroke-width:2.0px;stroke-linecap:butt;stroke-linejoin:miter;stroke-opacity:1"/>
<path class="bond-7 atom-7 atom-8" d="M 468.6,37.4 L 476.5,33.3" style="fill:none;fill-rule:evenodd;stroke:#000000;stroke-width:2.0px;stroke-linecap:butt;stroke-linejoin:miter;stroke-opacity:1"/>
<path class="bond-8 atom-8 atom-9" d="M 474.4,33.2 L 474.7,24.6" style="fill:none;fill-rule:evenodd;stroke:#000000;stroke-width:2.0px;stroke-linecap:butt;stroke-linejoin:miter;stroke-opacity:1"/>
<path class="bond-8 atom-8 atom-9" d="M 474.7,24.6 L 475.0,15.9" style="fill:none;fill-rule:evenodd;stroke:#FF0000;stroke-width:2.0px;stroke-linecap:butt;stroke-linejoin:miter;stroke-opacity:1"/>
<path class="bond-8 atom-8 atom-9" d="M 478.6,33.4 L 478.9,24.7" style="fill:none;fill-rule:evenodd;stroke:#000000;stroke-width:2.0px;stroke-linecap:butt;stroke-linejoin:miter;stroke-opacity:1"/>
<path class="bond-8 atom-8 atom-9" d="M 478.9,24.7 L 479.2,16.1" style="fill:none;fill-rule:evenodd;stroke:#FF0000;stroke-width:2.0px;stroke-linecap:butt;stroke-linejoin:miter;stroke-opacity:1"/>
<path class="bond-9 atom-8 atom-10" d="M 476.5,33.3 L 494.3,44.5" style="fill:none;fill-rule:evenodd;stroke:#000000;stroke-width:2.0px;stroke-linecap:butt;stroke-linejoin:miter;stroke-opacity:1"/>
<path class="bond-10 atom-10 atom-11" d="M 494.3,44.5 L 495.8,65.6" style="fill:none;fill-rule:evenodd;stroke:#000000;stroke-width:2.0px;stroke-linecap:butt;stroke-linejoin:miter;stroke-opacity:1"/>
<path class="bond-10 atom-10 atom-11" d="M 498.8,47.4 L 499.8,62.2" style="fill:none;fill-rule:evenodd;stroke:#000000;stroke-width:2.0px;stroke-linecap:butt;stroke-linejoin:miter;stroke-opacity:1"/>
<path class="bond-11 atom-11 atom-12" d="M 495.8,65.6 L 479.5,79.2" style="fill:none;fill-rule:evenodd;stroke:#000000;stroke-width:2.0px;stroke-linecap:butt;stroke-linejoin:miter;stroke-opacity:1"/>
<path class="bond-12 atom-12 atom-13" d="M 479.5,79.2 L 483.1,100.0" style="fill:none;fill-rule:evenodd;stroke:#000000;stroke-width:2.0px;stroke-linecap:butt;stroke-linejoin:miter;stroke-opacity:1"/>
<path class="bond-13 atom-13 atom-14" d="M 483.1,100.0 L 503.0,107.3" style="fill:none;fill-rule:evenodd;stroke:#000000;stroke-width:2.0px;stroke-linecap:butt;stroke-linejoin:miter;stroke-opacity:1"/>
<path class="bond-13 atom-13 atom-14" d="M 484.7,105.0 L 498.5,110.1" style="fill:none;fill-rule:evenodd;stroke:#000000;stroke-width:2.0px;stroke-linecap:butt;stroke-linejoin:miter;stroke-opacity:1"/>
<path class="bond-14 atom-14 atom-15" d="M 503.0,107.3 L 506.6,128.1" style="fill:none;fill-rule:evenodd;stroke:#000000;stroke-width:2.0px;stroke-linecap:butt;stroke-linejoin:miter;stroke-opacity:1"/>
<path class="bond-15 atom-15 atom-16" d="M 506.6,128.1 L 490.3,141.6" style="fill:none;fill-rule:evenodd;stroke:#000000;stroke-width:2.0px;stroke-linecap:butt;stroke-linejoin:miter;stroke-opacity:1"/>
<path class="bond-15 atom-15 atom-16" d="M 501.4,126.9 L 490.1,136.3" style="fill:none;fill-rule:evenodd;stroke:#000000;stroke-width:2.0px;stroke-linecap:butt;stroke-linejoin:miter;stroke-opacity:1"/>
<path class="bond-16 atom-16 atom-17" d="M 490.3,141.6 L 470.5,134.3" style="fill:none;fill-rule:evenodd;stroke:#000000;stroke-width:2.0px;stroke-linecap:butt;stroke-linejoin:miter;stroke-opacity:1"/>
<path class="bond-17 atom-17 atom-18" d="M 470.5,134.3 L 463.6,140.0" style="fill:none;fill-rule:evenodd;stroke:#000000;stroke-width:2.0px;stroke-linecap:butt;stroke-linejoin:miter;stroke-opacity:1"/>
<path class="bond-17 atom-17 atom-18" d="M 463.6,140.0 L 456.8,145.8" style="fill:none;fill-rule:evenodd;stroke:#33CCCC;stroke-width:2.0px;stroke-linecap:butt;stroke-linejoin:miter;stroke-opacity:1"/>
<path class="bond-18 atom-17 atom-19" d="M 470.5,134.3 L 466.9,113.5" style="fill:none;fill-rule:evenodd;stroke:#000000;stroke-width:2.0px;stroke-linecap:butt;stroke-linejoin:miter;stroke-opacity:1"/>
<path class="bond-18 atom-17 atom-19" d="M 474.1,130.5 L 471.6,115.9" style="fill:none;fill-rule:evenodd;stroke:#000000;stroke-width:2.0px;stroke-linecap:butt;stroke-linejoin:miter;stroke-opacity:1"/>
<path class="bond-19 atom-19 atom-20" d="M 466.9,113.5 L 447.1,106.2" style="fill:none;fill-rule:evenodd;stroke:#000000;stroke-width:2.0px;stroke-linecap:butt;stroke-linejoin:miter;stroke-opacity:1"/>
<path class="bond-20 atom-11 atom-21" d="M 495.8,65.6 L 504.5,67.8" style="fill:none;fill-rule:evenodd;stroke:#000000;stroke-width:2.0px;stroke-linecap:butt;stroke-linejoin:miter;stroke-opacity:1"/>
<path class="bond-20 atom-11 atom-21" d="M 504.5,67.8 L 513.3,70.0" style="fill:none;fill-rule:evenodd;stroke:#0000FF;stroke-width:2.0px;stroke-linecap:butt;stroke-linejoin:miter;stroke-opacity:1"/>
<path class="bond-21 atom-21 atom-22" d="M 517.7,74.5 L 520.9,82.4" style="fill:none;fill-rule:evenodd;stroke:#0000FF;stroke-width:2.0px;stroke-linecap:butt;stroke-linejoin:miter;stroke-opacity:1"/>
<path class="bond-21 atom-21 atom-22" d="M 520.9,82.4 L 524.1,90.4" style="fill:none;fill-rule:evenodd;stroke:#000000;stroke-width:2.0px;stroke-linecap:butt;stroke-linejoin:miter;stroke-opacity:1"/>
<path class="bond-22 atom-22 atom-23" d="M 524.1,90.4 L 511.0,107.0" style="fill:none;fill-rule:evenodd;stroke:#000000;stroke-width:2.0px;stroke-linecap:butt;stroke-linejoin:miter;stroke-opacity:1"/>
<path class="bond-22 atom-22 atom-23" d="M 525.5,95.5 L 516.3,107.1" style="fill:none;fill-rule:evenodd;stroke:#000000;stroke-width:2.0px;stroke-linecap:butt;stroke-linejoin:miter;stroke-opacity:1"/>
<path class="bond-23 atom-23 atom-24" d="M 511.0,107.0 L 518.9,126.6" style="fill:none;fill-rule:evenodd;stroke:#000000;stroke-width:2.0px;stroke-linecap:butt;stroke-linejoin:miter;stroke-opacity:1"/>
<path class="bond-24 atom-24 atom-25" d="M 518.9,126.6 L 539.8,129.6" style="fill:none;fill-rule:evenodd;stroke:#000000;stroke-width:2.0px;stroke-linecap:butt;stroke-linejoin:miter;stroke-opacity:1"/>
<path class="bond-24 atom-24 atom-25" d="M 522.6,122.9 L 537.3,125.0" style="fill:none;fill-rule:evenodd;stroke:#000000;stroke-width:2.0px;stroke-linecap:butt;stroke-linejoin:miter;stroke-opacity:1"/>
<path class="bond-25 atom-25 atom-26" d="M 539.8,129.6 L 552.9,113.0" style="fill:none;fill-rule:evenodd;stroke:#000000;stroke-width:2.0px;stroke-linecap:butt;stroke-linejoin:miter;stroke-opacity:1"/>
<path class="bond-26 atom-26 atom-27" d="M 552.9,113.0 L 545.0,93.4" style="fill:none;fill-rule:evenodd;stroke:#000000;stroke-width:2.0px;stroke-linecap:butt;stroke-linejoin:miter;stroke-opacity:1"/>
<path class="bond-26 atom-26 atom-27" d="M 547.8,111.7 L 542.3,97.9" style="fill:none;fill-rule:evenodd;stroke:#000000;stroke-width:2.0px;stroke-linecap:butt;stroke-linejoin:miter;stroke-opacity:1"/>
<path class="bond-27 atom-21 atom-28" d="M 518.6,67.1 L 523.0,60.0" style="fill:none;fill-rule:evenodd;stroke:#0000FF;stroke-width:2.0px;stroke-linecap:butt;stroke-linejoin:miter;stroke-opacity:1"/>
<path class="bond-27 atom-21 atom-28" d="M 523.0,60.0 L 527.5,52.9" style="fill:none;fill-rule:evenodd;stroke:#000000;stroke-width:2.0px;stroke-linecap:butt;stroke-linejoin:miter;stroke-opacity:1"/>
<path class="bond-28 atom-28 atom-29" d="M 527.5,52.9 L 548.3,49.3" style="fill:none;fill-rule:evenodd;stroke:#000000;stroke-width:2.0px;stroke-linecap:butt;stroke-linejoin:miter;stroke-opacity:1"/>
<path class="bond-28 atom-28 atom-29" d="M 529.9,48.2 L 544.5,45.7" style="fill:none;fill-rule:evenodd;stroke:#000000;stroke-width:2.0px;stroke-linecap:butt;stroke-linejoin:miter;stroke-opacity:1"/>
<path class="bond-29 atom-29 atom-30" d="M 548.3,49.3 L 555.6,29.5" style="fill:none;fill-rule:evenodd;stroke:#000000;stroke-width:2.0px;stroke-linecap:butt;stroke-linejoin:miter;stroke-opacity:1"/>
<path class="bond-30 atom-30 atom-31" d="M 555.6,29.5 L 564.3,28.0" style="fill:none;fill-rule:evenodd;stroke:#000000;stroke-width:2.0px;stroke-linecap:butt;stroke-linejoin:miter;stroke-opacity:1"/>
<path class="bond-30 atom-30 atom-31" d="M 564.3,28.0 L 573.0,26.5" style="fill:none;fill-rule:evenodd;stroke:#FF0000;stroke-width:2.0px;stroke-linecap:butt;stroke-linejoin:miter;stroke-opacity:1"/>
<path class="bond-31 atom-30 atom-32" d="M 555.6,29.5 L 542.1,13.3" style="fill:none;fill-rule:evenodd;stroke:#000000;stroke-width:2.0px;stroke-linecap:butt;stroke-linejoin:miter;stroke-opacity:1"/>
<path class="bond-31 atom-30 atom-32" d="M 550.3,29.8 L 540.8,18.4" style="fill:none;fill-rule:evenodd;stroke:#000000;stroke-width:2.0px;stroke-linecap:butt;stroke-linejoin:miter;stroke-opacity:1"/>
<path class="bond-32 atom-32 atom-33" d="M 542.1,13.3 L 521.2,16.9" style="fill:none;fill-rule:evenodd;stroke:#000000;stroke-width:2.0px;stroke-linecap:butt;stroke-linejoin:miter;stroke-opacity:1"/>
<path class="bond-33 atom-33 atom-34" d="M 521.2,16.9 L 514.0,36.7" style="fill:none;fill-rule:evenodd;stroke:#000000;stroke-width:2.0px;stroke-linecap:butt;stroke-linejoin:miter;stroke-opacity:1"/>
<path class="bond-33 atom-33 atom-34" d="M 524.1,21.3 L 519.0,35.2" style="fill:none;fill-rule:evenodd;stroke:#000000;stroke-width:2.0px;stroke-linecap:butt;stroke-linejoin:miter;stroke-opacity:1"/>
<path class="bond-34 atom-7 atom-35" d="M 454.8,40.1 L 448.9,34.1" style="fill:none;fill-rule:evenodd;stroke:#0000FF;stroke-width:2.0px;stroke-linecap:butt;stroke-linejoin:miter;stroke-opacity:1"/>
<path class="bond-34 atom-7 atom-35" d="M 448.9,34.1 L 443.1,28.0" style="fill:none;fill-rule:evenodd;stroke:#000000;stroke-width:2.0px;stroke-linecap:butt;stroke-linejoin:miter;stroke-opacity:1"/>
<path class="bond-35 atom-35 atom-36" d="M 443.1,28.0 L 422.5,23.2" style="fill:none;fill-rule:evenodd;stroke:#000000;stroke-width:2.0px;stroke-linecap:butt;stroke-linejoin:miter;stroke-opacity:1"/>
<path class="bond-36 atom-36 atom-37" d="M 422.5,23.2 L 415.7,25.7" style="fill:none;fill-rule:evenodd;stroke:#000000;stroke-width:2.0px;stroke-linecap:butt;stroke-linejoin:miter;stroke-opacity:1"/>
<path class="bond-36 atom-36 atom-37" d="M 415.7,25.7 L 408.9,28.1" style="fill:none;fill-rule:evenodd;stroke:#0000FF;stroke-width:2.0px;stroke-linecap:butt;stroke-linejoin:miter;stroke-opacity:1"/>
<path class="bond-37 atom-37 atom-38" d="M 399.7,34.0 L 393.3,42.4" style="fill:none;fill-rule:evenodd;stroke:#0000FF;stroke-width:2.0px;stroke-linecap:butt;stroke-linejoin:miter;stroke-opacity:1"/>
<path class="bond-38 atom-38 atom-1" d="M 389.4,50.8 L 388.8,57.6" style="fill:none;fill-rule:evenodd;stroke:#0000FF;stroke-width:2.0px;stroke-linecap:butt;stroke-linejoin:miter;stroke-opacity:1"/>
<path class="bond-38 atom-38 atom-1" d="M 388.8,57.6 L 388.2,64.4" style="fill:none;fill-rule:evenodd;stroke:#CCCC00;stroke-width:2.0px;stroke-linecap:butt;stroke-linejoin:miter;stroke-opacity:1"/>
<path class="bond-39 atom-34 atom-10" d="M 514.0,36.7 L 494.3,44.5" style="fill:none;fill-rule:evenodd;stroke:#000000;stroke-width:2.0px;stroke-linecap:butt;stroke-linejoin:miter;stroke-opacity:1"/>
<path class="bond-40 atom-19 atom-13" d="M 466.9,113.5 L 483.1,100.0" style="fill:none;fill-rule:evenodd;stroke:#000000;stroke-width:2.0px;stroke-linecap:butt;stroke-linejoin:miter;stroke-opacity:1"/>
<path class="bond-41 atom-27 atom-22" d="M 545.0,93.4 L 524.1,90.4" style="fill:none;fill-rule:evenodd;stroke:#000000;stroke-width:2.0px;stroke-linecap:butt;stroke-linejoin:miter;stroke-opacity:1"/>
<path class="bond-42 atom-34 atom-28" d="M 514.0,36.7 L 527.5,52.9" style="fill:none;fill-rule:evenodd;stroke:#000000;stroke-width:2.0px;stroke-linecap:butt;stroke-linejoin:miter;stroke-opacity:1"/>
<path class="atom-1" d="M 386.2 70.2 Q 386.3 70.2, 386.5 70.3 Q 386.8 70.4, 387.1 70.5 Q 387.4 70.6, 387.7 70.6 Q 388.3 70.6, 388.6 70.3 Q 389.0 70.0, 389.0 69.5 Q 389.0 69.2, 388.8 69.0 Q 388.6 68.8, 388.4 68.7 Q 388.1 68.6, 387.7 68.5 Q 387.2 68.3, 386.9 68.1 Q 386.5 68.0, 386.3 67.7 Q 386.1 67.4, 386.1 66.8 Q 386.1 66.1, 386.6 65.6 Q 387.1 65.1, 388.1 65.1 Q 388.8 65.1, 389.6 65.5 L 389.4 66.1 Q 388.7 65.8, 388.2 65.8 Q 387.6 65.8, 387.2 66.1 Q 386.9 66.3, 386.9 66.7 Q 386.9 67.0, 387.1 67.2 Q 387.3 67.4, 387.5 67.5 Q 387.7 67.6, 388.2 67.8 Q 388.7 67.9, 389.0 68.1 Q 389.3 68.3, 389.6 68.6 Q 389.8 69.0, 389.8 69.5 Q 389.8 70.4, 389.2 70.8 Q 388.7 71.3, 387.8 71.3 Q 387.2 71.3, 386.8 71.1 Q 386.4 71.0, 386.0 70.8 L 386.2 70.2 " fill="#CCCC00"/>
<path class="atom-1" d="M 390.2 64.8 Q 390.4 64.5, 390.7 64.2 Q 391.0 64.0, 391.5 64.0 Q 392.1 64.0, 392.5 64.4 Q 392.8 64.7, 392.8 65.3 Q 392.8 65.8, 392.4 66.4 Q 391.9 66.9, 391.0 67.6 L 392.9 67.6 L 392.9 68.0 L 390.2 68.0 L 390.2 67.7 Q 390.9 67.1, 391.4 66.7 Q 391.8 66.4, 392.0 66.0 Q 392.2 65.6, 392.2 65.3 Q 392.2 64.9, 392.0 64.7 Q 391.9 64.5, 391.5 64.5 Q 391.2 64.5, 391.0 64.6 Q 390.8 64.7, 390.6 65.0 L 390.2 64.8 " fill="#CCCC00"/>
<path class="atom-1" d="M 393.2 66.1 L 394.2 66.1 L 394.2 65.0 L 394.7 65.0 L 394.7 66.1 L 395.8 66.1 L 395.8 66.5 L 394.7 66.5 L 394.7 67.6 L 394.2 67.6 L 394.2 66.5 L 393.2 66.5 L 393.2 66.1 " fill="#CCCC00"/>
<path class="atom-4" d="M 435.9 93.0 L 437.9 96.1 Q 438.1 96.5, 438.4 97.0 Q 438.7 97.6, 438.7 97.6 L 438.7 93.0 L 439.5 93.0 L 439.5 99.0 L 438.7 99.0 L 436.6 95.5 Q 436.3 95.1, 436.1 94.6 Q 435.8 94.2, 435.7 94.0 L 435.7 99.0 L 435.0 99.0 L 435.0 93.0 L 435.9 93.0 " fill="#0000FF"/>
<path class="atom-4" d="M 434.9 99.6 L 435.7 99.6 L 435.7 102.1 L 438.8 102.1 L 438.8 99.6 L 439.6 99.6 L 439.6 105.5 L 438.8 105.5 L 438.8 102.8 L 435.7 102.8 L 435.7 105.5 L 434.9 105.5 L 434.9 99.6 " fill="#0000FF"/>
<path class="atom-7" d="M 456.5 40.2 L 458.4 43.3 Q 458.6 43.6, 458.9 44.2 Q 459.2 44.8, 459.3 44.8 L 459.3 40.2 L 460.1 40.2 L 460.1 46.2 L 459.2 46.2 L 457.1 42.7 Q 456.9 42.3, 456.6 41.8 Q 456.4 41.4, 456.3 41.2 L 456.3 46.2 L 455.5 46.2 L 455.5 40.2 L 456.5 40.2 " fill="#0000FF"/>
<path class="atom-9" d="M 474.5 12.2 Q 474.5 10.8, 475.2 10.0 Q 475.9 9.2, 477.3 9.2 Q 478.6 9.2, 479.3 10.0 Q 480.0 10.8, 480.0 12.2 Q 480.0 13.7, 479.3 14.5 Q 478.6 15.3, 477.3 15.3 Q 475.9 15.3, 475.2 14.5 Q 474.5 13.7, 474.5 12.2 M 477.3 14.6 Q 478.2 14.6, 478.7 14.0 Q 479.2 13.4, 479.2 12.2 Q 479.2 11.0, 478.7 10.4 Q 478.2 9.8, 477.3 9.8 Q 476.4 9.8, 475.9 10.4 Q 475.4 11.0, 475.4 12.2 Q 475.4 13.4, 475.9 14.0 Q 476.4 14.6, 477.3 14.6 " fill="#FF0000"/>
<path class="atom-18" d="M 452.5 144.9 L 456.1 144.9 L 456.1 145.5 L 453.3 145.5 L 453.3 147.4 L 455.8 147.4 L 455.8 148.0 L 453.3 148.0 L 453.3 150.8 L 452.5 150.8 L 452.5 144.9 " fill="#33CCCC"/>
<path class="atom-21" d="M 514.9 67.8 L 516.9 71.0 Q 517.1 71.3, 517.4 71.9 Q 517.7 72.4, 517.7 72.5 L 517.7 67.8 L 518.5 67.8 L 518.5 73.8 L 517.7 73.8 L 515.6 70.3 Q 515.3 69.9, 515.1 69.5 Q 514.8 69.0, 514.7 68.8 L 514.7 73.8 L 514.0 73.8 L 514.0 67.8 L 514.9 67.8 " fill="#0000FF"/>
<path class="atom-31" d="M 573.7 25.9 Q 573.7 24.5, 574.4 23.7 Q 575.1 22.9, 576.4 22.9 Q 577.7 22.9, 578.4 23.7 Q 579.1 24.5, 579.1 25.9 Q 579.1 27.3, 578.4 28.2 Q 577.7 29.0, 576.4 29.0 Q 575.1 29.0, 574.4 28.2 Q 573.7 27.4, 573.7 25.9 M 576.4 28.3 Q 577.3 28.3, 577.8 27.7 Q 578.3 27.1, 578.3 25.9 Q 578.3 24.7, 577.8 24.1 Q 577.3 23.5, 576.4 23.5 Q 575.5 23.5, 575.0 24.1 Q 574.5 24.7, 574.5 25.9 Q 574.5 27.1, 575.0 27.7 Q 575.5 28.3, 576.4 28.3 " fill="#FF0000"/>
<path class="atom-31" d="M 579.6 22.9 L 580.4 22.9 L 580.4 25.5 L 583.4 25.5 L 583.4 22.9 L 584.3 22.9 L 584.3 28.9 L 583.4 28.9 L 583.4 26.1 L 580.4 26.1 L 580.4 28.9 L 579.6 28.9 L 579.6 22.9 " fill="#FF0000"/>
<path class="atom-37" d="M 401.3 27.3 L 403.2 30.5 Q 403.4 30.8, 403.7 31.4 Q 404.0 32.0, 404.1 32.0 L 404.1 27.3 L 404.9 27.3 L 404.9 33.3 L 404.0 33.3 L 401.9 29.9 Q 401.7 29.5, 401.4 29.0 Q 401.2 28.5, 401.1 28.4 L 401.1 33.3 L 400.3 33.3 L 400.3 27.3 L 401.3 27.3 " fill="#0000FF"/>
<path class="atom-37" d="M 405.6 28.4 L 406.6 28.4 L 406.6 27.3 L 407.1 27.3 L 407.1 28.4 L 408.2 28.4 L 408.2 28.8 L 407.1 28.8 L 407.1 29.9 L 406.6 29.9 L 406.6 28.8 L 405.6 28.8 L 405.6 28.4 " fill="#0000FF"/>
<path class="atom-38" d="M 388.4 44.1 L 390.3 47.2 Q 390.5 47.6, 390.8 48.1 Q 391.1 48.7, 391.2 48.7 L 391.2 44.1 L 392.0 44.1 L 392.0 50.1 L 391.1 50.1 L 389.0 46.6 Q 388.8 46.2, 388.5 45.7 Q 388.3 45.3, 388.2 45.1 L 388.2 50.1 L 387.4 50.1 L 387.4 44.1 L 388.4 44.1 " fill="#0000FF"/>
<path class="atom-38" d="M 394.7 45.0 Q 395.0 45.1, 395.2 45.4 Q 395.4 45.6, 395.4 46.0 Q 395.4 46.3, 395.3 46.6 Q 395.1 46.8, 394.8 47.0 Q 394.5 47.1, 394.1 47.1 Q 393.4 47.1, 393.0 46.8 Q 392.7 46.5, 392.7 46.0 Q 392.7 45.7, 392.8 45.4 Q 393.0 45.2, 393.3 45.0 Q 393.1 44.8, 392.9 44.6 Q 392.8 44.4, 392.8 44.1 Q 392.8 43.6, 393.1 43.3 Q 393.5 43.1, 394.1 43.1 Q 394.6 43.1, 395.0 43.3 Q 395.3 43.6, 395.3 44.1 Q 395.3 44.4, 395.1 44.6 Q 395.0 44.8, 394.7 45.0 M 394.1 43.5 Q 393.7 43.5, 393.5 43.6 Q 393.4 43.8, 393.4 44.1 Q 393.4 44.3, 393.5 44.4 Q 393.6 44.6, 393.8 44.6 Q 394.0 44.7, 394.3 44.8 Q 394.5 44.7, 394.6 44.5 Q 394.7 44.3, 394.7 44.1 Q 394.7 43.8, 394.6 43.6 Q 394.4 43.5, 394.1 43.5 M 394.1 46.7 Q 394.4 46.7, 394.7 46.5 Q 394.9 46.3, 394.9 46.0 Q 394.9 45.8, 394.8 45.6 Q 394.7 45.5, 394.5 45.4 Q 394.3 45.3, 394.0 45.2 L 393.7 45.2 Q 393.5 45.3, 393.3 45.5 Q 393.2 45.7, 393.2 46.0 Q 393.2 46.3, 393.4 46.5 Q 393.7 46.7, 394.1 46.7 " fill="#0000FF"/>
<path class="atom-38" d="M 397.9 43.6 L 395.8 43.6 L 395.8 43.1 L 398.4 43.1 L 398.4 43.5 L 396.8 47.1 L 396.3 47.1 L 397.9 43.6 " fill="#0000FF"/>
<path class="atom-38" d="M 398.6 45.2 L 399.6 45.2 L 399.6 44.0 L 400.1 44.0 L 400.1 45.2 L 401.2 45.2 L 401.2 45.6 L 400.1 45.6 L 400.1 46.7 L 399.6 46.7 L 399.6 45.6 L 398.6 45.6 L 398.6 45.2 " fill="#0000FF"/>
<path class="atom-0" d="M 365.1,70.2 L 365.1,70.2 L 365.1,70.3 L 365.1,70.3 L 365.0,70.3 L 365.0,70.4 L 365.0,70.4 L 365.0,70.4 L 365.0,70.5 L 364.9,70.5 L 364.9,70.5 L 364.9,70.5 L 364.9,70.6 L 364.8,70.6 L 364.8,70.6 L 364.8,70.6 L 364.7,70.6 L 364.7,70.6 L 364.7,70.6 L 364.6,70.6 L 364.6,70.6 L 364.5,70.6 L 364.5,70.6 L 364.5,70.6 L 364.4,70.6 L 364.4,70.5 L 364.4,70.5 L 364.4,70.5 L 364.3,70.5 L 364.3,70.5 L 364.3,70.4 L 364.3,70.4 L 364.3,70.4 L 364.2,70.3 L 364.2,70.3 L 364.2,70.3 L 364.2,70.2 L 364.2,70.2 L 364.2,70.1 L 364.2,70.1 L 364.2,70.1 L 364.3,70.0 L 364.3,70.0 L 364.3,70.0 L 364.3,69.9 L 364.3,69.9 L 364.4,69.9 L 364.4,69.9 L 364.4,69.8 L 364.4,69.8 L 364.5,69.8 L 364.5,69.8 L 364.5,69.8 L 364.6,69.8 L 364.6,69.8 L 364.7,69.8 L 364.7,69.8 L 364.7,69.8 L 364.8,69.8 L 364.8,69.8 L 364.8,69.8 L 364.9,69.8 L 364.9,69.9 L 364.9,69.9 L 364.9,69.9 L 365.0,69.9 L 365.0,70.0 L 365.0,70.0 L 365.0,70.0 L 365.0,70.1 L 365.1,70.1 L 365.1,70.1 L 365.1,70.2 L 365.1,70.2 L 364.6,70.2 Z" style="fill:#000000;fill-rule:evenodd;fill-opacity:1;stroke:#000000;stroke-width:0.0px;stroke-linecap:butt;stroke-linejoin:miter;stroke-opacity:1;"/>
<path class="atom-0" d="M 365.1,74.4 L 365.1,74.5 L 365.1,74.5 L 365.1,74.5 L 365.0,74.6 L 365.0,74.6 L 365.0,74.6 L 365.0,74.7 L 365.0,74.7 L 364.9,74.7 L 364.9,74.7 L 364.9,74.8 L 364.9,74.8 L 364.8,74.8 L 364.8,74.8 L 364.8,74.8 L 364.7,74.8 L 364.7,74.8 L 364.7,74.8 L 364.6,74.8 L 364.6,74.8 L 364.5,74.8 L 364.5,74.8 L 364.5,74.8 L 364.4,74.8 L 364.4,74.8 L 364.4,74.8 L 364.4,74.7 L 364.3,74.7 L 364.3,74.7 L 364.3,74.6 L 364.3,74.6 L 364.3,74.6 L 364.2,74.5 L 364.2,74.5 L 364.2,74.5 L 364.2,74.4 L 364.2,74.4 L 364.2,74.4 L 364.2,74.3 L 364.2,74.3 L 364.3,74.3 L 364.3,74.2 L 364.3,74.2 L 364.3,74.2 L 364.3,74.1 L 364.4,74.1 L 364.4,74.1 L 364.4,74.1 L 364.4,74.0 L 364.5,74.0 L 364.5,74.0 L 364.5,74.0 L 364.6,74.0 L 364.6,74.0 L 364.7,74.0 L 364.7,74.0 L 364.7,74.0 L 364.8,74.0 L 364.8,74.0 L 364.8,74.0 L 364.9,74.1 L 364.9,74.1 L 364.9,74.1 L 364.9,74.1 L 365.0,74.2 L 365.0,74.2 L 365.0,74.2 L 365.0,74.2 L 365.0,74.3 L 365.1,74.3 L 365.1,74.3 L 365.1,74.4 L 365.1,74.4 L 364.6,74.4 Z" style="fill:#000000;fill-rule:evenodd;fill-opacity:1;stroke:#000000;stroke-width:0.0px;stroke-linecap:butt;stroke-linejoin:miter;stroke-opacity:1;"/>
<path class="atom-0" d="M 365.1,72.3 L 365.1,72.3 L 365.1,72.4 L 365.1,72.4 L 365.0,72.5 L 365.0,72.5 L 365.0,72.5 L 365.0,72.5 L 365.0,72.6 L 364.9,72.6 L 364.9,72.6 L 364.9,72.7 L 364.9,72.7 L 364.8,72.7 L 364.8,72.7 L 364.8,72.7 L 364.7,72.7 L 364.7,72.7 L 364.7,72.7 L 364.6,72.7 L 364.6,72.7 L 364.5,72.7 L 364.5,72.7 L 364.5,72.7 L 364.4,72.7 L 364.4,72.7 L 364.4,72.6 L 364.4,72.6 L 364.3,72.6 L 364.3,72.6 L 364.3,72.5 L 364.3,72.5 L 364.3,72.5 L 364.2,72.4 L 364.2,72.4 L 364.2,72.4 L 364.2,72.3 L 364.2,72.3 L 364.2,72.3 L 364.2,72.2 L 364.2,72.2 L 364.3,72.1 L 364.3,72.1 L 364.3,72.1 L 364.3,72.1 L 364.3,72.0 L 364.4,72.0 L 364.4,72.0 L 364.4,72.0 L 364.4,71.9 L 364.5,71.9 L 364.5,71.9 L 364.5,71.9 L 364.6,71.9 L 364.6,71.9 L 364.7,71.9 L 364.7,71.9 L 364.7,71.9 L 364.8,71.9 L 364.8,71.9 L 364.8,71.9 L 364.9,71.9 L 364.9,72.0 L 364.9,72.0 L 364.9,72.0 L 365.0,72.0 L 365.0,72.1 L 365.0,72.1 L 365.0,72.1 L 365.0,72.2 L 365.1,72.2 L 365.1,72.2 L 365.1,72.3 L 365.1,72.3 L 364.6,72.3 Z" style="fill:#000000;fill-rule:evenodd;fill-opacity:1;stroke:#000000;stroke-width:0.0px;stroke-linecap:butt;stroke-linejoin:miter;stroke-opacity:1;"/>
<path class="atom-1" d="M 397.5,68.1 L 397.5,68.1 L 397.5,68.2 L 397.5,68.2 L 397.5,68.3 L 397.4,68.3 L 397.4,68.3 L 397.4,68.4 L 397.4,68.4 L 397.4,68.4 L 397.3,68.4 L 397.3,68.5 L 397.3,68.5 L 397.2,68.5 L 397.2,68.5 L 397.2,68.5 L 397.1,68.5 L 397.1,68.5 L 397.1,68.5 L 397.0,68.5 L 397.0,68.5 L 397.0,68.5 L 396.9,68.5 L 396.9,68.5 L 396.9,68.5 L 396.8,68.5 L 396.8,68.4 L 396.8,68.4 L 396.7,68.4 L 396.7,68.4 L 396.7,68.3 L 396.7,68.3 L 396.7,68.3 L 396.7,68.2 L 396.7,68.2 L 396.6,68.2 L 396.6,68.1 L 396.6,68.1 L 396.6,68.1 L 396.7,68.0 L 396.7,68.0 L 396.7,68.0 L 396.7,67.9 L 396.7,67.9 L 396.7,67.9 L 396.7,67.8 L 396.8,67.8 L 396.8,67.8 L 396.8,67.8 L 396.9,67.7 L 396.9,67.7 L 396.9,67.7 L 397.0,67.7 L 397.0,67.7 L 397.0,67.7 L 397.1,67.7 L 397.1,67.7 L 397.1,67.7 L 397.2,67.7 L 397.2,67.7 L 397.2,67.7 L 397.3,67.7 L 397.3,67.8 L 397.3,67.8 L 397.4,67.8 L 397.4,67.8 L 397.4,67.9 L 397.4,67.9 L 397.4,67.9 L 397.5,68.0 L 397.5,68.0 L 397.5,68.0 L 397.5,68.1 L 397.5,68.1 L 397.1,68.1 Z" style="fill:#000000;fill-rule:evenodd;fill-opacity:1;stroke:#000000;stroke-width:0.0px;stroke-linecap:butt;stroke-linejoin:miter;stroke-opacity:1;"/>
<path class="atom-37" d="M 399.5,31.2 L 399.5,31.2 L 399.5,31.2 L 399.5,31.3 L 399.4,31.3 L 399.4,31.4 L 399.4,31.4 L 399.4,31.4 L 399.4,31.4 L 399.3,31.5 L 399.3,31.5 L 399.3,31.5 L 399.3,31.5 L 399.2,31.6 L 399.2,31.6 L 399.2,31.6 L 399.1,31.6 L 399.1,31.6 L 399.1,31.6 L 399.0,31.6 L 399.0,31.6 L 398.9,31.6 L 398.9,31.6 L 398.9,31.6 L 398.8,31.5 L 398.8,31.5 L 398.8,31.5 L 398.8,31.5 L 398.7,31.5 L 398.7,31.4 L 398.7,31.4 L 398.7,31.4 L 398.7,31.3 L 398.6,31.3 L 398.6,31.3 L 398.6,31.2 L 398.6,31.2 L 398.6,31.2 L 398.6,31.1 L 398.6,31.1 L 398.6,31.1 L 398.7,31.0 L 398.7,31.0 L 398.7,31.0 L 398.7,30.9 L 398.7,30.9 L 398.8,30.9 L 398.8,30.8 L 398.8,30.8 L 398.8,30.8 L 398.9,30.8 L 398.9,30.8 L 398.9,30.8 L 399.0,30.8 L 399.0,30.8 L 399.1,30.8 L 399.1,30.8 L 399.1,30.8 L 399.2,30.8 L 399.2,30.8 L 399.2,30.8 L 399.3,30.8 L 399.3,30.8 L 399.3,30.9 L 399.3,30.9 L 399.4,30.9 L 399.4,30.9 L 399.4,31.0 L 399.4,31.0 L 399.4,31.0 L 399.5,31.1 L 399.5,31.1 L 399.5,31.1 L 399.5,31.2 L 399.0,31.2 Z" style="fill:#000000;fill-rule:evenodd;fill-opacity:1;stroke:#000000;stroke-width:0.0px;stroke-linecap:butt;stroke-linejoin:miter;stroke-opacity:1;"/>
<path class="atom-37" d="M 399.5,29.5 L 399.5,29.5 L 399.5,29.6 L 399.5,29.6 L 399.4,29.6 L 399.4,29.7 L 399.4,29.7 L 399.4,29.7 L 399.4,29.8 L 399.3,29.8 L 399.3,29.8 L 399.3,29.8 L 399.3,29.9 L 399.2,29.9 L 399.2,29.9 L 399.2,29.9 L 399.1,29.9 L 399.1,29.9 L 399.1,29.9 L 399.0,29.9 L 399.0,29.9 L 398.9,29.9 L 398.9,29.9 L 398.9,29.9 L 398.8,29.9 L 398.8,29.8 L 398.8,29.8 L 398.8,29.8 L 398.7,29.8 L 398.7,29.7 L 398.7,29.7 L 398.7,29.7 L 398.7,29.6 L 398.6,29.6 L 398.6,29.6 L 398.6,29.5 L 398.6,29.5 L 398.6,29.5 L 398.6,29.4 L 398.6,29.4 L 398.6,29.4 L 398.7,29.3 L 398.7,29.3 L 398.7,29.3 L 398.7,29.2 L 398.7,29.2 L 398.8,29.2 L 398.8,29.2 L 398.8,29.1 L 398.8,29.1 L 398.9,29.1 L 398.9,29.1 L 398.9,29.1 L 399.0,29.1 L 399.0,29.1 L 399.1,29.1 L 399.1,29.1 L 399.1,29.1 L 399.2,29.1 L 399.2,29.1 L 399.2,29.1 L 399.3,29.1 L 399.3,29.1 L 399.3,29.2 L 399.3,29.2 L 399.4,29.2 L 399.4,29.2 L 399.4,29.3 L 399.4,29.3 L 399.4,29.3 L 399.5,29.4 L 399.5,29.4 L 399.5,29.5 L 399.5,29.5 L 399.0,29.5 Z" style="fill:#000000;fill-rule:evenodd;fill-opacity:1;stroke:#000000;stroke-width:0.0px;stroke-linecap:butt;stroke-linejoin:miter;stroke-opacity:1;"/>
<path class="bond-0 atom-0 atom-1" d="M 642.9,72.3 L 651.9,70.5" style="fill:none;fill-rule:evenodd;stroke:#000000;stroke-width:2.0px;stroke-linecap:butt;stroke-linejoin:miter;stroke-opacity:1"/>
<path class="bond-0 atom-0 atom-1" d="M 651.9,70.5 L 661.0,68.6" style="fill:none;fill-rule:evenodd;stroke:#CCCC00;stroke-width:2.0px;stroke-linecap:butt;stroke-linejoin:miter;stroke-opacity:1"/>
<path class="bond-1 atom-1 atom-2" d="M 665.6,72.0 L 669.5,79.4" style="fill:none;fill-rule:evenodd;stroke:#CCCC00;stroke-width:2.0px;stroke-linecap:butt;stroke-linejoin:miter;stroke-opacity:1"/>
<path class="bond-1 atom-1 atom-2" d="M 669.5,79.4 L 673.5,86.8" style="fill:none;fill-rule:evenodd;stroke:#000000;stroke-width:2.0px;stroke-linecap:butt;stroke-linejoin:miter;stroke-opacity:1"/>
<path class="bond-2 atom-2 atom-3" d="M 673.5,86.8 L 691.9,97.2" style="fill:none;fill-rule:evenodd;stroke:#000000;stroke-width:2.0px;stroke-linecap:butt;stroke-linejoin:miter;stroke-opacity:1"/>
<path class="bond-3 atom-3 atom-4" d="M 691.9,97.2 L 700.9,96.7" style="fill:none;fill-rule:evenodd;stroke:#000000;stroke-width:2.0px;stroke-linecap:butt;stroke-linejoin:miter;stroke-opacity:1"/>
<path class="bond-3 atom-3 atom-4" d="M 700.9,96.7 L 710.0,96.1" style="fill:none;fill-rule:evenodd;stroke:#0000FF;stroke-width:2.0px;stroke-linecap:butt;stroke-linejoin:miter;stroke-opacity:1"/>
<path class="bond-4 atom-4 atom-5" d="M 715.9,93.8 L 723.0,88.7" style="fill:none;fill-rule:evenodd;stroke:#0000FF;stroke-width:2.0px;stroke-linecap:butt;stroke-linejoin:miter;stroke-opacity:1"/>
<path class="bond-4 atom-4 atom-5" d="M 723.0,88.7 L 730.0,83.6" style="fill:none;fill-rule:evenodd;stroke:#000000;stroke-width:2.0px;stroke-linecap:butt;stroke-linejoin:miter;stroke-opacity:1"/>
<path class="bond-5 atom-5 atom-6" d="M 730.0,83.6 L 737.7,63.9" style="fill:none;fill-rule:evenodd;stroke:#000000;stroke-width:2.0px;stroke-linecap:butt;stroke-linejoin:miter;stroke-opacity:1"/>
<path class="bond-6 atom-6 atom-7" d="M 737.7,63.9 L 736.0,55.4" style="fill:none;fill-rule:evenodd;stroke:#000000;stroke-width:2.0px;stroke-linecap:butt;stroke-linejoin:miter;stroke-opacity:1"/>
<path class="bond-6 atom-6 atom-7" d="M 736.0,55.4 L 734.2,46.8" style="fill:none;fill-rule:evenodd;stroke:#0000FF;stroke-width:2.0px;stroke-linecap:butt;stroke-linejoin:miter;stroke-opacity:1"/>
<path class="bond-7 atom-7 atom-8" d="M 736.5,41.6 L 744.3,37.4" style="fill:none;fill-rule:evenodd;stroke:#0000FF;stroke-width:2.0px;stroke-linecap:butt;stroke-linejoin:miter;stroke-opacity:1"/>
<path class="bond-7 atom-7 atom-8" d="M 744.3,37.4 L 752.2,33.3" style="fill:none;fill-rule:evenodd;stroke:#000000;stroke-width:2.0px;stroke-linecap:butt;stroke-linejoin:miter;stroke-opacity:1"/>
<path class="bond-8 atom-8 atom-9" d="M 750.1,33.2 L 750.4,24.6" style="fill:none;fill-rule:evenodd;stroke:#000000;stroke-width:2.0px;stroke-linecap:butt;stroke-linejoin:miter;stroke-opacity:1"/>
<path class="bond-8 atom-8 atom-9" d="M 750.4,24.6 L 750.7,15.9" style="fill:none;fill-rule:evenodd;stroke:#FF0000;stroke-width:2.0px;stroke-linecap:butt;stroke-linejoin:miter;stroke-opacity:1"/>
<path class="bond-8 atom-8 atom-9" d="M 754.3,33.4 L 754.6,24.7" style="fill:none;fill-rule:evenodd;stroke:#000000;stroke-width:2.0px;stroke-linecap:butt;stroke-linejoin:miter;stroke-opacity:1"/>
<path class="bond-8 atom-8 atom-9" d="M 754.6,24.7 L 754.9,16.1" style="fill:none;fill-rule:evenodd;stroke:#FF0000;stroke-width:2.0px;stroke-linecap:butt;stroke-linejoin:miter;stroke-opacity:1"/>
<path class="bond-9 atom-8 atom-10" d="M 752.2,33.3 L 770.1,44.5" style="fill:none;fill-rule:evenodd;stroke:#000000;stroke-width:2.0px;stroke-linecap:butt;stroke-linejoin:miter;stroke-opacity:1"/>
<path class="bond-10 atom-10 atom-11" d="M 770.1,44.5 L 771.5,65.6" style="fill:none;fill-rule:evenodd;stroke:#000000;stroke-width:2.0px;stroke-linecap:butt;stroke-linejoin:miter;stroke-opacity:1"/>
<path class="bond-10 atom-10 atom-11" d="M 774.5,47.4 L 775.5,62.2" style="fill:none;fill-rule:evenodd;stroke:#000000;stroke-width:2.0px;stroke-linecap:butt;stroke-linejoin:miter;stroke-opacity:1"/>
<path class="bond-11 atom-11 atom-12" d="M 771.5,65.6 L 755.2,79.2" style="fill:none;fill-rule:evenodd;stroke:#000000;stroke-width:2.0px;stroke-linecap:butt;stroke-linejoin:miter;stroke-opacity:1"/>
<path class="bond-12 atom-12 atom-13" d="M 755.2,79.2 L 758.8,100.0" style="fill:none;fill-rule:evenodd;stroke:#000000;stroke-width:2.0px;stroke-linecap:butt;stroke-linejoin:miter;stroke-opacity:1"/>
<path class="bond-13 atom-13 atom-14" d="M 758.8,100.0 L 778.7,107.3" style="fill:none;fill-rule:evenodd;stroke:#000000;stroke-width:2.0px;stroke-linecap:butt;stroke-linejoin:miter;stroke-opacity:1"/>
<path class="bond-13 atom-13 atom-14" d="M 760.4,105.0 L 774.2,110.1" style="fill:none;fill-rule:evenodd;stroke:#000000;stroke-width:2.0px;stroke-linecap:butt;stroke-linejoin:miter;stroke-opacity:1"/>
<path class="bond-14 atom-14 atom-15" d="M 778.7,107.3 L 782.3,128.1" style="fill:none;fill-rule:evenodd;stroke:#000000;stroke-width:2.0px;stroke-linecap:butt;stroke-linejoin:miter;stroke-opacity:1"/>
<path class="bond-15 atom-15 atom-16" d="M 782.3,128.1 L 766.1,141.6" style="fill:none;fill-rule:evenodd;stroke:#000000;stroke-width:2.0px;stroke-linecap:butt;stroke-linejoin:miter;stroke-opacity:1"/>
<path class="bond-15 atom-15 atom-16" d="M 777.1,126.9 L 765.8,136.3" style="fill:none;fill-rule:evenodd;stroke:#000000;stroke-width:2.0px;stroke-linecap:butt;stroke-linejoin:miter;stroke-opacity:1"/>
<path class="bond-16 atom-16 atom-17" d="M 766.1,141.6 L 746.2,134.3" style="fill:none;fill-rule:evenodd;stroke:#000000;stroke-width:2.0px;stroke-linecap:butt;stroke-linejoin:miter;stroke-opacity:1"/>
<path class="bond-17 atom-17 atom-18" d="M 746.2,134.3 L 739.4,140.0" style="fill:none;fill-rule:evenodd;stroke:#000000;stroke-width:2.0px;stroke-linecap:butt;stroke-linejoin:miter;stroke-opacity:1"/>
<path class="bond-17 atom-17 atom-18" d="M 739.4,140.0 L 732.5,145.8" style="fill:none;fill-rule:evenodd;stroke:#33CCCC;stroke-width:2.0px;stroke-linecap:butt;stroke-linejoin:miter;stroke-opacity:1"/>
<path class="bond-18 atom-17 atom-19" d="M 746.2,134.3 L 742.6,113.5" style="fill:none;fill-rule:evenodd;stroke:#000000;stroke-width:2.0px;stroke-linecap:butt;stroke-linejoin:miter;stroke-opacity:1"/>
<path class="bond-18 atom-17 atom-19" d="M 749.9,130.5 L 747.3,115.9" style="fill:none;fill-rule:evenodd;stroke:#000000;stroke-width:2.0px;stroke-linecap:butt;stroke-linejoin:miter;stroke-opacity:1"/>
<path class="bond-19 atom-19 atom-20" d="M 742.6,113.5 L 722.8,106.2" style="fill:none;fill-rule:evenodd;stroke:#000000;stroke-width:2.0px;stroke-linecap:butt;stroke-linejoin:miter;stroke-opacity:1"/>
<path class="bond-20 atom-11 atom-21" d="M 771.5,65.6 L 780.2,67.8" style="fill:none;fill-rule:evenodd;stroke:#000000;stroke-width:2.0px;stroke-linecap:butt;stroke-linejoin:miter;stroke-opacity:1"/>
<path class="bond-20 atom-11 atom-21" d="M 780.2,67.8 L 789.0,70.0" style="fill:none;fill-rule:evenodd;stroke:#0000FF;stroke-width:2.0px;stroke-linecap:butt;stroke-linejoin:miter;stroke-opacity:1"/>
<path class="bond-21 atom-21 atom-22" d="M 793.4,74.5 L 796.6,82.4" style="fill:none;fill-rule:evenodd;stroke:#0000FF;stroke-width:2.0px;stroke-linecap:butt;stroke-linejoin:miter;stroke-opacity:1"/>
<path class="bond-21 atom-21 atom-22" d="M 796.6,82.4 L 799.8,90.4" style="fill:none;fill-rule:evenodd;stroke:#000000;stroke-width:2.0px;stroke-linecap:butt;stroke-linejoin:miter;stroke-opacity:1"/>
<path class="bond-22 atom-22 atom-23" d="M 799.8,90.4 L 786.7,107.0" style="fill:none;fill-rule:evenodd;stroke:#000000;stroke-width:2.0px;stroke-linecap:butt;stroke-linejoin:miter;stroke-opacity:1"/>
<path class="bond-22 atom-22 atom-23" d="M 801.2,95.5 L 792.0,107.1" style="fill:none;fill-rule:evenodd;stroke:#000000;stroke-width:2.0px;stroke-linecap:butt;stroke-linejoin:miter;stroke-opacity:1"/>
<path class="bond-23 atom-23 atom-24" d="M 786.7,107.0 L 794.6,126.6" style="fill:none;fill-rule:evenodd;stroke:#000000;stroke-width:2.0px;stroke-linecap:butt;stroke-linejoin:miter;stroke-opacity:1"/>
<path class="bond-24 atom-24 atom-25" d="M 794.6,126.6 L 815.5,129.6" style="fill:none;fill-rule:evenodd;stroke:#000000;stroke-width:2.0px;stroke-linecap:butt;stroke-linejoin:miter;stroke-opacity:1"/>
<path class="bond-24 atom-24 atom-25" d="M 798.3,122.9 L 813.0,125.0" style="fill:none;fill-rule:evenodd;stroke:#000000;stroke-width:2.0px;stroke-linecap:butt;stroke-linejoin:miter;stroke-opacity:1"/>
<path class="bond-25 atom-25 atom-26" d="M 815.5,129.6 L 828.6,113.0" style="fill:none;fill-rule:evenodd;stroke:#000000;stroke-width:2.0px;stroke-linecap:butt;stroke-linejoin:miter;stroke-opacity:1"/>
<path class="bond-26 atom-26 atom-27" d="M 828.6,113.0 L 820.7,93.4" style="fill:none;fill-rule:evenodd;stroke:#000000;stroke-width:2.0px;stroke-linecap:butt;stroke-linejoin:miter;stroke-opacity:1"/>
<path class="bond-26 atom-26 atom-27" d="M 823.5,111.7 L 818.0,97.9" style="fill:none;fill-rule:evenodd;stroke:#000000;stroke-width:2.0px;stroke-linecap:butt;stroke-linejoin:miter;stroke-opacity:1"/>
<path class="bond-27 atom-21 atom-28" d="M 794.3,67.1 L 798.7,60.0" style="fill:none;fill-rule:evenodd;stroke:#0000FF;stroke-width:2.0px;stroke-linecap:butt;stroke-linejoin:miter;stroke-opacity:1"/>
<path class="bond-27 atom-21 atom-28" d="M 798.7,60.0 L 803.2,52.9" style="fill:none;fill-rule:evenodd;stroke:#000000;stroke-width:2.0px;stroke-linecap:butt;stroke-linejoin:miter;stroke-opacity:1"/>
<path class="bond-28 atom-28 atom-29" d="M 803.2,52.9 L 824.0,49.3" style="fill:none;fill-rule:evenodd;stroke:#000000;stroke-width:2.0px;stroke-linecap:butt;stroke-linejoin:miter;stroke-opacity:1"/>
<path class="bond-28 atom-28 atom-29" d="M 805.6,48.2 L 820.2,45.7" style="fill:none;fill-rule:evenodd;stroke:#000000;stroke-width:2.0px;stroke-linecap:butt;stroke-linejoin:miter;stroke-opacity:1"/>
<path class="bond-29 atom-29 atom-30" d="M 824.0,49.3 L 831.3,29.5" style="fill:none;fill-rule:evenodd;stroke:#000000;stroke-width:2.0px;stroke-linecap:butt;stroke-linejoin:miter;stroke-opacity:1"/>
<path class="bond-30 atom-30 atom-31" d="M 831.3,29.5 L 840.0,28.0" style="fill:none;fill-rule:evenodd;stroke:#000000;stroke-width:2.0px;stroke-linecap:butt;stroke-linejoin:miter;stroke-opacity:1"/>
<path class="bond-30 atom-30 atom-31" d="M 840.0,28.0 L 848.7,26.5" style="fill:none;fill-rule:evenodd;stroke:#FF0000;stroke-width:2.0px;stroke-linecap:butt;stroke-linejoin:miter;stroke-opacity:1"/>
<path class="bond-31 atom-30 atom-32" d="M 831.3,29.5 L 817.8,13.3" style="fill:none;fill-rule:evenodd;stroke:#000000;stroke-width:2.0px;stroke-linecap:butt;stroke-linejoin:miter;stroke-opacity:1"/>
<path class="bond-31 atom-30 atom-32" d="M 826.0,29.8 L 816.6,18.4" style="fill:none;fill-rule:evenodd;stroke:#000000;stroke-width:2.0px;stroke-linecap:butt;stroke-linejoin:miter;stroke-opacity:1"/>
<path class="bond-32 atom-32 atom-33" d="M 817.8,13.3 L 797.0,16.9" style="fill:none;fill-rule:evenodd;stroke:#000000;stroke-width:2.0px;stroke-linecap:butt;stroke-linejoin:miter;stroke-opacity:1"/>
<path class="bond-33 atom-33 atom-34" d="M 797.0,16.9 L 789.7,36.7" style="fill:none;fill-rule:evenodd;stroke:#000000;stroke-width:2.0px;stroke-linecap:butt;stroke-linejoin:miter;stroke-opacity:1"/>
<path class="bond-33 atom-33 atom-34" d="M 799.8,21.3 L 794.7,35.2" style="fill:none;fill-rule:evenodd;stroke:#000000;stroke-width:2.0px;stroke-linecap:butt;stroke-linejoin:miter;stroke-opacity:1"/>
<path class="bond-34 atom-7 atom-35" d="M 730.5,40.1 L 724.6,34.1" style="fill:none;fill-rule:evenodd;stroke:#0000FF;stroke-width:2.0px;stroke-linecap:butt;stroke-linejoin:miter;stroke-opacity:1"/>
<path class="bond-34 atom-7 atom-35" d="M 724.6,34.1 L 718.8,28.0" style="fill:none;fill-rule:evenodd;stroke:#000000;stroke-width:2.0px;stroke-linecap:butt;stroke-linejoin:miter;stroke-opacity:1"/>
<path class="bond-35 atom-35 atom-36" d="M 718.8,28.0 L 698.2,23.2" style="fill:none;fill-rule:evenodd;stroke:#000000;stroke-width:2.0px;stroke-linecap:butt;stroke-linejoin:miter;stroke-opacity:1"/>
<path class="bond-36 atom-36 atom-37" d="M 698.2,23.2 L 691.4,25.7" style="fill:none;fill-rule:evenodd;stroke:#000000;stroke-width:2.0px;stroke-linecap:butt;stroke-linejoin:miter;stroke-opacity:1"/>
<path class="bond-36 atom-36 atom-37" d="M 691.4,25.7 L 684.6,28.1" style="fill:none;fill-rule:evenodd;stroke:#0000FF;stroke-width:2.0px;stroke-linecap:butt;stroke-linejoin:miter;stroke-opacity:1"/>
<path class="bond-37 atom-37 atom-38" d="M 675.5,34.0 L 669.0,42.4" style="fill:none;fill-rule:evenodd;stroke:#0000FF;stroke-width:2.0px;stroke-linecap:butt;stroke-linejoin:miter;stroke-opacity:1"/>
<path class="bond-38 atom-38 atom-1" d="M 665.1,50.8 L 664.5,57.6" style="fill:none;fill-rule:evenodd;stroke:#0000FF;stroke-width:2.0px;stroke-linecap:butt;stroke-linejoin:miter;stroke-opacity:1"/>
<path class="bond-38 atom-38 atom-1" d="M 664.5,57.6 L 663.9,64.4" style="fill:none;fill-rule:evenodd;stroke:#CCCC00;stroke-width:2.0px;stroke-linecap:butt;stroke-linejoin:miter;stroke-opacity:1"/>
<path class="bond-39 atom-34 atom-10" d="M 789.7,36.7 L 770.1,44.5" style="fill:none;fill-rule:evenodd;stroke:#000000;stroke-width:2.0px;stroke-linecap:butt;stroke-linejoin:miter;stroke-opacity:1"/>
<path class="bond-40 atom-19 atom-13" d="M 742.6,113.5 L 758.8,100.0" style="fill:none;fill-rule:evenodd;stroke:#000000;stroke-width:2.0px;stroke-linecap:butt;stroke-linejoin:miter;stroke-opacity:1"/>
<path class="bond-41 atom-27 atom-22" d="M 820.7,93.4 L 799.8,90.4" style="fill:none;fill-rule:evenodd;stroke:#000000;stroke-width:2.0px;stroke-linecap:butt;stroke-linejoin:miter;stroke-opacity:1"/>
<path class="bond-42 atom-34 atom-28" d="M 789.7,36.7 L 803.2,52.9" style="fill:none;fill-rule:evenodd;stroke:#000000;stroke-width:2.0px;stroke-linecap:butt;stroke-linejoin:miter;stroke-opacity:1"/>
<path class="atom-1" d="M 661.9 70.2 Q 662.0 70.2, 662.2 70.3 Q 662.5 70.4, 662.8 70.5 Q 663.1 70.6, 663.4 70.6 Q 664.0 70.6, 664.3 70.3 Q 664.7 70.0, 664.7 69.5 Q 664.7 69.2, 664.5 69.0 Q 664.3 68.8, 664.1 68.7 Q 663.8 68.6, 663.4 68.5 Q 662.9 68.3, 662.6 68.1 Q 662.2 68.0, 662.0 67.7 Q 661.8 67.4, 661.8 66.8 Q 661.8 66.1, 662.3 65.6 Q 662.8 65.1, 663.8 65.1 Q 664.5 65.1, 665.3 65.5 L 665.1 66.1 Q 664.4 65.8, 663.9 65.8 Q 663.3 65.8, 663.0 66.1 Q 662.6 66.3, 662.6 66.7 Q 662.6 67.0, 662.8 67.2 Q 663.0 67.4, 663.2 67.5 Q 663.5 67.6, 663.9 67.8 Q 664.4 67.9, 664.7 68.1 Q 665.0 68.3, 665.3 68.6 Q 665.5 69.0, 665.5 69.5 Q 665.5 70.4, 665.0 70.8 Q 664.4 71.3, 663.5 71.3 Q 663.0 71.3, 662.5 71.1 Q 662.1 71.0, 661.7 70.8 L 661.9 70.2 " fill="#CCCC00"/>
<path class="atom-1" d="M 665.9 64.8 Q 666.1 64.5, 666.4 64.2 Q 666.8 64.0, 667.2 64.0 Q 667.8 64.0, 668.2 64.4 Q 668.5 64.7, 668.5 65.3 Q 668.5 65.8, 668.1 66.4 Q 667.6 66.9, 666.7 67.6 L 668.6 67.6 L 668.6 68.0 L 665.9 68.0 L 665.9 67.7 Q 666.6 67.1, 667.1 66.7 Q 667.5 66.4, 667.7 66.0 Q 667.9 65.6, 667.9 65.3 Q 667.9 64.9, 667.8 64.7 Q 667.6 64.5, 667.2 64.5 Q 666.9 64.5, 666.7 64.6 Q 666.5 64.7, 666.3 65.0 L 665.9 64.8 " fill="#CCCC00"/>
<path class="atom-1" d="M 668.9 66.1 L 670.0 66.1 L 670.0 65.0 L 670.4 65.0 L 670.4 66.1 L 671.5 66.1 L 671.5 66.5 L 670.4 66.5 L 670.4 67.6 L 670.0 67.6 L 670.0 66.5 L 668.9 66.5 L 668.9 66.1 " fill="#CCCC00"/>
<path class="atom-4" d="M 711.6 93.0 L 713.6 96.1 Q 713.8 96.5, 714.1 97.0 Q 714.4 97.6, 714.4 97.6 L 714.4 93.0 L 715.2 93.0 L 715.2 99.0 L 714.4 99.0 L 712.3 95.5 Q 712.0 95.1, 711.8 94.6 Q 711.5 94.2, 711.4 94.0 L 711.4 99.0 L 710.7 99.0 L 710.7 93.0 L 711.6 93.0 " fill="#0000FF"/>
<path class="atom-4" d="M 710.6 99.6 L 711.4 99.6 L 711.4 102.1 L 714.5 102.1 L 714.5 99.6 L 715.3 99.6 L 715.3 105.5 L 714.5 105.5 L 714.5 102.8 L 711.4 102.8 L 711.4 105.5 L 710.6 105.5 L 710.6 99.6 " fill="#0000FF"/>
<path class="atom-7" d="M 732.2 40.2 L 734.1 43.3 Q 734.3 43.6, 734.6 44.2 Q 735.0 44.8, 735.0 44.8 L 735.0 40.2 L 735.8 40.2 L 735.8 46.2 L 734.9 46.2 L 732.8 42.7 Q 732.6 42.3, 732.3 41.8 Q 732.1 41.4, 732.0 41.2 L 732.0 46.2 L 731.2 46.2 L 731.2 40.2 L 732.2 40.2 " fill="#0000FF"/>
<path class="atom-9" d="M 750.2 12.2 Q 750.2 10.8, 750.9 10.0 Q 751.6 9.2, 753.0 9.2 Q 754.3 9.2, 755.0 10.0 Q 755.7 10.8, 755.7 12.2 Q 755.7 13.7, 755.0 14.5 Q 754.3 15.3, 753.0 15.3 Q 751.7 15.3, 750.9 14.5 Q 750.2 13.7, 750.2 12.2 M 753.0 14.6 Q 753.9 14.6, 754.4 14.0 Q 754.9 13.4, 754.9 12.2 Q 754.9 11.0, 754.4 10.4 Q 753.9 9.8, 753.0 9.8 Q 752.1 9.8, 751.6 10.4 Q 751.1 11.0, 751.1 12.2 Q 751.1 13.4, 751.6 14.0 Q 752.1 14.6, 753.0 14.6 " fill="#FF0000"/>
<path class="atom-18" d="M 728.2 144.9 L 731.8 144.9 L 731.8 145.5 L 729.0 145.5 L 729.0 147.4 L 731.5 147.4 L 731.5 148.0 L 729.0 148.0 L 729.0 150.8 L 728.2 150.8 L 728.2 144.9 " fill="#33CCCC"/>
<path class="atom-21" d="M 790.6 67.8 L 792.6 71.0 Q 792.8 71.3, 793.1 71.9 Q 793.4 72.4, 793.4 72.5 L 793.4 67.8 L 794.2 67.8 L 794.2 73.8 L 793.4 73.8 L 791.3 70.3 Q 791.0 69.9, 790.8 69.5 Q 790.5 69.0, 790.5 68.8 L 790.5 73.8 L 789.7 73.8 L 789.7 67.8 L 790.6 67.8 " fill="#0000FF"/>
<path class="atom-31" d="M 849.4 25.9 Q 849.4 24.5, 850.1 23.7 Q 850.8 22.9, 852.1 22.9 Q 853.4 22.9, 854.1 23.7 Q 854.9 24.5, 854.9 25.9 Q 854.9 27.3, 854.1 28.2 Q 853.4 29.0, 852.1 29.0 Q 850.8 29.0, 850.1 28.2 Q 849.4 27.4, 849.4 25.9 M 852.1 28.3 Q 853.0 28.3, 853.5 27.7 Q 854.0 27.1, 854.0 25.9 Q 854.0 24.7, 853.5 24.1 Q 853.0 23.5, 852.1 23.5 Q 851.2 23.5, 850.7 24.1 Q 850.2 24.7, 850.2 25.9 Q 850.2 27.1, 850.7 27.7 Q 851.2 28.3, 852.1 28.3 " fill="#FF0000"/>
<path class="atom-31" d="M 855.3 22.9 L 856.1 22.9 L 856.1 25.5 L 859.2 25.5 L 859.2 22.9 L 860.0 22.9 L 860.0 28.9 L 859.2 28.9 L 859.2 26.1 L 856.1 26.1 L 856.1 28.9 L 855.3 28.9 L 855.3 22.9 " fill="#FF0000"/>
<path class="atom-37" d="M 677.0 27.3 L 678.9 30.5 Q 679.1 30.8, 679.4 31.4 Q 679.8 32.0, 679.8 32.0 L 679.8 27.3 L 680.6 27.3 L 680.6 33.3 L 679.7 33.3 L 677.6 29.9 Q 677.4 29.5, 677.1 29.0 Q 676.9 28.5, 676.8 28.4 L 676.8 33.3 L 676.0 33.3 L 676.0 27.3 L 677.0 27.3 " fill="#0000FF"/>
<path class="atom-37" d="M 681.3 28.4 L 682.3 28.4 L 682.3 27.3 L 682.8 27.3 L 682.8 28.4 L 683.9 28.4 L 683.9 28.8 L 682.8 28.8 L 682.8 29.9 L 682.3 29.9 L 682.3 28.8 L 681.3 28.8 L 681.3 28.4 " fill="#0000FF"/>
<path class="atom-38" d="M 664.1 44.1 L 666.0 47.2 Q 666.2 47.6, 666.5 48.1 Q 666.9 48.7, 666.9 48.7 L 666.9 44.1 L 667.7 44.1 L 667.7 50.1 L 666.8 50.1 L 664.7 46.6 Q 664.5 46.2, 664.2 45.7 Q 664.0 45.3, 663.9 45.1 L 663.9 50.1 L 663.1 50.1 L 663.1 44.1 L 664.1 44.1 " fill="#0000FF"/>
<path class="atom-38" d="M 670.9 45.7 L 671.4 45.7 L 671.4 46.2 L 670.9 46.2 L 670.9 47.1 L 670.4 47.1 L 670.4 46.2 L 668.4 46.2 L 668.4 45.8 L 670.1 43.1 L 670.9 43.1 L 670.9 45.7 M 669.0 45.7 L 670.4 45.7 L 670.4 43.5 L 669.0 45.7 " fill="#0000FF"/>
<path class="atom-38" d="M 673.1 47.1 Q 672.4 47.1, 672.0 46.6 Q 671.7 46.0, 671.7 45.1 Q 671.7 44.1, 672.0 43.6 Q 672.4 43.1, 673.1 43.1 Q 673.9 43.1, 674.2 43.6 Q 674.6 44.1, 674.6 45.1 Q 674.6 46.0, 674.2 46.6 Q 673.9 47.1, 673.1 47.1 M 673.1 46.7 Q 673.6 46.7, 673.8 46.3 Q 674.0 45.9, 674.0 45.1 Q 674.0 44.3, 673.8 43.9 Q 673.6 43.5, 673.1 43.5 Q 672.7 43.5, 672.5 43.9 Q 672.2 44.3, 672.2 45.1 Q 672.2 45.9, 672.5 46.3 Q 672.7 46.7, 673.1 46.7 " fill="#0000FF"/>
<path class="atom-38" d="M 674.9 45.2 L 676.0 45.2 L 676.0 44.0 L 676.5 44.0 L 676.5 45.2 L 677.5 45.2 L 677.5 45.6 L 676.5 45.6 L 676.5 46.7 L 676.0 46.7 L 676.0 45.6 L 674.9 45.6 L 674.9 45.2 " fill="#0000FF"/>
<path class="atom-0" d="M 640.8,70.2 L 640.8,70.2 L 640.8,70.3 L 640.8,70.3 L 640.8,70.3 L 640.7,70.4 L 640.7,70.4 L 640.7,70.4 L 640.7,70.5 L 640.7,70.5 L 640.6,70.5 L 640.6,70.5 L 640.6,70.6 L 640.5,70.6 L 640.5,70.6 L 640.5,70.6 L 640.4,70.6 L 640.4,70.6 L 640.4,70.6 L 640.3,70.6 L 640.3,70.6 L 640.3,70.6 L 640.2,70.6 L 640.2,70.6 L 640.2,70.6 L 640.1,70.5 L 640.1,70.5 L 640.1,70.5 L 640.0,70.5 L 640.0,70.5 L 640.0,70.4 L 640.0,70.4 L 640.0,70.4 L 640.0,70.3 L 639.9,70.3 L 639.9,70.3 L 639.9,70.2 L 639.9,70.2 L 639.9,70.1 L 639.9,70.1 L 640.0,70.1 L 640.0,70.0 L 640.0,70.0 L 640.0,70.0 L 640.0,69.9 L 640.0,69.9 L 640.1,69.9 L 640.1,69.9 L 640.1,69.8 L 640.2,69.8 L 640.2,69.8 L 640.2,69.8 L 640.3,69.8 L 640.3,69.8 L 640.3,69.8 L 640.4,69.8 L 640.4,69.8 L 640.4,69.8 L 640.5,69.8 L 640.5,69.8 L 640.5,69.8 L 640.6,69.8 L 640.6,69.9 L 640.6,69.9 L 640.7,69.9 L 640.7,69.9 L 640.7,70.0 L 640.7,70.0 L 640.7,70.0 L 640.8,70.1 L 640.8,70.1 L 640.8,70.1 L 640.8,70.2 L 640.8,70.2 L 640.4,70.2 Z" style="fill:#000000;fill-rule:evenodd;fill-opacity:1;stroke:#000000;stroke-width:0.0px;stroke-linecap:butt;stroke-linejoin:miter;stroke-opacity:1;"/>
<path class="atom-0" d="M 640.8,74.4 L 640.8,74.5 L 640.8,74.5 L 640.8,74.5 L 640.8,74.6 L 640.7,74.6 L 640.7,74.6 L 640.7,74.7 L 640.7,74.7 L 640.7,74.7 L 640.6,74.7 L 640.6,74.8 L 640.6,74.8 L 640.5,74.8 L 640.5,74.8 L 640.5,74.8 L 640.4,74.8 L 640.4,74.8 L 640.4,74.8 L 640.3,74.8 L 640.3,74.8 L 640.3,74.8 L 640.2,74.8 L 640.2,74.8 L 640.2,74.8 L 640.1,74.8 L 640.1,74.8 L 640.1,74.7 L 640.0,74.7 L 640.0,74.7 L 640.0,74.6 L 640.0,74.6 L 640.0,74.6 L 640.0,74.5 L 639.9,74.5 L 639.9,74.5 L 639.9,74.4 L 639.9,74.4 L 639.9,74.4 L 639.9,74.3 L 640.0,74.3 L 640.0,74.3 L 640.0,74.2 L 640.0,74.2 L 640.0,74.2 L 640.0,74.1 L 640.1,74.1 L 640.1,74.1 L 640.1,74.1 L 640.2,74.0 L 640.2,74.0 L 640.2,74.0 L 640.3,74.0 L 640.3,74.0 L 640.3,74.0 L 640.4,74.0 L 640.4,74.0 L 640.4,74.0 L 640.5,74.0 L 640.5,74.0 L 640.5,74.0 L 640.6,74.1 L 640.6,74.1 L 640.6,74.1 L 640.7,74.1 L 640.7,74.2 L 640.7,74.2 L 640.7,74.2 L 640.7,74.2 L 640.8,74.3 L 640.8,74.3 L 640.8,74.3 L 640.8,74.4 L 640.8,74.4 L 640.4,74.4 Z" style="fill:#000000;fill-rule:evenodd;fill-opacity:1;stroke:#000000;stroke-width:0.0px;stroke-linecap:butt;stroke-linejoin:miter;stroke-opacity:1;"/>
<path class="atom-0" d="M 640.8,72.3 L 640.8,72.3 L 640.8,72.4 L 640.8,72.4 L 640.8,72.5 L 640.7,72.5 L 640.7,72.5 L 640.7,72.5 L 640.7,72.6 L 640.7,72.6 L 640.6,72.6 L 640.6,72.7 L 640.6,72.7 L 640.5,72.7 L 640.5,72.7 L 640.5,72.7 L 640.4,72.7 L 640.4,72.7 L 640.4,72.7 L 640.3,72.7 L 640.3,72.7 L 640.3,72.7 L 640.2,72.7 L 640.2,72.7 L 640.2,72.7 L 640.1,72.7 L 640.1,72.6 L 640.1,72.6 L 640.0,72.6 L 640.0,72.6 L 640.0,72.5 L 640.0,72.5 L 640.0,72.5 L 640.0,72.4 L 639.9,72.4 L 639.9,72.4 L 639.9,72.3 L 639.9,72.3 L 639.9,72.3 L 639.9,72.2 L 640.0,72.2 L 640.0,72.1 L 640.0,72.1 L 640.0,72.1 L 640.0,72.1 L 640.0,72.0 L 640.1,72.0 L 640.1,72.0 L 640.1,72.0 L 640.2,71.9 L 640.2,71.9 L 640.2,71.9 L 640.3,71.9 L 640.3,71.9 L 640.3,71.9 L 640.4,71.9 L 640.4,71.9 L 640.4,71.9 L 640.5,71.9 L 640.5,71.9 L 640.5,71.9 L 640.6,71.9 L 640.6,72.0 L 640.6,72.0 L 640.7,72.0 L 640.7,72.0 L 640.7,72.1 L 640.7,72.1 L 640.7,72.1 L 640.8,72.2 L 640.8,72.2 L 640.8,72.2 L 640.8,72.3 L 640.8,72.3 L 640.4,72.3 Z" style="fill:#000000;fill-rule:evenodd;fill-opacity:1;stroke:#000000;stroke-width:0.0px;stroke-linecap:butt;stroke-linejoin:miter;stroke-opacity:1;"/>
<path class="atom-1" d="M 673.2,68.1 L 673.2,68.1 L 673.2,68.2 L 673.2,68.2 L 673.2,68.3 L 673.2,68.3 L 673.1,68.3 L 673.1,68.4 L 673.1,68.4 L 673.1,68.4 L 673.1,68.4 L 673.0,68.5 L 673.0,68.5 L 673.0,68.5 L 672.9,68.5 L 672.9,68.5 L 672.9,68.5 L 672.8,68.5 L 672.8,68.5 L 672.7,68.5 L 672.7,68.5 L 672.7,68.5 L 672.6,68.5 L 672.6,68.5 L 672.6,68.5 L 672.5,68.5 L 672.5,68.4 L 672.5,68.4 L 672.5,68.4 L 672.4,68.4 L 672.4,68.3 L 672.4,68.3 L 672.4,68.3 L 672.4,68.2 L 672.4,68.2 L 672.4,68.2 L 672.4,68.1 L 672.4,68.1 L 672.4,68.1 L 672.4,68.0 L 672.4,68.0 L 672.4,68.0 L 672.4,67.9 L 672.4,67.9 L 672.4,67.9 L 672.5,67.8 L 672.5,67.8 L 672.5,67.8 L 672.5,67.8 L 672.6,67.7 L 672.6,67.7 L 672.6,67.7 L 672.7,67.7 L 672.7,67.7 L 672.7,67.7 L 672.8,67.7 L 672.8,67.7 L 672.9,67.7 L 672.9,67.7 L 672.9,67.7 L 673.0,67.7 L 673.0,67.7 L 673.0,67.8 L 673.1,67.8 L 673.1,67.8 L 673.1,67.8 L 673.1,67.9 L 673.1,67.9 L 673.2,67.9 L 673.2,68.0 L 673.2,68.0 L 673.2,68.0 L 673.2,68.1 L 673.2,68.1 L 672.8,68.1 Z" style="fill:#000000;fill-rule:evenodd;fill-opacity:1;stroke:#000000;stroke-width:0.0px;stroke-linecap:butt;stroke-linejoin:miter;stroke-opacity:1;"/>
<path class="atom-37" d="M 675.2,31.2 L 675.2,31.2 L 675.2,31.2 L 675.2,31.3 L 675.2,31.3 L 675.1,31.4 L 675.1,31.4 L 675.1,31.4 L 675.1,31.4 L 675.1,31.5 L 675.0,31.5 L 675.0,31.5 L 675.0,31.5 L 674.9,31.6 L 674.9,31.6 L 674.9,31.6 L 674.8,31.6 L 674.8,31.6 L 674.8,31.6 L 674.7,31.6 L 674.7,31.6 L 674.7,31.6 L 674.6,31.6 L 674.6,31.6 L 674.6,31.5 L 674.5,31.5 L 674.5,31.5 L 674.5,31.5 L 674.4,31.5 L 674.4,31.4 L 674.4,31.4 L 674.4,31.4 L 674.4,31.3 L 674.4,31.3 L 674.3,31.3 L 674.3,31.2 L 674.3,31.2 L 674.3,31.2 L 674.3,31.1 L 674.3,31.1 L 674.4,31.1 L 674.4,31.0 L 674.4,31.0 L 674.4,31.0 L 674.4,30.9 L 674.4,30.9 L 674.5,30.9 L 674.5,30.8 L 674.5,30.8 L 674.6,30.8 L 674.6,30.8 L 674.6,30.8 L 674.7,30.8 L 674.7,30.8 L 674.7,30.8 L 674.8,30.8 L 674.8,30.8 L 674.8,30.8 L 674.9,30.8 L 674.9,30.8 L 674.9,30.8 L 675.0,30.8 L 675.0,30.8 L 675.0,30.9 L 675.1,30.9 L 675.1,30.9 L 675.1,30.9 L 675.1,31.0 L 675.1,31.0 L 675.2,31.0 L 675.2,31.1 L 675.2,31.1 L 675.2,31.1 L 675.2,31.2 L 674.8,31.2 Z" style="fill:#000000;fill-rule:evenodd;fill-opacity:1;stroke:#000000;stroke-width:0.0px;stroke-linecap:butt;stroke-linejoin:miter;stroke-opacity:1;"/>
<path class="atom-37" d="M 675.2,29.5 L 675.2,29.5 L 675.2,29.6 L 675.2,29.6 L 675.2,29.6 L 675.1,29.7 L 675.1,29.7 L 675.1,29.7 L 675.1,29.8 L 675.1,29.8 L 675.0,29.8 L 675.0,29.8 L 675.0,29.9 L 674.9,29.9 L 674.9,29.9 L 674.9,29.9 L 674.8,29.9 L 674.8,29.9 L 674.8,29.9 L 674.7,29.9 L 674.7,29.9 L 674.7,29.9 L 674.6,29.9 L 674.6,29.9 L 674.6,29.9 L 674.5,29.8 L 674.5,29.8 L 674.5,29.8 L 674.4,29.8 L 674.4,29.7 L 674.4,29.7 L 674.4,29.7 L 674.4,29.6 L 674.4,29.6 L 674.3,29.6 L 674.3,29.5 L 674.3,29.5 L 674.3,29.5 L 674.3,29.4 L 674.3,29.4 L 674.4,29.4 L 674.4,29.3 L 674.4,29.3 L 674.4,29.3 L 674.4,29.2 L 674.4,29.2 L 674.5,29.2 L 674.5,29.2 L 674.5,29.1 L 674.6,29.1 L 674.6,29.1 L 674.6,29.1 L 674.7,29.1 L 674.7,29.1 L 674.7,29.1 L 674.8,29.1 L 674.8,29.1 L 674.8,29.1 L 674.9,29.1 L 674.9,29.1 L 674.9,29.1 L 675.0,29.1 L 675.0,29.1 L 675.0,29.2 L 675.1,29.2 L 675.1,29.2 L 675.1,29.2 L 675.1,29.3 L 675.1,29.3 L 675.2,29.3 L 675.2,29.4 L 675.2,29.4 L 675.2,29.5 L 675.2,29.5 L 674.8,29.5 Z" style="fill:#000000;fill-rule:evenodd;fill-opacity:1;stroke:#000000;stroke-width:0.0px;stroke-linecap:butt;stroke-linejoin:miter;stroke-opacity:1;"/>
</svg>