<svg xmlns="http://www.w3.org/2000/svg" xmlns:rdkit="http://www.rdkit.org/xml" xmlns:xlink="http://www.w3.org/1999/xlink" version="1.1" baseProfile="full" xml:space="preserve" width="1500px" height="160px" viewBox="0 0 1500 160">
<!-- END OF HEADER -->
<rect style="opacity:1.0;fill:#FFFFFF;stroke:none" width="1500.0" height="160.0" x="0.0" y="0.0"> </rect>
<path class="bond-0 atom-0 atom-1" d="M 150.9,41.7 L 135.6,38.0" style="fill:none;fill-rule:evenodd;stroke:#000000;stroke-width:2.0px;stroke-linecap:butt;stroke-linejoin:miter;stroke-opacity:1"/>
<path class="bond-1 atom-1 atom-2" d="M 135.6,38.0 L 131.1,23.0" style="fill:none;fill-rule:evenodd;stroke:#000000;stroke-width:2.0px;stroke-linecap:butt;stroke-linejoin:miter;stroke-opacity:1"/>
<path class="bond-1 atom-1 atom-2" d="M 131.9,36.7 L 128.8,26.2" style="fill:none;fill-rule:evenodd;stroke:#000000;stroke-width:2.0px;stroke-linecap:butt;stroke-linejoin:miter;stroke-opacity:1"/>
<path class="bond-2 atom-2 atom-3" d="M 131.1,23.0 L 135.6,18.3" style="fill:none;fill-rule:evenodd;stroke:#000000;stroke-width:2.0px;stroke-linecap:butt;stroke-linejoin:miter;stroke-opacity:1"/>
<path class="bond-2 atom-2 atom-3" d="M 135.6,18.3 L 140.1,13.6" style="fill:none;fill-rule:evenodd;stroke:#33CCCC;stroke-width:2.0px;stroke-linecap:butt;stroke-linejoin:miter;stroke-opacity:1"/>
<path class="bond-3 atom-2 atom-4" d="M 131.1,23.0 L 115.9,19.4" style="fill:none;fill-rule:evenodd;stroke:#000000;stroke-width:2.0px;stroke-linecap:butt;stroke-linejoin:miter;stroke-opacity:1"/>
<path class="bond-4 atom-4 atom-5" d="M 115.9,19.4 L 105.1,30.8" style="fill:none;fill-rule:evenodd;stroke:#000000;stroke-width:2.0px;stroke-linecap:butt;stroke-linejoin:miter;stroke-opacity:1"/>
<path class="bond-4 atom-4 atom-5" d="M 116.6,23.2 L 109.0,31.2" style="fill:none;fill-rule:evenodd;stroke:#000000;stroke-width:2.0px;stroke-linecap:butt;stroke-linejoin:miter;stroke-opacity:1"/>
<path class="bond-5 atom-5 atom-6" d="M 105.1,30.8 L 109.6,45.8" style="fill:none;fill-rule:evenodd;stroke:#000000;stroke-width:2.0px;stroke-linecap:butt;stroke-linejoin:miter;stroke-opacity:1"/>
<path class="bond-6 atom-6 atom-7" d="M 109.6,45.8 L 124.9,49.4" style="fill:none;fill-rule:evenodd;stroke:#000000;stroke-width:2.0px;stroke-linecap:butt;stroke-linejoin:miter;stroke-opacity:1"/>
<path class="bond-6 atom-6 atom-7" d="M 112.6,43.3 L 123.3,45.8" style="fill:none;fill-rule:evenodd;stroke:#000000;stroke-width:2.0px;stroke-linecap:butt;stroke-linejoin:miter;stroke-opacity:1"/>
<path class="bond-7 atom-7 atom-8" d="M 124.9,49.4 L 129.3,64.4" style="fill:none;fill-rule:evenodd;stroke:#000000;stroke-width:2.0px;stroke-linecap:butt;stroke-linejoin:miter;stroke-opacity:1"/>
<path class="bond-8 atom-8 atom-9" d="M 129.3,64.4 L 118.6,75.8" style="fill:none;fill-rule:evenodd;stroke:#000000;stroke-width:2.0px;stroke-linecap:butt;stroke-linejoin:miter;stroke-opacity:1"/>
<path class="bond-9 atom-9 atom-10" d="M 118.6,75.8 L 121.5,91.2" style="fill:none;fill-rule:evenodd;stroke:#000000;stroke-width:2.0px;stroke-linecap:butt;stroke-linejoin:miter;stroke-opacity:1"/>
<path class="bond-9 atom-9 atom-10" d="M 115.9,78.7 L 117.9,89.5" style="fill:none;fill-rule:evenodd;stroke:#000000;stroke-width:2.0px;stroke-linecap:butt;stroke-linejoin:miter;stroke-opacity:1"/>
<path class="bond-10 atom-10 atom-11" d="M 121.5,91.2 L 135.6,97.9" style="fill:none;fill-rule:evenodd;stroke:#000000;stroke-width:2.0px;stroke-linecap:butt;stroke-linejoin:miter;stroke-opacity:1"/>
<path class="bond-11 atom-11 atom-12" d="M 137.2,97.8 L 137.7,104.2" style="fill:none;fill-rule:evenodd;stroke:#000000;stroke-width:2.0px;stroke-linecap:butt;stroke-linejoin:miter;stroke-opacity:1"/>
<path class="bond-11 atom-11 atom-12" d="M 137.7,104.2 L 138.2,110.7" style="fill:none;fill-rule:evenodd;stroke:#FF0000;stroke-width:2.0px;stroke-linecap:butt;stroke-linejoin:miter;stroke-opacity:1"/>
<path class="bond-11 atom-11 atom-12" d="M 134.0,98.1 L 134.6,104.5" style="fill:none;fill-rule:evenodd;stroke:#000000;stroke-width:2.0px;stroke-linecap:butt;stroke-linejoin:miter;stroke-opacity:1"/>
<path class="bond-11 atom-11 atom-12" d="M 134.6,104.5 L 135.1,110.9" style="fill:none;fill-rule:evenodd;stroke:#FF0000;stroke-width:2.0px;stroke-linecap:butt;stroke-linejoin:miter;stroke-opacity:1"/>
<path class="bond-12 atom-11 atom-13" d="M 135.6,97.9 L 141.0,94.2" style="fill:none;fill-rule:evenodd;stroke:#000000;stroke-width:2.0px;stroke-linecap:butt;stroke-linejoin:miter;stroke-opacity:1"/>
<path class="bond-12 atom-11 atom-13" d="M 141.0,94.2 L 146.3,90.5" style="fill:none;fill-rule:evenodd;stroke:#0000FF;stroke-width:2.0px;stroke-linecap:butt;stroke-linejoin:miter;stroke-opacity:1"/>
<path class="bond-13 atom-13 atom-14" d="M 147.2,86.3 L 145.1,82.0" style="fill:none;fill-rule:evenodd;stroke:#0000FF;stroke-width:2.0px;stroke-linecap:butt;stroke-linejoin:miter;stroke-opacity:1"/>
<path class="bond-13 atom-13 atom-14" d="M 145.1,82.0 L 143.1,77.7" style="fill:none;fill-rule:evenodd;stroke:#000000;stroke-width:2.0px;stroke-linecap:butt;stroke-linejoin:miter;stroke-opacity:1"/>
<path class="bond-14 atom-14 atom-15" d="M 141.4,72.1 L 140.0,62.2" style="fill:none;fill-rule:evenodd;stroke:#000000;stroke-width:2.0px;stroke-linecap:butt;stroke-linejoin:miter;stroke-opacity:1"/>
<path class="bond-15 atom-15 atom-16" d="M 140.2,56.6 L 141.1,51.7" style="fill:none;fill-rule:evenodd;stroke:#000000;stroke-width:2.0px;stroke-linecap:butt;stroke-linejoin:miter;stroke-opacity:1"/>
<path class="bond-15 atom-15 atom-16" d="M 141.1,51.7 L 142.0,46.8" style="fill:none;fill-rule:evenodd;stroke:#CCCC00;stroke-width:2.0px;stroke-linecap:butt;stroke-linejoin:miter;stroke-opacity:1"/>
<path class="bond-16 atom-16 atom-17" d="M 144.0,41.2 L 146.2,37.1" style="fill:none;fill-rule:evenodd;stroke:#CCCC00;stroke-width:2.0px;stroke-linecap:butt;stroke-linejoin:miter;stroke-opacity:1"/>
<path class="bond-16 atom-16 atom-17" d="M 146.2,37.1 L 148.4,33.0" style="fill:none;fill-rule:evenodd;stroke:#FF0000;stroke-width:2.0px;stroke-linecap:butt;stroke-linejoin:miter;stroke-opacity:1"/>
<path class="bond-17 atom-17 atom-18" d="M 152.5,27.7 L 155.9,24.5" style="fill:none;fill-rule:evenodd;stroke:#FF0000;stroke-width:2.0px;stroke-linecap:butt;stroke-linejoin:miter;stroke-opacity:1"/>
<path class="bond-17 atom-17 atom-18" d="M 155.9,24.5 L 159.3,21.2" style="fill:none;fill-rule:evenodd;stroke:#CCCC00;stroke-width:2.0px;stroke-linecap:butt;stroke-linejoin:miter;stroke-opacity:1"/>
<path class="bond-18 atom-18 atom-19" d="M 163.2,18.4 L 173.5,13.5" style="fill:none;fill-rule:evenodd;stroke:#CCCC00;stroke-width:2.0px;stroke-linecap:butt;stroke-linejoin:miter;stroke-opacity:1"/>
<path class="bond-19 atom-19 atom-20" d="M 177.3,12.3 L 189.0,10.8" style="fill:none;fill-rule:evenodd;stroke:#CCCC00;stroke-width:2.0px;stroke-linecap:butt;stroke-linejoin:miter;stroke-opacity:1"/>
<path class="bond-20 atom-20 atom-21" d="M 192.9,10.9 L 204.4,13.0" style="fill:none;fill-rule:evenodd;stroke:#CCCC00;stroke-width:2.0px;stroke-linecap:butt;stroke-linejoin:miter;stroke-opacity:1"/>
<path class="bond-21 atom-21 atom-22" d="M 208.3,14.4 L 213.1,17.0" style="fill:none;fill-rule:evenodd;stroke:#CCCC00;stroke-width:2.0px;stroke-linecap:butt;stroke-linejoin:miter;stroke-opacity:1"/>
<path class="bond-21 atom-21 atom-22" d="M 213.1,17.0 L 217.9,19.6" style="fill:none;fill-rule:evenodd;stroke:#000000;stroke-width:2.0px;stroke-linecap:butt;stroke-linejoin:miter;stroke-opacity:1"/>
<path class="bond-22 atom-22 atom-23" d="M 222.4,23.1 L 225.7,26.6" style="fill:none;fill-rule:evenodd;stroke:#000000;stroke-width:2.0px;stroke-linecap:butt;stroke-linejoin:miter;stroke-opacity:1"/>
<path class="bond-22 atom-22 atom-23" d="M 225.7,26.6 L 229.0,30.1" style="fill:none;fill-rule:evenodd;stroke:#CCCC00;stroke-width:2.0px;stroke-linecap:butt;stroke-linejoin:miter;stroke-opacity:1"/>
<path class="bond-23 atom-23 atom-24" d="M 232.3,35.0 L 234.3,39.3" style="fill:none;fill-rule:evenodd;stroke:#CCCC00;stroke-width:2.0px;stroke-linecap:butt;stroke-linejoin:miter;stroke-opacity:1"/>
<path class="bond-23 atom-23 atom-24" d="M 234.3,39.3 L 236.4,43.5" style="fill:none;fill-rule:evenodd;stroke:#0000FF;stroke-width:2.0px;stroke-linecap:butt;stroke-linejoin:miter;stroke-opacity:1"/>
<path class="bond-24 atom-24 atom-25" d="M 238.1,49.0 L 238.7,54.0" style="fill:none;fill-rule:evenodd;stroke:#0000FF;stroke-width:2.0px;stroke-linecap:butt;stroke-linejoin:miter;stroke-opacity:1"/>
<path class="bond-24 atom-24 atom-25" d="M 238.7,54.0 L 239.4,59.0" style="fill:none;fill-rule:evenodd;stroke:#000000;stroke-width:2.0px;stroke-linecap:butt;stroke-linejoin:miter;stroke-opacity:1"/>
<path class="bond-25 atom-25 atom-26" d="M 239.3,64.6 L 237.5,74.4" style="fill:none;fill-rule:evenodd;stroke:#000000;stroke-width:2.0px;stroke-linecap:butt;stroke-linejoin:miter;stroke-opacity:1"/>
<path class="bond-26 atom-26 atom-27" d="M 235.4,80.0 L 233.2,84.1" style="fill:none;fill-rule:evenodd;stroke:#000000;stroke-width:2.0px;stroke-linecap:butt;stroke-linejoin:miter;stroke-opacity:1"/>
<path class="bond-26 atom-26 atom-27" d="M 233.2,84.1 L 231.0,88.3" style="fill:none;fill-rule:evenodd;stroke:#0000FF;stroke-width:2.0px;stroke-linecap:butt;stroke-linejoin:miter;stroke-opacity:1"/>
<path class="bond-27 atom-27 atom-28" d="M 227.3,93.1 L 223.9,96.4" style="fill:none;fill-rule:evenodd;stroke:#0000FF;stroke-width:2.0px;stroke-linecap:butt;stroke-linejoin:miter;stroke-opacity:1"/>
<path class="bond-27 atom-27 atom-28" d="M 223.9,96.4 L 220.4,99.7" style="fill:none;fill-rule:evenodd;stroke:#000000;stroke-width:2.0px;stroke-linecap:butt;stroke-linejoin:miter;stroke-opacity:1"/>
<path class="bond-28 atom-28 atom-29" d="M 215.9,102.9 L 206.3,107.5" style="fill:none;fill-rule:evenodd;stroke:#000000;stroke-width:2.0px;stroke-linecap:butt;stroke-linejoin:miter;stroke-opacity:1"/>
<path class="bond-29 atom-29 atom-30" d="M 201.8,108.9 L 196.3,109.6" style="fill:none;fill-rule:evenodd;stroke:#000000;stroke-width:2.0px;stroke-linecap:butt;stroke-linejoin:miter;stroke-opacity:1"/>
<path class="bond-29 atom-29 atom-30" d="M 196.3,109.6 L 190.7,110.4" style="fill:none;fill-rule:evenodd;stroke:#0000FF;stroke-width:2.0px;stroke-linecap:butt;stroke-linejoin:miter;stroke-opacity:1"/>
<path class="bond-30 atom-30 atom-31" d="M 188.4,113.4 L 188.2,123.6" style="fill:none;fill-rule:evenodd;stroke:#0000FF;stroke-width:2.0px;stroke-linecap:butt;stroke-linejoin:miter;stroke-opacity:1"/>
<path class="bond-31 atom-31 atom-32" d="M 190.3,127.7 L 195.9,131.1" style="fill:none;fill-rule:evenodd;stroke:#0000FF;stroke-width:2.0px;stroke-linecap:butt;stroke-linejoin:miter;stroke-opacity:1"/>
<path class="bond-31 atom-31 atom-32" d="M 195.9,131.1 L 201.5,134.5" style="fill:none;fill-rule:evenodd;stroke:#000000;stroke-width:2.0px;stroke-linecap:butt;stroke-linejoin:miter;stroke-opacity:1"/>
<path class="bond-32 atom-31 atom-33" d="M 185.9,127.5 L 181.4,130.0" style="fill:none;fill-rule:evenodd;stroke:#0000FF;stroke-width:2.0px;stroke-linecap:butt;stroke-linejoin:miter;stroke-opacity:1"/>
<path class="bond-32 atom-31 atom-33" d="M 181.4,130.0 L 176.9,132.4" style="fill:none;fill-rule:evenodd;stroke:#FF0000;stroke-width:2.0px;stroke-linecap:butt;stroke-linejoin:miter;stroke-opacity:1"/>
<path class="bond-33 atom-33 atom-34" d="M 174.3,136.6 L 174.2,141.7" style="fill:none;fill-rule:evenodd;stroke:#FF0000;stroke-width:2.0px;stroke-linecap:butt;stroke-linejoin:miter;stroke-opacity:1"/>
<path class="bond-33 atom-33 atom-34" d="M 174.2,141.7 L 174.1,146.7" style="fill:none;fill-rule:evenodd;stroke:#33CCCC;stroke-width:2.0px;stroke-linecap:butt;stroke-linejoin:miter;stroke-opacity:1"/>
<path class="bond-34 atom-30 atom-35" d="M 186.3,110.2 L 180.8,109.2" style="fill:none;fill-rule:evenodd;stroke:#0000FF;stroke-width:2.0px;stroke-linecap:butt;stroke-linejoin:miter;stroke-opacity:1"/>
<path class="bond-34 atom-30 atom-35" d="M 180.8,109.2 L 175.3,108.2" style="fill:none;fill-rule:evenodd;stroke:#000000;stroke-width:2.0px;stroke-linecap:butt;stroke-linejoin:miter;stroke-opacity:1"/>
<path class="bond-35 atom-35 atom-36" d="M 170.9,106.6 L 161.5,101.6" style="fill:none;fill-rule:evenodd;stroke:#000000;stroke-width:2.0px;stroke-linecap:butt;stroke-linejoin:miter;stroke-opacity:1"/>
<path class="bond-36 atom-10 atom-37" d="M 121.5,91.2 L 107.7,98.7" style="fill:none;fill-rule:evenodd;stroke:#000000;stroke-width:2.0px;stroke-linecap:butt;stroke-linejoin:miter;stroke-opacity:1"/>
<path class="bond-37 atom-37 atom-38" d="M 107.7,98.7 L 104.1,114.0" style="fill:none;fill-rule:evenodd;stroke:#000000;stroke-width:2.0px;stroke-linecap:butt;stroke-linejoin:miter;stroke-opacity:1"/>
<path class="bond-37 atom-37 atom-38" d="M 104.1,100.3 L 101.6,110.9" style="fill:none;fill-rule:evenodd;stroke:#000000;stroke-width:2.0px;stroke-linecap:butt;stroke-linejoin:miter;stroke-opacity:1"/>
<path class="bond-38 atom-38 atom-39" d="M 104.1,114.0 L 89.1,118.4" style="fill:none;fill-rule:evenodd;stroke:#000000;stroke-width:2.0px;stroke-linecap:butt;stroke-linejoin:miter;stroke-opacity:1"/>
<path class="bond-39 atom-39 atom-40" d="M 89.1,118.4 L 77.7,107.7" style="fill:none;fill-rule:evenodd;stroke:#000000;stroke-width:2.0px;stroke-linecap:butt;stroke-linejoin:miter;stroke-opacity:1"/>
<path class="bond-39 atom-39 atom-40" d="M 89.5,114.5 L 81.5,107.0" style="fill:none;fill-rule:evenodd;stroke:#000000;stroke-width:2.0px;stroke-linecap:butt;stroke-linejoin:miter;stroke-opacity:1"/>
<path class="bond-40 atom-40 atom-41" d="M 77.7,107.7 L 71.4,109.5" style="fill:none;fill-rule:evenodd;stroke:#000000;stroke-width:2.0px;stroke-linecap:butt;stroke-linejoin:miter;stroke-opacity:1"/>
<path class="bond-40 atom-40 atom-41" d="M 71.4,109.5 L 65.2,111.4" style="fill:none;fill-rule:evenodd;stroke:#FF0000;stroke-width:2.0px;stroke-linecap:butt;stroke-linejoin:miter;stroke-opacity:1"/>
<path class="bond-41 atom-40 atom-42" d="M 77.7,107.7 L 81.3,92.4" style="fill:none;fill-rule:evenodd;stroke:#000000;stroke-width:2.0px;stroke-linecap:butt;stroke-linejoin:miter;stroke-opacity:1"/>
<path class="bond-42 atom-42 atom-43" d="M 81.3,92.4 L 96.3,88.0" style="fill:none;fill-rule:evenodd;stroke:#000000;stroke-width:2.0px;stroke-linecap:butt;stroke-linejoin:miter;stroke-opacity:1"/>
<path class="bond-42 atom-42 atom-43" d="M 84.4,94.8 L 95.0,91.6" style="fill:none;fill-rule:evenodd;stroke:#000000;stroke-width:2.0px;stroke-linecap:butt;stroke-linejoin:miter;stroke-opacity:1"/>
<path class="bond-43 atom-43 atom-44" d="M 96.3,88.0 L 99.0,82.2" style="fill:none;fill-rule:evenodd;stroke:#000000;stroke-width:2.0px;stroke-linecap:butt;stroke-linejoin:miter;stroke-opacity:1"/>
<path class="bond-43 atom-43 atom-44" d="M 99.0,82.2 L 101.7,76.5" style="fill:none;fill-rule:evenodd;stroke:#0000FF;stroke-width:2.0px;stroke-linecap:butt;stroke-linejoin:miter;stroke-opacity:1"/>
<path class="bond-44 atom-44 atom-45" d="M 101.5,71.1 L 98.5,65.6" style="fill:none;fill-rule:evenodd;stroke:#0000FF;stroke-width:2.0px;stroke-linecap:butt;stroke-linejoin:miter;stroke-opacity:1"/>
<path class="bond-44 atom-44 atom-45" d="M 98.5,65.6 L 95.5,60.0" style="fill:none;fill-rule:evenodd;stroke:#000000;stroke-width:2.0px;stroke-linecap:butt;stroke-linejoin:miter;stroke-opacity:1"/>
<path class="bond-45 atom-45 atom-46" d="M 95.5,60.0 L 79.9,59.7" style="fill:none;fill-rule:evenodd;stroke:#000000;stroke-width:2.0px;stroke-linecap:butt;stroke-linejoin:miter;stroke-opacity:1"/>
<path class="bond-45 atom-45 atom-46" d="M 93.3,56.9 L 82.3,56.6" style="fill:none;fill-rule:evenodd;stroke:#000000;stroke-width:2.0px;stroke-linecap:butt;stroke-linejoin:miter;stroke-opacity:1"/>
<path class="bond-46 atom-46 atom-47" d="M 79.9,59.7 L 72.4,45.9" style="fill:none;fill-rule:evenodd;stroke:#000000;stroke-width:2.0px;stroke-linecap:butt;stroke-linejoin:miter;stroke-opacity:1"/>
<path class="bond-47 atom-47 atom-48" d="M 72.4,45.9 L 80.5,32.5" style="fill:none;fill-rule:evenodd;stroke:#000000;stroke-width:2.0px;stroke-linecap:butt;stroke-linejoin:miter;stroke-opacity:1"/>
<path class="bond-47 atom-47 atom-48" d="M 76.3,45.5 L 82.0,36.2" style="fill:none;fill-rule:evenodd;stroke:#000000;stroke-width:2.0px;stroke-linecap:butt;stroke-linejoin:miter;stroke-opacity:1"/>
<path class="bond-48 atom-48 atom-49" d="M 80.5,32.5 L 96.2,32.9" style="fill:none;fill-rule:evenodd;stroke:#000000;stroke-width:2.0px;stroke-linecap:butt;stroke-linejoin:miter;stroke-opacity:1"/>
<path class="bond-49 atom-49 atom-50" d="M 96.2,32.9 L 103.7,46.7" style="fill:none;fill-rule:evenodd;stroke:#000000;stroke-width:2.0px;stroke-linecap:butt;stroke-linejoin:miter;stroke-opacity:1"/>
<path class="bond-49 atom-49 atom-50" d="M 94.6,36.5 L 99.8,46.1" style="fill:none;fill-rule:evenodd;stroke:#000000;stroke-width:2.0px;stroke-linecap:butt;stroke-linejoin:miter;stroke-opacity:1"/>
<path class="bond-50 atom-7 atom-1" d="M 124.9,49.4 L 135.6,38.0" style="fill:none;fill-rule:evenodd;stroke:#000000;stroke-width:2.0px;stroke-linecap:butt;stroke-linejoin:miter;stroke-opacity:1"/>
<path class="bond-51 atom-44 atom-9" d="M 105.2,74.1 L 111.9,74.9" style="fill:none;fill-rule:evenodd;stroke:#0000FF;stroke-width:2.0px;stroke-linecap:butt;stroke-linejoin:miter;stroke-opacity:1"/>
<path class="bond-51 atom-44 atom-9" d="M 111.9,74.9 L 118.6,75.8" style="fill:none;fill-rule:evenodd;stroke:#000000;stroke-width:2.0px;stroke-linecap:butt;stroke-linejoin:miter;stroke-opacity:1"/>
<path class="bond-52 atom-50 atom-45" d="M 103.7,46.7 L 95.5,60.0" style="fill:none;fill-rule:evenodd;stroke:#000000;stroke-width:2.0px;stroke-linecap:butt;stroke-linejoin:miter;stroke-opacity:1"/>
<path class="bond-53 atom-36 atom-13" d="M 157.1,98.0 L 153.9,94.7" style="fill:none;fill-rule:evenodd;stroke:#000000;stroke-width:2.0px;stroke-linecap:butt;stroke-linejoin:miter;stroke-opacity:1"/>
<path class="bond-53 atom-36 atom-13" d="M 153.9,94.7 L 150.7,91.3" style="fill:none;fill-rule:evenodd;stroke:#0000FF;stroke-width:2.0px;stroke-linecap:butt;stroke-linejoin:miter;stroke-opacity:1"/>
<path class="bond-54 atom-43 atom-37" d="M 96.3,88.0 L 107.7,98.7" style="fill:none;fill-rule:evenodd;stroke:#000000;stroke-width:2.0px;stroke-linecap:butt;stroke-linejoin:miter;stroke-opacity:1"/>
<path class="atom-3" d="M 140.6 9.4 L 143.2 9.4 L 143.2 9.9 L 141.2 9.9 L 141.2 11.3 L 143.0 11.3 L 143.0 11.8 L 141.2 11.8 L 141.2 13.8 L 140.6 13.8 L 140.6 9.4 " fill="#33CCCC"/>
<path class="atom-12" d="M 134.8 113.6 Q 134.8 112.5, 135.4 111.9 Q 135.9 111.3, 136.9 111.3 Q 137.9 111.3, 138.4 111.9 Q 138.9 112.5, 138.9 113.6 Q 138.9 114.6, 138.4 115.3 Q 137.8 115.9, 136.9 115.9 Q 135.9 115.9, 135.4 115.3 Q 134.8 114.6, 134.8 113.6 M 136.9 115.4 Q 137.5 115.4, 137.9 114.9 Q 138.3 114.5, 138.3 113.6 Q 138.3 112.7, 137.9 112.3 Q 137.5 111.8, 136.9 111.8 Q 136.2 111.8, 135.8 112.2 Q 135.5 112.7, 135.5 113.6 Q 135.5 114.5, 135.8 114.9 Q 136.2 115.4, 136.9 115.4 " fill="#FF0000"/>
<path class="atom-13" d="M 147.5 86.8 L 149.0 89.2 Q 149.1 89.4, 149.4 89.8 Q 149.6 90.2, 149.6 90.3 L 149.6 86.8 L 150.2 86.8 L 150.2 91.2 L 149.6 91.2 L 148.0 88.7 Q 147.8 88.4, 147.6 88.0 Q 147.5 87.7, 147.4 87.6 L 147.4 91.2 L 146.8 91.2 L 146.8 86.8 L 147.5 86.8 " fill="#0000FF"/>
<path class="atom-14" d="M 140.0 74.9 Q 140.0 73.8, 140.5 73.2 Q 141.1 72.7, 142.0 72.7 Q 143.0 72.7, 143.4 73.3 L 143.0 73.6 Q 142.7 73.2, 142.0 73.2 Q 141.4 73.2, 141.0 73.6 Q 140.7 74.1, 140.7 74.9 Q 140.7 75.8, 141.0 76.2 Q 141.4 76.7, 142.1 76.7 Q 142.6 76.7, 143.2 76.4 L 143.3 76.9 Q 143.1 77.0, 142.8 77.1 Q 142.4 77.2, 142.0 77.2 Q 141.1 77.2, 140.5 76.6 Q 140.0 76.0, 140.0 74.9 " fill="#000000"/>
<path class="atom-15" d="M 137.9 59.4 Q 137.9 58.3, 138.5 57.7 Q 139.0 57.1, 140.0 57.1 Q 140.9 57.1, 141.4 57.8 L 141.0 58.1 Q 140.6 57.6, 140.0 57.6 Q 139.3 57.6, 138.9 58.1 Q 138.6 58.5, 138.6 59.4 Q 138.6 60.3, 138.9 60.7 Q 139.3 61.2, 140.0 61.2 Q 140.5 61.2, 141.1 60.9 L 141.3 61.3 Q 141.0 61.5, 140.7 61.6 Q 140.3 61.7, 139.9 61.7 Q 139.0 61.7, 138.5 61.1 Q 137.9 60.5, 137.9 59.4 " fill="#000000"/>
<path class="atom-16" d="M 141.2 45.5 Q 141.3 45.5, 141.5 45.6 Q 141.7 45.7, 141.9 45.7 Q 142.1 45.8, 142.4 45.8 Q 142.8 45.8, 143.0 45.6 Q 143.3 45.4, 143.3 45.0 Q 143.3 44.8, 143.2 44.6 Q 143.0 44.5, 142.8 44.4 Q 142.7 44.3, 142.3 44.2 Q 142.0 44.1, 141.7 44.0 Q 141.5 43.9, 141.3 43.6 Q 141.2 43.4, 141.2 43.0 Q 141.2 42.4, 141.5 42.1 Q 141.9 41.7, 142.7 41.7 Q 143.2 41.7, 143.8 42.0 L 143.6 42.5 Q 143.1 42.3, 142.7 42.3 Q 142.2 42.3, 142.0 42.4 Q 141.8 42.6, 141.8 42.9 Q 141.8 43.2, 141.9 43.3 Q 142.0 43.4, 142.2 43.5 Q 142.4 43.6, 142.7 43.7 Q 143.1 43.8, 143.3 44.0 Q 143.6 44.1, 143.7 44.3 Q 143.9 44.6, 143.9 45.0 Q 143.9 45.6, 143.5 46.0 Q 143.1 46.3, 142.4 46.3 Q 142.0 46.3, 141.7 46.2 Q 141.4 46.1, 141.1 46.0 L 141.2 45.5 " fill="#CCCC00"/>
<path class="atom-17" d="M 147.9 30.2 Q 147.9 29.1, 148.4 28.5 Q 148.9 27.9, 149.9 27.9 Q 150.9 27.9, 151.4 28.5 Q 152.0 29.1, 152.0 30.2 Q 152.0 31.3, 151.4 31.9 Q 150.9 32.5, 149.9 32.5 Q 148.9 32.5, 148.4 31.9 Q 147.9 31.3, 147.9 30.2 M 149.9 32.0 Q 150.6 32.0, 151.0 31.5 Q 151.3 31.1, 151.3 30.2 Q 151.3 29.3, 151.0 28.9 Q 150.6 28.4, 149.9 28.4 Q 149.3 28.4, 148.9 28.9 Q 148.5 29.3, 148.5 30.2 Q 148.5 31.1, 148.9 31.5 Q 149.3 32.0, 149.9 32.0 " fill="#FF0000"/>
<path class="atom-18" d="M 160.0 20.9 Q 160.1 20.9, 160.3 21.0 Q 160.5 21.1, 160.7 21.1 Q 160.9 21.2, 161.2 21.2 Q 161.6 21.2, 161.8 21.0 Q 162.1 20.8, 162.1 20.4 Q 162.1 20.2, 161.9 20.0 Q 161.8 19.9, 161.6 19.8 Q 161.5 19.7, 161.1 19.6 Q 160.7 19.5, 160.5 19.4 Q 160.3 19.3, 160.1 19.0 Q 159.9 18.8, 159.9 18.4 Q 159.9 17.8, 160.3 17.5 Q 160.7 17.2, 161.5 17.2 Q 162.0 17.2, 162.5 17.4 L 162.4 17.9 Q 161.9 17.7, 161.5 17.7 Q 161.0 17.7, 160.8 17.8 Q 160.6 18.0, 160.6 18.3 Q 160.6 18.6, 160.7 18.7 Q 160.8 18.9, 161.0 18.9 Q 161.2 19.0, 161.5 19.1 Q 161.9 19.2, 162.1 19.4 Q 162.3 19.5, 162.5 19.7 Q 162.7 20.0, 162.7 20.4 Q 162.7 21.0, 162.3 21.4 Q 161.9 21.7, 161.2 21.7 Q 160.8 21.7, 160.5 21.6 Q 160.2 21.5, 159.8 21.4 L 160.0 20.9 " fill="#CCCC00"/>
<path class="atom-19" d="M 174.1 14.1 Q 174.2 14.1, 174.4 14.2 Q 174.6 14.3, 174.8 14.4 Q 175.1 14.4, 175.3 14.4 Q 175.7 14.4, 176.0 14.2 Q 176.2 14.0, 176.2 13.7 Q 176.2 13.4, 176.1 13.3 Q 176.0 13.1, 175.8 13.0 Q 175.6 12.9, 175.3 12.9 Q 174.9 12.7, 174.6 12.6 Q 174.4 12.5, 174.2 12.3 Q 174.1 12.0, 174.1 11.6 Q 174.1 11.1, 174.4 10.7 Q 174.8 10.4, 175.6 10.4 Q 176.1 10.4, 176.7 10.6 L 176.5 11.1 Q 176.0 10.9, 175.6 10.9 Q 175.2 10.9, 174.9 11.1 Q 174.7 11.2, 174.7 11.6 Q 174.7 11.8, 174.8 11.9 Q 174.9 12.1, 175.1 12.2 Q 175.3 12.2, 175.6 12.3 Q 176.0 12.5, 176.2 12.6 Q 176.5 12.7, 176.6 13.0 Q 176.8 13.2, 176.8 13.7 Q 176.8 14.3, 176.4 14.6 Q 176.0 14.9, 175.3 14.9 Q 174.9 14.9, 174.6 14.8 Q 174.3 14.8, 174.0 14.6 L 174.1 14.1 " fill="#CCCC00"/>
<path class="atom-20" d="M 189.7 12.0 Q 189.7 12.1, 189.9 12.1 Q 190.1 12.2, 190.4 12.3 Q 190.6 12.3, 190.8 12.3 Q 191.2 12.3, 191.5 12.1 Q 191.7 11.9, 191.7 11.6 Q 191.7 11.3, 191.6 11.2 Q 191.5 11.0, 191.3 10.9 Q 191.1 10.9, 190.8 10.8 Q 190.4 10.7, 190.2 10.5 Q 189.9 10.4, 189.8 10.2 Q 189.6 10.0, 189.6 9.6 Q 189.6 9.0, 190.0 8.6 Q 190.4 8.3, 191.1 8.3 Q 191.6 8.3, 192.2 8.5 L 192.1 9.0 Q 191.5 8.8, 191.1 8.8 Q 190.7 8.8, 190.5 9.0 Q 190.2 9.2, 190.2 9.5 Q 190.2 9.7, 190.3 9.9 Q 190.5 10.0, 190.6 10.1 Q 190.8 10.2, 191.1 10.3 Q 191.5 10.4, 191.8 10.5 Q 192.0 10.6, 192.2 10.9 Q 192.4 11.1, 192.4 11.6 Q 192.4 12.2, 191.9 12.5 Q 191.5 12.8, 190.8 12.8 Q 190.5 12.8, 190.2 12.8 Q 189.9 12.7, 189.5 12.5 L 189.7 12.0 " fill="#CCCC00"/>
<path class="atom-21" d="M 205.1 14.9 Q 205.1 14.9, 205.3 15.0 Q 205.6 15.1, 205.8 15.1 Q 206.0 15.2, 206.2 15.2 Q 206.7 15.2, 206.9 15.0 Q 207.1 14.8, 207.1 14.4 Q 207.1 14.2, 207.0 14.0 Q 206.9 13.9, 206.7 13.8 Q 206.5 13.7, 206.2 13.6 Q 205.8 13.5, 205.6 13.4 Q 205.3 13.3, 205.2 13.0 Q 205.0 12.8, 205.0 12.4 Q 205.0 11.8, 205.4 11.5 Q 205.8 11.1, 206.5 11.1 Q 207.0 11.1, 207.6 11.4 L 207.5 11.9 Q 206.9 11.6, 206.5 11.6 Q 206.1 11.6, 205.9 11.8 Q 205.6 12.0, 205.6 12.3 Q 205.6 12.5, 205.8 12.7 Q 205.9 12.8, 206.1 12.9 Q 206.2 13.0, 206.5 13.1 Q 206.9 13.2, 207.2 13.3 Q 207.4 13.5, 207.6 13.7 Q 207.8 14.0, 207.8 14.4 Q 207.8 15.0, 207.3 15.3 Q 206.9 15.7, 206.3 15.7 Q 205.9 15.7, 205.6 15.6 Q 205.3 15.5, 204.9 15.4 L 205.1 14.9 " fill="#CCCC00"/>
<path class="atom-22" d="M 218.4 20.8 Q 218.4 19.7, 218.9 19.1 Q 219.4 18.5, 220.4 18.5 Q 221.3 18.5, 221.8 19.2 L 221.4 19.5 Q 221.1 19.1, 220.4 19.1 Q 219.8 19.1, 219.4 19.5 Q 219.1 20.0, 219.1 20.8 Q 219.1 21.7, 219.4 22.1 Q 219.8 22.6, 220.5 22.6 Q 221.0 22.6, 221.6 22.3 L 221.7 22.8 Q 221.5 22.9, 221.2 23.0 Q 220.8 23.1, 220.4 23.1 Q 219.4 23.1, 218.9 22.5 Q 218.4 21.9, 218.4 20.8 " fill="#000000"/>
<path class="atom-23" d="M 229.7 33.7 Q 229.7 33.7, 229.9 33.8 Q 230.1 33.8, 230.4 33.9 Q 230.6 34.0, 230.8 34.0 Q 231.2 34.0, 231.5 33.8 Q 231.7 33.5, 231.7 33.2 Q 231.7 32.9, 231.6 32.8 Q 231.5 32.6, 231.3 32.6 Q 231.1 32.5, 230.8 32.4 Q 230.4 32.3, 230.2 32.2 Q 229.9 32.0, 229.8 31.8 Q 229.6 31.6, 229.6 31.2 Q 229.6 30.6, 230.0 30.3 Q 230.4 29.9, 231.1 29.9 Q 231.6 29.9, 232.2 30.2 L 232.1 30.6 Q 231.5 30.4, 231.1 30.4 Q 230.7 30.4, 230.5 30.6 Q 230.2 30.8, 230.2 31.1 Q 230.2 31.3, 230.4 31.5 Q 230.5 31.6, 230.7 31.7 Q 230.8 31.8, 231.1 31.9 Q 231.5 32.0, 231.8 32.1 Q 232.0 32.3, 232.2 32.5 Q 232.4 32.8, 232.4 33.2 Q 232.4 33.8, 231.9 34.1 Q 231.5 34.5, 230.9 34.5 Q 230.5 34.5, 230.2 34.4 Q 229.9 34.3, 229.5 34.2 L 229.7 33.7 " fill="#CCCC00"/>
<path class="atom-24" d="M 236.7 44.0 L 238.2 46.4 Q 238.3 46.6, 238.6 47.0 Q 238.8 47.5, 238.8 47.5 L 238.8 44.0 L 239.4 44.0 L 239.4 48.5 L 238.8 48.5 L 237.2 45.9 Q 237.0 45.6, 236.8 45.3 Q 236.7 44.9, 236.6 44.8 L 236.6 48.5 L 236.0 48.5 L 236.0 44.0 L 236.7 44.0 " fill="#0000FF"/>
<path class="atom-24" d="M 239.9 44.0 L 240.5 44.0 L 240.5 45.9 L 242.8 45.9 L 242.8 44.0 L 243.4 44.0 L 243.4 48.5 L 242.8 48.5 L 242.8 46.4 L 240.5 46.4 L 240.5 48.5 L 239.9 48.5 L 239.9 44.0 " fill="#0000FF"/>
<path class="atom-25" d="M 238.1 61.8 Q 238.1 60.7, 238.6 60.1 Q 239.1 59.5, 240.1 59.5 Q 241.0 59.5, 241.5 60.2 L 241.1 60.5 Q 240.7 60.1, 240.1 60.1 Q 239.4 60.1, 239.1 60.5 Q 238.7 61.0, 238.7 61.8 Q 238.7 62.7, 239.1 63.1 Q 239.4 63.6, 240.2 63.6 Q 240.6 63.6, 241.2 63.3 L 241.4 63.8 Q 241.2 63.9, 240.8 64.0 Q 240.5 64.1, 240.1 64.1 Q 239.1 64.1, 238.6 63.5 Q 238.1 62.9, 238.1 61.8 " fill="#000000"/>
<path class="atom-26" d="M 235.2 77.2 Q 235.2 76.1, 235.8 75.5 Q 236.3 75.0, 237.3 75.0 Q 238.2 75.0, 238.7 75.6 L 238.3 75.9 Q 237.9 75.5, 237.3 75.5 Q 236.6 75.5, 236.2 75.9 Q 235.9 76.4, 235.9 77.2 Q 235.9 78.1, 236.3 78.5 Q 236.6 79.0, 237.3 79.0 Q 237.8 79.0, 238.4 78.7 L 238.6 79.2 Q 238.3 79.3, 238.0 79.4 Q 237.6 79.5, 237.2 79.5 Q 236.3 79.5, 235.8 78.9 Q 235.2 78.3, 235.2 77.2 " fill="#000000"/>
<path class="atom-27" d="M 228.5 88.8 L 230.0 91.1 Q 230.1 91.4, 230.4 91.8 Q 230.6 92.2, 230.6 92.2 L 230.6 88.8 L 231.2 88.8 L 231.2 93.2 L 230.6 93.2 L 229.0 90.6 Q 228.8 90.3, 228.6 90.0 Q 228.5 89.6, 228.4 89.5 L 228.4 93.2 L 227.8 93.2 L 227.8 88.8 L 228.5 88.8 " fill="#0000FF"/>
<path class="atom-27" d="M 231.7 88.8 L 232.3 88.8 L 232.3 90.7 L 234.6 90.7 L 234.6 88.8 L 235.2 88.8 L 235.2 93.2 L 234.6 93.2 L 234.6 91.2 L 232.3 91.2 L 232.3 93.2 L 231.7 93.2 L 231.7 88.8 " fill="#0000FF"/>
<path class="atom-28" d="M 216.5 101.8 Q 216.5 100.7, 217.0 100.1 Q 217.5 99.6, 218.5 99.6 Q 219.4 99.6, 219.9 100.2 L 219.5 100.5 Q 219.1 100.1, 218.5 100.1 Q 217.8 100.1, 217.4 100.5 Q 217.1 101.0, 217.1 101.8 Q 217.1 102.7, 217.5 103.1 Q 217.8 103.6, 218.5 103.6 Q 219.0 103.6, 219.6 103.3 L 219.8 103.8 Q 219.5 103.9, 219.2 104.0 Q 218.8 104.1, 218.5 104.1 Q 217.5 104.1, 217.0 103.5 Q 216.5 102.9, 216.5 101.8 " fill="#000000"/>
<path class="atom-29" d="M 202.3 108.6 Q 202.3 107.5, 202.8 106.9 Q 203.4 106.3, 204.3 106.3 Q 205.3 106.3, 205.8 107.0 L 205.3 107.3 Q 205.0 106.8, 204.3 106.8 Q 203.7 106.8, 203.3 107.3 Q 203.0 107.7, 203.0 108.6 Q 203.0 109.5, 203.3 109.9 Q 203.7 110.4, 204.4 110.4 Q 204.9 110.4, 205.5 110.1 L 205.7 110.5 Q 205.4 110.7, 205.1 110.8 Q 204.7 110.9, 204.3 110.9 Q 203.4 110.9, 202.8 110.3 Q 202.3 109.7, 202.3 108.6 " fill="#000000"/>
<path class="atom-30" d="M 187.5 108.4 L 189.0 110.8 Q 189.1 111.0, 189.4 111.4 Q 189.6 111.8, 189.6 111.9 L 189.6 108.4 L 190.2 108.4 L 190.2 112.9 L 189.6 112.9 L 188.0 110.3 Q 187.8 110.0, 187.6 109.6 Q 187.5 109.3, 187.4 109.2 L 187.4 112.9 L 186.8 112.9 L 186.8 108.4 L 187.5 108.4 " fill="#0000FF"/>
<path class="atom-31" d="M 187.2 124.1 L 188.6 126.4 Q 188.7 126.7, 189.0 127.1 Q 189.2 127.5, 189.2 127.5 L 189.2 124.1 L 189.8 124.1 L 189.8 128.5 L 189.2 128.5 L 187.6 126.0 Q 187.5 125.7, 187.3 125.3 Q 187.1 125.0, 187.0 124.9 L 187.0 128.5 L 186.4 128.5 L 186.4 124.1 L 187.2 124.1 " fill="#0000FF"/>
<path class="atom-33" d="M 172.3 133.8 Q 172.3 132.8, 172.9 132.2 Q 173.4 131.6, 174.4 131.6 Q 175.4 131.6, 175.9 132.2 Q 176.4 132.8, 176.4 133.8 Q 176.4 134.9, 175.9 135.5 Q 175.3 136.1, 174.4 136.1 Q 173.4 136.1, 172.9 135.5 Q 172.3 134.9, 172.3 133.8 M 174.4 135.6 Q 175.1 135.6, 175.4 135.2 Q 175.8 134.7, 175.8 133.8 Q 175.8 133.0, 175.4 132.5 Q 175.1 132.1, 174.4 132.1 Q 173.7 132.1, 173.3 132.5 Q 173.0 132.9, 173.0 133.8 Q 173.0 134.7, 173.3 135.2 Q 173.7 135.6, 174.4 135.6 " fill="#FF0000"/>
<path class="atom-34" d="M 172.7 147.3 L 175.3 147.3 L 175.3 147.8 L 173.3 147.8 L 173.3 149.1 L 175.1 149.1 L 175.1 149.6 L 173.3 149.6 L 173.3 151.7 L 172.7 151.7 L 172.7 147.3 " fill="#33CCCC"/>
<path class="atom-35" d="M 171.4 107.8 Q 171.4 106.7, 171.9 106.2 Q 172.4 105.6, 173.4 105.6 Q 174.3 105.6, 174.8 106.2 L 174.4 106.6 Q 174.0 106.1, 173.4 106.1 Q 172.7 106.1, 172.4 106.5 Q 172.0 107.0, 172.0 107.8 Q 172.0 108.7, 172.4 109.2 Q 172.8 109.6, 173.5 109.6 Q 174.0 109.6, 174.5 109.3 L 174.7 109.8 Q 174.5 109.9, 174.1 110.0 Q 173.8 110.1, 173.4 110.1 Q 172.4 110.1, 171.9 109.5 Q 171.4 108.9, 171.4 107.8 " fill="#000000"/>
<path class="atom-36" d="M 157.6 100.4 Q 157.6 99.3, 158.1 98.7 Q 158.6 98.1, 159.6 98.1 Q 160.5 98.1, 161.0 98.8 L 160.6 99.1 Q 160.3 98.6, 159.6 98.6 Q 159.0 98.6, 158.6 99.1 Q 158.2 99.5, 158.2 100.4 Q 158.2 101.3, 158.6 101.7 Q 159.0 102.2, 159.7 102.2 Q 160.2 102.2, 160.7 101.9 L 160.9 102.3 Q 160.7 102.5, 160.3 102.6 Q 160.0 102.7, 159.6 102.7 Q 158.6 102.7, 158.1 102.1 Q 157.6 101.5, 157.6 100.4 " fill="#000000"/>
<path class="atom-41" d="M 56.6 110.0 L 57.2 110.0 L 57.2 111.9 L 59.5 111.9 L 59.5 110.0 L 60.1 110.0 L 60.1 114.4 L 59.5 114.4 L 59.5 112.4 L 57.2 112.4 L 57.2 114.4 L 56.6 114.4 L 56.6 110.0 " fill="#FF0000"/>
<path class="atom-41" d="M 60.6 112.2 Q 60.6 111.1, 61.1 110.5 Q 61.7 109.9, 62.7 109.9 Q 63.6 109.9, 64.2 110.5 Q 64.7 111.1, 64.7 112.2 Q 64.7 113.3, 64.2 113.9 Q 63.6 114.5, 62.7 114.5 Q 61.7 114.5, 61.1 113.9 Q 60.6 113.3, 60.6 112.2 M 62.7 114.0 Q 63.3 114.0, 63.7 113.5 Q 64.1 113.1, 64.1 112.2 Q 64.1 111.3, 63.7 110.9 Q 63.3 110.4, 62.7 110.4 Q 62.0 110.4, 61.6 110.9 Q 61.2 111.3, 61.2 112.2 Q 61.2 113.1, 61.6 113.5 Q 62.0 114.0, 62.7 114.0 " fill="#FF0000"/>
<path class="atom-44" d="M 102.0 71.6 L 103.5 73.9 Q 103.6 74.2, 103.9 74.6 Q 104.1 75.0, 104.1 75.0 L 104.1 71.6 L 104.7 71.6 L 104.7 76.0 L 104.1 76.0 L 102.5 73.4 Q 102.4 73.1, 102.2 72.8 Q 102.0 72.5, 101.9 72.4 L 101.9 76.0 L 101.3 76.0 L 101.3 71.6 L 102.0 71.6 " fill="#0000FF"/>
<path class="bond-0 atom-0 atom-1" d="M 452.4,48.9 L 437.3,44.6" style="fill:none;fill-rule:evenodd;stroke:#000000;stroke-width:2.0px;stroke-linecap:butt;stroke-linejoin:miter;stroke-opacity:1"/>
<path class="bond-1 atom-1 atom-2" d="M 437.3,44.6 L 433.4,29.5" style="fill:none;fill-rule:evenodd;stroke:#000000;stroke-width:2.0px;stroke-linecap:butt;stroke-linejoin:miter;stroke-opacity:1"/>
<path class="bond-1 atom-1 atom-2" d="M 433.7,43.1 L 431.0,32.5" style="fill:none;fill-rule:evenodd;stroke:#000000;stroke-width:2.0px;stroke-linecap:butt;stroke-linejoin:miter;stroke-opacity:1"/>
<path class="bond-2 atom-2 atom-3" d="M 433.4,29.5 L 438.1,24.9" style="fill:none;fill-rule:evenodd;stroke:#000000;stroke-width:2.0px;stroke-linecap:butt;stroke-linejoin:miter;stroke-opacity:1"/>
<path class="bond-2 atom-2 atom-3" d="M 438.1,24.9 L 442.8,20.3" style="fill:none;fill-rule:evenodd;stroke:#33CCCC;stroke-width:2.0px;stroke-linecap:butt;stroke-linejoin:miter;stroke-opacity:1"/>
<path class="bond-3 atom-2 atom-4" d="M 433.4,29.5 L 418.4,25.2" style="fill:none;fill-rule:evenodd;stroke:#000000;stroke-width:2.0px;stroke-linecap:butt;stroke-linejoin:miter;stroke-opacity:1"/>
<path class="bond-4 atom-4 atom-5" d="M 418.4,25.2 L 407.1,36.1" style="fill:none;fill-rule:evenodd;stroke:#000000;stroke-width:2.0px;stroke-linecap:butt;stroke-linejoin:miter;stroke-opacity:1"/>
<path class="bond-4 atom-4 atom-5" d="M 418.9,29.1 L 411.0,36.7" style="fill:none;fill-rule:evenodd;stroke:#000000;stroke-width:2.0px;stroke-linecap:butt;stroke-linejoin:miter;stroke-opacity:1"/>
<path class="bond-5 atom-5 atom-6" d="M 407.1,36.1 L 411.0,51.3" style="fill:none;fill-rule:evenodd;stroke:#000000;stroke-width:2.0px;stroke-linecap:butt;stroke-linejoin:miter;stroke-opacity:1"/>
<path class="bond-6 atom-6 atom-7" d="M 411.0,51.3 L 426.1,55.6" style="fill:none;fill-rule:evenodd;stroke:#000000;stroke-width:2.0px;stroke-linecap:butt;stroke-linejoin:miter;stroke-opacity:1"/>
<path class="bond-6 atom-6 atom-7" d="M 414.1,49.0 L 424.7,51.9" style="fill:none;fill-rule:evenodd;stroke:#000000;stroke-width:2.0px;stroke-linecap:butt;stroke-linejoin:miter;stroke-opacity:1"/>
<path class="bond-7 atom-7 atom-8" d="M 426.1,55.6 L 430.0,70.8" style="fill:none;fill-rule:evenodd;stroke:#000000;stroke-width:2.0px;stroke-linecap:butt;stroke-linejoin:miter;stroke-opacity:1"/>
<path class="bond-8 atom-8 atom-9" d="M 430.0,70.8 L 418.7,81.7" style="fill:none;fill-rule:evenodd;stroke:#000000;stroke-width:2.0px;stroke-linecap:butt;stroke-linejoin:miter;stroke-opacity:1"/>
<path class="bond-9 atom-9 atom-10" d="M 418.7,81.7 L 421.0,97.2" style="fill:none;fill-rule:evenodd;stroke:#000000;stroke-width:2.0px;stroke-linecap:butt;stroke-linejoin:miter;stroke-opacity:1"/>
<path class="bond-9 atom-9 atom-10" d="M 416.0,84.5 L 417.5,95.3" style="fill:none;fill-rule:evenodd;stroke:#000000;stroke-width:2.0px;stroke-linecap:butt;stroke-linejoin:miter;stroke-opacity:1"/>
<path class="bond-10 atom-10 atom-11" d="M 421.0,97.2 L 434.9,104.5" style="fill:none;fill-rule:evenodd;stroke:#000000;stroke-width:2.0px;stroke-linecap:butt;stroke-linejoin:miter;stroke-opacity:1"/>
<path class="bond-11 atom-11 atom-12" d="M 436.4,104.4 L 436.7,110.9" style="fill:none;fill-rule:evenodd;stroke:#000000;stroke-width:2.0px;stroke-linecap:butt;stroke-linejoin:miter;stroke-opacity:1"/>
<path class="bond-11 atom-11 atom-12" d="M 436.7,110.9 L 436.9,117.3" style="fill:none;fill-rule:evenodd;stroke:#FF0000;stroke-width:2.0px;stroke-linecap:butt;stroke-linejoin:miter;stroke-opacity:1"/>
<path class="bond-11 atom-11 atom-12" d="M 433.3,104.6 L 433.5,111.0" style="fill:none;fill-rule:evenodd;stroke:#000000;stroke-width:2.0px;stroke-linecap:butt;stroke-linejoin:miter;stroke-opacity:1"/>
<path class="bond-11 atom-11 atom-12" d="M 433.5,111.0 L 433.8,117.5" style="fill:none;fill-rule:evenodd;stroke:#FF0000;stroke-width:2.0px;stroke-linecap:butt;stroke-linejoin:miter;stroke-opacity:1"/>
<path class="bond-12 atom-11 atom-13" d="M 434.9,104.5 L 440.4,101.0" style="fill:none;fill-rule:evenodd;stroke:#000000;stroke-width:2.0px;stroke-linecap:butt;stroke-linejoin:miter;stroke-opacity:1"/>
<path class="bond-12 atom-11 atom-13" d="M 440.4,101.0 L 445.9,97.5" style="fill:none;fill-rule:evenodd;stroke:#0000FF;stroke-width:2.0px;stroke-linecap:butt;stroke-linejoin:miter;stroke-opacity:1"/>
<path class="bond-13 atom-13 atom-14" d="M 446.9,93.4 L 445.0,89.0" style="fill:none;fill-rule:evenodd;stroke:#0000FF;stroke-width:2.0px;stroke-linecap:butt;stroke-linejoin:miter;stroke-opacity:1"/>
<path class="bond-13 atom-13 atom-14" d="M 445.0,89.0 L 443.1,84.6" style="fill:none;fill-rule:evenodd;stroke:#000000;stroke-width:2.0px;stroke-linecap:butt;stroke-linejoin:miter;stroke-opacity:1"/>
<path class="bond-14 atom-14 atom-15" d="M 441.7,79.0 L 440.7,69.0" style="fill:none;fill-rule:evenodd;stroke:#000000;stroke-width:2.0px;stroke-linecap:butt;stroke-linejoin:miter;stroke-opacity:1"/>
<path class="bond-15 atom-15 atom-16" d="M 441.1,63.4 L 442.2,58.5" style="fill:none;fill-rule:evenodd;stroke:#000000;stroke-width:2.0px;stroke-linecap:butt;stroke-linejoin:miter;stroke-opacity:1"/>
<path class="bond-15 atom-15 atom-16" d="M 442.2,58.5 L 443.3,53.7" style="fill:none;fill-rule:evenodd;stroke:#CCCC00;stroke-width:2.0px;stroke-linecap:butt;stroke-linejoin:miter;stroke-opacity:1"/>
<path class="bond-16 atom-16 atom-17" d="M 445.6,48.1 L 447.9,44.2" style="fill:none;fill-rule:evenodd;stroke:#CCCC00;stroke-width:2.0px;stroke-linecap:butt;stroke-linejoin:miter;stroke-opacity:1"/>
<path class="bond-16 atom-16 atom-17" d="M 447.9,44.2 L 450.3,40.2" style="fill:none;fill-rule:evenodd;stroke:#FF0000;stroke-width:2.0px;stroke-linecap:butt;stroke-linejoin:miter;stroke-opacity:1"/>
<path class="bond-17 atom-17 atom-18" d="M 454.5,35.1 L 458.1,31.9" style="fill:none;fill-rule:evenodd;stroke:#FF0000;stroke-width:2.0px;stroke-linecap:butt;stroke-linejoin:miter;stroke-opacity:1"/>
<path class="bond-17 atom-17 atom-18" d="M 458.1,31.9 L 461.8,28.8" style="fill:none;fill-rule:evenodd;stroke:#CCCC00;stroke-width:2.0px;stroke-linecap:butt;stroke-linejoin:miter;stroke-opacity:1"/>
<path class="bond-18 atom-18 atom-19" d="M 465.7,26.2 L 476.2,21.7" style="fill:none;fill-rule:evenodd;stroke:#CCCC00;stroke-width:2.0px;stroke-linecap:butt;stroke-linejoin:miter;stroke-opacity:1"/>
<path class="bond-19 atom-19 atom-20" d="M 480.0,20.7 L 491.8,19.6" style="fill:none;fill-rule:evenodd;stroke:#CCCC00;stroke-width:2.0px;stroke-linecap:butt;stroke-linejoin:miter;stroke-opacity:1"/>
<path class="bond-20 atom-20 atom-21" d="M 495.6,19.9 L 507.1,22.4" style="fill:none;fill-rule:evenodd;stroke:#CCCC00;stroke-width:2.0px;stroke-linecap:butt;stroke-linejoin:miter;stroke-opacity:1"/>
<path class="bond-21 atom-21 atom-22" d="M 510.9,24.0 L 515.6,26.8" style="fill:none;fill-rule:evenodd;stroke:#CCCC00;stroke-width:2.0px;stroke-linecap:butt;stroke-linejoin:miter;stroke-opacity:1"/>
<path class="bond-21 atom-21 atom-22" d="M 515.6,26.8 L 520.2,29.6" style="fill:none;fill-rule:evenodd;stroke:#000000;stroke-width:2.0px;stroke-linecap:butt;stroke-linejoin:miter;stroke-opacity:1"/>
<path class="bond-22 atom-22 atom-23" d="M 524.7,33.4 L 527.8,36.9" style="fill:none;fill-rule:evenodd;stroke:#000000;stroke-width:2.0px;stroke-linecap:butt;stroke-linejoin:miter;stroke-opacity:1"/>
<path class="bond-22 atom-22 atom-23" d="M 527.8,36.9 L 530.9,40.4" style="fill:none;fill-rule:evenodd;stroke:#CCCC00;stroke-width:2.0px;stroke-linecap:butt;stroke-linejoin:miter;stroke-opacity:1"/>
<path class="bond-23 atom-23 atom-24" d="M 534.0,45.5 L 535.9,49.9" style="fill:none;fill-rule:evenodd;stroke:#CCCC00;stroke-width:2.0px;stroke-linecap:butt;stroke-linejoin:miter;stroke-opacity:1"/>
<path class="bond-23 atom-23 atom-24" d="M 535.9,49.9 L 537.8,54.3" style="fill:none;fill-rule:evenodd;stroke:#0000FF;stroke-width:2.0px;stroke-linecap:butt;stroke-linejoin:miter;stroke-opacity:1"/>
<path class="bond-24 atom-24 atom-25" d="M 539.2,59.8 L 539.7,64.8" style="fill:none;fill-rule:evenodd;stroke:#0000FF;stroke-width:2.0px;stroke-linecap:butt;stroke-linejoin:miter;stroke-opacity:1"/>
<path class="bond-24 atom-24 atom-25" d="M 539.7,64.8 L 540.2,69.9" style="fill:none;fill-rule:evenodd;stroke:#000000;stroke-width:2.0px;stroke-linecap:butt;stroke-linejoin:miter;stroke-opacity:1"/>
<path class="bond-25 atom-25 atom-26" d="M 539.8,75.5 L 537.6,85.2" style="fill:none;fill-rule:evenodd;stroke:#000000;stroke-width:2.0px;stroke-linecap:butt;stroke-linejoin:miter;stroke-opacity:1"/>
<path class="bond-26 atom-26 atom-27" d="M 535.3,90.7 L 532.9,94.7" style="fill:none;fill-rule:evenodd;stroke:#000000;stroke-width:2.0px;stroke-linecap:butt;stroke-linejoin:miter;stroke-opacity:1"/>
<path class="bond-26 atom-26 atom-27" d="M 532.9,94.7 L 530.6,98.7" style="fill:none;fill-rule:evenodd;stroke:#0000FF;stroke-width:2.0px;stroke-linecap:butt;stroke-linejoin:miter;stroke-opacity:1"/>
<path class="bond-27 atom-27 atom-28" d="M 526.8,103.3 L 523.1,106.6" style="fill:none;fill-rule:evenodd;stroke:#0000FF;stroke-width:2.0px;stroke-linecap:butt;stroke-linejoin:miter;stroke-opacity:1"/>
<path class="bond-27 atom-27 atom-28" d="M 523.1,106.6 L 519.4,109.8" style="fill:none;fill-rule:evenodd;stroke:#000000;stroke-width:2.0px;stroke-linecap:butt;stroke-linejoin:miter;stroke-opacity:1"/>
<path class="bond-28 atom-28 atom-29" d="M 515.0,112.7 L 505.0,117.0" style="fill:none;fill-rule:evenodd;stroke:#000000;stroke-width:2.0px;stroke-linecap:butt;stroke-linejoin:miter;stroke-opacity:1"/>
<path class="bond-29 atom-29 atom-30" d="M 500.6,118.1 L 495.0,118.6" style="fill:none;fill-rule:evenodd;stroke:#000000;stroke-width:2.0px;stroke-linecap:butt;stroke-linejoin:miter;stroke-opacity:1"/>
<path class="bond-29 atom-29 atom-30" d="M 495.0,118.6 L 489.4,119.2" style="fill:none;fill-rule:evenodd;stroke:#0000FF;stroke-width:2.0px;stroke-linecap:butt;stroke-linejoin:miter;stroke-opacity:1"/>
<path class="bond-30 atom-30 atom-31" d="M 487.0,122.1 L 486.3,132.3" style="fill:none;fill-rule:evenodd;stroke:#0000FF;stroke-width:2.0px;stroke-linecap:butt;stroke-linejoin:miter;stroke-opacity:1"/>
<path class="bond-31 atom-31 atom-32" d="M 488.4,136.5 L 493.8,140.1" style="fill:none;fill-rule:evenodd;stroke:#0000FF;stroke-width:2.0px;stroke-linecap:butt;stroke-linejoin:miter;stroke-opacity:1"/>
<path class="bond-31 atom-31 atom-32" d="M 493.8,140.1 L 499.2,143.7" style="fill:none;fill-rule:evenodd;stroke:#000000;stroke-width:2.0px;stroke-linecap:butt;stroke-linejoin:miter;stroke-opacity:1"/>
<path class="bond-32 atom-31 atom-33" d="M 484.0,136.1 L 478.0,139.0" style="fill:none;fill-rule:evenodd;stroke:#0000FF;stroke-width:2.0px;stroke-linecap:butt;stroke-linejoin:miter;stroke-opacity:1"/>
<path class="bond-32 atom-31 atom-33" d="M 478.0,139.0 L 472.1,141.9" style="fill:none;fill-rule:evenodd;stroke:#000000;stroke-width:2.0px;stroke-linecap:butt;stroke-linejoin:miter;stroke-opacity:1"/>
<path class="bond-33 atom-30 atom-34" d="M 485.0,118.9 L 479.6,117.6" style="fill:none;fill-rule:evenodd;stroke:#0000FF;stroke-width:2.0px;stroke-linecap:butt;stroke-linejoin:miter;stroke-opacity:1"/>
<path class="bond-33 atom-30 atom-34" d="M 479.6,117.6 L 474.1,116.4" style="fill:none;fill-rule:evenodd;stroke:#000000;stroke-width:2.0px;stroke-linecap:butt;stroke-linejoin:miter;stroke-opacity:1"/>
<path class="bond-34 atom-34 atom-35" d="M 469.7,114.6 L 460.7,109.2" style="fill:none;fill-rule:evenodd;stroke:#000000;stroke-width:2.0px;stroke-linecap:butt;stroke-linejoin:miter;stroke-opacity:1"/>
<path class="bond-35 atom-10 atom-36" d="M 421.0,97.2 L 406.9,104.1" style="fill:none;fill-rule:evenodd;stroke:#000000;stroke-width:2.0px;stroke-linecap:butt;stroke-linejoin:miter;stroke-opacity:1"/>
<path class="bond-36 atom-36 atom-37" d="M 406.9,104.1 L 402.7,119.2" style="fill:none;fill-rule:evenodd;stroke:#000000;stroke-width:2.0px;stroke-linecap:butt;stroke-linejoin:miter;stroke-opacity:1"/>
<path class="bond-36 atom-36 atom-37" d="M 403.3,105.6 L 400.3,116.1" style="fill:none;fill-rule:evenodd;stroke:#000000;stroke-width:2.0px;stroke-linecap:butt;stroke-linejoin:miter;stroke-opacity:1"/>
<path class="bond-37 atom-37 atom-38" d="M 402.7,119.2 L 387.5,123.1" style="fill:none;fill-rule:evenodd;stroke:#000000;stroke-width:2.0px;stroke-linecap:butt;stroke-linejoin:miter;stroke-opacity:1"/>
<path class="bond-38 atom-38 atom-39" d="M 387.5,123.1 L 376.6,111.9" style="fill:none;fill-rule:evenodd;stroke:#000000;stroke-width:2.0px;stroke-linecap:butt;stroke-linejoin:miter;stroke-opacity:1"/>
<path class="bond-38 atom-38 atom-39" d="M 388.1,119.2 L 380.5,111.4" style="fill:none;fill-rule:evenodd;stroke:#000000;stroke-width:2.0px;stroke-linecap:butt;stroke-linejoin:miter;stroke-opacity:1"/>
<path class="bond-39 atom-39 atom-40" d="M 376.6,111.9 L 370.3,113.5" style="fill:none;fill-rule:evenodd;stroke:#000000;stroke-width:2.0px;stroke-linecap:butt;stroke-linejoin:miter;stroke-opacity:1"/>
<path class="bond-39 atom-39 atom-40" d="M 370.3,113.5 L 363.9,115.1" style="fill:none;fill-rule:evenodd;stroke:#FF0000;stroke-width:2.0px;stroke-linecap:butt;stroke-linejoin:miter;stroke-opacity:1"/>
<path class="bond-40 atom-39 atom-41" d="M 376.6,111.9 L 380.8,96.8" style="fill:none;fill-rule:evenodd;stroke:#000000;stroke-width:2.0px;stroke-linecap:butt;stroke-linejoin:miter;stroke-opacity:1"/>
<path class="bond-41 atom-41 atom-42" d="M 380.8,96.8 L 396.0,92.9" style="fill:none;fill-rule:evenodd;stroke:#000000;stroke-width:2.0px;stroke-linecap:butt;stroke-linejoin:miter;stroke-opacity:1"/>
<path class="bond-41 atom-41 atom-42" d="M 383.9,99.2 L 394.5,96.5" style="fill:none;fill-rule:evenodd;stroke:#000000;stroke-width:2.0px;stroke-linecap:butt;stroke-linejoin:miter;stroke-opacity:1"/>
<path class="bond-42 atom-42 atom-43" d="M 396.0,92.9 L 398.9,87.4" style="fill:none;fill-rule:evenodd;stroke:#000000;stroke-width:2.0px;stroke-linecap:butt;stroke-linejoin:miter;stroke-opacity:1"/>
<path class="bond-42 atom-42 atom-43" d="M 398.9,87.4 L 401.9,81.8" style="fill:none;fill-rule:evenodd;stroke:#0000FF;stroke-width:2.0px;stroke-linecap:butt;stroke-linejoin:miter;stroke-opacity:1"/>
<path class="bond-43 atom-43 atom-44" d="M 401.9,76.3 L 399.1,70.7" style="fill:none;fill-rule:evenodd;stroke:#0000FF;stroke-width:2.0px;stroke-linecap:butt;stroke-linejoin:miter;stroke-opacity:1"/>
<path class="bond-43 atom-43 atom-44" d="M 399.1,70.7 L 396.4,65.0" style="fill:none;fill-rule:evenodd;stroke:#000000;stroke-width:2.0px;stroke-linecap:butt;stroke-linejoin:miter;stroke-opacity:1"/>
<path class="bond-44 atom-44 atom-45" d="M 396.4,65.0 L 380.7,64.0" style="fill:none;fill-rule:evenodd;stroke:#000000;stroke-width:2.0px;stroke-linecap:butt;stroke-linejoin:miter;stroke-opacity:1"/>
<path class="bond-44 atom-44 atom-45" d="M 394.2,61.7 L 383.3,61.0" style="fill:none;fill-rule:evenodd;stroke:#000000;stroke-width:2.0px;stroke-linecap:butt;stroke-linejoin:miter;stroke-opacity:1"/>
<path class="bond-45 atom-45 atom-46" d="M 380.7,64.0 L 373.8,49.9" style="fill:none;fill-rule:evenodd;stroke:#000000;stroke-width:2.0px;stroke-linecap:butt;stroke-linejoin:miter;stroke-opacity:1"/>
<path class="bond-46 atom-46 atom-47" d="M 373.8,49.9 L 382.5,36.9" style="fill:none;fill-rule:evenodd;stroke:#000000;stroke-width:2.0px;stroke-linecap:butt;stroke-linejoin:miter;stroke-opacity:1"/>
<path class="bond-46 atom-46 atom-47" d="M 377.7,49.7 L 383.8,40.6" style="fill:none;fill-rule:evenodd;stroke:#000000;stroke-width:2.0px;stroke-linecap:butt;stroke-linejoin:miter;stroke-opacity:1"/>
<path class="bond-47 atom-47 atom-48" d="M 382.5,36.9 L 398.1,37.9" style="fill:none;fill-rule:evenodd;stroke:#000000;stroke-width:2.0px;stroke-linecap:butt;stroke-linejoin:miter;stroke-opacity:1"/>
<path class="bond-48 atom-48 atom-49" d="M 398.1,37.9 L 405.1,52.0" style="fill:none;fill-rule:evenodd;stroke:#000000;stroke-width:2.0px;stroke-linecap:butt;stroke-linejoin:miter;stroke-opacity:1"/>
<path class="bond-48 atom-48 atom-49" d="M 396.4,41.4 L 401.2,51.2" style="fill:none;fill-rule:evenodd;stroke:#000000;stroke-width:2.0px;stroke-linecap:butt;stroke-linejoin:miter;stroke-opacity:1"/>
<path class="bond-49 atom-7 atom-1" d="M 426.1,55.6 L 437.3,44.6" style="fill:none;fill-rule:evenodd;stroke:#000000;stroke-width:2.0px;stroke-linecap:butt;stroke-linejoin:miter;stroke-opacity:1"/>
<path class="bond-50 atom-43 atom-9" d="M 405.5,79.4 L 412.1,80.6" style="fill:none;fill-rule:evenodd;stroke:#0000FF;stroke-width:2.0px;stroke-linecap:butt;stroke-linejoin:miter;stroke-opacity:1"/>
<path class="bond-50 atom-43 atom-9" d="M 412.1,80.6 L 418.7,81.7" style="fill:none;fill-rule:evenodd;stroke:#000000;stroke-width:2.0px;stroke-linecap:butt;stroke-linejoin:miter;stroke-opacity:1"/>
<path class="bond-51 atom-49 atom-44" d="M 405.1,52.0 L 396.4,65.0" style="fill:none;fill-rule:evenodd;stroke:#000000;stroke-width:2.0px;stroke-linecap:butt;stroke-linejoin:miter;stroke-opacity:1"/>
<path class="bond-52 atom-35 atom-13" d="M 456.2,105.4 L 453.3,102.0" style="fill:none;fill-rule:evenodd;stroke:#000000;stroke-width:2.0px;stroke-linecap:butt;stroke-linejoin:miter;stroke-opacity:1"/>
<path class="bond-52 atom-35 atom-13" d="M 453.3,102.0 L 450.3,98.6" style="fill:none;fill-rule:evenodd;stroke:#0000FF;stroke-width:2.0px;stroke-linecap:butt;stroke-linejoin:miter;stroke-opacity:1"/>
<path class="bond-53 atom-42 atom-36" d="M 396.0,92.9 L 406.9,104.1" style="fill:none;fill-rule:evenodd;stroke:#000000;stroke-width:2.0px;stroke-linecap:butt;stroke-linejoin:miter;stroke-opacity:1"/>
<path class="atom-3" d="M 443.3 16.3 L 446.0 16.3 L 446.0 16.8 L 443.9 16.8 L 443.9 18.2 L 445.8 18.2 L 445.8 18.7 L 443.9 18.7 L 443.9 20.7 L 443.3 20.7 L 443.3 16.3 " fill="#33CCCC"/>
<path class="atom-12" d="M 433.4 120.2 Q 433.4 119.1, 434.0 118.5 Q 434.5 117.9, 435.5 117.9 Q 436.5 117.9, 437.0 118.5 Q 437.5 119.1, 437.5 120.2 Q 437.5 121.2, 437.0 121.9 Q 436.4 122.5, 435.5 122.5 Q 434.5 122.5, 434.0 121.9 Q 433.4 121.2, 433.4 120.2 M 435.5 122.0 Q 436.2 122.0, 436.5 121.5 Q 436.9 121.1, 436.9 120.2 Q 436.9 119.3, 436.5 118.9 Q 436.2 118.4, 435.5 118.4 Q 434.8 118.4, 434.4 118.8 Q 434.1 119.3, 434.1 120.2 Q 434.1 121.1, 434.4 121.5 Q 434.8 122.0, 435.5 122.0 " fill="#FF0000"/>
<path class="atom-13" d="M 447.1 93.9 L 448.6 96.3 Q 448.7 96.5, 449.0 96.9 Q 449.2 97.3, 449.2 97.4 L 449.2 93.9 L 449.8 93.9 L 449.8 98.3 L 449.2 98.3 L 447.6 95.8 Q 447.4 95.5, 447.2 95.1 Q 447.1 94.8, 447.0 94.7 L 447.0 98.3 L 446.4 98.3 L 446.4 93.9 L 447.1 93.9 " fill="#0000FF"/>
<path class="atom-14" d="M 440.2 81.8 Q 440.2 80.7, 440.7 80.1 Q 441.2 79.5, 442.2 79.5 Q 443.1 79.5, 443.6 80.1 L 443.2 80.5 Q 442.9 80.0, 442.2 80.0 Q 441.6 80.0, 441.2 80.5 Q 440.8 80.9, 440.8 81.8 Q 440.8 82.6, 441.2 83.1 Q 441.6 83.5, 442.3 83.5 Q 442.8 83.5, 443.4 83.2 L 443.5 83.7 Q 443.3 83.9, 442.9 83.9 Q 442.6 84.0, 442.2 84.0 Q 441.2 84.0, 440.7 83.4 Q 440.2 82.9, 440.2 81.8 " fill="#000000"/>
<path class="atom-15" d="M 438.8 66.2 Q 438.8 65.0, 439.3 64.5 Q 439.8 63.9, 440.8 63.9 Q 441.7 63.9, 442.2 64.5 L 441.8 64.9 Q 441.4 64.4, 440.8 64.4 Q 440.1 64.4, 439.8 64.9 Q 439.4 65.3, 439.4 66.2 Q 439.4 67.0, 439.8 67.5 Q 440.1 67.9, 440.9 67.9 Q 441.3 67.9, 441.9 67.6 L 442.1 68.1 Q 441.9 68.3, 441.5 68.3 Q 441.2 68.4, 440.8 68.4 Q 439.8 68.4, 439.3 67.8 Q 438.8 67.3, 438.8 66.2 " fill="#000000"/>
<path class="atom-16" d="M 442.7 52.4 Q 442.7 52.4, 442.9 52.5 Q 443.1 52.6, 443.4 52.6 Q 443.6 52.7, 443.8 52.7 Q 444.2 52.7, 444.5 52.5 Q 444.7 52.3, 444.7 51.9 Q 444.7 51.7, 444.6 51.5 Q 444.5 51.4, 444.3 51.3 Q 444.1 51.2, 443.8 51.1 Q 443.4 51.0, 443.2 50.9 Q 442.9 50.8, 442.8 50.5 Q 442.6 50.3, 442.6 49.9 Q 442.6 49.3, 443.0 49.0 Q 443.4 48.6, 444.1 48.6 Q 444.6 48.6, 445.2 48.9 L 445.1 49.4 Q 444.5 49.1, 444.1 49.1 Q 443.7 49.1, 443.5 49.3 Q 443.2 49.5, 443.2 49.8 Q 443.2 50.0, 443.3 50.2 Q 443.5 50.3, 443.6 50.4 Q 443.8 50.5, 444.1 50.6 Q 444.5 50.7, 444.8 50.8 Q 445.0 51.0, 445.2 51.2 Q 445.4 51.5, 445.4 51.9 Q 445.4 52.5, 444.9 52.9 Q 444.5 53.2, 443.8 53.2 Q 443.5 53.2, 443.2 53.1 Q 442.9 53.0, 442.5 52.9 L 442.7 52.4 " fill="#CCCC00"/>
<path class="atom-17" d="M 449.9 37.4 Q 449.9 36.3, 450.4 35.7 Q 451.0 35.1, 451.9 35.1 Q 452.9 35.1, 453.4 35.7 Q 454.0 36.3, 454.0 37.4 Q 454.0 38.5, 453.4 39.1 Q 452.9 39.7, 451.9 39.7 Q 451.0 39.7, 450.4 39.1 Q 449.9 38.5, 449.9 37.4 M 451.9 39.2 Q 452.6 39.2, 453.0 38.7 Q 453.3 38.3, 453.3 37.4 Q 453.3 36.5, 453.0 36.1 Q 452.6 35.6, 451.9 35.6 Q 451.3 35.6, 450.9 36.1 Q 450.5 36.5, 450.5 37.4 Q 450.5 38.3, 450.9 38.7 Q 451.3 39.2, 451.9 39.2 " fill="#FF0000"/>
<path class="atom-18" d="M 462.5 28.6 Q 462.5 28.6, 462.7 28.7 Q 462.9 28.8, 463.1 28.8 Q 463.4 28.9, 463.6 28.9 Q 464.0 28.9, 464.3 28.7 Q 464.5 28.5, 464.5 28.1 Q 464.5 27.9, 464.4 27.7 Q 464.3 27.6, 464.1 27.5 Q 463.9 27.4, 463.6 27.3 Q 463.2 27.2, 462.9 27.1 Q 462.7 27.0, 462.5 26.7 Q 462.4 26.5, 462.4 26.1 Q 462.4 25.5, 462.8 25.2 Q 463.1 24.8, 463.9 24.8 Q 464.4 24.8, 465.0 25.1 L 464.8 25.6 Q 464.3 25.3, 463.9 25.3 Q 463.5 25.3, 463.2 25.5 Q 463.0 25.7, 463.0 26.0 Q 463.0 26.2, 463.1 26.4 Q 463.3 26.5, 463.4 26.6 Q 463.6 26.7, 463.9 26.8 Q 464.3 26.9, 464.6 27.0 Q 464.8 27.2, 465.0 27.4 Q 465.1 27.7, 465.1 28.1 Q 465.1 28.7, 464.7 29.1 Q 464.3 29.4, 463.6 29.4 Q 463.2 29.4, 462.9 29.3 Q 462.6 29.2, 462.3 29.1 L 462.5 28.6 " fill="#CCCC00"/>
<path class="atom-19" d="M 476.9 22.4 Q 476.9 22.4, 477.1 22.5 Q 477.3 22.6, 477.5 22.6 Q 477.8 22.7, 478.0 22.7 Q 478.4 22.7, 478.7 22.5 Q 478.9 22.3, 478.9 21.9 Q 478.9 21.7, 478.8 21.5 Q 478.7 21.4, 478.5 21.3 Q 478.3 21.2, 478.0 21.1 Q 477.6 21.0, 477.3 20.9 Q 477.1 20.8, 476.9 20.5 Q 476.8 20.3, 476.8 19.9 Q 476.8 19.3, 477.2 19.0 Q 477.5 18.6, 478.3 18.6 Q 478.8 18.6, 479.4 18.9 L 479.2 19.4 Q 478.7 19.2, 478.3 19.2 Q 477.9 19.2, 477.6 19.3 Q 477.4 19.5, 477.4 19.8 Q 477.4 20.1, 477.5 20.2 Q 477.6 20.3, 477.8 20.4 Q 478.0 20.5, 478.3 20.6 Q 478.7 20.7, 478.9 20.9 Q 479.2 21.0, 479.4 21.2 Q 479.5 21.5, 479.5 21.9 Q 479.5 22.5, 479.1 22.9 Q 478.7 23.2, 478.0 23.2 Q 477.6 23.2, 477.3 23.1 Q 477.0 23.0, 476.7 22.9 L 476.9 22.4 " fill="#CCCC00"/>
<path class="atom-20" d="M 492.5 20.9 Q 492.5 21.0, 492.7 21.0 Q 492.9 21.1, 493.1 21.2 Q 493.4 21.2, 493.6 21.2 Q 494.0 21.2, 494.3 21.0 Q 494.5 20.8, 494.5 20.5 Q 494.5 20.2, 494.4 20.1 Q 494.3 19.9, 494.1 19.9 Q 493.9 19.8, 493.6 19.7 Q 493.2 19.6, 492.9 19.4 Q 492.7 19.3, 492.5 19.1 Q 492.4 18.9, 492.4 18.5 Q 492.4 17.9, 492.8 17.6 Q 493.1 17.2, 493.9 17.2 Q 494.4 17.2, 495.0 17.5 L 494.8 17.9 Q 494.3 17.7, 493.9 17.7 Q 493.5 17.7, 493.2 17.9 Q 493.0 18.1, 493.0 18.4 Q 493.0 18.6, 493.1 18.8 Q 493.2 18.9, 493.4 19.0 Q 493.6 19.1, 493.9 19.2 Q 494.3 19.3, 494.5 19.4 Q 494.8 19.5, 495.0 19.8 Q 495.1 20.0, 495.1 20.5 Q 495.1 21.1, 494.7 21.4 Q 494.3 21.8, 493.6 21.8 Q 493.2 21.8, 492.9 21.7 Q 492.6 21.6, 492.3 21.4 L 492.5 20.9 " fill="#CCCC00"/>
<path class="atom-21" d="M 507.7 24.4 Q 507.8 24.4, 508.0 24.5 Q 508.2 24.6, 508.4 24.6 Q 508.7 24.7, 508.9 24.7 Q 509.3 24.7, 509.5 24.5 Q 509.8 24.3, 509.8 23.9 Q 509.8 23.7, 509.7 23.5 Q 509.5 23.4, 509.4 23.3 Q 509.2 23.2, 508.9 23.1 Q 508.5 23.0, 508.2 22.9 Q 508.0 22.8, 507.8 22.5 Q 507.7 22.3, 507.7 21.9 Q 507.7 21.3, 508.0 21.0 Q 508.4 20.7, 509.2 20.7 Q 509.7 20.7, 510.3 20.9 L 510.1 21.4 Q 509.6 21.2, 509.2 21.2 Q 508.8 21.2, 508.5 21.3 Q 508.3 21.5, 508.3 21.8 Q 508.3 22.1, 508.4 22.2 Q 508.5 22.4, 508.7 22.4 Q 508.9 22.5, 509.2 22.6 Q 509.6 22.7, 509.8 22.9 Q 510.1 23.0, 510.2 23.2 Q 510.4 23.5, 510.4 23.9 Q 510.4 24.5, 510.0 24.9 Q 509.6 25.2, 508.9 25.2 Q 508.5 25.2, 508.2 25.1 Q 507.9 25.0, 507.6 24.9 L 507.7 24.4 " fill="#CCCC00"/>
<path class="atom-22" d="M 520.7 30.9 Q 520.7 29.8, 521.3 29.2 Q 521.8 28.6, 522.8 28.6 Q 523.7 28.6, 524.2 29.3 L 523.8 29.6 Q 523.4 29.1, 522.8 29.1 Q 522.1 29.1, 521.7 29.6 Q 521.4 30.0, 521.4 30.9 Q 521.4 31.8, 521.7 32.2 Q 522.1 32.7, 522.8 32.7 Q 523.3 32.7, 523.9 32.4 L 524.1 32.9 Q 523.8 33.0, 523.5 33.1 Q 523.1 33.2, 522.7 33.2 Q 521.8 33.2, 521.3 32.6 Q 520.7 32.0, 520.7 30.9 " fill="#000000"/>
<path class="atom-23" d="M 531.5 44.2 Q 531.6 44.2, 531.8 44.3 Q 532.0 44.4, 532.2 44.4 Q 532.5 44.5, 532.7 44.5 Q 533.1 44.5, 533.4 44.3 Q 533.6 44.1, 533.6 43.7 Q 533.6 43.5, 533.5 43.3 Q 533.4 43.2, 533.2 43.1 Q 533.0 43.0, 532.7 42.9 Q 532.3 42.8, 532.0 42.7 Q 531.8 42.6, 531.6 42.3 Q 531.5 42.1, 531.5 41.7 Q 531.5 41.1, 531.8 40.8 Q 532.2 40.4, 533.0 40.4 Q 533.5 40.4, 534.1 40.7 L 533.9 41.2 Q 533.4 40.9, 533.0 40.9 Q 532.6 40.9, 532.3 41.1 Q 532.1 41.3, 532.1 41.6 Q 532.1 41.9, 532.2 42.0 Q 532.3 42.1, 532.5 42.2 Q 532.7 42.3, 533.0 42.4 Q 533.4 42.5, 533.6 42.6 Q 533.9 42.8, 534.0 43.0 Q 534.2 43.3, 534.2 43.7 Q 534.2 44.3, 533.8 44.7 Q 533.4 45.0, 532.7 45.0 Q 532.3 45.0, 532.0 44.9 Q 531.7 44.8, 531.4 44.7 L 531.5 44.2 " fill="#CCCC00"/>
<path class="atom-24" d="M 538.0 54.8 L 539.5 57.2 Q 539.6 57.4, 539.8 57.8 Q 540.1 58.3, 540.1 58.3 L 540.1 54.8 L 540.7 54.8 L 540.7 59.3 L 540.1 59.3 L 538.5 56.7 Q 538.3 56.4, 538.1 56.1 Q 537.9 55.7, 537.9 55.6 L 537.9 59.3 L 537.3 59.3 L 537.3 54.8 L 538.0 54.8 " fill="#0000FF"/>
<path class="atom-24" d="M 541.2 54.8 L 541.8 54.8 L 541.8 56.7 L 544.1 56.7 L 544.1 54.8 L 544.7 54.8 L 544.7 59.3 L 544.1 59.3 L 544.1 57.2 L 541.8 57.2 L 541.8 59.3 L 541.2 59.3 L 541.2 54.8 " fill="#0000FF"/>
<path class="atom-25" d="M 538.7 72.7 Q 538.7 71.6, 539.2 71.0 Q 539.7 70.4, 540.7 70.4 Q 541.6 70.4, 542.1 71.1 L 541.7 71.4 Q 541.4 70.9, 540.7 70.9 Q 540.1 70.9, 539.7 71.4 Q 539.4 71.8, 539.4 72.7 Q 539.4 73.5, 539.7 74.0 Q 540.1 74.4, 540.8 74.4 Q 541.3 74.4, 541.9 74.2 L 542.0 74.6 Q 541.8 74.8, 541.4 74.9 Q 541.1 74.9, 540.7 74.9 Q 539.7 74.9, 539.2 74.4 Q 538.7 73.8, 538.7 72.7 " fill="#000000"/>
<path class="atom-26" d="M 535.3 88.0 Q 535.3 86.8, 535.8 86.3 Q 536.3 85.7, 537.3 85.7 Q 538.2 85.7, 538.7 86.3 L 538.3 86.7 Q 537.9 86.2, 537.3 86.2 Q 536.6 86.2, 536.2 86.7 Q 535.9 87.1, 535.9 88.0 Q 535.9 88.8, 536.3 89.3 Q 536.6 89.7, 537.3 89.7 Q 537.8 89.7, 538.4 89.4 L 538.6 89.9 Q 538.3 90.1, 538.0 90.1 Q 537.6 90.2, 537.3 90.2 Q 536.3 90.2, 535.8 89.6 Q 535.3 89.1, 535.3 88.0 " fill="#000000"/>
<path class="atom-27" d="M 528.0 99.2 L 529.4 101.5 Q 529.6 101.8, 529.8 102.2 Q 530.0 102.6, 530.1 102.6 L 530.1 99.2 L 530.6 99.2 L 530.6 103.6 L 530.0 103.6 L 528.5 101.0 Q 528.3 100.7, 528.1 100.4 Q 527.9 100.1, 527.9 100.0 L 527.9 103.6 L 527.3 103.6 L 527.3 99.2 L 528.0 99.2 " fill="#0000FF"/>
<path class="atom-27" d="M 531.2 99.2 L 531.8 99.2 L 531.8 101.1 L 534.0 101.1 L 534.0 99.2 L 534.6 99.2 L 534.6 103.6 L 534.0 103.6 L 534.0 101.6 L 531.8 101.6 L 531.8 103.6 L 531.2 103.6 L 531.2 99.2 " fill="#0000FF"/>
<path class="atom-28" d="M 515.5 111.8 Q 515.5 110.7, 516.0 110.1 Q 516.5 109.5, 517.5 109.5 Q 518.4 109.5, 518.9 110.1 L 518.5 110.5 Q 518.1 110.0, 517.5 110.0 Q 516.8 110.0, 516.5 110.5 Q 516.1 110.9, 516.1 111.8 Q 516.1 112.6, 516.5 113.1 Q 516.8 113.5, 517.6 113.5 Q 518.1 113.5, 518.6 113.2 L 518.8 113.7 Q 518.6 113.9, 518.2 113.9 Q 517.9 114.0, 517.5 114.0 Q 516.5 114.0, 516.0 113.4 Q 515.5 112.9, 515.5 111.8 " fill="#000000"/>
<path class="atom-29" d="M 501.1 117.9 Q 501.1 116.8, 501.6 116.3 Q 502.1 115.7, 503.1 115.7 Q 504.0 115.7, 504.5 116.3 L 504.1 116.7 Q 503.7 116.2, 503.1 116.2 Q 502.4 116.2, 502.1 116.6 Q 501.7 117.1, 501.7 117.9 Q 501.7 118.8, 502.1 119.3 Q 502.5 119.7, 503.2 119.7 Q 503.7 119.7, 504.2 119.4 L 504.4 119.9 Q 504.2 120.1, 503.8 120.1 Q 503.5 120.2, 503.1 120.2 Q 502.1 120.2, 501.6 119.6 Q 501.1 119.0, 501.1 117.9 " fill="#000000"/>
<path class="atom-30" d="M 486.2 117.1 L 487.7 119.5 Q 487.8 119.7, 488.0 120.1 Q 488.3 120.6, 488.3 120.6 L 488.3 117.1 L 488.9 117.1 L 488.9 121.6 L 488.3 121.6 L 486.7 119.0 Q 486.5 118.7, 486.3 118.4 Q 486.1 118.0, 486.1 117.9 L 486.1 121.6 L 485.5 121.6 L 485.5 117.1 L 486.2 117.1 " fill="#0000FF"/>
<path class="atom-31" d="M 485.2 132.8 L 486.6 135.1 Q 486.8 135.4, 487.0 135.8 Q 487.3 136.2, 487.3 136.2 L 487.3 132.8 L 487.9 132.8 L 487.9 137.2 L 487.2 137.2 L 485.7 134.6 Q 485.5 134.3, 485.3 134.0 Q 485.1 133.7, 485.1 133.6 L 485.1 137.2 L 484.5 137.2 L 484.5 132.8 L 485.2 132.8 " fill="#0000FF"/>
<path class="atom-34" d="M 470.2 115.9 Q 470.2 114.8, 470.7 114.3 Q 471.2 113.7, 472.2 113.7 Q 473.1 113.7, 473.6 114.3 L 473.2 114.7 Q 472.8 114.2, 472.2 114.2 Q 471.5 114.2, 471.2 114.6 Q 470.8 115.1, 470.8 115.9 Q 470.8 116.8, 471.2 117.3 Q 471.6 117.7, 472.3 117.7 Q 472.8 117.7, 473.3 117.4 L 473.5 117.9 Q 473.3 118.0, 472.9 118.1 Q 472.6 118.2, 472.2 118.2 Q 471.2 118.2, 470.7 117.6 Q 470.2 117.0, 470.2 115.9 " fill="#000000"/>
<path class="atom-35" d="M 456.7 107.9 Q 456.7 106.8, 457.2 106.2 Q 457.8 105.7, 458.7 105.7 Q 459.7 105.7, 460.2 106.3 L 459.7 106.6 Q 459.4 106.2, 458.7 106.2 Q 458.1 106.2, 457.7 106.6 Q 457.4 107.1, 457.4 107.9 Q 457.4 108.8, 457.7 109.3 Q 458.1 109.7, 458.8 109.7 Q 459.3 109.7, 459.9 109.4 L 460.1 109.9 Q 459.8 110.0, 459.5 110.1 Q 459.1 110.2, 458.7 110.2 Q 457.8 110.2, 457.2 109.6 Q 456.7 109.0, 456.7 107.9 " fill="#000000"/>
<path class="atom-40" d="M 355.3 113.5 L 355.9 113.5 L 355.9 115.4 L 358.2 115.4 L 358.2 113.5 L 358.8 113.5 L 358.8 118.0 L 358.2 118.0 L 358.2 115.9 L 355.9 115.9 L 355.9 118.0 L 355.3 118.0 L 355.3 113.5 " fill="#FF0000"/>
<path class="atom-40" d="M 359.3 115.7 Q 359.3 114.7, 359.9 114.1 Q 360.4 113.5, 361.4 113.5 Q 362.4 113.5, 362.9 114.1 Q 363.4 114.7, 363.4 115.7 Q 363.4 116.8, 362.9 117.4 Q 362.4 118.0, 361.4 118.0 Q 360.4 118.0, 359.9 117.4 Q 359.3 116.8, 359.3 115.7 M 361.4 117.5 Q 362.1 117.5, 362.4 117.1 Q 362.8 116.6, 362.8 115.7 Q 362.8 114.9, 362.4 114.4 Q 362.1 114.0, 361.4 114.0 Q 360.7 114.0, 360.3 114.4 Q 360.0 114.9, 360.0 115.7 Q 360.0 116.6, 360.3 117.1 Q 360.7 117.5, 361.4 117.5 " fill="#FF0000"/>
<path class="atom-43" d="M 402.3 76.8 L 403.8 79.2 Q 403.9 79.4, 404.1 79.8 Q 404.4 80.3, 404.4 80.3 L 404.4 76.8 L 405.0 76.8 L 405.0 81.3 L 404.4 81.3 L 402.8 78.7 Q 402.6 78.4, 402.4 78.1 Q 402.2 77.7, 402.2 77.6 L 402.2 81.3 L 401.6 81.3 L 401.6 76.8 L 402.3 76.8 " fill="#0000FF"/>
<path class="bond-0 atom-0 atom-1" d="M 750.9,42.7 L 735.6,39.1" style="fill:none;fill-rule:evenodd;stroke:#000000;stroke-width:2.0px;stroke-linecap:butt;stroke-linejoin:miter;stroke-opacity:1"/>
<path class="bond-1 atom-1 atom-2" d="M 735.6,39.1 L 731.1,24.0" style="fill:none;fill-rule:evenodd;stroke:#000000;stroke-width:2.0px;stroke-linecap:butt;stroke-linejoin:miter;stroke-opacity:1"/>
<path class="bond-1 atom-1 atom-2" d="M 731.9,37.7 L 728.8,27.2" style="fill:none;fill-rule:evenodd;stroke:#000000;stroke-width:2.0px;stroke-linecap:butt;stroke-linejoin:miter;stroke-opacity:1"/>
<path class="bond-2 atom-2 atom-3" d="M 731.1,24.0 L 735.6,19.3" style="fill:none;fill-rule:evenodd;stroke:#000000;stroke-width:2.0px;stroke-linecap:butt;stroke-linejoin:miter;stroke-opacity:1"/>
<path class="bond-2 atom-2 atom-3" d="M 735.6,19.3 L 740.1,14.6" style="fill:none;fill-rule:evenodd;stroke:#33CCCC;stroke-width:2.0px;stroke-linecap:butt;stroke-linejoin:miter;stroke-opacity:1"/>
<path class="bond-3 atom-2 atom-4" d="M 731.1,24.0 L 715.9,20.4" style="fill:none;fill-rule:evenodd;stroke:#000000;stroke-width:2.0px;stroke-linecap:butt;stroke-linejoin:miter;stroke-opacity:1"/>
<path class="bond-4 atom-4 atom-5" d="M 715.9,20.4 L 705.1,31.8" style="fill:none;fill-rule:evenodd;stroke:#000000;stroke-width:2.0px;stroke-linecap:butt;stroke-linejoin:miter;stroke-opacity:1"/>
<path class="bond-4 atom-4 atom-5" d="M 716.6,24.3 L 709.0,32.2" style="fill:none;fill-rule:evenodd;stroke:#000000;stroke-width:2.0px;stroke-linecap:butt;stroke-linejoin:miter;stroke-opacity:1"/>
<path class="bond-5 atom-5 atom-6" d="M 705.1,31.8 L 709.6,46.8" style="fill:none;fill-rule:evenodd;stroke:#000000;stroke-width:2.0px;stroke-linecap:butt;stroke-linejoin:miter;stroke-opacity:1"/>
<path class="bond-6 atom-6 atom-7" d="M 709.6,46.8 L 724.9,50.4" style="fill:none;fill-rule:evenodd;stroke:#000000;stroke-width:2.0px;stroke-linecap:butt;stroke-linejoin:miter;stroke-opacity:1"/>
<path class="bond-6 atom-6 atom-7" d="M 712.6,44.3 L 723.3,46.9" style="fill:none;fill-rule:evenodd;stroke:#000000;stroke-width:2.0px;stroke-linecap:butt;stroke-linejoin:miter;stroke-opacity:1"/>
<path class="bond-7 atom-7 atom-8" d="M 724.9,50.4 L 729.3,65.5" style="fill:none;fill-rule:evenodd;stroke:#000000;stroke-width:2.0px;stroke-linecap:butt;stroke-linejoin:miter;stroke-opacity:1"/>
<path class="bond-8 atom-8 atom-9" d="M 729.3,65.5 L 718.6,76.8" style="fill:none;fill-rule:evenodd;stroke:#000000;stroke-width:2.0px;stroke-linecap:butt;stroke-linejoin:miter;stroke-opacity:1"/>
<path class="bond-9 atom-9 atom-10" d="M 718.6,76.8 L 721.5,92.2" style="fill:none;fill-rule:evenodd;stroke:#000000;stroke-width:2.0px;stroke-linecap:butt;stroke-linejoin:miter;stroke-opacity:1"/>
<path class="bond-9 atom-9 atom-10" d="M 715.9,79.7 L 717.9,90.5" style="fill:none;fill-rule:evenodd;stroke:#000000;stroke-width:2.0px;stroke-linecap:butt;stroke-linejoin:miter;stroke-opacity:1"/>
<path class="bond-10 atom-10 atom-11" d="M 721.5,92.2 L 735.6,99.0" style="fill:none;fill-rule:evenodd;stroke:#000000;stroke-width:2.0px;stroke-linecap:butt;stroke-linejoin:miter;stroke-opacity:1"/>
<path class="bond-11 atom-11 atom-12" d="M 737.2,98.8 L 737.7,105.3" style="fill:none;fill-rule:evenodd;stroke:#000000;stroke-width:2.0px;stroke-linecap:butt;stroke-linejoin:miter;stroke-opacity:1"/>
<path class="bond-11 atom-11 atom-12" d="M 737.7,105.3 L 738.2,111.7" style="fill:none;fill-rule:evenodd;stroke:#FF0000;stroke-width:2.0px;stroke-linecap:butt;stroke-linejoin:miter;stroke-opacity:1"/>
<path class="bond-11 atom-11 atom-12" d="M 734.0,99.1 L 734.6,105.5" style="fill:none;fill-rule:evenodd;stroke:#000000;stroke-width:2.0px;stroke-linecap:butt;stroke-linejoin:miter;stroke-opacity:1"/>
<path class="bond-11 atom-11 atom-12" d="M 734.6,105.5 L 735.1,111.9" style="fill:none;fill-rule:evenodd;stroke:#FF0000;stroke-width:2.0px;stroke-linecap:butt;stroke-linejoin:miter;stroke-opacity:1"/>
<path class="bond-12 atom-11 atom-13" d="M 735.6,99.0 L 741.0,95.3" style="fill:none;fill-rule:evenodd;stroke:#000000;stroke-width:2.0px;stroke-linecap:butt;stroke-linejoin:miter;stroke-opacity:1"/>
<path class="bond-12 atom-11 atom-13" d="M 741.0,95.3 L 746.3,91.6" style="fill:none;fill-rule:evenodd;stroke:#0000FF;stroke-width:2.0px;stroke-linecap:butt;stroke-linejoin:miter;stroke-opacity:1"/>
<path class="bond-13 atom-13 atom-14" d="M 747.2,87.3 L 745.1,83.0" style="fill:none;fill-rule:evenodd;stroke:#0000FF;stroke-width:2.0px;stroke-linecap:butt;stroke-linejoin:miter;stroke-opacity:1"/>
<path class="bond-13 atom-13 atom-14" d="M 745.1,83.0 L 743.1,78.8" style="fill:none;fill-rule:evenodd;stroke:#000000;stroke-width:2.0px;stroke-linecap:butt;stroke-linejoin:miter;stroke-opacity:1"/>
<path class="bond-14 atom-14 atom-15" d="M 741.4,73.2 L 740.0,63.2" style="fill:none;fill-rule:evenodd;stroke:#000000;stroke-width:2.0px;stroke-linecap:butt;stroke-linejoin:miter;stroke-opacity:1"/>
<path class="bond-15 atom-15 atom-16" d="M 740.2,57.6 L 741.1,52.7" style="fill:none;fill-rule:evenodd;stroke:#000000;stroke-width:2.0px;stroke-linecap:butt;stroke-linejoin:miter;stroke-opacity:1"/>
<path class="bond-15 atom-15 atom-16" d="M 741.1,52.7 L 742.0,47.8" style="fill:none;fill-rule:evenodd;stroke:#CCCC00;stroke-width:2.0px;stroke-linecap:butt;stroke-linejoin:miter;stroke-opacity:1"/>
<path class="bond-16 atom-16 atom-17" d="M 744.0,42.3 L 746.2,38.1" style="fill:none;fill-rule:evenodd;stroke:#CCCC00;stroke-width:2.0px;stroke-linecap:butt;stroke-linejoin:miter;stroke-opacity:1"/>
<path class="bond-16 atom-16 atom-17" d="M 746.2,38.1 L 748.4,34.0" style="fill:none;fill-rule:evenodd;stroke:#FF0000;stroke-width:2.0px;stroke-linecap:butt;stroke-linejoin:miter;stroke-opacity:1"/>
<path class="bond-17 atom-17 atom-18" d="M 752.5,28.8 L 755.9,25.5" style="fill:none;fill-rule:evenodd;stroke:#FF0000;stroke-width:2.0px;stroke-linecap:butt;stroke-linejoin:miter;stroke-opacity:1"/>
<path class="bond-17 atom-17 atom-18" d="M 755.9,25.5 L 759.3,22.2" style="fill:none;fill-rule:evenodd;stroke:#CCCC00;stroke-width:2.0px;stroke-linecap:butt;stroke-linejoin:miter;stroke-opacity:1"/>
<path class="bond-18 atom-18 atom-19" d="M 763.2,19.5 L 773.5,14.6" style="fill:none;fill-rule:evenodd;stroke:#CCCC00;stroke-width:2.0px;stroke-linecap:butt;stroke-linejoin:miter;stroke-opacity:1"/>
<path class="bond-19 atom-19 atom-20" d="M 777.3,13.4 L 789.0,11.8" style="fill:none;fill-rule:evenodd;stroke:#CCCC00;stroke-width:2.0px;stroke-linecap:butt;stroke-linejoin:miter;stroke-opacity:1"/>
<path class="bond-20 atom-20 atom-21" d="M 792.9,11.9 L 798.5,12.9" style="fill:none;fill-rule:evenodd;stroke:#CCCC00;stroke-width:2.0px;stroke-linecap:butt;stroke-linejoin:miter;stroke-opacity:1"/>
<path class="bond-20 atom-20 atom-21" d="M 798.5,12.9 L 804.1,14.0" style="fill:none;fill-rule:evenodd;stroke:#0000FF;stroke-width:2.0px;stroke-linecap:butt;stroke-linejoin:miter;stroke-opacity:1"/>
<path class="bond-21 atom-21 atom-22" d="M 808.5,15.6 L 813.2,18.1" style="fill:none;fill-rule:evenodd;stroke:#0000FF;stroke-width:2.0px;stroke-linecap:butt;stroke-linejoin:miter;stroke-opacity:1"/>
<path class="bond-21 atom-21 atom-22" d="M 813.2,18.1 L 817.9,20.6" style="fill:none;fill-rule:evenodd;stroke:#000000;stroke-width:2.0px;stroke-linecap:butt;stroke-linejoin:miter;stroke-opacity:1"/>
<path class="bond-22 atom-22 atom-23" d="M 822.4,24.2 L 828.7,30.8" style="fill:none;fill-rule:evenodd;stroke:#000000;stroke-width:2.0px;stroke-linecap:butt;stroke-linejoin:miter;stroke-opacity:1"/>
<path class="bond-23 atom-23 atom-24" d="M 832.3,36.0 L 834.3,40.3" style="fill:none;fill-rule:evenodd;stroke:#000000;stroke-width:2.0px;stroke-linecap:butt;stroke-linejoin:miter;stroke-opacity:1"/>
<path class="bond-23 atom-23 atom-24" d="M 834.3,40.3 L 836.4,44.6" style="fill:none;fill-rule:evenodd;stroke:#0000FF;stroke-width:2.0px;stroke-linecap:butt;stroke-linejoin:miter;stroke-opacity:1"/>
<path class="bond-24 atom-24 atom-25" d="M 838.1,50.0 L 838.7,55.0" style="fill:none;fill-rule:evenodd;stroke:#0000FF;stroke-width:2.0px;stroke-linecap:butt;stroke-linejoin:miter;stroke-opacity:1"/>
<path class="bond-24 atom-24 atom-25" d="M 838.7,55.0 L 839.4,60.1" style="fill:none;fill-rule:evenodd;stroke:#000000;stroke-width:2.0px;stroke-linecap:butt;stroke-linejoin:miter;stroke-opacity:1"/>
<path class="bond-25 atom-25 atom-26" d="M 839.3,65.6 L 837.5,75.5" style="fill:none;fill-rule:evenodd;stroke:#000000;stroke-width:2.0px;stroke-linecap:butt;stroke-linejoin:miter;stroke-opacity:1"/>
<path class="bond-26 atom-26 atom-27" d="M 835.4,81.1 L 833.2,85.2" style="fill:none;fill-rule:evenodd;stroke:#000000;stroke-width:2.0px;stroke-linecap:butt;stroke-linejoin:miter;stroke-opacity:1"/>
<path class="bond-26 atom-26 atom-27" d="M 833.2,85.2 L 831.0,89.3" style="fill:none;fill-rule:evenodd;stroke:#0000FF;stroke-width:2.0px;stroke-linecap:butt;stroke-linejoin:miter;stroke-opacity:1"/>
<path class="bond-27 atom-27 atom-28" d="M 827.3,94.1 L 823.9,97.4" style="fill:none;fill-rule:evenodd;stroke:#0000FF;stroke-width:2.0px;stroke-linecap:butt;stroke-linejoin:miter;stroke-opacity:1"/>
<path class="bond-27 atom-27 atom-28" d="M 823.9,97.4 L 820.4,100.7" style="fill:none;fill-rule:evenodd;stroke:#000000;stroke-width:2.0px;stroke-linecap:butt;stroke-linejoin:miter;stroke-opacity:1"/>
<path class="bond-28 atom-28 atom-29" d="M 815.9,103.9 L 806.3,108.5" style="fill:none;fill-rule:evenodd;stroke:#000000;stroke-width:2.0px;stroke-linecap:butt;stroke-linejoin:miter;stroke-opacity:1"/>
<path class="bond-29 atom-29 atom-30" d="M 801.8,109.9 L 796.3,110.6" style="fill:none;fill-rule:evenodd;stroke:#000000;stroke-width:2.0px;stroke-linecap:butt;stroke-linejoin:miter;stroke-opacity:1"/>
<path class="bond-29 atom-29 atom-30" d="M 796.3,110.6 L 790.7,111.4" style="fill:none;fill-rule:evenodd;stroke:#0000FF;stroke-width:2.0px;stroke-linecap:butt;stroke-linejoin:miter;stroke-opacity:1"/>
<path class="bond-30 atom-30 atom-31" d="M 788.4,114.4 L 788.2,124.6" style="fill:none;fill-rule:evenodd;stroke:#0000FF;stroke-width:2.0px;stroke-linecap:butt;stroke-linejoin:miter;stroke-opacity:1"/>
<path class="bond-31 atom-31 atom-32" d="M 790.3,128.7 L 795.9,132.1" style="fill:none;fill-rule:evenodd;stroke:#0000FF;stroke-width:2.0px;stroke-linecap:butt;stroke-linejoin:miter;stroke-opacity:1"/>
<path class="bond-31 atom-31 atom-32" d="M 795.9,132.1 L 801.5,135.5" style="fill:none;fill-rule:evenodd;stroke:#000000;stroke-width:2.0px;stroke-linecap:butt;stroke-linejoin:miter;stroke-opacity:1"/>
<path class="bond-32 atom-31 atom-33" d="M 785.9,128.5 L 781.4,131.0" style="fill:none;fill-rule:evenodd;stroke:#0000FF;stroke-width:2.0px;stroke-linecap:butt;stroke-linejoin:miter;stroke-opacity:1"/>
<path class="bond-32 atom-31 atom-33" d="M 781.4,131.0 L 776.9,133.5" style="fill:none;fill-rule:evenodd;stroke:#FF0000;stroke-width:2.0px;stroke-linecap:butt;stroke-linejoin:miter;stroke-opacity:1"/>
<path class="bond-33 atom-33 atom-34" d="M 774.3,137.7 L 774.2,142.7" style="fill:none;fill-rule:evenodd;stroke:#FF0000;stroke-width:2.0px;stroke-linecap:butt;stroke-linejoin:miter;stroke-opacity:1"/>
<path class="bond-33 atom-33 atom-34" d="M 774.2,142.7 L 774.1,147.8" style="fill:none;fill-rule:evenodd;stroke:#33CCCC;stroke-width:2.0px;stroke-linecap:butt;stroke-linejoin:miter;stroke-opacity:1"/>
<path class="bond-34 atom-30 atom-35" d="M 786.3,111.3 L 780.8,110.3" style="fill:none;fill-rule:evenodd;stroke:#0000FF;stroke-width:2.0px;stroke-linecap:butt;stroke-linejoin:miter;stroke-opacity:1"/>
<path class="bond-34 atom-30 atom-35" d="M 780.8,110.3 L 775.3,109.3" style="fill:none;fill-rule:evenodd;stroke:#000000;stroke-width:2.0px;stroke-linecap:butt;stroke-linejoin:miter;stroke-opacity:1"/>
<path class="bond-35 atom-35 atom-36" d="M 770.9,107.6 L 761.5,102.6" style="fill:none;fill-rule:evenodd;stroke:#000000;stroke-width:2.0px;stroke-linecap:butt;stroke-linejoin:miter;stroke-opacity:1"/>
<path class="bond-36 atom-10 atom-37" d="M 721.5,92.2 L 707.7,99.7" style="fill:none;fill-rule:evenodd;stroke:#000000;stroke-width:2.0px;stroke-linecap:butt;stroke-linejoin:miter;stroke-opacity:1"/>
<path class="bond-37 atom-37 atom-38" d="M 707.7,99.7 L 704.1,115.0" style="fill:none;fill-rule:evenodd;stroke:#000000;stroke-width:2.0px;stroke-linecap:butt;stroke-linejoin:miter;stroke-opacity:1"/>
<path class="bond-37 atom-37 atom-38" d="M 704.1,101.3 L 701.6,112.0" style="fill:none;fill-rule:evenodd;stroke:#000000;stroke-width:2.0px;stroke-linecap:butt;stroke-linejoin:miter;stroke-opacity:1"/>
<path class="bond-38 atom-38 atom-39" d="M 704.1,115.0 L 689.1,119.5" style="fill:none;fill-rule:evenodd;stroke:#000000;stroke-width:2.0px;stroke-linecap:butt;stroke-linejoin:miter;stroke-opacity:1"/>
<path class="bond-39 atom-39 atom-40" d="M 689.1,119.5 L 677.7,108.7" style="fill:none;fill-rule:evenodd;stroke:#000000;stroke-width:2.0px;stroke-linecap:butt;stroke-linejoin:miter;stroke-opacity:1"/>
<path class="bond-39 atom-39 atom-40" d="M 689.5,115.6 L 681.5,108.0" style="fill:none;fill-rule:evenodd;stroke:#000000;stroke-width:2.0px;stroke-linecap:butt;stroke-linejoin:miter;stroke-opacity:1"/>
<path class="bond-40 atom-40 atom-41" d="M 677.7,108.7 L 671.4,110.6" style="fill:none;fill-rule:evenodd;stroke:#000000;stroke-width:2.0px;stroke-linecap:butt;stroke-linejoin:miter;stroke-opacity:1"/>
<path class="bond-40 atom-40 atom-41" d="M 671.4,110.6 L 665.2,112.4" style="fill:none;fill-rule:evenodd;stroke:#FF0000;stroke-width:2.0px;stroke-linecap:butt;stroke-linejoin:miter;stroke-opacity:1"/>
<path class="bond-41 atom-40 atom-42" d="M 677.7,108.7 L 681.3,93.5" style="fill:none;fill-rule:evenodd;stroke:#000000;stroke-width:2.0px;stroke-linecap:butt;stroke-linejoin:miter;stroke-opacity:1"/>
<path class="bond-42 atom-42 atom-43" d="M 681.3,93.5 L 696.3,89.0" style="fill:none;fill-rule:evenodd;stroke:#000000;stroke-width:2.0px;stroke-linecap:butt;stroke-linejoin:miter;stroke-opacity:1"/>
<path class="bond-42 atom-42 atom-43" d="M 684.4,95.8 L 695.0,92.7" style="fill:none;fill-rule:evenodd;stroke:#000000;stroke-width:2.0px;stroke-linecap:butt;stroke-linejoin:miter;stroke-opacity:1"/>
<path class="bond-43 atom-43 atom-44" d="M 696.3,89.0 L 699.0,83.3" style="fill:none;fill-rule:evenodd;stroke:#000000;stroke-width:2.0px;stroke-linecap:butt;stroke-linejoin:miter;stroke-opacity:1"/>
<path class="bond-43 atom-43 atom-44" d="M 699.0,83.3 L 701.7,77.6" style="fill:none;fill-rule:evenodd;stroke:#0000FF;stroke-width:2.0px;stroke-linecap:butt;stroke-linejoin:miter;stroke-opacity:1"/>
<path class="bond-44 atom-44 atom-45" d="M 701.5,72.1 L 698.5,66.6" style="fill:none;fill-rule:evenodd;stroke:#0000FF;stroke-width:2.0px;stroke-linecap:butt;stroke-linejoin:miter;stroke-opacity:1"/>
<path class="bond-44 atom-44 atom-45" d="M 698.5,66.6 L 695.5,61.1" style="fill:none;fill-rule:evenodd;stroke:#000000;stroke-width:2.0px;stroke-linecap:butt;stroke-linejoin:miter;stroke-opacity:1"/>
<path class="bond-45 atom-45 atom-46" d="M 695.5,61.1 L 679.9,60.7" style="fill:none;fill-rule:evenodd;stroke:#000000;stroke-width:2.0px;stroke-linecap:butt;stroke-linejoin:miter;stroke-opacity:1"/>
<path class="bond-45 atom-45 atom-46" d="M 693.3,57.9 L 682.3,57.6" style="fill:none;fill-rule:evenodd;stroke:#000000;stroke-width:2.0px;stroke-linecap:butt;stroke-linejoin:miter;stroke-opacity:1"/>
<path class="bond-46 atom-46 atom-47" d="M 679.9,60.7 L 672.4,46.9" style="fill:none;fill-rule:evenodd;stroke:#000000;stroke-width:2.0px;stroke-linecap:butt;stroke-linejoin:miter;stroke-opacity:1"/>
<path class="bond-47 atom-47 atom-48" d="M 672.4,46.9 L 680.5,33.6" style="fill:none;fill-rule:evenodd;stroke:#000000;stroke-width:2.0px;stroke-linecap:butt;stroke-linejoin:miter;stroke-opacity:1"/>
<path class="bond-47 atom-47 atom-48" d="M 676.3,46.6 L 682.0,37.2" style="fill:none;fill-rule:evenodd;stroke:#000000;stroke-width:2.0px;stroke-linecap:butt;stroke-linejoin:miter;stroke-opacity:1"/>
<path class="bond-48 atom-48 atom-49" d="M 680.5,33.6 L 696.2,33.9" style="fill:none;fill-rule:evenodd;stroke:#000000;stroke-width:2.0px;stroke-linecap:butt;stroke-linejoin:miter;stroke-opacity:1"/>
<path class="bond-49 atom-49 atom-50" d="M 696.2,33.9 L 703.7,47.7" style="fill:none;fill-rule:evenodd;stroke:#000000;stroke-width:2.0px;stroke-linecap:butt;stroke-linejoin:miter;stroke-opacity:1"/>
<path class="bond-49 atom-49 atom-50" d="M 694.6,37.5 L 699.8,47.1" style="fill:none;fill-rule:evenodd;stroke:#000000;stroke-width:2.0px;stroke-linecap:butt;stroke-linejoin:miter;stroke-opacity:1"/>
<path class="bond-50 atom-7 atom-1" d="M 724.9,50.4 L 735.6,39.1" style="fill:none;fill-rule:evenodd;stroke:#000000;stroke-width:2.0px;stroke-linecap:butt;stroke-linejoin:miter;stroke-opacity:1"/>
<path class="bond-51 atom-44 atom-9" d="M 705.2,75.1 L 711.9,76.0" style="fill:none;fill-rule:evenodd;stroke:#0000FF;stroke-width:2.0px;stroke-linecap:butt;stroke-linejoin:miter;stroke-opacity:1"/>
<path class="bond-51 atom-44 atom-9" d="M 711.9,76.0 L 718.6,76.8" style="fill:none;fill-rule:evenodd;stroke:#000000;stroke-width:2.0px;stroke-linecap:butt;stroke-linejoin:miter;stroke-opacity:1"/>
<path class="bond-52 atom-50 atom-45" d="M 703.7,47.7 L 695.5,61.1" style="fill:none;fill-rule:evenodd;stroke:#000000;stroke-width:2.0px;stroke-linecap:butt;stroke-linejoin:miter;stroke-opacity:1"/>
<path class="bond-53 atom-36 atom-13" d="M 757.1,99.1 L 753.9,95.7" style="fill:none;fill-rule:evenodd;stroke:#000000;stroke-width:2.0px;stroke-linecap:butt;stroke-linejoin:miter;stroke-opacity:1"/>
<path class="bond-53 atom-36 atom-13" d="M 753.9,95.7 L 750.7,92.4" style="fill:none;fill-rule:evenodd;stroke:#0000FF;stroke-width:2.0px;stroke-linecap:butt;stroke-linejoin:miter;stroke-opacity:1"/>
<path class="bond-54 atom-43 atom-37" d="M 696.3,89.0 L 707.7,99.7" style="fill:none;fill-rule:evenodd;stroke:#000000;stroke-width:2.0px;stroke-linecap:butt;stroke-linejoin:miter;stroke-opacity:1"/>
<path class="atom-3" d="M 740.6 10.4 L 743.2 10.4 L 743.2 10.9 L 741.2 10.9 L 741.2 12.3 L 743.0 12.3 L 743.0 12.8 L 741.2 12.8 L 741.2 14.9 L 740.6 14.9 L 740.6 10.4 " fill="#33CCCC"/>
<path class="atom-12" d="M 734.8 114.6 Q 734.8 113.5, 735.4 112.9 Q 735.9 112.3, 736.9 112.3 Q 737.9 112.3, 738.4 112.9 Q 738.9 113.5, 738.9 114.6 Q 738.9 115.7, 738.4 116.3 Q 737.8 116.9, 736.9 116.9 Q 735.9 116.9, 735.4 116.3 Q 734.8 115.7, 734.8 114.6 M 736.9 116.4 Q 737.5 116.4, 737.9 115.9 Q 738.3 115.5, 738.3 114.6 Q 738.3 113.7, 737.9 113.3 Q 737.5 112.8, 736.9 112.8 Q 736.2 112.8, 735.8 113.3 Q 735.5 113.7, 735.5 114.6 Q 735.5 115.5, 735.8 115.9 Q 736.2 116.4, 736.9 116.4 " fill="#FF0000"/>
<path class="atom-13" d="M 747.5 87.8 L 749.0 90.2 Q 749.1 90.4, 749.4 90.8 Q 749.6 91.3, 749.6 91.3 L 749.6 87.8 L 750.2 87.8 L 750.2 92.3 L 749.6 92.3 L 748.0 89.7 Q 747.8 89.4, 747.6 89.1 Q 747.5 88.7, 747.4 88.6 L 747.4 92.3 L 746.8 92.3 L 746.8 87.8 L 747.5 87.8 " fill="#0000FF"/>
<path class="atom-14" d="M 740.0 76.0 Q 740.0 74.8, 740.5 74.3 Q 741.1 73.7, 742.0 73.7 Q 743.0 73.7, 743.4 74.3 L 743.0 74.7 Q 742.7 74.2, 742.0 74.2 Q 741.4 74.2, 741.0 74.7 Q 740.7 75.1, 740.7 76.0 Q 740.7 76.8, 741.0 77.3 Q 741.4 77.7, 742.1 77.7 Q 742.6 77.7, 743.2 77.4 L 743.3 77.9 Q 743.1 78.1, 742.8 78.1 Q 742.4 78.2, 742.0 78.2 Q 741.1 78.2, 740.5 77.6 Q 740.0 77.1, 740.0 76.0 " fill="#000000"/>
<path class="atom-15" d="M 737.9 60.4 Q 737.9 59.3, 738.5 58.7 Q 739.0 58.2, 740.0 58.2 Q 740.9 58.2, 741.4 58.8 L 741.0 59.1 Q 740.6 58.7, 740.0 58.7 Q 739.3 58.7, 738.9 59.1 Q 738.6 59.6, 738.6 60.4 Q 738.6 61.3, 738.9 61.8 Q 739.3 62.2, 740.0 62.2 Q 740.5 62.2, 741.1 61.9 L 741.3 62.4 Q 741.0 62.5, 740.7 62.6 Q 740.3 62.7, 739.9 62.7 Q 739.0 62.7, 738.5 62.1 Q 737.9 61.5, 737.9 60.4 " fill="#000000"/>
<path class="atom-16" d="M 741.2 46.5 Q 741.3 46.5, 741.5 46.6 Q 741.7 46.7, 741.9 46.8 Q 742.1 46.8, 742.4 46.8 Q 742.8 46.8, 743.0 46.6 Q 743.3 46.4, 743.3 46.1 Q 743.3 45.8, 743.2 45.7 Q 743.0 45.5, 742.8 45.4 Q 742.7 45.3, 742.3 45.2 Q 742.0 45.1, 741.7 45.0 Q 741.5 44.9, 741.3 44.7 Q 741.2 44.4, 741.2 44.0 Q 741.2 43.5, 741.5 43.1 Q 741.9 42.8, 742.7 42.8 Q 743.2 42.8, 743.8 43.0 L 743.6 43.5 Q 743.1 43.3, 742.7 43.3 Q 742.2 43.3, 742.0 43.5 Q 741.8 43.6, 741.8 44.0 Q 741.8 44.2, 741.9 44.3 Q 742.0 44.5, 742.2 44.6 Q 742.4 44.6, 742.7 44.7 Q 743.1 44.9, 743.3 45.0 Q 743.6 45.1, 743.7 45.4 Q 743.9 45.6, 743.9 46.1 Q 743.9 46.7, 743.5 47.0 Q 743.1 47.3, 742.4 47.3 Q 742.0 47.3, 741.7 47.2 Q 741.4 47.2, 741.1 47.0 L 741.2 46.5 " fill="#CCCC00"/>
<path class="atom-17" d="M 747.9 31.2 Q 747.9 30.2, 748.4 29.6 Q 748.9 29.0, 749.9 29.0 Q 750.9 29.0, 751.4 29.6 Q 752.0 30.2, 752.0 31.2 Q 752.0 32.3, 751.4 32.9 Q 750.9 33.5, 749.9 33.5 Q 748.9 33.5, 748.4 32.9 Q 747.9 32.3, 747.9 31.2 M 749.9 33.0 Q 750.6 33.0, 751.0 32.6 Q 751.3 32.1, 751.3 31.2 Q 751.3 30.3, 751.0 29.9 Q 750.6 29.5, 749.9 29.5 Q 749.3 29.5, 748.9 29.9 Q 748.5 30.3, 748.5 31.2 Q 748.5 32.1, 748.9 32.6 Q 749.3 33.0, 749.9 33.0 " fill="#FF0000"/>
<path class="atom-18" d="M 760.0 21.9 Q 760.1 21.9, 760.3 22.0 Q 760.5 22.1, 760.7 22.2 Q 760.9 22.2, 761.2 22.2 Q 761.6 22.2, 761.8 22.0 Q 762.1 21.8, 762.1 21.5 Q 762.1 21.2, 761.9 21.1 Q 761.8 20.9, 761.6 20.8 Q 761.5 20.7, 761.1 20.7 Q 760.7 20.5, 760.5 20.4 Q 760.3 20.3, 760.1 20.1 Q 759.9 19.8, 759.9 19.4 Q 759.9 18.9, 760.3 18.5 Q 760.7 18.2, 761.5 18.2 Q 762.0 18.2, 762.5 18.4 L 762.4 18.9 Q 761.9 18.7, 761.5 18.7 Q 761.0 18.7, 760.8 18.9 Q 760.6 19.1, 760.6 19.4 Q 760.6 19.6, 760.7 19.7 Q 760.8 19.9, 761.0 20.0 Q 761.2 20.0, 761.5 20.1 Q 761.9 20.3, 762.1 20.4 Q 762.3 20.5, 762.5 20.8 Q 762.7 21.0, 762.7 21.5 Q 762.7 22.1, 762.3 22.4 Q 761.9 22.7, 761.2 22.7 Q 760.8 22.7, 760.5 22.6 Q 760.2 22.6, 759.8 22.4 L 760.0 21.9 " fill="#CCCC00"/>
<path class="atom-19" d="M 774.1 15.1 Q 774.2 15.2, 774.4 15.3 Q 774.6 15.3, 774.8 15.4 Q 775.1 15.4, 775.3 15.4 Q 775.7 15.4, 776.0 15.2 Q 776.2 15.0, 776.2 14.7 Q 776.2 14.4, 776.1 14.3 Q 776.0 14.1, 775.8 14.1 Q 775.6 14.0, 775.3 13.9 Q 774.9 13.8, 774.6 13.6 Q 774.4 13.5, 774.2 13.3 Q 774.1 13.1, 774.1 12.7 Q 774.1 12.1, 774.4 11.8 Q 774.8 11.4, 775.6 11.4 Q 776.1 11.4, 776.7 11.7 L 776.5 12.1 Q 776.0 11.9, 775.6 11.9 Q 775.2 11.9, 774.9 12.1 Q 774.7 12.3, 774.7 12.6 Q 774.7 12.8, 774.8 13.0 Q 774.9 13.1, 775.1 13.2 Q 775.3 13.3, 775.6 13.4 Q 776.0 13.5, 776.2 13.6 Q 776.5 13.7, 776.6 14.0 Q 776.8 14.3, 776.8 14.7 Q 776.8 15.3, 776.4 15.6 Q 776.0 16.0, 775.3 16.0 Q 774.9 16.0, 774.6 15.9 Q 774.3 15.8, 774.0 15.6 L 774.1 15.1 " fill="#CCCC00"/>
<path class="atom-20" d="M 789.7 13.1 Q 789.7 13.1, 789.9 13.2 Q 790.1 13.3, 790.4 13.3 Q 790.6 13.4, 790.8 13.4 Q 791.2 13.4, 791.5 13.2 Q 791.7 13.0, 791.7 12.6 Q 791.7 12.4, 791.6 12.2 Q 791.5 12.1, 791.3 12.0 Q 791.1 11.9, 790.8 11.8 Q 790.4 11.7, 790.2 11.6 Q 789.9 11.5, 789.8 11.2 Q 789.6 11.0, 789.6 10.6 Q 789.6 10.0, 790.0 9.7 Q 790.4 9.3, 791.1 9.3 Q 791.6 9.3, 792.2 9.6 L 792.1 10.1 Q 791.5 9.8, 791.1 9.8 Q 790.7 9.8, 790.5 10.0 Q 790.2 10.2, 790.2 10.5 Q 790.2 10.7, 790.3 10.9 Q 790.5 11.0, 790.6 11.1 Q 790.8 11.2, 791.1 11.3 Q 791.5 11.4, 791.8 11.5 Q 792.0 11.7, 792.2 11.9 Q 792.4 12.2, 792.4 12.6 Q 792.4 13.2, 791.9 13.6 Q 791.5 13.9, 790.8 13.9 Q 790.5 13.9, 790.2 13.8 Q 789.9 13.7, 789.5 13.6 L 789.7 13.1 " fill="#CCCC00"/>
<path class="atom-21" d="M 805.4 12.2 L 806.8 14.5 Q 807.0 14.7, 807.2 15.2 Q 807.4 15.6, 807.4 15.6 L 807.4 12.2 L 808.0 12.2 L 808.0 16.6 L 807.4 16.6 L 805.9 14.0 Q 805.7 13.7, 805.5 13.4 Q 805.3 13.0, 805.2 12.9 L 805.2 16.6 L 804.7 16.6 L 804.7 12.2 L 805.4 12.2 " fill="#0000FF"/>
<path class="atom-21" d="M 804.6 7.3 L 805.2 7.3 L 805.2 9.2 L 807.5 9.2 L 807.5 7.3 L 808.1 7.3 L 808.1 11.7 L 807.5 11.7 L 807.5 9.7 L 805.2 9.7 L 805.2 11.7 L 804.6 11.7 L 804.6 7.3 " fill="#0000FF"/>
<path class="atom-22" d="M 818.4 21.8 Q 818.4 20.7, 818.9 20.2 Q 819.4 19.6, 820.4 19.6 Q 821.3 19.6, 821.8 20.2 L 821.4 20.6 Q 821.1 20.1, 820.4 20.1 Q 819.8 20.1, 819.4 20.5 Q 819.1 21.0, 819.1 21.8 Q 819.1 22.7, 819.4 23.2 Q 819.8 23.6, 820.5 23.6 Q 821.0 23.6, 821.6 23.3 L 821.7 23.8 Q 821.5 23.9, 821.2 24.0 Q 820.8 24.1, 820.4 24.1 Q 819.4 24.1, 818.9 23.5 Q 818.4 22.9, 818.4 21.8 " fill="#000000"/>
<path class="atom-23" d="M 829.2 33.2 Q 829.2 32.1, 829.7 31.5 Q 830.3 30.9, 831.2 30.9 Q 832.2 30.9, 832.6 31.6 L 832.2 31.9 Q 831.9 31.4, 831.2 31.4 Q 830.6 31.4, 830.2 31.9 Q 829.9 32.3, 829.9 33.2 Q 829.9 34.1, 830.2 34.5 Q 830.6 35.0, 831.3 35.0 Q 831.8 35.0, 832.4 34.7 L 832.5 35.1 Q 832.3 35.3, 832.0 35.4 Q 831.6 35.5, 831.2 35.5 Q 830.3 35.5, 829.7 34.9 Q 829.2 34.3, 829.2 33.2 " fill="#000000"/>
<path class="atom-24" d="M 836.7 45.1 L 838.2 47.4 Q 838.3 47.7, 838.6 48.1 Q 838.8 48.5, 838.8 48.5 L 838.8 45.1 L 839.4 45.1 L 839.4 49.5 L 838.8 49.5 L 837.2 46.9 Q 837.0 46.6, 836.8 46.3 Q 836.7 46.0, 836.6 45.8 L 836.6 49.5 L 836.0 49.5 L 836.0 45.1 L 836.7 45.1 " fill="#0000FF"/>
<path class="atom-24" d="M 839.9 45.1 L 840.5 45.1 L 840.5 47.0 L 842.8 47.0 L 842.8 45.1 L 843.4 45.1 L 843.4 49.5 L 842.8 49.5 L 842.8 47.5 L 840.5 47.5 L 840.5 49.5 L 839.9 49.5 L 839.9 45.1 " fill="#0000FF"/>
<path class="atom-25" d="M 838.1 62.8 Q 838.1 61.7, 838.6 61.2 Q 839.1 60.6, 840.1 60.6 Q 841.0 60.6, 841.5 61.2 L 841.1 61.6 Q 840.7 61.1, 840.1 61.1 Q 839.4 61.1, 839.1 61.5 Q 838.7 62.0, 838.7 62.8 Q 838.7 63.7, 839.1 64.2 Q 839.4 64.6, 840.2 64.6 Q 840.6 64.6, 841.2 64.3 L 841.4 64.8 Q 841.2 64.9, 840.8 65.0 Q 840.5 65.1, 840.1 65.1 Q 839.1 65.1, 838.6 64.5 Q 838.1 63.9, 838.1 62.8 " fill="#000000"/>
<path class="atom-26" d="M 835.2 78.3 Q 835.2 77.1, 835.8 76.6 Q 836.3 76.0, 837.3 76.0 Q 838.2 76.0, 838.7 76.6 L 838.3 77.0 Q 837.9 76.5, 837.3 76.5 Q 836.6 76.5, 836.2 77.0 Q 835.9 77.4, 835.9 78.3 Q 835.9 79.1, 836.3 79.6 Q 836.6 80.0, 837.3 80.0 Q 837.8 80.0, 838.4 79.7 L 838.6 80.2 Q 838.3 80.4, 838.0 80.4 Q 837.6 80.5, 837.2 80.5 Q 836.3 80.5, 835.8 79.9 Q 835.2 79.4, 835.2 78.3 " fill="#000000"/>
<path class="atom-27" d="M 828.5 89.8 L 830.0 92.1 Q 830.1 92.4, 830.4 92.8 Q 830.6 93.2, 830.6 93.2 L 830.6 89.8 L 831.2 89.8 L 831.2 94.2 L 830.6 94.2 L 829.0 91.7 Q 828.8 91.4, 828.6 91.0 Q 828.5 90.7, 828.4 90.6 L 828.4 94.2 L 827.8 94.2 L 827.8 89.8 L 828.5 89.8 " fill="#0000FF"/>
<path class="atom-27" d="M 831.7 89.8 L 832.3 89.8 L 832.3 91.7 L 834.6 91.7 L 834.6 89.8 L 835.2 89.8 L 835.2 94.2 L 834.6 94.2 L 834.6 92.2 L 832.3 92.2 L 832.3 94.2 L 831.7 94.2 L 831.7 89.8 " fill="#0000FF"/>
<path class="atom-28" d="M 816.5 102.8 Q 816.5 101.7, 817.0 101.2 Q 817.5 100.6, 818.5 100.6 Q 819.4 100.6, 819.9 101.2 L 819.5 101.6 Q 819.1 101.1, 818.5 101.1 Q 817.8 101.1, 817.4 101.5 Q 817.1 102.0, 817.1 102.8 Q 817.1 103.7, 817.5 104.2 Q 817.8 104.6, 818.5 104.6 Q 819.0 104.6, 819.6 104.3 L 819.8 104.8 Q 819.5 105.0, 819.2 105.0 Q 818.8 105.1, 818.5 105.1 Q 817.5 105.1, 817.0 104.5 Q 816.5 103.9, 816.5 102.8 " fill="#000000"/>
<path class="atom-29" d="M 802.3 109.6 Q 802.3 108.5, 802.8 107.9 Q 803.4 107.4, 804.3 107.4 Q 805.3 107.4, 805.8 108.0 L 805.3 108.3 Q 805.0 107.9, 804.3 107.9 Q 803.7 107.9, 803.3 108.3 Q 803.0 108.8, 803.0 109.6 Q 803.0 110.5, 803.3 110.9 Q 803.7 111.4, 804.4 111.4 Q 804.9 111.4, 805.5 111.1 L 805.7 111.6 Q 805.4 111.7, 805.1 111.8 Q 804.7 111.9, 804.3 111.9 Q 803.4 111.9, 802.8 111.3 Q 802.3 110.7, 802.3 109.6 " fill="#000000"/>
<path class="atom-30" d="M 787.5 109.5 L 789.0 111.8 Q 789.1 112.0, 789.4 112.5 Q 789.6 112.9, 789.6 112.9 L 789.6 109.5 L 790.2 109.5 L 790.2 113.9 L 789.6 113.9 L 788.0 111.3 Q 787.8 111.0, 787.6 110.7 Q 787.5 110.3, 787.4 110.2 L 787.4 113.9 L 786.8 113.9 L 786.8 109.5 L 787.5 109.5 " fill="#0000FF"/>
<path class="atom-31" d="M 787.2 125.1 L 788.6 127.5 Q 788.7 127.7, 789.0 128.1 Q 789.2 128.5, 789.2 128.6 L 789.2 125.1 L 789.8 125.1 L 789.8 129.6 L 789.2 129.6 L 787.6 127.0 Q 787.5 126.7, 787.3 126.3 Q 787.1 126.0, 787.0 125.9 L 787.0 129.6 L 786.4 129.6 L 786.4 125.1 L 787.2 125.1 " fill="#0000FF"/>
<path class="atom-33" d="M 772.3 134.9 Q 772.3 133.8, 772.9 133.2 Q 773.4 132.6, 774.4 132.6 Q 775.4 132.6, 775.9 133.2 Q 776.4 133.8, 776.4 134.9 Q 776.4 135.9, 775.9 136.5 Q 775.3 137.2, 774.4 137.2 Q 773.4 137.2, 772.9 136.5 Q 772.3 135.9, 772.3 134.9 M 774.4 136.7 Q 775.1 136.7, 775.4 136.2 Q 775.8 135.7, 775.8 134.9 Q 775.8 134.0, 775.4 133.5 Q 775.1 133.1, 774.4 133.1 Q 773.7 133.1, 773.3 133.5 Q 773.0 134.0, 773.0 134.9 Q 773.0 135.8, 773.3 136.2 Q 773.7 136.7, 774.4 136.7 " fill="#FF0000"/>
<path class="atom-34" d="M 772.7 148.3 L 775.3 148.3 L 775.3 148.8 L 773.3 148.8 L 773.3 150.1 L 775.1 150.1 L 775.1 150.7 L 773.3 150.7 L 773.3 152.7 L 772.7 152.7 L 772.7 148.3 " fill="#33CCCC"/>
<path class="atom-35" d="M 771.4 108.9 Q 771.4 107.8, 771.9 107.2 Q 772.4 106.6, 773.4 106.6 Q 774.3 106.6, 774.8 107.3 L 774.4 107.6 Q 774.0 107.1, 773.4 107.1 Q 772.7 107.1, 772.4 107.6 Q 772.0 108.0, 772.0 108.9 Q 772.0 109.7, 772.4 110.2 Q 772.8 110.7, 773.5 110.7 Q 774.0 110.7, 774.5 110.4 L 774.7 110.8 Q 774.5 111.0, 774.1 111.1 Q 773.8 111.2, 773.4 111.2 Q 772.4 111.2, 771.9 110.6 Q 771.4 110.0, 771.4 108.9 " fill="#000000"/>
<path class="atom-36" d="M 757.6 101.4 Q 757.6 100.3, 758.1 99.7 Q 758.6 99.2, 759.6 99.2 Q 760.5 99.2, 761.0 99.8 L 760.6 100.1 Q 760.3 99.7, 759.6 99.7 Q 759.0 99.7, 758.6 100.1 Q 758.2 100.6, 758.2 101.4 Q 758.2 102.3, 758.6 102.8 Q 759.0 103.2, 759.7 103.2 Q 760.2 103.2, 760.7 102.9 L 760.9 103.4 Q 760.7 103.5, 760.3 103.6 Q 760.0 103.7, 759.6 103.7 Q 758.6 103.7, 758.1 103.1 Q 757.6 102.5, 757.6 101.4 " fill="#000000"/>
<path class="atom-41" d="M 656.6 111.0 L 657.2 111.0 L 657.2 112.9 L 659.5 112.9 L 659.5 111.0 L 660.1 111.0 L 660.1 115.4 L 659.5 115.4 L 659.5 113.4 L 657.2 113.4 L 657.2 115.4 L 656.6 115.4 L 656.6 111.0 " fill="#FF0000"/>
<path class="atom-41" d="M 660.6 113.2 Q 660.6 112.1, 661.1 111.5 Q 661.7 110.9, 662.7 110.9 Q 663.6 110.9, 664.2 111.5 Q 664.7 112.1, 664.7 113.2 Q 664.7 114.3, 664.2 114.9 Q 663.6 115.5, 662.7 115.5 Q 661.7 115.5, 661.1 114.9 Q 660.6 114.3, 660.6 113.2 M 662.7 115.0 Q 663.3 115.0, 663.7 114.6 Q 664.1 114.1, 664.1 113.2 Q 664.1 112.3, 663.7 111.9 Q 663.3 111.4, 662.7 111.4 Q 662.0 111.4, 661.6 111.9 Q 661.2 112.3, 661.2 113.2 Q 661.2 114.1, 661.6 114.6 Q 662.0 115.0, 662.7 115.0 " fill="#FF0000"/>
<path class="atom-44" d="M 702.0 72.6 L 703.5 75.0 Q 703.6 75.2, 703.9 75.6 Q 704.1 76.0, 704.1 76.1 L 704.1 72.6 L 704.7 72.6 L 704.7 77.1 L 704.1 77.1 L 702.5 74.5 Q 702.4 74.2, 702.2 73.8 Q 702.0 73.5, 701.9 73.4 L 701.9 77.1 L 701.3 77.1 L 701.3 72.6 L 702.0 72.6 " fill="#0000FF"/>
</svg>