<svg xmlns="http://www.w3.org/2000/svg" xmlns:rdkit="http://www.rdkit.org/xml" xmlns:xlink="http://www.w3.org/1999/xlink" version="1.1" baseProfile="full" xml:space="preserve" width="1500px" height="160px" viewBox="0 0 1500 160">
<!-- END OF HEADER -->
<rect style="opacity:1.0;fill:#FFFFFF;stroke:none" width="1500.0" height="160.0" x="0.0" y="0.0"> </rect>
<path class="bond-0 atom-0 atom-1" d="M 38.6,71.4 L 56.0,83.4" style="fill:none;fill-rule:evenodd;stroke:#000000;stroke-width:2.0px;stroke-linecap:butt;stroke-linejoin:miter;stroke-opacity:1"/>
<path class="bond-1 atom-1 atom-2" d="M 56.0,83.4 L 54.3,104.5" style="fill:none;fill-rule:evenodd;stroke:#000000;stroke-width:2.0px;stroke-linecap:butt;stroke-linejoin:miter;stroke-opacity:1"/>
<path class="bond-2 atom-1 atom-3" d="M 56.0,83.4 L 75.0,74.4" style="fill:none;fill-rule:evenodd;stroke:#000000;stroke-width:2.0px;stroke-linecap:butt;stroke-linejoin:miter;stroke-opacity:1"/>
<path class="bond-3 atom-3 atom-4" d="M 75.0,74.4 L 82.0,79.2" style="fill:none;fill-rule:evenodd;stroke:#000000;stroke-width:2.0px;stroke-linecap:butt;stroke-linejoin:miter;stroke-opacity:1"/>
<path class="bond-3 atom-3 atom-4" d="M 82.0,79.2 L 89.0,84.0" style="fill:none;fill-rule:evenodd;stroke:#FF0000;stroke-width:2.0px;stroke-linecap:butt;stroke-linejoin:miter;stroke-opacity:1"/>
<path class="bond-4 atom-4 atom-5" d="M 95.9,84.7 L 103.7,81.0" style="fill:none;fill-rule:evenodd;stroke:#FF0000;stroke-width:2.0px;stroke-linecap:butt;stroke-linejoin:miter;stroke-opacity:1"/>
<path class="bond-4 atom-4 atom-5" d="M 103.7,81.0 L 111.5,77.3" style="fill:none;fill-rule:evenodd;stroke:#000000;stroke-width:2.0px;stroke-linecap:butt;stroke-linejoin:miter;stroke-opacity:1"/>
<path class="bond-5 atom-5 atom-6" d="M 111.5,77.3 L 113.2,56.3" style="fill:none;fill-rule:evenodd;stroke:#000000;stroke-width:2.0px;stroke-linecap:butt;stroke-linejoin:miter;stroke-opacity:1"/>
<path class="bond-5 atom-5 atom-6" d="M 116.0,74.5 L 117.2,59.8" style="fill:none;fill-rule:evenodd;stroke:#000000;stroke-width:2.0px;stroke-linecap:butt;stroke-linejoin:miter;stroke-opacity:1"/>
<path class="bond-6 atom-6 atom-7" d="M 113.2,56.3 L 132.3,47.2" style="fill:none;fill-rule:evenodd;stroke:#000000;stroke-width:2.0px;stroke-linecap:butt;stroke-linejoin:miter;stroke-opacity:1"/>
<path class="bond-7 atom-7 atom-8" d="M 132.3,47.2 L 149.7,59.2" style="fill:none;fill-rule:evenodd;stroke:#000000;stroke-width:2.0px;stroke-linecap:butt;stroke-linejoin:miter;stroke-opacity:1"/>
<path class="bond-7 atom-7 atom-8" d="M 132.5,52.5 L 144.7,60.9" style="fill:none;fill-rule:evenodd;stroke:#000000;stroke-width:2.0px;stroke-linecap:butt;stroke-linejoin:miter;stroke-opacity:1"/>
<path class="bond-8 atom-8 atom-9" d="M 149.7,59.2 L 170.2,54.3" style="fill:none;fill-rule:evenodd;stroke:#000000;stroke-width:2.0px;stroke-linecap:butt;stroke-linejoin:miter;stroke-opacity:1"/>
<path class="bond-9 atom-9 atom-10" d="M 170.2,54.3 L 178.4,34.9" style="fill:none;fill-rule:evenodd;stroke:#000000;stroke-width:2.0px;stroke-linecap:butt;stroke-linejoin:miter;stroke-opacity:1"/>
<path class="bond-10 atom-10 atom-11" d="M 176.7,36.1 L 171.7,29.6" style="fill:none;fill-rule:evenodd;stroke:#000000;stroke-width:2.0px;stroke-linecap:butt;stroke-linejoin:miter;stroke-opacity:1"/>
<path class="bond-10 atom-10 atom-11" d="M 171.7,29.6 L 166.8,23.2" style="fill:none;fill-rule:evenodd;stroke:#FF0000;stroke-width:2.0px;stroke-linecap:butt;stroke-linejoin:miter;stroke-opacity:1"/>
<path class="bond-10 atom-10 atom-11" d="M 180.0,33.6 L 175.1,27.1" style="fill:none;fill-rule:evenodd;stroke:#000000;stroke-width:2.0px;stroke-linecap:butt;stroke-linejoin:miter;stroke-opacity:1"/>
<path class="bond-10 atom-10 atom-11" d="M 175.1,27.1 L 170.1,20.6" style="fill:none;fill-rule:evenodd;stroke:#FF0000;stroke-width:2.0px;stroke-linecap:butt;stroke-linejoin:miter;stroke-opacity:1"/>
<path class="bond-11 atom-10 atom-12" d="M 178.4,34.9 L 187.4,33.7" style="fill:none;fill-rule:evenodd;stroke:#000000;stroke-width:2.0px;stroke-linecap:butt;stroke-linejoin:miter;stroke-opacity:1"/>
<path class="bond-11 atom-10 atom-12" d="M 187.4,33.7 L 196.3,32.5" style="fill:none;fill-rule:evenodd;stroke:#0000FF;stroke-width:2.0px;stroke-linecap:butt;stroke-linejoin:miter;stroke-opacity:1"/>
<path class="bond-12 atom-12 atom-13" d="M 202.1,35.8 L 207.1,42.4" style="fill:none;fill-rule:evenodd;stroke:#0000FF;stroke-width:2.0px;stroke-linecap:butt;stroke-linejoin:miter;stroke-opacity:1"/>
<path class="bond-12 atom-12 atom-13" d="M 207.1,42.4 L 212.1,48.9" style="fill:none;fill-rule:evenodd;stroke:#000000;stroke-width:2.0px;stroke-linecap:butt;stroke-linejoin:miter;stroke-opacity:1"/>
<path class="bond-13 atom-13 atom-14" d="M 212.1,48.9 L 233.1,46.2" style="fill:none;fill-rule:evenodd;stroke:#000000;stroke-width:2.0px;stroke-linecap:butt;stroke-linejoin:miter;stroke-opacity:1"/>
<path class="bond-14 atom-14 atom-15" d="M 233.1,46.2 L 236.4,38.3" style="fill:none;fill-rule:evenodd;stroke:#000000;stroke-width:2.0px;stroke-linecap:butt;stroke-linejoin:miter;stroke-opacity:1"/>
<path class="bond-14 atom-14 atom-15" d="M 236.4,38.3 L 239.7,30.4" style="fill:none;fill-rule:evenodd;stroke:#0000FF;stroke-width:2.0px;stroke-linecap:butt;stroke-linejoin:miter;stroke-opacity:1"/>
<path class="bond-15 atom-15 atom-16" d="M 238.4,23.0 L 233.4,16.5" style="fill:none;fill-rule:evenodd;stroke:#0000FF;stroke-width:2.0px;stroke-linecap:butt;stroke-linejoin:miter;stroke-opacity:1"/>
<path class="bond-15 atom-15 atom-16" d="M 233.4,16.5 L 228.4,9.9" style="fill:none;fill-rule:evenodd;stroke:#000000;stroke-width:2.0px;stroke-linecap:butt;stroke-linejoin:miter;stroke-opacity:1"/>
<path class="bond-16 atom-16 atom-17" d="M 228.4,9.9 L 207.4,12.6" style="fill:none;fill-rule:evenodd;stroke:#000000;stroke-width:2.0px;stroke-linecap:butt;stroke-linejoin:miter;stroke-opacity:1"/>
<path class="bond-17 atom-9 atom-18" d="M 170.2,54.3 L 181.2,72.4" style="fill:none;fill-rule:evenodd;stroke:#000000;stroke-width:2.0px;stroke-linecap:butt;stroke-linejoin:miter;stroke-opacity:1"/>
<path class="bond-17 atom-9 atom-18" d="M 168.3,59.3 L 176.0,71.9" style="fill:none;fill-rule:evenodd;stroke:#000000;stroke-width:2.0px;stroke-linecap:butt;stroke-linejoin:miter;stroke-opacity:1"/>
<path class="bond-18 atom-18 atom-19" d="M 181.2,72.4 L 202.3,74.1" style="fill:none;fill-rule:evenodd;stroke:#000000;stroke-width:2.0px;stroke-linecap:butt;stroke-linejoin:miter;stroke-opacity:1"/>
<path class="bond-19 atom-19 atom-20" d="M 202.3,74.1 L 211.3,93.2" style="fill:none;fill-rule:evenodd;stroke:#000000;stroke-width:2.0px;stroke-linecap:butt;stroke-linejoin:miter;stroke-opacity:1"/>
<path class="bond-20 atom-20 atom-21" d="M 211.3,93.2 L 199.3,110.6" style="fill:none;fill-rule:evenodd;stroke:#000000;stroke-width:2.0px;stroke-linecap:butt;stroke-linejoin:miter;stroke-opacity:1"/>
<path class="bond-20 atom-20 atom-21" d="M 213.0,98.2 L 204.6,110.3" style="fill:none;fill-rule:evenodd;stroke:#000000;stroke-width:2.0px;stroke-linecap:butt;stroke-linejoin:miter;stroke-opacity:1"/>
<path class="bond-21 atom-21 atom-22" d="M 199.3,110.6 L 208.4,129.6" style="fill:none;fill-rule:evenodd;stroke:#000000;stroke-width:2.0px;stroke-linecap:butt;stroke-linejoin:miter;stroke-opacity:1"/>
<path class="bond-22 atom-22 atom-23" d="M 208.4,129.6 L 229.4,131.3" style="fill:none;fill-rule:evenodd;stroke:#000000;stroke-width:2.0px;stroke-linecap:butt;stroke-linejoin:miter;stroke-opacity:1"/>
<path class="bond-22 atom-22 atom-23" d="M 211.9,125.7 L 226.6,126.9" style="fill:none;fill-rule:evenodd;stroke:#000000;stroke-width:2.0px;stroke-linecap:butt;stroke-linejoin:miter;stroke-opacity:1"/>
<path class="bond-23 atom-23 atom-24" d="M 229.4,131.3 L 241.4,114.0" style="fill:none;fill-rule:evenodd;stroke:#000000;stroke-width:2.0px;stroke-linecap:butt;stroke-linejoin:miter;stroke-opacity:1"/>
<path class="bond-24 atom-24 atom-25" d="M 241.4,114.0 L 250.7,114.7" style="fill:none;fill-rule:evenodd;stroke:#000000;stroke-width:2.0px;stroke-linecap:butt;stroke-linejoin:miter;stroke-opacity:1"/>
<path class="bond-24 atom-24 atom-25" d="M 250.7,114.7 L 260.0,115.5" style="fill:none;fill-rule:evenodd;stroke:#33CCCC;stroke-width:2.0px;stroke-linecap:butt;stroke-linejoin:miter;stroke-opacity:1"/>
<path class="bond-25 atom-24 atom-26" d="M 241.4,114.0 L 232.4,94.9" style="fill:none;fill-rule:evenodd;stroke:#000000;stroke-width:2.0px;stroke-linecap:butt;stroke-linejoin:miter;stroke-opacity:1"/>
<path class="bond-25 atom-24 atom-26" d="M 236.3,112.9 L 229.9,99.6" style="fill:none;fill-rule:evenodd;stroke:#000000;stroke-width:2.0px;stroke-linecap:butt;stroke-linejoin:miter;stroke-opacity:1"/>
<path class="bond-26 atom-26 atom-27" d="M 232.4,94.9 L 244.4,77.5" style="fill:none;fill-rule:evenodd;stroke:#000000;stroke-width:2.0px;stroke-linecap:butt;stroke-linejoin:miter;stroke-opacity:1"/>
<path class="bond-27 atom-18 atom-28" d="M 181.2,72.4 L 175.8,78.7" style="fill:none;fill-rule:evenodd;stroke:#000000;stroke-width:2.0px;stroke-linecap:butt;stroke-linejoin:miter;stroke-opacity:1"/>
<path class="bond-27 atom-18 atom-28" d="M 175.8,78.7 L 170.4,85.0" style="fill:none;fill-rule:evenodd;stroke:#0000FF;stroke-width:2.0px;stroke-linecap:butt;stroke-linejoin:miter;stroke-opacity:1"/>
<path class="bond-28 atom-28 atom-29" d="M 168.4,92.1 L 170.4,100.5" style="fill:none;fill-rule:evenodd;stroke:#0000FF;stroke-width:2.0px;stroke-linecap:butt;stroke-linejoin:miter;stroke-opacity:1"/>
<path class="bond-28 atom-28 atom-29" d="M 170.4,100.5 L 172.4,109.0" style="fill:none;fill-rule:evenodd;stroke:#000000;stroke-width:2.0px;stroke-linecap:butt;stroke-linejoin:miter;stroke-opacity:1"/>
<path class="bond-29 atom-29 atom-30" d="M 172.4,109.0 L 157.0,123.5" style="fill:none;fill-rule:evenodd;stroke:#000000;stroke-width:2.0px;stroke-linecap:butt;stroke-linejoin:miter;stroke-opacity:1"/>
<path class="bond-29 atom-29 atom-30" d="M 173.0,114.2 L 162.2,124.4" style="fill:none;fill-rule:evenodd;stroke:#000000;stroke-width:2.0px;stroke-linecap:butt;stroke-linejoin:miter;stroke-opacity:1"/>
<path class="bond-30 atom-30 atom-31" d="M 157.0,123.5 L 161.9,144.0" style="fill:none;fill-rule:evenodd;stroke:#000000;stroke-width:2.0px;stroke-linecap:butt;stroke-linejoin:miter;stroke-opacity:1"/>
<path class="bond-31 atom-31 atom-32" d="M 161.9,144.0 L 182.1,150.1" style="fill:none;fill-rule:evenodd;stroke:#000000;stroke-width:2.0px;stroke-linecap:butt;stroke-linejoin:miter;stroke-opacity:1"/>
<path class="bond-31 atom-31 atom-32" d="M 166.1,140.9 L 180.3,145.1" style="fill:none;fill-rule:evenodd;stroke:#000000;stroke-width:2.0px;stroke-linecap:butt;stroke-linejoin:miter;stroke-opacity:1"/>
<path class="bond-32 atom-32 atom-33" d="M 182.1,150.1 L 197.5,135.6" style="fill:none;fill-rule:evenodd;stroke:#000000;stroke-width:2.0px;stroke-linecap:butt;stroke-linejoin:miter;stroke-opacity:1"/>
<path class="bond-33 atom-33 atom-34" d="M 197.5,135.6 L 192.6,115.0" style="fill:none;fill-rule:evenodd;stroke:#000000;stroke-width:2.0px;stroke-linecap:butt;stroke-linejoin:miter;stroke-opacity:1"/>
<path class="bond-33 atom-33 atom-34" d="M 192.6,133.5 L 189.2,119.1" style="fill:none;fill-rule:evenodd;stroke:#000000;stroke-width:2.0px;stroke-linecap:butt;stroke-linejoin:miter;stroke-opacity:1"/>
<path class="bond-34 atom-28 atom-35" d="M 164.5,87.2 L 156.2,83.7" style="fill:none;fill-rule:evenodd;stroke:#0000FF;stroke-width:2.0px;stroke-linecap:butt;stroke-linejoin:miter;stroke-opacity:1"/>
<path class="bond-34 atom-28 atom-35" d="M 156.2,83.7 L 148.0,80.3" style="fill:none;fill-rule:evenodd;stroke:#000000;stroke-width:2.0px;stroke-linecap:butt;stroke-linejoin:miter;stroke-opacity:1"/>
<path class="bond-35 atom-35 atom-36" d="M 148.0,80.3 L 128.9,89.3" style="fill:none;fill-rule:evenodd;stroke:#000000;stroke-width:2.0px;stroke-linecap:butt;stroke-linejoin:miter;stroke-opacity:1"/>
<path class="bond-35 atom-35 atom-36" d="M 143.3,77.8 L 129.9,84.2" style="fill:none;fill-rule:evenodd;stroke:#000000;stroke-width:2.0px;stroke-linecap:butt;stroke-linejoin:miter;stroke-opacity:1"/>
<path class="bond-36 atom-36 atom-5" d="M 128.9,89.3 L 111.5,77.3" style="fill:none;fill-rule:evenodd;stroke:#000000;stroke-width:2.0px;stroke-linecap:butt;stroke-linejoin:miter;stroke-opacity:1"/>
<path class="bond-37 atom-35 atom-8" d="M 148.0,80.3 L 149.7,59.2" style="fill:none;fill-rule:evenodd;stroke:#000000;stroke-width:2.0px;stroke-linecap:butt;stroke-linejoin:miter;stroke-opacity:1"/>
<path class="bond-38 atom-17 atom-12" d="M 207.4,12.6 L 204.1,20.6" style="fill:none;fill-rule:evenodd;stroke:#000000;stroke-width:2.0px;stroke-linecap:butt;stroke-linejoin:miter;stroke-opacity:1"/>
<path class="bond-38 atom-17 atom-12" d="M 204.1,20.6 L 200.9,28.5" style="fill:none;fill-rule:evenodd;stroke:#0000FF;stroke-width:2.0px;stroke-linecap:butt;stroke-linejoin:miter;stroke-opacity:1"/>
<path class="bond-39 atom-26 atom-20" d="M 232.4,94.9 L 211.3,93.2" style="fill:none;fill-rule:evenodd;stroke:#000000;stroke-width:2.0px;stroke-linecap:butt;stroke-linejoin:miter;stroke-opacity:1"/>
<path class="bond-40 atom-34 atom-29" d="M 192.6,115.0 L 172.4,109.0" style="fill:none;fill-rule:evenodd;stroke:#000000;stroke-width:2.0px;stroke-linecap:butt;stroke-linejoin:miter;stroke-opacity:1"/>
<path class="atom-4" d="M 89.7 86.4 Q 89.7 85.0, 90.4 84.2 Q 91.1 83.4, 92.4 83.4 Q 93.8 83.4, 94.5 84.2 Q 95.2 85.0, 95.2 86.4 Q 95.2 87.8, 94.5 88.7 Q 93.7 89.5, 92.4 89.5 Q 91.1 89.5, 90.4 88.7 Q 89.7 87.9, 89.7 86.4 M 92.4 88.8 Q 93.3 88.8, 93.8 88.2 Q 94.3 87.6, 94.3 86.4 Q 94.3 85.2, 93.8 84.6 Q 93.3 84.0, 92.4 84.0 Q 91.5 84.0, 91.0 84.6 Q 90.5 85.2, 90.5 86.4 Q 90.5 87.6, 91.0 88.2 Q 91.5 88.8, 92.4 88.8 " fill="#FF0000"/>
<path class="atom-11" d="M 162.8 18.1 Q 162.8 16.6, 163.5 15.8 Q 164.2 15.0, 165.5 15.0 Q 166.9 15.0, 167.6 15.8 Q 168.3 16.6, 168.3 18.1 Q 168.3 19.5, 167.6 20.4 Q 166.9 21.2, 165.5 21.2 Q 164.2 21.2, 163.5 20.4 Q 162.8 19.5, 162.8 18.1 M 165.5 20.5 Q 166.5 20.5, 166.9 19.9 Q 167.4 19.3, 167.4 18.1 Q 167.4 16.9, 166.9 16.3 Q 166.5 15.7, 165.5 15.7 Q 164.6 15.7, 164.1 16.3 Q 163.6 16.9, 163.6 18.1 Q 163.6 19.3, 164.1 19.9 Q 164.6 20.5, 165.5 20.5 " fill="#FF0000"/>
<path class="atom-12" d="M 198.0 29.2 L 200.0 32.3 Q 200.1 32.6, 200.5 33.2 Q 200.8 33.8, 200.8 33.8 L 200.8 29.2 L 201.6 29.2 L 201.6 35.1 L 200.8 35.1 L 198.7 31.7 Q 198.4 31.3, 198.2 30.8 Q 197.9 30.3, 197.8 30.2 L 197.8 35.1 L 197.0 35.1 L 197.0 29.2 L 198.0 29.2 " fill="#0000FF"/>
<path class="atom-15" d="M 239.9 23.7 L 241.8 26.9 Q 242.0 27.2, 242.4 27.8 Q 242.7 28.3, 242.7 28.4 L 242.7 23.7 L 243.5 23.7 L 243.5 29.7 L 242.7 29.7 L 240.6 26.3 Q 240.3 25.8, 240.0 25.4 Q 239.8 24.9, 239.7 24.8 L 239.7 29.7 L 238.9 29.7 L 238.9 23.7 L 239.9 23.7 " fill="#0000FF"/>
<path class="atom-15" d="M 244.2 23.7 L 245.0 23.7 L 245.0 26.3 L 248.0 26.3 L 248.0 23.7 L 248.9 23.7 L 248.9 29.7 L 248.0 29.7 L 248.0 27.0 L 245.0 27.0 L 245.0 29.7 L 244.2 29.7 L 244.2 23.7 " fill="#0000FF"/>
<path class="atom-25" d="M 260.7 112.7 L 264.3 112.7 L 264.3 113.4 L 261.5 113.4 L 261.5 115.2 L 264.0 115.2 L 264.0 115.9 L 261.5 115.9 L 261.5 118.7 L 260.7 118.7 L 260.7 112.7 " fill="#33CCCC"/>
<path class="atom-28" d="M 166.2 85.4 L 168.1 88.6 Q 168.3 88.9, 168.6 89.5 Q 168.9 90.0, 169.0 90.1 L 169.0 85.4 L 169.7 85.4 L 169.7 91.4 L 168.9 91.4 L 166.8 87.9 Q 166.6 87.5, 166.3 87.1 Q 166.1 86.6, 166.0 86.5 L 166.0 91.4 L 165.2 91.4 L 165.2 85.4 L 166.2 85.4 " fill="#0000FF"/>
<path class="atom-0" d="M 36.5,69.3 L 36.5,69.3 L 36.5,69.4 L 36.5,69.4 L 36.4,69.4 L 36.4,69.5 L 36.4,69.5 L 36.4,69.5 L 36.4,69.6 L 36.4,69.6 L 36.3,69.6 L 36.3,69.6 L 36.3,69.7 L 36.2,69.7 L 36.2,69.7 L 36.2,69.7 L 36.1,69.7 L 36.1,69.7 L 36.1,69.7 L 36.0,69.7 L 36.0,69.7 L 36.0,69.7 L 35.9,69.7 L 35.9,69.7 L 35.8,69.7 L 35.8,69.7 L 35.8,69.6 L 35.8,69.6 L 35.7,69.6 L 35.7,69.6 L 35.7,69.5 L 35.7,69.5 L 35.7,69.5 L 35.6,69.4 L 35.6,69.4 L 35.6,69.4 L 35.6,69.3 L 35.6,69.3 L 35.6,69.3 L 35.6,69.2 L 35.6,69.2 L 35.7,69.1 L 35.7,69.1 L 35.7,69.1 L 35.7,69.1 L 35.7,69.0 L 35.8,69.0 L 35.8,69.0 L 35.8,69.0 L 35.8,68.9 L 35.9,68.9 L 35.9,68.9 L 36.0,68.9 L 36.0,68.9 L 36.0,68.9 L 36.1,68.9 L 36.1,68.9 L 36.1,68.9 L 36.2,68.9 L 36.2,68.9 L 36.2,68.9 L 36.3,68.9 L 36.3,69.0 L 36.3,69.0 L 36.4,69.0 L 36.4,69.0 L 36.4,69.1 L 36.4,69.1 L 36.4,69.1 L 36.4,69.2 L 36.5,69.2 L 36.5,69.2 L 36.5,69.3 L 36.5,69.3 L 36.1,69.3 Z" style="fill:#000000;fill-rule:evenodd;fill-opacity:1;stroke:#000000;stroke-width:0.0px;stroke-linecap:butt;stroke-linejoin:miter;stroke-opacity:1;"/>
<path class="atom-0" d="M 36.5,73.5 L 36.5,73.6 L 36.5,73.6 L 36.5,73.6 L 36.4,73.7 L 36.4,73.7 L 36.4,73.7 L 36.4,73.8 L 36.4,73.8 L 36.4,73.8 L 36.3,73.8 L 36.3,73.9 L 36.3,73.9 L 36.2,73.9 L 36.2,73.9 L 36.2,73.9 L 36.1,73.9 L 36.1,73.9 L 36.1,74.0 L 36.0,74.0 L 36.0,73.9 L 36.0,73.9 L 35.9,73.9 L 35.9,73.9 L 35.8,73.9 L 35.8,73.9 L 35.8,73.9 L 35.8,73.8 L 35.7,73.8 L 35.7,73.8 L 35.7,73.8 L 35.7,73.7 L 35.7,73.7 L 35.6,73.7 L 35.6,73.6 L 35.6,73.6 L 35.6,73.5 L 35.6,73.5 L 35.6,73.5 L 35.6,73.4 L 35.6,73.4 L 35.7,73.4 L 35.7,73.3 L 35.7,73.3 L 35.7,73.3 L 35.7,73.2 L 35.8,73.2 L 35.8,73.2 L 35.8,73.2 L 35.8,73.2 L 35.9,73.1 L 35.9,73.1 L 36.0,73.1 L 36.0,73.1 L 36.0,73.1 L 36.1,73.1 L 36.1,73.1 L 36.1,73.1 L 36.2,73.1 L 36.2,73.1 L 36.2,73.1 L 36.3,73.2 L 36.3,73.2 L 36.3,73.2 L 36.4,73.2 L 36.4,73.3 L 36.4,73.3 L 36.4,73.3 L 36.4,73.4 L 36.4,73.4 L 36.5,73.4 L 36.5,73.5 L 36.5,73.5 L 36.5,73.5 L 36.1,73.5 Z" style="fill:#000000;fill-rule:evenodd;fill-opacity:1;stroke:#000000;stroke-width:0.0px;stroke-linecap:butt;stroke-linejoin:miter;stroke-opacity:1;"/>
<path class="atom-0" d="M 36.5,71.4 L 36.5,71.5 L 36.5,71.5 L 36.5,71.5 L 36.4,71.6 L 36.4,71.6 L 36.4,71.6 L 36.4,71.7 L 36.4,71.7 L 36.4,71.7 L 36.3,71.7 L 36.3,71.8 L 36.3,71.8 L 36.2,71.8 L 36.2,71.8 L 36.2,71.8 L 36.1,71.8 L 36.1,71.8 L 36.1,71.8 L 36.0,71.8 L 36.0,71.8 L 36.0,71.8 L 35.9,71.8 L 35.9,71.8 L 35.8,71.8 L 35.8,71.8 L 35.8,71.7 L 35.8,71.7 L 35.7,71.7 L 35.7,71.7 L 35.7,71.6 L 35.7,71.6 L 35.7,71.6 L 35.6,71.5 L 35.6,71.5 L 35.6,71.5 L 35.6,71.4 L 35.6,71.4 L 35.6,71.4 L 35.6,71.3 L 35.6,71.3 L 35.7,71.3 L 35.7,71.2 L 35.7,71.2 L 35.7,71.2 L 35.7,71.1 L 35.8,71.1 L 35.8,71.1 L 35.8,71.1 L 35.8,71.0 L 35.9,71.0 L 35.9,71.0 L 36.0,71.0 L 36.0,71.0 L 36.0,71.0 L 36.1,71.0 L 36.1,71.0 L 36.1,71.0 L 36.2,71.0 L 36.2,71.0 L 36.2,71.0 L 36.3,71.1 L 36.3,71.1 L 36.3,71.1 L 36.4,71.1 L 36.4,71.1 L 36.4,71.2 L 36.4,71.2 L 36.4,71.2 L 36.4,71.3 L 36.5,71.3 L 36.5,71.3 L 36.5,71.4 L 36.5,71.4 L 36.1,71.4 Z" style="fill:#000000;fill-rule:evenodd;fill-opacity:1;stroke:#000000;stroke-width:0.0px;stroke-linecap:butt;stroke-linejoin:miter;stroke-opacity:1;"/>
<path class="atom-1" d="M 56.4,81.5 L 56.4,81.6 L 56.4,81.6 L 56.4,81.6 L 56.4,81.7 L 56.3,81.7 L 56.3,81.7 L 56.3,81.8 L 56.3,81.8 L 56.3,81.8 L 56.2,81.8 L 56.2,81.9 L 56.2,81.9 L 56.1,81.9 L 56.1,81.9 L 56.1,81.9 L 56.0,81.9 L 56.0,81.9 L 56.0,81.9 L 55.9,81.9 L 55.9,81.9 L 55.9,81.9 L 55.8,81.9 L 55.8,81.9 L 55.8,81.9 L 55.7,81.9 L 55.7,81.9 L 55.7,81.8 L 55.6,81.8 L 55.6,81.8 L 55.6,81.7 L 55.6,81.7 L 55.6,81.7 L 55.6,81.6 L 55.6,81.6 L 55.5,81.6 L 55.5,81.5 L 55.5,81.5 L 55.5,81.5 L 55.6,81.4 L 55.6,81.4 L 55.6,81.4 L 55.6,81.3 L 55.6,81.3 L 55.6,81.3 L 55.6,81.2 L 55.7,81.2 L 55.7,81.2 L 55.7,81.2 L 55.8,81.1 L 55.8,81.1 L 55.8,81.1 L 55.9,81.1 L 55.9,81.1 L 55.9,81.1 L 56.0,81.1 L 56.0,81.1 L 56.0,81.1 L 56.1,81.1 L 56.1,81.1 L 56.1,81.1 L 56.2,81.2 L 56.2,81.2 L 56.2,81.2 L 56.3,81.2 L 56.3,81.3 L 56.3,81.3 L 56.3,81.3 L 56.3,81.3 L 56.4,81.4 L 56.4,81.4 L 56.4,81.4 L 56.4,81.5 L 56.4,81.5 L 56.0,81.5 Z" style="fill:#000000;fill-rule:evenodd;fill-opacity:1;stroke:#000000;stroke-width:0.0px;stroke-linecap:butt;stroke-linejoin:miter;stroke-opacity:1;"/>
<path class="atom-2" d="M 57.2,102.4 L 57.2,102.4 L 57.2,102.4 L 57.2,102.5 L 57.2,102.5 L 57.2,102.5 L 57.2,102.6 L 57.1,102.6 L 57.1,102.6 L 57.1,102.7 L 57.1,102.7 L 57.0,102.7 L 57.0,102.7 L 57.0,102.7 L 56.9,102.8 L 56.9,102.8 L 56.9,102.8 L 56.8,102.8 L 56.8,102.8 L 56.8,102.8 L 56.7,102.8 L 56.7,102.8 L 56.7,102.8 L 56.6,102.7 L 56.6,102.7 L 56.6,102.7 L 56.5,102.7 L 56.5,102.7 L 56.5,102.6 L 56.5,102.6 L 56.4,102.6 L 56.4,102.6 L 56.4,102.5 L 56.4,102.5 L 56.4,102.5 L 56.4,102.4 L 56.4,102.4 L 56.4,102.3 L 56.4,102.3 L 56.4,102.3 L 56.4,102.2 L 56.4,102.2 L 56.4,102.2 L 56.4,102.1 L 56.5,102.1 L 56.5,102.1 L 56.5,102.1 L 56.5,102.0 L 56.6,102.0 L 56.6,102.0 L 56.6,102.0 L 56.7,102.0 L 56.7,102.0 L 56.7,101.9 L 56.8,101.9 L 56.8,101.9 L 56.8,101.9 L 56.9,101.9 L 56.9,102.0 L 56.9,102.0 L 57.0,102.0 L 57.0,102.0 L 57.0,102.0 L 57.1,102.0 L 57.1,102.1 L 57.1,102.1 L 57.1,102.1 L 57.2,102.2 L 57.2,102.2 L 57.2,102.2 L 57.2,102.3 L 57.2,102.3 L 57.2,102.3 L 57.2,102.4 L 56.8,102.4 Z" style="fill:#000000;fill-rule:evenodd;fill-opacity:1;stroke:#000000;stroke-width:0.0px;stroke-linecap:butt;stroke-linejoin:miter;stroke-opacity:1;"/>
<path class="atom-2" d="M 57.2,106.6 L 57.2,106.6 L 57.2,106.7 L 57.2,106.7 L 57.2,106.7 L 57.2,106.8 L 57.2,106.8 L 57.1,106.8 L 57.1,106.9 L 57.1,106.9 L 57.1,106.9 L 57.0,106.9 L 57.0,106.9 L 57.0,107.0 L 56.9,107.0 L 56.9,107.0 L 56.9,107.0 L 56.8,107.0 L 56.8,107.0 L 56.8,107.0 L 56.7,107.0 L 56.7,107.0 L 56.7,107.0 L 56.6,107.0 L 56.6,107.0 L 56.6,106.9 L 56.5,106.9 L 56.5,106.9 L 56.5,106.9 L 56.5,106.8 L 56.4,106.8 L 56.4,106.8 L 56.4,106.7 L 56.4,106.7 L 56.4,106.7 L 56.4,106.6 L 56.4,106.6 L 56.4,106.6 L 56.4,106.5 L 56.4,106.5 L 56.4,106.5 L 56.4,106.4 L 56.4,106.4 L 56.4,106.4 L 56.5,106.3 L 56.5,106.3 L 56.5,106.3 L 56.5,106.3 L 56.6,106.2 L 56.6,106.2 L 56.6,106.2 L 56.7,106.2 L 56.7,106.2 L 56.7,106.2 L 56.8,106.2 L 56.8,106.2 L 56.8,106.2 L 56.9,106.2 L 56.9,106.2 L 56.9,106.2 L 57.0,106.2 L 57.0,106.2 L 57.0,106.2 L 57.1,106.3 L 57.1,106.3 L 57.1,106.3 L 57.1,106.3 L 57.2,106.4 L 57.2,106.4 L 57.2,106.4 L 57.2,106.5 L 57.2,106.5 L 57.2,106.6 L 57.2,106.6 L 56.8,106.6 Z" style="fill:#000000;fill-rule:evenodd;fill-opacity:1;stroke:#000000;stroke-width:0.0px;stroke-linecap:butt;stroke-linejoin:miter;stroke-opacity:1;"/>
<path class="atom-2" d="M 57.2,104.5 L 57.2,104.5 L 57.2,104.5 L 57.2,104.6 L 57.2,104.6 L 57.2,104.7 L 57.2,104.7 L 57.1,104.7 L 57.1,104.7 L 57.1,104.8 L 57.1,104.8 L 57.0,104.8 L 57.0,104.8 L 57.0,104.9 L 56.9,104.9 L 56.9,104.9 L 56.9,104.9 L 56.8,104.9 L 56.8,104.9 L 56.8,104.9 L 56.7,104.9 L 56.7,104.9 L 56.7,104.9 L 56.6,104.9 L 56.6,104.8 L 56.6,104.8 L 56.5,104.8 L 56.5,104.8 L 56.5,104.8 L 56.5,104.7 L 56.4,104.7 L 56.4,104.7 L 56.4,104.6 L 56.4,104.6 L 56.4,104.6 L 56.4,104.5 L 56.4,104.5 L 56.4,104.5 L 56.4,104.4 L 56.4,104.4 L 56.4,104.3 L 56.4,104.3 L 56.4,104.3 L 56.4,104.3 L 56.5,104.2 L 56.5,104.2 L 56.5,104.2 L 56.5,104.1 L 56.6,104.1 L 56.6,104.1 L 56.6,104.1 L 56.7,104.1 L 56.7,104.1 L 56.7,104.1 L 56.8,104.1 L 56.8,104.1 L 56.8,104.1 L 56.9,104.1 L 56.9,104.1 L 56.9,104.1 L 57.0,104.1 L 57.0,104.1 L 57.0,104.1 L 57.1,104.2 L 57.1,104.2 L 57.1,104.2 L 57.1,104.2 L 57.2,104.3 L 57.2,104.3 L 57.2,104.3 L 57.2,104.4 L 57.2,104.4 L 57.2,104.4 L 57.2,104.5 L 56.8,104.5 Z" style="fill:#000000;fill-rule:evenodd;fill-opacity:1;stroke:#000000;stroke-width:0.0px;stroke-linecap:butt;stroke-linejoin:miter;stroke-opacity:1;"/>
<path class="atom-3" d="M 76.3,72.5 L 76.3,72.5 L 76.3,72.5 L 76.3,72.6 L 76.3,72.6 L 76.3,72.6 L 76.3,72.7 L 76.2,72.7 L 76.2,72.7 L 76.2,72.8 L 76.2,72.8 L 76.1,72.8 L 76.1,72.8 L 76.1,72.9 L 76.0,72.9 L 76.0,72.9 L 76.0,72.9 L 75.9,72.9 L 75.9,72.9 L 75.9,72.9 L 75.8,72.9 L 75.8,72.9 L 75.8,72.9 L 75.7,72.9 L 75.7,72.8 L 75.7,72.8 L 75.6,72.8 L 75.6,72.8 L 75.6,72.8 L 75.6,72.7 L 75.5,72.7 L 75.5,72.7 L 75.5,72.6 L 75.5,72.6 L 75.5,72.6 L 75.5,72.5 L 75.5,72.5 L 75.5,72.5 L 75.5,72.4 L 75.5,72.4 L 75.5,72.3 L 75.5,72.3 L 75.5,72.3 L 75.5,72.2 L 75.6,72.2 L 75.6,72.2 L 75.6,72.2 L 75.6,72.1 L 75.7,72.1 L 75.7,72.1 L 75.7,72.1 L 75.8,72.1 L 75.8,72.1 L 75.8,72.1 L 75.9,72.0 L 75.9,72.0 L 75.9,72.1 L 76.0,72.1 L 76.0,72.1 L 76.0,72.1 L 76.1,72.1 L 76.1,72.1 L 76.1,72.1 L 76.2,72.2 L 76.2,72.2 L 76.2,72.2 L 76.2,72.2 L 76.3,72.3 L 76.3,72.3 L 76.3,72.3 L 76.3,72.4 L 76.3,72.4 L 76.3,72.4 L 76.3,72.5 L 75.9,72.5 Z" style="fill:#000000;fill-rule:evenodd;fill-opacity:1;stroke:#000000;stroke-width:0.0px;stroke-linecap:butt;stroke-linejoin:miter;stroke-opacity:1;"/>
<path class="atom-3" d="M 74.6,72.5 L 74.6,72.5 L 74.6,72.5 L 74.6,72.6 L 74.6,72.6 L 74.6,72.6 L 74.6,72.7 L 74.6,72.7 L 74.5,72.7 L 74.5,72.8 L 74.5,72.8 L 74.5,72.8 L 74.4,72.8 L 74.4,72.9 L 74.4,72.9 L 74.3,72.9 L 74.3,72.9 L 74.3,72.9 L 74.2,72.9 L 74.2,72.9 L 74.1,72.9 L 74.1,72.9 L 74.1,72.9 L 74.0,72.9 L 74.0,72.8 L 74.0,72.8 L 73.9,72.8 L 73.9,72.8 L 73.9,72.8 L 73.9,72.7 L 73.8,72.7 L 73.8,72.7 L 73.8,72.6 L 73.8,72.6 L 73.8,72.6 L 73.8,72.5 L 73.8,72.5 L 73.8,72.5 L 73.8,72.4 L 73.8,72.4 L 73.8,72.3 L 73.8,72.3 L 73.8,72.3 L 73.8,72.2 L 73.9,72.2 L 73.9,72.2 L 73.9,72.2 L 73.9,72.1 L 74.0,72.1 L 74.0,72.1 L 74.0,72.1 L 74.1,72.1 L 74.1,72.1 L 74.1,72.1 L 74.2,72.0 L 74.2,72.0 L 74.3,72.1 L 74.3,72.1 L 74.3,72.1 L 74.4,72.1 L 74.4,72.1 L 74.4,72.1 L 74.5,72.1 L 74.5,72.2 L 74.5,72.2 L 74.5,72.2 L 74.6,72.2 L 74.6,72.3 L 74.6,72.3 L 74.6,72.3 L 74.6,72.4 L 74.6,72.4 L 74.6,72.4 L 74.6,72.5 L 74.2,72.5 Z" style="fill:#000000;fill-rule:evenodd;fill-opacity:1;stroke:#000000;stroke-width:0.0px;stroke-linecap:butt;stroke-linejoin:miter;stroke-opacity:1;"/>
<path class="bond-0 atom-0 atom-1" d="M 344.6,63.5 L 352.3,67.3" style="fill:none;fill-rule:evenodd;stroke:#000000;stroke-width:2.0px;stroke-linecap:butt;stroke-linejoin:miter;stroke-opacity:1"/>
<path class="bond-0 atom-0 atom-1" d="M 352.3,67.3 L 360.1,71.1" style="fill:none;fill-rule:evenodd;stroke:#FF0000;stroke-width:2.0px;stroke-linecap:butt;stroke-linejoin:miter;stroke-opacity:1"/>
<path class="bond-1 atom-1 atom-2" d="M 363.8,76.6 L 364.3,83.4" style="fill:none;fill-rule:evenodd;stroke:#FF0000;stroke-width:2.0px;stroke-linecap:butt;stroke-linejoin:miter;stroke-opacity:1"/>
<path class="bond-1 atom-1 atom-2" d="M 364.3,83.4 L 364.7,90.2" style="fill:none;fill-rule:evenodd;stroke:#0000FF;stroke-width:2.0px;stroke-linecap:butt;stroke-linejoin:miter;stroke-opacity:1"/>
<path class="bond-2 atom-2 atom-3" d="M 362.0,95.8 L 354.8,100.7" style="fill:none;fill-rule:evenodd;stroke:#0000FF;stroke-width:2.0px;stroke-linecap:butt;stroke-linejoin:miter;stroke-opacity:1"/>
<path class="bond-2 atom-2 atom-3" d="M 354.8,100.7 L 347.5,105.6" style="fill:none;fill-rule:evenodd;stroke:#000000;stroke-width:2.0px;stroke-linecap:butt;stroke-linejoin:miter;stroke-opacity:1"/>
<path class="bond-3 atom-2 atom-4" d="M 368.0,95.3 L 374.2,98.4" style="fill:none;fill-rule:evenodd;stroke:#0000FF;stroke-width:2.0px;stroke-linecap:butt;stroke-linejoin:miter;stroke-opacity:1"/>
<path class="bond-3 atom-2 atom-4" d="M 374.2,98.4 L 380.5,101.4" style="fill:none;fill-rule:evenodd;stroke:#FF0000;stroke-width:2.0px;stroke-linecap:butt;stroke-linejoin:miter;stroke-opacity:1"/>
<path class="bond-4 atom-4 atom-5" d="M 387.4,100.8 L 394.5,96.1" style="fill:none;fill-rule:evenodd;stroke:#FF0000;stroke-width:2.0px;stroke-linecap:butt;stroke-linejoin:miter;stroke-opacity:1"/>
<path class="bond-4 atom-4 atom-5" d="M 394.5,96.1 L 401.5,91.3" style="fill:none;fill-rule:evenodd;stroke:#000000;stroke-width:2.0px;stroke-linecap:butt;stroke-linejoin:miter;stroke-opacity:1"/>
<path class="bond-5 atom-5 atom-6" d="M 401.5,91.3 L 400.0,70.3" style="fill:none;fill-rule:evenodd;stroke:#000000;stroke-width:2.0px;stroke-linecap:butt;stroke-linejoin:miter;stroke-opacity:1"/>
<path class="bond-5 atom-5 atom-6" d="M 405.5,87.9 L 404.5,73.1" style="fill:none;fill-rule:evenodd;stroke:#000000;stroke-width:2.0px;stroke-linecap:butt;stroke-linejoin:miter;stroke-opacity:1"/>
<path class="bond-6 atom-6 atom-7" d="M 400.0,70.3 L 417.6,58.5" style="fill:none;fill-rule:evenodd;stroke:#000000;stroke-width:2.0px;stroke-linecap:butt;stroke-linejoin:miter;stroke-opacity:1"/>
<path class="bond-7 atom-7 atom-8" d="M 417.6,58.5 L 436.5,67.7" style="fill:none;fill-rule:evenodd;stroke:#000000;stroke-width:2.0px;stroke-linecap:butt;stroke-linejoin:miter;stroke-opacity:1"/>
<path class="bond-7 atom-7 atom-8" d="M 418.6,63.7 L 431.8,70.2" style="fill:none;fill-rule:evenodd;stroke:#000000;stroke-width:2.0px;stroke-linecap:butt;stroke-linejoin:miter;stroke-opacity:1"/>
<path class="bond-8 atom-8 atom-9" d="M 436.5,67.7 L 456.1,59.9" style="fill:none;fill-rule:evenodd;stroke:#000000;stroke-width:2.0px;stroke-linecap:butt;stroke-linejoin:miter;stroke-opacity:1"/>
<path class="bond-9 atom-9 atom-10" d="M 456.1,59.9 L 461.3,39.4" style="fill:none;fill-rule:evenodd;stroke:#000000;stroke-width:2.0px;stroke-linecap:butt;stroke-linejoin:miter;stroke-opacity:1"/>
<path class="bond-10 atom-10 atom-11" d="M 459.8,40.9 L 453.9,35.2" style="fill:none;fill-rule:evenodd;stroke:#000000;stroke-width:2.0px;stroke-linecap:butt;stroke-linejoin:miter;stroke-opacity:1"/>
<path class="bond-10 atom-10 atom-11" d="M 453.9,35.2 L 448.1,29.5" style="fill:none;fill-rule:evenodd;stroke:#FF0000;stroke-width:2.0px;stroke-linecap:butt;stroke-linejoin:miter;stroke-opacity:1"/>
<path class="bond-10 atom-10 atom-11" d="M 462.7,37.8 L 456.9,32.2" style="fill:none;fill-rule:evenodd;stroke:#000000;stroke-width:2.0px;stroke-linecap:butt;stroke-linejoin:miter;stroke-opacity:1"/>
<path class="bond-10 atom-10 atom-11" d="M 456.9,32.2 L 451.0,26.5" style="fill:none;fill-rule:evenodd;stroke:#FF0000;stroke-width:2.0px;stroke-linecap:butt;stroke-linejoin:miter;stroke-opacity:1"/>
<path class="bond-11 atom-10 atom-12" d="M 461.3,39.4 L 469.9,36.9" style="fill:none;fill-rule:evenodd;stroke:#000000;stroke-width:2.0px;stroke-linecap:butt;stroke-linejoin:miter;stroke-opacity:1"/>
<path class="bond-11 atom-10 atom-12" d="M 469.9,36.9 L 478.6,34.4" style="fill:none;fill-rule:evenodd;stroke:#0000FF;stroke-width:2.0px;stroke-linecap:butt;stroke-linejoin:miter;stroke-opacity:1"/>
<path class="bond-12 atom-12 atom-13" d="M 484.5,36.4 L 490.6,42.3" style="fill:none;fill-rule:evenodd;stroke:#0000FF;stroke-width:2.0px;stroke-linecap:butt;stroke-linejoin:miter;stroke-opacity:1"/>
<path class="bond-12 atom-12 atom-13" d="M 490.6,42.3 L 496.8,48.3" style="fill:none;fill-rule:evenodd;stroke:#000000;stroke-width:2.0px;stroke-linecap:butt;stroke-linejoin:miter;stroke-opacity:1"/>
<path class="bond-13 atom-13 atom-14" d="M 496.8,48.3 L 517.1,42.5" style="fill:none;fill-rule:evenodd;stroke:#000000;stroke-width:2.0px;stroke-linecap:butt;stroke-linejoin:miter;stroke-opacity:1"/>
<path class="bond-14 atom-14 atom-15" d="M 517.1,42.5 L 519.2,34.0" style="fill:none;fill-rule:evenodd;stroke:#000000;stroke-width:2.0px;stroke-linecap:butt;stroke-linejoin:miter;stroke-opacity:1"/>
<path class="bond-14 atom-14 atom-15" d="M 519.2,34.0 L 521.3,25.6" style="fill:none;fill-rule:evenodd;stroke:#0000FF;stroke-width:2.0px;stroke-linecap:butt;stroke-linejoin:miter;stroke-opacity:1"/>
<path class="bond-15 atom-15 atom-16" d="M 519.2,19.1 L 513.1,13.2" style="fill:none;fill-rule:evenodd;stroke:#0000FF;stroke-width:2.0px;stroke-linecap:butt;stroke-linejoin:miter;stroke-opacity:1"/>
<path class="bond-15 atom-15 atom-16" d="M 513.1,13.2 L 507.0,7.3" style="fill:none;fill-rule:evenodd;stroke:#000000;stroke-width:2.0px;stroke-linecap:butt;stroke-linejoin:miter;stroke-opacity:1"/>
<path class="bond-16 atom-16 atom-17" d="M 507.0,7.3 L 486.7,13.1" style="fill:none;fill-rule:evenodd;stroke:#000000;stroke-width:2.0px;stroke-linecap:butt;stroke-linejoin:miter;stroke-opacity:1"/>
<path class="bond-17 atom-9 atom-18" d="M 456.1,59.9 L 469.7,76.0" style="fill:none;fill-rule:evenodd;stroke:#000000;stroke-width:2.0px;stroke-linecap:butt;stroke-linejoin:miter;stroke-opacity:1"/>
<path class="bond-17 atom-9 atom-18" d="M 454.9,65.0 L 464.4,76.3" style="fill:none;fill-rule:evenodd;stroke:#000000;stroke-width:2.0px;stroke-linecap:butt;stroke-linejoin:miter;stroke-opacity:1"/>
<path class="bond-18 atom-18 atom-19" d="M 469.7,76.0 L 490.8,74.6" style="fill:none;fill-rule:evenodd;stroke:#000000;stroke-width:2.0px;stroke-linecap:butt;stroke-linejoin:miter;stroke-opacity:1"/>
<path class="bond-19 atom-19 atom-20" d="M 490.8,74.6 L 502.6,92.1" style="fill:none;fill-rule:evenodd;stroke:#000000;stroke-width:2.0px;stroke-linecap:butt;stroke-linejoin:miter;stroke-opacity:1"/>
<path class="bond-20 atom-20 atom-21" d="M 502.6,92.1 L 493.3,111.1" style="fill:none;fill-rule:evenodd;stroke:#000000;stroke-width:2.0px;stroke-linecap:butt;stroke-linejoin:miter;stroke-opacity:1"/>
<path class="bond-20 atom-20 atom-21" d="M 505.0,96.8 L 498.5,110.1" style="fill:none;fill-rule:evenodd;stroke:#000000;stroke-width:2.0px;stroke-linecap:butt;stroke-linejoin:miter;stroke-opacity:1"/>
<path class="bond-21 atom-21 atom-22" d="M 493.3,111.1 L 505.1,128.6" style="fill:none;fill-rule:evenodd;stroke:#000000;stroke-width:2.0px;stroke-linecap:butt;stroke-linejoin:miter;stroke-opacity:1"/>
<path class="bond-22 atom-22 atom-23" d="M 505.1,128.6 L 526.2,127.2" style="fill:none;fill-rule:evenodd;stroke:#000000;stroke-width:2.0px;stroke-linecap:butt;stroke-linejoin:miter;stroke-opacity:1"/>
<path class="bond-22 atom-22 atom-23" d="M 507.9,124.2 L 522.7,123.2" style="fill:none;fill-rule:evenodd;stroke:#000000;stroke-width:2.0px;stroke-linecap:butt;stroke-linejoin:miter;stroke-opacity:1"/>
<path class="bond-23 atom-23 atom-24" d="M 526.2,127.2 L 535.4,108.2" style="fill:none;fill-rule:evenodd;stroke:#000000;stroke-width:2.0px;stroke-linecap:butt;stroke-linejoin:miter;stroke-opacity:1"/>
<path class="bond-24 atom-24 atom-25" d="M 535.4,108.2 L 544.7,107.5" style="fill:none;fill-rule:evenodd;stroke:#000000;stroke-width:2.0px;stroke-linecap:butt;stroke-linejoin:miter;stroke-opacity:1"/>
<path class="bond-24 atom-24 atom-25" d="M 544.7,107.5 L 554.0,106.9" style="fill:none;fill-rule:evenodd;stroke:#33CCCC;stroke-width:2.0px;stroke-linecap:butt;stroke-linejoin:miter;stroke-opacity:1"/>
<path class="bond-25 atom-24 atom-26" d="M 535.4,108.2 L 523.6,90.7" style="fill:none;fill-rule:evenodd;stroke:#000000;stroke-width:2.0px;stroke-linecap:butt;stroke-linejoin:miter;stroke-opacity:1"/>
<path class="bond-25 atom-24 atom-26" d="M 530.2,107.9 L 521.9,95.7" style="fill:none;fill-rule:evenodd;stroke:#000000;stroke-width:2.0px;stroke-linecap:butt;stroke-linejoin:miter;stroke-opacity:1"/>
<path class="bond-26 atom-26 atom-27" d="M 523.6,90.7 L 532.9,71.7" style="fill:none;fill-rule:evenodd;stroke:#000000;stroke-width:2.0px;stroke-linecap:butt;stroke-linejoin:miter;stroke-opacity:1"/>
<path class="bond-27 atom-18 atom-28" d="M 469.7,76.0 L 465.2,83.2" style="fill:none;fill-rule:evenodd;stroke:#000000;stroke-width:2.0px;stroke-linecap:butt;stroke-linejoin:miter;stroke-opacity:1"/>
<path class="bond-27 atom-18 atom-28" d="M 465.2,83.2 L 460.8,90.3" style="fill:none;fill-rule:evenodd;stroke:#0000FF;stroke-width:2.0px;stroke-linecap:butt;stroke-linejoin:miter;stroke-opacity:1"/>
<path class="bond-28 atom-28 atom-29" d="M 460.0,97.6 L 463.2,105.6" style="fill:none;fill-rule:evenodd;stroke:#0000FF;stroke-width:2.0px;stroke-linecap:butt;stroke-linejoin:miter;stroke-opacity:1"/>
<path class="bond-28 atom-28 atom-29" d="M 463.2,105.6 L 466.4,113.5" style="fill:none;fill-rule:evenodd;stroke:#000000;stroke-width:2.0px;stroke-linecap:butt;stroke-linejoin:miter;stroke-opacity:1"/>
<path class="bond-29 atom-29 atom-30" d="M 466.4,113.5 L 453.4,130.2" style="fill:none;fill-rule:evenodd;stroke:#000000;stroke-width:2.0px;stroke-linecap:butt;stroke-linejoin:miter;stroke-opacity:1"/>
<path class="bond-29 atom-29 atom-30" d="M 467.8,118.6 L 458.6,130.3" style="fill:none;fill-rule:evenodd;stroke:#000000;stroke-width:2.0px;stroke-linecap:butt;stroke-linejoin:miter;stroke-opacity:1"/>
<path class="bond-30 atom-30 atom-31" d="M 453.4,130.2 L 461.3,149.8" style="fill:none;fill-rule:evenodd;stroke:#000000;stroke-width:2.0px;stroke-linecap:butt;stroke-linejoin:miter;stroke-opacity:1"/>
<path class="bond-31 atom-31 atom-32" d="M 461.3,149.8 L 482.2,152.7" style="fill:none;fill-rule:evenodd;stroke:#000000;stroke-width:2.0px;stroke-linecap:butt;stroke-linejoin:miter;stroke-opacity:1"/>
<path class="bond-31 atom-31 atom-32" d="M 465.0,146.0 L 479.6,148.1" style="fill:none;fill-rule:evenodd;stroke:#000000;stroke-width:2.0px;stroke-linecap:butt;stroke-linejoin:miter;stroke-opacity:1"/>
<path class="bond-32 atom-32 atom-33" d="M 482.2,152.7 L 495.2,136.1" style="fill:none;fill-rule:evenodd;stroke:#000000;stroke-width:2.0px;stroke-linecap:butt;stroke-linejoin:miter;stroke-opacity:1"/>
<path class="bond-33 atom-33 atom-34" d="M 495.2,136.1 L 487.3,116.5" style="fill:none;fill-rule:evenodd;stroke:#000000;stroke-width:2.0px;stroke-linecap:butt;stroke-linejoin:miter;stroke-opacity:1"/>
<path class="bond-33 atom-33 atom-34" d="M 490.1,134.7 L 484.6,121.0" style="fill:none;fill-rule:evenodd;stroke:#000000;stroke-width:2.0px;stroke-linecap:butt;stroke-linejoin:miter;stroke-opacity:1"/>
<path class="bond-34 atom-28 atom-35" d="M 455.5,93.2 L 446.8,91.0" style="fill:none;fill-rule:evenodd;stroke:#0000FF;stroke-width:2.0px;stroke-linecap:butt;stroke-linejoin:miter;stroke-opacity:1"/>
<path class="bond-34 atom-28 atom-35" d="M 446.8,91.0 L 438.0,88.8" style="fill:none;fill-rule:evenodd;stroke:#000000;stroke-width:2.0px;stroke-linecap:butt;stroke-linejoin:miter;stroke-opacity:1"/>
<path class="bond-35 atom-35 atom-36" d="M 438.0,88.8 L 420.5,100.6" style="fill:none;fill-rule:evenodd;stroke:#000000;stroke-width:2.0px;stroke-linecap:butt;stroke-linejoin:miter;stroke-opacity:1"/>
<path class="bond-35 atom-35 atom-36" d="M 433.0,87.1 L 420.7,95.3" style="fill:none;fill-rule:evenodd;stroke:#000000;stroke-width:2.0px;stroke-linecap:butt;stroke-linejoin:miter;stroke-opacity:1"/>
<path class="bond-36 atom-36 atom-5" d="M 420.5,100.6 L 401.5,91.3" style="fill:none;fill-rule:evenodd;stroke:#000000;stroke-width:2.0px;stroke-linecap:butt;stroke-linejoin:miter;stroke-opacity:1"/>
<path class="bond-37 atom-35 atom-8" d="M 438.0,88.8 L 436.5,67.7" style="fill:none;fill-rule:evenodd;stroke:#000000;stroke-width:2.0px;stroke-linecap:butt;stroke-linejoin:miter;stroke-opacity:1"/>
<path class="bond-38 atom-17 atom-12" d="M 486.7,13.1 L 484.6,21.5" style="fill:none;fill-rule:evenodd;stroke:#000000;stroke-width:2.0px;stroke-linecap:butt;stroke-linejoin:miter;stroke-opacity:1"/>
<path class="bond-38 atom-17 atom-12" d="M 484.6,21.5 L 482.5,29.9" style="fill:none;fill-rule:evenodd;stroke:#0000FF;stroke-width:2.0px;stroke-linecap:butt;stroke-linejoin:miter;stroke-opacity:1"/>
<path class="bond-39 atom-26 atom-20" d="M 523.6,90.7 L 502.6,92.1" style="fill:none;fill-rule:evenodd;stroke:#000000;stroke-width:2.0px;stroke-linecap:butt;stroke-linejoin:miter;stroke-opacity:1"/>
<path class="bond-40 atom-34 atom-29" d="M 487.3,116.5 L 466.4,113.5" style="fill:none;fill-rule:evenodd;stroke:#000000;stroke-width:2.0px;stroke-linecap:butt;stroke-linejoin:miter;stroke-opacity:1"/>
<path class="atom-1" d="M 360.8 72.8 Q 360.8 71.4, 361.5 70.6 Q 362.2 69.8, 363.5 69.8 Q 364.9 69.8, 365.6 70.6 Q 366.3 71.4, 366.3 72.8 Q 366.3 74.2, 365.6 75.1 Q 364.9 75.9, 363.5 75.9 Q 362.2 75.9, 361.5 75.1 Q 360.8 74.3, 360.8 72.8 M 363.5 75.2 Q 364.5 75.2, 364.9 74.6 Q 365.4 74.0, 365.4 72.8 Q 365.4 71.6, 364.9 71.0 Q 364.5 70.4, 363.5 70.4 Q 362.6 70.4, 362.1 71.0 Q 361.6 71.6, 361.6 72.8 Q 361.6 74.0, 362.1 74.6 Q 362.6 75.2, 363.5 75.2 " fill="#FF0000"/>
<path class="atom-2" d="M 363.7 90.9 L 365.6 94.0 Q 365.8 94.3, 366.1 94.9 Q 366.5 95.5, 366.5 95.5 L 366.5 90.9 L 367.3 90.9 L 367.3 96.8 L 366.4 96.8 L 364.3 93.4 Q 364.1 93.0, 363.8 92.5 Q 363.6 92.0, 363.5 91.9 L 363.5 96.8 L 362.7 96.8 L 362.7 90.9 L 363.7 90.9 " fill="#0000FF"/>
<path class="atom-4" d="M 381.2 103.1 Q 381.2 101.7, 381.9 100.9 Q 382.6 100.1, 384.0 100.1 Q 385.3 100.1, 386.0 100.9 Q 386.7 101.7, 386.7 103.1 Q 386.7 104.6, 386.0 105.4 Q 385.3 106.2, 384.0 106.2 Q 382.7 106.2, 381.9 105.4 Q 381.2 104.6, 381.2 103.1 M 384.0 105.6 Q 384.9 105.6, 385.4 105.0 Q 385.9 104.3, 385.9 103.1 Q 385.9 102.0, 385.4 101.4 Q 384.9 100.8, 384.0 100.8 Q 383.1 100.8, 382.6 101.4 Q 382.1 102.0, 382.1 103.1 Q 382.1 104.4, 382.6 105.0 Q 383.1 105.6, 384.0 105.6 " fill="#FF0000"/>
<path class="atom-11" d="M 443.3 24.7 Q 443.3 23.3, 444.1 22.5 Q 444.8 21.7, 446.1 21.7 Q 447.4 21.7, 448.1 22.5 Q 448.8 23.3, 448.8 24.7 Q 448.8 26.1, 448.1 27.0 Q 447.4 27.8, 446.1 27.8 Q 444.8 27.8, 444.1 27.0 Q 443.3 26.2, 443.3 24.7 M 446.1 27.1 Q 447.0 27.1, 447.5 26.5 Q 448.0 25.9, 448.0 24.7 Q 448.0 23.5, 447.5 22.9 Q 447.0 22.3, 446.1 22.3 Q 445.2 22.3, 444.7 22.9 Q 444.2 23.5, 444.2 24.7 Q 444.2 25.9, 444.7 26.5 Q 445.2 27.1, 446.1 27.1 " fill="#FF0000"/>
<path class="atom-12" d="M 480.3 30.6 L 482.2 33.7 Q 482.4 34.1, 482.7 34.6 Q 483.0 35.2, 483.1 35.2 L 483.1 30.6 L 483.8 30.6 L 483.8 36.6 L 483.0 36.6 L 480.9 33.1 Q 480.7 32.7, 480.4 32.2 Q 480.2 31.8, 480.1 31.6 L 480.1 36.6 L 479.3 36.6 L 479.3 30.6 L 480.3 30.6 " fill="#0000FF"/>
<path class="atom-15" d="M 520.9 19.0 L 522.8 22.1 Q 523.0 22.5, 523.3 23.0 Q 523.7 23.6, 523.7 23.6 L 523.7 19.0 L 524.5 19.0 L 524.5 25.0 L 523.6 25.0 L 521.5 21.5 Q 521.3 21.1, 521.0 20.6 Q 520.8 20.2, 520.7 20.0 L 520.7 25.0 L 519.9 25.0 L 519.9 19.0 L 520.9 19.0 " fill="#0000FF"/>
<path class="atom-15" d="M 525.2 19.0 L 526.0 19.0 L 526.0 21.5 L 529.0 21.5 L 529.0 19.0 L 529.8 19.0 L 529.8 25.0 L 529.0 25.0 L 529.0 22.2 L 526.0 22.2 L 526.0 25.0 L 525.2 25.0 L 525.2 19.0 " fill="#0000FF"/>
<path class="atom-25" d="M 554.7 103.7 L 558.3 103.7 L 558.3 104.4 L 555.5 104.4 L 555.5 106.2 L 558.0 106.2 L 558.0 106.9 L 555.5 106.9 L 555.5 109.7 L 554.7 109.7 L 554.7 103.7 " fill="#33CCCC"/>
<path class="atom-28" d="M 457.2 91.0 L 459.1 94.1 Q 459.3 94.4, 459.6 95.0 Q 459.9 95.6, 460.0 95.6 L 460.0 91.0 L 460.8 91.0 L 460.8 96.9 L 459.9 96.9 L 457.8 93.5 Q 457.6 93.1, 457.3 92.6 Q 457.1 92.1, 457.0 92.0 L 457.0 96.9 L 456.2 96.9 L 456.2 91.0 L 457.2 91.0 " fill="#0000FF"/>
<path class="atom-0" d="M 342.5,61.4 L 342.5,61.4 L 342.5,61.5 L 342.4,61.5 L 342.4,61.5 L 342.4,61.6 L 342.4,61.6 L 342.4,61.6 L 342.4,61.7 L 342.3,61.7 L 342.3,61.7 L 342.3,61.7 L 342.3,61.8 L 342.2,61.8 L 342.2,61.8 L 342.2,61.8 L 342.1,61.8 L 342.1,61.8 L 342.0,61.8 L 342.0,61.8 L 342.0,61.8 L 341.9,61.8 L 341.9,61.8 L 341.9,61.8 L 341.8,61.8 L 341.8,61.7 L 341.8,61.7 L 341.7,61.7 L 341.7,61.7 L 341.7,61.6 L 341.7,61.6 L 341.7,61.6 L 341.6,61.5 L 341.6,61.5 L 341.6,61.5 L 341.6,61.4 L 341.6,61.4 L 341.6,61.4 L 341.6,61.3 L 341.6,61.3 L 341.6,61.3 L 341.6,61.2 L 341.7,61.2 L 341.7,61.2 L 341.7,61.1 L 341.7,61.1 L 341.7,61.1 L 341.8,61.1 L 341.8,61.0 L 341.8,61.0 L 341.9,61.0 L 341.9,61.0 L 341.9,61.0 L 342.0,61.0 L 342.0,61.0 L 342.0,61.0 L 342.1,61.0 L 342.1,61.0 L 342.2,61.0 L 342.2,61.0 L 342.2,61.0 L 342.3,61.0 L 342.3,61.0 L 342.3,61.1 L 342.3,61.1 L 342.4,61.1 L 342.4,61.1 L 342.4,61.2 L 342.4,61.2 L 342.4,61.2 L 342.4,61.3 L 342.5,61.3 L 342.5,61.4 L 342.5,61.4 L 342.0,61.4 Z" style="fill:#000000;fill-rule:evenodd;fill-opacity:1;stroke:#000000;stroke-width:0.0px;stroke-linecap:butt;stroke-linejoin:miter;stroke-opacity:1;"/>
<path class="atom-0" d="M 342.5,65.6 L 342.5,65.6 L 342.5,65.7 L 342.4,65.7 L 342.4,65.8 L 342.4,65.8 L 342.4,65.8 L 342.4,65.9 L 342.4,65.9 L 342.3,65.9 L 342.3,65.9 L 342.3,66.0 L 342.3,66.0 L 342.2,66.0 L 342.2,66.0 L 342.2,66.0 L 342.1,66.0 L 342.1,66.0 L 342.0,66.0 L 342.0,66.0 L 342.0,66.0 L 341.9,66.0 L 341.9,66.0 L 341.9,66.0 L 341.8,66.0 L 341.8,66.0 L 341.8,65.9 L 341.7,65.9 L 341.7,65.9 L 341.7,65.9 L 341.7,65.8 L 341.7,65.8 L 341.6,65.8 L 341.6,65.7 L 341.6,65.7 L 341.6,65.7 L 341.6,65.6 L 341.6,65.6 L 341.6,65.6 L 341.6,65.5 L 341.6,65.5 L 341.6,65.5 L 341.7,65.4 L 341.7,65.4 L 341.7,65.4 L 341.7,65.3 L 341.7,65.3 L 341.8,65.3 L 341.8,65.3 L 341.8,65.2 L 341.9,65.2 L 341.9,65.2 L 341.9,65.2 L 342.0,65.2 L 342.0,65.2 L 342.0,65.2 L 342.1,65.2 L 342.1,65.2 L 342.2,65.2 L 342.2,65.2 L 342.2,65.2 L 342.3,65.3 L 342.3,65.3 L 342.3,65.3 L 342.3,65.3 L 342.4,65.3 L 342.4,65.4 L 342.4,65.4 L 342.4,65.4 L 342.4,65.5 L 342.4,65.5 L 342.5,65.5 L 342.5,65.6 L 342.5,65.6 L 342.0,65.6 Z" style="fill:#000000;fill-rule:evenodd;fill-opacity:1;stroke:#000000;stroke-width:0.0px;stroke-linecap:butt;stroke-linejoin:miter;stroke-opacity:1;"/>
<path class="atom-0" d="M 342.5,63.5 L 342.5,63.5 L 342.5,63.6 L 342.4,63.6 L 342.4,63.6 L 342.4,63.7 L 342.4,63.7 L 342.4,63.7 L 342.4,63.8 L 342.3,63.8 L 342.3,63.8 L 342.3,63.8 L 342.3,63.9 L 342.2,63.9 L 342.2,63.9 L 342.2,63.9 L 342.1,63.9 L 342.1,63.9 L 342.0,63.9 L 342.0,63.9 L 342.0,63.9 L 341.9,63.9 L 341.9,63.9 L 341.9,63.9 L 341.8,63.9 L 341.8,63.9 L 341.8,63.8 L 341.7,63.8 L 341.7,63.8 L 341.7,63.8 L 341.7,63.7 L 341.7,63.7 L 341.6,63.7 L 341.6,63.6 L 341.6,63.6 L 341.6,63.6 L 341.6,63.5 L 341.6,63.5 L 341.6,63.4 L 341.6,63.4 L 341.6,63.4 L 341.6,63.3 L 341.7,63.3 L 341.7,63.3 L 341.7,63.2 L 341.7,63.2 L 341.7,63.2 L 341.8,63.2 L 341.8,63.1 L 341.8,63.1 L 341.9,63.1 L 341.9,63.1 L 341.9,63.1 L 342.0,63.1 L 342.0,63.1 L 342.0,63.1 L 342.1,63.1 L 342.1,63.1 L 342.2,63.1 L 342.2,63.1 L 342.2,63.1 L 342.3,63.1 L 342.3,63.2 L 342.3,63.2 L 342.3,63.2 L 342.4,63.2 L 342.4,63.3 L 342.4,63.3 L 342.4,63.3 L 342.4,63.4 L 342.4,63.4 L 342.5,63.4 L 342.5,63.5 L 342.5,63.5 L 342.0,63.5 Z" style="fill:#000000;fill-rule:evenodd;fill-opacity:1;stroke:#000000;stroke-width:0.0px;stroke-linecap:butt;stroke-linejoin:miter;stroke-opacity:1;"/>
<path class="bond-0 atom-0 atom-1" d="M 638.6,71.4 L 645.8,76.4" style="fill:none;fill-rule:evenodd;stroke:#000000;stroke-width:2.0px;stroke-linecap:butt;stroke-linejoin:miter;stroke-opacity:1"/>
<path class="bond-0 atom-0 atom-1" d="M 645.8,76.4 L 653.0,81.4" style="fill:none;fill-rule:evenodd;stroke:#0000FF;stroke-width:2.0px;stroke-linecap:butt;stroke-linejoin:miter;stroke-opacity:1"/>
<path class="bond-1 atom-1 atom-2" d="M 655.7,87.1 L 655.0,95.8" style="fill:none;fill-rule:evenodd;stroke:#0000FF;stroke-width:2.0px;stroke-linecap:butt;stroke-linejoin:miter;stroke-opacity:1"/>
<path class="bond-1 atom-1 atom-2" d="M 655.0,95.8 L 654.3,104.5" style="fill:none;fill-rule:evenodd;stroke:#000000;stroke-width:2.0px;stroke-linecap:butt;stroke-linejoin:miter;stroke-opacity:1"/>
<path class="bond-2 atom-1 atom-3" d="M 658.9,82.0 L 667.0,78.2" style="fill:none;fill-rule:evenodd;stroke:#0000FF;stroke-width:2.0px;stroke-linecap:butt;stroke-linejoin:miter;stroke-opacity:1"/>
<path class="bond-2 atom-1 atom-3" d="M 667.0,78.2 L 675.0,74.4" style="fill:none;fill-rule:evenodd;stroke:#000000;stroke-width:2.0px;stroke-linecap:butt;stroke-linejoin:miter;stroke-opacity:1"/>
<path class="bond-3 atom-3 atom-4" d="M 675.0,74.4 L 682.0,79.2" style="fill:none;fill-rule:evenodd;stroke:#000000;stroke-width:2.0px;stroke-linecap:butt;stroke-linejoin:miter;stroke-opacity:1"/>
<path class="bond-3 atom-3 atom-4" d="M 682.0,79.2 L 689.0,84.0" style="fill:none;fill-rule:evenodd;stroke:#FF0000;stroke-width:2.0px;stroke-linecap:butt;stroke-linejoin:miter;stroke-opacity:1"/>
<path class="bond-4 atom-4 atom-5" d="M 695.9,84.7 L 703.7,81.0" style="fill:none;fill-rule:evenodd;stroke:#FF0000;stroke-width:2.0px;stroke-linecap:butt;stroke-linejoin:miter;stroke-opacity:1"/>
<path class="bond-4 atom-4 atom-5" d="M 703.7,81.0 L 711.5,77.3" style="fill:none;fill-rule:evenodd;stroke:#000000;stroke-width:2.0px;stroke-linecap:butt;stroke-linejoin:miter;stroke-opacity:1"/>
<path class="bond-5 atom-5 atom-6" d="M 711.5,77.3 L 713.2,56.3" style="fill:none;fill-rule:evenodd;stroke:#000000;stroke-width:2.0px;stroke-linecap:butt;stroke-linejoin:miter;stroke-opacity:1"/>
<path class="bond-5 atom-5 atom-6" d="M 716.0,74.5 L 717.2,59.8" style="fill:none;fill-rule:evenodd;stroke:#000000;stroke-width:2.0px;stroke-linecap:butt;stroke-linejoin:miter;stroke-opacity:1"/>
<path class="bond-6 atom-6 atom-7" d="M 713.2,56.3 L 732.3,47.2" style="fill:none;fill-rule:evenodd;stroke:#000000;stroke-width:2.0px;stroke-linecap:butt;stroke-linejoin:miter;stroke-opacity:1"/>
<path class="bond-7 atom-7 atom-8" d="M 732.3,47.2 L 749.7,59.2" style="fill:none;fill-rule:evenodd;stroke:#000000;stroke-width:2.0px;stroke-linecap:butt;stroke-linejoin:miter;stroke-opacity:1"/>
<path class="bond-7 atom-7 atom-8" d="M 732.5,52.5 L 744.7,60.9" style="fill:none;fill-rule:evenodd;stroke:#000000;stroke-width:2.0px;stroke-linecap:butt;stroke-linejoin:miter;stroke-opacity:1"/>
<path class="bond-8 atom-8 atom-9" d="M 749.7,59.2 L 770.2,54.3" style="fill:none;fill-rule:evenodd;stroke:#000000;stroke-width:2.0px;stroke-linecap:butt;stroke-linejoin:miter;stroke-opacity:1"/>
<path class="bond-9 atom-9 atom-10" d="M 770.2,54.3 L 778.4,34.9" style="fill:none;fill-rule:evenodd;stroke:#000000;stroke-width:2.0px;stroke-linecap:butt;stroke-linejoin:miter;stroke-opacity:1"/>
<path class="bond-10 atom-10 atom-11" d="M 776.7,36.1 L 771.7,29.6" style="fill:none;fill-rule:evenodd;stroke:#000000;stroke-width:2.0px;stroke-linecap:butt;stroke-linejoin:miter;stroke-opacity:1"/>
<path class="bond-10 atom-10 atom-11" d="M 771.7,29.6 L 766.8,23.2" style="fill:none;fill-rule:evenodd;stroke:#FF0000;stroke-width:2.0px;stroke-linecap:butt;stroke-linejoin:miter;stroke-opacity:1"/>
<path class="bond-10 atom-10 atom-11" d="M 780.0,33.6 L 775.1,27.1" style="fill:none;fill-rule:evenodd;stroke:#000000;stroke-width:2.0px;stroke-linecap:butt;stroke-linejoin:miter;stroke-opacity:1"/>
<path class="bond-10 atom-10 atom-11" d="M 775.1,27.1 L 770.1,20.6" style="fill:none;fill-rule:evenodd;stroke:#FF0000;stroke-width:2.0px;stroke-linecap:butt;stroke-linejoin:miter;stroke-opacity:1"/>
<path class="bond-11 atom-10 atom-12" d="M 778.4,34.9 L 787.4,33.7" style="fill:none;fill-rule:evenodd;stroke:#000000;stroke-width:2.0px;stroke-linecap:butt;stroke-linejoin:miter;stroke-opacity:1"/>
<path class="bond-11 atom-10 atom-12" d="M 787.4,33.7 L 796.3,32.5" style="fill:none;fill-rule:evenodd;stroke:#0000FF;stroke-width:2.0px;stroke-linecap:butt;stroke-linejoin:miter;stroke-opacity:1"/>
<path class="bond-12 atom-12 atom-13" d="M 802.1,35.8 L 807.1,42.4" style="fill:none;fill-rule:evenodd;stroke:#0000FF;stroke-width:2.0px;stroke-linecap:butt;stroke-linejoin:miter;stroke-opacity:1"/>
<path class="bond-12 atom-12 atom-13" d="M 807.1,42.4 L 812.1,48.9" style="fill:none;fill-rule:evenodd;stroke:#000000;stroke-width:2.0px;stroke-linecap:butt;stroke-linejoin:miter;stroke-opacity:1"/>
<path class="bond-13 atom-13 atom-14" d="M 812.1,48.9 L 833.1,46.2" style="fill:none;fill-rule:evenodd;stroke:#000000;stroke-width:2.0px;stroke-linecap:butt;stroke-linejoin:miter;stroke-opacity:1"/>
<path class="bond-14 atom-14 atom-15" d="M 833.1,46.2 L 836.4,38.3" style="fill:none;fill-rule:evenodd;stroke:#000000;stroke-width:2.0px;stroke-linecap:butt;stroke-linejoin:miter;stroke-opacity:1"/>
<path class="bond-14 atom-14 atom-15" d="M 836.4,38.3 L 839.7,30.4" style="fill:none;fill-rule:evenodd;stroke:#0000FF;stroke-width:2.0px;stroke-linecap:butt;stroke-linejoin:miter;stroke-opacity:1"/>
<path class="bond-15 atom-15 atom-16" d="M 838.4,23.0 L 833.4,16.5" style="fill:none;fill-rule:evenodd;stroke:#0000FF;stroke-width:2.0px;stroke-linecap:butt;stroke-linejoin:miter;stroke-opacity:1"/>
<path class="bond-15 atom-15 atom-16" d="M 833.4,16.5 L 828.4,9.9" style="fill:none;fill-rule:evenodd;stroke:#000000;stroke-width:2.0px;stroke-linecap:butt;stroke-linejoin:miter;stroke-opacity:1"/>
<path class="bond-16 atom-16 atom-17" d="M 828.4,9.9 L 807.4,12.6" style="fill:none;fill-rule:evenodd;stroke:#000000;stroke-width:2.0px;stroke-linecap:butt;stroke-linejoin:miter;stroke-opacity:1"/>
<path class="bond-17 atom-9 atom-18" d="M 770.2,54.3 L 781.2,72.4" style="fill:none;fill-rule:evenodd;stroke:#000000;stroke-width:2.0px;stroke-linecap:butt;stroke-linejoin:miter;stroke-opacity:1"/>
<path class="bond-17 atom-9 atom-18" d="M 768.3,59.3 L 776.0,71.9" style="fill:none;fill-rule:evenodd;stroke:#000000;stroke-width:2.0px;stroke-linecap:butt;stroke-linejoin:miter;stroke-opacity:1"/>
<path class="bond-18 atom-18 atom-19" d="M 781.2,72.4 L 802.3,74.1" style="fill:none;fill-rule:evenodd;stroke:#000000;stroke-width:2.0px;stroke-linecap:butt;stroke-linejoin:miter;stroke-opacity:1"/>
<path class="bond-19 atom-19 atom-20" d="M 802.3,74.1 L 811.3,93.2" style="fill:none;fill-rule:evenodd;stroke:#000000;stroke-width:2.0px;stroke-linecap:butt;stroke-linejoin:miter;stroke-opacity:1"/>
<path class="bond-20 atom-20 atom-21" d="M 811.3,93.2 L 799.3,110.6" style="fill:none;fill-rule:evenodd;stroke:#000000;stroke-width:2.0px;stroke-linecap:butt;stroke-linejoin:miter;stroke-opacity:1"/>
<path class="bond-20 atom-20 atom-21" d="M 813.0,98.2 L 804.6,110.3" style="fill:none;fill-rule:evenodd;stroke:#000000;stroke-width:2.0px;stroke-linecap:butt;stroke-linejoin:miter;stroke-opacity:1"/>
<path class="bond-21 atom-21 atom-22" d="M 799.3,110.6 L 808.4,129.6" style="fill:none;fill-rule:evenodd;stroke:#000000;stroke-width:2.0px;stroke-linecap:butt;stroke-linejoin:miter;stroke-opacity:1"/>
<path class="bond-22 atom-22 atom-23" d="M 808.4,129.6 L 829.4,131.3" style="fill:none;fill-rule:evenodd;stroke:#000000;stroke-width:2.0px;stroke-linecap:butt;stroke-linejoin:miter;stroke-opacity:1"/>
<path class="bond-22 atom-22 atom-23" d="M 811.9,125.7 L 826.6,126.9" style="fill:none;fill-rule:evenodd;stroke:#000000;stroke-width:2.0px;stroke-linecap:butt;stroke-linejoin:miter;stroke-opacity:1"/>
<path class="bond-23 atom-23 atom-24" d="M 829.4,131.3 L 841.4,114.0" style="fill:none;fill-rule:evenodd;stroke:#000000;stroke-width:2.0px;stroke-linecap:butt;stroke-linejoin:miter;stroke-opacity:1"/>
<path class="bond-24 atom-24 atom-25" d="M 841.4,114.0 L 850.7,114.7" style="fill:none;fill-rule:evenodd;stroke:#000000;stroke-width:2.0px;stroke-linecap:butt;stroke-linejoin:miter;stroke-opacity:1"/>
<path class="bond-24 atom-24 atom-25" d="M 850.7,114.7 L 860.0,115.5" style="fill:none;fill-rule:evenodd;stroke:#33CCCC;stroke-width:2.0px;stroke-linecap:butt;stroke-linejoin:miter;stroke-opacity:1"/>
<path class="bond-25 atom-24 atom-26" d="M 841.4,114.0 L 832.4,94.9" style="fill:none;fill-rule:evenodd;stroke:#000000;stroke-width:2.0px;stroke-linecap:butt;stroke-linejoin:miter;stroke-opacity:1"/>
<path class="bond-25 atom-24 atom-26" d="M 836.3,112.9 L 829.9,99.6" style="fill:none;fill-rule:evenodd;stroke:#000000;stroke-width:2.0px;stroke-linecap:butt;stroke-linejoin:miter;stroke-opacity:1"/>
<path class="bond-26 atom-26 atom-27" d="M 832.4,94.9 L 844.4,77.5" style="fill:none;fill-rule:evenodd;stroke:#000000;stroke-width:2.0px;stroke-linecap:butt;stroke-linejoin:miter;stroke-opacity:1"/>
<path class="bond-27 atom-18 atom-28" d="M 781.2,72.4 L 775.8,78.7" style="fill:none;fill-rule:evenodd;stroke:#000000;stroke-width:2.0px;stroke-linecap:butt;stroke-linejoin:miter;stroke-opacity:1"/>
<path class="bond-27 atom-18 atom-28" d="M 775.8,78.7 L 770.4,85.0" style="fill:none;fill-rule:evenodd;stroke:#0000FF;stroke-width:2.0px;stroke-linecap:butt;stroke-linejoin:miter;stroke-opacity:1"/>
<path class="bond-28 atom-28 atom-29" d="M 768.4,92.1 L 770.4,100.5" style="fill:none;fill-rule:evenodd;stroke:#0000FF;stroke-width:2.0px;stroke-linecap:butt;stroke-linejoin:miter;stroke-opacity:1"/>
<path class="bond-28 atom-28 atom-29" d="M 770.4,100.5 L 772.4,109.0" style="fill:none;fill-rule:evenodd;stroke:#000000;stroke-width:2.0px;stroke-linecap:butt;stroke-linejoin:miter;stroke-opacity:1"/>
<path class="bond-29 atom-29 atom-30" d="M 772.4,109.0 L 757.0,123.5" style="fill:none;fill-rule:evenodd;stroke:#000000;stroke-width:2.0px;stroke-linecap:butt;stroke-linejoin:miter;stroke-opacity:1"/>
<path class="bond-29 atom-29 atom-30" d="M 773.0,114.2 L 762.2,124.4" style="fill:none;fill-rule:evenodd;stroke:#000000;stroke-width:2.0px;stroke-linecap:butt;stroke-linejoin:miter;stroke-opacity:1"/>
<path class="bond-30 atom-30 atom-31" d="M 757.0,123.5 L 761.9,144.0" style="fill:none;fill-rule:evenodd;stroke:#000000;stroke-width:2.0px;stroke-linecap:butt;stroke-linejoin:miter;stroke-opacity:1"/>
<path class="bond-31 atom-31 atom-32" d="M 761.9,144.0 L 782.1,150.1" style="fill:none;fill-rule:evenodd;stroke:#000000;stroke-width:2.0px;stroke-linecap:butt;stroke-linejoin:miter;stroke-opacity:1"/>
<path class="bond-31 atom-31 atom-32" d="M 766.1,140.9 L 780.3,145.1" style="fill:none;fill-rule:evenodd;stroke:#000000;stroke-width:2.0px;stroke-linecap:butt;stroke-linejoin:miter;stroke-opacity:1"/>
<path class="bond-32 atom-32 atom-33" d="M 782.1,150.1 L 797.5,135.6" style="fill:none;fill-rule:evenodd;stroke:#000000;stroke-width:2.0px;stroke-linecap:butt;stroke-linejoin:miter;stroke-opacity:1"/>
<path class="bond-33 atom-33 atom-34" d="M 797.5,135.6 L 792.6,115.0" style="fill:none;fill-rule:evenodd;stroke:#000000;stroke-width:2.0px;stroke-linecap:butt;stroke-linejoin:miter;stroke-opacity:1"/>
<path class="bond-33 atom-33 atom-34" d="M 792.6,133.5 L 789.2,119.1" style="fill:none;fill-rule:evenodd;stroke:#000000;stroke-width:2.0px;stroke-linecap:butt;stroke-linejoin:miter;stroke-opacity:1"/>
<path class="bond-34 atom-28 atom-35" d="M 764.5,87.2 L 756.2,83.7" style="fill:none;fill-rule:evenodd;stroke:#0000FF;stroke-width:2.0px;stroke-linecap:butt;stroke-linejoin:miter;stroke-opacity:1"/>
<path class="bond-34 atom-28 atom-35" d="M 756.2,83.7 L 748.0,80.3" style="fill:none;fill-rule:evenodd;stroke:#000000;stroke-width:2.0px;stroke-linecap:butt;stroke-linejoin:miter;stroke-opacity:1"/>
<path class="bond-35 atom-35 atom-36" d="M 748.0,80.3 L 728.9,89.3" style="fill:none;fill-rule:evenodd;stroke:#000000;stroke-width:2.0px;stroke-linecap:butt;stroke-linejoin:miter;stroke-opacity:1"/>
<path class="bond-35 atom-35 atom-36" d="M 743.3,77.8 L 729.9,84.2" style="fill:none;fill-rule:evenodd;stroke:#000000;stroke-width:2.0px;stroke-linecap:butt;stroke-linejoin:miter;stroke-opacity:1"/>
<path class="bond-36 atom-36 atom-5" d="M 728.9,89.3 L 711.5,77.3" style="fill:none;fill-rule:evenodd;stroke:#000000;stroke-width:2.0px;stroke-linecap:butt;stroke-linejoin:miter;stroke-opacity:1"/>
<path class="bond-37 atom-35 atom-8" d="M 748.0,80.3 L 749.7,59.2" style="fill:none;fill-rule:evenodd;stroke:#000000;stroke-width:2.0px;stroke-linecap:butt;stroke-linejoin:miter;stroke-opacity:1"/>
<path class="bond-38 atom-17 atom-12" d="M 807.4,12.6 L 804.1,20.6" style="fill:none;fill-rule:evenodd;stroke:#000000;stroke-width:2.0px;stroke-linecap:butt;stroke-linejoin:miter;stroke-opacity:1"/>
<path class="bond-38 atom-17 atom-12" d="M 804.1,20.6 L 800.9,28.5" style="fill:none;fill-rule:evenodd;stroke:#0000FF;stroke-width:2.0px;stroke-linecap:butt;stroke-linejoin:miter;stroke-opacity:1"/>
<path class="bond-39 atom-26 atom-20" d="M 832.4,94.9 L 811.3,93.2" style="fill:none;fill-rule:evenodd;stroke:#000000;stroke-width:2.0px;stroke-linecap:butt;stroke-linejoin:miter;stroke-opacity:1"/>
<path class="bond-40 atom-34 atom-29" d="M 792.6,115.0 L 772.4,109.0" style="fill:none;fill-rule:evenodd;stroke:#000000;stroke-width:2.0px;stroke-linecap:butt;stroke-linejoin:miter;stroke-opacity:1"/>
<path class="atom-1" d="M 654.6 80.4 L 656.6 83.6 Q 656.8 83.9, 657.1 84.5 Q 657.4 85.0, 657.4 85.1 L 657.4 80.4 L 658.2 80.4 L 658.2 86.4 L 657.4 86.4 L 655.3 82.9 Q 655.1 82.5, 654.8 82.1 Q 654.5 81.6, 654.5 81.5 L 654.5 86.4 L 653.7 86.4 L 653.7 80.4 L 654.6 80.4 " fill="#0000FF"/>
<path class="atom-4" d="M 689.7 86.4 Q 689.7 85.0, 690.4 84.2 Q 691.1 83.4, 692.4 83.4 Q 693.8 83.4, 694.5 84.2 Q 695.2 85.0, 695.2 86.4 Q 695.2 87.8, 694.5 88.7 Q 693.7 89.5, 692.4 89.5 Q 691.1 89.5, 690.4 88.7 Q 689.7 87.9, 689.7 86.4 M 692.4 88.8 Q 693.3 88.8, 693.8 88.2 Q 694.3 87.6, 694.3 86.4 Q 694.3 85.2, 693.8 84.6 Q 693.3 84.0, 692.4 84.0 Q 691.5 84.0, 691.0 84.6 Q 690.5 85.2, 690.5 86.4 Q 690.5 87.6, 691.0 88.2 Q 691.5 88.8, 692.4 88.8 " fill="#FF0000"/>
<path class="atom-11" d="M 762.8 18.1 Q 762.8 16.6, 763.5 15.8 Q 764.2 15.0, 765.5 15.0 Q 766.9 15.0, 767.6 15.8 Q 768.3 16.6, 768.3 18.1 Q 768.3 19.5, 767.6 20.4 Q 766.9 21.2, 765.5 21.2 Q 764.2 21.2, 763.5 20.4 Q 762.8 19.5, 762.8 18.1 M 765.5 20.5 Q 766.5 20.5, 766.9 19.9 Q 767.4 19.3, 767.4 18.1 Q 767.4 16.9, 766.9 16.3 Q 766.5 15.7, 765.5 15.7 Q 764.6 15.7, 764.1 16.3 Q 763.6 16.9, 763.6 18.1 Q 763.6 19.3, 764.1 19.9 Q 764.6 20.5, 765.5 20.5 " fill="#FF0000"/>
<path class="atom-12" d="M 798.0 29.2 L 800.0 32.3 Q 800.1 32.6, 800.5 33.2 Q 800.8 33.8, 800.8 33.8 L 800.8 29.2 L 801.6 29.2 L 801.6 35.1 L 800.8 35.1 L 798.7 31.7 Q 798.4 31.3, 798.2 30.8 Q 797.9 30.3, 797.8 30.2 L 797.8 35.1 L 797.0 35.1 L 797.0 29.2 L 798.0 29.2 " fill="#0000FF"/>
<path class="atom-15" d="M 839.9 23.7 L 841.8 26.9 Q 842.0 27.2, 842.4 27.8 Q 842.7 28.3, 842.7 28.4 L 842.7 23.7 L 843.5 23.7 L 843.5 29.7 L 842.7 29.7 L 840.6 26.3 Q 840.3 25.8, 840.0 25.4 Q 839.8 24.9, 839.7 24.8 L 839.7 29.7 L 838.9 29.7 L 838.9 23.7 L 839.9 23.7 " fill="#0000FF"/>
<path class="atom-15" d="M 844.2 23.7 L 845.0 23.7 L 845.0 26.3 L 848.0 26.3 L 848.0 23.7 L 848.9 23.7 L 848.9 29.7 L 848.0 29.7 L 848.0 27.0 L 845.0 27.0 L 845.0 29.7 L 844.2 29.7 L 844.2 23.7 " fill="#0000FF"/>
<path class="atom-25" d="M 860.7 112.7 L 864.3 112.7 L 864.3 113.4 L 861.5 113.4 L 861.5 115.2 L 864.0 115.2 L 864.0 115.9 L 861.5 115.9 L 861.5 118.7 L 860.7 118.7 L 860.7 112.7 " fill="#33CCCC"/>
<path class="atom-28" d="M 766.2 85.4 L 768.1 88.6 Q 768.3 88.9, 768.6 89.5 Q 768.9 90.0, 769.0 90.1 L 769.0 85.4 L 769.7 85.4 L 769.7 91.4 L 768.9 91.4 L 766.8 87.9 Q 766.6 87.5, 766.3 87.1 Q 766.1 86.6, 766.0 86.5 L 766.0 91.4 L 765.2 91.4 L 765.2 85.4 L 766.2 85.4 " fill="#0000FF"/>
<path class="atom-0" d="M 636.5,69.3 L 636.5,69.3 L 636.5,69.4 L 636.5,69.4 L 636.4,69.4 L 636.4,69.5 L 636.4,69.5 L 636.4,69.5 L 636.4,69.6 L 636.4,69.6 L 636.3,69.6 L 636.3,69.6 L 636.3,69.7 L 636.2,69.7 L 636.2,69.7 L 636.2,69.7 L 636.1,69.7 L 636.1,69.7 L 636.1,69.7 L 636.0,69.7 L 636.0,69.7 L 636.0,69.7 L 635.9,69.7 L 635.9,69.7 L 635.8,69.7 L 635.8,69.7 L 635.8,69.6 L 635.8,69.6 L 635.7,69.6 L 635.7,69.6 L 635.7,69.5 L 635.7,69.5 L 635.7,69.5 L 635.6,69.4 L 635.6,69.4 L 635.6,69.4 L 635.6,69.3 L 635.6,69.3 L 635.6,69.3 L 635.6,69.2 L 635.6,69.2 L 635.7,69.1 L 635.7,69.1 L 635.7,69.1 L 635.7,69.1 L 635.7,69.0 L 635.8,69.0 L 635.8,69.0 L 635.8,69.0 L 635.8,68.9 L 635.9,68.9 L 635.9,68.9 L 636.0,68.9 L 636.0,68.9 L 636.0,68.9 L 636.1,68.9 L 636.1,68.9 L 636.1,68.9 L 636.2,68.9 L 636.2,68.9 L 636.2,68.9 L 636.3,68.9 L 636.3,69.0 L 636.3,69.0 L 636.4,69.0 L 636.4,69.0 L 636.4,69.1 L 636.4,69.1 L 636.4,69.1 L 636.4,69.2 L 636.5,69.2 L 636.5,69.2 L 636.5,69.3 L 636.5,69.3 L 636.1,69.3 Z" style="fill:#000000;fill-rule:evenodd;fill-opacity:1;stroke:#000000;stroke-width:0.0px;stroke-linecap:butt;stroke-linejoin:miter;stroke-opacity:1;"/>
<path class="atom-0" d="M 636.5,73.5 L 636.5,73.6 L 636.5,73.6 L 636.5,73.6 L 636.4,73.7 L 636.4,73.7 L 636.4,73.7 L 636.4,73.8 L 636.4,73.8 L 636.4,73.8 L 636.3,73.8 L 636.3,73.9 L 636.3,73.9 L 636.2,73.9 L 636.2,73.9 L 636.2,73.9 L 636.1,73.9 L 636.1,73.9 L 636.1,74.0 L 636.0,74.0 L 636.0,73.9 L 636.0,73.9 L 635.9,73.9 L 635.9,73.9 L 635.8,73.9 L 635.8,73.9 L 635.8,73.9 L 635.8,73.8 L 635.7,73.8 L 635.7,73.8 L 635.7,73.8 L 635.7,73.7 L 635.7,73.7 L 635.6,73.7 L 635.6,73.6 L 635.6,73.6 L 635.6,73.5 L 635.6,73.5 L 635.6,73.5 L 635.6,73.4 L 635.6,73.4 L 635.7,73.4 L 635.7,73.3 L 635.7,73.3 L 635.7,73.3 L 635.7,73.2 L 635.8,73.2 L 635.8,73.2 L 635.8,73.2 L 635.8,73.2 L 635.9,73.1 L 635.9,73.1 L 636.0,73.1 L 636.0,73.1 L 636.0,73.1 L 636.1,73.1 L 636.1,73.1 L 636.1,73.1 L 636.2,73.1 L 636.2,73.1 L 636.2,73.1 L 636.3,73.2 L 636.3,73.2 L 636.3,73.2 L 636.4,73.2 L 636.4,73.3 L 636.4,73.3 L 636.4,73.3 L 636.4,73.4 L 636.4,73.4 L 636.5,73.4 L 636.5,73.5 L 636.5,73.5 L 636.5,73.5 L 636.1,73.5 Z" style="fill:#000000;fill-rule:evenodd;fill-opacity:1;stroke:#000000;stroke-width:0.0px;stroke-linecap:butt;stroke-linejoin:miter;stroke-opacity:1;"/>
<path class="atom-0" d="M 636.5,71.4 L 636.5,71.5 L 636.5,71.5 L 636.5,71.5 L 636.4,71.6 L 636.4,71.6 L 636.4,71.6 L 636.4,71.7 L 636.4,71.7 L 636.4,71.7 L 636.3,71.7 L 636.3,71.8 L 636.3,71.8 L 636.2,71.8 L 636.2,71.8 L 636.2,71.8 L 636.1,71.8 L 636.1,71.8 L 636.1,71.8 L 636.0,71.8 L 636.0,71.8 L 636.0,71.8 L 635.9,71.8 L 635.9,71.8 L 635.8,71.8 L 635.8,71.8 L 635.8,71.7 L 635.8,71.7 L 635.7,71.7 L 635.7,71.7 L 635.7,71.6 L 635.7,71.6 L 635.7,71.6 L 635.6,71.5 L 635.6,71.5 L 635.6,71.5 L 635.6,71.4 L 635.6,71.4 L 635.6,71.4 L 635.6,71.3 L 635.6,71.3 L 635.7,71.3 L 635.7,71.2 L 635.7,71.2 L 635.7,71.2 L 635.7,71.1 L 635.8,71.1 L 635.8,71.1 L 635.8,71.1 L 635.8,71.0 L 635.9,71.0 L 635.9,71.0 L 636.0,71.0 L 636.0,71.0 L 636.0,71.0 L 636.1,71.0 L 636.1,71.0 L 636.1,71.0 L 636.2,71.0 L 636.2,71.0 L 636.2,71.0 L 636.3,71.1 L 636.3,71.1 L 636.3,71.1 L 636.4,71.1 L 636.4,71.1 L 636.4,71.2 L 636.4,71.2 L 636.4,71.2 L 636.4,71.3 L 636.5,71.3 L 636.5,71.3 L 636.5,71.4 L 636.5,71.4 L 636.1,71.4 Z" style="fill:#000000;fill-rule:evenodd;fill-opacity:1;stroke:#000000;stroke-width:0.0px;stroke-linecap:butt;stroke-linejoin:miter;stroke-opacity:1;"/>
<path class="atom-2" d="M 657.2,102.4 L 657.2,102.4 L 657.2,102.4 L 657.2,102.5 L 657.2,102.5 L 657.2,102.5 L 657.2,102.6 L 657.1,102.6 L 657.1,102.6 L 657.1,102.7 L 657.1,102.7 L 657.0,102.7 L 657.0,102.7 L 657.0,102.7 L 656.9,102.8 L 656.9,102.8 L 656.9,102.8 L 656.8,102.8 L 656.8,102.8 L 656.8,102.8 L 656.7,102.8 L 656.7,102.8 L 656.7,102.8 L 656.6,102.7 L 656.6,102.7 L 656.6,102.7 L 656.5,102.7 L 656.5,102.7 L 656.5,102.6 L 656.5,102.6 L 656.4,102.6 L 656.4,102.6 L 656.4,102.5 L 656.4,102.5 L 656.4,102.5 L 656.4,102.4 L 656.4,102.4 L 656.4,102.3 L 656.4,102.3 L 656.4,102.3 L 656.4,102.2 L 656.4,102.2 L 656.4,102.2 L 656.4,102.1 L 656.5,102.1 L 656.5,102.1 L 656.5,102.1 L 656.5,102.0 L 656.6,102.0 L 656.6,102.0 L 656.6,102.0 L 656.7,102.0 L 656.7,102.0 L 656.7,101.9 L 656.8,101.9 L 656.8,101.9 L 656.8,101.9 L 656.9,101.9 L 656.9,102.0 L 656.9,102.0 L 657.0,102.0 L 657.0,102.0 L 657.0,102.0 L 657.1,102.0 L 657.1,102.1 L 657.1,102.1 L 657.1,102.1 L 657.2,102.2 L 657.2,102.2 L 657.2,102.2 L 657.2,102.3 L 657.2,102.3 L 657.2,102.3 L 657.2,102.4 L 656.8,102.4 Z" style="fill:#000000;fill-rule:evenodd;fill-opacity:1;stroke:#000000;stroke-width:0.0px;stroke-linecap:butt;stroke-linejoin:miter;stroke-opacity:1;"/>
<path class="atom-2" d="M 657.2,106.6 L 657.2,106.6 L 657.2,106.7 L 657.2,106.7 L 657.2,106.7 L 657.2,106.8 L 657.2,106.8 L 657.1,106.8 L 657.1,106.9 L 657.1,106.9 L 657.1,106.9 L 657.0,106.9 L 657.0,106.9 L 657.0,107.0 L 656.9,107.0 L 656.9,107.0 L 656.9,107.0 L 656.8,107.0 L 656.8,107.0 L 656.8,107.0 L 656.7,107.0 L 656.7,107.0 L 656.7,107.0 L 656.6,107.0 L 656.6,107.0 L 656.6,106.9 L 656.5,106.9 L 656.5,106.9 L 656.5,106.9 L 656.5,106.8 L 656.4,106.8 L 656.4,106.8 L 656.4,106.7 L 656.4,106.7 L 656.4,106.7 L 656.4,106.6 L 656.4,106.6 L 656.4,106.6 L 656.4,106.5 L 656.4,106.5 L 656.4,106.5 L 656.4,106.4 L 656.4,106.4 L 656.4,106.4 L 656.5,106.3 L 656.5,106.3 L 656.5,106.3 L 656.5,106.3 L 656.6,106.2 L 656.6,106.2 L 656.6,106.2 L 656.7,106.2 L 656.7,106.2 L 656.7,106.2 L 656.8,106.2 L 656.8,106.2 L 656.8,106.2 L 656.9,106.2 L 656.9,106.2 L 656.9,106.2 L 657.0,106.2 L 657.0,106.2 L 657.0,106.2 L 657.1,106.3 L 657.1,106.3 L 657.1,106.3 L 657.1,106.3 L 657.2,106.4 L 657.2,106.4 L 657.2,106.4 L 657.2,106.5 L 657.2,106.5 L 657.2,106.6 L 657.2,106.6 L 656.8,106.6 Z" style="fill:#000000;fill-rule:evenodd;fill-opacity:1;stroke:#000000;stroke-width:0.0px;stroke-linecap:butt;stroke-linejoin:miter;stroke-opacity:1;"/>
<path class="atom-2" d="M 657.2,104.5 L 657.2,104.5 L 657.2,104.5 L 657.2,104.6 L 657.2,104.6 L 657.2,104.7 L 657.2,104.7 L 657.1,104.7 L 657.1,104.7 L 657.1,104.8 L 657.1,104.8 L 657.0,104.8 L 657.0,104.8 L 657.0,104.9 L 656.9,104.9 L 656.9,104.9 L 656.9,104.9 L 656.8,104.9 L 656.8,104.9 L 656.8,104.9 L 656.7,104.9 L 656.7,104.9 L 656.7,104.9 L 656.6,104.9 L 656.6,104.8 L 656.6,104.8 L 656.5,104.8 L 656.5,104.8 L 656.5,104.8 L 656.5,104.7 L 656.4,104.7 L 656.4,104.7 L 656.4,104.6 L 656.4,104.6 L 656.4,104.6 L 656.4,104.5 L 656.4,104.5 L 656.4,104.5 L 656.4,104.4 L 656.4,104.4 L 656.4,104.3 L 656.4,104.3 L 656.4,104.3 L 656.4,104.3 L 656.5,104.2 L 656.5,104.2 L 656.5,104.2 L 656.5,104.1 L 656.6,104.1 L 656.6,104.1 L 656.6,104.1 L 656.7,104.1 L 656.7,104.1 L 656.7,104.1 L 656.8,104.1 L 656.8,104.1 L 656.8,104.1 L 656.9,104.1 L 656.9,104.1 L 656.9,104.1 L 657.0,104.1 L 657.0,104.1 L 657.0,104.1 L 657.1,104.2 L 657.1,104.2 L 657.1,104.2 L 657.1,104.2 L 657.2,104.3 L 657.2,104.3 L 657.2,104.3 L 657.2,104.4 L 657.2,104.4 L 657.2,104.4 L 657.2,104.5 L 656.8,104.5 Z" style="fill:#000000;fill-rule:evenodd;fill-opacity:1;stroke:#000000;stroke-width:0.0px;stroke-linecap:butt;stroke-linejoin:miter;stroke-opacity:1;"/>
<path class="atom-3" d="M 675.5,72.5 L 675.5,72.5 L 675.5,72.5 L 675.5,72.6 L 675.4,72.6 L 675.4,72.6 L 675.4,72.7 L 675.4,72.7 L 675.4,72.7 L 675.4,72.8 L 675.3,72.8 L 675.3,72.8 L 675.3,72.8 L 675.2,72.9 L 675.2,72.9 L 675.2,72.9 L 675.1,72.9 L 675.1,72.9 L 675.1,72.9 L 675.0,72.9 L 675.0,72.9 L 675.0,72.9 L 674.9,72.9 L 674.9,72.9 L 674.8,72.8 L 674.8,72.8 L 674.8,72.8 L 674.8,72.8 L 674.7,72.8 L 674.7,72.7 L 674.7,72.7 L 674.7,72.7 L 674.7,72.6 L 674.6,72.6 L 674.6,72.6 L 674.6,72.5 L 674.6,72.5 L 674.6,72.5 L 674.6,72.4 L 674.6,72.4 L 674.6,72.3 L 674.7,72.3 L 674.7,72.3 L 674.7,72.2 L 674.7,72.2 L 674.7,72.2 L 674.8,72.2 L 674.8,72.1 L 674.8,72.1 L 674.8,72.1 L 674.9,72.1 L 674.9,72.1 L 675.0,72.1 L 675.0,72.1 L 675.0,72.0 L 675.1,72.0 L 675.1,72.1 L 675.1,72.1 L 675.2,72.1 L 675.2,72.1 L 675.2,72.1 L 675.3,72.1 L 675.3,72.1 L 675.3,72.2 L 675.4,72.2 L 675.4,72.2 L 675.4,72.2 L 675.4,72.3 L 675.4,72.3 L 675.4,72.3 L 675.5,72.4 L 675.5,72.4 L 675.5,72.4 L 675.5,72.5 L 675.0,72.5 Z" style="fill:#000000;fill-rule:evenodd;fill-opacity:1;stroke:#000000;stroke-width:0.0px;stroke-linecap:butt;stroke-linejoin:miter;stroke-opacity:1;"/>
</svg>