<svg xmlns="http://www.w3.org/2000/svg" xmlns:rdkit="http://www.rdkit.org/xml" xmlns:xlink="http://www.w3.org/1999/xlink" version="1.1" baseProfile="full" xml:space="preserve" width="1500px" height="160px" viewBox="0 0 1500 160">
<!-- END OF HEADER -->
<rect style="opacity:1.0;fill:#FFFFFF;stroke:none" width="1500.0" height="160.0" x="0.0" y="0.0"> </rect>
<path class="bond-0 atom-0 atom-1" d="M 89.9,94.4 L 94.7,74.8" style="fill:none;fill-rule:evenodd;stroke:#000000;stroke-width:2.0px;stroke-linecap:butt;stroke-linejoin:miter;stroke-opacity:1"/>
<path class="bond-1 atom-1 atom-2" d="M 94.7,74.8 L 80.2,60.9" style="fill:none;fill-rule:evenodd;stroke:#000000;stroke-width:2.0px;stroke-linecap:butt;stroke-linejoin:miter;stroke-opacity:1"/>
<path class="bond-1 atom-1 atom-2" d="M 95.3,69.9 L 85.2,60.1" style="fill:none;fill-rule:evenodd;stroke:#000000;stroke-width:2.0px;stroke-linecap:butt;stroke-linejoin:miter;stroke-opacity:1"/>
<path class="bond-2 atom-2 atom-3" d="M 80.2,60.9 L 71.7,63.4" style="fill:none;fill-rule:evenodd;stroke:#000000;stroke-width:2.0px;stroke-linecap:butt;stroke-linejoin:miter;stroke-opacity:1"/>
<path class="bond-2 atom-2 atom-3" d="M 71.7,63.4 L 63.3,65.9" style="fill:none;fill-rule:evenodd;stroke:#33CCCC;stroke-width:2.0px;stroke-linecap:butt;stroke-linejoin:miter;stroke-opacity:1"/>
<path class="bond-3 atom-2 atom-4" d="M 80.2,60.9 L 85.0,41.4" style="fill:none;fill-rule:evenodd;stroke:#000000;stroke-width:2.0px;stroke-linecap:butt;stroke-linejoin:miter;stroke-opacity:1"/>
<path class="bond-4 atom-4 atom-5" d="M 85.0,41.4 L 104.3,35.8" style="fill:none;fill-rule:evenodd;stroke:#000000;stroke-width:2.0px;stroke-linecap:butt;stroke-linejoin:miter;stroke-opacity:1"/>
<path class="bond-4 atom-4 atom-5" d="M 89.0,44.4 L 102.5,40.5" style="fill:none;fill-rule:evenodd;stroke:#000000;stroke-width:2.0px;stroke-linecap:butt;stroke-linejoin:miter;stroke-opacity:1"/>
<path class="bond-5 atom-5 atom-6" d="M 104.3,35.8 L 118.8,49.7" style="fill:none;fill-rule:evenodd;stroke:#000000;stroke-width:2.0px;stroke-linecap:butt;stroke-linejoin:miter;stroke-opacity:1"/>
<path class="bond-6 atom-6 atom-7" d="M 118.8,49.7 L 114.0,69.2" style="fill:none;fill-rule:evenodd;stroke:#000000;stroke-width:2.0px;stroke-linecap:butt;stroke-linejoin:miter;stroke-opacity:1"/>
<path class="bond-6 atom-6 atom-7" d="M 114.2,51.7 L 110.8,65.3" style="fill:none;fill-rule:evenodd;stroke:#000000;stroke-width:2.0px;stroke-linecap:butt;stroke-linejoin:miter;stroke-opacity:1"/>
<path class="bond-7 atom-7 atom-8" d="M 114.0,69.2 L 128.5,83.1" style="fill:none;fill-rule:evenodd;stroke:#000000;stroke-width:2.0px;stroke-linecap:butt;stroke-linejoin:miter;stroke-opacity:1"/>
<path class="bond-8 atom-8 atom-9" d="M 128.5,83.1 L 147.8,77.5" style="fill:none;fill-rule:evenodd;stroke:#000000;stroke-width:2.0px;stroke-linecap:butt;stroke-linejoin:miter;stroke-opacity:1"/>
<path class="bond-9 atom-9 atom-10" d="M 147.8,77.5 L 163.7,89.8" style="fill:none;fill-rule:evenodd;stroke:#000000;stroke-width:2.0px;stroke-linecap:butt;stroke-linejoin:miter;stroke-opacity:1"/>
<path class="bond-9 atom-9 atom-10" d="M 152.7,76.2 L 163.8,84.8" style="fill:none;fill-rule:evenodd;stroke:#000000;stroke-width:2.0px;stroke-linecap:butt;stroke-linejoin:miter;stroke-opacity:1"/>
<path class="bond-10 atom-10 atom-11" d="M 163.7,89.8 L 163.1,109.9" style="fill:none;fill-rule:evenodd;stroke:#000000;stroke-width:2.0px;stroke-linecap:butt;stroke-linejoin:miter;stroke-opacity:1"/>
<path class="bond-11 atom-11 atom-12" d="M 164.2,108.2 L 171.1,112.5" style="fill:none;fill-rule:evenodd;stroke:#000000;stroke-width:2.0px;stroke-linecap:butt;stroke-linejoin:miter;stroke-opacity:1"/>
<path class="bond-11 atom-11 atom-12" d="M 171.1,112.5 L 178.0,116.8" style="fill:none;fill-rule:evenodd;stroke:#FF0000;stroke-width:2.0px;stroke-linecap:butt;stroke-linejoin:miter;stroke-opacity:1"/>
<path class="bond-11 atom-11 atom-12" d="M 162.0,111.6 L 168.9,115.9" style="fill:none;fill-rule:evenodd;stroke:#000000;stroke-width:2.0px;stroke-linecap:butt;stroke-linejoin:miter;stroke-opacity:1"/>
<path class="bond-11 atom-11 atom-12" d="M 168.9,115.9 L 175.8,120.2" style="fill:none;fill-rule:evenodd;stroke:#FF0000;stroke-width:2.0px;stroke-linecap:butt;stroke-linejoin:miter;stroke-opacity:1"/>
<path class="bond-12 atom-11 atom-13" d="M 163.1,109.9 L 155.7,113.9" style="fill:none;fill-rule:evenodd;stroke:#000000;stroke-width:2.0px;stroke-linecap:butt;stroke-linejoin:miter;stroke-opacity:1"/>
<path class="bond-12 atom-11 atom-13" d="M 155.7,113.9 L 148.2,117.9" style="fill:none;fill-rule:evenodd;stroke:#0000FF;stroke-width:2.0px;stroke-linecap:butt;stroke-linejoin:miter;stroke-opacity:1"/>
<path class="bond-13 atom-13 atom-14" d="M 145.5,123.0 L 145.9,131.2" style="fill:none;fill-rule:evenodd;stroke:#0000FF;stroke-width:2.0px;stroke-linecap:butt;stroke-linejoin:miter;stroke-opacity:1"/>
<path class="bond-13 atom-13 atom-14" d="M 145.9,131.2 L 146.3,139.5" style="fill:none;fill-rule:evenodd;stroke:#000000;stroke-width:2.0px;stroke-linecap:butt;stroke-linejoin:miter;stroke-opacity:1"/>
<path class="bond-14 atom-14 atom-15" d="M 146.3,139.5 L 131.1,152.7" style="fill:none;fill-rule:evenodd;stroke:#000000;stroke-width:2.0px;stroke-linecap:butt;stroke-linejoin:miter;stroke-opacity:1"/>
<path class="bond-15 atom-15 atom-16" d="M 131.1,152.7 L 111.3,149.1" style="fill:none;fill-rule:evenodd;stroke:#000000;stroke-width:2.0px;stroke-linecap:butt;stroke-linejoin:miter;stroke-opacity:1"/>
<path class="bond-16 atom-16 atom-17" d="M 111.3,149.1 L 107.5,142.0" style="fill:none;fill-rule:evenodd;stroke:#000000;stroke-width:2.0px;stroke-linecap:butt;stroke-linejoin:miter;stroke-opacity:1"/>
<path class="bond-16 atom-16 atom-17" d="M 107.5,142.0 L 103.7,134.9" style="fill:none;fill-rule:evenodd;stroke:#0000FF;stroke-width:2.0px;stroke-linecap:butt;stroke-linejoin:miter;stroke-opacity:1"/>
<path class="bond-17 atom-17 atom-18" d="M 103.3,127.9 L 106.5,120.4" style="fill:none;fill-rule:evenodd;stroke:#0000FF;stroke-width:2.0px;stroke-linecap:butt;stroke-linejoin:miter;stroke-opacity:1"/>
<path class="bond-17 atom-17 atom-18" d="M 106.5,120.4 L 109.8,112.9" style="fill:none;fill-rule:evenodd;stroke:#000000;stroke-width:2.0px;stroke-linecap:butt;stroke-linejoin:miter;stroke-opacity:1"/>
<path class="bond-18 atom-18 atom-19" d="M 109.8,112.9 L 129.1,107.6" style="fill:none;fill-rule:evenodd;stroke:#000000;stroke-width:2.0px;stroke-linecap:butt;stroke-linejoin:miter;stroke-opacity:1"/>
<path class="bond-19 atom-10 atom-20" d="M 163.7,89.8 L 180.4,78.5" style="fill:none;fill-rule:evenodd;stroke:#000000;stroke-width:2.0px;stroke-linecap:butt;stroke-linejoin:miter;stroke-opacity:1"/>
<path class="bond-20 atom-20 atom-21" d="M 180.4,78.5 L 199.9,83.3" style="fill:none;fill-rule:evenodd;stroke:#000000;stroke-width:2.0px;stroke-linecap:butt;stroke-linejoin:miter;stroke-opacity:1"/>
<path class="bond-20 atom-20 atom-21" d="M 184.2,75.4 L 197.9,78.7" style="fill:none;fill-rule:evenodd;stroke:#000000;stroke-width:2.0px;stroke-linecap:butt;stroke-linejoin:miter;stroke-opacity:1"/>
<path class="bond-21 atom-21 atom-22" d="M 199.9,83.3 L 213.8,68.8" style="fill:none;fill-rule:evenodd;stroke:#000000;stroke-width:2.0px;stroke-linecap:butt;stroke-linejoin:miter;stroke-opacity:1"/>
<path class="bond-22 atom-22 atom-23" d="M 213.8,68.8 L 221.9,70.8" style="fill:none;fill-rule:evenodd;stroke:#000000;stroke-width:2.0px;stroke-linecap:butt;stroke-linejoin:miter;stroke-opacity:1"/>
<path class="bond-22 atom-22 atom-23" d="M 221.9,70.8 L 230.0,72.8" style="fill:none;fill-rule:evenodd;stroke:#FF0000;stroke-width:2.0px;stroke-linecap:butt;stroke-linejoin:miter;stroke-opacity:1"/>
<path class="bond-23 atom-22 atom-24" d="M 213.8,68.8 L 208.2,49.5" style="fill:none;fill-rule:evenodd;stroke:#000000;stroke-width:2.0px;stroke-linecap:butt;stroke-linejoin:miter;stroke-opacity:1"/>
<path class="bond-23 atom-22 atom-24" d="M 209.1,67.1 L 205.2,53.5" style="fill:none;fill-rule:evenodd;stroke:#000000;stroke-width:2.0px;stroke-linecap:butt;stroke-linejoin:miter;stroke-opacity:1"/>
<path class="bond-24 atom-24 atom-25" d="M 208.2,49.5 L 199.8,47.5" style="fill:none;fill-rule:evenodd;stroke:#000000;stroke-width:2.0px;stroke-linecap:butt;stroke-linejoin:miter;stroke-opacity:1"/>
<path class="bond-24 atom-24 atom-25" d="M 199.8,47.5 L 191.5,45.4" style="fill:none;fill-rule:evenodd;stroke:#0000FF;stroke-width:2.0px;stroke-linecap:butt;stroke-linejoin:miter;stroke-opacity:1"/>
<path class="bond-25 atom-25 atom-26" d="M 185.8,47.7 L 180.3,53.5" style="fill:none;fill-rule:evenodd;stroke:#0000FF;stroke-width:2.0px;stroke-linecap:butt;stroke-linejoin:miter;stroke-opacity:1"/>
<path class="bond-25 atom-25 atom-26" d="M 180.3,53.5 L 174.7,59.2" style="fill:none;fill-rule:evenodd;stroke:#000000;stroke-width:2.0px;stroke-linecap:butt;stroke-linejoin:miter;stroke-opacity:1"/>
<path class="bond-25 atom-25 atom-26" d="M 187.1,52.2 L 183.2,56.2" style="fill:none;fill-rule:evenodd;stroke:#0000FF;stroke-width:2.0px;stroke-linecap:butt;stroke-linejoin:miter;stroke-opacity:1"/>
<path class="bond-25 atom-25 atom-26" d="M 183.2,56.2 L 179.3,60.3" style="fill:none;fill-rule:evenodd;stroke:#000000;stroke-width:2.0px;stroke-linecap:butt;stroke-linejoin:miter;stroke-opacity:1"/>
<path class="bond-26 atom-26 atom-27" d="M 174.7,59.2 L 166.1,59.0" style="fill:none;fill-rule:evenodd;stroke:#000000;stroke-width:2.0px;stroke-linecap:butt;stroke-linejoin:miter;stroke-opacity:1"/>
<path class="bond-26 atom-26 atom-27" d="M 166.1,59.0 L 157.5,58.7" style="fill:none;fill-rule:evenodd;stroke:#0000FF;stroke-width:2.0px;stroke-linecap:butt;stroke-linejoin:miter;stroke-opacity:1"/>
<path class="bond-27 atom-27 atom-28" d="M 152.3,55.1 L 147.8,48.6" style="fill:none;fill-rule:evenodd;stroke:#0000FF;stroke-width:2.0px;stroke-linecap:butt;stroke-linejoin:miter;stroke-opacity:1"/>
<path class="bond-27 atom-27 atom-28" d="M 147.8,48.6 L 143.4,42.0" style="fill:none;fill-rule:evenodd;stroke:#000000;stroke-width:2.0px;stroke-linecap:butt;stroke-linejoin:miter;stroke-opacity:1"/>
<path class="bond-28 atom-28 atom-29" d="M 143.4,42.0 L 152.1,23.9" style="fill:none;fill-rule:evenodd;stroke:#000000;stroke-width:2.0px;stroke-linecap:butt;stroke-linejoin:miter;stroke-opacity:1"/>
<path class="bond-28 atom-28 atom-29" d="M 141.0,37.5 L 147.2,24.9" style="fill:none;fill-rule:evenodd;stroke:#000000;stroke-width:2.0px;stroke-linecap:butt;stroke-linejoin:miter;stroke-opacity:1"/>
<path class="bond-29 atom-29 atom-30" d="M 152.1,23.9 L 140.8,7.3" style="fill:none;fill-rule:evenodd;stroke:#000000;stroke-width:2.0px;stroke-linecap:butt;stroke-linejoin:miter;stroke-opacity:1"/>
<path class="bond-30 atom-30 atom-31" d="M 140.8,7.3 L 120.7,8.7" style="fill:none;fill-rule:evenodd;stroke:#000000;stroke-width:2.0px;stroke-linecap:butt;stroke-linejoin:miter;stroke-opacity:1"/>
<path class="bond-30 atom-30 atom-31" d="M 138.1,11.5 L 124.1,12.5" style="fill:none;fill-rule:evenodd;stroke:#000000;stroke-width:2.0px;stroke-linecap:butt;stroke-linejoin:miter;stroke-opacity:1"/>
<path class="bond-31 atom-31 atom-32" d="M 120.7,8.7 L 112.0,26.8" style="fill:none;fill-rule:evenodd;stroke:#000000;stroke-width:2.0px;stroke-linecap:butt;stroke-linejoin:miter;stroke-opacity:1"/>
<path class="bond-32 atom-32 atom-33" d="M 112.0,26.8 L 123.3,43.5" style="fill:none;fill-rule:evenodd;stroke:#000000;stroke-width:2.0px;stroke-linecap:butt;stroke-linejoin:miter;stroke-opacity:1"/>
<path class="bond-32 atom-32 atom-33" d="M 117.0,27.1 L 124.9,38.7" style="fill:none;fill-rule:evenodd;stroke:#000000;stroke-width:2.0px;stroke-linecap:butt;stroke-linejoin:miter;stroke-opacity:1"/>
<path class="bond-33 atom-7 atom-1" d="M 114.0,69.2 L 94.7,74.8" style="fill:none;fill-rule:evenodd;stroke:#000000;stroke-width:2.0px;stroke-linecap:butt;stroke-linejoin:miter;stroke-opacity:1"/>
<path class="bond-34 atom-27 atom-9" d="M 153.4,62.1 L 150.6,69.8" style="fill:none;fill-rule:evenodd;stroke:#0000FF;stroke-width:2.0px;stroke-linecap:butt;stroke-linejoin:miter;stroke-opacity:1"/>
<path class="bond-34 atom-27 atom-9" d="M 150.6,69.8 L 147.8,77.5" style="fill:none;fill-rule:evenodd;stroke:#000000;stroke-width:2.0px;stroke-linecap:butt;stroke-linejoin:miter;stroke-opacity:1"/>
<path class="bond-35 atom-33 atom-28" d="M 123.3,43.5 L 143.4,42.0" style="fill:none;fill-rule:evenodd;stroke:#000000;stroke-width:2.0px;stroke-linecap:butt;stroke-linejoin:miter;stroke-opacity:1"/>
<path class="bond-36 atom-19 atom-13" d="M 129.1,107.6 L 135.9,112.5" style="fill:none;fill-rule:evenodd;stroke:#000000;stroke-width:2.0px;stroke-linecap:butt;stroke-linejoin:miter;stroke-opacity:1"/>
<path class="bond-36 atom-19 atom-13" d="M 135.9,112.5 L 142.6,117.4" style="fill:none;fill-rule:evenodd;stroke:#0000FF;stroke-width:2.0px;stroke-linecap:butt;stroke-linejoin:miter;stroke-opacity:1"/>
<path class="bond-37 atom-26 atom-20" d="M 174.7,59.2 L 180.4,78.5" style="fill:none;fill-rule:evenodd;stroke:#000000;stroke-width:2.0px;stroke-linecap:butt;stroke-linejoin:miter;stroke-opacity:1"/>
<path class="atom-3" d="M 59.2 63.7 L 62.6 63.7 L 62.6 64.3 L 60.0 64.3 L 60.0 66.1 L 62.3 66.1 L 62.3 66.7 L 60.0 66.7 L 60.0 69.4 L 59.2 69.4 L 59.2 63.7 " fill="#33CCCC"/>
<path class="atom-12" d="M 177.6 120.5 Q 177.6 119.2, 178.2 118.4 Q 178.9 117.7, 180.2 117.7 Q 181.4 117.7, 182.1 118.4 Q 182.8 119.2, 182.8 120.5 Q 182.8 121.9, 182.1 122.7 Q 181.4 123.5, 180.2 123.5 Q 178.9 123.5, 178.2 122.7 Q 177.6 121.9, 177.6 120.5 M 180.2 122.9 Q 181.1 122.9, 181.5 122.3 Q 182.0 121.7, 182.0 120.5 Q 182.0 119.4, 181.5 118.9 Q 181.1 118.3, 180.2 118.3 Q 179.3 118.3, 178.8 118.9 Q 178.4 119.4, 178.4 120.5 Q 178.4 121.7, 178.8 122.3 Q 179.3 122.9, 180.2 122.9 " fill="#FF0000"/>
<path class="atom-13" d="M 144.1 116.6 L 146.0 119.6 Q 146.2 119.9, 146.5 120.4 Q 146.8 121.0, 146.8 121.0 L 146.8 116.6 L 147.5 116.6 L 147.5 122.3 L 146.8 122.3 L 144.8 119.0 Q 144.5 118.6, 144.3 118.2 Q 144.0 117.7, 144.0 117.6 L 144.0 122.3 L 143.2 122.3 L 143.2 116.6 L 144.1 116.6 " fill="#0000FF"/>
<path class="atom-17" d="M 94.5 128.6 L 95.3 128.6 L 95.3 131.0 L 98.2 131.0 L 98.2 128.6 L 99.0 128.6 L 99.0 134.2 L 98.2 134.2 L 98.2 131.6 L 95.3 131.6 L 95.3 134.2 L 94.5 134.2 L 94.5 128.6 " fill="#0000FF"/>
<path class="atom-17" d="M 100.6 128.6 L 102.4 131.6 Q 102.6 131.9, 102.9 132.4 Q 103.2 132.9, 103.2 133.0 L 103.2 128.6 L 104.0 128.6 L 104.0 134.2 L 103.2 134.2 L 101.2 130.9 Q 101.0 130.6, 100.7 130.1 Q 100.5 129.7, 100.4 129.5 L 100.4 134.2 L 99.7 134.2 L 99.7 128.6 L 100.6 128.6 " fill="#0000FF"/>
<path class="atom-23" d="M 230.7 73.6 Q 230.7 72.3, 231.4 71.5 Q 232.0 70.7, 233.3 70.7 Q 234.6 70.7, 235.2 71.5 Q 235.9 72.3, 235.9 73.6 Q 235.9 75.0, 235.2 75.8 Q 234.6 76.6, 233.3 76.6 Q 232.1 76.6, 231.4 75.8 Q 230.7 75.0, 230.7 73.6 M 233.3 75.9 Q 234.2 75.9, 234.6 75.4 Q 235.1 74.8, 235.1 73.6 Q 235.1 72.5, 234.6 72.0 Q 234.2 71.4, 233.3 71.4 Q 232.4 71.4, 232.0 72.0 Q 231.5 72.5, 231.5 73.6 Q 231.5 74.8, 232.0 75.4 Q 232.4 75.9, 233.3 75.9 " fill="#FF0000"/>
<path class="atom-23" d="M 236.3 70.8 L 237.1 70.8 L 237.1 73.2 L 240.0 73.2 L 240.0 70.8 L 240.8 70.8 L 240.8 76.5 L 240.0 76.5 L 240.0 73.9 L 237.1 73.9 L 237.1 76.5 L 236.3 76.5 L 236.3 70.8 " fill="#FF0000"/>
<path class="atom-25" d="M 187.4 41.9 L 189.3 44.9 Q 189.4 45.2, 189.7 45.7 Q 190.0 46.3, 190.1 46.3 L 190.1 41.9 L 190.8 41.9 L 190.8 47.6 L 190.0 47.6 L 188.0 44.3 Q 187.8 43.9, 187.5 43.5 Q 187.3 43.0, 187.2 42.9 L 187.2 47.6 L 186.5 47.6 L 186.5 41.9 L 187.4 41.9 " fill="#0000FF"/>
<path class="atom-27" d="M 153.4 55.8 L 155.3 58.8 Q 155.4 59.1, 155.7 59.6 Q 156.0 60.2, 156.1 60.2 L 156.1 55.8 L 156.8 55.8 L 156.8 61.5 L 156.0 61.5 L 154.0 58.2 Q 153.8 57.8, 153.5 57.3 Q 153.3 56.9, 153.2 56.8 L 153.2 61.5 L 152.5 61.5 L 152.5 55.8 L 153.4 55.8 " fill="#0000FF"/>
<path class="bond-0 atom-0 atom-1" d="M 443.2,17.5 L 461.0,26.9" style="fill:none;fill-rule:evenodd;stroke:#000000;stroke-width:2.0px;stroke-linecap:butt;stroke-linejoin:miter;stroke-opacity:1"/>
<path class="bond-1 atom-1 atom-2" d="M 461.0,26.9 L 478.0,16.2" style="fill:none;fill-rule:evenodd;stroke:#000000;stroke-width:2.0px;stroke-linecap:butt;stroke-linejoin:miter;stroke-opacity:1"/>
<path class="bond-1 atom-1 atom-2" d="M 465.7,28.7 L 477.6,21.2" style="fill:none;fill-rule:evenodd;stroke:#000000;stroke-width:2.0px;stroke-linecap:butt;stroke-linejoin:miter;stroke-opacity:1"/>
<path class="bond-2 atom-2 atom-3" d="M 478.0,16.2 L 495.8,25.6" style="fill:none;fill-rule:evenodd;stroke:#000000;stroke-width:2.0px;stroke-linecap:butt;stroke-linejoin:miter;stroke-opacity:1"/>
<path class="bond-3 atom-3 atom-4" d="M 495.8,25.6 L 496.6,45.7" style="fill:none;fill-rule:evenodd;stroke:#000000;stroke-width:2.0px;stroke-linecap:butt;stroke-linejoin:miter;stroke-opacity:1"/>
<path class="bond-3 atom-3 atom-4" d="M 491.9,28.7 L 492.4,42.8" style="fill:none;fill-rule:evenodd;stroke:#000000;stroke-width:2.0px;stroke-linecap:butt;stroke-linejoin:miter;stroke-opacity:1"/>
<path class="bond-4 atom-4 atom-5" d="M 496.6,45.7 L 479.5,56.4" style="fill:none;fill-rule:evenodd;stroke:#000000;stroke-width:2.0px;stroke-linecap:butt;stroke-linejoin:miter;stroke-opacity:1"/>
<path class="bond-5 atom-5 atom-6" d="M 479.5,56.4 L 481.1,61.6" style="fill:none;fill-rule:evenodd;stroke:#000000;stroke-width:2.0px;stroke-linecap:butt;stroke-linejoin:miter;stroke-opacity:1"/>
<path class="bond-5 atom-5 atom-6" d="M 481.1,61.6 L 482.6,66.9" style="fill:none;fill-rule:evenodd;stroke:#33CCCC;stroke-width:2.0px;stroke-linecap:butt;stroke-linejoin:miter;stroke-opacity:1"/>
<path class="bond-6 atom-5 atom-7" d="M 479.5,56.4 L 461.8,47.0" style="fill:none;fill-rule:evenodd;stroke:#000000;stroke-width:2.0px;stroke-linecap:butt;stroke-linejoin:miter;stroke-opacity:1"/>
<path class="bond-6 atom-5 atom-7" d="M 478.8,51.4 L 466.3,44.8" style="fill:none;fill-rule:evenodd;stroke:#000000;stroke-width:2.0px;stroke-linecap:butt;stroke-linejoin:miter;stroke-opacity:1"/>
<path class="bond-7 atom-7 atom-8" d="M 461.8,47.0 L 454.9,51.3" style="fill:none;fill-rule:evenodd;stroke:#000000;stroke-width:2.0px;stroke-linecap:butt;stroke-linejoin:miter;stroke-opacity:1"/>
<path class="bond-7 atom-7 atom-8" d="M 454.9,51.3 L 448.0,55.6" style="fill:none;fill-rule:evenodd;stroke:#FF0000;stroke-width:2.0px;stroke-linecap:butt;stroke-linejoin:miter;stroke-opacity:1"/>
<path class="bond-8 atom-8 atom-9" d="M 444.9,61.3 L 445.2,69.5" style="fill:none;fill-rule:evenodd;stroke:#FF0000;stroke-width:2.0px;stroke-linecap:butt;stroke-linejoin:miter;stroke-opacity:1"/>
<path class="bond-8 atom-8 atom-9" d="M 445.2,69.5 L 445.5,77.7" style="fill:none;fill-rule:evenodd;stroke:#000000;stroke-width:2.0px;stroke-linecap:butt;stroke-linejoin:miter;stroke-opacity:1"/>
<path class="bond-9 atom-9 atom-10" d="M 445.5,77.7 L 429.7,90.2" style="fill:none;fill-rule:evenodd;stroke:#000000;stroke-width:2.0px;stroke-linecap:butt;stroke-linejoin:miter;stroke-opacity:1"/>
<path class="bond-9 atom-9 atom-10" d="M 445.6,82.8 L 434.5,91.5" style="fill:none;fill-rule:evenodd;stroke:#000000;stroke-width:2.0px;stroke-linecap:butt;stroke-linejoin:miter;stroke-opacity:1"/>
<path class="bond-10 atom-10 atom-11" d="M 429.7,90.2 L 410.3,84.7" style="fill:none;fill-rule:evenodd;stroke:#000000;stroke-width:2.0px;stroke-linecap:butt;stroke-linejoin:miter;stroke-opacity:1"/>
<path class="bond-11 atom-11 atom-12" d="M 411.7,86.1 L 406.2,91.5" style="fill:none;fill-rule:evenodd;stroke:#000000;stroke-width:2.0px;stroke-linecap:butt;stroke-linejoin:miter;stroke-opacity:1"/>
<path class="bond-11 atom-11 atom-12" d="M 406.2,91.5 L 400.6,96.9" style="fill:none;fill-rule:evenodd;stroke:#FF0000;stroke-width:2.0px;stroke-linecap:butt;stroke-linejoin:miter;stroke-opacity:1"/>
<path class="bond-11 atom-11 atom-12" d="M 408.9,83.2 L 403.4,88.6" style="fill:none;fill-rule:evenodd;stroke:#000000;stroke-width:2.0px;stroke-linecap:butt;stroke-linejoin:miter;stroke-opacity:1"/>
<path class="bond-11 atom-11 atom-12" d="M 403.4,88.6 L 397.8,94.0" style="fill:none;fill-rule:evenodd;stroke:#FF0000;stroke-width:2.0px;stroke-linecap:butt;stroke-linejoin:miter;stroke-opacity:1"/>
<path class="bond-12 atom-11 atom-13" d="M 410.3,84.7 L 408.3,76.7" style="fill:none;fill-rule:evenodd;stroke:#000000;stroke-width:2.0px;stroke-linecap:butt;stroke-linejoin:miter;stroke-opacity:1"/>
<path class="bond-12 atom-11 atom-13" d="M 408.3,76.7 L 406.3,68.7" style="fill:none;fill-rule:evenodd;stroke:#0000FF;stroke-width:2.0px;stroke-linecap:butt;stroke-linejoin:miter;stroke-opacity:1"/>
<path class="bond-13 atom-13 atom-14" d="M 408.3,62.4 L 414.1,56.8" style="fill:none;fill-rule:evenodd;stroke:#0000FF;stroke-width:2.0px;stroke-linecap:butt;stroke-linejoin:miter;stroke-opacity:1"/>
<path class="bond-13 atom-13 atom-14" d="M 414.1,56.8 L 419.9,51.2" style="fill:none;fill-rule:evenodd;stroke:#000000;stroke-width:2.0px;stroke-linecap:butt;stroke-linejoin:miter;stroke-opacity:1"/>
<path class="bond-14 atom-14 atom-15" d="M 419.9,51.2 L 415.0,31.7" style="fill:none;fill-rule:evenodd;stroke:#000000;stroke-width:2.0px;stroke-linecap:butt;stroke-linejoin:miter;stroke-opacity:1"/>
<path class="bond-15 atom-15 atom-16" d="M 415.0,31.7 L 406.7,29.3" style="fill:none;fill-rule:evenodd;stroke:#000000;stroke-width:2.0px;stroke-linecap:butt;stroke-linejoin:miter;stroke-opacity:1"/>
<path class="bond-15 atom-15 atom-16" d="M 406.7,29.3 L 398.4,27.0" style="fill:none;fill-rule:evenodd;stroke:#0000FF;stroke-width:2.0px;stroke-linecap:butt;stroke-linejoin:miter;stroke-opacity:1"/>
<path class="bond-16 atom-16 atom-17" d="M 392.8,28.9 L 387.0,34.5" style="fill:none;fill-rule:evenodd;stroke:#0000FF;stroke-width:2.0px;stroke-linecap:butt;stroke-linejoin:miter;stroke-opacity:1"/>
<path class="bond-16 atom-16 atom-17" d="M 387.0,34.5 L 381.2,40.2" style="fill:none;fill-rule:evenodd;stroke:#000000;stroke-width:2.0px;stroke-linecap:butt;stroke-linejoin:miter;stroke-opacity:1"/>
<path class="bond-17 atom-17 atom-18" d="M 381.2,40.2 L 386.1,59.7" style="fill:none;fill-rule:evenodd;stroke:#000000;stroke-width:2.0px;stroke-linecap:butt;stroke-linejoin:miter;stroke-opacity:1"/>
<path class="bond-18 atom-10 atom-19" d="M 429.7,90.2 L 436.6,109.0" style="fill:none;fill-rule:evenodd;stroke:#000000;stroke-width:2.0px;stroke-linecap:butt;stroke-linejoin:miter;stroke-opacity:1"/>
<path class="bond-19 atom-19 atom-20" d="M 436.6,109.0 L 427.2,126.8" style="fill:none;fill-rule:evenodd;stroke:#000000;stroke-width:2.0px;stroke-linecap:butt;stroke-linejoin:miter;stroke-opacity:1"/>
<path class="bond-19 atom-19 atom-20" d="M 438.7,113.6 L 432.2,126.0" style="fill:none;fill-rule:evenodd;stroke:#000000;stroke-width:2.0px;stroke-linecap:butt;stroke-linejoin:miter;stroke-opacity:1"/>
<path class="bond-20 atom-20 atom-21" d="M 427.2,126.8 L 437.9,143.8" style="fill:none;fill-rule:evenodd;stroke:#000000;stroke-width:2.0px;stroke-linecap:butt;stroke-linejoin:miter;stroke-opacity:1"/>
<path class="bond-21 atom-21 atom-22" d="M 437.9,143.8 L 458.0,143.1" style="fill:none;fill-rule:evenodd;stroke:#000000;stroke-width:2.0px;stroke-linecap:butt;stroke-linejoin:miter;stroke-opacity:1"/>
<path class="bond-21 atom-21 atom-22" d="M 440.8,139.7 L 454.8,139.2" style="fill:none;fill-rule:evenodd;stroke:#000000;stroke-width:2.0px;stroke-linecap:butt;stroke-linejoin:miter;stroke-opacity:1"/>
<path class="bond-22 atom-22 atom-23" d="M 458.0,143.1 L 467.4,125.3" style="fill:none;fill-rule:evenodd;stroke:#000000;stroke-width:2.0px;stroke-linecap:butt;stroke-linejoin:miter;stroke-opacity:1"/>
<path class="bond-23 atom-23 atom-24" d="M 467.4,125.3 L 456.7,108.3" style="fill:none;fill-rule:evenodd;stroke:#000000;stroke-width:2.0px;stroke-linecap:butt;stroke-linejoin:miter;stroke-opacity:1"/>
<path class="bond-23 atom-23 atom-24" d="M 462.4,124.9 L 454.9,113.0" style="fill:none;fill-rule:evenodd;stroke:#000000;stroke-width:2.0px;stroke-linecap:butt;stroke-linejoin:miter;stroke-opacity:1"/>
<path class="bond-24 atom-24 atom-25" d="M 456.7,108.3 L 458.9,100.4" style="fill:none;fill-rule:evenodd;stroke:#000000;stroke-width:2.0px;stroke-linecap:butt;stroke-linejoin:miter;stroke-opacity:1"/>
<path class="bond-24 atom-24 atom-25" d="M 458.9,100.4 L 461.2,92.4" style="fill:none;fill-rule:evenodd;stroke:#0000FF;stroke-width:2.0px;stroke-linecap:butt;stroke-linejoin:miter;stroke-opacity:1"/>
<path class="bond-25 atom-25 atom-26" d="M 465.0,87.9 L 473.0,85.0" style="fill:none;fill-rule:evenodd;stroke:#0000FF;stroke-width:2.0px;stroke-linecap:butt;stroke-linejoin:miter;stroke-opacity:1"/>
<path class="bond-25 atom-25 atom-26" d="M 473.0,85.0 L 481.1,82.0" style="fill:none;fill-rule:evenodd;stroke:#000000;stroke-width:2.0px;stroke-linecap:butt;stroke-linejoin:miter;stroke-opacity:1"/>
<path class="bond-26 atom-26 atom-27" d="M 481.1,82.0 L 496.5,94.9" style="fill:none;fill-rule:evenodd;stroke:#000000;stroke-width:2.0px;stroke-linecap:butt;stroke-linejoin:miter;stroke-opacity:1"/>
<path class="bond-26 atom-26 atom-27" d="M 485.9,80.9 L 496.7,89.9" style="fill:none;fill-rule:evenodd;stroke:#000000;stroke-width:2.0px;stroke-linecap:butt;stroke-linejoin:miter;stroke-opacity:1"/>
<path class="bond-27 atom-27 atom-28" d="M 496.5,94.9 L 515.4,88.0" style="fill:none;fill-rule:evenodd;stroke:#000000;stroke-width:2.0px;stroke-linecap:butt;stroke-linejoin:miter;stroke-opacity:1"/>
<path class="bond-28 atom-28 atom-29" d="M 515.4,88.0 L 518.8,68.2" style="fill:none;fill-rule:evenodd;stroke:#000000;stroke-width:2.0px;stroke-linecap:butt;stroke-linejoin:miter;stroke-opacity:1"/>
<path class="bond-28 atom-28 atom-29" d="M 511.9,84.3 L 514.3,70.5" style="fill:none;fill-rule:evenodd;stroke:#000000;stroke-width:2.0px;stroke-linecap:butt;stroke-linejoin:miter;stroke-opacity:1"/>
<path class="bond-29 atom-29 atom-30" d="M 518.8,68.2 L 503.4,55.3" style="fill:none;fill-rule:evenodd;stroke:#000000;stroke-width:2.0px;stroke-linecap:butt;stroke-linejoin:miter;stroke-opacity:1"/>
<path class="bond-30 atom-30 atom-31" d="M 503.4,55.3 L 484.5,62.2" style="fill:none;fill-rule:evenodd;stroke:#000000;stroke-width:2.0px;stroke-linecap:butt;stroke-linejoin:miter;stroke-opacity:1"/>
<path class="bond-30 atom-30 atom-31" d="M 501.9,60.1 L 488.7,65.0" style="fill:none;fill-rule:evenodd;stroke:#000000;stroke-width:2.0px;stroke-linecap:butt;stroke-linejoin:miter;stroke-opacity:1"/>
<path class="bond-31 atom-7 atom-1" d="M 461.8,47.0 L 461.0,26.9" style="fill:none;fill-rule:evenodd;stroke:#000000;stroke-width:2.0px;stroke-linecap:butt;stroke-linejoin:miter;stroke-opacity:1"/>
<path class="bond-32 atom-25 atom-9" d="M 459.4,87.1 L 452.4,82.4" style="fill:none;fill-rule:evenodd;stroke:#0000FF;stroke-width:2.0px;stroke-linecap:butt;stroke-linejoin:miter;stroke-opacity:1"/>
<path class="bond-32 atom-25 atom-9" d="M 452.4,82.4 L 445.5,77.7" style="fill:none;fill-rule:evenodd;stroke:#000000;stroke-width:2.0px;stroke-linecap:butt;stroke-linejoin:miter;stroke-opacity:1"/>
<path class="bond-33 atom-31 atom-26" d="M 484.5,62.2 L 481.1,82.0" style="fill:none;fill-rule:evenodd;stroke:#000000;stroke-width:2.0px;stroke-linecap:butt;stroke-linejoin:miter;stroke-opacity:1"/>
<path class="bond-34 atom-18 atom-13" d="M 386.1,59.7 L 394.4,62.0" style="fill:none;fill-rule:evenodd;stroke:#000000;stroke-width:2.0px;stroke-linecap:butt;stroke-linejoin:miter;stroke-opacity:1"/>
<path class="bond-34 atom-18 atom-13" d="M 394.4,62.0 L 402.6,64.4" style="fill:none;fill-rule:evenodd;stroke:#0000FF;stroke-width:2.0px;stroke-linecap:butt;stroke-linejoin:miter;stroke-opacity:1"/>
<path class="bond-35 atom-24 atom-19" d="M 456.7,108.3 L 436.6,109.0" style="fill:none;fill-rule:evenodd;stroke:#000000;stroke-width:2.0px;stroke-linecap:butt;stroke-linejoin:miter;stroke-opacity:1"/>
<path class="atom-6" d="M 481.9 67.6 L 485.3 67.6 L 485.3 68.2 L 482.7 68.2 L 482.7 70.0 L 485.0 70.0 L 485.0 70.6 L 482.7 70.6 L 482.7 73.3 L 481.9 73.3 L 481.9 67.6 " fill="#33CCCC"/>
<path class="atom-8" d="M 442.1 57.7 Q 442.1 56.3, 442.8 55.5 Q 443.5 54.8, 444.7 54.8 Q 446.0 54.8, 446.7 55.5 Q 447.4 56.3, 447.4 57.7 Q 447.4 59.1, 446.7 59.8 Q 446.0 60.6, 444.7 60.6 Q 443.5 60.6, 442.8 59.8 Q 442.1 59.1, 442.1 57.7 M 444.7 60.0 Q 445.6 60.0, 446.1 59.4 Q 446.6 58.8, 446.6 57.7 Q 446.6 56.6, 446.1 56.0 Q 445.6 55.4, 444.7 55.4 Q 443.9 55.4, 443.4 56.0 Q 442.9 56.5, 442.9 57.7 Q 442.9 58.8, 443.4 59.4 Q 443.9 60.0, 444.7 60.0 " fill="#FF0000"/>
<path class="atom-12" d="M 393.3 98.7 Q 393.3 97.3, 394.0 96.5 Q 394.7 95.8, 395.9 95.8 Q 397.2 95.8, 397.9 96.5 Q 398.5 97.3, 398.5 98.7 Q 398.5 100.1, 397.9 100.8 Q 397.2 101.6, 395.9 101.6 Q 394.7 101.6, 394.0 100.8 Q 393.3 100.1, 393.3 98.7 M 395.9 101.0 Q 396.8 101.0, 397.3 100.4 Q 397.7 99.8, 397.7 98.7 Q 397.7 97.6, 397.3 97.0 Q 396.8 96.4, 395.9 96.4 Q 395.1 96.4, 394.6 97.0 Q 394.1 97.5, 394.1 98.7 Q 394.1 99.8, 394.6 100.4 Q 395.1 101.0, 395.9 101.0 " fill="#FF0000"/>
<path class="atom-13" d="M 404.2 62.3 L 406.0 65.3 Q 406.2 65.6, 406.5 66.2 Q 406.8 66.7, 406.8 66.7 L 406.8 62.3 L 407.6 62.3 L 407.6 68.0 L 406.8 68.0 L 404.8 64.7 Q 404.6 64.3, 404.3 63.9 Q 404.1 63.4, 404.0 63.3 L 404.0 68.0 L 403.3 68.0 L 403.3 62.3 L 404.2 62.3 " fill="#0000FF"/>
<path class="atom-16" d="M 394.4 23.3 L 396.2 26.3 Q 396.4 26.6, 396.7 27.2 Q 397.0 27.7, 397.0 27.8 L 397.0 23.3 L 397.8 23.3 L 397.8 29.0 L 397.0 29.0 L 395.0 25.7 Q 394.8 25.3, 394.5 24.9 Q 394.3 24.5, 394.2 24.3 L 394.2 29.0 L 393.5 29.0 L 393.5 23.3 L 394.4 23.3 " fill="#0000FF"/>
<path class="atom-16" d="M 393.4 17.1 L 394.2 17.1 L 394.2 19.5 L 397.1 19.5 L 397.1 17.1 L 397.9 17.1 L 397.9 22.8 L 397.1 22.8 L 397.1 20.1 L 394.2 20.1 L 394.2 22.8 L 393.4 22.8 L 393.4 17.1 " fill="#0000FF"/>
<path class="atom-25" d="M 460.9 86.1 L 462.8 89.1 Q 463.0 89.4, 463.3 89.9 Q 463.6 90.5, 463.6 90.5 L 463.6 86.1 L 464.3 86.1 L 464.3 91.8 L 463.6 91.8 L 461.6 88.5 Q 461.3 88.1, 461.1 87.7 Q 460.8 87.2, 460.8 87.1 L 460.8 91.8 L 460.0 91.8 L 460.0 86.1 L 460.9 86.1 " fill="#0000FF"/>
<path class="bond-0 atom-0 atom-1" d="M 655.9,67.6 L 661.7,72.9" style="fill:none;fill-rule:evenodd;stroke:#000000;stroke-width:2.0px;stroke-linecap:butt;stroke-linejoin:miter;stroke-opacity:1"/>
<path class="bond-0 atom-0 atom-1" d="M 661.7,72.9 L 667.4,78.2" style="fill:none;fill-rule:evenodd;stroke:#FF0000;stroke-width:2.0px;stroke-linecap:butt;stroke-linejoin:miter;stroke-opacity:1"/>
<path class="bond-1 atom-1 atom-2" d="M 674.0,80.3 L 681.9,77.8" style="fill:none;fill-rule:evenodd;stroke:#FF0000;stroke-width:2.0px;stroke-linecap:butt;stroke-linejoin:miter;stroke-opacity:1"/>
<path class="bond-1 atom-1 atom-2" d="M 681.9,77.8 L 689.9,75.4" style="fill:none;fill-rule:evenodd;stroke:#000000;stroke-width:2.0px;stroke-linecap:butt;stroke-linejoin:miter;stroke-opacity:1"/>
<path class="bond-2 atom-2 atom-3" d="M 689.9,75.4 L 694.4,55.8" style="fill:none;fill-rule:evenodd;stroke:#000000;stroke-width:2.0px;stroke-linecap:butt;stroke-linejoin:miter;stroke-opacity:1"/>
<path class="bond-2 atom-2 atom-3" d="M 694.5,73.3 L 697.6,59.6" style="fill:none;fill-rule:evenodd;stroke:#000000;stroke-width:2.0px;stroke-linecap:butt;stroke-linejoin:miter;stroke-opacity:1"/>
<path class="bond-3 atom-3 atom-4" d="M 694.4,55.8 L 713.6,49.8" style="fill:none;fill-rule:evenodd;stroke:#000000;stroke-width:2.0px;stroke-linecap:butt;stroke-linejoin:miter;stroke-opacity:1"/>
<path class="bond-4 atom-4 atom-5" d="M 713.6,49.8 L 728.3,63.5" style="fill:none;fill-rule:evenodd;stroke:#000000;stroke-width:2.0px;stroke-linecap:butt;stroke-linejoin:miter;stroke-opacity:1"/>
<path class="bond-4 atom-4 atom-5" d="M 713.0,54.8 L 723.4,64.4" style="fill:none;fill-rule:evenodd;stroke:#000000;stroke-width:2.0px;stroke-linecap:butt;stroke-linejoin:miter;stroke-opacity:1"/>
<path class="bond-5 atom-5 atom-6" d="M 728.3,63.5 L 723.8,83.1" style="fill:none;fill-rule:evenodd;stroke:#000000;stroke-width:2.0px;stroke-linecap:butt;stroke-linejoin:miter;stroke-opacity:1"/>
<path class="bond-6 atom-6 atom-7" d="M 723.8,83.1 L 704.6,89.0" style="fill:none;fill-rule:evenodd;stroke:#000000;stroke-width:2.0px;stroke-linecap:butt;stroke-linejoin:miter;stroke-opacity:1"/>
<path class="bond-6 atom-6 atom-7" d="M 719.8,80.2 L 706.3,84.3" style="fill:none;fill-rule:evenodd;stroke:#000000;stroke-width:2.0px;stroke-linecap:butt;stroke-linejoin:miter;stroke-opacity:1"/>
<path class="bond-7 atom-6 atom-8" d="M 723.8,83.1 L 741.1,93.4" style="fill:none;fill-rule:evenodd;stroke:#000000;stroke-width:2.0px;stroke-linecap:butt;stroke-linejoin:miter;stroke-opacity:1"/>
<path class="bond-8 atom-8 atom-9" d="M 741.1,93.4 L 742.9,113.4" style="fill:none;fill-rule:evenodd;stroke:#000000;stroke-width:2.0px;stroke-linecap:butt;stroke-linejoin:miter;stroke-opacity:1"/>
<path class="bond-9 atom-9 atom-10" d="M 744.0,115.1 L 737.5,119.7" style="fill:none;fill-rule:evenodd;stroke:#000000;stroke-width:2.0px;stroke-linecap:butt;stroke-linejoin:miter;stroke-opacity:1"/>
<path class="bond-9 atom-9 atom-10" d="M 737.5,119.7 L 730.9,124.3" style="fill:none;fill-rule:evenodd;stroke:#FF0000;stroke-width:2.0px;stroke-linecap:butt;stroke-linejoin:miter;stroke-opacity:1"/>
<path class="bond-9 atom-9 atom-10" d="M 741.7,111.8 L 735.2,116.4" style="fill:none;fill-rule:evenodd;stroke:#000000;stroke-width:2.0px;stroke-linecap:butt;stroke-linejoin:miter;stroke-opacity:1"/>
<path class="bond-9 atom-9 atom-10" d="M 735.2,116.4 L 728.6,121.1" style="fill:none;fill-rule:evenodd;stroke:#FF0000;stroke-width:2.0px;stroke-linecap:butt;stroke-linejoin:miter;stroke-opacity:1"/>
<path class="bond-10 atom-9 atom-11" d="M 742.9,113.4 L 750.6,117.0" style="fill:none;fill-rule:evenodd;stroke:#000000;stroke-width:2.0px;stroke-linecap:butt;stroke-linejoin:miter;stroke-opacity:1"/>
<path class="bond-10 atom-9 atom-11" d="M 750.6,117.0 L 758.3,120.6" style="fill:none;fill-rule:evenodd;stroke:#0000FF;stroke-width:2.0px;stroke-linecap:butt;stroke-linejoin:miter;stroke-opacity:1"/>
<path class="bond-11 atom-11 atom-12" d="M 761.4,125.4 L 762.2,133.7" style="fill:none;fill-rule:evenodd;stroke:#0000FF;stroke-width:2.0px;stroke-linecap:butt;stroke-linejoin:miter;stroke-opacity:1"/>
<path class="bond-11 atom-11 atom-12" d="M 762.2,133.7 L 762.9,141.9" style="fill:none;fill-rule:evenodd;stroke:#000000;stroke-width:2.0px;stroke-linecap:butt;stroke-linejoin:miter;stroke-opacity:1"/>
<path class="bond-12 atom-12 atom-13" d="M 762.9,141.9 L 781.2,150.4" style="fill:none;fill-rule:evenodd;stroke:#000000;stroke-width:2.0px;stroke-linecap:butt;stroke-linejoin:miter;stroke-opacity:1"/>
<path class="bond-13 atom-13 atom-14" d="M 781.2,150.4 L 788.0,145.6" style="fill:none;fill-rule:evenodd;stroke:#000000;stroke-width:2.0px;stroke-linecap:butt;stroke-linejoin:miter;stroke-opacity:1"/>
<path class="bond-13 atom-13 atom-14" d="M 788.0,145.6 L 794.8,140.8" style="fill:none;fill-rule:evenodd;stroke:#0000FF;stroke-width:2.0px;stroke-linecap:butt;stroke-linejoin:miter;stroke-opacity:1"/>
<path class="bond-14 atom-14 atom-15" d="M 797.3,135.3 L 796.5,127.0" style="fill:none;fill-rule:evenodd;stroke:#0000FF;stroke-width:2.0px;stroke-linecap:butt;stroke-linejoin:miter;stroke-opacity:1"/>
<path class="bond-14 atom-14 atom-15" d="M 796.5,127.0 L 795.8,118.8" style="fill:none;fill-rule:evenodd;stroke:#000000;stroke-width:2.0px;stroke-linecap:butt;stroke-linejoin:miter;stroke-opacity:1"/>
<path class="bond-15 atom-15 atom-16" d="M 795.8,118.8 L 812.2,107.2" style="fill:none;fill-rule:evenodd;stroke:#000000;stroke-width:2.0px;stroke-linecap:butt;stroke-linejoin:miter;stroke-opacity:1"/>
<path class="bond-16 atom-15 atom-17" d="M 795.8,118.8 L 777.6,110.3" style="fill:none;fill-rule:evenodd;stroke:#000000;stroke-width:2.0px;stroke-linecap:butt;stroke-linejoin:miter;stroke-opacity:1"/>
<path class="bond-17 atom-8 atom-18" d="M 741.1,93.4 L 756.2,80.2" style="fill:none;fill-rule:evenodd;stroke:#000000;stroke-width:2.0px;stroke-linecap:butt;stroke-linejoin:miter;stroke-opacity:1"/>
<path class="bond-17 atom-8 atom-18" d="M 740.7,88.4 L 751.3,79.1" style="fill:none;fill-rule:evenodd;stroke:#000000;stroke-width:2.0px;stroke-linecap:butt;stroke-linejoin:miter;stroke-opacity:1"/>
<path class="bond-18 atom-18 atom-19" d="M 756.2,80.2 L 775.8,84.7" style="fill:none;fill-rule:evenodd;stroke:#000000;stroke-width:2.0px;stroke-linecap:butt;stroke-linejoin:miter;stroke-opacity:1"/>
<path class="bond-19 atom-19 atom-20" d="M 775.8,84.7 L 789.5,69.9" style="fill:none;fill-rule:evenodd;stroke:#000000;stroke-width:2.0px;stroke-linecap:butt;stroke-linejoin:miter;stroke-opacity:1"/>
<path class="bond-20 atom-20 atom-21" d="M 789.5,69.9 L 783.6,50.7" style="fill:none;fill-rule:evenodd;stroke:#000000;stroke-width:2.0px;stroke-linecap:butt;stroke-linejoin:miter;stroke-opacity:1"/>
<path class="bond-20 atom-20 atom-21" d="M 792.4,65.9 L 788.3,52.4" style="fill:none;fill-rule:evenodd;stroke:#000000;stroke-width:2.0px;stroke-linecap:butt;stroke-linejoin:miter;stroke-opacity:1"/>
<path class="bond-21 atom-21 atom-22" d="M 783.6,50.7 L 797.2,36.0" style="fill:none;fill-rule:evenodd;stroke:#000000;stroke-width:2.0px;stroke-linecap:butt;stroke-linejoin:miter;stroke-opacity:1"/>
<path class="bond-22 atom-22 atom-23" d="M 797.2,36.0 L 816.8,40.5" style="fill:none;fill-rule:evenodd;stroke:#000000;stroke-width:2.0px;stroke-linecap:butt;stroke-linejoin:miter;stroke-opacity:1"/>
<path class="bond-22 atom-22 atom-23" d="M 799.3,40.6 L 813.0,43.7" style="fill:none;fill-rule:evenodd;stroke:#000000;stroke-width:2.0px;stroke-linecap:butt;stroke-linejoin:miter;stroke-opacity:1"/>
<path class="bond-23 atom-23 atom-24" d="M 816.8,40.5 L 822.8,59.7" style="fill:none;fill-rule:evenodd;stroke:#000000;stroke-width:2.0px;stroke-linecap:butt;stroke-linejoin:miter;stroke-opacity:1"/>
<path class="bond-24 atom-24 atom-25" d="M 822.8,59.7 L 831.4,61.6" style="fill:none;fill-rule:evenodd;stroke:#000000;stroke-width:2.0px;stroke-linecap:butt;stroke-linejoin:miter;stroke-opacity:1"/>
<path class="bond-24 atom-24 atom-25" d="M 831.4,61.6 L 840.0,63.6" style="fill:none;fill-rule:evenodd;stroke:#33CCCC;stroke-width:2.0px;stroke-linecap:butt;stroke-linejoin:miter;stroke-opacity:1"/>
<path class="bond-25 atom-24 atom-26" d="M 822.8,59.7 L 809.1,74.4" style="fill:none;fill-rule:evenodd;stroke:#000000;stroke-width:2.0px;stroke-linecap:butt;stroke-linejoin:miter;stroke-opacity:1"/>
<path class="bond-25 atom-24 atom-26" d="M 817.8,59.1 L 808.2,69.5" style="fill:none;fill-rule:evenodd;stroke:#000000;stroke-width:2.0px;stroke-linecap:butt;stroke-linejoin:miter;stroke-opacity:1"/>
<path class="bond-26 atom-26 atom-27" d="M 809.1,74.4 L 815.0,93.6" style="fill:none;fill-rule:evenodd;stroke:#000000;stroke-width:2.0px;stroke-linecap:butt;stroke-linejoin:miter;stroke-opacity:1"/>
<path class="bond-27 atom-18 atom-28" d="M 756.2,80.2 L 753.0,72.7" style="fill:none;fill-rule:evenodd;stroke:#000000;stroke-width:2.0px;stroke-linecap:butt;stroke-linejoin:miter;stroke-opacity:1"/>
<path class="bond-27 atom-18 atom-28" d="M 753.0,72.7 L 749.8,65.2" style="fill:none;fill-rule:evenodd;stroke:#0000FF;stroke-width:2.0px;stroke-linecap:butt;stroke-linejoin:miter;stroke-opacity:1"/>
<path class="bond-28 atom-28 atom-29" d="M 750.4,58.2 L 754.5,51.3" style="fill:none;fill-rule:evenodd;stroke:#0000FF;stroke-width:2.0px;stroke-linecap:butt;stroke-linejoin:miter;stroke-opacity:1"/>
<path class="bond-28 atom-28 atom-29" d="M 754.5,51.3 L 758.6,44.5" style="fill:none;fill-rule:evenodd;stroke:#000000;stroke-width:2.0px;stroke-linecap:butt;stroke-linejoin:miter;stroke-opacity:1"/>
<path class="bond-29 atom-29 atom-30" d="M 758.6,44.5 L 778.7,44.8" style="fill:none;fill-rule:evenodd;stroke:#000000;stroke-width:2.0px;stroke-linecap:butt;stroke-linejoin:miter;stroke-opacity:1"/>
<path class="bond-29 atom-29 atom-30" d="M 761.7,40.5 L 775.8,40.7" style="fill:none;fill-rule:evenodd;stroke:#000000;stroke-width:2.0px;stroke-linecap:butt;stroke-linejoin:miter;stroke-opacity:1"/>
<path class="bond-30 atom-30 atom-31" d="M 778.7,44.8 L 789.0,27.5" style="fill:none;fill-rule:evenodd;stroke:#000000;stroke-width:2.0px;stroke-linecap:butt;stroke-linejoin:miter;stroke-opacity:1"/>
<path class="bond-31 atom-31 atom-32" d="M 789.0,27.5 L 779.3,9.9" style="fill:none;fill-rule:evenodd;stroke:#000000;stroke-width:2.0px;stroke-linecap:butt;stroke-linejoin:miter;stroke-opacity:1"/>
<path class="bond-31 atom-31 atom-32" d="M 784.1,26.8 L 777.2,14.5" style="fill:none;fill-rule:evenodd;stroke:#000000;stroke-width:2.0px;stroke-linecap:butt;stroke-linejoin:miter;stroke-opacity:1"/>
<path class="bond-32 atom-32 atom-33" d="M 779.3,9.9 L 759.2,9.6" style="fill:none;fill-rule:evenodd;stroke:#000000;stroke-width:2.0px;stroke-linecap:butt;stroke-linejoin:miter;stroke-opacity:1"/>
<path class="bond-33 atom-33 atom-34" d="M 759.2,9.6 L 748.8,26.9" style="fill:none;fill-rule:evenodd;stroke:#000000;stroke-width:2.0px;stroke-linecap:butt;stroke-linejoin:miter;stroke-opacity:1"/>
<path class="bond-33 atom-33 atom-34" d="M 761.1,14.3 L 753.8,26.4" style="fill:none;fill-rule:evenodd;stroke:#000000;stroke-width:2.0px;stroke-linecap:butt;stroke-linejoin:miter;stroke-opacity:1"/>
<path class="bond-34 atom-7 atom-2" d="M 704.6,89.0 L 689.9,75.4" style="fill:none;fill-rule:evenodd;stroke:#000000;stroke-width:2.0px;stroke-linecap:butt;stroke-linejoin:miter;stroke-opacity:1"/>
<path class="bond-35 atom-17 atom-11" d="M 777.6,110.3 L 770.8,115.1" style="fill:none;fill-rule:evenodd;stroke:#000000;stroke-width:2.0px;stroke-linecap:butt;stroke-linejoin:miter;stroke-opacity:1"/>
<path class="bond-35 atom-17 atom-11" d="M 770.8,115.1 L 764.0,119.9" style="fill:none;fill-rule:evenodd;stroke:#0000FF;stroke-width:2.0px;stroke-linecap:butt;stroke-linejoin:miter;stroke-opacity:1"/>
<path class="bond-36 atom-26 atom-20" d="M 809.1,74.4 L 789.5,69.9" style="fill:none;fill-rule:evenodd;stroke:#000000;stroke-width:2.0px;stroke-linecap:butt;stroke-linejoin:miter;stroke-opacity:1"/>
<path class="bond-37 atom-34 atom-29" d="M 748.8,26.9 L 758.6,44.5" style="fill:none;fill-rule:evenodd;stroke:#000000;stroke-width:2.0px;stroke-linecap:butt;stroke-linejoin:miter;stroke-opacity:1"/>
<path class="bond-38 atom-28 atom-5" d="M 745.5,62.0 L 736.9,62.7" style="fill:none;fill-rule:evenodd;stroke:#0000FF;stroke-width:2.0px;stroke-linecap:butt;stroke-linejoin:miter;stroke-opacity:1"/>
<path class="bond-38 atom-28 atom-5" d="M 736.9,62.7 L 728.3,63.5" style="fill:none;fill-rule:evenodd;stroke:#000000;stroke-width:2.0px;stroke-linecap:butt;stroke-linejoin:miter;stroke-opacity:1"/>
<path class="atom-1" d="M 668.1 81.3 Q 668.1 79.9, 668.7 79.2 Q 669.4 78.4, 670.7 78.4 Q 671.9 78.4, 672.6 79.2 Q 673.3 79.9, 673.3 81.3 Q 673.3 82.7, 672.6 83.5 Q 671.9 84.3, 670.7 84.3 Q 669.4 84.3, 668.7 83.5 Q 668.1 82.7, 668.1 81.3 M 670.7 83.6 Q 671.6 83.6, 672.0 83.0 Q 672.5 82.4, 672.5 81.3 Q 672.5 80.2, 672.0 79.6 Q 671.6 79.1, 670.7 79.1 Q 669.8 79.1, 669.3 79.6 Q 668.9 80.2, 668.9 81.3 Q 668.9 82.5, 669.3 83.0 Q 669.8 83.6, 670.7 83.6 " fill="#FF0000"/>
<path class="atom-10" d="M 723.8 125.0 Q 723.8 123.7, 724.5 122.9 Q 725.2 122.1, 726.5 122.1 Q 727.7 122.1, 728.4 122.9 Q 729.1 123.7, 729.1 125.0 Q 729.1 126.4, 728.4 127.2 Q 727.7 128.0, 726.5 128.0 Q 725.2 128.0, 724.5 127.2 Q 723.8 126.4, 723.8 125.0 M 726.5 127.3 Q 727.3 127.3, 727.8 126.8 Q 728.3 126.2, 728.3 125.0 Q 728.3 123.9, 727.8 123.3 Q 727.3 122.8, 726.5 122.8 Q 725.6 122.8, 725.1 123.3 Q 724.6 123.9, 724.6 125.0 Q 724.6 126.2, 725.1 126.8 Q 725.6 127.3, 726.5 127.3 " fill="#FF0000"/>
<path class="atom-11" d="M 759.9 119.0 L 761.7 122.1 Q 761.9 122.4, 762.2 122.9 Q 762.5 123.4, 762.5 123.5 L 762.5 119.0 L 763.3 119.0 L 763.3 124.7 L 762.5 124.7 L 760.5 121.4 Q 760.3 121.1, 760.0 120.6 Q 759.8 120.2, 759.7 120.0 L 759.7 124.7 L 759.0 124.7 L 759.0 119.0 L 759.9 119.0 " fill="#0000FF"/>
<path class="atom-14" d="M 796.3 135.9 L 798.2 139.0 Q 798.4 139.3, 798.7 139.8 Q 799.0 140.3, 799.0 140.4 L 799.0 135.9 L 799.8 135.9 L 799.8 141.6 L 799.0 141.6 L 797.0 138.3 Q 796.8 138.0, 796.5 137.5 Q 796.3 137.1, 796.2 136.9 L 796.2 141.6 L 795.4 141.6 L 795.4 135.9 L 796.3 135.9 " fill="#0000FF"/>
<path class="atom-14" d="M 800.4 135.9 L 801.2 135.9 L 801.2 138.4 L 804.1 138.4 L 804.1 135.9 L 804.9 135.9 L 804.9 141.6 L 804.1 141.6 L 804.1 139.0 L 801.2 139.0 L 801.2 141.6 L 800.4 141.6 L 800.4 135.9 " fill="#0000FF"/>
<path class="atom-25" d="M 840.7 61.3 L 844.1 61.3 L 844.1 61.9 L 841.4 61.9 L 841.4 63.7 L 843.8 63.7 L 843.8 64.3 L 841.4 64.3 L 841.4 67.0 L 840.7 67.0 L 840.7 61.3 " fill="#33CCCC"/>
<path class="atom-28" d="M 747.1 58.9 L 748.9 61.9 Q 749.1 62.2, 749.4 62.7 Q 749.7 63.3, 749.7 63.3 L 749.7 58.9 L 750.5 58.9 L 750.5 64.6 L 749.7 64.6 L 747.7 61.3 Q 747.5 60.9, 747.2 60.4 Q 747.0 60.0, 746.9 59.9 L 746.9 64.6 L 746.2 64.6 L 746.2 58.9 L 747.1 58.9 " fill="#0000FF"/>
</svg>