<svg xmlns="http://www.w3.org/2000/svg" xmlns:rdkit="http://www.rdkit.org/xml" xmlns:xlink="http://www.w3.org/1999/xlink" version="1.1" baseProfile="full" xml:space="preserve" width="1500px" height="160px" viewBox="0 0 1500 160">
<!-- END OF HEADER -->
<rect style="opacity:1.0;fill:#FFFFFF;stroke:none" width="1500.0" height="160.0" x="0.0" y="0.0"> </rect>
<path class="bond-0 atom-0 atom-1" d="M 52.0,46.9 L 68.1,61.4" style="fill:none;fill-rule:evenodd;stroke:#000000;stroke-width:2.0px;stroke-linecap:butt;stroke-linejoin:miter;stroke-opacity:1"/>
<path class="bond-1 atom-1 atom-2" d="M 68.1,61.4 L 63.6,82.6" style="fill:none;fill-rule:evenodd;stroke:#000000;stroke-width:2.0px;stroke-linecap:butt;stroke-linejoin:miter;stroke-opacity:1"/>
<path class="bond-2 atom-2 atom-3" d="M 63.6,82.6 L 54.8,85.5" style="fill:none;fill-rule:evenodd;stroke:#000000;stroke-width:2.0px;stroke-linecap:butt;stroke-linejoin:miter;stroke-opacity:1"/>
<path class="bond-2 atom-2 atom-3" d="M 54.8,85.5 L 46.0,88.3" style="fill:none;fill-rule:evenodd;stroke:#0000FF;stroke-width:2.0px;stroke-linecap:butt;stroke-linejoin:miter;stroke-opacity:1"/>
<path class="bond-3 atom-1 atom-4" d="M 68.1,61.4 L 76.9,58.6" style="fill:none;fill-rule:evenodd;stroke:#000000;stroke-width:2.0px;stroke-linecap:butt;stroke-linejoin:miter;stroke-opacity:1"/>
<path class="bond-3 atom-1 atom-4" d="M 76.9,58.6 L 85.7,55.7" style="fill:none;fill-rule:evenodd;stroke:#0000FF;stroke-width:2.0px;stroke-linecap:butt;stroke-linejoin:miter;stroke-opacity:1"/>
<path class="bond-4 atom-4 atom-5" d="M 89.5,51.0 L 91.4,42.3" style="fill:none;fill-rule:evenodd;stroke:#0000FF;stroke-width:2.0px;stroke-linecap:butt;stroke-linejoin:miter;stroke-opacity:1"/>
<path class="bond-4 atom-4 atom-5" d="M 91.4,42.3 L 93.3,33.5" style="fill:none;fill-rule:evenodd;stroke:#000000;stroke-width:2.0px;stroke-linecap:butt;stroke-linejoin:miter;stroke-opacity:1"/>
<path class="bond-5 atom-5 atom-6" d="M 93.3,33.5 L 113.9,26.9" style="fill:none;fill-rule:evenodd;stroke:#000000;stroke-width:2.0px;stroke-linecap:butt;stroke-linejoin:miter;stroke-opacity:1"/>
<path class="bond-6 atom-6 atom-7" d="M 113.9,26.9 L 120.4,32.7" style="fill:none;fill-rule:evenodd;stroke:#000000;stroke-width:2.0px;stroke-linecap:butt;stroke-linejoin:miter;stroke-opacity:1"/>
<path class="bond-6 atom-6 atom-7" d="M 120.4,32.7 L 126.9,38.6" style="fill:none;fill-rule:evenodd;stroke:#0000FF;stroke-width:2.0px;stroke-linecap:butt;stroke-linejoin:miter;stroke-opacity:1"/>
<path class="bond-7 atom-7 atom-8" d="M 133.0,40.4 L 141.8,37.5" style="fill:none;fill-rule:evenodd;stroke:#0000FF;stroke-width:2.0px;stroke-linecap:butt;stroke-linejoin:miter;stroke-opacity:1"/>
<path class="bond-7 atom-7 atom-8" d="M 141.8,37.5 L 150.6,34.7" style="fill:none;fill-rule:evenodd;stroke:#000000;stroke-width:2.0px;stroke-linecap:butt;stroke-linejoin:miter;stroke-opacity:1"/>
<path class="bond-8 atom-8 atom-9" d="M 148.5,34.2 L 150.3,25.6" style="fill:none;fill-rule:evenodd;stroke:#000000;stroke-width:2.0px;stroke-linecap:butt;stroke-linejoin:miter;stroke-opacity:1"/>
<path class="bond-8 atom-8 atom-9" d="M 150.3,25.6 L 152.1,16.9" style="fill:none;fill-rule:evenodd;stroke:#FF0000;stroke-width:2.0px;stroke-linecap:butt;stroke-linejoin:miter;stroke-opacity:1"/>
<path class="bond-8 atom-8 atom-9" d="M 152.7,35.1 L 154.5,26.5" style="fill:none;fill-rule:evenodd;stroke:#000000;stroke-width:2.0px;stroke-linecap:butt;stroke-linejoin:miter;stroke-opacity:1"/>
<path class="bond-8 atom-8 atom-9" d="M 154.5,26.5 L 156.4,17.8" style="fill:none;fill-rule:evenodd;stroke:#FF0000;stroke-width:2.0px;stroke-linecap:butt;stroke-linejoin:miter;stroke-opacity:1"/>
<path class="bond-9 atom-8 atom-10" d="M 150.6,34.7 L 166.7,49.2" style="fill:none;fill-rule:evenodd;stroke:#000000;stroke-width:2.0px;stroke-linecap:butt;stroke-linejoin:miter;stroke-opacity:1"/>
<path class="bond-10 atom-10 atom-11" d="M 166.7,49.2 L 164.4,70.7" style="fill:none;fill-rule:evenodd;stroke:#000000;stroke-width:2.0px;stroke-linecap:butt;stroke-linejoin:miter;stroke-opacity:1"/>
<path class="bond-10 atom-10 atom-11" d="M 170.7,52.9 L 169.1,67.9" style="fill:none;fill-rule:evenodd;stroke:#000000;stroke-width:2.0px;stroke-linecap:butt;stroke-linejoin:miter;stroke-opacity:1"/>
<path class="bond-11 atom-11 atom-12" d="M 164.4,70.7 L 145.6,81.6" style="fill:none;fill-rule:evenodd;stroke:#000000;stroke-width:2.0px;stroke-linecap:butt;stroke-linejoin:miter;stroke-opacity:1"/>
<path class="bond-12 atom-12 atom-13" d="M 145.6,81.6 L 145.6,103.2" style="fill:none;fill-rule:evenodd;stroke:#000000;stroke-width:2.0px;stroke-linecap:butt;stroke-linejoin:miter;stroke-opacity:1"/>
<path class="bond-13 atom-13 atom-14" d="M 145.6,103.2 L 164.4,114.1" style="fill:none;fill-rule:evenodd;stroke:#000000;stroke-width:2.0px;stroke-linecap:butt;stroke-linejoin:miter;stroke-opacity:1"/>
<path class="bond-13 atom-13 atom-14" d="M 146.3,108.6 L 159.4,116.2" style="fill:none;fill-rule:evenodd;stroke:#000000;stroke-width:2.0px;stroke-linecap:butt;stroke-linejoin:miter;stroke-opacity:1"/>
<path class="bond-14 atom-14 atom-15" d="M 164.4,114.1 L 164.4,135.7" style="fill:none;fill-rule:evenodd;stroke:#000000;stroke-width:2.0px;stroke-linecap:butt;stroke-linejoin:miter;stroke-opacity:1"/>
<path class="bond-15 atom-15 atom-16" d="M 164.4,135.7 L 145.6,146.6" style="fill:none;fill-rule:evenodd;stroke:#000000;stroke-width:2.0px;stroke-linecap:butt;stroke-linejoin:miter;stroke-opacity:1"/>
<path class="bond-15 atom-15 atom-16" d="M 159.4,133.6 L 146.3,141.2" style="fill:none;fill-rule:evenodd;stroke:#000000;stroke-width:2.0px;stroke-linecap:butt;stroke-linejoin:miter;stroke-opacity:1"/>
<path class="bond-16 atom-16 atom-17" d="M 145.6,146.6 L 126.9,135.7" style="fill:none;fill-rule:evenodd;stroke:#000000;stroke-width:2.0px;stroke-linecap:butt;stroke-linejoin:miter;stroke-opacity:1"/>
<path class="bond-17 atom-17 atom-18" d="M 126.9,135.7 L 118.7,140.4" style="fill:none;fill-rule:evenodd;stroke:#000000;stroke-width:2.0px;stroke-linecap:butt;stroke-linejoin:miter;stroke-opacity:1"/>
<path class="bond-17 atom-17 atom-18" d="M 118.7,140.4 L 110.6,145.1" style="fill:none;fill-rule:evenodd;stroke:#33CCCC;stroke-width:2.0px;stroke-linecap:butt;stroke-linejoin:miter;stroke-opacity:1"/>
<path class="bond-18 atom-17 atom-19" d="M 126.9,135.7 L 126.9,114.1" style="fill:none;fill-rule:evenodd;stroke:#000000;stroke-width:2.0px;stroke-linecap:butt;stroke-linejoin:miter;stroke-opacity:1"/>
<path class="bond-18 atom-17 atom-19" d="M 131.2,132.5 L 131.2,117.3" style="fill:none;fill-rule:evenodd;stroke:#000000;stroke-width:2.0px;stroke-linecap:butt;stroke-linejoin:miter;stroke-opacity:1"/>
<path class="bond-19 atom-19 atom-20" d="M 126.9,114.1 L 108.1,103.2" style="fill:none;fill-rule:evenodd;stroke:#000000;stroke-width:2.0px;stroke-linecap:butt;stroke-linejoin:miter;stroke-opacity:1"/>
<path class="bond-20 atom-11 atom-21" d="M 164.4,70.7 L 172.8,74.5" style="fill:none;fill-rule:evenodd;stroke:#000000;stroke-width:2.0px;stroke-linecap:butt;stroke-linejoin:miter;stroke-opacity:1"/>
<path class="bond-20 atom-11 atom-21" d="M 172.8,74.5 L 181.2,78.2" style="fill:none;fill-rule:evenodd;stroke:#0000FF;stroke-width:2.0px;stroke-linecap:butt;stroke-linejoin:miter;stroke-opacity:1"/>
<path class="bond-21 atom-21 atom-22" d="M 185.0,83.3 L 186.9,92.0" style="fill:none;fill-rule:evenodd;stroke:#0000FF;stroke-width:2.0px;stroke-linecap:butt;stroke-linejoin:miter;stroke-opacity:1"/>
<path class="bond-21 atom-21 atom-22" d="M 186.9,92.0 L 188.7,100.7" style="fill:none;fill-rule:evenodd;stroke:#000000;stroke-width:2.0px;stroke-linecap:butt;stroke-linejoin:miter;stroke-opacity:1"/>
<path class="bond-22 atom-22 atom-23" d="M 188.7,100.7 L 172.6,115.2" style="fill:none;fill-rule:evenodd;stroke:#000000;stroke-width:2.0px;stroke-linecap:butt;stroke-linejoin:miter;stroke-opacity:1"/>
<path class="bond-22 atom-22 atom-23" d="M 189.2,106.1 L 177.9,116.3" style="fill:none;fill-rule:evenodd;stroke:#000000;stroke-width:2.0px;stroke-linecap:butt;stroke-linejoin:miter;stroke-opacity:1"/>
<path class="bond-23 atom-23 atom-24" d="M 172.6,115.2 L 177.1,136.4" style="fill:none;fill-rule:evenodd;stroke:#000000;stroke-width:2.0px;stroke-linecap:butt;stroke-linejoin:miter;stroke-opacity:1"/>
<path class="bond-24 atom-24 atom-25" d="M 177.1,136.4 L 197.7,143.1" style="fill:none;fill-rule:evenodd;stroke:#000000;stroke-width:2.0px;stroke-linecap:butt;stroke-linejoin:miter;stroke-opacity:1"/>
<path class="bond-24 atom-24 atom-25" d="M 181.5,133.3 L 196.0,138.0" style="fill:none;fill-rule:evenodd;stroke:#000000;stroke-width:2.0px;stroke-linecap:butt;stroke-linejoin:miter;stroke-opacity:1"/>
<path class="bond-25 atom-25 atom-26" d="M 197.7,143.1 L 213.8,128.6" style="fill:none;fill-rule:evenodd;stroke:#000000;stroke-width:2.0px;stroke-linecap:butt;stroke-linejoin:miter;stroke-opacity:1"/>
<path class="bond-26 atom-26 atom-27" d="M 213.8,128.6 L 209.3,107.4" style="fill:none;fill-rule:evenodd;stroke:#000000;stroke-width:2.0px;stroke-linecap:butt;stroke-linejoin:miter;stroke-opacity:1"/>
<path class="bond-26 atom-26 atom-27" d="M 208.9,126.4 L 205.8,111.5" style="fill:none;fill-rule:evenodd;stroke:#000000;stroke-width:2.0px;stroke-linecap:butt;stroke-linejoin:miter;stroke-opacity:1"/>
<path class="bond-27 atom-21 atom-28" d="M 187.2,76.2 L 193.0,69.8" style="fill:none;fill-rule:evenodd;stroke:#0000FF;stroke-width:2.0px;stroke-linecap:butt;stroke-linejoin:miter;stroke-opacity:1"/>
<path class="bond-27 atom-21 atom-28" d="M 193.0,69.8 L 198.7,63.4" style="fill:none;fill-rule:evenodd;stroke:#000000;stroke-width:2.0px;stroke-linecap:butt;stroke-linejoin:miter;stroke-opacity:1"/>
<path class="bond-28 atom-28 atom-29" d="M 198.7,63.4 L 220.4,63.5" style="fill:none;fill-rule:evenodd;stroke:#000000;stroke-width:2.0px;stroke-linecap:butt;stroke-linejoin:miter;stroke-opacity:1"/>
<path class="bond-28 atom-28 atom-29" d="M 202.0,59.1 L 217.1,59.1" style="fill:none;fill-rule:evenodd;stroke:#000000;stroke-width:2.0px;stroke-linecap:butt;stroke-linejoin:miter;stroke-opacity:1"/>
<path class="bond-29 atom-29 atom-30" d="M 220.4,63.5 L 231.2,44.7" style="fill:none;fill-rule:evenodd;stroke:#000000;stroke-width:2.0px;stroke-linecap:butt;stroke-linejoin:miter;stroke-opacity:1"/>
<path class="bond-30 atom-30 atom-31" d="M 231.2,44.7 L 240.3,44.7" style="fill:none;fill-rule:evenodd;stroke:#000000;stroke-width:2.0px;stroke-linecap:butt;stroke-linejoin:miter;stroke-opacity:1"/>
<path class="bond-30 atom-30 atom-31" d="M 240.3,44.7 L 249.4,44.7" style="fill:none;fill-rule:evenodd;stroke:#FF0000;stroke-width:2.0px;stroke-linecap:butt;stroke-linejoin:miter;stroke-opacity:1"/>
<path class="bond-31 atom-30 atom-32" d="M 231.2,44.7 L 220.4,25.9" style="fill:none;fill-rule:evenodd;stroke:#000000;stroke-width:2.0px;stroke-linecap:butt;stroke-linejoin:miter;stroke-opacity:1"/>
<path class="bond-31 atom-30 atom-32" d="M 225.8,44.0 L 218.3,30.9" style="fill:none;fill-rule:evenodd;stroke:#000000;stroke-width:2.0px;stroke-linecap:butt;stroke-linejoin:miter;stroke-opacity:1"/>
<path class="bond-32 atom-32 atom-33" d="M 220.4,25.9 L 198.7,25.9" style="fill:none;fill-rule:evenodd;stroke:#000000;stroke-width:2.0px;stroke-linecap:butt;stroke-linejoin:miter;stroke-opacity:1"/>
<path class="bond-33 atom-33 atom-34" d="M 198.7,25.9 L 187.9,44.7" style="fill:none;fill-rule:evenodd;stroke:#000000;stroke-width:2.0px;stroke-linecap:butt;stroke-linejoin:miter;stroke-opacity:1"/>
<path class="bond-33 atom-33 atom-34" d="M 200.8,30.9 L 193.3,44.0" style="fill:none;fill-rule:evenodd;stroke:#000000;stroke-width:2.0px;stroke-linecap:butt;stroke-linejoin:miter;stroke-opacity:1"/>
<path class="bond-34 atom-7 atom-35" d="M 129.2,45.1 L 127.3,53.9" style="fill:none;fill-rule:evenodd;stroke:#0000FF;stroke-width:2.0px;stroke-linecap:butt;stroke-linejoin:miter;stroke-opacity:1"/>
<path class="bond-34 atom-7 atom-35" d="M 127.3,53.9 L 125.5,62.6" style="fill:none;fill-rule:evenodd;stroke:#000000;stroke-width:2.0px;stroke-linecap:butt;stroke-linejoin:miter;stroke-opacity:1"/>
<path class="bond-35 atom-35 atom-36" d="M 125.5,62.6 L 104.8,69.2" style="fill:none;fill-rule:evenodd;stroke:#000000;stroke-width:2.0px;stroke-linecap:butt;stroke-linejoin:miter;stroke-opacity:1"/>
<path class="bond-36 atom-36 atom-4" d="M 104.8,69.2 L 98.3,63.4" style="fill:none;fill-rule:evenodd;stroke:#000000;stroke-width:2.0px;stroke-linecap:butt;stroke-linejoin:miter;stroke-opacity:1"/>
<path class="bond-36 atom-36 atom-4" d="M 98.3,63.4 L 91.8,57.5" style="fill:none;fill-rule:evenodd;stroke:#0000FF;stroke-width:2.0px;stroke-linecap:butt;stroke-linejoin:miter;stroke-opacity:1"/>
<path class="bond-37 atom-34 atom-10" d="M 187.9,44.7 L 166.7,49.2" style="fill:none;fill-rule:evenodd;stroke:#000000;stroke-width:2.0px;stroke-linecap:butt;stroke-linejoin:miter;stroke-opacity:1"/>
<path class="bond-38 atom-19 atom-13" d="M 126.9,114.1 L 145.6,103.2" style="fill:none;fill-rule:evenodd;stroke:#000000;stroke-width:2.0px;stroke-linecap:butt;stroke-linejoin:miter;stroke-opacity:1"/>
<path class="bond-39 atom-27 atom-22" d="M 209.3,107.4 L 188.7,100.7" style="fill:none;fill-rule:evenodd;stroke:#000000;stroke-width:2.0px;stroke-linecap:butt;stroke-linejoin:miter;stroke-opacity:1"/>
<path class="bond-40 atom-34 atom-28" d="M 187.9,44.7 L 198.7,63.4" style="fill:none;fill-rule:evenodd;stroke:#000000;stroke-width:2.0px;stroke-linecap:butt;stroke-linejoin:miter;stroke-opacity:1"/>
<path class="atom-3" d="M 41.6 86.3 L 43.7 89.5 Q 43.9 89.8, 44.2 90.4 Q 44.5 91.0, 44.5 91.0 L 44.5 86.3 L 45.3 86.3 L 45.3 92.4 L 44.5 92.4 L 42.3 88.8 Q 42.1 88.4, 41.8 87.9 Q 41.6 87.5, 41.5 87.3 L 41.5 92.4 L 40.7 92.4 L 40.7 86.3 L 41.6 86.3 " fill="#0000FF"/>
<path class="atom-4" d="M 87.4 51.7 L 89.4 54.9 Q 89.6 55.2, 89.9 55.8 Q 90.2 56.4, 90.3 56.4 L 90.3 51.7 L 91.1 51.7 L 91.1 57.8 L 90.2 57.8 L 88.1 54.3 Q 87.8 53.8, 87.5 53.4 Q 87.3 52.9, 87.2 52.7 L 87.2 57.8 L 86.4 57.8 L 86.4 51.7 L 87.4 51.7 " fill="#0000FF"/>
<path class="atom-7" d="M 128.6 38.3 L 130.6 41.5 Q 130.8 41.9, 131.1 42.4 Q 131.5 43.0, 131.5 43.1 L 131.5 38.3 L 132.3 38.3 L 132.3 44.4 L 131.5 44.4 L 129.3 40.9 Q 129.0 40.5, 128.8 40.0 Q 128.5 39.5, 128.4 39.4 L 128.4 44.4 L 127.6 44.4 L 127.6 38.3 L 128.6 38.3 " fill="#0000FF"/>
<path class="atom-9" d="M 152.3 13.5 Q 152.3 12.0, 153.0 11.2 Q 153.7 10.4, 155.1 10.4 Q 156.5 10.4, 157.2 11.2 Q 157.9 12.0, 157.9 13.5 Q 157.9 15.0, 157.2 15.8 Q 156.4 16.7, 155.1 16.7 Q 153.7 16.7, 153.0 15.8 Q 152.3 15.0, 152.3 13.5 M 155.1 16.0 Q 156.0 16.0, 156.5 15.4 Q 157.0 14.7, 157.0 13.5 Q 157.0 12.3, 156.5 11.7 Q 156.0 11.1, 155.1 11.1 Q 154.2 11.1, 153.6 11.7 Q 153.1 12.3, 153.1 13.5 Q 153.1 14.7, 153.6 15.4 Q 154.2 16.0, 155.1 16.0 " fill="#FF0000"/>
<path class="atom-18" d="M 106.3 143.5 L 109.9 143.5 L 109.9 144.2 L 107.1 144.2 L 107.1 146.1 L 109.6 146.1 L 109.6 146.8 L 107.1 146.8 L 107.1 149.6 L 106.3 149.6 L 106.3 143.5 " fill="#33CCCC"/>
<path class="atom-21" d="M 182.8 76.5 L 184.9 79.7 Q 185.1 80.0, 185.4 80.6 Q 185.7 81.2, 185.7 81.2 L 185.7 76.5 L 186.5 76.5 L 186.5 82.6 L 185.7 82.6 L 183.5 79.1 Q 183.3 78.6, 183.0 78.2 Q 182.8 77.7, 182.7 77.5 L 182.7 82.6 L 181.9 82.6 L 181.9 76.5 L 182.8 76.5 " fill="#0000FF"/>
<path class="atom-31" d="M 250.1 44.7 Q 250.1 43.2, 250.8 42.4 Q 251.5 41.6, 252.9 41.6 Q 254.3 41.6, 255.0 42.4 Q 255.7 43.2, 255.7 44.7 Q 255.7 46.2, 255.0 47.0 Q 254.2 47.9, 252.9 47.9 Q 251.5 47.9, 250.8 47.0 Q 250.1 46.2, 250.1 44.7 M 252.9 47.2 Q 253.8 47.2, 254.3 46.6 Q 254.8 45.9, 254.8 44.7 Q 254.8 43.5, 254.3 42.9 Q 253.8 42.3, 252.9 42.3 Q 252.0 42.3, 251.4 42.9 Q 250.9 43.5, 250.9 44.7 Q 250.9 45.9, 251.4 46.6 Q 252.0 47.2, 252.9 47.2 " fill="#FF0000"/>
<path class="atom-31" d="M 256.1 41.7 L 257.0 41.7 L 257.0 44.3 L 260.1 44.3 L 260.1 41.7 L 260.9 41.7 L 260.9 47.8 L 260.1 47.8 L 260.1 45.0 L 257.0 45.0 L 257.0 47.8 L 256.1 47.8 L 256.1 41.7 " fill="#FF0000"/>
<path class="atom-0" d="M 49.9,44.8 L 49.9,44.8 L 49.9,44.8 L 49.8,44.9 L 49.8,44.9 L 49.8,44.9 L 49.8,45.0 L 49.8,45.0 L 49.8,45.0 L 49.7,45.1 L 49.7,45.1 L 49.7,45.1 L 49.6,45.1 L 49.6,45.2 L 49.6,45.2 L 49.5,45.2 L 49.5,45.2 L 49.5,45.2 L 49.4,45.2 L 49.4,45.2 L 49.4,45.2 L 49.3,45.2 L 49.3,45.2 L 49.3,45.2 L 49.2,45.1 L 49.2,45.1 L 49.2,45.1 L 49.1,45.1 L 49.1,45.1 L 49.1,45.0 L 49.1,45.0 L 49.0,45.0 L 49.0,44.9 L 49.0,44.9 L 49.0,44.9 L 49.0,44.8 L 49.0,44.8 L 49.0,44.7 L 49.0,44.7 L 49.0,44.7 L 49.0,44.6 L 49.0,44.6 L 49.0,44.6 L 49.1,44.5 L 49.1,44.5 L 49.1,44.5 L 49.1,44.4 L 49.2,44.4 L 49.2,44.4 L 49.2,44.4 L 49.3,44.4 L 49.3,44.4 L 49.3,44.3 L 49.4,44.3 L 49.4,44.3 L 49.4,44.3 L 49.5,44.3 L 49.5,44.3 L 49.5,44.3 L 49.6,44.4 L 49.6,44.4 L 49.6,44.4 L 49.7,44.4 L 49.7,44.4 L 49.7,44.5 L 49.8,44.5 L 49.8,44.5 L 49.8,44.5 L 49.8,44.6 L 49.8,44.6 L 49.8,44.7 L 49.9,44.7 L 49.9,44.7 L 49.9,44.8 L 49.4,44.8 Z" style="fill:#000000;fill-rule:evenodd;fill-opacity:1;stroke:#000000;stroke-width:0.0px;stroke-linecap:butt;stroke-linejoin:miter;stroke-opacity:1;"/>
<path class="atom-0" d="M 49.9,49.1 L 49.9,49.1 L 49.9,49.2 L 49.8,49.2 L 49.8,49.2 L 49.8,49.3 L 49.8,49.3 L 49.8,49.3 L 49.8,49.4 L 49.7,49.4 L 49.7,49.4 L 49.7,49.4 L 49.6,49.5 L 49.6,49.5 L 49.6,49.5 L 49.5,49.5 L 49.5,49.5 L 49.5,49.5 L 49.4,49.5 L 49.4,49.5 L 49.4,49.5 L 49.3,49.5 L 49.3,49.5 L 49.3,49.5 L 49.2,49.5 L 49.2,49.5 L 49.2,49.4 L 49.1,49.4 L 49.1,49.4 L 49.1,49.4 L 49.1,49.3 L 49.0,49.3 L 49.0,49.3 L 49.0,49.2 L 49.0,49.2 L 49.0,49.2 L 49.0,49.1 L 49.0,49.1 L 49.0,49.0 L 49.0,49.0 L 49.0,49.0 L 49.0,48.9 L 49.0,48.9 L 49.1,48.9 L 49.1,48.8 L 49.1,48.8 L 49.1,48.8 L 49.2,48.8 L 49.2,48.7 L 49.2,48.7 L 49.3,48.7 L 49.3,48.7 L 49.3,48.7 L 49.4,48.7 L 49.4,48.7 L 49.4,48.7 L 49.5,48.7 L 49.5,48.7 L 49.5,48.7 L 49.6,48.7 L 49.6,48.7 L 49.6,48.7 L 49.7,48.7 L 49.7,48.8 L 49.7,48.8 L 49.8,48.8 L 49.8,48.9 L 49.8,48.9 L 49.8,48.9 L 49.8,49.0 L 49.8,49.0 L 49.9,49.0 L 49.9,49.1 L 49.9,49.1 L 49.4,49.1 Z" style="fill:#000000;fill-rule:evenodd;fill-opacity:1;stroke:#000000;stroke-width:0.0px;stroke-linecap:butt;stroke-linejoin:miter;stroke-opacity:1;"/>
<path class="atom-0" d="M 49.9,46.9 L 49.9,47.0 L 49.9,47.0 L 49.8,47.0 L 49.8,47.1 L 49.8,47.1 L 49.8,47.1 L 49.8,47.2 L 49.8,47.2 L 49.7,47.2 L 49.7,47.3 L 49.7,47.3 L 49.6,47.3 L 49.6,47.3 L 49.6,47.3 L 49.5,47.3 L 49.5,47.4 L 49.5,47.4 L 49.4,47.4 L 49.4,47.4 L 49.4,47.4 L 49.3,47.4 L 49.3,47.3 L 49.3,47.3 L 49.2,47.3 L 49.2,47.3 L 49.2,47.3 L 49.1,47.2 L 49.1,47.2 L 49.1,47.2 L 49.1,47.2 L 49.0,47.1 L 49.0,47.1 L 49.0,47.1 L 49.0,47.0 L 49.0,47.0 L 49.0,46.9 L 49.0,46.9 L 49.0,46.9 L 49.0,46.8 L 49.0,46.8 L 49.0,46.8 L 49.0,46.7 L 49.1,46.7 L 49.1,46.7 L 49.1,46.6 L 49.1,46.6 L 49.2,46.6 L 49.2,46.6 L 49.2,46.5 L 49.3,46.5 L 49.3,46.5 L 49.3,46.5 L 49.4,46.5 L 49.4,46.5 L 49.4,46.5 L 49.5,46.5 L 49.5,46.5 L 49.5,46.5 L 49.6,46.5 L 49.6,46.5 L 49.6,46.6 L 49.7,46.6 L 49.7,46.6 L 49.7,46.6 L 49.8,46.7 L 49.8,46.7 L 49.8,46.7 L 49.8,46.7 L 49.8,46.8 L 49.8,46.8 L 49.9,46.9 L 49.9,46.9 L 49.9,46.9 L 49.4,46.9 Z" style="fill:#000000;fill-rule:evenodd;fill-opacity:1;stroke:#000000;stroke-width:0.0px;stroke-linecap:butt;stroke-linejoin:miter;stroke-opacity:1;"/>
<path class="atom-1" d="M 71.2,61.4 L 71.2,61.5 L 71.2,61.5 L 71.1,61.5 L 71.1,61.6 L 71.1,61.6 L 71.1,61.6 L 71.1,61.7 L 71.1,61.7 L 71.0,61.7 L 71.0,61.8 L 71.0,61.8 L 71.0,61.8 L 70.9,61.8 L 70.9,61.8 L 70.8,61.9 L 70.8,61.9 L 70.8,61.9 L 70.7,61.9 L 70.7,61.9 L 70.7,61.9 L 70.6,61.9 L 70.6,61.8 L 70.6,61.8 L 70.5,61.8 L 70.5,61.8 L 70.5,61.8 L 70.4,61.8 L 70.4,61.7 L 70.4,61.7 L 70.4,61.7 L 70.3,61.6 L 70.3,61.6 L 70.3,61.6 L 70.3,61.5 L 70.3,61.5 L 70.3,61.5 L 70.3,61.4 L 70.3,61.4 L 70.3,61.3 L 70.3,61.3 L 70.3,61.3 L 70.3,61.2 L 70.4,61.2 L 70.4,61.2 L 70.4,61.1 L 70.4,61.1 L 70.5,61.1 L 70.5,61.1 L 70.5,61.1 L 70.6,61.0 L 70.6,61.0 L 70.6,61.0 L 70.7,61.0 L 70.7,61.0 L 70.7,61.0 L 70.8,61.0 L 70.8,61.0 L 70.8,61.0 L 70.9,61.0 L 70.9,61.0 L 71.0,61.1 L 71.0,61.1 L 71.0,61.1 L 71.0,61.1 L 71.1,61.2 L 71.1,61.2 L 71.1,61.2 L 71.1,61.3 L 71.1,61.3 L 71.1,61.3 L 71.2,61.4 L 71.2,61.4 L 71.2,61.4 L 70.7,61.4 Z" style="fill:#000000;fill-rule:evenodd;fill-opacity:1;stroke:#000000;stroke-width:0.0px;stroke-linecap:butt;stroke-linejoin:miter;stroke-opacity:1;"/>
<path class="atom-3" d="M 39.8,90.2 L 39.8,90.2 L 39.8,90.3 L 39.8,90.3 L 39.8,90.3 L 39.8,90.4 L 39.8,90.4 L 39.7,90.4 L 39.7,90.5 L 39.7,90.5 L 39.7,90.5 L 39.6,90.5 L 39.6,90.6 L 39.6,90.6 L 39.5,90.6 L 39.5,90.6 L 39.5,90.6 L 39.4,90.6 L 39.4,90.6 L 39.3,90.6 L 39.3,90.6 L 39.3,90.6 L 39.2,90.6 L 39.2,90.6 L 39.2,90.6 L 39.1,90.6 L 39.1,90.5 L 39.1,90.5 L 39.1,90.5 L 39.0,90.5 L 39.0,90.4 L 39.0,90.4 L 39.0,90.4 L 39.0,90.3 L 39.0,90.3 L 38.9,90.2 L 38.9,90.2 L 38.9,90.2 L 38.9,90.1 L 39.0,90.1 L 39.0,90.1 L 39.0,90.0 L 39.0,90.0 L 39.0,90.0 L 39.0,89.9 L 39.1,89.9 L 39.1,89.9 L 39.1,89.9 L 39.1,89.8 L 39.2,89.8 L 39.2,89.8 L 39.2,89.8 L 39.3,89.8 L 39.3,89.8 L 39.3,89.8 L 39.4,89.8 L 39.4,89.8 L 39.5,89.8 L 39.5,89.8 L 39.5,89.8 L 39.6,89.8 L 39.6,89.8 L 39.6,89.8 L 39.7,89.9 L 39.7,89.9 L 39.7,89.9 L 39.7,89.9 L 39.8,90.0 L 39.8,90.0 L 39.8,90.0 L 39.8,90.1 L 39.8,90.1 L 39.8,90.2 L 39.8,90.2 L 39.4,90.2 Z" style="fill:#000000;fill-rule:evenodd;fill-opacity:1;stroke:#000000;stroke-width:0.0px;stroke-linecap:butt;stroke-linejoin:miter;stroke-opacity:1;"/>
<path class="atom-3" d="M 39.8,88.5 L 39.8,88.5 L 39.8,88.5 L 39.8,88.6 L 39.8,88.6 L 39.8,88.6 L 39.8,88.7 L 39.7,88.7 L 39.7,88.7 L 39.7,88.8 L 39.7,88.8 L 39.6,88.8 L 39.6,88.8 L 39.6,88.8 L 39.5,88.9 L 39.5,88.9 L 39.5,88.9 L 39.4,88.9 L 39.4,88.9 L 39.3,88.9 L 39.3,88.9 L 39.3,88.9 L 39.2,88.9 L 39.2,88.9 L 39.2,88.8 L 39.1,88.8 L 39.1,88.8 L 39.1,88.8 L 39.1,88.7 L 39.0,88.7 L 39.0,88.7 L 39.0,88.7 L 39.0,88.6 L 39.0,88.6 L 39.0,88.5 L 38.9,88.5 L 38.9,88.5 L 38.9,88.4 L 38.9,88.4 L 39.0,88.4 L 39.0,88.3 L 39.0,88.3 L 39.0,88.3 L 39.0,88.2 L 39.0,88.2 L 39.1,88.2 L 39.1,88.1 L 39.1,88.1 L 39.1,88.1 L 39.2,88.1 L 39.2,88.1 L 39.2,88.0 L 39.3,88.0 L 39.3,88.0 L 39.3,88.0 L 39.4,88.0 L 39.4,88.0 L 39.5,88.0 L 39.5,88.0 L 39.5,88.1 L 39.6,88.1 L 39.6,88.1 L 39.6,88.1 L 39.7,88.1 L 39.7,88.2 L 39.7,88.2 L 39.7,88.2 L 39.8,88.2 L 39.8,88.3 L 39.8,88.3 L 39.8,88.3 L 39.8,88.4 L 39.8,88.4 L 39.8,88.5 L 39.4,88.5 Z" style="fill:#000000;fill-rule:evenodd;fill-opacity:1;stroke:#000000;stroke-width:0.0px;stroke-linecap:butt;stroke-linejoin:miter;stroke-opacity:1;"/>
<path class="bond-0 atom-0 atom-1" d="M 330.0,60.2 L 345.6,69.9" style="fill:none;fill-rule:evenodd;stroke:#000000;stroke-width:2.0px;stroke-linecap:butt;stroke-linejoin:miter;stroke-opacity:1"/>
<path class="bond-1 atom-1 atom-2" d="M 351.2,70.2 L 357.8,66.6" style="fill:none;fill-rule:evenodd;stroke:#000000;stroke-width:2.0px;stroke-linecap:butt;stroke-linejoin:miter;stroke-opacity:1"/>
<path class="bond-1 atom-1 atom-2" d="M 357.8,66.6 L 364.5,63.1" style="fill:none;fill-rule:evenodd;stroke:#0000FF;stroke-width:2.0px;stroke-linecap:butt;stroke-linejoin:miter;stroke-opacity:1"/>
<path class="bond-2 atom-2 atom-3" d="M 370.6,63.3 L 382.9,71.0" style="fill:none;fill-rule:evenodd;stroke:#0000FF;stroke-width:2.0px;stroke-linecap:butt;stroke-linejoin:miter;stroke-opacity:1"/>
<path class="bond-2 atom-2 atom-3" d="M 370.1,68.2 L 378.7,73.5" style="fill:none;fill-rule:evenodd;stroke:#0000FF;stroke-width:2.0px;stroke-linecap:butt;stroke-linejoin:miter;stroke-opacity:1"/>
<path class="bond-3 atom-3 atom-4" d="M 389.0,71.3 L 402.0,64.3" style="fill:none;fill-rule:evenodd;stroke:#0000FF;stroke-width:2.0px;stroke-linecap:butt;stroke-linejoin:miter;stroke-opacity:1"/>
<path class="bond-4 atom-4 atom-5" d="M 405.2,58.9 L 405.5,49.9" style="fill:none;fill-rule:evenodd;stroke:#0000FF;stroke-width:2.0px;stroke-linecap:butt;stroke-linejoin:miter;stroke-opacity:1"/>
<path class="bond-4 atom-4 atom-5" d="M 405.5,49.9 L 405.8,41.0" style="fill:none;fill-rule:evenodd;stroke:#000000;stroke-width:2.0px;stroke-linecap:butt;stroke-linejoin:miter;stroke-opacity:1"/>
<path class="bond-5 atom-5 atom-6" d="M 405.8,41.0 L 424.9,30.8" style="fill:none;fill-rule:evenodd;stroke:#000000;stroke-width:2.0px;stroke-linecap:butt;stroke-linejoin:miter;stroke-opacity:1"/>
<path class="bond-6 atom-6 atom-7" d="M 424.9,30.8 L 432.5,35.6" style="fill:none;fill-rule:evenodd;stroke:#000000;stroke-width:2.0px;stroke-linecap:butt;stroke-linejoin:miter;stroke-opacity:1"/>
<path class="bond-6 atom-6 atom-7" d="M 432.5,35.6 L 440.2,40.4" style="fill:none;fill-rule:evenodd;stroke:#0000FF;stroke-width:2.0px;stroke-linecap:butt;stroke-linejoin:miter;stroke-opacity:1"/>
<path class="bond-7 atom-7 atom-8" d="M 446.3,40.6 L 454.3,36.3" style="fill:none;fill-rule:evenodd;stroke:#0000FF;stroke-width:2.0px;stroke-linecap:butt;stroke-linejoin:miter;stroke-opacity:1"/>
<path class="bond-7 atom-7 atom-8" d="M 454.3,36.3 L 462.4,32.0" style="fill:none;fill-rule:evenodd;stroke:#000000;stroke-width:2.0px;stroke-linecap:butt;stroke-linejoin:miter;stroke-opacity:1"/>
<path class="bond-8 atom-8 atom-9" d="M 460.2,32.0 L 460.5,23.1" style="fill:none;fill-rule:evenodd;stroke:#000000;stroke-width:2.0px;stroke-linecap:butt;stroke-linejoin:miter;stroke-opacity:1"/>
<path class="bond-8 atom-8 atom-9" d="M 460.5,23.1 L 460.8,14.2" style="fill:none;fill-rule:evenodd;stroke:#FF0000;stroke-width:2.0px;stroke-linecap:butt;stroke-linejoin:miter;stroke-opacity:1"/>
<path class="bond-8 atom-8 atom-9" d="M 464.5,32.1 L 464.8,23.2" style="fill:none;fill-rule:evenodd;stroke:#000000;stroke-width:2.0px;stroke-linecap:butt;stroke-linejoin:miter;stroke-opacity:1"/>
<path class="bond-8 atom-8 atom-9" d="M 464.8,23.2 L 465.1,14.4" style="fill:none;fill-rule:evenodd;stroke:#FF0000;stroke-width:2.0px;stroke-linecap:butt;stroke-linejoin:miter;stroke-opacity:1"/>
<path class="bond-9 atom-8 atom-10" d="M 462.4,32.0 L 480.8,43.5" style="fill:none;fill-rule:evenodd;stroke:#000000;stroke-width:2.0px;stroke-linecap:butt;stroke-linejoin:miter;stroke-opacity:1"/>
<path class="bond-10 atom-10 atom-11" d="M 480.8,43.5 L 482.3,65.1" style="fill:none;fill-rule:evenodd;stroke:#000000;stroke-width:2.0px;stroke-linecap:butt;stroke-linejoin:miter;stroke-opacity:1"/>
<path class="bond-10 atom-10 atom-11" d="M 485.3,46.4 L 486.4,61.5" style="fill:none;fill-rule:evenodd;stroke:#000000;stroke-width:2.0px;stroke-linecap:butt;stroke-linejoin:miter;stroke-opacity:1"/>
<path class="bond-11 atom-11 atom-12" d="M 482.3,65.1 L 465.8,79.1" style="fill:none;fill-rule:evenodd;stroke:#000000;stroke-width:2.0px;stroke-linecap:butt;stroke-linejoin:miter;stroke-opacity:1"/>
<path class="bond-12 atom-12 atom-13" d="M 465.8,79.1 L 469.6,100.4" style="fill:none;fill-rule:evenodd;stroke:#000000;stroke-width:2.0px;stroke-linecap:butt;stroke-linejoin:miter;stroke-opacity:1"/>
<path class="bond-13 atom-13 atom-14" d="M 469.6,100.4 L 489.9,107.8" style="fill:none;fill-rule:evenodd;stroke:#000000;stroke-width:2.0px;stroke-linecap:butt;stroke-linejoin:miter;stroke-opacity:1"/>
<path class="bond-13 atom-13 atom-14" d="M 471.2,105.6 L 485.4,110.7" style="fill:none;fill-rule:evenodd;stroke:#000000;stroke-width:2.0px;stroke-linecap:butt;stroke-linejoin:miter;stroke-opacity:1"/>
<path class="bond-14 atom-14 atom-15" d="M 489.9,107.8 L 493.8,129.1" style="fill:none;fill-rule:evenodd;stroke:#000000;stroke-width:2.0px;stroke-linecap:butt;stroke-linejoin:miter;stroke-opacity:1"/>
<path class="bond-15 atom-15 atom-16" d="M 493.8,129.1 L 477.2,143.1" style="fill:none;fill-rule:evenodd;stroke:#000000;stroke-width:2.0px;stroke-linecap:butt;stroke-linejoin:miter;stroke-opacity:1"/>
<path class="bond-15 atom-15 atom-16" d="M 488.5,127.9 L 476.9,137.7" style="fill:none;fill-rule:evenodd;stroke:#000000;stroke-width:2.0px;stroke-linecap:butt;stroke-linejoin:miter;stroke-opacity:1"/>
<path class="bond-16 atom-16 atom-17" d="M 477.2,143.1 L 456.8,135.7" style="fill:none;fill-rule:evenodd;stroke:#000000;stroke-width:2.0px;stroke-linecap:butt;stroke-linejoin:miter;stroke-opacity:1"/>
<path class="bond-17 atom-17 atom-18" d="M 456.8,135.7 L 449.8,141.6" style="fill:none;fill-rule:evenodd;stroke:#000000;stroke-width:2.0px;stroke-linecap:butt;stroke-linejoin:miter;stroke-opacity:1"/>
<path class="bond-17 atom-17 atom-18" d="M 449.8,141.6 L 442.8,147.5" style="fill:none;fill-rule:evenodd;stroke:#33CCCC;stroke-width:2.0px;stroke-linecap:butt;stroke-linejoin:miter;stroke-opacity:1"/>
<path class="bond-18 atom-17 atom-19" d="M 456.8,135.7 L 453.0,114.4" style="fill:none;fill-rule:evenodd;stroke:#000000;stroke-width:2.0px;stroke-linecap:butt;stroke-linejoin:miter;stroke-opacity:1"/>
<path class="bond-18 atom-17 atom-19" d="M 460.5,131.7 L 457.8,116.8" style="fill:none;fill-rule:evenodd;stroke:#000000;stroke-width:2.0px;stroke-linecap:butt;stroke-linejoin:miter;stroke-opacity:1"/>
<path class="bond-19 atom-19 atom-20" d="M 453.0,114.4 L 432.6,107.0" style="fill:none;fill-rule:evenodd;stroke:#000000;stroke-width:2.0px;stroke-linecap:butt;stroke-linejoin:miter;stroke-opacity:1"/>
<path class="bond-20 atom-11 atom-21" d="M 482.3,65.1 L 491.3,67.3" style="fill:none;fill-rule:evenodd;stroke:#000000;stroke-width:2.0px;stroke-linecap:butt;stroke-linejoin:miter;stroke-opacity:1"/>
<path class="bond-20 atom-11 atom-21" d="M 491.3,67.3 L 500.3,69.5" style="fill:none;fill-rule:evenodd;stroke:#0000FF;stroke-width:2.0px;stroke-linecap:butt;stroke-linejoin:miter;stroke-opacity:1"/>
<path class="bond-21 atom-21 atom-22" d="M 504.9,74.1 L 508.2,82.2" style="fill:none;fill-rule:evenodd;stroke:#0000FF;stroke-width:2.0px;stroke-linecap:butt;stroke-linejoin:miter;stroke-opacity:1"/>
<path class="bond-21 atom-21 atom-22" d="M 508.2,82.2 L 511.5,90.4" style="fill:none;fill-rule:evenodd;stroke:#000000;stroke-width:2.0px;stroke-linecap:butt;stroke-linejoin:miter;stroke-opacity:1"/>
<path class="bond-22 atom-22 atom-23" d="M 511.5,90.4 L 498.2,107.5" style="fill:none;fill-rule:evenodd;stroke:#000000;stroke-width:2.0px;stroke-linecap:butt;stroke-linejoin:miter;stroke-opacity:1"/>
<path class="bond-22 atom-22 atom-23" d="M 513.0,95.6 L 503.6,107.6" style="fill:none;fill-rule:evenodd;stroke:#000000;stroke-width:2.0px;stroke-linecap:butt;stroke-linejoin:miter;stroke-opacity:1"/>
<path class="bond-23 atom-23 atom-24" d="M 498.2,107.5 L 506.4,127.6" style="fill:none;fill-rule:evenodd;stroke:#000000;stroke-width:2.0px;stroke-linecap:butt;stroke-linejoin:miter;stroke-opacity:1"/>
<path class="bond-24 atom-24 atom-25" d="M 506.4,127.6 L 527.8,130.5" style="fill:none;fill-rule:evenodd;stroke:#000000;stroke-width:2.0px;stroke-linecap:butt;stroke-linejoin:miter;stroke-opacity:1"/>
<path class="bond-24 atom-24 atom-25" d="M 510.2,123.7 L 525.2,125.8" style="fill:none;fill-rule:evenodd;stroke:#000000;stroke-width:2.0px;stroke-linecap:butt;stroke-linejoin:miter;stroke-opacity:1"/>
<path class="bond-25 atom-25 atom-26" d="M 527.8,130.5 L 541.2,113.4" style="fill:none;fill-rule:evenodd;stroke:#000000;stroke-width:2.0px;stroke-linecap:butt;stroke-linejoin:miter;stroke-opacity:1"/>
<path class="bond-26 atom-26 atom-27" d="M 541.2,113.4 L 533.0,93.4" style="fill:none;fill-rule:evenodd;stroke:#000000;stroke-width:2.0px;stroke-linecap:butt;stroke-linejoin:miter;stroke-opacity:1"/>
<path class="bond-26 atom-26 atom-27" d="M 535.9,112.1 L 530.2,98.0" style="fill:none;fill-rule:evenodd;stroke:#000000;stroke-width:2.0px;stroke-linecap:butt;stroke-linejoin:miter;stroke-opacity:1"/>
<path class="bond-27 atom-21 atom-28" d="M 505.7,66.5 L 510.3,59.2" style="fill:none;fill-rule:evenodd;stroke:#0000FF;stroke-width:2.0px;stroke-linecap:butt;stroke-linejoin:miter;stroke-opacity:1"/>
<path class="bond-27 atom-21 atom-28" d="M 510.3,59.2 L 514.8,51.9" style="fill:none;fill-rule:evenodd;stroke:#000000;stroke-width:2.0px;stroke-linecap:butt;stroke-linejoin:miter;stroke-opacity:1"/>
<path class="bond-28 atom-28 atom-29" d="M 514.8,51.9 L 536.2,48.1" style="fill:none;fill-rule:evenodd;stroke:#000000;stroke-width:2.0px;stroke-linecap:butt;stroke-linejoin:miter;stroke-opacity:1"/>
<path class="bond-28 atom-28 atom-29" d="M 517.3,47.1 L 532.2,44.4" style="fill:none;fill-rule:evenodd;stroke:#000000;stroke-width:2.0px;stroke-linecap:butt;stroke-linejoin:miter;stroke-opacity:1"/>
<path class="bond-29 atom-29 atom-30" d="M 536.2,48.1 L 543.5,27.7" style="fill:none;fill-rule:evenodd;stroke:#000000;stroke-width:2.0px;stroke-linecap:butt;stroke-linejoin:miter;stroke-opacity:1"/>
<path class="bond-30 atom-30 atom-31" d="M 543.5,27.7 L 552.4,26.1" style="fill:none;fill-rule:evenodd;stroke:#000000;stroke-width:2.0px;stroke-linecap:butt;stroke-linejoin:miter;stroke-opacity:1"/>
<path class="bond-30 atom-30 atom-31" d="M 552.4,26.1 L 561.3,24.5" style="fill:none;fill-rule:evenodd;stroke:#FF0000;stroke-width:2.0px;stroke-linecap:butt;stroke-linejoin:miter;stroke-opacity:1"/>
<path class="bond-31 atom-30 atom-32" d="M 543.5,27.7 L 529.6,11.1" style="fill:none;fill-rule:evenodd;stroke:#000000;stroke-width:2.0px;stroke-linecap:butt;stroke-linejoin:miter;stroke-opacity:1"/>
<path class="bond-31 atom-30 atom-32" d="M 538.1,28.0 L 528.3,16.4" style="fill:none;fill-rule:evenodd;stroke:#000000;stroke-width:2.0px;stroke-linecap:butt;stroke-linejoin:miter;stroke-opacity:1"/>
<path class="bond-32 atom-32 atom-33" d="M 529.6,11.1 L 508.2,14.9" style="fill:none;fill-rule:evenodd;stroke:#000000;stroke-width:2.0px;stroke-linecap:butt;stroke-linejoin:miter;stroke-opacity:1"/>
<path class="bond-33 atom-33 atom-34" d="M 508.2,14.9 L 500.9,35.3" style="fill:none;fill-rule:evenodd;stroke:#000000;stroke-width:2.0px;stroke-linecap:butt;stroke-linejoin:miter;stroke-opacity:1"/>
<path class="bond-33 atom-33 atom-34" d="M 511.2,19.5 L 506.0,33.7" style="fill:none;fill-rule:evenodd;stroke:#000000;stroke-width:2.0px;stroke-linecap:butt;stroke-linejoin:miter;stroke-opacity:1"/>
<path class="bond-34 atom-7 atom-35" d="M 443.1,46.0 L 442.8,55.0" style="fill:none;fill-rule:evenodd;stroke:#0000FF;stroke-width:2.0px;stroke-linecap:butt;stroke-linejoin:miter;stroke-opacity:1"/>
<path class="bond-34 atom-7 atom-35" d="M 442.8,55.0 L 442.6,63.9" style="fill:none;fill-rule:evenodd;stroke:#000000;stroke-width:2.0px;stroke-linecap:butt;stroke-linejoin:miter;stroke-opacity:1"/>
<path class="bond-35 atom-35 atom-36" d="M 442.6,63.9 L 423.4,74.1" style="fill:none;fill-rule:evenodd;stroke:#000000;stroke-width:2.0px;stroke-linecap:butt;stroke-linejoin:miter;stroke-opacity:1"/>
<path class="bond-36 atom-36 atom-4" d="M 423.4,74.1 L 415.8,69.3" style="fill:none;fill-rule:evenodd;stroke:#000000;stroke-width:2.0px;stroke-linecap:butt;stroke-linejoin:miter;stroke-opacity:1"/>
<path class="bond-36 atom-36 atom-4" d="M 415.8,69.3 L 408.1,64.6" style="fill:none;fill-rule:evenodd;stroke:#0000FF;stroke-width:2.0px;stroke-linecap:butt;stroke-linejoin:miter;stroke-opacity:1"/>
<path class="bond-37 atom-34 atom-10" d="M 500.9,35.3 L 480.8,43.5" style="fill:none;fill-rule:evenodd;stroke:#000000;stroke-width:2.0px;stroke-linecap:butt;stroke-linejoin:miter;stroke-opacity:1"/>
<path class="bond-38 atom-19 atom-13" d="M 453.0,114.4 L 469.6,100.4" style="fill:none;fill-rule:evenodd;stroke:#000000;stroke-width:2.0px;stroke-linecap:butt;stroke-linejoin:miter;stroke-opacity:1"/>
<path class="bond-39 atom-27 atom-22" d="M 533.0,93.4 L 511.5,90.4" style="fill:none;fill-rule:evenodd;stroke:#000000;stroke-width:2.0px;stroke-linecap:butt;stroke-linejoin:miter;stroke-opacity:1"/>
<path class="bond-40 atom-34 atom-28" d="M 500.9,35.3 L 514.8,51.9" style="fill:none;fill-rule:evenodd;stroke:#000000;stroke-width:2.0px;stroke-linecap:butt;stroke-linejoin:miter;stroke-opacity:1"/>
<path class="atom-1" d="M 349.3 71.5 Q 349.9 71.7, 350.2 72.0 Q 350.5 72.4, 350.5 72.9 Q 350.5 73.8, 349.9 74.2 Q 349.4 74.7, 348.4 74.7 L 346.3 74.7 L 346.3 68.6 L 348.1 68.6 Q 349.2 68.6, 349.7 69.0 Q 350.2 69.4, 350.2 70.2 Q 350.2 71.1, 349.3 71.5 M 347.1 69.3 L 347.1 71.2 L 348.1 71.2 Q 348.7 71.2, 349.1 71.0 Q 349.4 70.7, 349.4 70.2 Q 349.4 69.3, 348.1 69.3 L 347.1 69.3 M 348.4 74.0 Q 349.0 74.0, 349.3 73.7 Q 349.6 73.4, 349.6 72.9 Q 349.6 72.4, 349.3 72.1 Q 348.9 71.9, 348.3 71.9 L 347.1 71.9 L 347.1 74.0 L 348.4 74.0 " fill="#000000"/>
<path class="atom-2" d="M 366.2 58.4 L 368.2 61.6 Q 368.4 61.9, 368.7 62.5 Q 369.0 63.1, 369.0 63.1 L 369.0 58.4 L 369.8 58.4 L 369.8 64.5 L 369.0 64.5 L 366.8 60.9 Q 366.6 60.5, 366.3 60.1 Q 366.1 59.6, 366.0 59.4 L 366.0 64.5 L 365.2 64.5 L 365.2 58.4 L 366.2 58.4 " fill="#0000FF"/>
<path class="atom-3" d="M 384.6 69.8 L 386.6 73.1 Q 386.8 73.4, 387.1 74.0 Q 387.4 74.5, 387.4 74.6 L 387.4 69.8 L 388.3 69.8 L 388.3 76.0 L 387.4 76.0 L 385.3 72.4 Q 385.0 72.0, 384.7 71.5 Q 384.5 71.0, 384.4 70.9 L 384.4 76.0 L 383.6 76.0 L 383.6 69.8 L 384.6 69.8 " fill="#0000FF"/>
<path class="atom-4" d="M 403.7 59.6 L 405.7 62.9 Q 405.9 63.2, 406.2 63.8 Q 406.5 64.3, 406.6 64.4 L 406.6 59.6 L 407.4 59.6 L 407.4 65.7 L 406.5 65.7 L 404.4 62.2 Q 404.1 61.8, 403.8 61.3 Q 403.6 60.8, 403.5 60.7 L 403.5 65.7 L 402.7 65.7 L 402.7 59.6 L 403.7 59.6 " fill="#0000FF"/>
<path class="atom-7" d="M 441.9 39.2 L 443.9 42.4 Q 444.1 42.8, 444.4 43.3 Q 444.8 43.9, 444.8 43.9 L 444.8 39.2 L 445.6 39.2 L 445.6 45.3 L 444.8 45.3 L 442.6 41.8 Q 442.3 41.3, 442.1 40.9 Q 441.8 40.4, 441.7 40.2 L 441.7 45.3 L 440.9 45.3 L 440.9 39.2 L 441.9 39.2 " fill="#0000FF"/>
<path class="atom-9" d="M 460.3 10.4 Q 460.3 8.9, 461.0 8.1 Q 461.7 7.3, 463.1 7.3 Q 464.5 7.3, 465.2 8.1 Q 465.9 8.9, 465.9 10.4 Q 465.9 11.9, 465.2 12.7 Q 464.4 13.6, 463.1 13.6 Q 461.7 13.6, 461.0 12.7 Q 460.3 11.9, 460.3 10.4 M 463.1 12.9 Q 464.0 12.9, 464.5 12.3 Q 465.0 11.6, 465.0 10.4 Q 465.0 9.2, 464.5 8.6 Q 464.0 8.0, 463.1 8.0 Q 462.2 8.0, 461.6 8.6 Q 461.1 9.2, 461.1 10.4 Q 461.1 11.6, 461.6 12.3 Q 462.2 12.9, 463.1 12.9 " fill="#FF0000"/>
<path class="atom-18" d="M 438.4 146.6 L 442.0 146.6 L 442.0 147.3 L 439.2 147.3 L 439.2 149.2 L 441.7 149.2 L 441.7 149.9 L 439.2 149.9 L 439.2 152.7 L 438.4 152.7 L 438.4 146.6 " fill="#33CCCC"/>
<path class="atom-21" d="M 502.0 67.2 L 504.0 70.5 Q 504.2 70.8, 504.6 71.4 Q 504.9 72.0, 504.9 72.0 L 504.9 67.2 L 505.7 67.2 L 505.7 73.4 L 504.9 73.4 L 502.7 69.8 Q 502.5 69.4, 502.2 68.9 Q 501.9 68.4, 501.8 68.3 L 501.8 73.4 L 501.0 73.4 L 501.0 67.2 L 502.0 67.2 " fill="#0000FF"/>
<path class="atom-31" d="M 562.0 23.9 Q 562.0 22.5, 562.8 21.6 Q 563.5 20.8, 564.9 20.8 Q 566.2 20.8, 567.0 21.6 Q 567.7 22.5, 567.7 23.9 Q 567.7 25.4, 566.9 26.3 Q 566.2 27.1, 564.9 27.1 Q 563.5 27.1, 562.8 26.3 Q 562.0 25.4, 562.0 23.9 M 564.9 26.4 Q 565.8 26.4, 566.3 25.8 Q 566.8 25.2, 566.8 23.9 Q 566.8 22.7, 566.3 22.1 Q 565.8 21.5, 564.9 21.5 Q 563.9 21.5, 563.4 22.1 Q 562.9 22.7, 562.9 23.9 Q 562.9 25.2, 563.4 25.8 Q 563.9 26.4, 564.9 26.4 " fill="#FF0000"/>
<path class="atom-31" d="M 568.1 20.9 L 568.9 20.9 L 568.9 23.5 L 572.1 23.5 L 572.1 20.9 L 572.9 20.9 L 572.9 27.0 L 572.1 27.0 L 572.1 24.2 L 568.9 24.2 L 568.9 27.0 L 568.1 27.0 L 568.1 20.9 " fill="#FF0000"/>
<path class="atom-0" d="M 327.8,58.0 L 327.8,58.1 L 327.8,58.1 L 327.8,58.1 L 327.8,58.2 L 327.8,58.2 L 327.8,58.2 L 327.8,58.3 L 327.7,58.3 L 327.7,58.3 L 327.7,58.4 L 327.7,58.4 L 327.6,58.4 L 327.6,58.4 L 327.6,58.4 L 327.5,58.4 L 327.5,58.5 L 327.5,58.5 L 327.4,58.5 L 327.4,58.5 L 327.3,58.5 L 327.3,58.5 L 327.3,58.4 L 327.2,58.4 L 327.2,58.4 L 327.2,58.4 L 327.1,58.4 L 327.1,58.3 L 327.1,58.3 L 327.1,58.3 L 327.0,58.3 L 327.0,58.2 L 327.0,58.2 L 327.0,58.2 L 327.0,58.1 L 327.0,58.1 L 327.0,58.0 L 327.0,58.0 L 327.0,58.0 L 327.0,57.9 L 327.0,57.9 L 327.0,57.9 L 327.0,57.8 L 327.0,57.8 L 327.1,57.8 L 327.1,57.7 L 327.1,57.7 L 327.1,57.7 L 327.2,57.7 L 327.2,57.6 L 327.2,57.6 L 327.3,57.6 L 327.3,57.6 L 327.3,57.6 L 327.4,57.6 L 327.4,57.6 L 327.5,57.6 L 327.5,57.6 L 327.5,57.6 L 327.6,57.6 L 327.6,57.6 L 327.6,57.7 L 327.7,57.7 L 327.7,57.7 L 327.7,57.7 L 327.7,57.8 L 327.8,57.8 L 327.8,57.8 L 327.8,57.8 L 327.8,57.9 L 327.8,57.9 L 327.8,58.0 L 327.8,58.0 L 327.8,58.0 L 327.4,58.0 Z" style="fill:#000000;fill-rule:evenodd;fill-opacity:1;stroke:#000000;stroke-width:0.0px;stroke-linecap:butt;stroke-linejoin:miter;stroke-opacity:1;"/>
<path class="atom-0" d="M 327.8,62.4 L 327.8,62.4 L 327.8,62.4 L 327.8,62.5 L 327.8,62.5 L 327.8,62.5 L 327.8,62.6 L 327.8,62.6 L 327.7,62.6 L 327.7,62.7 L 327.7,62.7 L 327.7,62.7 L 327.6,62.7 L 327.6,62.8 L 327.6,62.8 L 327.5,62.8 L 327.5,62.8 L 327.5,62.8 L 327.4,62.8 L 327.4,62.8 L 327.3,62.8 L 327.3,62.8 L 327.3,62.8 L 327.2,62.8 L 327.2,62.7 L 327.2,62.7 L 327.1,62.7 L 327.1,62.7 L 327.1,62.7 L 327.1,62.6 L 327.0,62.6 L 327.0,62.6 L 327.0,62.5 L 327.0,62.5 L 327.0,62.5 L 327.0,62.4 L 327.0,62.4 L 327.0,62.3 L 327.0,62.3 L 327.0,62.3 L 327.0,62.2 L 327.0,62.2 L 327.0,62.2 L 327.0,62.1 L 327.1,62.1 L 327.1,62.1 L 327.1,62.0 L 327.1,62.0 L 327.2,62.0 L 327.2,62.0 L 327.2,62.0 L 327.3,62.0 L 327.3,61.9 L 327.3,61.9 L 327.4,61.9 L 327.4,61.9 L 327.5,61.9 L 327.5,61.9 L 327.5,61.9 L 327.6,62.0 L 327.6,62.0 L 327.6,62.0 L 327.7,62.0 L 327.7,62.0 L 327.7,62.1 L 327.7,62.1 L 327.8,62.1 L 327.8,62.2 L 327.8,62.2 L 327.8,62.2 L 327.8,62.3 L 327.8,62.3 L 327.8,62.3 L 327.8,62.4 L 327.4,62.4 Z" style="fill:#000000;fill-rule:evenodd;fill-opacity:1;stroke:#000000;stroke-width:0.0px;stroke-linecap:butt;stroke-linejoin:miter;stroke-opacity:1;"/>
<path class="atom-0" d="M 327.8,60.2 L 327.8,60.2 L 327.8,60.3 L 327.8,60.3 L 327.8,60.3 L 327.8,60.4 L 327.8,60.4 L 327.8,60.4 L 327.7,60.5 L 327.7,60.5 L 327.7,60.5 L 327.7,60.5 L 327.6,60.6 L 327.6,60.6 L 327.6,60.6 L 327.5,60.6 L 327.5,60.6 L 327.5,60.6 L 327.4,60.6 L 327.4,60.6 L 327.3,60.6 L 327.3,60.6 L 327.3,60.6 L 327.2,60.6 L 327.2,60.6 L 327.2,60.6 L 327.1,60.5 L 327.1,60.5 L 327.1,60.5 L 327.1,60.5 L 327.0,60.4 L 327.0,60.4 L 327.0,60.4 L 327.0,60.3 L 327.0,60.3 L 327.0,60.3 L 327.0,60.2 L 327.0,60.2 L 327.0,60.1 L 327.0,60.1 L 327.0,60.1 L 327.0,60.0 L 327.0,60.0 L 327.0,60.0 L 327.1,59.9 L 327.1,59.9 L 327.1,59.9 L 327.1,59.9 L 327.2,59.8 L 327.2,59.8 L 327.2,59.8 L 327.3,59.8 L 327.3,59.8 L 327.3,59.8 L 327.4,59.8 L 327.4,59.8 L 327.5,59.8 L 327.5,59.8 L 327.5,59.8 L 327.6,59.8 L 327.6,59.8 L 327.6,59.8 L 327.7,59.8 L 327.7,59.9 L 327.7,59.9 L 327.7,59.9 L 327.8,60.0 L 327.8,60.0 L 327.8,60.0 L 327.8,60.1 L 327.8,60.1 L 327.8,60.1 L 327.8,60.2 L 327.8,60.2 L 327.4,60.2 Z" style="fill:#000000;fill-rule:evenodd;fill-opacity:1;stroke:#000000;stroke-width:0.0px;stroke-linecap:butt;stroke-linejoin:miter;stroke-opacity:1;"/>
<path class="atom-1" d="M 352.2,71.6 L 352.2,71.7 L 352.2,71.7 L 352.2,71.8 L 352.2,71.8 L 352.2,71.8 L 352.2,71.9 L 352.1,71.9 L 352.1,71.9 L 352.1,71.9 L 352.1,72.0 L 352.0,72.0 L 352.0,72.0 L 352.0,72.0 L 351.9,72.1 L 351.9,72.1 L 351.9,72.1 L 351.8,72.1 L 351.8,72.1 L 351.8,72.1 L 351.7,72.1 L 351.7,72.1 L 351.7,72.1 L 351.6,72.0 L 351.6,72.0 L 351.6,72.0 L 351.5,72.0 L 351.5,72.0 L 351.5,71.9 L 351.4,71.9 L 351.4,71.9 L 351.4,71.8 L 351.4,71.8 L 351.4,71.8 L 351.4,71.7 L 351.4,71.7 L 351.4,71.7 L 351.4,71.6 L 351.4,71.6 L 351.4,71.6 L 351.4,71.5 L 351.4,71.5 L 351.4,71.4 L 351.4,71.4 L 351.4,71.4 L 351.5,71.4 L 351.5,71.3 L 351.5,71.3 L 351.6,71.3 L 351.6,71.3 L 351.6,71.2 L 351.7,71.2 L 351.7,71.2 L 351.7,71.2 L 351.8,71.2 L 351.8,71.2 L 351.8,71.2 L 351.9,71.2 L 351.9,71.2 L 351.9,71.2 L 352.0,71.3 L 352.0,71.3 L 352.0,71.3 L 352.1,71.3 L 352.1,71.3 L 352.1,71.4 L 352.1,71.4 L 352.2,71.4 L 352.2,71.5 L 352.2,71.5 L 352.2,71.5 L 352.2,71.6 L 352.2,71.6 L 352.2,71.6 L 351.8,71.6 Z" style="fill:#000000;fill-rule:evenodd;fill-opacity:1;stroke:#000000;stroke-width:0.0px;stroke-linecap:butt;stroke-linejoin:miter;stroke-opacity:1;"/>
<path class="bond-0 atom-0 atom-1" d="M 646.1,70.7 L 666.6,78.0" style="fill:none;fill-rule:evenodd;stroke:#000000;stroke-width:2.0px;stroke-linecap:butt;stroke-linejoin:miter;stroke-opacity:1"/>
<path class="bond-1 atom-1 atom-2" d="M 666.6,78.0 L 680.2,66.3" style="fill:none;fill-rule:evenodd;stroke:#000000;stroke-width:2.0px;stroke-linecap:butt;stroke-linejoin:miter;stroke-opacity:1"/>
<path class="bond-2 atom-2 atom-3" d="M 685.8,65.1 L 702.9,72.6" style="fill:none;fill-rule:evenodd;stroke:#000000;stroke-width:2.0px;stroke-linecap:butt;stroke-linejoin:miter;stroke-opacity:1"/>
<path class="bond-3 atom-3 atom-4" d="M 702.9,72.6 L 722.1,62.6" style="fill:none;fill-rule:evenodd;stroke:#000000;stroke-width:2.0px;stroke-linecap:butt;stroke-linejoin:miter;stroke-opacity:1"/>
<path class="bond-4 atom-4 atom-5" d="M 722.1,62.6 L 723.8,53.9" style="fill:none;fill-rule:evenodd;stroke:#000000;stroke-width:2.0px;stroke-linecap:butt;stroke-linejoin:miter;stroke-opacity:1"/>
<path class="bond-4 atom-4 atom-5" d="M 723.8,53.9 L 725.5,45.1" style="fill:none;fill-rule:evenodd;stroke:#0000FF;stroke-width:2.0px;stroke-linecap:butt;stroke-linejoin:miter;stroke-opacity:1"/>
<path class="bond-5 atom-5 atom-6" d="M 729.2,40.5 L 738.2,38.2" style="fill:none;fill-rule:evenodd;stroke:#0000FF;stroke-width:2.0px;stroke-linecap:butt;stroke-linejoin:miter;stroke-opacity:1"/>
<path class="bond-5 atom-5 atom-6" d="M 738.2,38.2 L 747.2,35.8" style="fill:none;fill-rule:evenodd;stroke:#000000;stroke-width:2.0px;stroke-linecap:butt;stroke-linejoin:miter;stroke-opacity:1"/>
<path class="bond-6 atom-6 atom-7" d="M 745.1,35.2 L 747.4,26.7" style="fill:none;fill-rule:evenodd;stroke:#000000;stroke-width:2.0px;stroke-linecap:butt;stroke-linejoin:miter;stroke-opacity:1"/>
<path class="bond-6 atom-6 atom-7" d="M 747.4,26.7 L 749.7,18.2" style="fill:none;fill-rule:evenodd;stroke:#FF0000;stroke-width:2.0px;stroke-linecap:butt;stroke-linejoin:miter;stroke-opacity:1"/>
<path class="bond-6 atom-6 atom-7" d="M 749.2,36.4 L 751.6,27.9" style="fill:none;fill-rule:evenodd;stroke:#000000;stroke-width:2.0px;stroke-linecap:butt;stroke-linejoin:miter;stroke-opacity:1"/>
<path class="bond-6 atom-6 atom-7" d="M 751.6,27.9 L 753.9,19.4" style="fill:none;fill-rule:evenodd;stroke:#FF0000;stroke-width:2.0px;stroke-linecap:butt;stroke-linejoin:miter;stroke-opacity:1"/>
<path class="bond-7 atom-6 atom-8" d="M 747.2,35.8 L 762.4,51.2" style="fill:none;fill-rule:evenodd;stroke:#000000;stroke-width:2.0px;stroke-linecap:butt;stroke-linejoin:miter;stroke-opacity:1"/>
<path class="bond-8 atom-8 atom-9" d="M 762.4,51.2 L 758.9,72.6" style="fill:none;fill-rule:evenodd;stroke:#000000;stroke-width:2.0px;stroke-linecap:butt;stroke-linejoin:miter;stroke-opacity:1"/>
<path class="bond-8 atom-8 atom-9" d="M 766.2,55.1 L 763.7,70.1" style="fill:none;fill-rule:evenodd;stroke:#000000;stroke-width:2.0px;stroke-linecap:butt;stroke-linejoin:miter;stroke-opacity:1"/>
<path class="bond-9 atom-9 atom-10" d="M 758.9,72.6 L 739.6,82.3" style="fill:none;fill-rule:evenodd;stroke:#000000;stroke-width:2.0px;stroke-linecap:butt;stroke-linejoin:miter;stroke-opacity:1"/>
<path class="bond-10 atom-10 atom-11" d="M 739.6,82.3 L 738.3,104.0" style="fill:none;fill-rule:evenodd;stroke:#000000;stroke-width:2.0px;stroke-linecap:butt;stroke-linejoin:miter;stroke-opacity:1"/>
<path class="bond-11 atom-11 atom-12" d="M 738.3,104.0 L 756.5,115.9" style="fill:none;fill-rule:evenodd;stroke:#000000;stroke-width:2.0px;stroke-linecap:butt;stroke-linejoin:miter;stroke-opacity:1"/>
<path class="bond-11 atom-11 atom-12" d="M 738.7,109.4 L 751.4,117.7" style="fill:none;fill-rule:evenodd;stroke:#000000;stroke-width:2.0px;stroke-linecap:butt;stroke-linejoin:miter;stroke-opacity:1"/>
<path class="bond-12 atom-12 atom-13" d="M 756.5,115.9 L 755.2,137.5" style="fill:none;fill-rule:evenodd;stroke:#000000;stroke-width:2.0px;stroke-linecap:butt;stroke-linejoin:miter;stroke-opacity:1"/>
<path class="bond-13 atom-13 atom-14" d="M 755.2,137.5 L 735.9,147.3" style="fill:none;fill-rule:evenodd;stroke:#000000;stroke-width:2.0px;stroke-linecap:butt;stroke-linejoin:miter;stroke-opacity:1"/>
<path class="bond-13 atom-13 atom-14" d="M 750.4,135.1 L 736.8,141.9" style="fill:none;fill-rule:evenodd;stroke:#000000;stroke-width:2.0px;stroke-linecap:butt;stroke-linejoin:miter;stroke-opacity:1"/>
<path class="bond-14 atom-14 atom-15" d="M 735.9,147.3 L 717.8,135.4" style="fill:none;fill-rule:evenodd;stroke:#000000;stroke-width:2.0px;stroke-linecap:butt;stroke-linejoin:miter;stroke-opacity:1"/>
<path class="bond-15 atom-15 atom-16" d="M 717.8,135.4 L 709.4,139.6" style="fill:none;fill-rule:evenodd;stroke:#000000;stroke-width:2.0px;stroke-linecap:butt;stroke-linejoin:miter;stroke-opacity:1"/>
<path class="bond-15 atom-15 atom-16" d="M 709.4,139.6 L 700.9,143.8" style="fill:none;fill-rule:evenodd;stroke:#33CCCC;stroke-width:2.0px;stroke-linecap:butt;stroke-linejoin:miter;stroke-opacity:1"/>
<path class="bond-16 atom-15 atom-17" d="M 717.8,135.4 L 719.0,113.7" style="fill:none;fill-rule:evenodd;stroke:#000000;stroke-width:2.0px;stroke-linecap:butt;stroke-linejoin:miter;stroke-opacity:1"/>
<path class="bond-16 atom-15 atom-17" d="M 722.3,132.4 L 723.1,117.2" style="fill:none;fill-rule:evenodd;stroke:#000000;stroke-width:2.0px;stroke-linecap:butt;stroke-linejoin:miter;stroke-opacity:1"/>
<path class="bond-17 atom-17 atom-18" d="M 719.0,113.7 L 700.9,101.9" style="fill:none;fill-rule:evenodd;stroke:#000000;stroke-width:2.0px;stroke-linecap:butt;stroke-linejoin:miter;stroke-opacity:1"/>
<path class="bond-18 atom-9 atom-19" d="M 758.9,72.6 L 767.0,76.8" style="fill:none;fill-rule:evenodd;stroke:#000000;stroke-width:2.0px;stroke-linecap:butt;stroke-linejoin:miter;stroke-opacity:1"/>
<path class="bond-18 atom-9 atom-19" d="M 767.0,76.8 L 775.1,81.0" style="fill:none;fill-rule:evenodd;stroke:#0000FF;stroke-width:2.0px;stroke-linecap:butt;stroke-linejoin:miter;stroke-opacity:1"/>
<path class="bond-19 atom-19 atom-20" d="M 778.8,86.3 L 780.1,95.1" style="fill:none;fill-rule:evenodd;stroke:#0000FF;stroke-width:2.0px;stroke-linecap:butt;stroke-linejoin:miter;stroke-opacity:1"/>
<path class="bond-19 atom-19 atom-20" d="M 780.1,95.1 L 781.5,103.9" style="fill:none;fill-rule:evenodd;stroke:#000000;stroke-width:2.0px;stroke-linecap:butt;stroke-linejoin:miter;stroke-opacity:1"/>
<path class="bond-20 atom-20 atom-21" d="M 781.5,103.9 L 764.6,117.5" style="fill:none;fill-rule:evenodd;stroke:#000000;stroke-width:2.0px;stroke-linecap:butt;stroke-linejoin:miter;stroke-opacity:1"/>
<path class="bond-20 atom-20 atom-21" d="M 781.7,109.4 L 769.8,118.8" style="fill:none;fill-rule:evenodd;stroke:#000000;stroke-width:2.0px;stroke-linecap:butt;stroke-linejoin:miter;stroke-opacity:1"/>
<path class="bond-21 atom-21 atom-22" d="M 764.6,117.5 L 767.9,138.9" style="fill:none;fill-rule:evenodd;stroke:#000000;stroke-width:2.0px;stroke-linecap:butt;stroke-linejoin:miter;stroke-opacity:1"/>
<path class="bond-22 atom-22 atom-23" d="M 767.9,138.9 L 788.1,146.8" style="fill:none;fill-rule:evenodd;stroke:#000000;stroke-width:2.0px;stroke-linecap:butt;stroke-linejoin:miter;stroke-opacity:1"/>
<path class="bond-22 atom-22 atom-23" d="M 772.5,136.1 L 786.6,141.6" style="fill:none;fill-rule:evenodd;stroke:#000000;stroke-width:2.0px;stroke-linecap:butt;stroke-linejoin:miter;stroke-opacity:1"/>
<path class="bond-23 atom-23 atom-24" d="M 788.1,146.8 L 805.0,133.2" style="fill:none;fill-rule:evenodd;stroke:#000000;stroke-width:2.0px;stroke-linecap:butt;stroke-linejoin:miter;stroke-opacity:1"/>
<path class="bond-24 atom-24 atom-25" d="M 805.0,133.2 L 801.7,111.8" style="fill:none;fill-rule:evenodd;stroke:#000000;stroke-width:2.0px;stroke-linecap:butt;stroke-linejoin:miter;stroke-opacity:1"/>
<path class="bond-24 atom-24 atom-25" d="M 800.2,130.7 L 797.9,115.7" style="fill:none;fill-rule:evenodd;stroke:#000000;stroke-width:2.0px;stroke-linecap:butt;stroke-linejoin:miter;stroke-opacity:1"/>
<path class="bond-25 atom-19 atom-26" d="M 781.2,79.5 L 787.4,73.4" style="fill:none;fill-rule:evenodd;stroke:#0000FF;stroke-width:2.0px;stroke-linecap:butt;stroke-linejoin:miter;stroke-opacity:1"/>
<path class="bond-25 atom-19 atom-26" d="M 787.4,73.4 L 793.6,67.3" style="fill:none;fill-rule:evenodd;stroke:#000000;stroke-width:2.0px;stroke-linecap:butt;stroke-linejoin:miter;stroke-opacity:1"/>
<path class="bond-26 atom-26 atom-27" d="M 793.6,67.3 L 815.2,68.5" style="fill:none;fill-rule:evenodd;stroke:#000000;stroke-width:2.0px;stroke-linecap:butt;stroke-linejoin:miter;stroke-opacity:1"/>
<path class="bond-26 atom-26 atom-27" d="M 797.1,63.1 L 812.2,64.0" style="fill:none;fill-rule:evenodd;stroke:#000000;stroke-width:2.0px;stroke-linecap:butt;stroke-linejoin:miter;stroke-opacity:1"/>
<path class="bond-27 atom-27 atom-28" d="M 815.2,68.5 L 827.1,50.4" style="fill:none;fill-rule:evenodd;stroke:#000000;stroke-width:2.0px;stroke-linecap:butt;stroke-linejoin:miter;stroke-opacity:1"/>
<path class="bond-28 atom-28 atom-29" d="M 827.1,50.4 L 836.2,50.9" style="fill:none;fill-rule:evenodd;stroke:#000000;stroke-width:2.0px;stroke-linecap:butt;stroke-linejoin:miter;stroke-opacity:1"/>
<path class="bond-28 atom-28 atom-29" d="M 836.2,50.9 L 845.2,51.4" style="fill:none;fill-rule:evenodd;stroke:#FF0000;stroke-width:2.0px;stroke-linecap:butt;stroke-linejoin:miter;stroke-opacity:1"/>
<path class="bond-29 atom-28 atom-30" d="M 827.1,50.4 L 817.4,31.0" style="fill:none;fill-rule:evenodd;stroke:#000000;stroke-width:2.0px;stroke-linecap:butt;stroke-linejoin:miter;stroke-opacity:1"/>
<path class="bond-29 atom-28 atom-30" d="M 821.8,49.4 L 814.9,35.9" style="fill:none;fill-rule:evenodd;stroke:#000000;stroke-width:2.0px;stroke-linecap:butt;stroke-linejoin:miter;stroke-opacity:1"/>
<path class="bond-30 atom-30 atom-31" d="M 817.4,31.0 L 795.7,29.8" style="fill:none;fill-rule:evenodd;stroke:#000000;stroke-width:2.0px;stroke-linecap:butt;stroke-linejoin:miter;stroke-opacity:1"/>
<path class="bond-31 atom-31 atom-32" d="M 795.7,29.8 L 783.8,47.9" style="fill:none;fill-rule:evenodd;stroke:#000000;stroke-width:2.0px;stroke-linecap:butt;stroke-linejoin:miter;stroke-opacity:1"/>
<path class="bond-31 atom-31 atom-32" d="M 797.6,34.9 L 789.2,47.6" style="fill:none;fill-rule:evenodd;stroke:#000000;stroke-width:2.0px;stroke-linecap:butt;stroke-linejoin:miter;stroke-opacity:1"/>
<path class="bond-32 atom-5 atom-33" d="M 723.2,37.8 L 717.6,31.3" style="fill:none;fill-rule:evenodd;stroke:#0000FF;stroke-width:2.0px;stroke-linecap:butt;stroke-linejoin:miter;stroke-opacity:1"/>
<path class="bond-32 atom-5 atom-33" d="M 717.6,31.3 L 712.1,24.8" style="fill:none;fill-rule:evenodd;stroke:#000000;stroke-width:2.0px;stroke-linecap:butt;stroke-linejoin:miter;stroke-opacity:1"/>
<path class="bond-33 atom-33 atom-34" d="M 712.1,24.8 L 690.5,25.6" style="fill:none;fill-rule:evenodd;stroke:#000000;stroke-width:2.0px;stroke-linecap:butt;stroke-linejoin:miter;stroke-opacity:1"/>
<path class="bond-34 atom-34 atom-35" d="M 690.5,25.6 L 685.4,32.4" style="fill:none;fill-rule:evenodd;stroke:#000000;stroke-width:2.0px;stroke-linecap:butt;stroke-linejoin:miter;stroke-opacity:1"/>
<path class="bond-34 atom-34 atom-35" d="M 685.4,32.4 L 680.3,39.2" style="fill:none;fill-rule:evenodd;stroke:#0000FF;stroke-width:2.0px;stroke-linecap:butt;stroke-linejoin:miter;stroke-opacity:1"/>
<path class="bond-35 atom-35 atom-2" d="M 678.5,46.7 L 680.3,53.4" style="fill:none;fill-rule:evenodd;stroke:#0000FF;stroke-width:2.0px;stroke-linecap:butt;stroke-linejoin:miter;stroke-opacity:1"/>
<path class="bond-35 atom-35 atom-2" d="M 680.3,53.4 L 682.0,60.1" style="fill:none;fill-rule:evenodd;stroke:#000000;stroke-width:2.0px;stroke-linecap:butt;stroke-linejoin:miter;stroke-opacity:1"/>
<path class="bond-36 atom-32 atom-8" d="M 783.8,47.9 L 762.4,51.2" style="fill:none;fill-rule:evenodd;stroke:#000000;stroke-width:2.0px;stroke-linecap:butt;stroke-linejoin:miter;stroke-opacity:1"/>
<path class="bond-37 atom-17 atom-11" d="M 719.0,113.7 L 738.3,104.0" style="fill:none;fill-rule:evenodd;stroke:#000000;stroke-width:2.0px;stroke-linecap:butt;stroke-linejoin:miter;stroke-opacity:1"/>
<path class="bond-38 atom-25 atom-20" d="M 801.7,111.8 L 781.5,103.9" style="fill:none;fill-rule:evenodd;stroke:#000000;stroke-width:2.0px;stroke-linecap:butt;stroke-linejoin:miter;stroke-opacity:1"/>
<path class="bond-39 atom-32 atom-26" d="M 783.8,47.9 L 793.6,67.3" style="fill:none;fill-rule:evenodd;stroke:#000000;stroke-width:2.0px;stroke-linecap:butt;stroke-linejoin:miter;stroke-opacity:1"/>
<path class="atom-2" d="M 683.9 63.7 Q 684.5 63.9, 684.8 64.3 Q 685.1 64.6, 685.1 65.2 Q 685.1 66.0, 684.6 66.5 Q 684.0 67.0, 683.0 67.0 L 681.0 67.0 L 681.0 60.8 L 682.8 60.8 Q 683.8 60.8, 684.3 61.3 Q 684.9 61.7, 684.9 62.5 Q 684.9 63.4, 683.9 63.7 M 681.8 61.5 L 681.8 63.4 L 682.8 63.4 Q 683.4 63.4, 683.7 63.2 Q 684.0 62.9, 684.0 62.5 Q 684.0 61.5, 682.8 61.5 L 681.8 61.5 M 683.0 66.3 Q 683.6 66.3, 683.9 66.0 Q 684.3 65.7, 684.3 65.2 Q 684.3 64.6, 683.9 64.4 Q 683.6 64.1, 682.9 64.1 L 681.8 64.1 L 681.8 66.3 L 683.0 66.3 " fill="#000000"/>
<path class="atom-5" d="M 724.8 38.3 L 726.9 41.5 Q 727.1 41.8, 727.4 42.4 Q 727.7 43.0, 727.7 43.0 L 727.7 38.3 L 728.5 38.3 L 728.5 44.4 L 727.7 44.4 L 725.5 40.8 Q 725.3 40.4, 725.0 40.0 Q 724.7 39.5, 724.7 39.3 L 724.7 44.4 L 723.9 44.4 L 723.9 38.3 L 724.8 38.3 " fill="#0000FF"/>
<path class="atom-7" d="M 750.0 14.9 Q 750.0 13.4, 750.8 12.6 Q 751.5 11.8, 752.9 11.8 Q 754.2 11.8, 754.9 12.6 Q 755.7 13.4, 755.7 14.9 Q 755.7 16.4, 754.9 17.3 Q 754.2 18.1, 752.9 18.1 Q 751.5 18.1, 750.8 17.3 Q 750.0 16.4, 750.0 14.9 M 752.9 17.4 Q 753.8 17.4, 754.3 16.8 Q 754.8 16.2, 754.8 14.9 Q 754.8 13.7, 754.3 13.1 Q 753.8 12.5, 752.9 12.5 Q 751.9 12.5, 751.4 13.1 Q 750.9 13.7, 750.9 14.9 Q 750.9 16.2, 751.4 16.8 Q 751.9 17.4, 752.9 17.4 " fill="#FF0000"/>
<path class="atom-16" d="M 696.6 142.1 L 700.2 142.1 L 700.2 142.8 L 697.4 142.8 L 697.4 144.6 L 699.9 144.6 L 699.9 145.3 L 697.4 145.3 L 697.4 148.2 L 696.6 148.2 L 696.6 142.1 " fill="#33CCCC"/>
<path class="atom-19" d="M 776.8 79.5 L 778.8 82.7 Q 779.0 83.0, 779.4 83.6 Q 779.7 84.2, 779.7 84.2 L 779.7 79.5 L 780.5 79.5 L 780.5 85.6 L 779.7 85.6 L 777.5 82.0 Q 777.3 81.6, 777.0 81.1 Q 776.7 80.7, 776.7 80.5 L 776.7 85.6 L 775.9 85.6 L 775.9 79.5 L 776.8 79.5 " fill="#0000FF"/>
<path class="atom-29" d="M 845.9 51.6 Q 845.9 50.1, 846.7 49.3 Q 847.4 48.5, 848.7 48.5 Q 850.1 48.5, 850.8 49.3 Q 851.6 50.1, 851.6 51.6 Q 851.6 53.1, 850.8 54.0 Q 850.1 54.8, 848.7 54.8 Q 847.4 54.8, 846.7 54.0 Q 845.9 53.1, 845.9 51.6 M 848.7 54.1 Q 849.7 54.1, 850.2 53.5 Q 850.7 52.8, 850.7 51.6 Q 850.7 50.4, 850.2 49.8 Q 849.7 49.2, 848.7 49.2 Q 847.8 49.2, 847.3 49.8 Q 846.8 50.4, 846.8 51.6 Q 846.8 52.9, 847.3 53.5 Q 847.8 54.1, 848.7 54.1 " fill="#FF0000"/>
<path class="atom-29" d="M 852.0 48.6 L 852.8 48.6 L 852.8 51.2 L 856.0 51.2 L 856.0 48.6 L 856.8 48.6 L 856.8 54.7 L 856.0 54.7 L 856.0 51.9 L 852.8 51.9 L 852.8 54.7 L 852.0 54.7 L 852.0 48.6 " fill="#FF0000"/>
<path class="atom-35" d="M 669.7 39.9 L 670.5 39.9 L 670.5 42.5 L 673.6 42.5 L 673.6 39.9 L 674.5 39.9 L 674.5 46.0 L 673.6 46.0 L 673.6 43.2 L 670.5 43.2 L 670.5 46.0 L 669.7 46.0 L 669.7 39.9 " fill="#0000FF"/>
<path class="atom-35" d="M 676.2 39.9 L 678.2 43.1 Q 678.4 43.4, 678.7 44.0 Q 679.0 44.6, 679.0 44.6 L 679.0 39.9 L 679.9 39.9 L 679.9 46.0 L 679.0 46.0 L 676.9 42.5 Q 676.6 42.0, 676.3 41.6 Q 676.1 41.1, 676.0 40.9 L 676.0 46.0 L 675.2 46.0 L 675.2 39.9 L 676.2 39.9 " fill="#0000FF"/>
<path class="atom-0" d="M 644.0,68.5 L 644.0,68.6 L 644.0,68.6 L 643.9,68.7 L 643.9,68.7 L 643.9,68.7 L 643.9,68.8 L 643.9,68.8 L 643.9,68.8 L 643.8,68.8 L 643.8,68.9 L 643.8,68.9 L 643.8,68.9 L 643.7,68.9 L 643.7,68.9 L 643.7,69.0 L 643.6,69.0 L 643.6,69.0 L 643.5,69.0 L 643.5,69.0 L 643.5,69.0 L 643.4,69.0 L 643.4,69.0 L 643.4,68.9 L 643.3,68.9 L 643.3,68.9 L 643.3,68.9 L 643.2,68.9 L 643.2,68.8 L 643.2,68.8 L 643.2,68.8 L 643.1,68.7 L 643.1,68.7 L 643.1,68.7 L 643.1,68.6 L 643.1,68.6 L 643.1,68.6 L 643.1,68.5 L 643.1,68.5 L 643.1,68.5 L 643.1,68.4 L 643.1,68.4 L 643.1,68.3 L 643.2,68.3 L 643.2,68.3 L 643.2,68.3 L 643.2,68.2 L 643.3,68.2 L 643.3,68.2 L 643.3,68.2 L 643.4,68.1 L 643.4,68.1 L 643.4,68.1 L 643.5,68.1 L 643.5,68.1 L 643.5,68.1 L 643.6,68.1 L 643.6,68.1 L 643.7,68.1 L 643.7,68.1 L 643.7,68.2 L 643.8,68.2 L 643.8,68.2 L 643.8,68.2 L 643.8,68.2 L 643.9,68.3 L 643.9,68.3 L 643.9,68.3 L 643.9,68.4 L 643.9,68.4 L 643.9,68.4 L 644.0,68.5 L 644.0,68.5 L 644.0,68.5 L 643.5,68.5 Z" style="fill:#000000;fill-rule:evenodd;fill-opacity:1;stroke:#000000;stroke-width:0.0px;stroke-linecap:butt;stroke-linejoin:miter;stroke-opacity:1;"/>
<path class="atom-0" d="M 644.0,72.9 L 644.0,72.9 L 644.0,73.0 L 643.9,73.0 L 643.9,73.0 L 643.9,73.1 L 643.9,73.1 L 643.9,73.1 L 643.9,73.2 L 643.8,73.2 L 643.8,73.2 L 643.8,73.2 L 643.8,73.2 L 643.7,73.3 L 643.7,73.3 L 643.7,73.3 L 643.6,73.3 L 643.6,73.3 L 643.5,73.3 L 643.5,73.3 L 643.5,73.3 L 643.4,73.3 L 643.4,73.3 L 643.4,73.3 L 643.3,73.3 L 643.3,73.2 L 643.3,73.2 L 643.2,73.2 L 643.2,73.2 L 643.2,73.1 L 643.2,73.1 L 643.1,73.1 L 643.1,73.0 L 643.1,73.0 L 643.1,73.0 L 643.1,72.9 L 643.1,72.9 L 643.1,72.9 L 643.1,72.8 L 643.1,72.8 L 643.1,72.7 L 643.1,72.7 L 643.1,72.7 L 643.2,72.6 L 643.2,72.6 L 643.2,72.6 L 643.2,72.6 L 643.3,72.5 L 643.3,72.5 L 643.3,72.5 L 643.4,72.5 L 643.4,72.5 L 643.4,72.5 L 643.5,72.4 L 643.5,72.4 L 643.5,72.4 L 643.6,72.4 L 643.6,72.5 L 643.7,72.5 L 643.7,72.5 L 643.7,72.5 L 643.8,72.5 L 643.8,72.5 L 643.8,72.5 L 643.8,72.6 L 643.9,72.6 L 643.9,72.6 L 643.9,72.7 L 643.9,72.7 L 643.9,72.7 L 643.9,72.8 L 644.0,72.8 L 644.0,72.8 L 644.0,72.9 L 643.5,72.9 Z" style="fill:#000000;fill-rule:evenodd;fill-opacity:1;stroke:#000000;stroke-width:0.0px;stroke-linecap:butt;stroke-linejoin:miter;stroke-opacity:1;"/>
<path class="atom-0" d="M 644.0,70.7 L 644.0,70.7 L 644.0,70.8 L 643.9,70.8 L 643.9,70.9 L 643.9,70.9 L 643.9,70.9 L 643.9,71.0 L 643.9,71.0 L 643.8,71.0 L 643.8,71.0 L 643.8,71.1 L 643.8,71.1 L 643.7,71.1 L 643.7,71.1 L 643.7,71.1 L 643.6,71.1 L 643.6,71.1 L 643.5,71.1 L 643.5,71.1 L 643.5,71.1 L 643.4,71.1 L 643.4,71.1 L 643.4,71.1 L 643.3,71.1 L 643.3,71.1 L 643.3,71.1 L 643.2,71.0 L 643.2,71.0 L 643.2,71.0 L 643.2,70.9 L 643.1,70.9 L 643.1,70.9 L 643.1,70.8 L 643.1,70.8 L 643.1,70.8 L 643.1,70.7 L 643.1,70.7 L 643.1,70.7 L 643.1,70.6 L 643.1,70.6 L 643.1,70.5 L 643.1,70.5 L 643.2,70.5 L 643.2,70.4 L 643.2,70.4 L 643.2,70.4 L 643.3,70.4 L 643.3,70.3 L 643.3,70.3 L 643.4,70.3 L 643.4,70.3 L 643.4,70.3 L 643.5,70.3 L 643.5,70.3 L 643.5,70.3 L 643.6,70.3 L 643.6,70.3 L 643.7,70.3 L 643.7,70.3 L 643.7,70.3 L 643.8,70.3 L 643.8,70.4 L 643.8,70.4 L 643.8,70.4 L 643.9,70.4 L 643.9,70.5 L 643.9,70.5 L 643.9,70.5 L 643.9,70.6 L 643.9,70.6 L 644.0,70.6 L 644.0,70.7 L 644.0,70.7 L 643.5,70.7 Z" style="fill:#000000;fill-rule:evenodd;fill-opacity:1;stroke:#000000;stroke-width:0.0px;stroke-linecap:butt;stroke-linejoin:miter;stroke-opacity:1;"/>
<path class="atom-1" d="M 667.9,79.9 L 667.9,79.9 L 667.8,80.0 L 667.8,80.0 L 667.8,80.1 L 667.8,80.1 L 667.8,80.1 L 667.8,80.2 L 667.8,80.2 L 667.7,80.2 L 667.7,80.2 L 667.7,80.3 L 667.6,80.3 L 667.6,80.3 L 667.6,80.3 L 667.5,80.3 L 667.5,80.3 L 667.5,80.3 L 667.4,80.3 L 667.4,80.3 L 667.4,80.3 L 667.3,80.3 L 667.3,80.3 L 667.2,80.3 L 667.2,80.3 L 667.2,80.3 L 667.2,80.2 L 667.1,80.2 L 667.1,80.2 L 667.1,80.2 L 667.1,80.1 L 667.0,80.1 L 667.0,80.1 L 667.0,80.0 L 667.0,80.0 L 667.0,80.0 L 667.0,79.9 L 667.0,79.9 L 667.0,79.9 L 667.0,79.8 L 667.0,79.8 L 667.0,79.7 L 667.0,79.7 L 667.1,79.7 L 667.1,79.6 L 667.1,79.6 L 667.1,79.6 L 667.2,79.6 L 667.2,79.5 L 667.2,79.5 L 667.2,79.5 L 667.3,79.5 L 667.3,79.5 L 667.4,79.5 L 667.4,79.5 L 667.4,79.5 L 667.5,79.5 L 667.5,79.5 L 667.5,79.5 L 667.6,79.5 L 667.6,79.5 L 667.6,79.5 L 667.7,79.6 L 667.7,79.6 L 667.7,79.6 L 667.8,79.6 L 667.8,79.7 L 667.8,79.7 L 667.8,79.7 L 667.8,79.8 L 667.8,79.8 L 667.8,79.8 L 667.9,79.9 L 667.9,79.9 L 667.4,79.9 Z" style="fill:#000000;fill-rule:evenodd;fill-opacity:1;stroke:#000000;stroke-width:0.0px;stroke-linecap:butt;stroke-linejoin:miter;stroke-opacity:1;"/>
<path class="atom-1" d="M 666.1,79.9 L 666.1,79.9 L 666.1,80.0 L 666.1,80.0 L 666.1,80.1 L 666.1,80.1 L 666.1,80.1 L 666.0,80.2 L 666.0,80.2 L 666.0,80.2 L 666.0,80.2 L 665.9,80.3 L 665.9,80.3 L 665.9,80.3 L 665.8,80.3 L 665.8,80.3 L 665.8,80.3 L 665.7,80.3 L 665.7,80.3 L 665.7,80.3 L 665.6,80.3 L 665.6,80.3 L 665.6,80.3 L 665.5,80.3 L 665.5,80.3 L 665.5,80.3 L 665.4,80.2 L 665.4,80.2 L 665.4,80.2 L 665.3,80.2 L 665.3,80.1 L 665.3,80.1 L 665.3,80.1 L 665.3,80.0 L 665.3,80.0 L 665.3,80.0 L 665.3,79.9 L 665.3,79.9 L 665.3,79.9 L 665.3,79.8 L 665.3,79.8 L 665.3,79.7 L 665.3,79.7 L 665.3,79.7 L 665.3,79.6 L 665.4,79.6 L 665.4,79.6 L 665.4,79.6 L 665.5,79.5 L 665.5,79.5 L 665.5,79.5 L 665.6,79.5 L 665.6,79.5 L 665.6,79.5 L 665.7,79.5 L 665.7,79.5 L 665.7,79.5 L 665.8,79.5 L 665.8,79.5 L 665.8,79.5 L 665.9,79.5 L 665.9,79.5 L 665.9,79.6 L 666.0,79.6 L 666.0,79.6 L 666.0,79.6 L 666.0,79.7 L 666.1,79.7 L 666.1,79.7 L 666.1,79.8 L 666.1,79.8 L 666.1,79.8 L 666.1,79.9 L 666.1,79.9 L 665.7,79.9 Z" style="fill:#000000;fill-rule:evenodd;fill-opacity:1;stroke:#000000;stroke-width:0.0px;stroke-linecap:butt;stroke-linejoin:miter;stroke-opacity:1;"/>
<path class="bond-0 atom-0 atom-1" d="M 946.6,96.4 L 946.3,87.4" style="fill:none;fill-rule:evenodd;stroke:#000000;stroke-width:2.0px;stroke-linecap:butt;stroke-linejoin:miter;stroke-opacity:1"/>
<path class="bond-0 atom-0 atom-1" d="M 946.3,87.4 L 946.0,78.5" style="fill:none;fill-rule:evenodd;stroke:#0000FF;stroke-width:2.0px;stroke-linecap:butt;stroke-linejoin:miter;stroke-opacity:1"/>
<path class="bond-1 atom-1 atom-2" d="M 948.9,72.8 L 955.2,68.9" style="fill:none;fill-rule:evenodd;stroke:#0000FF;stroke-width:2.0px;stroke-linecap:butt;stroke-linejoin:miter;stroke-opacity:1"/>
<path class="bond-1 atom-1 atom-2" d="M 955.2,68.9 L 961.5,65.0" style="fill:none;fill-rule:evenodd;stroke:#000000;stroke-width:2.0px;stroke-linecap:butt;stroke-linejoin:miter;stroke-opacity:1"/>
<path class="bond-1 atom-1 atom-2" d="M 953.1,75.3 L 957.5,72.6" style="fill:none;fill-rule:evenodd;stroke:#0000FF;stroke-width:2.0px;stroke-linecap:butt;stroke-linejoin:miter;stroke-opacity:1"/>
<path class="bond-1 atom-1 atom-2" d="M 957.5,72.6 L 961.9,69.8" style="fill:none;fill-rule:evenodd;stroke:#000000;stroke-width:2.0px;stroke-linecap:butt;stroke-linejoin:miter;stroke-opacity:1"/>
<path class="bond-2 atom-2 atom-3" d="M 967.1,61.5 L 973.4,57.6" style="fill:none;fill-rule:evenodd;stroke:#000000;stroke-width:2.0px;stroke-linecap:butt;stroke-linejoin:miter;stroke-opacity:1"/>
<path class="bond-2 atom-2 atom-3" d="M 973.4,57.6 L 979.6,53.7" style="fill:none;fill-rule:evenodd;stroke:#0000FF;stroke-width:2.0px;stroke-linecap:butt;stroke-linejoin:miter;stroke-opacity:1"/>
<path class="bond-3 atom-3 atom-4" d="M 985.7,53.7 L 993.4,58.6" style="fill:none;fill-rule:evenodd;stroke:#0000FF;stroke-width:2.0px;stroke-linecap:butt;stroke-linejoin:miter;stroke-opacity:1"/>
<path class="bond-3 atom-3 atom-4" d="M 993.4,58.6 L 1001.0,63.4" style="fill:none;fill-rule:evenodd;stroke:#000000;stroke-width:2.0px;stroke-linecap:butt;stroke-linejoin:miter;stroke-opacity:1"/>
<path class="bond-4 atom-4 atom-5" d="M 1001.0,63.4 L 1021.5,56.3" style="fill:none;fill-rule:evenodd;stroke:#000000;stroke-width:2.0px;stroke-linecap:butt;stroke-linejoin:miter;stroke-opacity:1"/>
<path class="bond-5 atom-5 atom-6" d="M 1021.5,56.3 L 1024.4,48.0" style="fill:none;fill-rule:evenodd;stroke:#000000;stroke-width:2.0px;stroke-linecap:butt;stroke-linejoin:miter;stroke-opacity:1"/>
<path class="bond-5 atom-5 atom-6" d="M 1024.4,48.0 L 1027.4,39.7" style="fill:none;fill-rule:evenodd;stroke:#0000FF;stroke-width:2.0px;stroke-linecap:butt;stroke-linejoin:miter;stroke-opacity:1"/>
<path class="bond-6 atom-6 atom-7" d="M 1031.8,35.6 L 1041.0,34.6" style="fill:none;fill-rule:evenodd;stroke:#0000FF;stroke-width:2.0px;stroke-linecap:butt;stroke-linejoin:miter;stroke-opacity:1"/>
<path class="bond-6 atom-6 atom-7" d="M 1041.0,34.6 L 1050.3,33.6" style="fill:none;fill-rule:evenodd;stroke:#000000;stroke-width:2.0px;stroke-linecap:butt;stroke-linejoin:miter;stroke-opacity:1"/>
<path class="bond-7 atom-7 atom-8" d="M 1048.3,32.7 L 1051.8,24.7" style="fill:none;fill-rule:evenodd;stroke:#000000;stroke-width:2.0px;stroke-linecap:butt;stroke-linejoin:miter;stroke-opacity:1"/>
<path class="bond-7 atom-7 atom-8" d="M 1051.8,24.7 L 1055.3,16.8" style="fill:none;fill-rule:evenodd;stroke:#FF0000;stroke-width:2.0px;stroke-linecap:butt;stroke-linejoin:miter;stroke-opacity:1"/>
<path class="bond-7 atom-7 atom-8" d="M 1052.2,34.4 L 1055.8,26.5" style="fill:none;fill-rule:evenodd;stroke:#000000;stroke-width:2.0px;stroke-linecap:butt;stroke-linejoin:miter;stroke-opacity:1"/>
<path class="bond-7 atom-7 atom-8" d="M 1055.8,26.5 L 1059.3,18.5" style="fill:none;fill-rule:evenodd;stroke:#FF0000;stroke-width:2.0px;stroke-linecap:butt;stroke-linejoin:miter;stroke-opacity:1"/>
<path class="bond-8 atom-7 atom-9" d="M 1050.3,33.6 L 1063.1,51.0" style="fill:none;fill-rule:evenodd;stroke:#000000;stroke-width:2.0px;stroke-linecap:butt;stroke-linejoin:miter;stroke-opacity:1"/>
<path class="bond-9 atom-9 atom-10" d="M 1063.1,51.0 L 1056.4,71.7" style="fill:none;fill-rule:evenodd;stroke:#000000;stroke-width:2.0px;stroke-linecap:butt;stroke-linejoin:miter;stroke-opacity:1"/>
<path class="bond-9 atom-9 atom-10" d="M 1066.2,55.5 L 1061.6,69.9" style="fill:none;fill-rule:evenodd;stroke:#000000;stroke-width:2.0px;stroke-linecap:butt;stroke-linejoin:miter;stroke-opacity:1"/>
<path class="bond-10 atom-10 atom-11" d="M 1056.4,71.7 L 1035.8,78.4" style="fill:none;fill-rule:evenodd;stroke:#000000;stroke-width:2.0px;stroke-linecap:butt;stroke-linejoin:miter;stroke-opacity:1"/>
<path class="bond-11 atom-11 atom-12" d="M 1035.8,78.4 L 1031.4,99.7" style="fill:none;fill-rule:evenodd;stroke:#000000;stroke-width:2.0px;stroke-linecap:butt;stroke-linejoin:miter;stroke-opacity:1"/>
<path class="bond-12 atom-12 atom-13" d="M 1031.4,99.7 L 1047.6,114.1" style="fill:none;fill-rule:evenodd;stroke:#000000;stroke-width:2.0px;stroke-linecap:butt;stroke-linejoin:miter;stroke-opacity:1"/>
<path class="bond-12 atom-12 atom-13" d="M 1031.0,105.1 L 1042.3,115.2" style="fill:none;fill-rule:evenodd;stroke:#000000;stroke-width:2.0px;stroke-linecap:butt;stroke-linejoin:miter;stroke-opacity:1"/>
<path class="bond-13 atom-13 atom-14" d="M 1047.6,114.1 L 1043.1,135.3" style="fill:none;fill-rule:evenodd;stroke:#000000;stroke-width:2.0px;stroke-linecap:butt;stroke-linejoin:miter;stroke-opacity:1"/>
<path class="bond-14 atom-14 atom-15" d="M 1043.1,135.3 L 1022.5,142.1" style="fill:none;fill-rule:evenodd;stroke:#000000;stroke-width:2.0px;stroke-linecap:butt;stroke-linejoin:miter;stroke-opacity:1"/>
<path class="bond-14 atom-14 atom-15" d="M 1038.7,132.2 L 1024.3,137.0" style="fill:none;fill-rule:evenodd;stroke:#000000;stroke-width:2.0px;stroke-linecap:butt;stroke-linejoin:miter;stroke-opacity:1"/>
<path class="bond-15 atom-15 atom-16" d="M 1022.5,142.1 L 1006.4,127.6" style="fill:none;fill-rule:evenodd;stroke:#000000;stroke-width:2.0px;stroke-linecap:butt;stroke-linejoin:miter;stroke-opacity:1"/>
<path class="bond-16 atom-16 atom-17" d="M 1006.4,127.6 L 997.4,130.6" style="fill:none;fill-rule:evenodd;stroke:#000000;stroke-width:2.0px;stroke-linecap:butt;stroke-linejoin:miter;stroke-opacity:1"/>
<path class="bond-16 atom-16 atom-17" d="M 997.4,130.6 L 988.3,133.6" style="fill:none;fill-rule:evenodd;stroke:#33CCCC;stroke-width:2.0px;stroke-linecap:butt;stroke-linejoin:miter;stroke-opacity:1"/>
<path class="bond-17 atom-16 atom-18" d="M 1006.4,127.6 L 1010.8,106.4" style="fill:none;fill-rule:evenodd;stroke:#000000;stroke-width:2.0px;stroke-linecap:butt;stroke-linejoin:miter;stroke-opacity:1"/>
<path class="bond-17 atom-16 atom-18" d="M 1011.3,125.3 L 1014.4,110.5" style="fill:none;fill-rule:evenodd;stroke:#000000;stroke-width:2.0px;stroke-linecap:butt;stroke-linejoin:miter;stroke-opacity:1"/>
<path class="bond-18 atom-18 atom-19" d="M 1010.8,106.4 L 994.7,92.0" style="fill:none;fill-rule:evenodd;stroke:#000000;stroke-width:2.0px;stroke-linecap:butt;stroke-linejoin:miter;stroke-opacity:1"/>
<path class="bond-19 atom-10 atom-20" d="M 1056.4,71.7 L 1063.7,76.9" style="fill:none;fill-rule:evenodd;stroke:#000000;stroke-width:2.0px;stroke-linecap:butt;stroke-linejoin:miter;stroke-opacity:1"/>
<path class="bond-19 atom-10 atom-20" d="M 1063.7,76.9 L 1071.0,82.2" style="fill:none;fill-rule:evenodd;stroke:#0000FF;stroke-width:2.0px;stroke-linecap:butt;stroke-linejoin:miter;stroke-opacity:1"/>
<path class="bond-20 atom-20 atom-21" d="M 1074.0,88.1 L 1074.1,97.1" style="fill:none;fill-rule:evenodd;stroke:#0000FF;stroke-width:2.0px;stroke-linecap:butt;stroke-linejoin:miter;stroke-opacity:1"/>
<path class="bond-20 atom-20 atom-21" d="M 1074.1,97.1 L 1074.1,106.0" style="fill:none;fill-rule:evenodd;stroke:#000000;stroke-width:2.0px;stroke-linecap:butt;stroke-linejoin:miter;stroke-opacity:1"/>
<path class="bond-21 atom-21 atom-22" d="M 1074.1,106.0 L 1092.9,116.8" style="fill:none;fill-rule:evenodd;stroke:#000000;stroke-width:2.0px;stroke-linecap:butt;stroke-linejoin:miter;stroke-opacity:1"/>
<path class="bond-21 atom-21 atom-22" d="M 1074.8,111.4 L 1087.9,118.9" style="fill:none;fill-rule:evenodd;stroke:#000000;stroke-width:2.0px;stroke-linecap:butt;stroke-linejoin:miter;stroke-opacity:1"/>
<path class="bond-22 atom-22 atom-23" d="M 1092.9,116.8 L 1093.0,138.5" style="fill:none;fill-rule:evenodd;stroke:#000000;stroke-width:2.0px;stroke-linecap:butt;stroke-linejoin:miter;stroke-opacity:1"/>
<path class="bond-23 atom-23 atom-24" d="M 1093.0,138.5 L 1074.2,149.4" style="fill:none;fill-rule:evenodd;stroke:#000000;stroke-width:2.0px;stroke-linecap:butt;stroke-linejoin:miter;stroke-opacity:1"/>
<path class="bond-23 atom-23 atom-24" d="M 1088.0,136.4 L 1074.9,144.0" style="fill:none;fill-rule:evenodd;stroke:#000000;stroke-width:2.0px;stroke-linecap:butt;stroke-linejoin:miter;stroke-opacity:1"/>
<path class="bond-24 atom-24 atom-25" d="M 1074.2,149.4 L 1055.4,138.6" style="fill:none;fill-rule:evenodd;stroke:#000000;stroke-width:2.0px;stroke-linecap:butt;stroke-linejoin:miter;stroke-opacity:1"/>
<path class="bond-25 atom-25 atom-26" d="M 1055.4,138.6 L 1055.4,116.9" style="fill:none;fill-rule:evenodd;stroke:#000000;stroke-width:2.0px;stroke-linecap:butt;stroke-linejoin:miter;stroke-opacity:1"/>
<path class="bond-25 atom-25 atom-26" d="M 1059.8,135.3 L 1059.7,120.2" style="fill:none;fill-rule:evenodd;stroke:#000000;stroke-width:2.0px;stroke-linecap:butt;stroke-linejoin:miter;stroke-opacity:1"/>
<path class="bond-26 atom-20 atom-27" d="M 1077.1,82.1 L 1084.3,76.8" style="fill:none;fill-rule:evenodd;stroke:#0000FF;stroke-width:2.0px;stroke-linecap:butt;stroke-linejoin:miter;stroke-opacity:1"/>
<path class="bond-26 atom-20 atom-27" d="M 1084.3,76.8 L 1091.5,71.6" style="fill:none;fill-rule:evenodd;stroke:#000000;stroke-width:2.0px;stroke-linecap:butt;stroke-linejoin:miter;stroke-opacity:1"/>
<path class="bond-27 atom-27 atom-28" d="M 1091.5,71.6 L 1112.7,76.0" style="fill:none;fill-rule:evenodd;stroke:#000000;stroke-width:2.0px;stroke-linecap:butt;stroke-linejoin:miter;stroke-opacity:1"/>
<path class="bond-27 atom-27 atom-28" d="M 1095.6,68.0 L 1110.4,71.1" style="fill:none;fill-rule:evenodd;stroke:#000000;stroke-width:2.0px;stroke-linecap:butt;stroke-linejoin:miter;stroke-opacity:1"/>
<path class="bond-28 atom-28 atom-29" d="M 1112.7,76.0 L 1127.2,59.8" style="fill:none;fill-rule:evenodd;stroke:#000000;stroke-width:2.0px;stroke-linecap:butt;stroke-linejoin:miter;stroke-opacity:1"/>
<path class="bond-29 atom-29 atom-30" d="M 1127.2,59.8 L 1136.0,61.7" style="fill:none;fill-rule:evenodd;stroke:#000000;stroke-width:2.0px;stroke-linecap:butt;stroke-linejoin:miter;stroke-opacity:1"/>
<path class="bond-29 atom-29 atom-30" d="M 1136.0,61.7 L 1144.8,63.5" style="fill:none;fill-rule:evenodd;stroke:#FF0000;stroke-width:2.0px;stroke-linecap:butt;stroke-linejoin:miter;stroke-opacity:1"/>
<path class="bond-30 atom-29 atom-31" d="M 1127.2,59.8 L 1120.4,39.3" style="fill:none;fill-rule:evenodd;stroke:#000000;stroke-width:2.0px;stroke-linecap:butt;stroke-linejoin:miter;stroke-opacity:1"/>
<path class="bond-30 atom-29 atom-31" d="M 1122.0,58.1 L 1117.3,43.7" style="fill:none;fill-rule:evenodd;stroke:#000000;stroke-width:2.0px;stroke-linecap:butt;stroke-linejoin:miter;stroke-opacity:1"/>
<path class="bond-31 atom-31 atom-32" d="M 1120.4,39.3 L 1099.2,34.8" style="fill:none;fill-rule:evenodd;stroke:#000000;stroke-width:2.0px;stroke-linecap:butt;stroke-linejoin:miter;stroke-opacity:1"/>
<path class="bond-32 atom-32 atom-33" d="M 1099.2,34.8 L 1084.7,51.0" style="fill:none;fill-rule:evenodd;stroke:#000000;stroke-width:2.0px;stroke-linecap:butt;stroke-linejoin:miter;stroke-opacity:1"/>
<path class="bond-32 atom-32 atom-33" d="M 1100.2,40.1 L 1090.1,51.4" style="fill:none;fill-rule:evenodd;stroke:#000000;stroke-width:2.0px;stroke-linecap:butt;stroke-linejoin:miter;stroke-opacity:1"/>
<path class="bond-33 atom-6 atom-34" d="M 1026.4,32.1 L 1021.8,24.8" style="fill:none;fill-rule:evenodd;stroke:#0000FF;stroke-width:2.0px;stroke-linecap:butt;stroke-linejoin:miter;stroke-opacity:1"/>
<path class="bond-33 atom-6 atom-34" d="M 1021.8,24.8 L 1017.3,17.5" style="fill:none;fill-rule:evenodd;stroke:#000000;stroke-width:2.0px;stroke-linecap:butt;stroke-linejoin:miter;stroke-opacity:1"/>
<path class="bond-34 atom-34 atom-35" d="M 1017.3,17.5 L 995.7,15.0" style="fill:none;fill-rule:evenodd;stroke:#000000;stroke-width:2.0px;stroke-linecap:butt;stroke-linejoin:miter;stroke-opacity:1"/>
<path class="bond-35 atom-35 atom-36" d="M 995.7,15.0 L 989.6,21.1" style="fill:none;fill-rule:evenodd;stroke:#000000;stroke-width:2.0px;stroke-linecap:butt;stroke-linejoin:miter;stroke-opacity:1"/>
<path class="bond-35 atom-35 atom-36" d="M 989.6,21.1 L 983.4,27.2" style="fill:none;fill-rule:evenodd;stroke:#0000FF;stroke-width:2.0px;stroke-linecap:butt;stroke-linejoin:miter;stroke-opacity:1"/>
<path class="bond-36 atom-36 atom-3" d="M 980.8,34.0 L 982.3,48.0" style="fill:none;fill-rule:evenodd;stroke:#0000FF;stroke-width:2.0px;stroke-linecap:butt;stroke-linejoin:miter;stroke-opacity:1"/>
<path class="bond-37 atom-33 atom-9" d="M 1084.7,51.0 L 1063.1,51.0" style="fill:none;fill-rule:evenodd;stroke:#000000;stroke-width:2.0px;stroke-linecap:butt;stroke-linejoin:miter;stroke-opacity:1"/>
<path class="bond-38 atom-18 atom-12" d="M 1010.8,106.4 L 1031.4,99.7" style="fill:none;fill-rule:evenodd;stroke:#000000;stroke-width:2.0px;stroke-linecap:butt;stroke-linejoin:miter;stroke-opacity:1"/>
<path class="bond-39 atom-26 atom-21" d="M 1055.4,116.9 L 1074.1,106.0" style="fill:none;fill-rule:evenodd;stroke:#000000;stroke-width:2.0px;stroke-linecap:butt;stroke-linejoin:miter;stroke-opacity:1"/>
<path class="bond-40 atom-33 atom-27" d="M 1084.7,51.0 L 1091.5,71.6" style="fill:none;fill-rule:evenodd;stroke:#000000;stroke-width:2.0px;stroke-linecap:butt;stroke-linejoin:miter;stroke-opacity:1"/>
<path class="atom-1" d="M 944.5 71.6 L 946.6 74.9 Q 946.8 75.2, 947.1 75.8 Q 947.4 76.4, 947.4 76.4 L 947.4 71.6 L 948.2 71.6 L 948.2 77.8 L 947.4 77.8 L 945.2 74.2 Q 945.0 73.8, 944.7 73.3 Q 944.4 72.9, 944.4 72.7 L 944.4 77.8 L 943.6 77.8 L 943.6 71.6 L 944.5 71.6 " fill="#0000FF"/>
<path class="atom-2" d="M 965.2 63.1 Q 965.8 63.3, 966.1 63.6 Q 966.4 64.0, 966.4 64.5 Q 966.4 65.4, 965.8 65.8 Q 965.3 66.3, 964.3 66.3 L 962.2 66.3 L 962.2 60.2 L 964.0 60.2 Q 965.1 60.2, 965.6 60.6 Q 966.1 61.0, 966.1 61.8 Q 966.1 62.7, 965.2 63.1 M 963.0 60.9 L 963.0 62.8 L 964.0 62.8 Q 964.6 62.8, 964.9 62.6 Q 965.3 62.3, 965.3 61.8 Q 965.3 60.9, 964.0 60.9 L 963.0 60.9 M 964.3 65.6 Q 964.9 65.6, 965.2 65.3 Q 965.5 65.1, 965.5 64.5 Q 965.5 64.0, 965.2 63.8 Q 964.8 63.5, 964.1 63.5 L 963.0 63.5 L 963.0 65.6 L 964.3 65.6 " fill="#000000"/>
<path class="atom-3" d="M 981.3 48.7 L 983.3 52.0 Q 983.5 52.3, 983.9 52.9 Q 984.2 53.5, 984.2 53.5 L 984.2 48.7 L 985.0 48.7 L 985.0 54.9 L 984.2 54.9 L 982.0 51.3 Q 981.8 50.9, 981.5 50.4 Q 981.2 49.9, 981.2 49.8 L 981.2 54.9 L 980.4 54.9 L 980.4 48.7 L 981.3 48.7 " fill="#0000FF"/>
<path class="atom-6" d="M 1027.4 32.8 L 1029.4 36.1 Q 1029.6 36.4, 1029.9 37.0 Q 1030.2 37.6, 1030.2 37.6 L 1030.2 32.8 L 1031.0 32.8 L 1031.0 39.0 L 1030.2 39.0 L 1028.0 35.4 Q 1027.8 35.0, 1027.5 34.5 Q 1027.3 34.0, 1027.2 33.9 L 1027.2 39.0 L 1026.4 39.0 L 1026.4 32.8 L 1027.4 32.8 " fill="#0000FF"/>
<path class="atom-8" d="M 1056.2 13.7 Q 1056.2 12.3, 1056.9 11.4 Q 1057.7 10.6, 1059.0 10.6 Q 1060.4 10.6, 1061.1 11.4 Q 1061.8 12.3, 1061.8 13.7 Q 1061.8 15.2, 1061.1 16.1 Q 1060.4 16.9, 1059.0 16.9 Q 1057.7 16.9, 1056.9 16.1 Q 1056.2 15.2, 1056.2 13.7 M 1059.0 16.2 Q 1059.9 16.2, 1060.5 15.6 Q 1061.0 15.0, 1061.0 13.7 Q 1061.0 12.5, 1060.5 11.9 Q 1059.9 11.3, 1059.0 11.3 Q 1058.1 11.3, 1057.6 11.9 Q 1057.1 12.5, 1057.1 13.7 Q 1057.1 15.0, 1057.6 15.6 Q 1058.1 16.2, 1059.0 16.2 " fill="#FF0000"/>
<path class="atom-17" d="M 984.0 131.3 L 987.6 131.3 L 987.6 132.0 L 984.8 132.0 L 984.8 133.9 L 987.3 133.9 L 987.3 134.6 L 984.8 134.6 L 984.8 137.5 L 984.0 137.5 L 984.0 131.3 " fill="#33CCCC"/>
<path class="atom-20" d="M 1072.7 81.3 L 1074.7 84.5 Q 1074.9 84.9, 1075.2 85.4 Q 1075.5 86.0, 1075.5 86.1 L 1075.5 81.3 L 1076.3 81.3 L 1076.3 87.4 L 1075.5 87.4 L 1073.3 83.9 Q 1073.1 83.5, 1072.8 83.0 Q 1072.6 82.5, 1072.5 82.4 L 1072.5 87.4 L 1071.7 87.4 L 1071.7 81.3 L 1072.7 81.3 " fill="#0000FF"/>
<path class="atom-30" d="M 1145.6 64.3 Q 1145.6 62.8, 1146.3 62.0 Q 1147.0 61.2, 1148.4 61.2 Q 1149.7 61.2, 1150.5 62.0 Q 1151.2 62.8, 1151.2 64.3 Q 1151.2 65.8, 1150.5 66.6 Q 1149.7 67.5, 1148.4 67.5 Q 1147.0 67.5, 1146.3 66.6 Q 1145.6 65.8, 1145.6 64.3 M 1148.4 66.8 Q 1149.3 66.8, 1149.8 66.2 Q 1150.3 65.5, 1150.3 64.3 Q 1150.3 63.1, 1149.8 62.5 Q 1149.3 61.9, 1148.4 61.9 Q 1147.4 61.9, 1146.9 62.5 Q 1146.4 63.1, 1146.4 64.3 Q 1146.4 65.5, 1146.9 66.2 Q 1147.4 66.8, 1148.4 66.8 " fill="#FF0000"/>
<path class="atom-30" d="M 1151.6 61.2 L 1152.5 61.2 L 1152.5 63.8 L 1155.6 63.8 L 1155.6 61.2 L 1156.4 61.2 L 1156.4 67.4 L 1155.6 67.4 L 1155.6 64.5 L 1152.5 64.5 L 1152.5 67.4 L 1151.6 67.4 L 1151.6 61.2 " fill="#FF0000"/>
<path class="atom-36" d="M 972.5 27.2 L 973.3 27.2 L 973.3 29.8 L 976.5 29.8 L 976.5 27.2 L 977.3 27.2 L 977.3 33.3 L 976.5 33.3 L 976.5 30.5 L 973.3 30.5 L 973.3 33.3 L 972.5 33.3 L 972.5 27.2 " fill="#0000FF"/>
<path class="atom-36" d="M 979.0 27.2 L 981.0 30.4 Q 981.2 30.8, 981.5 31.3 Q 981.8 31.9, 981.9 31.9 L 981.9 27.2 L 982.7 27.2 L 982.7 33.3 L 981.8 33.3 L 979.7 29.8 Q 979.4 29.3, 979.2 28.9 Q 978.9 28.4, 978.8 28.2 L 978.8 33.3 L 978.0 33.3 L 978.0 27.2 L 979.0 27.2 " fill="#0000FF"/>
<path class="atom-0" d="M 949.7,94.2 L 949.7,94.2 L 949.6,94.3 L 949.6,94.3 L 949.6,94.3 L 949.6,94.4 L 949.6,94.4 L 949.6,94.4 L 949.6,94.5 L 949.5,94.5 L 949.5,94.5 L 949.5,94.5 L 949.4,94.6 L 949.4,94.6 L 949.4,94.6 L 949.3,94.6 L 949.3,94.6 L 949.3,94.6 L 949.2,94.6 L 949.2,94.6 L 949.2,94.6 L 949.1,94.6 L 949.1,94.6 L 949.0,94.6 L 949.0,94.6 L 949.0,94.6 L 949.0,94.5 L 948.9,94.5 L 948.9,94.5 L 948.9,94.5 L 948.9,94.4 L 948.8,94.4 L 948.8,94.4 L 948.8,94.3 L 948.8,94.3 L 948.8,94.3 L 948.8,94.2 L 948.8,94.2 L 948.8,94.1 L 948.8,94.1 L 948.8,94.1 L 948.8,94.0 L 948.8,94.0 L 948.9,94.0 L 948.9,93.9 L 948.9,93.9 L 948.9,93.9 L 949.0,93.9 L 949.0,93.8 L 949.0,93.8 L 949.0,93.8 L 949.1,93.8 L 949.1,93.8 L 949.2,93.8 L 949.2,93.8 L 949.2,93.8 L 949.3,93.8 L 949.3,93.8 L 949.3,93.8 L 949.4,93.8 L 949.4,93.8 L 949.4,93.8 L 949.5,93.8 L 949.5,93.9 L 949.5,93.9 L 949.6,93.9 L 949.6,94.0 L 949.6,94.0 L 949.6,94.0 L 949.6,94.1 L 949.6,94.1 L 949.6,94.1 L 949.7,94.2 L 949.7,94.2 L 949.2,94.2 Z" style="fill:#000000;fill-rule:evenodd;fill-opacity:1;stroke:#000000;stroke-width:0.0px;stroke-linecap:butt;stroke-linejoin:miter;stroke-opacity:1;"/>
<path class="atom-0" d="M 949.7,98.5 L 949.7,98.6 L 949.6,98.6 L 949.6,98.6 L 949.6,98.7 L 949.6,98.7 L 949.6,98.7 L 949.6,98.8 L 949.6,98.8 L 949.5,98.8 L 949.5,98.9 L 949.5,98.9 L 949.4,98.9 L 949.4,98.9 L 949.4,98.9 L 949.3,98.9 L 949.3,99.0 L 949.3,99.0 L 949.2,99.0 L 949.2,99.0 L 949.2,99.0 L 949.1,99.0 L 949.1,98.9 L 949.0,98.9 L 949.0,98.9 L 949.0,98.9 L 949.0,98.9 L 948.9,98.8 L 948.9,98.8 L 948.9,98.8 L 948.9,98.8 L 948.8,98.7 L 948.8,98.7 L 948.8,98.7 L 948.8,98.6 L 948.8,98.6 L 948.8,98.6 L 948.8,98.5 L 948.8,98.5 L 948.8,98.4 L 948.8,98.4 L 948.8,98.4 L 948.8,98.3 L 948.9,98.3 L 948.9,98.3 L 948.9,98.2 L 948.9,98.2 L 949.0,98.2 L 949.0,98.2 L 949.0,98.2 L 949.0,98.1 L 949.1,98.1 L 949.1,98.1 L 949.2,98.1 L 949.2,98.1 L 949.2,98.1 L 949.3,98.1 L 949.3,98.1 L 949.3,98.1 L 949.4,98.1 L 949.4,98.1 L 949.4,98.2 L 949.5,98.2 L 949.5,98.2 L 949.5,98.2 L 949.6,98.3 L 949.6,98.3 L 949.6,98.3 L 949.6,98.4 L 949.6,98.4 L 949.6,98.4 L 949.6,98.5 L 949.7,98.5 L 949.7,98.5 L 949.2,98.5 Z" style="fill:#000000;fill-rule:evenodd;fill-opacity:1;stroke:#000000;stroke-width:0.0px;stroke-linecap:butt;stroke-linejoin:miter;stroke-opacity:1;"/>
<path class="atom-0" d="M 949.7,96.4 L 949.7,96.4 L 949.6,96.4 L 949.6,96.5 L 949.6,96.5 L 949.6,96.5 L 949.6,96.6 L 949.6,96.6 L 949.6,96.6 L 949.5,96.7 L 949.5,96.7 L 949.5,96.7 L 949.4,96.7 L 949.4,96.8 L 949.4,96.8 L 949.3,96.8 L 949.3,96.8 L 949.3,96.8 L 949.2,96.8 L 949.2,96.8 L 949.2,96.8 L 949.1,96.8 L 949.1,96.8 L 949.0,96.8 L 949.0,96.7 L 949.0,96.7 L 949.0,96.7 L 948.9,96.7 L 948.9,96.7 L 948.9,96.6 L 948.9,96.6 L 948.8,96.6 L 948.8,96.5 L 948.8,96.5 L 948.8,96.5 L 948.8,96.4 L 948.8,96.4 L 948.8,96.3 L 948.8,96.3 L 948.8,96.3 L 948.8,96.2 L 948.8,96.2 L 948.8,96.2 L 948.9,96.1 L 948.9,96.1 L 948.9,96.1 L 948.9,96.0 L 949.0,96.0 L 949.0,96.0 L 949.0,96.0 L 949.0,96.0 L 949.1,96.0 L 949.1,95.9 L 949.2,95.9 L 949.2,95.9 L 949.2,95.9 L 949.3,95.9 L 949.3,95.9 L 949.3,95.9 L 949.4,96.0 L 949.4,96.0 L 949.4,96.0 L 949.5,96.0 L 949.5,96.0 L 949.5,96.1 L 949.6,96.1 L 949.6,96.1 L 949.6,96.2 L 949.6,96.2 L 949.6,96.2 L 949.6,96.3 L 949.6,96.3 L 949.7,96.3 L 949.7,96.4 L 949.2,96.4 Z" style="fill:#000000;fill-rule:evenodd;fill-opacity:1;stroke:#000000;stroke-width:0.0px;stroke-linecap:butt;stroke-linejoin:miter;stroke-opacity:1;"/>
</svg>