<svg xmlns="http://www.w3.org/2000/svg" xmlns:rdkit="http://www.rdkit.org/xml" xmlns:xlink="http://www.w3.org/1999/xlink" version="1.1" baseProfile="full" xml:space="preserve" width="900px" height="160px" viewBox="0 0 900 160">
<!-- END OF HEADER -->
<rect style="opacity:1.0;fill:#FFFFFF;stroke:none" width="900.0" height="160.0" x="0.0" y="0.0"> </rect>
<path class="bond-0 atom-0 atom-1" d="M 59.2,65.7 L 72.4,58.0" style="fill:none;fill-rule:evenodd;stroke:#000000;stroke-width:2.0px;stroke-linecap:butt;stroke-linejoin:miter;stroke-opacity:1"/>
<path class="bond-1 atom-1 atom-2" d="M 72.4,58.0 L 78.0,61.1" style="fill:none;fill-rule:evenodd;stroke:#000000;stroke-width:2.0px;stroke-linecap:butt;stroke-linejoin:miter;stroke-opacity:1"/>
<path class="bond-1 atom-1 atom-2" d="M 78.0,61.1 L 83.6,64.3" style="fill:none;fill-rule:evenodd;stroke:#0000FF;stroke-width:2.0px;stroke-linecap:butt;stroke-linejoin:miter;stroke-opacity:1"/>
<path class="bond-1 atom-1 atom-2" d="M 72.6,61.6 L 76.5,63.8" style="fill:none;fill-rule:evenodd;stroke:#000000;stroke-width:2.0px;stroke-linecap:butt;stroke-linejoin:miter;stroke-opacity:1"/>
<path class="bond-1 atom-1 atom-2" d="M 76.5,63.8 L 80.4,66.0" style="fill:none;fill-rule:evenodd;stroke:#0000FF;stroke-width:2.0px;stroke-linecap:butt;stroke-linejoin:miter;stroke-opacity:1"/>
<path class="bond-2 atom-2 atom-3" d="M 87.9,64.2 L 93.4,61.0" style="fill:none;fill-rule:evenodd;stroke:#0000FF;stroke-width:2.0px;stroke-linecap:butt;stroke-linejoin:miter;stroke-opacity:1"/>
<path class="bond-2 atom-2 atom-3" d="M 93.4,61.0 L 98.9,57.7" style="fill:none;fill-rule:evenodd;stroke:#000000;stroke-width:2.0px;stroke-linecap:butt;stroke-linejoin:miter;stroke-opacity:1"/>
<path class="bond-3 atom-3 atom-4" d="M 97.4,57.7 L 97.3,51.4" style="fill:none;fill-rule:evenodd;stroke:#000000;stroke-width:2.0px;stroke-linecap:butt;stroke-linejoin:miter;stroke-opacity:1"/>
<path class="bond-3 atom-3 atom-4" d="M 97.3,51.4 L 97.2,45.1" style="fill:none;fill-rule:evenodd;stroke:#0000FF;stroke-width:2.0px;stroke-linecap:butt;stroke-linejoin:miter;stroke-opacity:1"/>
<path class="bond-3 atom-3 atom-4" d="M 100.4,57.7 L 100.4,51.4" style="fill:none;fill-rule:evenodd;stroke:#000000;stroke-width:2.0px;stroke-linecap:butt;stroke-linejoin:miter;stroke-opacity:1"/>
<path class="bond-3 atom-3 atom-4" d="M 100.4,51.4 L 100.3,45.1" style="fill:none;fill-rule:evenodd;stroke:#0000FF;stroke-width:2.0px;stroke-linecap:butt;stroke-linejoin:miter;stroke-opacity:1"/>
<path class="bond-4 atom-3 atom-5" d="M 98.9,57.7 L 112.2,65.2" style="fill:none;fill-rule:evenodd;stroke:#000000;stroke-width:2.0px;stroke-linecap:butt;stroke-linejoin:miter;stroke-opacity:1"/>
<path class="bond-5 atom-5 atom-6" d="M 112.2,65.2 L 113.9,80.4" style="fill:none;fill-rule:evenodd;stroke:#000000;stroke-width:2.0px;stroke-linecap:butt;stroke-linejoin:miter;stroke-opacity:1"/>
<path class="bond-5 atom-5 atom-6" d="M 115.5,67.2 L 116.7,77.8" style="fill:none;fill-rule:evenodd;stroke:#000000;stroke-width:2.0px;stroke-linecap:butt;stroke-linejoin:miter;stroke-opacity:1"/>
<path class="bond-6 atom-6 atom-7" d="M 113.9,80.4 L 120.4,81.7" style="fill:none;fill-rule:evenodd;stroke:#000000;stroke-width:2.0px;stroke-linecap:butt;stroke-linejoin:miter;stroke-opacity:1"/>
<path class="bond-6 atom-6 atom-7" d="M 120.4,81.7 L 126.8,83.0" style="fill:none;fill-rule:evenodd;stroke:#0000FF;stroke-width:2.0px;stroke-linecap:butt;stroke-linejoin:miter;stroke-opacity:1"/>
<path class="bond-7 atom-7 atom-8" d="M 130.1,86.1 L 132.7,91.8" style="fill:none;fill-rule:evenodd;stroke:#0000FF;stroke-width:2.0px;stroke-linecap:butt;stroke-linejoin:miter;stroke-opacity:1"/>
<path class="bond-7 atom-7 atom-8" d="M 132.7,91.8 L 135.3,97.4" style="fill:none;fill-rule:evenodd;stroke:#000000;stroke-width:2.0px;stroke-linecap:butt;stroke-linejoin:miter;stroke-opacity:1"/>
<path class="bond-8 atom-8 atom-9" d="M 135.3,97.4 L 120.5,101.2" style="fill:none;fill-rule:evenodd;stroke:#000000;stroke-width:2.0px;stroke-linecap:butt;stroke-linejoin:miter;stroke-opacity:1"/>
<path class="bond-9 atom-9 atom-10" d="M 120.5,101.2 L 109.7,90.3" style="fill:none;fill-rule:evenodd;stroke:#000000;stroke-width:2.0px;stroke-linecap:butt;stroke-linejoin:miter;stroke-opacity:1"/>
<path class="bond-10 atom-10 atom-11" d="M 109.7,90.3 L 105.5,86.0" style="fill:none;fill-rule:evenodd;stroke:#000000;stroke-width:2.0px;stroke-linecap:butt;stroke-linejoin:miter;stroke-opacity:1"/>
<path class="bond-10 atom-10 atom-11" d="M 105.5,86.0 L 101.2,81.6" style="fill:none;fill-rule:evenodd;stroke:#0000FF;stroke-width:2.0px;stroke-linecap:butt;stroke-linejoin:miter;stroke-opacity:1"/>
<path class="bond-10 atom-10 atom-11" d="M 106.3,91.1 L 102.6,87.4" style="fill:none;fill-rule:evenodd;stroke:#000000;stroke-width:2.0px;stroke-linecap:butt;stroke-linejoin:miter;stroke-opacity:1"/>
<path class="bond-10 atom-10 atom-11" d="M 102.6,87.4 L 99.0,83.7" style="fill:none;fill-rule:evenodd;stroke:#0000FF;stroke-width:2.0px;stroke-linecap:butt;stroke-linejoin:miter;stroke-opacity:1"/>
<path class="bond-10 atom-10 atom-11" d="M 110.6,86.9 L 107.0,83.2" style="fill:none;fill-rule:evenodd;stroke:#000000;stroke-width:2.0px;stroke-linecap:butt;stroke-linejoin:miter;stroke-opacity:1"/>
<path class="bond-10 atom-10 atom-11" d="M 107.0,83.2 L 103.3,79.4" style="fill:none;fill-rule:evenodd;stroke:#0000FF;stroke-width:2.0px;stroke-linecap:butt;stroke-linejoin:miter;stroke-opacity:1"/>
<path class="bond-11 atom-8 atom-12" d="M 135.3,97.4 L 136.5,112.6" style="fill:none;fill-rule:evenodd;stroke:#000000;stroke-width:2.0px;stroke-linecap:butt;stroke-linejoin:miter;stroke-opacity:1"/>
<path class="bond-12 atom-12 atom-13" d="M 136.5,112.6 L 150.3,119.2" style="fill:none;fill-rule:evenodd;stroke:#000000;stroke-width:2.0px;stroke-linecap:butt;stroke-linejoin:miter;stroke-opacity:1"/>
<path class="bond-13 atom-13 atom-14" d="M 150.3,119.2 L 155.5,115.6" style="fill:none;fill-rule:evenodd;stroke:#000000;stroke-width:2.0px;stroke-linecap:butt;stroke-linejoin:miter;stroke-opacity:1"/>
<path class="bond-13 atom-13 atom-14" d="M 155.5,115.6 L 160.7,112.0" style="fill:none;fill-rule:evenodd;stroke:#0000FF;stroke-width:2.0px;stroke-linecap:butt;stroke-linejoin:miter;stroke-opacity:1"/>
<path class="bond-14 atom-14 atom-15" d="M 165.0,111.5 L 170.9,114.3" style="fill:none;fill-rule:evenodd;stroke:#0000FF;stroke-width:2.0px;stroke-linecap:butt;stroke-linejoin:miter;stroke-opacity:1"/>
<path class="bond-14 atom-14 atom-15" d="M 170.9,114.3 L 176.7,117.1" style="fill:none;fill-rule:evenodd;stroke:#000000;stroke-width:2.0px;stroke-linecap:butt;stroke-linejoin:miter;stroke-opacity:1"/>
<path class="bond-15 atom-15 atom-16" d="M 175.8,115.8 L 180.9,112.4" style="fill:none;fill-rule:evenodd;stroke:#000000;stroke-width:2.0px;stroke-linecap:butt;stroke-linejoin:miter;stroke-opacity:1"/>
<path class="bond-15 atom-15 atom-16" d="M 180.9,112.4 L 185.9,108.9" style="fill:none;fill-rule:evenodd;stroke:#FF0000;stroke-width:2.0px;stroke-linecap:butt;stroke-linejoin:miter;stroke-opacity:1"/>
<path class="bond-15 atom-15 atom-16" d="M 177.6,118.4 L 182.6,114.9" style="fill:none;fill-rule:evenodd;stroke:#000000;stroke-width:2.0px;stroke-linecap:butt;stroke-linejoin:miter;stroke-opacity:1"/>
<path class="bond-15 atom-15 atom-16" d="M 182.6,114.9 L 187.7,111.4" style="fill:none;fill-rule:evenodd;stroke:#FF0000;stroke-width:2.0px;stroke-linecap:butt;stroke-linejoin:miter;stroke-opacity:1"/>
<path class="bond-16 atom-15 atom-17" d="M 176.7,117.1 L 177.2,123.4" style="fill:none;fill-rule:evenodd;stroke:#000000;stroke-width:2.0px;stroke-linecap:butt;stroke-linejoin:miter;stroke-opacity:1"/>
<path class="bond-16 atom-15 atom-17" d="M 177.2,123.4 L 177.7,129.7" style="fill:none;fill-rule:evenodd;stroke:#FF0000;stroke-width:2.0px;stroke-linecap:butt;stroke-linejoin:miter;stroke-opacity:1"/>
<path class="bond-17 atom-17 atom-18" d="M 180.4,133.5 L 186.1,136.2" style="fill:none;fill-rule:evenodd;stroke:#FF0000;stroke-width:2.0px;stroke-linecap:butt;stroke-linejoin:miter;stroke-opacity:1"/>
<path class="bond-17 atom-17 atom-18" d="M 186.1,136.2 L 191.7,138.9" style="fill:none;fill-rule:evenodd;stroke:#000000;stroke-width:2.0px;stroke-linecap:butt;stroke-linejoin:miter;stroke-opacity:1"/>
<path class="bond-18 atom-18 atom-19" d="M 191.7,138.9 L 185.1,152.7" style="fill:none;fill-rule:evenodd;stroke:#000000;stroke-width:2.0px;stroke-linecap:butt;stroke-linejoin:miter;stroke-opacity:1"/>
<path class="bond-19 atom-18 atom-20" d="M 191.7,138.9 L 198.3,125.1" style="fill:none;fill-rule:evenodd;stroke:#000000;stroke-width:2.0px;stroke-linecap:butt;stroke-linejoin:miter;stroke-opacity:1"/>
<path class="bond-20 atom-18 atom-21" d="M 191.7,138.9 L 205.5,145.5" style="fill:none;fill-rule:evenodd;stroke:#000000;stroke-width:2.0px;stroke-linecap:butt;stroke-linejoin:miter;stroke-opacity:1"/>
<path class="bond-21 atom-14 atom-22" d="M 162.7,107.9 L 162.2,101.6" style="fill:none;fill-rule:evenodd;stroke:#0000FF;stroke-width:2.0px;stroke-linecap:butt;stroke-linejoin:miter;stroke-opacity:1"/>
<path class="bond-21 atom-14 atom-22" d="M 162.2,101.6 L 161.7,95.3" style="fill:none;fill-rule:evenodd;stroke:#000000;stroke-width:2.0px;stroke-linecap:butt;stroke-linejoin:miter;stroke-opacity:1"/>
<path class="bond-22 atom-22 atom-23" d="M 161.7,95.3 L 147.9,88.7" style="fill:none;fill-rule:evenodd;stroke:#000000;stroke-width:2.0px;stroke-linecap:butt;stroke-linejoin:miter;stroke-opacity:1"/>
<path class="bond-23 atom-7 atom-24" d="M 130.4,80.8 L 134.9,72.8" style="fill:none;fill-rule:evenodd;stroke:#0000FF;stroke-width:2.0px;stroke-linecap:butt;stroke-linejoin:miter;stroke-opacity:1"/>
<path class="bond-24 atom-24 atom-25" d="M 134.3,67.8 L 130.2,63.3" style="fill:none;fill-rule:evenodd;stroke:#0000FF;stroke-width:2.0px;stroke-linecap:butt;stroke-linejoin:miter;stroke-opacity:1"/>
<path class="bond-24 atom-24 atom-25" d="M 130.2,63.3 L 126.1,58.9" style="fill:none;fill-rule:evenodd;stroke:#000000;stroke-width:2.0px;stroke-linecap:butt;stroke-linejoin:miter;stroke-opacity:1"/>
<path class="bond-24 atom-24 atom-25" d="M 130.8,68.5 L 128.0,65.4" style="fill:none;fill-rule:evenodd;stroke:#0000FF;stroke-width:2.0px;stroke-linecap:butt;stroke-linejoin:miter;stroke-opacity:1"/>
<path class="bond-24 atom-24 atom-25" d="M 128.0,65.4 L 125.1,62.3" style="fill:none;fill-rule:evenodd;stroke:#000000;stroke-width:2.0px;stroke-linecap:butt;stroke-linejoin:miter;stroke-opacity:1"/>
<path class="bond-25 atom-25 atom-26" d="M 126.1,58.9 L 127.4,52.7" style="fill:none;fill-rule:evenodd;stroke:#000000;stroke-width:2.0px;stroke-linecap:butt;stroke-linejoin:miter;stroke-opacity:1"/>
<path class="bond-25 atom-25 atom-26" d="M 127.4,52.7 L 128.6,46.6" style="fill:none;fill-rule:evenodd;stroke:#0000FF;stroke-width:2.0px;stroke-linecap:butt;stroke-linejoin:miter;stroke-opacity:1"/>
<path class="bond-26 atom-26 atom-27" d="M 131.3,43.2 L 137.5,41.1" style="fill:none;fill-rule:evenodd;stroke:#0000FF;stroke-width:2.0px;stroke-linecap:butt;stroke-linejoin:miter;stroke-opacity:1"/>
<path class="bond-26 atom-26 atom-27" d="M 137.5,41.1 L 143.6,39.0" style="fill:none;fill-rule:evenodd;stroke:#000000;stroke-width:2.0px;stroke-linecap:butt;stroke-linejoin:miter;stroke-opacity:1"/>
<path class="bond-27 atom-27 atom-28" d="M 143.6,39.0 L 155.1,49.2" style="fill:none;fill-rule:evenodd;stroke:#000000;stroke-width:2.0px;stroke-linecap:butt;stroke-linejoin:miter;stroke-opacity:1"/>
<path class="bond-27 atom-27 atom-28" d="M 147.4,38.3 L 155.4,45.3" style="fill:none;fill-rule:evenodd;stroke:#000000;stroke-width:2.0px;stroke-linecap:butt;stroke-linejoin:miter;stroke-opacity:1"/>
<path class="bond-28 atom-28 atom-29" d="M 155.1,49.2 L 169.6,44.3" style="fill:none;fill-rule:evenodd;stroke:#000000;stroke-width:2.0px;stroke-linecap:butt;stroke-linejoin:miter;stroke-opacity:1"/>
<path class="bond-29 atom-29 atom-30" d="M 169.6,44.3 L 172.6,29.3" style="fill:none;fill-rule:evenodd;stroke:#000000;stroke-width:2.0px;stroke-linecap:butt;stroke-linejoin:miter;stroke-opacity:1"/>
<path class="bond-29 atom-29 atom-30" d="M 167.1,41.4 L 169.2,31.0" style="fill:none;fill-rule:evenodd;stroke:#000000;stroke-width:2.0px;stroke-linecap:butt;stroke-linejoin:miter;stroke-opacity:1"/>
<path class="bond-30 atom-30 atom-31" d="M 172.6,29.3 L 187.1,24.4" style="fill:none;fill-rule:evenodd;stroke:#000000;stroke-width:2.0px;stroke-linecap:butt;stroke-linejoin:miter;stroke-opacity:1"/>
<path class="bond-31 atom-31 atom-32" d="M 185.6,24.1 L 186.9,18.0" style="fill:none;fill-rule:evenodd;stroke:#000000;stroke-width:2.0px;stroke-linecap:butt;stroke-linejoin:miter;stroke-opacity:1"/>
<path class="bond-31 atom-31 atom-32" d="M 186.9,18.0 L 188.1,11.9" style="fill:none;fill-rule:evenodd;stroke:#FF0000;stroke-width:2.0px;stroke-linecap:butt;stroke-linejoin:miter;stroke-opacity:1"/>
<path class="bond-31 atom-31 atom-32" d="M 188.6,24.8 L 189.9,18.6" style="fill:none;fill-rule:evenodd;stroke:#000000;stroke-width:2.0px;stroke-linecap:butt;stroke-linejoin:miter;stroke-opacity:1"/>
<path class="bond-31 atom-31 atom-32" d="M 189.9,18.6 L 191.1,12.5" style="fill:none;fill-rule:evenodd;stroke:#FF0000;stroke-width:2.0px;stroke-linecap:butt;stroke-linejoin:miter;stroke-opacity:1"/>
<path class="bond-32 atom-31 atom-33" d="M 187.1,24.4 L 191.8,28.6" style="fill:none;fill-rule:evenodd;stroke:#000000;stroke-width:2.0px;stroke-linecap:butt;stroke-linejoin:miter;stroke-opacity:1"/>
<path class="bond-32 atom-31 atom-33" d="M 191.8,28.6 L 196.5,32.7" style="fill:none;fill-rule:evenodd;stroke:#0000FF;stroke-width:2.0px;stroke-linecap:butt;stroke-linejoin:miter;stroke-opacity:1"/>
<path class="bond-33 atom-33 atom-34" d="M 198.1,37.2 L 196.8,43.4" style="fill:none;fill-rule:evenodd;stroke:#0000FF;stroke-width:2.0px;stroke-linecap:butt;stroke-linejoin:miter;stroke-opacity:1"/>
<path class="bond-33 atom-33 atom-34" d="M 196.8,43.4 L 195.6,49.6" style="fill:none;fill-rule:evenodd;stroke:#000000;stroke-width:2.0px;stroke-linecap:butt;stroke-linejoin:miter;stroke-opacity:1"/>
<path class="bond-34 atom-34 atom-35" d="M 195.6,49.6 L 207.0,59.7" style="fill:none;fill-rule:evenodd;stroke:#000000;stroke-width:2.0px;stroke-linecap:butt;stroke-linejoin:miter;stroke-opacity:1"/>
<path class="bond-35 atom-35 atom-36" d="M 207.0,59.7 L 213.0,57.7" style="fill:none;fill-rule:evenodd;stroke:#000000;stroke-width:2.0px;stroke-linecap:butt;stroke-linejoin:miter;stroke-opacity:1"/>
<path class="bond-35 atom-35 atom-36" d="M 213.0,57.7 L 219.0,55.7" style="fill:none;fill-rule:evenodd;stroke:#FF0000;stroke-width:2.0px;stroke-linecap:butt;stroke-linejoin:miter;stroke-opacity:1"/>
<path class="bond-36 atom-36 atom-37" d="M 222.1,52.1 L 224.0,42.6" style="fill:none;fill-rule:evenodd;stroke:#FF0000;stroke-width:2.0px;stroke-linecap:butt;stroke-linejoin:miter;stroke-opacity:1"/>
<path class="bond-37 atom-37 atom-38" d="M 229.2,38.3 L 236.6,35.8" style="fill:none;fill-rule:evenodd;stroke:#FF0000;stroke-width:2.0px;stroke-linecap:butt;stroke-linejoin:miter;stroke-opacity:1"/>
<path class="bond-38 atom-37 atom-39" d="M 222.1,37.6 L 217.6,33.7" style="fill:none;fill-rule:evenodd;stroke:#FF0000;stroke-width:2.0px;stroke-linecap:butt;stroke-linejoin:miter;stroke-opacity:1"/>
<path class="bond-38 atom-37 atom-39" d="M 217.6,33.7 L 213.1,29.7" style="fill:none;fill-rule:evenodd;stroke:#000000;stroke-width:2.0px;stroke-linecap:butt;stroke-linejoin:miter;stroke-opacity:1"/>
<path class="bond-39 atom-30 atom-40" d="M 172.6,29.3 L 161.2,19.2" style="fill:none;fill-rule:evenodd;stroke:#000000;stroke-width:2.0px;stroke-linecap:butt;stroke-linejoin:miter;stroke-opacity:1"/>
<path class="bond-40 atom-40 atom-41" d="M 161.2,19.2 L 146.7,24.0" style="fill:none;fill-rule:evenodd;stroke:#000000;stroke-width:2.0px;stroke-linecap:butt;stroke-linejoin:miter;stroke-opacity:1"/>
<path class="bond-40 atom-40 atom-41" d="M 160.0,22.8 L 149.8,26.2" style="fill:none;fill-rule:evenodd;stroke:#000000;stroke-width:2.0px;stroke-linecap:butt;stroke-linejoin:miter;stroke-opacity:1"/>
<path class="bond-41 atom-25 atom-5" d="M 126.1,58.9 L 112.2,65.2" style="fill:none;fill-rule:evenodd;stroke:#000000;stroke-width:2.0px;stroke-linecap:butt;stroke-linejoin:miter;stroke-opacity:1"/>
<path class="bond-42 atom-41 atom-27" d="M 146.7,24.0 L 143.6,39.0" style="fill:none;fill-rule:evenodd;stroke:#000000;stroke-width:2.0px;stroke-linecap:butt;stroke-linejoin:miter;stroke-opacity:1"/>
<path class="bond-43 atom-23 atom-8" d="M 147.9,88.7 L 135.3,97.4" style="fill:none;fill-rule:evenodd;stroke:#000000;stroke-width:2.0px;stroke-linecap:butt;stroke-linejoin:miter;stroke-opacity:1"/>
<path class="bond-44 atom-39 atom-33" d="M 213.1,29.7 L 206.9,31.8" style="fill:none;fill-rule:evenodd;stroke:#000000;stroke-width:2.0px;stroke-linecap:butt;stroke-linejoin:miter;stroke-opacity:1"/>
<path class="bond-44 atom-39 atom-33" d="M 206.9,31.8 L 200.8,33.9" style="fill:none;fill-rule:evenodd;stroke:#0000FF;stroke-width:2.0px;stroke-linecap:butt;stroke-linejoin:miter;stroke-opacity:1"/>
<path class="atom-2" d="M 84.8 63.3 L 86.2 65.6 Q 86.3 65.8, 86.5 66.2 Q 86.8 66.6, 86.8 66.7 L 86.8 63.3 L 87.4 63.3 L 87.4 67.6 L 86.8 67.6 L 85.2 65.1 Q 85.1 64.8, 84.9 64.5 Q 84.7 64.2, 84.6 64.1 L 84.6 67.6 L 84.1 67.6 L 84.1 63.3 L 84.8 63.3 " fill="#0000FF"/>
<path class="atom-4" d="M 97.8 40.2 L 99.2 42.5 Q 99.3 42.8, 99.6 43.2 Q 99.8 43.6, 99.8 43.6 L 99.8 40.2 L 100.4 40.2 L 100.4 44.6 L 99.8 44.6 L 98.3 42.1 Q 98.1 41.8, 97.9 41.4 Q 97.7 41.1, 97.7 41.0 L 97.7 44.6 L 97.1 44.6 L 97.1 40.2 L 97.8 40.2 " fill="#0000FF"/>
<path class="atom-4" d="M 100.9 40.2 L 101.5 40.2 L 101.5 42.1 L 103.7 42.1 L 103.7 40.2 L 104.3 40.2 L 104.3 44.6 L 103.7 44.6 L 103.7 42.6 L 101.5 42.6 L 101.5 44.6 L 100.9 44.6 L 100.9 40.2 " fill="#0000FF"/>
<path class="atom-7" d="M 128.0 81.3 L 129.4 83.6 Q 129.5 83.8, 129.8 84.2 Q 130.0 84.6, 130.0 84.7 L 130.0 81.3 L 130.6 81.3 L 130.6 85.6 L 130.0 85.6 L 128.5 83.1 Q 128.3 82.8, 128.1 82.5 Q 127.9 82.2, 127.8 82.0 L 127.8 85.6 L 127.3 85.6 L 127.3 81.3 L 128.0 81.3 " fill="#0000FF"/>
<path class="atom-11" d="M 98.1 77.2 L 99.5 79.5 Q 99.6 79.8, 99.9 80.2 Q 100.1 80.6, 100.1 80.6 L 100.1 77.2 L 100.7 77.2 L 100.7 81.6 L 100.1 81.6 L 98.5 79.1 Q 98.4 78.8, 98.2 78.4 Q 98.0 78.1, 97.9 78.0 L 97.9 81.6 L 97.4 81.6 L 97.4 77.2 L 98.1 77.2 " fill="#0000FF"/>
<path class="atom-14" d="M 161.9 108.4 L 163.3 110.7 Q 163.5 110.9, 163.7 111.3 Q 163.9 111.7, 164.0 111.7 L 164.0 108.4 L 164.5 108.4 L 164.5 112.7 L 163.9 112.7 L 162.4 110.2 Q 162.2 109.9, 162.0 109.6 Q 161.9 109.2, 161.8 109.1 L 161.8 112.7 L 161.2 112.7 L 161.2 108.4 L 161.9 108.4 " fill="#0000FF"/>
<path class="atom-16" d="M 187.3 108.4 Q 187.3 107.4, 187.8 106.8 Q 188.3 106.2, 189.3 106.2 Q 190.3 106.2, 190.8 106.8 Q 191.3 107.4, 191.3 108.4 Q 191.3 109.5, 190.8 110.1 Q 190.2 110.7, 189.3 110.7 Q 188.3 110.7, 187.8 110.1 Q 187.3 109.5, 187.3 108.4 M 189.3 110.2 Q 190.0 110.2, 190.3 109.8 Q 190.7 109.3, 190.7 108.4 Q 190.7 107.6, 190.3 107.2 Q 190.0 106.7, 189.3 106.7 Q 188.6 106.7, 188.3 107.2 Q 187.9 107.6, 187.9 108.4 Q 187.9 109.3, 188.3 109.8 Q 188.6 110.2, 189.3 110.2 " fill="#FF0000"/>
<path class="atom-17" d="M 175.9 132.4 Q 175.9 131.3, 176.4 130.7 Q 176.9 130.2, 177.9 130.2 Q 178.9 130.2, 179.4 130.7 Q 179.9 131.3, 179.9 132.4 Q 179.9 133.4, 179.4 134.0 Q 178.8 134.6, 177.9 134.6 Q 176.9 134.6, 176.4 134.0 Q 175.9 133.4, 175.9 132.4 M 177.9 134.1 Q 178.6 134.1, 178.9 133.7 Q 179.3 133.2, 179.3 132.4 Q 179.3 131.5, 178.9 131.1 Q 178.6 130.6, 177.9 130.6 Q 177.2 130.6, 176.9 131.1 Q 176.5 131.5, 176.5 132.4 Q 176.5 133.2, 176.9 133.7 Q 177.2 134.1, 177.9 134.1 " fill="#FF0000"/>
<path class="atom-24" d="M 135.5 68.0 L 136.9 70.3 Q 137.0 70.5, 137.3 70.9 Q 137.5 71.3, 137.5 71.3 L 137.5 68.0 L 138.1 68.0 L 138.1 72.3 L 137.5 72.3 L 136.0 69.8 Q 135.8 69.5, 135.6 69.2 Q 135.4 68.8, 135.4 68.7 L 135.4 72.3 L 134.8 72.3 L 134.8 68.0 L 135.5 68.0 " fill="#0000FF"/>
<path class="atom-26" d="M 123.6 41.7 L 124.2 41.7 L 124.2 43.6 L 126.4 43.6 L 126.4 41.7 L 127.0 41.7 L 127.0 46.1 L 126.4 46.1 L 126.4 44.1 L 124.2 44.1 L 124.2 46.1 L 123.6 46.1 L 123.6 41.7 " fill="#0000FF"/>
<path class="atom-26" d="M 128.2 41.7 L 129.6 44.0 Q 129.8 44.2, 130.0 44.7 Q 130.2 45.1, 130.2 45.1 L 130.2 41.7 L 130.8 41.7 L 130.8 46.1 L 130.2 46.1 L 128.7 43.5 Q 128.5 43.3, 128.3 42.9 Q 128.1 42.6, 128.1 42.5 L 128.1 46.1 L 127.5 46.1 L 127.5 41.7 L 128.2 41.7 " fill="#0000FF"/>
<path class="atom-32" d="M 188.2 9.5 Q 188.2 8.4, 188.7 7.9 Q 189.2 7.3, 190.2 7.3 Q 191.1 7.3, 191.7 7.9 Q 192.2 8.4, 192.2 9.5 Q 192.2 10.5, 191.7 11.1 Q 191.1 11.7, 190.2 11.7 Q 189.2 11.7, 188.7 11.1 Q 188.2 10.5, 188.2 9.5 M 190.2 11.2 Q 190.8 11.2, 191.2 10.8 Q 191.6 10.3, 191.6 9.5 Q 191.6 8.6, 191.2 8.2 Q 190.8 7.8, 190.2 7.8 Q 189.5 7.8, 189.2 8.2 Q 188.8 8.6, 188.8 9.5 Q 188.8 10.3, 189.2 10.8 Q 189.5 11.2, 190.2 11.2 " fill="#FF0000"/>
<path class="atom-33" d="M 197.6 32.4 L 199.1 34.7 Q 199.2 34.9, 199.4 35.3 Q 199.7 35.8, 199.7 35.8 L 199.7 32.4 L 200.2 32.4 L 200.2 36.7 L 199.7 36.7 L 198.1 34.2 Q 198.0 33.9, 197.8 33.6 Q 197.6 33.3, 197.5 33.2 L 197.5 36.7 L 197.0 36.7 L 197.0 32.4 L 197.6 32.4 " fill="#0000FF"/>
<path class="atom-36" d="M 219.5 54.8 Q 219.5 53.8, 220.0 53.2 Q 220.6 52.6, 221.5 52.6 Q 222.5 52.6, 223.0 53.2 Q 223.5 53.8, 223.5 54.8 Q 223.5 55.9, 223.0 56.5 Q 222.5 57.1, 221.5 57.1 Q 220.6 57.1, 220.0 56.5 Q 219.5 55.9, 219.5 54.8 M 221.5 56.6 Q 222.2 56.6, 222.5 56.2 Q 222.9 55.7, 222.9 54.8 Q 222.9 54.0, 222.5 53.6 Q 222.2 53.1, 221.5 53.1 Q 220.9 53.1, 220.5 53.6 Q 220.1 54.0, 220.1 54.8 Q 220.1 55.7, 220.5 56.2 Q 220.9 56.6, 221.5 56.6 " fill="#FF0000"/>
<path class="atom-37" d="M 222.6 39.9 Q 222.6 38.8, 223.1 38.2 Q 223.6 37.7, 224.6 37.7 Q 225.5 37.7, 226.0 38.2 Q 226.6 38.8, 226.6 39.9 Q 226.6 40.9, 226.0 41.5 Q 225.5 42.1, 224.6 42.1 Q 223.6 42.1, 223.1 41.5 Q 222.6 40.9, 222.6 39.9 M 224.6 41.6 Q 225.2 41.6, 225.6 41.2 Q 225.9 40.7, 225.9 39.9 Q 225.9 39.0, 225.6 38.6 Q 225.2 38.1, 224.6 38.1 Q 223.9 38.1, 223.5 38.6 Q 223.2 39.0, 223.2 39.9 Q 223.2 40.7, 223.5 41.2 Q 223.9 41.6, 224.6 41.6 " fill="#FF0000"/>
<path class="atom-37" d="M 226.9 38.4 L 227.6 38.4 L 227.6 37.6 L 228.0 37.6 L 228.0 38.4 L 228.7 38.4 L 228.7 38.7 L 228.0 38.7 L 228.0 39.5 L 227.6 39.5 L 227.6 38.7 L 226.9 38.7 L 226.9 38.4 " fill="#FF0000"/>
<path class="atom-38" d="M 237.1 35.0 Q 237.1 34.0, 237.6 33.4 Q 238.1 32.8, 239.1 32.8 Q 240.0 32.8, 240.5 33.4 Q 241.1 34.0, 241.1 35.0 Q 241.1 36.0, 240.5 36.6 Q 240.0 37.2, 239.1 37.2 Q 238.1 37.2, 237.6 36.6 Q 237.1 36.1, 237.1 35.0 M 239.1 36.7 Q 239.7 36.7, 240.1 36.3 Q 240.4 35.9, 240.4 35.0 Q 240.4 34.1, 240.1 33.7 Q 239.7 33.3, 239.1 33.3 Q 238.4 33.3, 238.0 33.7 Q 237.7 34.1, 237.7 35.0 Q 237.7 35.9, 238.0 36.3 Q 238.4 36.7, 239.1 36.7 " fill="#FF0000"/>
<path class="atom-38" d="M 241.4 33.5 L 242.8 33.5 L 242.8 33.8 L 241.4 33.8 L 241.4 33.5 " fill="#FF0000"/>
<path class="atom-0" d="M 57.7,66.3 L 57.7,66.4 L 57.7,66.4 L 57.7,66.4 L 57.7,66.4 L 57.7,66.5 L 57.7,66.5 L 57.6,66.5 L 57.6,66.5 L 57.6,66.5 L 57.6,66.6 L 57.6,66.6 L 57.5,66.6 L 57.5,66.6 L 57.5,66.6 L 57.5,66.6 L 57.4,66.6 L 57.4,66.6 L 57.4,66.6 L 57.4,66.6 L 57.3,66.6 L 57.3,66.6 L 57.3,66.6 L 57.3,66.6 L 57.2,66.6 L 57.2,66.6 L 57.2,66.6 L 57.2,66.6 L 57.2,66.5 L 57.1,66.5 L 57.1,66.5 L 57.1,66.5 L 57.1,66.4 L 57.1,66.4 L 57.1,66.4 L 57.1,66.4 L 57.1,66.3 L 57.1,66.3 L 57.1,66.3 L 57.1,66.3 L 57.1,66.2 L 57.1,66.2 L 57.1,66.2 L 57.1,66.2 L 57.1,66.1 L 57.2,66.1 L 57.2,66.1 L 57.2,66.1 L 57.2,66.1 L 57.2,66.1 L 57.3,66.1 L 57.3,66.0 L 57.3,66.0 L 57.3,66.0 L 57.4,66.0 L 57.4,66.0 L 57.4,66.0 L 57.4,66.0 L 57.5,66.0 L 57.5,66.0 L 57.5,66.1 L 57.5,66.1 L 57.6,66.1 L 57.6,66.1 L 57.6,66.1 L 57.6,66.1 L 57.6,66.2 L 57.7,66.2 L 57.7,66.2 L 57.7,66.2 L 57.7,66.3 L 57.7,66.3 L 57.7,66.3 L 57.7,66.3 L 57.4,66.3 Z" style="fill:#000000;fill-rule:evenodd;fill-opacity:1;stroke:#000000;stroke-width:0.0px;stroke-linecap:butt;stroke-linejoin:miter;stroke-opacity:1;"/>
<path class="atom-0" d="M 57.7,65.1 L 57.7,65.1 L 57.7,65.2 L 57.7,65.2 L 57.7,65.2 L 57.7,65.2 L 57.7,65.3 L 57.6,65.3 L 57.6,65.3 L 57.6,65.3 L 57.6,65.3 L 57.6,65.4 L 57.5,65.4 L 57.5,65.4 L 57.5,65.4 L 57.5,65.4 L 57.4,65.4 L 57.4,65.4 L 57.4,65.4 L 57.4,65.4 L 57.3,65.4 L 57.3,65.4 L 57.3,65.4 L 57.3,65.4 L 57.2,65.4 L 57.2,65.4 L 57.2,65.4 L 57.2,65.3 L 57.2,65.3 L 57.1,65.3 L 57.1,65.3 L 57.1,65.2 L 57.1,65.2 L 57.1,65.2 L 57.1,65.2 L 57.1,65.1 L 57.1,65.1 L 57.1,65.1 L 57.1,65.1 L 57.1,65.0 L 57.1,65.0 L 57.1,65.0 L 57.1,65.0 L 57.1,64.9 L 57.1,64.9 L 57.2,64.9 L 57.2,64.9 L 57.2,64.9 L 57.2,64.9 L 57.2,64.8 L 57.3,64.8 L 57.3,64.8 L 57.3,64.8 L 57.3,64.8 L 57.4,64.8 L 57.4,64.8 L 57.4,64.8 L 57.4,64.8 L 57.5,64.8 L 57.5,64.8 L 57.5,64.8 L 57.5,64.8 L 57.6,64.9 L 57.6,64.9 L 57.6,64.9 L 57.6,64.9 L 57.6,64.9 L 57.7,65.0 L 57.7,65.0 L 57.7,65.0 L 57.7,65.0 L 57.7,65.1 L 57.7,65.1 L 57.7,65.1 L 57.4,65.1 Z" style="fill:#000000;fill-rule:evenodd;fill-opacity:1;stroke:#000000;stroke-width:0.0px;stroke-linecap:butt;stroke-linejoin:miter;stroke-opacity:1;"/>
<path class="bond-0 atom-0 atom-1" d="M 464.0,41.9 L 460.1,46.4" style="fill:none;fill-rule:evenodd;stroke:#000000;stroke-width:2.0px;stroke-linecap:butt;stroke-linejoin:miter;stroke-opacity:1"/>
<path class="bond-0 atom-0 atom-1" d="M 460.1,46.4 L 456.3,51.0" style="fill:none;fill-rule:evenodd;stroke:#FF7F00;stroke-width:2.0px;stroke-linecap:butt;stroke-linejoin:miter;stroke-opacity:1"/>
<path class="bond-1 atom-1 atom-2" d="M 452.2,53.2 L 446.7,52.2" style="fill:none;fill-rule:evenodd;stroke:#FF7F00;stroke-width:2.0px;stroke-linecap:butt;stroke-linejoin:miter;stroke-opacity:1"/>
<path class="bond-1 atom-1 atom-2" d="M 446.7,52.2 L 441.2,51.2" style="fill:none;fill-rule:evenodd;stroke:#0000FF;stroke-width:2.0px;stroke-linecap:butt;stroke-linejoin:miter;stroke-opacity:1"/>
<path class="bond-2 atom-1 atom-3" d="M 455.0,56.2 L 456.6,60.8" style="fill:none;fill-rule:evenodd;stroke:#FF7F00;stroke-width:2.0px;stroke-linecap:butt;stroke-linejoin:miter;stroke-opacity:1"/>
<path class="bond-2 atom-1 atom-3" d="M 456.6,60.8 L 458.2,65.3" style="fill:none;fill-rule:evenodd;stroke:#CCCC00;stroke-width:2.0px;stroke-linecap:butt;stroke-linejoin:miter;stroke-opacity:1"/>
<path class="bond-2 atom-1 atom-3" d="M 458.4,56.6 L 459.5,59.7" style="fill:none;fill-rule:evenodd;stroke:#FF7F00;stroke-width:2.0px;stroke-linecap:butt;stroke-linejoin:miter;stroke-opacity:1"/>
<path class="bond-2 atom-1 atom-3" d="M 459.5,59.7 L 460.6,62.9" style="fill:none;fill-rule:evenodd;stroke:#CCCC00;stroke-width:2.0px;stroke-linecap:butt;stroke-linejoin:miter;stroke-opacity:1"/>
<path class="bond-3 atom-3 atom-4" d="M 457.3,70.2 L 453.2,74.9" style="fill:none;fill-rule:evenodd;stroke:#CCCC00;stroke-width:2.0px;stroke-linecap:butt;stroke-linejoin:miter;stroke-opacity:1"/>
<path class="bond-3 atom-3 atom-4" d="M 453.2,74.9 L 449.2,79.6" style="fill:none;fill-rule:evenodd;stroke:#000000;stroke-width:2.0px;stroke-linecap:butt;stroke-linejoin:miter;stroke-opacity:1"/>
<path class="bond-4 atom-4 atom-5" d="M 449.2,79.6 L 434.0,78.4" style="fill:none;fill-rule:evenodd;stroke:#000000;stroke-width:2.0px;stroke-linecap:butt;stroke-linejoin:miter;stroke-opacity:1"/>
<path class="bond-4 atom-4 atom-5" d="M 446.7,82.5 L 436.0,81.6" style="fill:none;fill-rule:evenodd;stroke:#000000;stroke-width:2.0px;stroke-linecap:butt;stroke-linejoin:miter;stroke-opacity:1"/>
<path class="bond-5 atom-5 atom-6" d="M 434.0,78.4 L 431.6,84.1" style="fill:none;fill-rule:evenodd;stroke:#000000;stroke-width:2.0px;stroke-linecap:butt;stroke-linejoin:miter;stroke-opacity:1"/>
<path class="bond-5 atom-5 atom-6" d="M 431.6,84.1 L 429.2,89.8" style="fill:none;fill-rule:evenodd;stroke:#0000FF;stroke-width:2.0px;stroke-linecap:butt;stroke-linejoin:miter;stroke-opacity:1"/>
<path class="bond-6 atom-6 atom-7" d="M 426.0,93.0 L 419.6,94.5" style="fill:none;fill-rule:evenodd;stroke:#0000FF;stroke-width:2.0px;stroke-linecap:butt;stroke-linejoin:miter;stroke-opacity:1"/>
<path class="bond-6 atom-6 atom-7" d="M 419.6,94.5 L 413.2,96.1" style="fill:none;fill-rule:evenodd;stroke:#000000;stroke-width:2.0px;stroke-linecap:butt;stroke-linejoin:miter;stroke-opacity:1"/>
<path class="bond-7 atom-7 atom-8" d="M 413.2,96.1 L 418.3,110.5" style="fill:none;fill-rule:evenodd;stroke:#000000;stroke-width:2.0px;stroke-linecap:butt;stroke-linejoin:miter;stroke-opacity:1"/>
<path class="bond-8 atom-8 atom-9" d="M 418.3,110.5 L 408.4,122.1" style="fill:none;fill-rule:evenodd;stroke:#000000;stroke-width:2.0px;stroke-linecap:butt;stroke-linejoin:miter;stroke-opacity:1"/>
<path class="bond-9 atom-9 atom-10" d="M 408.4,122.1 L 404.5,126.7" style="fill:none;fill-rule:evenodd;stroke:#000000;stroke-width:2.0px;stroke-linecap:butt;stroke-linejoin:miter;stroke-opacity:1"/>
<path class="bond-9 atom-9 atom-10" d="M 404.5,126.7 L 400.6,131.2" style="fill:none;fill-rule:evenodd;stroke:#0000FF;stroke-width:2.0px;stroke-linecap:butt;stroke-linejoin:miter;stroke-opacity:1"/>
<path class="bond-9 atom-9 atom-10" d="M 409.6,125.5 L 406.3,129.3" style="fill:none;fill-rule:evenodd;stroke:#000000;stroke-width:2.0px;stroke-linecap:butt;stroke-linejoin:miter;stroke-opacity:1"/>
<path class="bond-9 atom-9 atom-10" d="M 406.3,129.3 L 402.9,133.2" style="fill:none;fill-rule:evenodd;stroke:#0000FF;stroke-width:2.0px;stroke-linecap:butt;stroke-linejoin:miter;stroke-opacity:1"/>
<path class="bond-9 atom-9 atom-10" d="M 404.9,121.5 L 401.6,125.4" style="fill:none;fill-rule:evenodd;stroke:#000000;stroke-width:2.0px;stroke-linecap:butt;stroke-linejoin:miter;stroke-opacity:1"/>
<path class="bond-9 atom-9 atom-10" d="M 401.6,125.4 L 398.3,129.2" style="fill:none;fill-rule:evenodd;stroke:#0000FF;stroke-width:2.0px;stroke-linecap:butt;stroke-linejoin:miter;stroke-opacity:1"/>
<path class="bond-10 atom-7 atom-11" d="M 413.2,96.1 L 399.4,102.6" style="fill:none;fill-rule:evenodd;stroke:#000000;stroke-width:2.0px;stroke-linecap:butt;stroke-linejoin:miter;stroke-opacity:1"/>
<path class="bond-11 atom-11 atom-12" d="M 399.4,102.6 L 388.9,91.6" style="fill:none;fill-rule:evenodd;stroke:#000000;stroke-width:2.0px;stroke-linecap:butt;stroke-linejoin:miter;stroke-opacity:1"/>
<path class="bond-12 atom-12 atom-13" d="M 388.9,91.6 L 391.8,86.2" style="fill:none;fill-rule:evenodd;stroke:#000000;stroke-width:2.0px;stroke-linecap:butt;stroke-linejoin:miter;stroke-opacity:1"/>
<path class="bond-12 atom-12 atom-13" d="M 391.8,86.2 L 394.8,80.8" style="fill:none;fill-rule:evenodd;stroke:#0000FF;stroke-width:2.0px;stroke-linecap:butt;stroke-linejoin:miter;stroke-opacity:1"/>
<path class="bond-13 atom-13 atom-14" d="M 394.9,75.4 L 392.3,69.9" style="fill:none;fill-rule:evenodd;stroke:#0000FF;stroke-width:2.0px;stroke-linecap:butt;stroke-linejoin:miter;stroke-opacity:1"/>
<path class="bond-13 atom-13 atom-14" d="M 392.3,69.9 L 389.6,64.3" style="fill:none;fill-rule:evenodd;stroke:#000000;stroke-width:2.0px;stroke-linecap:butt;stroke-linejoin:miter;stroke-opacity:1"/>
<path class="bond-14 atom-14 atom-15" d="M 389.5,65.8 L 383.1,65.3" style="fill:none;fill-rule:evenodd;stroke:#000000;stroke-width:2.0px;stroke-linecap:butt;stroke-linejoin:miter;stroke-opacity:1"/>
<path class="bond-14 atom-14 atom-15" d="M 383.1,65.3 L 376.8,64.8" style="fill:none;fill-rule:evenodd;stroke:#FF0000;stroke-width:2.0px;stroke-linecap:butt;stroke-linejoin:miter;stroke-opacity:1"/>
<path class="bond-14 atom-14 atom-15" d="M 389.8,62.8 L 383.4,62.3" style="fill:none;fill-rule:evenodd;stroke:#000000;stroke-width:2.0px;stroke-linecap:butt;stroke-linejoin:miter;stroke-opacity:1"/>
<path class="bond-14 atom-14 atom-15" d="M 383.4,62.3 L 377.0,61.8" style="fill:none;fill-rule:evenodd;stroke:#FF0000;stroke-width:2.0px;stroke-linecap:butt;stroke-linejoin:miter;stroke-opacity:1"/>
<path class="bond-15 atom-14 atom-16" d="M 389.6,64.3 L 393.0,59.4" style="fill:none;fill-rule:evenodd;stroke:#000000;stroke-width:2.0px;stroke-linecap:butt;stroke-linejoin:miter;stroke-opacity:1"/>
<path class="bond-15 atom-14 atom-16" d="M 393.0,59.4 L 396.4,54.5" style="fill:none;fill-rule:evenodd;stroke:#FF0000;stroke-width:2.0px;stroke-linecap:butt;stroke-linejoin:miter;stroke-opacity:1"/>
<path class="bond-16 atom-16 atom-17" d="M 397.0,49.0 L 394.4,43.5" style="fill:none;fill-rule:evenodd;stroke:#FF0000;stroke-width:2.0px;stroke-linecap:butt;stroke-linejoin:miter;stroke-opacity:1"/>
<path class="bond-16 atom-16 atom-17" d="M 394.4,43.5 L 391.7,37.9" style="fill:none;fill-rule:evenodd;stroke:#000000;stroke-width:2.0px;stroke-linecap:butt;stroke-linejoin:miter;stroke-opacity:1"/>
<path class="bond-17 atom-17 atom-18" d="M 391.7,37.9 L 405.5,31.3" style="fill:none;fill-rule:evenodd;stroke:#000000;stroke-width:2.0px;stroke-linecap:butt;stroke-linejoin:miter;stroke-opacity:1"/>
<path class="bond-18 atom-17 atom-19" d="M 391.7,37.9 L 377.9,44.5" style="fill:none;fill-rule:evenodd;stroke:#000000;stroke-width:2.0px;stroke-linecap:butt;stroke-linejoin:miter;stroke-opacity:1"/>
<path class="bond-19 atom-17 atom-20" d="M 391.7,37.9 L 385.2,24.1" style="fill:none;fill-rule:evenodd;stroke:#000000;stroke-width:2.0px;stroke-linecap:butt;stroke-linejoin:miter;stroke-opacity:1"/>
<path class="bond-20 atom-13 atom-21" d="M 398.4,78.5 L 404.8,79.7" style="fill:none;fill-rule:evenodd;stroke:#0000FF;stroke-width:2.0px;stroke-linecap:butt;stroke-linejoin:miter;stroke-opacity:1"/>
<path class="bond-20 atom-13 atom-21" d="M 404.8,79.7 L 411.3,80.9" style="fill:none;fill-rule:evenodd;stroke:#000000;stroke-width:2.0px;stroke-linecap:butt;stroke-linejoin:miter;stroke-opacity:1"/>
<path class="bond-21 atom-6 atom-22" d="M 430.3,94.3 L 437.6,100.6" style="fill:none;fill-rule:evenodd;stroke:#0000FF;stroke-width:2.0px;stroke-linecap:butt;stroke-linejoin:miter;stroke-opacity:1"/>
<path class="bond-22 atom-22 atom-23" d="M 441.9,101.1 L 447.3,97.8" style="fill:none;fill-rule:evenodd;stroke:#0000FF;stroke-width:2.0px;stroke-linecap:butt;stroke-linejoin:miter;stroke-opacity:1"/>
<path class="bond-22 atom-22 atom-23" d="M 447.3,97.8 L 452.8,94.5" style="fill:none;fill-rule:evenodd;stroke:#000000;stroke-width:2.0px;stroke-linecap:butt;stroke-linejoin:miter;stroke-opacity:1"/>
<path class="bond-22 atom-22 atom-23" d="M 441.9,97.5 L 445.7,95.2" style="fill:none;fill-rule:evenodd;stroke:#0000FF;stroke-width:2.0px;stroke-linecap:butt;stroke-linejoin:miter;stroke-opacity:1"/>
<path class="bond-22 atom-22 atom-23" d="M 445.7,95.2 L 449.6,92.9" style="fill:none;fill-rule:evenodd;stroke:#000000;stroke-width:2.0px;stroke-linecap:butt;stroke-linejoin:miter;stroke-opacity:1"/>
<path class="bond-23 atom-23 atom-24" d="M 452.8,94.5 L 458.8,96.9" style="fill:none;fill-rule:evenodd;stroke:#000000;stroke-width:2.0px;stroke-linecap:butt;stroke-linejoin:miter;stroke-opacity:1"/>
<path class="bond-23 atom-23 atom-24" d="M 458.8,96.9 L 464.8,99.4" style="fill:none;fill-rule:evenodd;stroke:#0000FF;stroke-width:2.0px;stroke-linecap:butt;stroke-linejoin:miter;stroke-opacity:1"/>
<path class="bond-24 atom-24 atom-25" d="M 469.1,98.7 L 474.0,94.8" style="fill:none;fill-rule:evenodd;stroke:#0000FF;stroke-width:2.0px;stroke-linecap:butt;stroke-linejoin:miter;stroke-opacity:1"/>
<path class="bond-24 atom-24 atom-25" d="M 474.0,94.8 L 479.0,91.0" style="fill:none;fill-rule:evenodd;stroke:#000000;stroke-width:2.0px;stroke-linecap:butt;stroke-linejoin:miter;stroke-opacity:1"/>
<path class="bond-25 atom-25 atom-26" d="M 479.0,91.0 L 493.2,96.9" style="fill:none;fill-rule:evenodd;stroke:#000000;stroke-width:2.0px;stroke-linecap:butt;stroke-linejoin:miter;stroke-opacity:1"/>
<path class="bond-25 atom-25 atom-26" d="M 482.3,89.1 L 492.2,93.2" style="fill:none;fill-rule:evenodd;stroke:#000000;stroke-width:2.0px;stroke-linecap:butt;stroke-linejoin:miter;stroke-opacity:1"/>
<path class="bond-26 atom-26 atom-27" d="M 493.2,96.9 L 505.3,87.6" style="fill:none;fill-rule:evenodd;stroke:#000000;stroke-width:2.0px;stroke-linecap:butt;stroke-linejoin:miter;stroke-opacity:1"/>
<path class="bond-27 atom-27 atom-28" d="M 505.3,87.6 L 503.3,72.4" style="fill:none;fill-rule:evenodd;stroke:#000000;stroke-width:2.0px;stroke-linecap:butt;stroke-linejoin:miter;stroke-opacity:1"/>
<path class="bond-27 atom-27 atom-28" d="M 502.0,85.7 L 500.6,75.1" style="fill:none;fill-rule:evenodd;stroke:#000000;stroke-width:2.0px;stroke-linecap:butt;stroke-linejoin:miter;stroke-opacity:1"/>
<path class="bond-28 atom-28 atom-29" d="M 503.3,72.4 L 508.4,68.5" style="fill:none;fill-rule:evenodd;stroke:#000000;stroke-width:2.0px;stroke-linecap:butt;stroke-linejoin:miter;stroke-opacity:1"/>
<path class="bond-28 atom-28 atom-29" d="M 508.4,68.5 L 513.6,64.6" style="fill:none;fill-rule:evenodd;stroke:#CCCC00;stroke-width:2.0px;stroke-linecap:butt;stroke-linejoin:miter;stroke-opacity:1"/>
<path class="bond-29 atom-29 atom-30" d="M 517.3,61.7 L 522.5,57.7" style="fill:none;fill-rule:evenodd;stroke:#CCCC00;stroke-width:2.0px;stroke-linecap:butt;stroke-linejoin:miter;stroke-opacity:1"/>
<path class="bond-29 atom-29 atom-30" d="M 522.5,57.7 L 527.6,53.8" style="fill:none;fill-rule:evenodd;stroke:#000000;stroke-width:2.0px;stroke-linecap:butt;stroke-linejoin:miter;stroke-opacity:1"/>
<path class="bond-30 atom-29 atom-31" d="M 512.3,61.6 L 509.7,58.1" style="fill:none;fill-rule:evenodd;stroke:#CCCC00;stroke-width:2.0px;stroke-linecap:butt;stroke-linejoin:miter;stroke-opacity:1"/>
<path class="bond-30 atom-29 atom-31" d="M 509.7,58.1 L 507.1,54.7" style="fill:none;fill-rule:evenodd;stroke:#FF0000;stroke-width:2.0px;stroke-linecap:butt;stroke-linejoin:miter;stroke-opacity:1"/>
<path class="bond-30 atom-29 atom-31" d="M 514.8,59.7 L 512.1,56.3" style="fill:none;fill-rule:evenodd;stroke:#CCCC00;stroke-width:2.0px;stroke-linecap:butt;stroke-linejoin:miter;stroke-opacity:1"/>
<path class="bond-30 atom-29 atom-31" d="M 512.1,56.3 L 509.5,52.8" style="fill:none;fill-rule:evenodd;stroke:#FF0000;stroke-width:2.0px;stroke-linecap:butt;stroke-linejoin:miter;stroke-opacity:1"/>
<path class="bond-31 atom-29 atom-32" d="M 518.6,64.6 L 521.2,68.1" style="fill:none;fill-rule:evenodd;stroke:#CCCC00;stroke-width:2.0px;stroke-linecap:butt;stroke-linejoin:miter;stroke-opacity:1"/>
<path class="bond-31 atom-29 atom-32" d="M 521.2,68.1 L 523.9,71.6" style="fill:none;fill-rule:evenodd;stroke:#FF0000;stroke-width:2.0px;stroke-linecap:butt;stroke-linejoin:miter;stroke-opacity:1"/>
<path class="bond-31 atom-29 atom-32" d="M 516.1,66.5 L 518.8,70.0" style="fill:none;fill-rule:evenodd;stroke:#CCCC00;stroke-width:2.0px;stroke-linecap:butt;stroke-linejoin:miter;stroke-opacity:1"/>
<path class="bond-31 atom-29 atom-32" d="M 518.8,70.0 L 521.5,73.5" style="fill:none;fill-rule:evenodd;stroke:#FF0000;stroke-width:2.0px;stroke-linecap:butt;stroke-linejoin:miter;stroke-opacity:1"/>
<path class="bond-32 atom-28 atom-33" d="M 503.3,72.4 L 489.2,66.5" style="fill:none;fill-rule:evenodd;stroke:#000000;stroke-width:2.0px;stroke-linecap:butt;stroke-linejoin:miter;stroke-opacity:1"/>
<path class="bond-33 atom-33 atom-34" d="M 489.2,66.5 L 477.1,75.9" style="fill:none;fill-rule:evenodd;stroke:#000000;stroke-width:2.0px;stroke-linecap:butt;stroke-linejoin:miter;stroke-opacity:1"/>
<path class="bond-33 atom-33 atom-34" d="M 489.2,70.4 L 480.7,76.9" style="fill:none;fill-rule:evenodd;stroke:#000000;stroke-width:2.0px;stroke-linecap:butt;stroke-linejoin:miter;stroke-opacity:1"/>
<path class="bond-34 atom-23 atom-4" d="M 452.8,94.5 L 449.2,79.6" style="fill:none;fill-rule:evenodd;stroke:#000000;stroke-width:2.0px;stroke-linecap:butt;stroke-linejoin:miter;stroke-opacity:1"/>
<path class="bond-35 atom-34 atom-25" d="M 477.1,75.9 L 479.0,91.0" style="fill:none;fill-rule:evenodd;stroke:#000000;stroke-width:2.0px;stroke-linecap:butt;stroke-linejoin:miter;stroke-opacity:1"/>
<path class="bond-36 atom-21 atom-7" d="M 411.3,80.9 L 413.2,96.1" style="fill:none;fill-rule:evenodd;stroke:#000000;stroke-width:2.0px;stroke-linecap:butt;stroke-linejoin:miter;stroke-opacity:1"/>
<path class="atom-1" d="M 454.0 51.4 Q 454.7 51.4, 455.1 51.7 Q 455.4 52.0, 455.4 52.7 Q 455.4 53.3, 455.1 53.6 Q 454.7 53.9, 454.0 53.9 L 453.3 53.9 L 453.3 55.7 L 452.7 55.7 L 452.7 51.4 L 454.0 51.4 M 454.0 53.4 Q 454.4 53.4, 454.6 53.2 Q 454.8 53.0, 454.8 52.7 Q 454.8 52.3, 454.6 52.1 Q 454.4 51.9, 454.0 51.9 L 453.3 51.9 L 453.3 53.4 L 454.0 53.4 " fill="#FF7F00"/>
<path class="atom-1" d="M 452.4 46.6 L 453.0 46.6 L 453.0 48.5 L 455.2 48.5 L 455.2 46.6 L 455.8 46.6 L 455.8 50.9 L 455.2 50.9 L 455.2 48.9 L 453.0 48.9 L 453.0 50.9 L 452.4 50.9 L 452.4 46.6 " fill="#FF7F00"/>
<path class="atom-2" d="M 431.3 48.6 L 431.9 48.6 L 431.9 50.4 L 434.1 50.4 L 434.1 48.6 L 434.7 48.6 L 434.7 52.9 L 434.1 52.9 L 434.1 50.9 L 431.9 50.9 L 431.9 52.9 L 431.3 52.9 L 431.3 48.6 " fill="#0000FF"/>
<path class="atom-2" d="M 435.2 52.8 Q 435.3 52.5, 435.6 52.3 Q 435.8 52.2, 436.2 52.2 Q 436.6 52.2, 436.8 52.4 Q 437.1 52.7, 437.1 53.1 Q 437.1 53.5, 436.8 53.9 Q 436.5 54.3, 435.8 54.8 L 437.1 54.8 L 437.1 55.1 L 435.2 55.1 L 435.2 54.8 Q 435.7 54.4, 436.1 54.2 Q 436.4 53.9, 436.5 53.6 Q 436.7 53.4, 436.7 53.1 Q 436.7 52.8, 436.5 52.7 Q 436.4 52.5, 436.2 52.5 Q 435.9 52.5, 435.8 52.6 Q 435.6 52.7, 435.5 52.9 L 435.2 52.8 " fill="#0000FF"/>
<path class="atom-2" d="M 438.1 48.6 L 439.5 50.9 Q 439.6 51.1, 439.9 51.5 Q 440.1 51.9, 440.1 52.0 L 440.1 48.6 L 440.7 48.6 L 440.7 52.9 L 440.1 52.9 L 438.5 50.4 Q 438.4 50.1, 438.2 49.8 Q 438.0 49.4, 437.9 49.3 L 437.9 52.9 L 437.4 52.9 L 437.4 48.6 L 438.1 48.6 " fill="#0000FF"/>
<path class="atom-3" d="M 457.9 69.5 Q 458.0 69.5, 458.2 69.6 Q 458.4 69.6, 458.6 69.7 Q 458.8 69.8, 459.1 69.8 Q 459.5 69.8, 459.7 69.6 Q 459.9 69.4, 459.9 69.0 Q 459.9 68.8, 459.8 68.6 Q 459.7 68.5, 459.5 68.4 Q 459.3 68.3, 459.0 68.2 Q 458.6 68.1, 458.4 68.0 Q 458.2 67.9, 458.0 67.7 Q 457.9 67.4, 457.9 67.0 Q 457.9 66.5, 458.2 66.1 Q 458.6 65.8, 459.3 65.8 Q 459.8 65.8, 460.4 66.1 L 460.3 66.5 Q 459.7 66.3, 459.4 66.3 Q 458.9 66.3, 458.7 66.5 Q 458.5 66.7, 458.5 67.0 Q 458.5 67.2, 458.6 67.3 Q 458.7 67.5, 458.9 67.5 Q 459.1 67.6, 459.4 67.7 Q 459.7 67.8, 460.0 68.0 Q 460.2 68.1, 460.4 68.3 Q 460.5 68.6, 460.5 69.0 Q 460.5 69.6, 460.1 69.9 Q 459.7 70.2, 459.1 70.2 Q 458.7 70.2, 458.4 70.2 Q 458.1 70.1, 457.8 69.9 L 457.9 69.5 " fill="#CCCC00"/>
<path class="atom-3" d="M 460.8 65.8 L 461.4 65.8 L 461.4 67.6 L 463.6 67.6 L 463.6 65.8 L 464.2 65.8 L 464.2 70.1 L 463.6 70.1 L 463.6 68.1 L 461.4 68.1 L 461.4 70.1 L 460.8 70.1 L 460.8 65.8 " fill="#CCCC00"/>
<path class="atom-6" d="M 427.2 90.3 L 428.6 92.6 Q 428.7 92.9, 428.9 93.3 Q 429.2 93.7, 429.2 93.7 L 429.2 90.3 L 429.8 90.3 L 429.8 94.7 L 429.2 94.7 L 427.6 92.2 Q 427.5 91.9, 427.3 91.5 Q 427.1 91.2, 427.0 91.1 L 427.0 94.7 L 426.5 94.7 L 426.5 90.3 L 427.2 90.3 " fill="#0000FF"/>
<path class="atom-10" d="M 397.5 131.6 L 398.9 133.9 Q 399.1 134.1, 399.3 134.5 Q 399.5 134.9, 399.5 134.9 L 399.5 131.6 L 400.1 131.6 L 400.1 135.9 L 399.5 135.9 L 398.0 133.4 Q 397.8 133.1, 397.6 132.8 Q 397.4 132.4, 397.4 132.3 L 397.4 135.9 L 396.8 135.9 L 396.8 131.6 L 397.5 131.6 " fill="#0000FF"/>
<path class="atom-13" d="M 395.3 75.9 L 396.7 78.2 Q 396.8 78.5, 397.0 78.9 Q 397.3 79.3, 397.3 79.3 L 397.3 75.9 L 397.9 75.9 L 397.9 80.3 L 397.3 80.3 L 395.7 77.8 Q 395.6 77.5, 395.4 77.1 Q 395.2 76.8, 395.1 76.7 L 395.1 80.3 L 394.6 80.3 L 394.6 75.9 L 395.3 75.9 " fill="#0000FF"/>
<path class="atom-15" d="M 372.4 63.1 Q 372.4 62.1, 372.9 61.5 Q 373.4 60.9, 374.4 60.9 Q 375.4 60.9, 375.9 61.5 Q 376.4 62.1, 376.4 63.1 Q 376.4 64.2, 375.9 64.8 Q 375.3 65.4, 374.4 65.4 Q 373.4 65.4, 372.9 64.8 Q 372.4 64.2, 372.4 63.1 M 374.4 64.9 Q 375.1 64.9, 375.4 64.4 Q 375.8 64.0, 375.8 63.1 Q 375.8 62.3, 375.4 61.8 Q 375.1 61.4, 374.4 61.4 Q 373.7 61.4, 373.4 61.8 Q 373.0 62.3, 373.0 63.1 Q 373.0 64.0, 373.4 64.4 Q 373.7 64.9, 374.4 64.9 " fill="#FF0000"/>
<path class="atom-16" d="M 396.3 51.7 Q 396.3 50.7, 396.8 50.1 Q 397.3 49.5, 398.3 49.5 Q 399.3 49.5, 399.8 50.1 Q 400.3 50.7, 400.3 51.7 Q 400.3 52.8, 399.8 53.4 Q 399.3 54.0, 398.3 54.0 Q 397.4 54.0, 396.8 53.4 Q 396.3 52.8, 396.3 51.7 M 398.3 53.5 Q 399.0 53.5, 399.3 53.0 Q 399.7 52.6, 399.7 51.7 Q 399.7 50.9, 399.3 50.4 Q 399.0 50.0, 398.3 50.0 Q 397.6 50.0, 397.3 50.4 Q 396.9 50.9, 396.9 51.7 Q 396.9 52.6, 397.3 53.0 Q 397.6 53.5, 398.3 53.5 " fill="#FF0000"/>
<path class="atom-22" d="M 438.8 100.3 L 440.2 102.6 Q 440.3 102.8, 440.6 103.2 Q 440.8 103.6, 440.8 103.6 L 440.8 100.3 L 441.4 100.3 L 441.4 104.6 L 440.8 104.6 L 439.3 102.1 Q 439.1 101.8, 438.9 101.5 Q 438.7 101.1, 438.7 101.0 L 438.7 104.6 L 438.1 104.6 L 438.1 100.3 L 438.8 100.3 " fill="#0000FF"/>
<path class="atom-24" d="M 466.0 98.2 L 467.4 100.4 Q 467.5 100.7, 467.7 101.1 Q 468.0 101.5, 468.0 101.5 L 468.0 98.2 L 468.5 98.2 L 468.5 102.5 L 468.0 102.5 L 466.4 100.0 Q 466.3 99.7, 466.1 99.3 Q 465.9 99.0, 465.8 98.9 L 465.8 102.5 L 465.3 102.5 L 465.3 98.2 L 466.0 98.2 " fill="#0000FF"/>
<path class="atom-24" d="M 465.2 102.9 L 465.8 102.9 L 465.8 104.8 L 468.0 104.8 L 468.0 102.9 L 468.6 102.9 L 468.6 107.2 L 468.0 107.2 L 468.0 105.2 L 465.8 105.2 L 465.8 107.2 L 465.2 107.2 L 465.2 102.9 " fill="#0000FF"/>
<path class="atom-29" d="M 514.2 64.6 Q 514.3 64.6, 514.5 64.7 Q 514.7 64.8, 514.9 64.8 Q 515.1 64.9, 515.3 64.9 Q 515.8 64.9, 516.0 64.7 Q 516.2 64.5, 516.2 64.1 Q 516.2 63.9, 516.1 63.8 Q 516.0 63.6, 515.8 63.5 Q 515.6 63.4, 515.3 63.4 Q 514.9 63.2, 514.7 63.1 Q 514.5 63.0, 514.3 62.8 Q 514.2 62.6, 514.2 62.2 Q 514.2 61.6, 514.5 61.3 Q 514.9 60.9, 515.6 60.9 Q 516.1 60.9, 516.7 61.2 L 516.6 61.7 Q 516.0 61.4, 515.6 61.4 Q 515.2 61.4, 515.0 61.6 Q 514.8 61.8, 514.8 62.1 Q 514.8 62.3, 514.9 62.5 Q 515.0 62.6, 515.2 62.7 Q 515.4 62.8, 515.6 62.9 Q 516.0 63.0, 516.3 63.1 Q 516.5 63.2, 516.7 63.5 Q 516.8 63.7, 516.8 64.1 Q 516.8 64.7, 516.4 65.1 Q 516.0 65.4, 515.4 65.4 Q 515.0 65.4, 514.7 65.3 Q 514.4 65.2, 514.1 65.1 L 514.2 64.6 " fill="#CCCC00"/>
<path class="atom-31" d="M 504.2 51.0 Q 504.2 49.9, 504.7 49.4 Q 505.2 48.8, 506.1 48.8 Q 507.1 48.8, 507.6 49.4 Q 508.1 49.9, 508.1 51.0 Q 508.1 52.0, 507.6 52.6 Q 507.1 53.2, 506.1 53.2 Q 505.2 53.2, 504.7 52.6 Q 504.2 52.0, 504.2 51.0 M 506.1 52.7 Q 506.8 52.7, 507.2 52.3 Q 507.5 51.8, 507.5 51.0 Q 507.5 50.1, 507.2 49.7 Q 506.8 49.3, 506.1 49.3 Q 505.5 49.3, 505.1 49.7 Q 504.8 50.1, 504.8 51.0 Q 504.8 51.9, 505.1 52.3 Q 505.5 52.7, 506.1 52.7 " fill="#FF0000"/>
<path class="atom-32" d="M 522.8 75.3 Q 522.8 74.2, 523.3 73.6 Q 523.8 73.0, 524.8 73.0 Q 525.7 73.0, 526.2 73.6 Q 526.7 74.2, 526.7 75.3 Q 526.7 76.3, 526.2 76.9 Q 525.7 77.5, 524.8 77.5 Q 523.8 77.5, 523.3 76.9 Q 522.8 76.3, 522.8 75.3 M 524.8 77.0 Q 525.4 77.0, 525.8 76.6 Q 526.1 76.1, 526.1 75.3 Q 526.1 74.4, 525.8 74.0 Q 525.4 73.5, 524.8 73.5 Q 524.1 73.5, 523.7 74.0 Q 523.4 74.4, 523.4 75.3 Q 523.4 76.1, 523.7 76.6 Q 524.1 77.0, 524.8 77.0 " fill="#FF0000"/>
<path class="atom-0" d="M 466.1,40.4 L 466.1,40.4 L 466.1,40.4 L 466.1,40.5 L 466.1,40.5 L 466.1,40.5 L 466.1,40.5 L 466.1,40.6 L 466.1,40.6 L 466.0,40.6 L 466.0,40.6 L 466.0,40.6 L 466.0,40.7 L 466.0,40.7 L 465.9,40.7 L 465.9,40.7 L 465.9,40.7 L 465.9,40.7 L 465.8,40.7 L 465.8,40.7 L 465.8,40.7 L 465.8,40.7 L 465.7,40.7 L 465.7,40.7 L 465.7,40.7 L 465.7,40.6 L 465.6,40.6 L 465.6,40.6 L 465.6,40.6 L 465.6,40.6 L 465.6,40.6 L 465.6,40.5 L 465.5,40.5 L 465.5,40.5 L 465.5,40.5 L 465.5,40.4 L 465.5,40.4 L 465.5,40.4 L 465.5,40.4 L 465.5,40.3 L 465.5,40.3 L 465.5,40.3 L 465.6,40.3 L 465.6,40.2 L 465.6,40.2 L 465.6,40.2 L 465.6,40.2 L 465.6,40.2 L 465.7,40.1 L 465.7,40.1 L 465.7,40.1 L 465.7,40.1 L 465.8,40.1 L 465.8,40.1 L 465.8,40.1 L 465.8,40.1 L 465.9,40.1 L 465.9,40.1 L 465.9,40.1 L 465.9,40.1 L 466.0,40.1 L 466.0,40.1 L 466.0,40.1 L 466.0,40.2 L 466.0,40.2 L 466.1,40.2 L 466.1,40.2 L 466.1,40.2 L 466.1,40.3 L 466.1,40.3 L 466.1,40.3 L 466.1,40.3 L 466.1,40.4 L 466.1,40.4 L 465.8,40.4 Z" style="fill:#000000;fill-rule:evenodd;fill-opacity:1;stroke:#000000;stroke-width:0.0px;stroke-linecap:butt;stroke-linejoin:miter;stroke-opacity:1;"/>
<path class="atom-0" d="M 466.1,43.5 L 466.1,43.5 L 466.1,43.5 L 466.1,43.5 L 466.1,43.6 L 466.1,43.6 L 466.1,43.6 L 466.1,43.6 L 466.1,43.6 L 466.0,43.7 L 466.0,43.7 L 466.0,43.7 L 466.0,43.7 L 466.0,43.7 L 465.9,43.7 L 465.9,43.7 L 465.9,43.8 L 465.9,43.8 L 465.8,43.8 L 465.8,43.8 L 465.8,43.8 L 465.8,43.8 L 465.7,43.7 L 465.7,43.7 L 465.7,43.7 L 465.7,43.7 L 465.6,43.7 L 465.6,43.7 L 465.6,43.7 L 465.6,43.6 L 465.6,43.6 L 465.6,43.6 L 465.5,43.6 L 465.5,43.5 L 465.5,43.5 L 465.5,43.5 L 465.5,43.5 L 465.5,43.4 L 465.5,43.4 L 465.5,43.4 L 465.5,43.4 L 465.5,43.3 L 465.6,43.3 L 465.6,43.3 L 465.6,43.3 L 465.6,43.2 L 465.6,43.2 L 465.6,43.2 L 465.7,43.2 L 465.7,43.2 L 465.7,43.2 L 465.7,43.2 L 465.8,43.2 L 465.8,43.2 L 465.8,43.1 L 465.8,43.1 L 465.9,43.1 L 465.9,43.2 L 465.9,43.2 L 465.9,43.2 L 466.0,43.2 L 466.0,43.2 L 466.0,43.2 L 466.0,43.2 L 466.0,43.2 L 466.1,43.3 L 466.1,43.3 L 466.1,43.3 L 466.1,43.3 L 466.1,43.3 L 466.1,43.4 L 466.1,43.4 L 466.1,43.4 L 466.1,43.5 L 465.8,43.5 Z" style="fill:#000000;fill-rule:evenodd;fill-opacity:1;stroke:#000000;stroke-width:0.0px;stroke-linecap:butt;stroke-linejoin:miter;stroke-opacity:1;"/>
<path class="atom-0" d="M 466.1,41.9 L 466.1,41.9 L 466.1,42.0 L 466.1,42.0 L 466.1,42.0 L 466.1,42.1 L 466.1,42.1 L 466.1,42.1 L 466.1,42.1 L 466.0,42.1 L 466.0,42.2 L 466.0,42.2 L 466.0,42.2 L 466.0,42.2 L 465.9,42.2 L 465.9,42.2 L 465.9,42.2 L 465.9,42.2 L 465.8,42.2 L 465.8,42.2 L 465.8,42.2 L 465.8,42.2 L 465.7,42.2 L 465.7,42.2 L 465.7,42.2 L 465.7,42.2 L 465.6,42.2 L 465.6,42.1 L 465.6,42.1 L 465.6,42.1 L 465.6,42.1 L 465.6,42.1 L 465.5,42.0 L 465.5,42.0 L 465.5,42.0 L 465.5,42.0 L 465.5,41.9 L 465.5,41.9 L 465.5,41.9 L 465.5,41.9 L 465.5,41.8 L 465.5,41.8 L 465.6,41.8 L 465.6,41.8 L 465.6,41.7 L 465.6,41.7 L 465.6,41.7 L 465.6,41.7 L 465.7,41.7 L 465.7,41.7 L 465.7,41.6 L 465.7,41.6 L 465.8,41.6 L 465.8,41.6 L 465.8,41.6 L 465.8,41.6 L 465.9,41.6 L 465.9,41.6 L 465.9,41.6 L 465.9,41.6 L 466.0,41.6 L 466.0,41.7 L 466.0,41.7 L 466.0,41.7 L 466.0,41.7 L 466.1,41.7 L 466.1,41.8 L 466.1,41.8 L 466.1,41.8 L 466.1,41.8 L 466.1,41.8 L 466.1,41.9 L 466.1,41.9 L 466.1,41.9 L 465.8,41.9 Z" style="fill:#000000;fill-rule:evenodd;fill-opacity:1;stroke:#000000;stroke-width:0.0px;stroke-linecap:butt;stroke-linejoin:miter;stroke-opacity:1;"/>
<path class="bond-0 atom-0 atom-1" d="M 798.7,125.9 L 783.5,128.0" style="fill:none;fill-rule:evenodd;stroke:#000000;stroke-width:2.0px;stroke-linecap:butt;stroke-linejoin:miter;stroke-opacity:1"/>
<path class="bond-1 atom-1 atom-2" d="M 783.5,128.0 L 779.9,123.3" style="fill:none;fill-rule:evenodd;stroke:#000000;stroke-width:2.0px;stroke-linecap:butt;stroke-linejoin:miter;stroke-opacity:1"/>
<path class="bond-1 atom-1 atom-2" d="M 779.9,123.3 L 776.2,118.6" style="fill:none;fill-rule:evenodd;stroke:#CCCC00;stroke-width:2.0px;stroke-linecap:butt;stroke-linejoin:miter;stroke-opacity:1"/>
<path class="bond-2 atom-2 atom-3" d="M 772.3,116.2 L 766.6,117.0" style="fill:none;fill-rule:evenodd;stroke:#CCCC00;stroke-width:2.0px;stroke-linecap:butt;stroke-linejoin:miter;stroke-opacity:1"/>
<path class="bond-2 atom-2 atom-3" d="M 766.6,117.0 L 760.9,117.8" style="fill:none;fill-rule:evenodd;stroke:#FF7F00;stroke-width:2.0px;stroke-linecap:butt;stroke-linejoin:miter;stroke-opacity:1"/>
<path class="bond-2 atom-2 atom-3" d="M 771.0,119.5 L 767.0,120.0" style="fill:none;fill-rule:evenodd;stroke:#CCCC00;stroke-width:2.0px;stroke-linecap:butt;stroke-linejoin:miter;stroke-opacity:1"/>
<path class="bond-2 atom-2 atom-3" d="M 767.0,120.0 L 763.0,120.6" style="fill:none;fill-rule:evenodd;stroke:#FF7F00;stroke-width:2.0px;stroke-linecap:butt;stroke-linejoin:miter;stroke-opacity:1"/>
<path class="bond-3 atom-3 atom-4" d="M 756.8,123.5 L 755.6,126.5" style="fill:none;fill-rule:evenodd;stroke:#FF7F00;stroke-width:2.0px;stroke-linecap:butt;stroke-linejoin:miter;stroke-opacity:1"/>
<path class="bond-3 atom-3 atom-4" d="M 755.6,126.5 L 754.3,129.5" style="fill:none;fill-rule:evenodd;stroke:#FF0000;stroke-width:2.0px;stroke-linecap:butt;stroke-linejoin:miter;stroke-opacity:1"/>
<path class="bond-4 atom-3 atom-5" d="M 757.1,115.6 L 753.4,110.8" style="fill:none;fill-rule:evenodd;stroke:#FF7F00;stroke-width:2.0px;stroke-linecap:butt;stroke-linejoin:miter;stroke-opacity:1"/>
<path class="bond-4 atom-3 atom-5" d="M 753.4,110.8 L 749.6,106.0" style="fill:none;fill-rule:evenodd;stroke:#000000;stroke-width:2.0px;stroke-linecap:butt;stroke-linejoin:miter;stroke-opacity:1"/>
<path class="bond-5 atom-5 atom-6" d="M 749.6,106.0 L 734.5,108.1" style="fill:none;fill-rule:evenodd;stroke:#000000;stroke-width:2.0px;stroke-linecap:butt;stroke-linejoin:miter;stroke-opacity:1"/>
<path class="bond-5 atom-5 atom-6" d="M 746.9,103.3 L 736.3,104.7" style="fill:none;fill-rule:evenodd;stroke:#000000;stroke-width:2.0px;stroke-linecap:butt;stroke-linejoin:miter;stroke-opacity:1"/>
<path class="bond-6 atom-6 atom-7" d="M 734.5,108.1 L 730.8,103.4" style="fill:none;fill-rule:evenodd;stroke:#000000;stroke-width:2.0px;stroke-linecap:butt;stroke-linejoin:miter;stroke-opacity:1"/>
<path class="bond-6 atom-6 atom-7" d="M 730.8,103.4 L 727.2,98.7" style="fill:none;fill-rule:evenodd;stroke:#0000FF;stroke-width:2.0px;stroke-linecap:butt;stroke-linejoin:miter;stroke-opacity:1"/>
<path class="bond-7 atom-7 atom-8" d="M 722.9,96.3 L 716.4,97.2" style="fill:none;fill-rule:evenodd;stroke:#0000FF;stroke-width:2.0px;stroke-linecap:butt;stroke-linejoin:miter;stroke-opacity:1"/>
<path class="bond-7 atom-7 atom-8" d="M 716.4,97.2 L 709.9,98.1" style="fill:none;fill-rule:evenodd;stroke:#000000;stroke-width:2.0px;stroke-linecap:butt;stroke-linejoin:miter;stroke-opacity:1"/>
<path class="bond-8 atom-8 atom-9" d="M 709.9,98.1 L 713.6,112.9" style="fill:none;fill-rule:evenodd;stroke:#000000;stroke-width:2.0px;stroke-linecap:butt;stroke-linejoin:miter;stroke-opacity:1"/>
<path class="bond-9 atom-9 atom-10" d="M 713.6,112.9 L 702.6,123.5" style="fill:none;fill-rule:evenodd;stroke:#000000;stroke-width:2.0px;stroke-linecap:butt;stroke-linejoin:miter;stroke-opacity:1"/>
<path class="bond-10 atom-10 atom-11" d="M 702.6,123.5 L 698.1,127.8" style="fill:none;fill-rule:evenodd;stroke:#000000;stroke-width:2.0px;stroke-linecap:butt;stroke-linejoin:miter;stroke-opacity:1"/>
<path class="bond-10 atom-10 atom-11" d="M 698.1,127.8 L 693.7,132.1" style="fill:none;fill-rule:evenodd;stroke:#0000FF;stroke-width:2.0px;stroke-linecap:butt;stroke-linejoin:miter;stroke-opacity:1"/>
<path class="bond-10 atom-10 atom-11" d="M 703.4,127.0 L 699.6,130.6" style="fill:none;fill-rule:evenodd;stroke:#000000;stroke-width:2.0px;stroke-linecap:butt;stroke-linejoin:miter;stroke-opacity:1"/>
<path class="bond-10 atom-10 atom-11" d="M 699.6,130.6 L 695.8,134.3" style="fill:none;fill-rule:evenodd;stroke:#0000FF;stroke-width:2.0px;stroke-linecap:butt;stroke-linejoin:miter;stroke-opacity:1"/>
<path class="bond-10 atom-10 atom-11" d="M 699.1,122.6 L 695.3,126.2" style="fill:none;fill-rule:evenodd;stroke:#000000;stroke-width:2.0px;stroke-linecap:butt;stroke-linejoin:miter;stroke-opacity:1"/>
<path class="bond-10 atom-10 atom-11" d="M 695.3,126.2 L 691.6,129.9" style="fill:none;fill-rule:evenodd;stroke:#0000FF;stroke-width:2.0px;stroke-linecap:butt;stroke-linejoin:miter;stroke-opacity:1"/>
<path class="bond-11 atom-8 atom-12" d="M 709.9,98.1 L 695.5,103.3" style="fill:none;fill-rule:evenodd;stroke:#000000;stroke-width:2.0px;stroke-linecap:butt;stroke-linejoin:miter;stroke-opacity:1"/>
<path class="bond-12 atom-12 atom-13" d="M 695.5,103.3 L 686.2,91.2" style="fill:none;fill-rule:evenodd;stroke:#000000;stroke-width:2.0px;stroke-linecap:butt;stroke-linejoin:miter;stroke-opacity:1"/>
<path class="bond-13 atom-13 atom-14" d="M 686.2,91.2 L 689.5,86.2" style="fill:none;fill-rule:evenodd;stroke:#000000;stroke-width:2.0px;stroke-linecap:butt;stroke-linejoin:miter;stroke-opacity:1"/>
<path class="bond-13 atom-13 atom-14" d="M 689.5,86.2 L 692.9,81.2" style="fill:none;fill-rule:evenodd;stroke:#0000FF;stroke-width:2.0px;stroke-linecap:butt;stroke-linejoin:miter;stroke-opacity:1"/>
<path class="bond-14 atom-14 atom-15" d="M 693.8,75.9 L 691.7,70.0" style="fill:none;fill-rule:evenodd;stroke:#0000FF;stroke-width:2.0px;stroke-linecap:butt;stroke-linejoin:miter;stroke-opacity:1"/>
<path class="bond-14 atom-14 atom-15" d="M 691.7,70.0 L 689.5,64.2" style="fill:none;fill-rule:evenodd;stroke:#000000;stroke-width:2.0px;stroke-linecap:butt;stroke-linejoin:miter;stroke-opacity:1"/>
<path class="bond-15 atom-15 atom-16" d="M 689.3,65.7 L 683.0,64.5" style="fill:none;fill-rule:evenodd;stroke:#000000;stroke-width:2.0px;stroke-linecap:butt;stroke-linejoin:miter;stroke-opacity:1"/>
<path class="bond-15 atom-15 atom-16" d="M 683.0,64.5 L 676.7,63.4" style="fill:none;fill-rule:evenodd;stroke:#FF0000;stroke-width:2.0px;stroke-linecap:butt;stroke-linejoin:miter;stroke-opacity:1"/>
<path class="bond-15 atom-15 atom-16" d="M 689.8,62.7 L 683.5,61.5" style="fill:none;fill-rule:evenodd;stroke:#000000;stroke-width:2.0px;stroke-linecap:butt;stroke-linejoin:miter;stroke-opacity:1"/>
<path class="bond-15 atom-15 atom-16" d="M 683.5,61.5 L 677.3,60.4" style="fill:none;fill-rule:evenodd;stroke:#FF0000;stroke-width:2.0px;stroke-linecap:butt;stroke-linejoin:miter;stroke-opacity:1"/>
<path class="bond-16 atom-15 atom-17" d="M 689.5,64.2 L 693.3,59.7" style="fill:none;fill-rule:evenodd;stroke:#000000;stroke-width:2.0px;stroke-linecap:butt;stroke-linejoin:miter;stroke-opacity:1"/>
<path class="bond-16 atom-15 atom-17" d="M 693.3,59.7 L 697.1,55.2" style="fill:none;fill-rule:evenodd;stroke:#FF0000;stroke-width:2.0px;stroke-linecap:butt;stroke-linejoin:miter;stroke-opacity:1"/>
<path class="bond-17 atom-17 atom-18" d="M 698.4,49.8 L 696.3,43.9" style="fill:none;fill-rule:evenodd;stroke:#FF0000;stroke-width:2.0px;stroke-linecap:butt;stroke-linejoin:miter;stroke-opacity:1"/>
<path class="bond-17 atom-17 atom-18" d="M 696.3,43.9 L 694.2,38.1" style="fill:none;fill-rule:evenodd;stroke:#000000;stroke-width:2.0px;stroke-linecap:butt;stroke-linejoin:miter;stroke-opacity:1"/>
<path class="bond-18 atom-18 atom-19" d="M 694.2,38.1 L 708.6,32.9" style="fill:none;fill-rule:evenodd;stroke:#000000;stroke-width:2.0px;stroke-linecap:butt;stroke-linejoin:miter;stroke-opacity:1"/>
<path class="bond-19 atom-18 atom-20" d="M 694.2,38.1 L 679.8,43.3" style="fill:none;fill-rule:evenodd;stroke:#000000;stroke-width:2.0px;stroke-linecap:butt;stroke-linejoin:miter;stroke-opacity:1"/>
<path class="bond-20 atom-18 atom-21" d="M 694.2,38.1 L 689.0,23.7" style="fill:none;fill-rule:evenodd;stroke:#000000;stroke-width:2.0px;stroke-linecap:butt;stroke-linejoin:miter;stroke-opacity:1"/>
<path class="bond-21 atom-14 atom-22" d="M 696.9,79.2 L 703.2,81.0" style="fill:none;fill-rule:evenodd;stroke:#0000FF;stroke-width:2.0px;stroke-linecap:butt;stroke-linejoin:miter;stroke-opacity:1"/>
<path class="bond-21 atom-14 atom-22" d="M 703.2,81.0 L 709.4,82.8" style="fill:none;fill-rule:evenodd;stroke:#000000;stroke-width:2.0px;stroke-linecap:butt;stroke-linejoin:miter;stroke-opacity:1"/>
<path class="bond-22 atom-7 atom-23" d="M 726.2,93.3 L 729.8,84.5" style="fill:none;fill-rule:evenodd;stroke:#0000FF;stroke-width:2.0px;stroke-linecap:butt;stroke-linejoin:miter;stroke-opacity:1"/>
<path class="bond-23 atom-23 atom-24" d="M 733.0,81.5 L 739.5,80.6" style="fill:none;fill-rule:evenodd;stroke:#0000FF;stroke-width:2.0px;stroke-linecap:butt;stroke-linejoin:miter;stroke-opacity:1"/>
<path class="bond-23 atom-23 atom-24" d="M 739.5,80.6 L 746.0,79.7" style="fill:none;fill-rule:evenodd;stroke:#000000;stroke-width:2.0px;stroke-linecap:butt;stroke-linejoin:miter;stroke-opacity:1"/>
<path class="bond-23 atom-23 atom-24" d="M 735.4,84.3 L 739.9,83.7" style="fill:none;fill-rule:evenodd;stroke:#0000FF;stroke-width:2.0px;stroke-linecap:butt;stroke-linejoin:miter;stroke-opacity:1"/>
<path class="bond-23 atom-23 atom-24" d="M 739.9,83.7 L 744.5,83.0" style="fill:none;fill-rule:evenodd;stroke:#000000;stroke-width:2.0px;stroke-linecap:butt;stroke-linejoin:miter;stroke-opacity:1"/>
<path class="bond-24 atom-24 atom-25" d="M 746.0,79.7 L 748.3,74.0" style="fill:none;fill-rule:evenodd;stroke:#000000;stroke-width:2.0px;stroke-linecap:butt;stroke-linejoin:miter;stroke-opacity:1"/>
<path class="bond-24 atom-24 atom-25" d="M 748.3,74.0 L 750.7,68.2" style="fill:none;fill-rule:evenodd;stroke:#0000FF;stroke-width:2.0px;stroke-linecap:butt;stroke-linejoin:miter;stroke-opacity:1"/>
<path class="bond-25 atom-25 atom-26" d="M 753.9,65.3 L 760.4,64.4" style="fill:none;fill-rule:evenodd;stroke:#0000FF;stroke-width:2.0px;stroke-linecap:butt;stroke-linejoin:miter;stroke-opacity:1"/>
<path class="bond-25 atom-25 atom-26" d="M 760.4,64.4 L 766.9,63.5" style="fill:none;fill-rule:evenodd;stroke:#000000;stroke-width:2.0px;stroke-linecap:butt;stroke-linejoin:miter;stroke-opacity:1"/>
<path class="bond-26 atom-26 atom-27" d="M 766.9,63.5 L 776.3,75.5" style="fill:none;fill-rule:evenodd;stroke:#000000;stroke-width:2.0px;stroke-linecap:butt;stroke-linejoin:miter;stroke-opacity:1"/>
<path class="bond-26 atom-26 atom-27" d="M 770.7,63.4 L 777.3,71.9" style="fill:none;fill-rule:evenodd;stroke:#000000;stroke-width:2.0px;stroke-linecap:butt;stroke-linejoin:miter;stroke-opacity:1"/>
<path class="bond-27 atom-27 atom-28" d="M 776.3,75.5 L 791.4,73.5" style="fill:none;fill-rule:evenodd;stroke:#000000;stroke-width:2.0px;stroke-linecap:butt;stroke-linejoin:miter;stroke-opacity:1"/>
<path class="bond-28 atom-28 atom-29" d="M 791.4,73.5 L 797.2,59.3" style="fill:none;fill-rule:evenodd;stroke:#000000;stroke-width:2.0px;stroke-linecap:butt;stroke-linejoin:miter;stroke-opacity:1"/>
<path class="bond-28 atom-28 atom-29" d="M 789.5,70.2 L 793.5,60.3" style="fill:none;fill-rule:evenodd;stroke:#000000;stroke-width:2.0px;stroke-linecap:butt;stroke-linejoin:miter;stroke-opacity:1"/>
<path class="bond-29 atom-29 atom-30" d="M 797.2,59.3 L 803.8,58.4" style="fill:none;fill-rule:evenodd;stroke:#000000;stroke-width:2.0px;stroke-linecap:butt;stroke-linejoin:miter;stroke-opacity:1"/>
<path class="bond-29 atom-29 atom-30" d="M 803.8,58.4 L 810.5,57.5" style="fill:none;fill-rule:evenodd;stroke:#CCCC00;stroke-width:2.0px;stroke-linecap:butt;stroke-linejoin:miter;stroke-opacity:1"/>
<path class="bond-30 atom-30 atom-31" d="M 814.2,56.9 L 820.9,56.0" style="fill:none;fill-rule:evenodd;stroke:#CCCC00;stroke-width:2.0px;stroke-linecap:butt;stroke-linejoin:miter;stroke-opacity:1"/>
<path class="bond-30 atom-30 atom-31" d="M 820.9,56.0 L 827.5,55.1" style="fill:none;fill-rule:evenodd;stroke:#000000;stroke-width:2.0px;stroke-linecap:butt;stroke-linejoin:miter;stroke-opacity:1"/>
<path class="bond-31 atom-30 atom-32" d="M 810.5,54.7 L 809.8,49.9" style="fill:none;fill-rule:evenodd;stroke:#CCCC00;stroke-width:2.0px;stroke-linecap:butt;stroke-linejoin:miter;stroke-opacity:1"/>
<path class="bond-31 atom-30 atom-32" d="M 809.8,49.9 L 809.1,45.0" style="fill:none;fill-rule:evenodd;stroke:#FF0000;stroke-width:2.0px;stroke-linecap:butt;stroke-linejoin:miter;stroke-opacity:1"/>
<path class="bond-31 atom-30 atom-32" d="M 813.5,54.3 L 812.8,49.5" style="fill:none;fill-rule:evenodd;stroke:#CCCC00;stroke-width:2.0px;stroke-linecap:butt;stroke-linejoin:miter;stroke-opacity:1"/>
<path class="bond-31 atom-30 atom-32" d="M 812.8,49.5 L 812.2,44.6" style="fill:none;fill-rule:evenodd;stroke:#FF0000;stroke-width:2.0px;stroke-linecap:butt;stroke-linejoin:miter;stroke-opacity:1"/>
<path class="bond-32 atom-30 atom-33" d="M 814.2,59.8 L 814.9,64.6" style="fill:none;fill-rule:evenodd;stroke:#CCCC00;stroke-width:2.0px;stroke-linecap:butt;stroke-linejoin:miter;stroke-opacity:1"/>
<path class="bond-32 atom-30 atom-33" d="M 814.9,64.6 L 815.6,69.4" style="fill:none;fill-rule:evenodd;stroke:#FF0000;stroke-width:2.0px;stroke-linecap:butt;stroke-linejoin:miter;stroke-opacity:1"/>
<path class="bond-32 atom-30 atom-33" d="M 811.2,60.2 L 811.9,65.0" style="fill:none;fill-rule:evenodd;stroke:#CCCC00;stroke-width:2.0px;stroke-linecap:butt;stroke-linejoin:miter;stroke-opacity:1"/>
<path class="bond-32 atom-30 atom-33" d="M 811.9,65.0 L 812.6,69.9" style="fill:none;fill-rule:evenodd;stroke:#FF0000;stroke-width:2.0px;stroke-linecap:butt;stroke-linejoin:miter;stroke-opacity:1"/>
<path class="bond-33 atom-29 atom-34" d="M 797.2,59.3 L 787.8,47.2" style="fill:none;fill-rule:evenodd;stroke:#000000;stroke-width:2.0px;stroke-linecap:butt;stroke-linejoin:miter;stroke-opacity:1"/>
<path class="bond-34 atom-34 atom-35" d="M 787.8,47.2 L 772.7,49.3" style="fill:none;fill-rule:evenodd;stroke:#000000;stroke-width:2.0px;stroke-linecap:butt;stroke-linejoin:miter;stroke-opacity:1"/>
<path class="bond-34 atom-34 atom-35" d="M 786.0,50.6 L 775.4,52.0" style="fill:none;fill-rule:evenodd;stroke:#000000;stroke-width:2.0px;stroke-linecap:butt;stroke-linejoin:miter;stroke-opacity:1"/>
<path class="bond-35 atom-24 atom-36" d="M 746.0,79.7 L 755.4,91.8" style="fill:none;fill-rule:evenodd;stroke:#000000;stroke-width:2.0px;stroke-linecap:butt;stroke-linejoin:miter;stroke-opacity:1"/>
<path class="bond-36 atom-36 atom-37" d="M 755.2,90.3 L 761.5,89.4" style="fill:none;fill-rule:evenodd;stroke:#000000;stroke-width:2.0px;stroke-linecap:butt;stroke-linejoin:miter;stroke-opacity:1"/>
<path class="bond-36 atom-36 atom-37" d="M 761.5,89.4 L 767.8,88.5" style="fill:none;fill-rule:evenodd;stroke:#FF0000;stroke-width:2.0px;stroke-linecap:butt;stroke-linejoin:miter;stroke-opacity:1"/>
<path class="bond-36 atom-36 atom-37" d="M 755.6,93.3 L 761.9,92.4" style="fill:none;fill-rule:evenodd;stroke:#000000;stroke-width:2.0px;stroke-linecap:butt;stroke-linejoin:miter;stroke-opacity:1"/>
<path class="bond-36 atom-36 atom-37" d="M 761.9,92.4 L 768.2,91.6" style="fill:none;fill-rule:evenodd;stroke:#FF0000;stroke-width:2.0px;stroke-linecap:butt;stroke-linejoin:miter;stroke-opacity:1"/>
<path class="bond-37 atom-36 atom-5" d="M 755.4,91.8 L 749.6,106.0" style="fill:none;fill-rule:evenodd;stroke:#000000;stroke-width:2.0px;stroke-linecap:butt;stroke-linejoin:miter;stroke-opacity:1"/>
<path class="bond-38 atom-22 atom-8" d="M 709.4,82.8 L 709.9,98.1" style="fill:none;fill-rule:evenodd;stroke:#000000;stroke-width:2.0px;stroke-linecap:butt;stroke-linejoin:miter;stroke-opacity:1"/>
<path class="bond-39 atom-35 atom-26" d="M 772.7,49.3 L 766.9,63.5" style="fill:none;fill-rule:evenodd;stroke:#000000;stroke-width:2.0px;stroke-linecap:butt;stroke-linejoin:miter;stroke-opacity:1"/>
<path class="atom-2" d="M 772.9 117.4 Q 773.0 117.5, 773.2 117.5 Q 773.4 117.6, 773.6 117.7 Q 773.8 117.7, 774.0 117.7 Q 774.5 117.7, 774.7 117.5 Q 774.9 117.3, 774.9 117.0 Q 774.9 116.8, 774.8 116.6 Q 774.7 116.5, 774.5 116.4 Q 774.3 116.3, 774.0 116.2 Q 773.6 116.1, 773.4 116.0 Q 773.2 115.9, 773.0 115.6 Q 772.9 115.4, 772.9 115.0 Q 772.9 114.5, 773.2 114.1 Q 773.6 113.8, 774.3 113.8 Q 774.8 113.8, 775.4 114.0 L 775.3 114.5 Q 774.7 114.3, 774.3 114.3 Q 773.9 114.3, 773.7 114.5 Q 773.5 114.6, 773.5 114.9 Q 773.5 115.2, 773.6 115.3 Q 773.7 115.5, 773.9 115.5 Q 774.1 115.6, 774.3 115.7 Q 774.7 115.8, 775.0 116.0 Q 775.2 116.1, 775.4 116.3 Q 775.5 116.6, 775.5 117.0 Q 775.5 117.6, 775.1 117.9 Q 774.7 118.2, 774.1 118.2 Q 773.7 118.2, 773.4 118.1 Q 773.1 118.1, 772.8 117.9 L 772.9 117.4 " fill="#CCCC00"/>
<path class="atom-2" d="M 775.8 113.8 L 776.4 113.8 L 776.4 115.6 L 778.6 115.6 L 778.6 113.8 L 779.2 113.8 L 779.2 118.1 L 778.6 118.1 L 778.6 116.1 L 776.4 116.1 L 776.4 118.1 L 775.8 118.1 L 775.8 113.8 " fill="#CCCC00"/>
<path class="atom-3" d="M 758.9 115.9 Q 759.6 115.9, 760.0 116.2 Q 760.4 116.5, 760.4 117.2 Q 760.4 117.8, 760.0 118.1 Q 759.6 118.4, 758.9 118.4 L 758.2 118.4 L 758.2 120.2 L 757.6 120.2 L 757.6 115.9 L 758.9 115.9 M 758.9 117.9 Q 759.3 117.9, 759.5 117.7 Q 759.8 117.5, 759.8 117.2 Q 759.8 116.8, 759.5 116.6 Q 759.3 116.4, 758.9 116.4 L 758.2 116.4 L 758.2 117.9 L 758.9 117.9 " fill="#FF7F00"/>
<path class="atom-3" d="M 757.3 120.6 L 757.9 120.6 L 757.9 122.5 L 760.1 122.5 L 760.1 120.6 L 760.7 120.6 L 760.7 125.0 L 760.1 125.0 L 760.1 123.0 L 757.9 123.0 L 757.9 125.0 L 757.3 125.0 L 757.3 120.6 " fill="#FF7F00"/>
<path class="atom-4" d="M 747.3 130.1 L 747.9 130.1 L 747.9 131.9 L 750.1 131.9 L 750.1 130.1 L 750.7 130.1 L 750.7 134.4 L 750.1 134.4 L 750.1 132.4 L 747.9 132.4 L 747.9 134.4 L 747.3 134.4 L 747.3 130.1 " fill="#FF0000"/>
<path class="atom-4" d="M 751.3 132.2 Q 751.3 131.2, 751.8 130.6 Q 752.3 130.0, 753.2 130.0 Q 754.2 130.0, 754.7 130.6 Q 755.2 131.2, 755.2 132.2 Q 755.2 133.3, 754.7 133.9 Q 754.2 134.5, 753.2 134.5 Q 752.3 134.5, 751.8 133.9 Q 751.3 133.3, 751.3 132.2 M 753.2 134.0 Q 753.9 134.0, 754.3 133.5 Q 754.6 133.1, 754.6 132.2 Q 754.6 131.4, 754.3 130.9 Q 753.9 130.5, 753.2 130.5 Q 752.6 130.5, 752.2 130.9 Q 751.9 131.4, 751.9 132.2 Q 751.9 133.1, 752.2 133.5 Q 752.6 134.0, 753.2 134.0 " fill="#FF0000"/>
<path class="atom-7" d="M 724.1 93.8 L 725.5 96.1 Q 725.7 96.3, 725.9 96.8 Q 726.1 97.2, 726.1 97.2 L 726.1 93.8 L 726.7 93.8 L 726.7 98.2 L 726.1 98.2 L 724.6 95.6 Q 724.4 95.4, 724.2 95.0 Q 724.1 94.7, 724.0 94.6 L 724.0 98.2 L 723.4 98.2 L 723.4 93.8 L 724.1 93.8 " fill="#0000FF"/>
<path class="atom-11" d="M 690.6 132.0 L 692.0 134.3 Q 692.1 134.5, 692.4 134.9 Q 692.6 135.3, 692.6 135.3 L 692.6 132.0 L 693.2 132.0 L 693.2 136.3 L 692.6 136.3 L 691.1 133.8 Q 690.9 133.5, 690.7 133.2 Q 690.5 132.8, 690.5 132.7 L 690.5 136.3 L 689.9 136.3 L 689.9 132.0 L 690.6 132.0 " fill="#0000FF"/>
<path class="atom-14" d="M 693.8 76.4 L 695.2 78.7 Q 695.3 78.9, 695.6 79.3 Q 695.8 79.7, 695.8 79.7 L 695.8 76.4 L 696.4 76.4 L 696.4 80.7 L 695.8 80.7 L 694.3 78.2 Q 694.1 77.9, 693.9 77.6 Q 693.7 77.2, 693.7 77.1 L 693.7 80.7 L 693.1 80.7 L 693.1 76.4 L 693.8 76.4 " fill="#0000FF"/>
<path class="atom-16" d="M 672.5 61.5 Q 672.5 60.4, 673.0 59.9 Q 673.5 59.3, 674.5 59.3 Q 675.5 59.3, 676.0 59.9 Q 676.5 60.4, 676.5 61.5 Q 676.5 62.5, 676.0 63.1 Q 675.4 63.7, 674.5 63.7 Q 673.5 63.7, 673.0 63.1 Q 672.5 62.5, 672.5 61.5 M 674.5 63.2 Q 675.2 63.2, 675.5 62.8 Q 675.9 62.4, 675.9 61.5 Q 675.9 60.6, 675.5 60.2 Q 675.2 59.8, 674.5 59.8 Q 673.8 59.8, 673.5 60.2 Q 673.1 60.6, 673.1 61.5 Q 673.1 62.4, 673.5 62.8 Q 673.8 63.2, 674.5 63.2 " fill="#FF0000"/>
<path class="atom-17" d="M 697.4 52.5 Q 697.4 51.4, 697.9 50.9 Q 698.4 50.3, 699.4 50.3 Q 700.4 50.3, 700.9 50.9 Q 701.4 51.4, 701.4 52.5 Q 701.4 53.5, 700.9 54.1 Q 700.4 54.7, 699.4 54.7 Q 698.5 54.7, 697.9 54.1 Q 697.4 53.5, 697.4 52.5 M 699.4 54.2 Q 700.1 54.2, 700.4 53.8 Q 700.8 53.4, 700.8 52.5 Q 700.8 51.6, 700.4 51.2 Q 700.1 50.8, 699.4 50.8 Q 698.7 50.8, 698.4 51.2 Q 698.0 51.6, 698.0 52.5 Q 698.0 53.4, 698.4 53.8 Q 698.7 54.2, 699.4 54.2 " fill="#FF0000"/>
<path class="atom-23" d="M 729.9 79.7 L 731.3 82.0 Q 731.4 82.2, 731.7 82.6 Q 731.9 83.0, 731.9 83.0 L 731.9 79.7 L 732.5 79.7 L 732.5 84.0 L 731.9 84.0 L 730.4 81.5 Q 730.2 81.2, 730.0 80.9 Q 729.8 80.5, 729.8 80.4 L 729.8 84.0 L 729.2 84.0 L 729.2 79.7 L 729.9 79.7 " fill="#0000FF"/>
<path class="atom-25" d="M 746.2 63.4 L 746.8 63.4 L 746.8 65.2 L 749.0 65.2 L 749.0 63.4 L 749.6 63.4 L 749.6 67.7 L 749.0 67.7 L 749.0 65.7 L 746.8 65.7 L 746.8 67.7 L 746.2 67.7 L 746.2 63.4 " fill="#0000FF"/>
<path class="atom-25" d="M 750.8 63.4 L 752.2 65.7 Q 752.4 65.9, 752.6 66.3 Q 752.8 66.7, 752.8 66.8 L 752.8 63.4 L 753.4 63.4 L 753.4 67.7 L 752.8 67.7 L 751.3 65.2 Q 751.1 64.9, 750.9 64.6 Q 750.7 64.3, 750.7 64.2 L 750.7 67.7 L 750.1 67.7 L 750.1 63.4 L 750.8 63.4 " fill="#0000FF"/>
<path class="atom-30" d="M 811.1 58.7 Q 811.2 58.7, 811.4 58.8 Q 811.6 58.9, 811.8 58.9 Q 812.0 59.0, 812.2 59.0 Q 812.7 59.0, 812.9 58.8 Q 813.1 58.6, 813.1 58.2 Q 813.1 58.0, 813.0 57.8 Q 812.9 57.7, 812.7 57.6 Q 812.5 57.5, 812.2 57.4 Q 811.8 57.3, 811.6 57.2 Q 811.4 57.1, 811.2 56.9 Q 811.0 56.6, 811.0 56.3 Q 811.0 55.7, 811.4 55.4 Q 811.8 55.0, 812.5 55.0 Q 813.0 55.0, 813.6 55.3 L 813.5 55.7 Q 812.9 55.5, 812.5 55.5 Q 812.1 55.5, 811.9 55.7 Q 811.7 55.9, 811.7 56.2 Q 811.7 56.4, 811.8 56.6 Q 811.9 56.7, 812.1 56.8 Q 812.2 56.9, 812.5 56.9 Q 812.9 57.1, 813.2 57.2 Q 813.4 57.3, 813.6 57.6 Q 813.7 57.8, 813.7 58.2 Q 813.7 58.8, 813.3 59.2 Q 812.9 59.5, 812.3 59.5 Q 811.9 59.5, 811.6 59.4 Q 811.3 59.3, 811.0 59.2 L 811.1 58.7 " fill="#CCCC00"/>
<path class="atom-32" d="M 808.3 42.1 Q 808.3 41.0, 808.8 40.4 Q 809.3 39.9, 810.3 39.9 Q 811.2 39.9, 811.7 40.4 Q 812.2 41.0, 812.2 42.1 Q 812.2 43.1, 811.7 43.7 Q 811.2 44.3, 810.3 44.3 Q 809.3 44.3, 808.8 43.7 Q 808.3 43.1, 808.3 42.1 M 810.3 43.8 Q 810.9 43.8, 811.3 43.4 Q 811.6 42.9, 811.6 42.1 Q 811.6 41.2, 811.3 40.8 Q 810.9 40.3, 810.3 40.3 Q 809.6 40.3, 809.2 40.8 Q 808.9 41.2, 808.9 42.1 Q 808.9 42.9, 809.2 43.4 Q 809.6 43.8, 810.3 43.8 " fill="#FF0000"/>
<path class="atom-33" d="M 812.5 72.4 Q 812.5 71.3, 813.0 70.7 Q 813.5 70.2, 814.4 70.2 Q 815.4 70.2, 815.9 70.7 Q 816.4 71.3, 816.4 72.4 Q 816.4 73.4, 815.9 74.0 Q 815.4 74.6, 814.4 74.6 Q 813.5 74.6, 813.0 74.0 Q 812.5 73.4, 812.5 72.4 M 814.4 74.1 Q 815.1 74.1, 815.5 73.7 Q 815.8 73.2, 815.8 72.4 Q 815.8 71.5, 815.5 71.1 Q 815.1 70.6, 814.4 70.6 Q 813.8 70.6, 813.4 71.1 Q 813.1 71.5, 813.1 72.4 Q 813.1 73.2, 813.4 73.7 Q 813.8 74.1, 814.4 74.1 " fill="#FF0000"/>
<path class="atom-37" d="M 768.5 89.7 Q 768.5 88.7, 769.1 88.1 Q 769.6 87.5, 770.5 87.5 Q 771.5 87.5, 772.0 88.1 Q 772.5 88.7, 772.5 89.7 Q 772.5 90.8, 772.0 91.4 Q 771.5 92.0, 770.5 92.0 Q 769.6 92.0, 769.1 91.4 Q 768.5 90.8, 768.5 89.7 M 770.5 91.5 Q 771.2 91.5, 771.5 91.0 Q 771.9 90.6, 771.9 89.7 Q 771.9 88.9, 771.5 88.4 Q 771.2 88.0, 770.5 88.0 Q 769.9 88.0, 769.5 88.4 Q 769.1 88.9, 769.1 89.7 Q 769.1 90.6, 769.5 91.0 Q 769.9 91.5, 770.5 91.5 " fill="#FF0000"/>
<path class="atom-0" d="M 800.8,124.4 L 800.8,124.4 L 800.8,124.5 L 800.8,124.5 L 800.8,124.5 L 800.8,124.5 L 800.8,124.6 L 800.8,124.6 L 800.8,124.6 L 800.7,124.6 L 800.7,124.6 L 800.7,124.7 L 800.7,124.7 L 800.7,124.7 L 800.6,124.7 L 800.6,124.7 L 800.6,124.7 L 800.6,124.7 L 800.5,124.7 L 800.5,124.7 L 800.5,124.7 L 800.4,124.7 L 800.4,124.7 L 800.4,124.7 L 800.4,124.7 L 800.4,124.7 L 800.3,124.6 L 800.3,124.6 L 800.3,124.6 L 800.3,124.6 L 800.3,124.6 L 800.2,124.5 L 800.2,124.5 L 800.2,124.5 L 800.2,124.5 L 800.2,124.4 L 800.2,124.4 L 800.2,124.4 L 800.2,124.4 L 800.2,124.3 L 800.2,124.3 L 800.2,124.3 L 800.2,124.3 L 800.3,124.2 L 800.3,124.2 L 800.3,124.2 L 800.3,124.2 L 800.3,124.2 L 800.4,124.1 L 800.4,124.1 L 800.4,124.1 L 800.4,124.1 L 800.4,124.1 L 800.5,124.1 L 800.5,124.1 L 800.5,124.1 L 800.6,124.1 L 800.6,124.1 L 800.6,124.1 L 800.6,124.1 L 800.7,124.1 L 800.7,124.1 L 800.7,124.2 L 800.7,124.2 L 800.7,124.2 L 800.8,124.2 L 800.8,124.2 L 800.8,124.3 L 800.8,124.3 L 800.8,124.3 L 800.8,124.3 L 800.8,124.4 L 800.8,124.4 L 800.8,124.4 L 800.5,124.4 Z" style="fill:#000000;fill-rule:evenodd;fill-opacity:1;stroke:#000000;stroke-width:0.0px;stroke-linecap:butt;stroke-linejoin:miter;stroke-opacity:1;"/>
<path class="atom-0" d="M 800.8,127.5 L 800.8,127.5 L 800.8,127.5 L 800.8,127.5 L 800.8,127.6 L 800.8,127.6 L 800.8,127.6 L 800.8,127.6 L 800.8,127.7 L 800.7,127.7 L 800.7,127.7 L 800.7,127.7 L 800.7,127.7 L 800.7,127.7 L 800.6,127.7 L 800.6,127.8 L 800.6,127.8 L 800.6,127.8 L 800.5,127.8 L 800.5,127.8 L 800.5,127.8 L 800.4,127.8 L 800.4,127.8 L 800.4,127.7 L 800.4,127.7 L 800.4,127.7 L 800.3,127.7 L 800.3,127.7 L 800.3,127.7 L 800.3,127.6 L 800.3,127.6 L 800.2,127.6 L 800.2,127.6 L 800.2,127.6 L 800.2,127.5 L 800.2,127.5 L 800.2,127.5 L 800.2,127.4 L 800.2,127.4 L 800.2,127.4 L 800.2,127.4 L 800.2,127.3 L 800.2,127.3 L 800.3,127.3 L 800.3,127.3 L 800.3,127.3 L 800.3,127.2 L 800.3,127.2 L 800.4,127.2 L 800.4,127.2 L 800.4,127.2 L 800.4,127.2 L 800.4,127.2 L 800.5,127.2 L 800.5,127.2 L 800.5,127.2 L 800.6,127.2 L 800.6,127.2 L 800.6,127.2 L 800.6,127.2 L 800.7,127.2 L 800.7,127.2 L 800.7,127.2 L 800.7,127.2 L 800.7,127.2 L 800.8,127.3 L 800.8,127.3 L 800.8,127.3 L 800.8,127.3 L 800.8,127.4 L 800.8,127.4 L 800.8,127.4 L 800.8,127.4 L 800.8,127.5 L 800.5,127.5 Z" style="fill:#000000;fill-rule:evenodd;fill-opacity:1;stroke:#000000;stroke-width:0.0px;stroke-linecap:butt;stroke-linejoin:miter;stroke-opacity:1;"/>
<path class="atom-0" d="M 800.8,125.9 L 800.8,126.0 L 800.8,126.0 L 800.8,126.0 L 800.8,126.0 L 800.8,126.1 L 800.8,126.1 L 800.8,126.1 L 800.8,126.1 L 800.7,126.1 L 800.7,126.2 L 800.7,126.2 L 800.7,126.2 L 800.7,126.2 L 800.6,126.2 L 800.6,126.2 L 800.6,126.2 L 800.6,126.2 L 800.5,126.2 L 800.5,126.2 L 800.5,126.2 L 800.4,126.2 L 800.4,126.2 L 800.4,126.2 L 800.4,126.2 L 800.4,126.2 L 800.3,126.2 L 800.3,126.2 L 800.3,126.1 L 800.3,126.1 L 800.3,126.1 L 800.2,126.1 L 800.2,126.0 L 800.2,126.0 L 800.2,126.0 L 800.2,126.0 L 800.2,125.9 L 800.2,125.9 L 800.2,125.9 L 800.2,125.9 L 800.2,125.8 L 800.2,125.8 L 800.2,125.8 L 800.3,125.8 L 800.3,125.7 L 800.3,125.7 L 800.3,125.7 L 800.3,125.7 L 800.4,125.7 L 800.4,125.7 L 800.4,125.7 L 800.4,125.6 L 800.4,125.6 L 800.5,125.6 L 800.5,125.6 L 800.5,125.6 L 800.6,125.6 L 800.6,125.6 L 800.6,125.6 L 800.6,125.6 L 800.7,125.7 L 800.7,125.7 L 800.7,125.7 L 800.7,125.7 L 800.7,125.7 L 800.8,125.7 L 800.8,125.8 L 800.8,125.8 L 800.8,125.8 L 800.8,125.8 L 800.8,125.9 L 800.8,125.9 L 800.8,125.9 L 800.8,125.9 L 800.5,125.9 Z" style="fill:#000000;fill-rule:evenodd;fill-opacity:1;stroke:#000000;stroke-width:0.0px;stroke-linecap:butt;stroke-linejoin:miter;stroke-opacity:1;"/>
</svg>