<svg xmlns="http://www.w3.org/2000/svg" xmlns:rdkit="http://www.rdkit.org/xml" xmlns:xlink="http://www.w3.org/1999/xlink" version="1.1" baseProfile="full" xml:space="preserve" width="1500px" height="160px" viewBox="0 0 1500 160">
<!-- END OF HEADER -->
<rect style="opacity:1.0;fill:#FFFFFF;stroke:none" width="1500.0" height="160.0" x="0.0" y="0.0"> </rect>
<path class="bond-0 atom-0 atom-1" d="M 148.6,146.0 L 147.7,141.3" style="fill:none;fill-rule:evenodd;stroke:#000000;stroke-width:2.0px;stroke-linecap:butt;stroke-linejoin:miter;stroke-opacity:1"/>
<path class="bond-0 atom-0 atom-1" d="M 147.7,141.3 L 146.8,136.7" style="fill:none;fill-rule:evenodd;stroke:#0000FF;stroke-width:2.0px;stroke-linecap:butt;stroke-linejoin:miter;stroke-opacity:1"/>
<path class="bond-0 atom-0 atom-1" d="M 151.0,145.5 L 150.1,140.9" style="fill:none;fill-rule:evenodd;stroke:#000000;stroke-width:2.0px;stroke-linecap:butt;stroke-linejoin:miter;stroke-opacity:1"/>
<path class="bond-0 atom-0 atom-1" d="M 150.1,140.9 L 149.1,136.2" style="fill:none;fill-rule:evenodd;stroke:#0000FF;stroke-width:2.0px;stroke-linecap:butt;stroke-linejoin:miter;stroke-opacity:1"/>
<path class="bond-1 atom-1 atom-2" d="M 145.4,133.2 L 140.7,131.6" style="fill:none;fill-rule:evenodd;stroke:#0000FF;stroke-width:2.0px;stroke-linecap:butt;stroke-linejoin:miter;stroke-opacity:1"/>
<path class="bond-1 atom-1 atom-2" d="M 140.7,131.6 L 136.0,130.0" style="fill:none;fill-rule:evenodd;stroke:#000000;stroke-width:2.0px;stroke-linecap:butt;stroke-linejoin:miter;stroke-opacity:1"/>
<path class="bond-2 atom-2 atom-3" d="M 136.0,130.0 L 126.9,138.0" style="fill:none;fill-rule:evenodd;stroke:#000000;stroke-width:2.0px;stroke-linecap:butt;stroke-linejoin:miter;stroke-opacity:1"/>
<path class="bond-2 atom-2 atom-3" d="M 133.0,129.4 L 126.6,135.0" style="fill:none;fill-rule:evenodd;stroke:#000000;stroke-width:2.0px;stroke-linecap:butt;stroke-linejoin:miter;stroke-opacity:1"/>
<path class="bond-3 atom-3 atom-4" d="M 126.9,138.0 L 115.4,134.2" style="fill:none;fill-rule:evenodd;stroke:#000000;stroke-width:2.0px;stroke-linecap:butt;stroke-linejoin:miter;stroke-opacity:1"/>
<path class="bond-4 atom-4 atom-5" d="M 115.4,134.2 L 113.0,122.3" style="fill:none;fill-rule:evenodd;stroke:#000000;stroke-width:2.0px;stroke-linecap:butt;stroke-linejoin:miter;stroke-opacity:1"/>
<path class="bond-4 atom-4 atom-5" d="M 117.4,131.9 L 115.8,123.6" style="fill:none;fill-rule:evenodd;stroke:#000000;stroke-width:2.0px;stroke-linecap:butt;stroke-linejoin:miter;stroke-opacity:1"/>
<path class="bond-5 atom-5 atom-6" d="M 113.0,122.3 L 108.3,120.7" style="fill:none;fill-rule:evenodd;stroke:#000000;stroke-width:2.0px;stroke-linecap:butt;stroke-linejoin:miter;stroke-opacity:1"/>
<path class="bond-5 atom-5 atom-6" d="M 108.3,120.7 L 103.6,119.1" style="fill:none;fill-rule:evenodd;stroke:#0000FF;stroke-width:2.0px;stroke-linecap:butt;stroke-linejoin:miter;stroke-opacity:1"/>
<path class="bond-6 atom-6 atom-7" d="M 101.0,115.9 L 100.1,111.2" style="fill:none;fill-rule:evenodd;stroke:#0000FF;stroke-width:2.0px;stroke-linecap:butt;stroke-linejoin:miter;stroke-opacity:1"/>
<path class="bond-6 atom-6 atom-7" d="M 100.1,111.2 L 99.2,106.6" style="fill:none;fill-rule:evenodd;stroke:#000000;stroke-width:2.0px;stroke-linecap:butt;stroke-linejoin:miter;stroke-opacity:1"/>
<path class="bond-7 atom-7 atom-8" d="M 99.2,106.6 L 94.7,104.5" style="fill:none;fill-rule:evenodd;stroke:#000000;stroke-width:2.0px;stroke-linecap:butt;stroke-linejoin:miter;stroke-opacity:1"/>
<path class="bond-7 atom-7 atom-8" d="M 94.7,104.5 L 90.2,102.4" style="fill:none;fill-rule:evenodd;stroke:#0000FF;stroke-width:2.0px;stroke-linecap:butt;stroke-linejoin:miter;stroke-opacity:1"/>
<path class="bond-7 atom-7 atom-8" d="M 98.8,103.8 L 95.7,102.3" style="fill:none;fill-rule:evenodd;stroke:#000000;stroke-width:2.0px;stroke-linecap:butt;stroke-linejoin:miter;stroke-opacity:1"/>
<path class="bond-7 atom-7 atom-8" d="M 95.7,102.3 L 92.5,100.9" style="fill:none;fill-rule:evenodd;stroke:#0000FF;stroke-width:2.0px;stroke-linecap:butt;stroke-linejoin:miter;stroke-opacity:1"/>
<path class="bond-8 atom-8 atom-9" d="M 88.5,99.0 L 89.3,92.0" style="fill:none;fill-rule:evenodd;stroke:#0000FF;stroke-width:2.0px;stroke-linecap:butt;stroke-linejoin:miter;stroke-opacity:1"/>
<path class="bond-9 atom-9 atom-10" d="M 87.5,87.7 L 84.1,84.5" style="fill:none;fill-rule:evenodd;stroke:#0000FF;stroke-width:2.0px;stroke-linecap:butt;stroke-linejoin:miter;stroke-opacity:1"/>
<path class="bond-9 atom-9 atom-10" d="M 84.1,84.5 L 80.6,81.3" style="fill:none;fill-rule:evenodd;stroke:#000000;stroke-width:2.0px;stroke-linecap:butt;stroke-linejoin:miter;stroke-opacity:1"/>
<path class="bond-10 atom-10 atom-11" d="M 80.6,81.3 L 74.1,91.5" style="fill:none;fill-rule:evenodd;stroke:#000000;stroke-width:2.0px;stroke-linecap:butt;stroke-linejoin:miter;stroke-opacity:1"/>
<path class="bond-11 atom-11 atom-12" d="M 74.1,91.5 L 62.0,91.0" style="fill:none;fill-rule:evenodd;stroke:#000000;stroke-width:2.0px;stroke-linecap:butt;stroke-linejoin:miter;stroke-opacity:1"/>
<path class="bond-12 atom-12 atom-13" d="M 62.0,91.0 L 57.0,90.7" style="fill:none;fill-rule:evenodd;stroke:#000000;stroke-width:2.0px;stroke-linecap:butt;stroke-linejoin:miter;stroke-opacity:1"/>
<path class="bond-12 atom-12 atom-13" d="M 57.0,90.7 L 51.9,90.5" style="fill:none;fill-rule:evenodd;stroke:#0000FF;stroke-width:2.0px;stroke-linecap:butt;stroke-linejoin:miter;stroke-opacity:1"/>
<path class="bond-12 atom-12 atom-13" d="M 60.4,93.3 L 56.1,93.1" style="fill:none;fill-rule:evenodd;stroke:#000000;stroke-width:2.0px;stroke-linecap:butt;stroke-linejoin:miter;stroke-opacity:1"/>
<path class="bond-12 atom-12 atom-13" d="M 56.1,93.1 L 51.8,92.9" style="fill:none;fill-rule:evenodd;stroke:#0000FF;stroke-width:2.0px;stroke-linecap:butt;stroke-linejoin:miter;stroke-opacity:1"/>
<path class="bond-12 atom-12 atom-13" d="M 60.6,88.5 L 56.3,88.3" style="fill:none;fill-rule:evenodd;stroke:#000000;stroke-width:2.0px;stroke-linecap:butt;stroke-linejoin:miter;stroke-opacity:1"/>
<path class="bond-12 atom-12 atom-13" d="M 56.3,88.3 L 52.1,88.1" style="fill:none;fill-rule:evenodd;stroke:#0000FF;stroke-width:2.0px;stroke-linecap:butt;stroke-linejoin:miter;stroke-opacity:1"/>
<path class="bond-13 atom-10 atom-14" d="M 80.6,81.3 L 90.3,74.0" style="fill:none;fill-rule:evenodd;stroke:#000000;stroke-width:2.0px;stroke-linecap:butt;stroke-linejoin:miter;stroke-opacity:1"/>
<path class="bond-14 atom-14 atom-15" d="M 90.3,74.0 L 88.7,62.0" style="fill:none;fill-rule:evenodd;stroke:#000000;stroke-width:2.0px;stroke-linecap:butt;stroke-linejoin:miter;stroke-opacity:1"/>
<path class="bond-15 atom-15 atom-16" d="M 88.7,62.0 L 84.1,60.0" style="fill:none;fill-rule:evenodd;stroke:#000000;stroke-width:2.0px;stroke-linecap:butt;stroke-linejoin:miter;stroke-opacity:1"/>
<path class="bond-15 atom-15 atom-16" d="M 84.1,60.0 L 79.5,58.1" style="fill:none;fill-rule:evenodd;stroke:#0000FF;stroke-width:2.0px;stroke-linecap:butt;stroke-linejoin:miter;stroke-opacity:1"/>
<path class="bond-16 atom-16 atom-17" d="M 77.2,54.8 L 76.6,50.0" style="fill:none;fill-rule:evenodd;stroke:#0000FF;stroke-width:2.0px;stroke-linecap:butt;stroke-linejoin:miter;stroke-opacity:1"/>
<path class="bond-16 atom-16 atom-17" d="M 76.6,50.0 L 76.0,45.3" style="fill:none;fill-rule:evenodd;stroke:#000000;stroke-width:2.0px;stroke-linecap:butt;stroke-linejoin:miter;stroke-opacity:1"/>
<path class="bond-17 atom-17 atom-18" d="M 75.5,46.4 L 71.1,44.6" style="fill:none;fill-rule:evenodd;stroke:#000000;stroke-width:2.0px;stroke-linecap:butt;stroke-linejoin:miter;stroke-opacity:1"/>
<path class="bond-17 atom-17 atom-18" d="M 71.1,44.6 L 66.7,42.7" style="fill:none;fill-rule:evenodd;stroke:#FF0000;stroke-width:2.0px;stroke-linecap:butt;stroke-linejoin:miter;stroke-opacity:1"/>
<path class="bond-17 atom-17 atom-18" d="M 76.4,44.2 L 72.0,42.3" style="fill:none;fill-rule:evenodd;stroke:#000000;stroke-width:2.0px;stroke-linecap:butt;stroke-linejoin:miter;stroke-opacity:1"/>
<path class="bond-17 atom-17 atom-18" d="M 72.0,42.3 L 67.6,40.5" style="fill:none;fill-rule:evenodd;stroke:#FF0000;stroke-width:2.0px;stroke-linecap:butt;stroke-linejoin:miter;stroke-opacity:1"/>
<path class="bond-18 atom-17 atom-19" d="M 76.0,45.3 L 79.6,42.5" style="fill:none;fill-rule:evenodd;stroke:#000000;stroke-width:2.0px;stroke-linecap:butt;stroke-linejoin:miter;stroke-opacity:1"/>
<path class="bond-18 atom-17 atom-19" d="M 79.6,42.5 L 83.3,39.7" style="fill:none;fill-rule:evenodd;stroke:#FF0000;stroke-width:2.0px;stroke-linecap:butt;stroke-linejoin:miter;stroke-opacity:1"/>
<path class="bond-19 atom-19 atom-20" d="M 85.3,35.4 L 84.7,30.7" style="fill:none;fill-rule:evenodd;stroke:#FF0000;stroke-width:2.0px;stroke-linecap:butt;stroke-linejoin:miter;stroke-opacity:1"/>
<path class="bond-19 atom-19 atom-20" d="M 84.7,30.7 L 84.0,25.9" style="fill:none;fill-rule:evenodd;stroke:#000000;stroke-width:2.0px;stroke-linecap:butt;stroke-linejoin:miter;stroke-opacity:1"/>
<path class="bond-20 atom-20 atom-21" d="M 84.0,25.9 L 96.0,24.4" style="fill:none;fill-rule:evenodd;stroke:#000000;stroke-width:2.0px;stroke-linecap:butt;stroke-linejoin:miter;stroke-opacity:1"/>
<path class="bond-21 atom-20 atom-22" d="M 84.0,25.9 L 72.0,27.5" style="fill:none;fill-rule:evenodd;stroke:#000000;stroke-width:2.0px;stroke-linecap:butt;stroke-linejoin:miter;stroke-opacity:1"/>
<path class="bond-22 atom-20 atom-23" d="M 84.0,25.9 L 82.5,13.9" style="fill:none;fill-rule:evenodd;stroke:#000000;stroke-width:2.0px;stroke-linecap:butt;stroke-linejoin:miter;stroke-opacity:1"/>
<path class="bond-23 atom-16 atom-24" d="M 75.5,58.8 L 71.7,61.7" style="fill:none;fill-rule:evenodd;stroke:#0000FF;stroke-width:2.0px;stroke-linecap:butt;stroke-linejoin:miter;stroke-opacity:1"/>
<path class="bond-23 atom-16 atom-24" d="M 71.7,61.7 L 67.9,64.6" style="fill:none;fill-rule:evenodd;stroke:#000000;stroke-width:2.0px;stroke-linecap:butt;stroke-linejoin:miter;stroke-opacity:1"/>
<path class="bond-24 atom-24 atom-25" d="M 67.9,64.6 L 69.5,76.7" style="fill:none;fill-rule:evenodd;stroke:#000000;stroke-width:2.0px;stroke-linecap:butt;stroke-linejoin:miter;stroke-opacity:1"/>
<path class="bond-25 atom-9 atom-26" d="M 91.6,89.1 L 96.5,88.1" style="fill:none;fill-rule:evenodd;stroke:#0000FF;stroke-width:2.0px;stroke-linecap:butt;stroke-linejoin:miter;stroke-opacity:1"/>
<path class="bond-25 atom-9 atom-26" d="M 96.5,88.1 L 101.4,87.1" style="fill:none;fill-rule:evenodd;stroke:#000000;stroke-width:2.0px;stroke-linecap:butt;stroke-linejoin:miter;stroke-opacity:1"/>
<path class="bond-26 atom-26 atom-27" d="M 101.4,87.1 L 107.4,97.7" style="fill:none;fill-rule:evenodd;stroke:#000000;stroke-width:2.0px;stroke-linecap:butt;stroke-linejoin:miter;stroke-opacity:1"/>
<path class="bond-26 atom-26 atom-27" d="M 100.2,89.9 L 104.4,97.3" style="fill:none;fill-rule:evenodd;stroke:#000000;stroke-width:2.0px;stroke-linecap:butt;stroke-linejoin:miter;stroke-opacity:1"/>
<path class="bond-27 atom-27 atom-28" d="M 107.4,97.7 L 112.5,98.3" style="fill:none;fill-rule:evenodd;stroke:#000000;stroke-width:2.0px;stroke-linecap:butt;stroke-linejoin:miter;stroke-opacity:1"/>
<path class="bond-27 atom-27 atom-28" d="M 112.5,98.3 L 117.6,98.9" style="fill:none;fill-rule:evenodd;stroke:#CCCC00;stroke-width:2.0px;stroke-linecap:butt;stroke-linejoin:miter;stroke-opacity:1"/>
<path class="bond-28 atom-28 atom-29" d="M 121.3,96.5 L 124.8,91.7" style="fill:none;fill-rule:evenodd;stroke:#CCCC00;stroke-width:2.0px;stroke-linecap:butt;stroke-linejoin:miter;stroke-opacity:1"/>
<path class="bond-29 atom-29 atom-30" d="M 128.4,89.5 L 132.5,90.0" style="fill:none;fill-rule:evenodd;stroke:#CCCC00;stroke-width:2.0px;stroke-linecap:butt;stroke-linejoin:miter;stroke-opacity:1"/>
<path class="bond-29 atom-29 atom-30" d="M 132.5,90.0 L 136.6,90.5" style="fill:none;fill-rule:evenodd;stroke:#0000FF;stroke-width:2.0px;stroke-linecap:butt;stroke-linejoin:miter;stroke-opacity:1"/>
<path class="bond-30 atom-30 atom-31" d="M 140.5,88.2 L 143.2,84.6" style="fill:none;fill-rule:evenodd;stroke:#0000FF;stroke-width:2.0px;stroke-linecap:butt;stroke-linejoin:miter;stroke-opacity:1"/>
<path class="bond-30 atom-30 atom-31" d="M 143.2,84.6 L 145.8,81.0" style="fill:none;fill-rule:evenodd;stroke:#000000;stroke-width:2.0px;stroke-linecap:butt;stroke-linejoin:miter;stroke-opacity:1"/>
<path class="bond-31 atom-31 atom-32" d="M 145.8,81.0 L 150.7,81.6" style="fill:none;fill-rule:evenodd;stroke:#000000;stroke-width:2.0px;stroke-linecap:butt;stroke-linejoin:miter;stroke-opacity:1"/>
<path class="bond-31 atom-31 atom-32" d="M 150.7,81.6 L 155.5,82.1" style="fill:none;fill-rule:evenodd;stroke:#FF0000;stroke-width:2.0px;stroke-linecap:butt;stroke-linejoin:miter;stroke-opacity:1"/>
<path class="bond-32 atom-32 atom-33" d="M 159.8,79.9 L 161.5,77.5" style="fill:none;fill-rule:evenodd;stroke:#FF0000;stroke-width:2.0px;stroke-linecap:butt;stroke-linejoin:miter;stroke-opacity:1"/>
<path class="bond-32 atom-32 atom-33" d="M 161.5,77.5 L 163.2,75.2" style="fill:none;fill-rule:evenodd;stroke:#0000FF;stroke-width:2.0px;stroke-linecap:butt;stroke-linejoin:miter;stroke-opacity:1"/>
<path class="bond-33 atom-33 atom-34" d="M 167.1,72.9 L 172.1,73.5" style="fill:none;fill-rule:evenodd;stroke:#0000FF;stroke-width:2.0px;stroke-linecap:butt;stroke-linejoin:miter;stroke-opacity:1"/>
<path class="bond-33 atom-33 atom-34" d="M 172.1,73.5 L 177.1,74.1" style="fill:none;fill-rule:evenodd;stroke:#000000;stroke-width:2.0px;stroke-linecap:butt;stroke-linejoin:miter;stroke-opacity:1"/>
<path class="bond-33 atom-33 atom-34" d="M 168.3,75.5 L 171.8,75.9" style="fill:none;fill-rule:evenodd;stroke:#0000FF;stroke-width:2.0px;stroke-linecap:butt;stroke-linejoin:miter;stroke-opacity:1"/>
<path class="bond-33 atom-33 atom-34" d="M 171.8,75.9 L 175.3,76.3" style="fill:none;fill-rule:evenodd;stroke:#000000;stroke-width:2.0px;stroke-linecap:butt;stroke-linejoin:miter;stroke-opacity:1"/>
<path class="bond-34 atom-34 atom-35" d="M 177.1,74.1 L 184.3,64.4" style="fill:none;fill-rule:evenodd;stroke:#000000;stroke-width:2.0px;stroke-linecap:butt;stroke-linejoin:miter;stroke-opacity:1"/>
<path class="bond-35 atom-35 atom-36" d="M 183.2,64.9 L 181.4,60.6" style="fill:none;fill-rule:evenodd;stroke:#000000;stroke-width:2.0px;stroke-linecap:butt;stroke-linejoin:miter;stroke-opacity:1"/>
<path class="bond-35 atom-35 atom-36" d="M 181.4,60.6 L 179.5,56.4" style="fill:none;fill-rule:evenodd;stroke:#FF0000;stroke-width:2.0px;stroke-linecap:butt;stroke-linejoin:miter;stroke-opacity:1"/>
<path class="bond-35 atom-35 atom-36" d="M 185.4,63.9 L 183.6,59.7" style="fill:none;fill-rule:evenodd;stroke:#000000;stroke-width:2.0px;stroke-linecap:butt;stroke-linejoin:miter;stroke-opacity:1"/>
<path class="bond-35 atom-35 atom-36" d="M 183.6,59.7 L 181.8,55.4" style="fill:none;fill-rule:evenodd;stroke:#FF0000;stroke-width:2.0px;stroke-linecap:butt;stroke-linejoin:miter;stroke-opacity:1"/>
<path class="bond-36 atom-35 atom-37" d="M 184.3,64.4 L 196.4,65.8" style="fill:none;fill-rule:evenodd;stroke:#000000;stroke-width:2.0px;stroke-linecap:butt;stroke-linejoin:miter;stroke-opacity:1"/>
<path class="bond-37 atom-37 atom-38" d="M 196.4,65.8 L 201.2,76.9" style="fill:none;fill-rule:evenodd;stroke:#000000;stroke-width:2.0px;stroke-linecap:butt;stroke-linejoin:miter;stroke-opacity:1"/>
<path class="bond-37 atom-37 atom-38" d="M 199.3,66.5 L 202.7,74.3" style="fill:none;fill-rule:evenodd;stroke:#000000;stroke-width:2.0px;stroke-linecap:butt;stroke-linejoin:miter;stroke-opacity:1"/>
<path class="bond-38 atom-38 atom-39" d="M 201.2,76.9 L 213.2,78.3" style="fill:none;fill-rule:evenodd;stroke:#000000;stroke-width:2.0px;stroke-linecap:butt;stroke-linejoin:miter;stroke-opacity:1"/>
<path class="bond-39 atom-39 atom-40" d="M 213.2,78.3 L 220.4,68.6" style="fill:none;fill-rule:evenodd;stroke:#000000;stroke-width:2.0px;stroke-linecap:butt;stroke-linejoin:miter;stroke-opacity:1"/>
<path class="bond-39 atom-39 atom-40" d="M 212.3,75.4 L 217.4,68.6" style="fill:none;fill-rule:evenodd;stroke:#000000;stroke-width:2.0px;stroke-linecap:butt;stroke-linejoin:miter;stroke-opacity:1"/>
<path class="bond-40 atom-40 atom-41" d="M 220.4,68.6 L 225.5,69.2" style="fill:none;fill-rule:evenodd;stroke:#000000;stroke-width:2.0px;stroke-linecap:butt;stroke-linejoin:miter;stroke-opacity:1"/>
<path class="bond-40 atom-40 atom-41" d="M 225.5,69.2 L 230.7,69.8" style="fill:none;fill-rule:evenodd;stroke:#CCCC00;stroke-width:2.0px;stroke-linecap:butt;stroke-linejoin:miter;stroke-opacity:1"/>
<path class="bond-41 atom-41 atom-42" d="M 233.3,72.7 L 232.9,76.2" style="fill:none;fill-rule:evenodd;stroke:#CCCC00;stroke-width:2.0px;stroke-linecap:butt;stroke-linejoin:miter;stroke-opacity:1"/>
<path class="bond-41 atom-41 atom-42" d="M 232.9,76.2 L 232.5,79.6" style="fill:none;fill-rule:evenodd;stroke:#FF0000;stroke-width:2.0px;stroke-linecap:butt;stroke-linejoin:miter;stroke-opacity:1"/>
<path class="bond-41 atom-41 atom-42" d="M 230.9,72.5 L 230.5,75.9" style="fill:none;fill-rule:evenodd;stroke:#CCCC00;stroke-width:2.0px;stroke-linecap:butt;stroke-linejoin:miter;stroke-opacity:1"/>
<path class="bond-41 atom-41 atom-42" d="M 230.5,75.9 L 230.1,79.3" style="fill:none;fill-rule:evenodd;stroke:#FF0000;stroke-width:2.0px;stroke-linecap:butt;stroke-linejoin:miter;stroke-opacity:1"/>
<path class="bond-42 atom-41 atom-43" d="M 231.5,67.3 L 231.9,63.9" style="fill:none;fill-rule:evenodd;stroke:#CCCC00;stroke-width:2.0px;stroke-linecap:butt;stroke-linejoin:miter;stroke-opacity:1"/>
<path class="bond-42 atom-41 atom-43" d="M 231.9,63.9 L 232.3,60.4" style="fill:none;fill-rule:evenodd;stroke:#FF0000;stroke-width:2.0px;stroke-linecap:butt;stroke-linejoin:miter;stroke-opacity:1"/>
<path class="bond-42 atom-41 atom-43" d="M 233.9,67.6 L 234.3,64.1" style="fill:none;fill-rule:evenodd;stroke:#CCCC00;stroke-width:2.0px;stroke-linecap:butt;stroke-linejoin:miter;stroke-opacity:1"/>
<path class="bond-42 atom-41 atom-43" d="M 234.3,64.1 L 234.7,60.7" style="fill:none;fill-rule:evenodd;stroke:#FF0000;stroke-width:2.0px;stroke-linecap:butt;stroke-linejoin:miter;stroke-opacity:1"/>
<path class="bond-43 atom-41 atom-44" d="M 234.2,70.2 L 238.3,70.6" style="fill:none;fill-rule:evenodd;stroke:#CCCC00;stroke-width:2.0px;stroke-linecap:butt;stroke-linejoin:miter;stroke-opacity:1"/>
<path class="bond-43 atom-41 atom-44" d="M 238.3,70.6 L 242.4,71.1" style="fill:none;fill-rule:evenodd;stroke:#0000FF;stroke-width:2.0px;stroke-linecap:butt;stroke-linejoin:miter;stroke-opacity:1"/>
<path class="bond-44 atom-44 atom-45" d="M 246.3,68.8 L 249.0,65.2" style="fill:none;fill-rule:evenodd;stroke:#0000FF;stroke-width:2.0px;stroke-linecap:butt;stroke-linejoin:miter;stroke-opacity:1"/>
<path class="bond-44 atom-44 atom-45" d="M 249.0,65.2 L 251.7,61.6" style="fill:none;fill-rule:evenodd;stroke:#000000;stroke-width:2.0px;stroke-linecap:butt;stroke-linejoin:miter;stroke-opacity:1"/>
<path class="bond-45 atom-44 atom-46" d="M 245.5,73.9 L 247.4,78.2" style="fill:none;fill-rule:evenodd;stroke:#0000FF;stroke-width:2.0px;stroke-linecap:butt;stroke-linejoin:miter;stroke-opacity:1"/>
<path class="bond-45 atom-44 atom-46" d="M 247.4,78.2 L 249.3,82.5" style="fill:none;fill-rule:evenodd;stroke:#000000;stroke-width:2.0px;stroke-linecap:butt;stroke-linejoin:miter;stroke-opacity:1"/>
<path class="bond-46 atom-40 atom-47" d="M 220.4,68.6 L 215.6,57.5" style="fill:none;fill-rule:evenodd;stroke:#000000;stroke-width:2.0px;stroke-linecap:butt;stroke-linejoin:miter;stroke-opacity:1"/>
<path class="bond-47 atom-47 atom-48" d="M 215.6,57.5 L 203.6,56.1" style="fill:none;fill-rule:evenodd;stroke:#000000;stroke-width:2.0px;stroke-linecap:butt;stroke-linejoin:miter;stroke-opacity:1"/>
<path class="bond-47 atom-47 atom-48" d="M 213.5,59.7 L 205.1,58.7" style="fill:none;fill-rule:evenodd;stroke:#000000;stroke-width:2.0px;stroke-linecap:butt;stroke-linejoin:miter;stroke-opacity:1"/>
<path class="bond-48 atom-5 atom-49" d="M 113.0,122.3 L 122.1,114.3" style="fill:none;fill-rule:evenodd;stroke:#000000;stroke-width:2.0px;stroke-linecap:butt;stroke-linejoin:miter;stroke-opacity:1"/>
<path class="bond-49 atom-49 atom-50" d="M 122.1,114.3 L 133.6,118.2" style="fill:none;fill-rule:evenodd;stroke:#000000;stroke-width:2.0px;stroke-linecap:butt;stroke-linejoin:miter;stroke-opacity:1"/>
<path class="bond-49 atom-49 atom-50" d="M 123.1,117.2 L 131.1,119.9" style="fill:none;fill-rule:evenodd;stroke:#000000;stroke-width:2.0px;stroke-linecap:butt;stroke-linejoin:miter;stroke-opacity:1"/>
<path class="bond-50 atom-50 atom-2" d="M 133.6,118.2 L 136.0,130.0" style="fill:none;fill-rule:evenodd;stroke:#000000;stroke-width:2.0px;stroke-linecap:butt;stroke-linejoin:miter;stroke-opacity:1"/>
<path class="bond-51 atom-27 atom-7" d="M 107.4,97.7 L 99.2,106.6" style="fill:none;fill-rule:evenodd;stroke:#000000;stroke-width:2.0px;stroke-linecap:butt;stroke-linejoin:miter;stroke-opacity:1"/>
<path class="bond-52 atom-48 atom-37" d="M 203.6,56.1 L 196.4,65.8" style="fill:none;fill-rule:evenodd;stroke:#000000;stroke-width:2.0px;stroke-linecap:butt;stroke-linejoin:miter;stroke-opacity:1"/>
<path class="bond-53 atom-25 atom-10" d="M 69.5,76.7 L 80.6,81.3" style="fill:none;fill-rule:evenodd;stroke:#000000;stroke-width:2.0px;stroke-linecap:butt;stroke-linejoin:miter;stroke-opacity:1"/>
<path class="atom-1" d="M 146.5 131.8 L 147.9 134.0 Q 148.0 134.2, 148.2 134.6 Q 148.5 135.0, 148.5 135.1 L 148.5 131.8 L 149.0 131.8 L 149.0 136.0 L 148.5 136.0 L 147.0 133.6 Q 146.8 133.3, 146.6 132.9 Q 146.4 132.6, 146.4 132.5 L 146.4 136.0 L 145.8 136.0 L 145.8 131.8 L 146.5 131.8 " fill="#0000FF"/>
<path class="atom-6" d="M 96.1 116.3 L 96.7 116.3 L 96.7 118.1 L 98.9 118.1 L 98.9 116.3 L 99.4 116.3 L 99.4 120.6 L 98.9 120.6 L 98.9 118.6 L 96.7 118.6 L 96.7 120.6 L 96.1 120.6 L 96.1 116.3 " fill="#0000FF"/>
<path class="atom-6" d="M 100.6 116.3 L 102.0 118.6 Q 102.1 118.8, 102.4 119.2 Q 102.6 119.6, 102.6 119.6 L 102.6 116.3 L 103.2 116.3 L 103.2 120.6 L 102.6 120.6 L 101.1 118.1 Q 100.9 117.8, 100.7 117.5 Q 100.5 117.2, 100.5 117.1 L 100.5 120.6 L 99.9 120.6 L 99.9 116.3 L 100.6 116.3 " fill="#0000FF"/>
<path class="atom-8" d="M 87.2 99.4 L 88.6 101.7 Q 88.8 101.9, 89.0 102.3 Q 89.2 102.7, 89.2 102.7 L 89.2 99.4 L 89.8 99.4 L 89.8 103.7 L 89.2 103.7 L 87.7 101.2 Q 87.5 100.9, 87.3 100.6 Q 87.2 100.2, 87.1 100.1 L 87.1 103.7 L 86.5 103.7 L 86.5 99.4 L 87.2 99.4 " fill="#0000FF"/>
<path class="atom-9" d="M 88.6 87.4 L 90.0 89.6 Q 90.1 89.9, 90.4 90.3 Q 90.6 90.7, 90.6 90.7 L 90.6 87.4 L 91.2 87.4 L 91.2 91.6 L 90.6 91.6 L 89.1 89.2 Q 88.9 88.9, 88.7 88.6 Q 88.5 88.2, 88.5 88.1 L 88.5 91.6 L 87.9 91.6 L 87.9 87.4 L 88.6 87.4 " fill="#0000FF"/>
<path class="atom-13" d="M 49.0 88.3 L 50.4 90.5 Q 50.5 90.7, 50.8 91.1 Q 51.0 91.5, 51.0 91.6 L 51.0 88.3 L 51.5 88.3 L 51.5 92.5 L 51.0 92.5 L 49.5 90.1 Q 49.3 89.8, 49.1 89.4 Q 48.9 89.1, 48.9 89.0 L 48.9 92.5 L 48.3 92.5 L 48.3 88.3 L 49.0 88.3 " fill="#0000FF"/>
<path class="atom-16" d="M 76.6 55.2 L 78.0 57.4 Q 78.1 57.6, 78.3 58.1 Q 78.6 58.5, 78.6 58.5 L 78.6 55.2 L 79.1 55.2 L 79.1 59.4 L 78.6 59.4 L 77.1 57.0 Q 76.9 56.7, 76.7 56.3 Q 76.5 56.0, 76.5 55.9 L 76.5 59.4 L 75.9 59.4 L 75.9 55.2 L 76.6 55.2 " fill="#0000FF"/>
<path class="atom-18" d="M 62.9 40.7 Q 62.9 39.6, 63.4 39.1 Q 63.9 38.5, 64.8 38.5 Q 65.8 38.5, 66.3 39.1 Q 66.8 39.6, 66.8 40.7 Q 66.8 41.7, 66.2 42.3 Q 65.7 42.9, 64.8 42.9 Q 63.9 42.9, 63.4 42.3 Q 62.9 41.7, 62.9 40.7 M 64.8 42.4 Q 65.5 42.4, 65.8 41.9 Q 66.2 41.5, 66.2 40.7 Q 66.2 39.8, 65.8 39.4 Q 65.5 39.0, 64.8 39.0 Q 64.2 39.0, 63.8 39.4 Q 63.5 39.8, 63.5 40.7 Q 63.5 41.5, 63.8 41.9 Q 64.2 42.4, 64.8 42.4 " fill="#FF0000"/>
<path class="atom-19" d="M 83.6 38.0 Q 83.6 36.9, 84.2 36.4 Q 84.7 35.8, 85.6 35.8 Q 86.5 35.8, 87.0 36.4 Q 87.5 36.9, 87.5 38.0 Q 87.5 39.0, 87.0 39.6 Q 86.5 40.2, 85.6 40.2 Q 84.7 40.2, 84.2 39.6 Q 83.6 39.0, 83.6 38.0 M 85.6 39.7 Q 86.2 39.7, 86.6 39.2 Q 86.9 38.8, 86.9 38.0 Q 86.9 37.1, 86.6 36.7 Q 86.2 36.3, 85.6 36.3 Q 85.0 36.3, 84.6 36.7 Q 84.2 37.1, 84.2 38.0 Q 84.2 38.8, 84.6 39.2 Q 85.0 39.7, 85.6 39.7 " fill="#FF0000"/>
<path class="atom-28" d="M 118.2 100.5 Q 118.2 100.5, 118.4 100.6 Q 118.6 100.7, 118.8 100.8 Q 119.1 100.8, 119.3 100.8 Q 119.7 100.8, 119.9 100.6 Q 120.2 100.4, 120.2 100.1 Q 120.2 99.8, 120.0 99.7 Q 119.9 99.6, 119.7 99.5 Q 119.6 99.4, 119.3 99.3 Q 118.9 99.2, 118.7 99.1 Q 118.4 99.0, 118.3 98.8 Q 118.1 98.5, 118.1 98.1 Q 118.1 97.6, 118.5 97.3 Q 118.8 96.9, 119.6 96.9 Q 120.0 96.9, 120.6 97.2 L 120.5 97.6 Q 120.0 97.4, 119.6 97.4 Q 119.2 97.4, 118.9 97.6 Q 118.7 97.8, 118.7 98.1 Q 118.7 98.3, 118.8 98.4 Q 118.9 98.6, 119.1 98.6 Q 119.3 98.7, 119.6 98.8 Q 120.0 98.9, 120.2 99.1 Q 120.4 99.2, 120.6 99.4 Q 120.7 99.7, 120.7 100.1 Q 120.7 100.7, 120.3 101.0 Q 120.0 101.3, 119.3 101.3 Q 118.9 101.3, 118.6 101.2 Q 118.4 101.1, 118.0 101.0 L 118.2 100.5 " fill="#CCCC00"/>
<path class="atom-28" d="M 121.0 96.9 L 121.6 96.9 L 121.6 98.7 L 123.8 98.7 L 123.8 96.9 L 124.4 96.9 L 124.4 101.2 L 123.8 101.2 L 123.8 99.2 L 121.6 99.2 L 121.6 101.2 L 121.0 101.2 L 121.0 96.9 " fill="#CCCC00"/>
<path class="atom-29" d="M 125.4 90.8 Q 125.5 90.8, 125.6 90.9 Q 125.8 91.0, 126.1 91.0 Q 126.3 91.1, 126.5 91.1 Q 126.9 91.1, 127.1 90.9 Q 127.4 90.7, 127.4 90.4 Q 127.4 90.1, 127.3 90.0 Q 127.1 89.8, 127.0 89.8 Q 126.8 89.7, 126.5 89.6 Q 126.1 89.5, 125.9 89.4 Q 125.6 89.3, 125.5 89.0 Q 125.3 88.8, 125.3 88.4 Q 125.3 87.9, 125.7 87.6 Q 126.1 87.2, 126.8 87.2 Q 127.3 87.2, 127.8 87.5 L 127.7 87.9 Q 127.2 87.7, 126.8 87.7 Q 126.4 87.7, 126.2 87.9 Q 125.9 88.1, 125.9 88.3 Q 125.9 88.6, 126.0 88.7 Q 126.2 88.9, 126.3 88.9 Q 126.5 89.0, 126.8 89.1 Q 127.2 89.2, 127.4 89.3 Q 127.6 89.5, 127.8 89.7 Q 128.0 89.9, 128.0 90.4 Q 128.0 90.9, 127.6 91.3 Q 127.2 91.6, 126.5 91.6 Q 126.1 91.6, 125.9 91.5 Q 125.6 91.4, 125.2 91.3 L 125.4 90.8 " fill="#CCCC00"/>
<path class="atom-30" d="M 137.7 88.6 L 139.1 90.9 Q 139.2 91.1, 139.4 91.5 Q 139.7 91.9, 139.7 91.9 L 139.7 88.6 L 140.2 88.6 L 140.2 92.9 L 139.7 92.9 L 138.2 90.4 Q 138.0 90.1, 137.8 89.8 Q 137.6 89.5, 137.6 89.4 L 137.6 92.9 L 137.0 92.9 L 137.0 88.6 L 137.7 88.6 " fill="#0000FF"/>
<path class="atom-30" d="M 140.7 88.6 L 141.3 88.6 L 141.3 90.4 L 143.5 90.4 L 143.5 88.6 L 144.1 88.6 L 144.1 92.9 L 143.5 92.9 L 143.5 90.9 L 141.3 90.9 L 141.3 92.9 L 140.7 92.9 L 140.7 88.6 " fill="#0000FF"/>
<path class="atom-32" d="M 155.9 82.4 Q 155.9 81.4, 156.4 80.8 Q 156.9 80.3, 157.9 80.3 Q 158.8 80.3, 159.3 80.8 Q 159.8 81.4, 159.8 82.4 Q 159.8 83.5, 159.3 84.0 Q 158.8 84.6, 157.9 84.6 Q 156.9 84.6, 156.4 84.0 Q 155.9 83.5, 155.9 82.4 M 157.9 84.2 Q 158.5 84.2, 158.9 83.7 Q 159.2 83.3, 159.2 82.4 Q 159.2 81.6, 158.9 81.2 Q 158.5 80.7, 157.9 80.7 Q 157.2 80.7, 156.9 81.2 Q 156.5 81.6, 156.5 82.4 Q 156.5 83.3, 156.9 83.7 Q 157.2 84.2, 157.9 84.2 " fill="#FF0000"/>
<path class="atom-33" d="M 164.2 70.6 L 165.5 72.8 Q 165.7 73.1, 165.9 73.5 Q 166.1 73.9, 166.1 73.9 L 166.1 70.6 L 166.7 70.6 L 166.7 74.8 L 166.1 74.8 L 164.6 72.4 Q 164.5 72.1, 164.3 71.7 Q 164.1 71.4, 164.0 71.3 L 164.0 74.8 L 163.5 74.8 L 163.5 70.6 L 164.2 70.6 " fill="#0000FF"/>
<path class="atom-36" d="M 177.6 53.3 Q 177.6 52.3, 178.1 51.7 Q 178.6 51.1, 179.5 51.1 Q 180.5 51.1, 181.0 51.7 Q 181.5 52.3, 181.5 53.3 Q 181.5 54.3, 181.0 54.9 Q 180.5 55.5, 179.5 55.5 Q 178.6 55.5, 178.1 54.9 Q 177.6 54.3, 177.6 53.3 M 179.5 55.0 Q 180.2 55.0, 180.5 54.6 Q 180.9 54.1, 180.9 53.3 Q 180.9 52.5, 180.5 52.0 Q 180.2 51.6, 179.5 51.6 Q 178.9 51.6, 178.5 52.0 Q 178.2 52.4, 178.2 53.3 Q 178.2 54.1, 178.5 54.6 Q 178.9 55.0, 179.5 55.0 " fill="#FF0000"/>
<path class="atom-41" d="M 231.2 71.4 Q 231.3 71.4, 231.5 71.5 Q 231.7 71.6, 231.9 71.7 Q 232.1 71.7, 232.3 71.7 Q 232.7 71.7, 233.0 71.5 Q 233.2 71.3, 233.2 71.0 Q 233.2 70.7, 233.1 70.6 Q 233.0 70.5, 232.8 70.4 Q 232.6 70.3, 232.3 70.2 Q 231.9 70.1, 231.7 70.0 Q 231.5 69.9, 231.3 69.7 Q 231.2 69.4, 231.2 69.0 Q 231.2 68.5, 231.5 68.2 Q 231.9 67.8, 232.6 67.8 Q 233.1 67.8, 233.7 68.1 L 233.5 68.5 Q 233.0 68.3, 232.6 68.3 Q 232.2 68.3, 232.0 68.5 Q 231.8 68.7, 231.8 69.0 Q 231.8 69.2, 231.9 69.3 Q 232.0 69.5, 232.2 69.5 Q 232.3 69.6, 232.6 69.7 Q 233.0 69.8, 233.2 70.0 Q 233.5 70.1, 233.6 70.3 Q 233.8 70.6, 233.8 71.0 Q 233.8 71.6, 233.4 71.9 Q 233.0 72.2, 232.4 72.2 Q 232.0 72.2, 231.7 72.1 Q 231.4 72.0, 231.1 71.9 L 231.2 71.4 " fill="#CCCC00"/>
<path class="atom-42" d="M 229.1 82.0 Q 229.1 81.0, 229.6 80.4 Q 230.1 79.8, 231.0 79.8 Q 232.0 79.8, 232.5 80.4 Q 233.0 81.0, 233.0 82.0 Q 233.0 83.0, 232.5 83.6 Q 232.0 84.2, 231.0 84.2 Q 230.1 84.2, 229.6 83.6 Q 229.1 83.0, 229.1 82.0 M 231.0 83.7 Q 231.7 83.7, 232.0 83.3 Q 232.4 82.9, 232.4 82.0 Q 232.4 81.2, 232.0 80.7 Q 231.7 80.3, 231.0 80.3 Q 230.4 80.3, 230.0 80.7 Q 229.7 81.2, 229.7 82.0 Q 229.7 82.9, 230.0 83.3 Q 230.4 83.7, 231.0 83.7 " fill="#FF0000"/>
<path class="atom-43" d="M 231.9 58.0 Q 231.9 56.9, 232.4 56.4 Q 232.9 55.8, 233.8 55.8 Q 234.8 55.8, 235.3 56.4 Q 235.8 56.9, 235.8 58.0 Q 235.8 59.0, 235.3 59.6 Q 234.8 60.2, 233.8 60.2 Q 232.9 60.2, 232.4 59.6 Q 231.9 59.0, 231.9 58.0 M 233.8 59.7 Q 234.5 59.7, 234.8 59.2 Q 235.2 58.8, 235.2 58.0 Q 235.2 57.1, 234.8 56.7 Q 234.5 56.3, 233.8 56.3 Q 233.2 56.3, 232.8 56.7 Q 232.5 57.1, 232.5 58.0 Q 232.5 58.8, 232.8 59.2 Q 233.2 59.7, 233.8 59.7 " fill="#FF0000"/>
<path class="atom-44" d="M 243.5 69.2 L 244.9 71.5 Q 245.0 71.7, 245.3 72.1 Q 245.5 72.5, 245.5 72.5 L 245.5 69.2 L 246.1 69.2 L 246.1 73.5 L 245.5 73.5 L 244.0 71.0 Q 243.8 70.7, 243.6 70.4 Q 243.4 70.1, 243.4 70.0 L 243.4 73.5 L 242.8 73.5 L 242.8 69.2 L 243.5 69.2 " fill="#0000FF"/>
<path class="atom-0" d="M 151.9,145.8 L 151.9,145.8 L 151.9,145.8 L 151.9,145.8 L 151.9,145.9 L 151.9,145.9 L 151.9,145.9 L 151.9,145.9 L 151.9,146.0 L 151.8,146.0 L 151.8,146.0 L 151.8,146.0 L 151.8,146.0 L 151.8,146.0 L 151.7,146.0 L 151.7,146.0 L 151.7,146.1 L 151.7,146.1 L 151.6,146.1 L 151.6,146.1 L 151.6,146.1 L 151.6,146.1 L 151.5,146.0 L 151.5,146.0 L 151.5,146.0 L 151.5,146.0 L 151.4,146.0 L 151.4,146.0 L 151.4,146.0 L 151.4,145.9 L 151.4,145.9 L 151.4,145.9 L 151.3,145.9 L 151.3,145.8 L 151.3,145.8 L 151.3,145.8 L 151.3,145.8 L 151.3,145.7 L 151.3,145.7 L 151.3,145.7 L 151.3,145.7 L 151.3,145.6 L 151.4,145.6 L 151.4,145.6 L 151.4,145.6 L 151.4,145.6 L 151.4,145.5 L 151.4,145.5 L 151.5,145.5 L 151.5,145.5 L 151.5,145.5 L 151.5,145.5 L 151.6,145.5 L 151.6,145.5 L 151.6,145.5 L 151.6,145.5 L 151.7,145.5 L 151.7,145.5 L 151.7,145.5 L 151.7,145.5 L 151.8,145.5 L 151.8,145.5 L 151.8,145.5 L 151.8,145.5 L 151.8,145.6 L 151.9,145.6 L 151.9,145.6 L 151.9,145.6 L 151.9,145.6 L 151.9,145.7 L 151.9,145.7 L 151.9,145.7 L 151.9,145.7 L 151.9,145.8 L 151.6,145.8 Z" style="fill:#000000;fill-rule:evenodd;fill-opacity:1;stroke:#000000;stroke-width:0.0px;stroke-linecap:butt;stroke-linejoin:miter;stroke-opacity:1;"/>
<path class="atom-28" d="M 125.6,99.1 L 125.5,99.1 L 125.5,99.1 L 125.5,99.1 L 125.5,99.2 L 125.5,99.2 L 125.5,99.2 L 125.5,99.2 L 125.5,99.2 L 125.5,99.3 L 125.4,99.3 L 125.4,99.3 L 125.4,99.3 L 125.4,99.3 L 125.4,99.3 L 125.3,99.3 L 125.3,99.4 L 125.3,99.4 L 125.3,99.4 L 125.2,99.4 L 125.2,99.4 L 125.2,99.3 L 125.2,99.3 L 125.1,99.3 L 125.1,99.3 L 125.1,99.3 L 125.1,99.3 L 125.0,99.3 L 125.0,99.3 L 125.0,99.2 L 125.0,99.2 L 125.0,99.2 L 125.0,99.2 L 125.0,99.1 L 125.0,99.1 L 125.0,99.1 L 125.0,99.1 L 125.0,99.0 L 125.0,99.0 L 125.0,99.0 L 125.0,99.0 L 125.0,98.9 L 125.0,98.9 L 125.0,98.9 L 125.0,98.9 L 125.0,98.9 L 125.0,98.8 L 125.1,98.8 L 125.1,98.8 L 125.1,98.8 L 125.1,98.8 L 125.2,98.8 L 125.2,98.8 L 125.2,98.8 L 125.2,98.8 L 125.3,98.8 L 125.3,98.8 L 125.3,98.8 L 125.3,98.8 L 125.4,98.8 L 125.4,98.8 L 125.4,98.8 L 125.4,98.8 L 125.4,98.8 L 125.5,98.8 L 125.5,98.9 L 125.5,98.9 L 125.5,98.9 L 125.5,98.9 L 125.5,99.0 L 125.5,99.0 L 125.5,99.0 L 125.5,99.0 L 125.6,99.1 L 125.3,99.1 Z" style="fill:#000000;fill-rule:evenodd;fill-opacity:1;stroke:#000000;stroke-width:0.0px;stroke-linecap:butt;stroke-linejoin:miter;stroke-opacity:1;"/>
<path class="bond-0 atom-0 atom-1" d="M 437.5,152.4 L 438.5,140.3" style="fill:none;fill-rule:evenodd;stroke:#000000;stroke-width:2.0px;stroke-linecap:butt;stroke-linejoin:miter;stroke-opacity:1"/>
<path class="bond-0 atom-0 atom-1" d="M 440.0,152.6 L 440.9,140.5" style="fill:none;fill-rule:evenodd;stroke:#000000;stroke-width:2.0px;stroke-linecap:butt;stroke-linejoin:miter;stroke-opacity:1"/>
<path class="bond-1 atom-1 atom-2" d="M 439.7,140.4 L 429.7,133.5" style="fill:none;fill-rule:evenodd;stroke:#000000;stroke-width:2.0px;stroke-linecap:butt;stroke-linejoin:miter;stroke-opacity:1"/>
<path class="bond-2 atom-2 atom-3" d="M 429.7,133.5 L 418.8,138.7" style="fill:none;fill-rule:evenodd;stroke:#000000;stroke-width:2.0px;stroke-linecap:butt;stroke-linejoin:miter;stroke-opacity:1"/>
<path class="bond-2 atom-2 atom-3" d="M 427.0,132.1 L 419.4,135.8" style="fill:none;fill-rule:evenodd;stroke:#000000;stroke-width:2.0px;stroke-linecap:butt;stroke-linejoin:miter;stroke-opacity:1"/>
<path class="bond-3 atom-3 atom-4" d="M 418.8,138.7 L 408.8,131.9" style="fill:none;fill-rule:evenodd;stroke:#000000;stroke-width:2.0px;stroke-linecap:butt;stroke-linejoin:miter;stroke-opacity:1"/>
<path class="bond-4 atom-4 atom-5" d="M 408.8,131.9 L 409.8,119.8" style="fill:none;fill-rule:evenodd;stroke:#000000;stroke-width:2.0px;stroke-linecap:butt;stroke-linejoin:miter;stroke-opacity:1"/>
<path class="bond-4 atom-4 atom-5" d="M 411.4,130.3 L 412.0,121.8" style="fill:none;fill-rule:evenodd;stroke:#000000;stroke-width:2.0px;stroke-linecap:butt;stroke-linejoin:miter;stroke-opacity:1"/>
<path class="bond-5 atom-5 atom-6" d="M 409.8,119.8 L 405.8,117.1" style="fill:none;fill-rule:evenodd;stroke:#000000;stroke-width:2.0px;stroke-linecap:butt;stroke-linejoin:miter;stroke-opacity:1"/>
<path class="bond-5 atom-5 atom-6" d="M 405.8,117.1 L 401.8,114.4" style="fill:none;fill-rule:evenodd;stroke:#0000FF;stroke-width:2.0px;stroke-linecap:butt;stroke-linejoin:miter;stroke-opacity:1"/>
<path class="bond-6 atom-6 atom-7" d="M 400.0,110.4 L 400.4,105.7" style="fill:none;fill-rule:evenodd;stroke:#0000FF;stroke-width:2.0px;stroke-linecap:butt;stroke-linejoin:miter;stroke-opacity:1"/>
<path class="bond-6 atom-6 atom-7" d="M 400.4,105.7 L 400.7,100.9" style="fill:none;fill-rule:evenodd;stroke:#000000;stroke-width:2.0px;stroke-linecap:butt;stroke-linejoin:miter;stroke-opacity:1"/>
<path class="bond-7 atom-7 atom-8" d="M 400.7,100.9 L 397.1,97.8" style="fill:none;fill-rule:evenodd;stroke:#000000;stroke-width:2.0px;stroke-linecap:butt;stroke-linejoin:miter;stroke-opacity:1"/>
<path class="bond-7 atom-7 atom-8" d="M 397.1,97.8 L 393.5,94.8" style="fill:none;fill-rule:evenodd;stroke:#0000FF;stroke-width:2.0px;stroke-linecap:butt;stroke-linejoin:miter;stroke-opacity:1"/>
<path class="bond-7 atom-7 atom-8" d="M 401.2,98.1 L 398.7,96.0" style="fill:none;fill-rule:evenodd;stroke:#000000;stroke-width:2.0px;stroke-linecap:butt;stroke-linejoin:miter;stroke-opacity:1"/>
<path class="bond-7 atom-7 atom-8" d="M 398.7,96.0 L 396.2,93.8" style="fill:none;fill-rule:evenodd;stroke:#0000FF;stroke-width:2.0px;stroke-linecap:butt;stroke-linejoin:miter;stroke-opacity:1"/>
<path class="bond-8 atom-8 atom-9" d="M 392.6,90.5 L 395.1,84.4" style="fill:none;fill-rule:evenodd;stroke:#0000FF;stroke-width:2.0px;stroke-linecap:butt;stroke-linejoin:miter;stroke-opacity:1"/>
<path class="bond-9 atom-9 atom-10" d="M 394.6,79.3 L 392.2,75.4" style="fill:none;fill-rule:evenodd;stroke:#0000FF;stroke-width:2.0px;stroke-linecap:butt;stroke-linejoin:miter;stroke-opacity:1"/>
<path class="bond-9 atom-9 atom-10" d="M 392.2,75.4 L 389.8,71.5" style="fill:none;fill-rule:evenodd;stroke:#000000;stroke-width:2.0px;stroke-linecap:butt;stroke-linejoin:miter;stroke-opacity:1"/>
<path class="bond-10 atom-10 atom-11" d="M 389.8,71.5 L 380.8,79.6" style="fill:none;fill-rule:evenodd;stroke:#000000;stroke-width:2.0px;stroke-linecap:butt;stroke-linejoin:miter;stroke-opacity:1"/>
<path class="bond-11 atom-11 atom-12" d="M 380.8,79.6 L 369.3,75.7" style="fill:none;fill-rule:evenodd;stroke:#000000;stroke-width:2.0px;stroke-linecap:butt;stroke-linejoin:miter;stroke-opacity:1"/>
<path class="bond-12 atom-12 atom-13" d="M 369.3,75.7 L 364.6,74.1" style="fill:none;fill-rule:evenodd;stroke:#000000;stroke-width:2.0px;stroke-linecap:butt;stroke-linejoin:miter;stroke-opacity:1"/>
<path class="bond-12 atom-12 atom-13" d="M 364.6,74.1 L 359.8,72.6" style="fill:none;fill-rule:evenodd;stroke:#0000FF;stroke-width:2.0px;stroke-linecap:butt;stroke-linejoin:miter;stroke-opacity:1"/>
<path class="bond-12 atom-12 atom-13" d="M 367.1,77.5 L 363.1,76.2" style="fill:none;fill-rule:evenodd;stroke:#000000;stroke-width:2.0px;stroke-linecap:butt;stroke-linejoin:miter;stroke-opacity:1"/>
<path class="bond-12 atom-12 atom-13" d="M 363.1,76.2 L 359.1,74.8" style="fill:none;fill-rule:evenodd;stroke:#0000FF;stroke-width:2.0px;stroke-linecap:butt;stroke-linejoin:miter;stroke-opacity:1"/>
<path class="bond-12 atom-12 atom-13" d="M 368.6,73.0 L 364.6,71.6" style="fill:none;fill-rule:evenodd;stroke:#000000;stroke-width:2.0px;stroke-linecap:butt;stroke-linejoin:miter;stroke-opacity:1"/>
<path class="bond-12 atom-12 atom-13" d="M 364.6,71.6 L 360.6,70.3" style="fill:none;fill-rule:evenodd;stroke:#0000FF;stroke-width:2.0px;stroke-linecap:butt;stroke-linejoin:miter;stroke-opacity:1"/>
<path class="bond-13 atom-10 atom-14" d="M 389.8,71.5 L 401.1,67.1" style="fill:none;fill-rule:evenodd;stroke:#000000;stroke-width:2.0px;stroke-linecap:butt;stroke-linejoin:miter;stroke-opacity:1"/>
<path class="bond-14 atom-14 atom-15" d="M 401.1,67.1 L 402.9,55.1" style="fill:none;fill-rule:evenodd;stroke:#000000;stroke-width:2.0px;stroke-linecap:butt;stroke-linejoin:miter;stroke-opacity:1"/>
<path class="bond-15 atom-15 atom-16" d="M 402.9,55.1 L 399.2,52.2" style="fill:none;fill-rule:evenodd;stroke:#000000;stroke-width:2.0px;stroke-linecap:butt;stroke-linejoin:miter;stroke-opacity:1"/>
<path class="bond-15 atom-15 atom-16" d="M 399.2,52.2 L 395.4,49.2" style="fill:none;fill-rule:evenodd;stroke:#0000FF;stroke-width:2.0px;stroke-linecap:butt;stroke-linejoin:miter;stroke-opacity:1"/>
<path class="bond-16 atom-16 atom-17" d="M 393.8,45.1 L 394.5,40.3" style="fill:none;fill-rule:evenodd;stroke:#0000FF;stroke-width:2.0px;stroke-linecap:butt;stroke-linejoin:miter;stroke-opacity:1"/>
<path class="bond-16 atom-16 atom-17" d="M 394.5,40.3 L 395.2,35.6" style="fill:none;fill-rule:evenodd;stroke:#000000;stroke-width:2.0px;stroke-linecap:butt;stroke-linejoin:miter;stroke-opacity:1"/>
<path class="bond-17 atom-17 atom-18" d="M 394.4,36.6 L 390.9,33.7" style="fill:none;fill-rule:evenodd;stroke:#000000;stroke-width:2.0px;stroke-linecap:butt;stroke-linejoin:miter;stroke-opacity:1"/>
<path class="bond-17 atom-17 atom-18" d="M 390.9,33.7 L 387.3,30.9" style="fill:none;fill-rule:evenodd;stroke:#FF0000;stroke-width:2.0px;stroke-linecap:butt;stroke-linejoin:miter;stroke-opacity:1"/>
<path class="bond-17 atom-17 atom-18" d="M 396.0,34.7 L 392.4,31.8" style="fill:none;fill-rule:evenodd;stroke:#000000;stroke-width:2.0px;stroke-linecap:butt;stroke-linejoin:miter;stroke-opacity:1"/>
<path class="bond-17 atom-17 atom-18" d="M 392.4,31.8 L 388.8,29.0" style="fill:none;fill-rule:evenodd;stroke:#FF0000;stroke-width:2.0px;stroke-linecap:butt;stroke-linejoin:miter;stroke-opacity:1"/>
<path class="bond-18 atom-17 atom-19" d="M 395.2,35.6 L 399.7,33.9" style="fill:none;fill-rule:evenodd;stroke:#000000;stroke-width:2.0px;stroke-linecap:butt;stroke-linejoin:miter;stroke-opacity:1"/>
<path class="bond-18 atom-17 atom-19" d="M 399.7,33.9 L 404.1,32.1" style="fill:none;fill-rule:evenodd;stroke:#FF0000;stroke-width:2.0px;stroke-linecap:butt;stroke-linejoin:miter;stroke-opacity:1"/>
<path class="bond-19 atom-19 atom-20" d="M 406.8,28.6 L 407.5,23.9" style="fill:none;fill-rule:evenodd;stroke:#FF0000;stroke-width:2.0px;stroke-linecap:butt;stroke-linejoin:miter;stroke-opacity:1"/>
<path class="bond-19 atom-19 atom-20" d="M 407.5,23.9 L 408.3,19.2" style="fill:none;fill-rule:evenodd;stroke:#000000;stroke-width:2.0px;stroke-linecap:butt;stroke-linejoin:miter;stroke-opacity:1"/>
<path class="bond-20 atom-20 atom-21" d="M 408.3,19.2 L 420.2,21.0" style="fill:none;fill-rule:evenodd;stroke:#000000;stroke-width:2.0px;stroke-linecap:butt;stroke-linejoin:miter;stroke-opacity:1"/>
<path class="bond-21 atom-20 atom-22" d="M 408.3,19.2 L 396.3,17.4" style="fill:none;fill-rule:evenodd;stroke:#000000;stroke-width:2.0px;stroke-linecap:butt;stroke-linejoin:miter;stroke-opacity:1"/>
<path class="bond-22 atom-20 atom-23" d="M 408.3,19.2 L 410.0,7.2" style="fill:none;fill-rule:evenodd;stroke:#000000;stroke-width:2.0px;stroke-linecap:butt;stroke-linejoin:miter;stroke-opacity:1"/>
<path class="bond-23 atom-16 atom-24" d="M 391.4,48.4 L 386.8,50.2" style="fill:none;fill-rule:evenodd;stroke:#0000FF;stroke-width:2.0px;stroke-linecap:butt;stroke-linejoin:miter;stroke-opacity:1"/>
<path class="bond-23 atom-16 atom-24" d="M 386.8,50.2 L 382.2,52.0" style="fill:none;fill-rule:evenodd;stroke:#000000;stroke-width:2.0px;stroke-linecap:butt;stroke-linejoin:miter;stroke-opacity:1"/>
<path class="bond-24 atom-24 atom-25" d="M 382.2,52.0 L 380.4,64.0" style="fill:none;fill-rule:evenodd;stroke:#000000;stroke-width:2.0px;stroke-linecap:butt;stroke-linejoin:miter;stroke-opacity:1"/>
<path class="bond-25 atom-9 atom-26" d="M 398.2,82.0 L 403.2,82.4" style="fill:none;fill-rule:evenodd;stroke:#0000FF;stroke-width:2.0px;stroke-linecap:butt;stroke-linejoin:miter;stroke-opacity:1"/>
<path class="bond-25 atom-9 atom-26" d="M 403.2,82.4 L 408.2,82.8" style="fill:none;fill-rule:evenodd;stroke:#000000;stroke-width:2.0px;stroke-linecap:butt;stroke-linejoin:miter;stroke-opacity:1"/>
<path class="bond-26 atom-26 atom-27" d="M 408.2,82.8 L 411.1,94.6" style="fill:none;fill-rule:evenodd;stroke:#000000;stroke-width:2.0px;stroke-linecap:butt;stroke-linejoin:miter;stroke-opacity:1"/>
<path class="bond-26 atom-26 atom-27" d="M 406.3,85.1 L 408.3,93.4" style="fill:none;fill-rule:evenodd;stroke:#000000;stroke-width:2.0px;stroke-linecap:butt;stroke-linejoin:miter;stroke-opacity:1"/>
<path class="bond-27 atom-27 atom-28" d="M 411.1,94.6 L 415.8,96.5" style="fill:none;fill-rule:evenodd;stroke:#000000;stroke-width:2.0px;stroke-linecap:butt;stroke-linejoin:miter;stroke-opacity:1"/>
<path class="bond-27 atom-27 atom-28" d="M 415.8,96.5 L 420.5,98.5" style="fill:none;fill-rule:evenodd;stroke:#CCCC00;stroke-width:2.0px;stroke-linecap:butt;stroke-linejoin:miter;stroke-opacity:1"/>
<path class="bond-28 atom-28 atom-29" d="M 424.0,97.9 L 430.1,93.2" style="fill:none;fill-rule:evenodd;stroke:#CCCC00;stroke-width:2.0px;stroke-linecap:butt;stroke-linejoin:miter;stroke-opacity:1"/>
<path class="bond-29 atom-29 atom-30" d="M 433.6,92.6 L 441.3,95.7" style="fill:none;fill-rule:evenodd;stroke:#CCCC00;stroke-width:2.0px;stroke-linecap:butt;stroke-linejoin:miter;stroke-opacity:1"/>
<path class="bond-30 atom-30 atom-31" d="M 444.8,95.1 L 447.5,93.0" style="fill:none;fill-rule:evenodd;stroke:#CCCC00;stroke-width:2.0px;stroke-linecap:butt;stroke-linejoin:miter;stroke-opacity:1"/>
<path class="bond-30 atom-30 atom-31" d="M 447.5,93.0 L 450.3,90.9" style="fill:none;fill-rule:evenodd;stroke:#FF0000;stroke-width:2.0px;stroke-linecap:butt;stroke-linejoin:miter;stroke-opacity:1"/>
<path class="bond-31 atom-31 atom-32" d="M 455.0,90.1 L 458.4,91.5" style="fill:none;fill-rule:evenodd;stroke:#FF0000;stroke-width:2.0px;stroke-linecap:butt;stroke-linejoin:miter;stroke-opacity:1"/>
<path class="bond-31 atom-31 atom-32" d="M 458.4,91.5 L 461.8,92.9" style="fill:none;fill-rule:evenodd;stroke:#0000FF;stroke-width:2.0px;stroke-linecap:butt;stroke-linejoin:miter;stroke-opacity:1"/>
<path class="bond-32 atom-32 atom-33" d="M 465.8,92.2 L 469.6,89.3" style="fill:none;fill-rule:evenodd;stroke:#0000FF;stroke-width:2.0px;stroke-linecap:butt;stroke-linejoin:miter;stroke-opacity:1"/>
<path class="bond-32 atom-32 atom-33" d="M 469.6,89.3 L 473.4,86.4" style="fill:none;fill-rule:evenodd;stroke:#000000;stroke-width:2.0px;stroke-linecap:butt;stroke-linejoin:miter;stroke-opacity:1"/>
<path class="bond-32 atom-32 atom-33" d="M 465.5,89.4 L 468.1,87.4" style="fill:none;fill-rule:evenodd;stroke:#0000FF;stroke-width:2.0px;stroke-linecap:butt;stroke-linejoin:miter;stroke-opacity:1"/>
<path class="bond-32 atom-32 atom-33" d="M 468.1,87.4 L 470.8,85.3" style="fill:none;fill-rule:evenodd;stroke:#000000;stroke-width:2.0px;stroke-linecap:butt;stroke-linejoin:miter;stroke-opacity:1"/>
<path class="bond-33 atom-33 atom-34" d="M 473.4,86.4 L 484.6,91.0" style="fill:none;fill-rule:evenodd;stroke:#000000;stroke-width:2.0px;stroke-linecap:butt;stroke-linejoin:miter;stroke-opacity:1"/>
<path class="bond-34 atom-34 atom-35" d="M 485.8,90.8 L 486.4,95.6" style="fill:none;fill-rule:evenodd;stroke:#000000;stroke-width:2.0px;stroke-linecap:butt;stroke-linejoin:miter;stroke-opacity:1"/>
<path class="bond-34 atom-34 atom-35" d="M 486.4,95.6 L 487.0,100.3" style="fill:none;fill-rule:evenodd;stroke:#FF0000;stroke-width:2.0px;stroke-linecap:butt;stroke-linejoin:miter;stroke-opacity:1"/>
<path class="bond-34 atom-34 atom-35" d="M 483.4,91.1 L 484.0,95.9" style="fill:none;fill-rule:evenodd;stroke:#000000;stroke-width:2.0px;stroke-linecap:butt;stroke-linejoin:miter;stroke-opacity:1"/>
<path class="bond-34 atom-34 atom-35" d="M 484.0,95.9 L 484.6,100.6" style="fill:none;fill-rule:evenodd;stroke:#FF0000;stroke-width:2.0px;stroke-linecap:butt;stroke-linejoin:miter;stroke-opacity:1"/>
<path class="bond-35 atom-34 atom-36" d="M 484.6,91.0 L 494.2,83.6" style="fill:none;fill-rule:evenodd;stroke:#000000;stroke-width:2.0px;stroke-linecap:butt;stroke-linejoin:miter;stroke-opacity:1"/>
<path class="bond-36 atom-36 atom-37" d="M 494.2,83.6 L 505.4,88.3" style="fill:none;fill-rule:evenodd;stroke:#000000;stroke-width:2.0px;stroke-linecap:butt;stroke-linejoin:miter;stroke-opacity:1"/>
<path class="bond-36 atom-36 atom-37" d="M 496.8,82.1 L 504.6,85.3" style="fill:none;fill-rule:evenodd;stroke:#000000;stroke-width:2.0px;stroke-linecap:butt;stroke-linejoin:miter;stroke-opacity:1"/>
<path class="bond-37 atom-37 atom-38" d="M 505.4,88.3 L 515.0,80.9" style="fill:none;fill-rule:evenodd;stroke:#000000;stroke-width:2.0px;stroke-linecap:butt;stroke-linejoin:miter;stroke-opacity:1"/>
<path class="bond-38 atom-38 atom-39" d="M 515.0,80.9 L 513.4,68.9" style="fill:none;fill-rule:evenodd;stroke:#000000;stroke-width:2.0px;stroke-linecap:butt;stroke-linejoin:miter;stroke-opacity:1"/>
<path class="bond-38 atom-38 atom-39" d="M 512.4,79.4 L 511.2,71.0" style="fill:none;fill-rule:evenodd;stroke:#000000;stroke-width:2.0px;stroke-linecap:butt;stroke-linejoin:miter;stroke-opacity:1"/>
<path class="bond-39 atom-39 atom-40" d="M 513.4,68.9 L 517.3,65.9" style="fill:none;fill-rule:evenodd;stroke:#000000;stroke-width:2.0px;stroke-linecap:butt;stroke-linejoin:miter;stroke-opacity:1"/>
<path class="bond-39 atom-39 atom-40" d="M 517.3,65.9 L 521.2,62.9" style="fill:none;fill-rule:evenodd;stroke:#CCCC00;stroke-width:2.0px;stroke-linecap:butt;stroke-linejoin:miter;stroke-opacity:1"/>
<path class="bond-40 atom-40 atom-41" d="M 525.7,63.1 L 527.6,65.5" style="fill:none;fill-rule:evenodd;stroke:#CCCC00;stroke-width:2.0px;stroke-linecap:butt;stroke-linejoin:miter;stroke-opacity:1"/>
<path class="bond-40 atom-40 atom-41" d="M 527.6,65.5 L 529.4,67.8" style="fill:none;fill-rule:evenodd;stroke:#FF0000;stroke-width:2.0px;stroke-linecap:butt;stroke-linejoin:miter;stroke-opacity:1"/>
<path class="bond-40 atom-40 atom-41" d="M 523.8,64.5 L 525.6,66.9" style="fill:none;fill-rule:evenodd;stroke:#CCCC00;stroke-width:2.0px;stroke-linecap:butt;stroke-linejoin:miter;stroke-opacity:1"/>
<path class="bond-40 atom-40 atom-41" d="M 525.6,66.9 L 527.5,69.3" style="fill:none;fill-rule:evenodd;stroke:#FF0000;stroke-width:2.0px;stroke-linecap:butt;stroke-linejoin:miter;stroke-opacity:1"/>
<path class="bond-41 atom-40 atom-42" d="M 520.3,60.0 L 518.5,57.6" style="fill:none;fill-rule:evenodd;stroke:#CCCC00;stroke-width:2.0px;stroke-linecap:butt;stroke-linejoin:miter;stroke-opacity:1"/>
<path class="bond-41 atom-40 atom-42" d="M 518.5,57.6 L 516.7,55.3" style="fill:none;fill-rule:evenodd;stroke:#FF0000;stroke-width:2.0px;stroke-linecap:butt;stroke-linejoin:miter;stroke-opacity:1"/>
<path class="bond-41 atom-40 atom-42" d="M 522.2,58.5 L 520.4,56.1" style="fill:none;fill-rule:evenodd;stroke:#CCCC00;stroke-width:2.0px;stroke-linecap:butt;stroke-linejoin:miter;stroke-opacity:1"/>
<path class="bond-41 atom-40 atom-42" d="M 520.4,56.1 L 518.6,53.8" style="fill:none;fill-rule:evenodd;stroke:#FF0000;stroke-width:2.0px;stroke-linecap:butt;stroke-linejoin:miter;stroke-opacity:1"/>
<path class="bond-42 atom-40 atom-43" d="M 524.8,60.2 L 527.7,57.9" style="fill:none;fill-rule:evenodd;stroke:#CCCC00;stroke-width:2.0px;stroke-linecap:butt;stroke-linejoin:miter;stroke-opacity:1"/>
<path class="bond-42 atom-40 atom-43" d="M 527.7,57.9 L 530.6,55.7" style="fill:none;fill-rule:evenodd;stroke:#0000FF;stroke-width:2.0px;stroke-linecap:butt;stroke-linejoin:miter;stroke-opacity:1"/>
<path class="bond-43 atom-43 atom-44" d="M 532.3,51.6 L 531.7,46.9" style="fill:none;fill-rule:evenodd;stroke:#0000FF;stroke-width:2.0px;stroke-linecap:butt;stroke-linejoin:miter;stroke-opacity:1"/>
<path class="bond-43 atom-43 atom-44" d="M 531.7,46.9 L 531.0,42.1" style="fill:none;fill-rule:evenodd;stroke:#000000;stroke-width:2.0px;stroke-linecap:butt;stroke-linejoin:miter;stroke-opacity:1"/>
<path class="bond-44 atom-43 atom-45" d="M 534.6,55.0 L 539.2,56.9" style="fill:none;fill-rule:evenodd;stroke:#0000FF;stroke-width:2.0px;stroke-linecap:butt;stroke-linejoin:miter;stroke-opacity:1"/>
<path class="bond-44 atom-43 atom-45" d="M 539.2,56.9 L 543.8,58.8" style="fill:none;fill-rule:evenodd;stroke:#000000;stroke-width:2.0px;stroke-linecap:butt;stroke-linejoin:miter;stroke-opacity:1"/>
<path class="bond-45 atom-39 atom-46" d="M 513.4,68.9 L 502.2,64.3" style="fill:none;fill-rule:evenodd;stroke:#000000;stroke-width:2.0px;stroke-linecap:butt;stroke-linejoin:miter;stroke-opacity:1"/>
<path class="bond-46 atom-46 atom-47" d="M 502.2,64.3 L 492.6,71.6" style="fill:none;fill-rule:evenodd;stroke:#000000;stroke-width:2.0px;stroke-linecap:butt;stroke-linejoin:miter;stroke-opacity:1"/>
<path class="bond-46 atom-46 atom-47" d="M 502.3,67.3 L 495.5,72.4" style="fill:none;fill-rule:evenodd;stroke:#000000;stroke-width:2.0px;stroke-linecap:butt;stroke-linejoin:miter;stroke-opacity:1"/>
<path class="bond-47 atom-5 atom-48" d="M 409.8,119.8 L 420.7,114.6" style="fill:none;fill-rule:evenodd;stroke:#000000;stroke-width:2.0px;stroke-linecap:butt;stroke-linejoin:miter;stroke-opacity:1"/>
<path class="bond-48 atom-48 atom-49" d="M 420.7,114.6 L 430.7,121.5" style="fill:none;fill-rule:evenodd;stroke:#000000;stroke-width:2.0px;stroke-linecap:butt;stroke-linejoin:miter;stroke-opacity:1"/>
<path class="bond-48 atom-48 atom-49" d="M 420.8,117.6 L 427.8,122.4" style="fill:none;fill-rule:evenodd;stroke:#000000;stroke-width:2.0px;stroke-linecap:butt;stroke-linejoin:miter;stroke-opacity:1"/>
<path class="bond-49 atom-49 atom-2" d="M 430.7,121.5 L 429.7,133.5" style="fill:none;fill-rule:evenodd;stroke:#000000;stroke-width:2.0px;stroke-linecap:butt;stroke-linejoin:miter;stroke-opacity:1"/>
<path class="bond-50 atom-27 atom-7" d="M 411.1,94.6 L 400.7,100.9" style="fill:none;fill-rule:evenodd;stroke:#000000;stroke-width:2.0px;stroke-linecap:butt;stroke-linejoin:miter;stroke-opacity:1"/>
<path class="bond-51 atom-47 atom-36" d="M 492.6,71.6 L 494.2,83.6" style="fill:none;fill-rule:evenodd;stroke:#000000;stroke-width:2.0px;stroke-linecap:butt;stroke-linejoin:miter;stroke-opacity:1"/>
<path class="bond-52 atom-25 atom-10" d="M 380.4,64.0 L 389.8,71.5" style="fill:none;fill-rule:evenodd;stroke:#000000;stroke-width:2.0px;stroke-linecap:butt;stroke-linejoin:miter;stroke-opacity:1"/>
<path class="atom-6" d="M 394.3 110.8 L 394.9 110.8 L 394.9 112.7 L 397.1 112.7 L 397.1 110.8 L 397.7 110.8 L 397.7 115.1 L 397.1 115.1 L 397.1 113.1 L 394.9 113.1 L 394.9 115.1 L 394.3 115.1 L 394.3 110.8 " fill="#0000FF"/>
<path class="atom-6" d="M 398.9 110.8 L 400.2 113.1 Q 400.4 113.3, 400.6 113.7 Q 400.8 114.1, 400.8 114.1 L 400.8 110.8 L 401.4 110.8 L 401.4 115.1 L 400.8 115.1 L 399.3 112.6 Q 399.2 112.3, 399.0 112.0 Q 398.8 111.7, 398.7 111.6 L 398.7 115.1 L 398.2 115.1 L 398.2 110.8 L 398.9 110.8 " fill="#0000FF"/>
<path class="atom-8" d="M 390.6 90.9 L 392.0 93.2 Q 392.1 93.4, 392.3 93.8 Q 392.6 94.2, 392.6 94.2 L 392.6 90.9 L 393.1 90.9 L 393.1 95.2 L 392.6 95.2 L 391.1 92.7 Q 390.9 92.4, 390.7 92.1 Q 390.5 91.8, 390.5 91.7 L 390.5 95.2 L 389.9 95.2 L 389.9 90.9 L 390.6 90.9 " fill="#0000FF"/>
<path class="atom-9" d="M 395.2 79.7 L 396.6 82.0 Q 396.8 82.2, 397.0 82.6 Q 397.2 83.0, 397.2 83.0 L 397.2 79.7 L 397.8 79.7 L 397.8 84.0 L 397.2 84.0 L 395.7 81.5 Q 395.5 81.2, 395.3 80.9 Q 395.2 80.6, 395.1 80.5 L 395.1 84.0 L 394.6 84.0 L 394.6 79.7 L 395.2 79.7 " fill="#0000FF"/>
<path class="atom-13" d="M 356.9 69.8 L 358.3 72.0 Q 358.4 72.2, 358.6 72.6 Q 358.9 73.0, 358.9 73.1 L 358.9 69.8 L 359.4 69.8 L 359.4 74.0 L 358.8 74.0 L 357.4 71.5 Q 357.2 71.3, 357.0 70.9 Q 356.8 70.6, 356.8 70.5 L 356.8 74.0 L 356.2 74.0 L 356.2 69.8 L 356.9 69.8 " fill="#0000FF"/>
<path class="atom-16" d="M 392.5 45.5 L 393.9 47.7 Q 394.0 47.9, 394.2 48.3 Q 394.5 48.7, 394.5 48.8 L 394.5 45.5 L 395.0 45.5 L 395.0 49.7 L 394.4 49.7 L 393.0 47.3 Q 392.8 47.0, 392.6 46.6 Q 392.4 46.3, 392.4 46.2 L 392.4 49.7 L 391.8 49.7 L 391.8 45.5 L 392.5 45.5 " fill="#0000FF"/>
<path class="atom-18" d="M 383.8 28.1 Q 383.8 27.1, 384.3 26.5 Q 384.8 25.9, 385.7 25.9 Q 386.7 25.9, 387.2 26.5 Q 387.7 27.1, 387.7 28.1 Q 387.7 29.1, 387.2 29.7 Q 386.7 30.3, 385.7 30.3 Q 384.8 30.3, 384.3 29.7 Q 383.8 29.1, 383.8 28.1 M 385.7 29.8 Q 386.4 29.8, 386.7 29.4 Q 387.1 29.0, 387.1 28.1 Q 387.1 27.3, 386.7 26.8 Q 386.4 26.4, 385.7 26.4 Q 385.1 26.4, 384.7 26.8 Q 384.4 27.3, 384.4 28.1 Q 384.4 29.0, 384.7 29.4 Q 385.1 29.8, 385.7 29.8 " fill="#FF0000"/>
<path class="atom-19" d="M 404.5 31.2 Q 404.5 30.2, 405.0 29.6 Q 405.5 29.0, 406.5 29.0 Q 407.4 29.0, 407.9 29.6 Q 408.4 30.2, 408.4 31.2 Q 408.4 32.2, 407.9 32.8 Q 407.4 33.4, 406.5 33.4 Q 405.5 33.4, 405.0 32.8 Q 404.5 32.2, 404.5 31.2 M 406.5 32.9 Q 407.1 32.9, 407.5 32.5 Q 407.8 32.1, 407.8 31.2 Q 407.8 30.4, 407.5 29.9 Q 407.1 29.5, 406.5 29.5 Q 405.8 29.5, 405.5 29.9 Q 405.1 30.4, 405.1 31.2 Q 405.1 32.1, 405.5 32.5 Q 405.8 32.9, 406.5 32.9 " fill="#FF0000"/>
<path class="atom-28" d="M 421.0 100.7 Q 421.1 100.7, 421.3 100.8 Q 421.5 100.9, 421.7 100.9 Q 421.9 101.0, 422.1 101.0 Q 422.5 101.0, 422.8 100.8 Q 423.0 100.6, 423.0 100.2 Q 423.0 100.0, 422.9 99.8 Q 422.8 99.7, 422.6 99.6 Q 422.4 99.5, 422.1 99.5 Q 421.7 99.3, 421.5 99.2 Q 421.3 99.1, 421.1 98.9 Q 421.0 98.7, 421.0 98.3 Q 421.0 97.7, 421.3 97.4 Q 421.7 97.1, 422.4 97.1 Q 422.9 97.1, 423.5 97.3 L 423.3 97.8 Q 422.8 97.6, 422.4 97.6 Q 422.0 97.6, 421.8 97.7 Q 421.6 97.9, 421.6 98.2 Q 421.6 98.4, 421.7 98.6 Q 421.8 98.7, 422.0 98.8 Q 422.1 98.9, 422.4 99.0 Q 422.8 99.1, 423.0 99.2 Q 423.3 99.3, 423.4 99.6 Q 423.6 99.8, 423.6 100.2 Q 423.6 100.8, 423.2 101.1 Q 422.8 101.4, 422.2 101.4 Q 421.8 101.4, 421.5 101.4 Q 421.2 101.3, 420.9 101.1 L 421.0 100.7 " fill="#CCCC00"/>
<path class="atom-28" d="M 420.6 101.9 L 421.2 101.9 L 421.2 103.7 L 423.3 103.7 L 423.3 101.9 L 423.9 101.9 L 423.9 106.1 L 423.3 106.1 L 423.3 104.2 L 421.2 104.2 L 421.2 106.1 L 420.6 106.1 L 420.6 101.9 " fill="#CCCC00"/>
<path class="atom-29" d="M 430.6 93.3 Q 430.7 93.3, 430.9 93.4 Q 431.1 93.5, 431.3 93.5 Q 431.5 93.6, 431.7 93.6 Q 432.1 93.6, 432.4 93.4 Q 432.6 93.2, 432.6 92.9 Q 432.6 92.6, 432.5 92.5 Q 432.4 92.3, 432.2 92.3 Q 432.0 92.2, 431.7 92.1 Q 431.3 92.0, 431.1 91.9 Q 430.9 91.8, 430.7 91.5 Q 430.6 91.3, 430.6 90.9 Q 430.6 90.4, 430.9 90.1 Q 431.3 89.7, 432.0 89.7 Q 432.5 89.7, 433.1 90.0 L 432.9 90.4 Q 432.4 90.2, 432.0 90.2 Q 431.6 90.2, 431.4 90.4 Q 431.2 90.5, 431.2 90.8 Q 431.2 91.1, 431.3 91.2 Q 431.4 91.3, 431.6 91.4 Q 431.7 91.5, 432.0 91.6 Q 432.4 91.7, 432.6 91.8 Q 432.9 92.0, 433.0 92.2 Q 433.2 92.4, 433.2 92.9 Q 433.2 93.4, 432.8 93.8 Q 432.4 94.1, 431.8 94.1 Q 431.4 94.1, 431.1 94.0 Q 430.8 93.9, 430.5 93.8 L 430.6 93.3 " fill="#CCCC00"/>
<path class="atom-29" d="M 430.2 84.9 L 430.8 84.9 L 430.8 86.7 L 432.9 86.7 L 432.9 84.9 L 433.5 84.9 L 433.5 89.2 L 432.9 89.2 L 432.9 87.2 L 430.8 87.2 L 430.8 89.2 L 430.2 89.2 L 430.2 84.9 " fill="#CCCC00"/>
<path class="atom-30" d="M 441.8 97.9 Q 441.9 97.9, 442.1 98.0 Q 442.3 98.1, 442.5 98.2 Q 442.7 98.2, 442.9 98.2 Q 443.3 98.2, 443.6 98.0 Q 443.8 97.8, 443.8 97.5 Q 443.8 97.2, 443.7 97.1 Q 443.6 97.0, 443.4 96.9 Q 443.2 96.8, 442.9 96.7 Q 442.5 96.6, 442.3 96.5 Q 442.1 96.4, 441.9 96.2 Q 441.8 95.9, 441.8 95.5 Q 441.8 95.0, 442.1 94.7 Q 442.5 94.4, 443.2 94.4 Q 443.7 94.4, 444.3 94.6 L 444.1 95.0 Q 443.6 94.8, 443.2 94.8 Q 442.8 94.8, 442.6 95.0 Q 442.4 95.2, 442.4 95.5 Q 442.4 95.7, 442.5 95.8 Q 442.6 96.0, 442.8 96.1 Q 442.9 96.1, 443.2 96.2 Q 443.6 96.3, 443.8 96.5 Q 444.1 96.6, 444.2 96.8 Q 444.4 97.1, 444.4 97.5 Q 444.4 98.1, 444.0 98.4 Q 443.6 98.7, 443.0 98.7 Q 442.6 98.7, 442.3 98.6 Q 442.0 98.5, 441.7 98.4 L 441.8 97.9 " fill="#CCCC00"/>
<path class="atom-31" d="M 450.7 89.1 Q 450.7 88.1, 451.2 87.5 Q 451.7 87.0, 452.6 87.0 Q 453.6 87.0, 454.1 87.5 Q 454.6 88.1, 454.6 89.1 Q 454.6 90.1, 454.1 90.7 Q 453.6 91.3, 452.6 91.3 Q 451.7 91.3, 451.2 90.7 Q 450.7 90.1, 450.7 89.1 M 452.6 90.8 Q 453.3 90.8, 453.6 90.4 Q 454.0 90.0, 454.0 89.1 Q 454.0 88.3, 453.6 87.9 Q 453.3 87.4, 452.6 87.4 Q 452.0 87.4, 451.6 87.9 Q 451.3 88.3, 451.3 89.1 Q 451.3 90.0, 451.6 90.4 Q 452.0 90.8, 452.6 90.8 " fill="#FF0000"/>
<path class="atom-32" d="M 462.9 91.6 L 464.3 93.9 Q 464.4 94.1, 464.6 94.5 Q 464.8 94.9, 464.9 94.9 L 464.9 91.6 L 465.4 91.6 L 465.4 95.9 L 464.8 95.9 L 463.3 93.4 Q 463.2 93.1, 463.0 92.8 Q 462.8 92.4, 462.8 92.3 L 462.8 95.9 L 462.2 95.9 L 462.2 91.6 L 462.9 91.6 " fill="#0000FF"/>
<path class="atom-35" d="M 484.2 103.0 Q 484.2 102.0, 484.7 101.4 Q 485.2 100.8, 486.2 100.8 Q 487.1 100.8, 487.6 101.4 Q 488.1 102.0, 488.1 103.0 Q 488.1 104.0, 487.6 104.6 Q 487.1 105.2, 486.2 105.2 Q 485.2 105.2, 484.7 104.6 Q 484.2 104.0, 484.2 103.0 M 486.2 104.7 Q 486.8 104.7, 487.2 104.3 Q 487.5 103.9, 487.5 103.0 Q 487.5 102.2, 487.2 101.8 Q 486.8 101.3, 486.2 101.3 Q 485.5 101.3, 485.2 101.7 Q 484.8 102.2, 484.8 103.0 Q 484.8 103.9, 485.2 104.3 Q 485.5 104.7, 486.2 104.7 " fill="#FF0000"/>
<path class="atom-40" d="M 521.8 63.0 Q 521.9 63.0, 522.1 63.1 Q 522.3 63.2, 522.5 63.2 Q 522.7 63.3, 522.9 63.3 Q 523.3 63.3, 523.5 63.1 Q 523.8 62.9, 523.8 62.5 Q 523.8 62.3, 523.7 62.1 Q 523.5 62.0, 523.4 61.9 Q 523.2 61.8, 522.9 61.8 Q 522.5 61.6, 522.3 61.5 Q 522.1 61.4, 521.9 61.2 Q 521.7 61.0, 521.7 60.6 Q 521.7 60.1, 522.1 59.7 Q 522.5 59.4, 523.2 59.4 Q 523.7 59.4, 524.2 59.6 L 524.1 60.1 Q 523.6 59.9, 523.2 59.9 Q 522.8 59.9, 522.6 60.1 Q 522.3 60.2, 522.3 60.5 Q 522.3 60.7, 522.5 60.9 Q 522.6 61.0, 522.7 61.1 Q 522.9 61.2, 523.2 61.3 Q 523.6 61.4, 523.8 61.5 Q 524.0 61.6, 524.2 61.9 Q 524.4 62.1, 524.4 62.5 Q 524.4 63.1, 524.0 63.4 Q 523.6 63.7, 522.9 63.7 Q 522.6 63.7, 522.3 63.7 Q 522.0 63.6, 521.6 63.4 L 521.8 63.0 " fill="#CCCC00"/>
<path class="atom-41" d="M 528.4 71.1 Q 528.4 70.1, 528.9 69.5 Q 529.4 69.0, 530.4 69.0 Q 531.3 69.0, 531.8 69.5 Q 532.3 70.1, 532.3 71.1 Q 532.3 72.2, 531.8 72.7 Q 531.3 73.3, 530.4 73.3 Q 529.4 73.3, 528.9 72.7 Q 528.4 72.2, 528.4 71.1 M 530.4 72.8 Q 531.0 72.8, 531.4 72.4 Q 531.7 72.0, 531.7 71.1 Q 531.7 70.3, 531.4 69.9 Q 531.0 69.4, 530.4 69.4 Q 529.7 69.4, 529.4 69.9 Q 529.0 70.3, 529.0 71.1 Q 529.0 72.0, 529.4 72.4 Q 529.7 72.8, 530.4 72.8 " fill="#FF0000"/>
<path class="atom-42" d="M 513.7 51.9 Q 513.7 50.9, 514.2 50.3 Q 514.7 49.8, 515.6 49.8 Q 516.6 49.8, 517.1 50.3 Q 517.6 50.9, 517.6 51.9 Q 517.6 53.0, 517.1 53.5 Q 516.6 54.1, 515.6 54.1 Q 514.7 54.1, 514.2 53.5 Q 513.7 53.0, 513.7 51.9 M 515.6 53.6 Q 516.3 53.6, 516.6 53.2 Q 517.0 52.8, 517.0 51.9 Q 517.0 51.1, 516.6 50.7 Q 516.3 50.2, 515.6 50.2 Q 515.0 50.2, 514.6 50.7 Q 514.3 51.1, 514.3 51.9 Q 514.3 52.8, 514.6 53.2 Q 515.0 53.6, 515.6 53.6 " fill="#FF0000"/>
<path class="atom-43" d="M 531.7 52.0 L 533.1 54.3 Q 533.2 54.5, 533.4 54.9 Q 533.6 55.3, 533.7 55.3 L 533.7 52.0 L 534.2 52.0 L 534.2 56.3 L 533.6 56.3 L 532.1 53.8 Q 532.0 53.5, 531.8 53.2 Q 531.6 52.9, 531.6 52.8 L 531.6 56.3 L 531.0 56.3 L 531.0 52.0 L 531.7 52.0 " fill="#0000FF"/>
<path class="atom-0" d="M 440.8,152.5 L 440.8,152.5 L 440.8,152.5 L 440.8,152.5 L 440.8,152.6 L 440.8,152.6 L 440.8,152.6 L 440.8,152.6 L 440.8,152.6 L 440.8,152.7 L 440.7,152.7 L 440.7,152.7 L 440.7,152.7 L 440.7,152.7 L 440.7,152.7 L 440.6,152.7 L 440.6,152.8 L 440.6,152.8 L 440.6,152.8 L 440.5,152.8 L 440.5,152.8 L 440.5,152.7 L 440.5,152.7 L 440.4,152.7 L 440.4,152.7 L 440.4,152.7 L 440.4,152.7 L 440.3,152.7 L 440.3,152.7 L 440.3,152.6 L 440.3,152.6 L 440.3,152.6 L 440.3,152.6 L 440.3,152.5 L 440.3,152.5 L 440.3,152.5 L 440.2,152.5 L 440.2,152.4 L 440.3,152.4 L 440.3,152.4 L 440.3,152.4 L 440.3,152.3 L 440.3,152.3 L 440.3,152.3 L 440.3,152.3 L 440.3,152.3 L 440.3,152.2 L 440.4,152.2 L 440.4,152.2 L 440.4,152.2 L 440.4,152.2 L 440.5,152.2 L 440.5,152.2 L 440.5,152.2 L 440.5,152.2 L 440.6,152.2 L 440.6,152.2 L 440.6,152.2 L 440.6,152.2 L 440.7,152.2 L 440.7,152.2 L 440.7,152.2 L 440.7,152.2 L 440.7,152.2 L 440.8,152.2 L 440.8,152.3 L 440.8,152.3 L 440.8,152.3 L 440.8,152.3 L 440.8,152.4 L 440.8,152.4 L 440.8,152.4 L 440.8,152.4 L 440.8,152.5 L 440.5,152.5 Z" style="fill:#000000;fill-rule:evenodd;fill-opacity:1;stroke:#000000;stroke-width:0.0px;stroke-linecap:butt;stroke-linejoin:miter;stroke-opacity:1;"/>
<path class="atom-28" d="M 425.1,99.2 L 425.1,99.2 L 425.1,99.3 L 425.1,99.3 L 425.1,99.3 L 425.1,99.3 L 425.1,99.4 L 425.1,99.4 L 425.0,99.4 L 425.0,99.4 L 425.0,99.4 L 425.0,99.5 L 425.0,99.5 L 424.9,99.5 L 424.9,99.5 L 424.9,99.5 L 424.9,99.5 L 424.8,99.5 L 424.8,99.5 L 424.8,99.5 L 424.8,99.5 L 424.7,99.5 L 424.7,99.5 L 424.7,99.5 L 424.7,99.5 L 424.6,99.5 L 424.6,99.4 L 424.6,99.4 L 424.6,99.4 L 424.6,99.4 L 424.6,99.4 L 424.5,99.3 L 424.5,99.3 L 424.5,99.3 L 424.5,99.3 L 424.5,99.2 L 424.5,99.2 L 424.5,99.2 L 424.5,99.2 L 424.5,99.1 L 424.5,99.1 L 424.5,99.1 L 424.5,99.1 L 424.6,99.0 L 424.6,99.0 L 424.6,99.0 L 424.6,99.0 L 424.6,99.0 L 424.6,99.0 L 424.7,98.9 L 424.7,98.9 L 424.7,98.9 L 424.7,98.9 L 424.8,98.9 L 424.8,98.9 L 424.8,98.9 L 424.8,98.9 L 424.9,98.9 L 424.9,98.9 L 424.9,98.9 L 424.9,98.9 L 425.0,99.0 L 425.0,99.0 L 425.0,99.0 L 425.0,99.0 L 425.0,99.0 L 425.1,99.0 L 425.1,99.1 L 425.1,99.1 L 425.1,99.1 L 425.1,99.1 L 425.1,99.2 L 425.1,99.2 L 425.1,99.2 L 424.8,99.2 Z" style="fill:#000000;fill-rule:evenodd;fill-opacity:1;stroke:#000000;stroke-width:0.0px;stroke-linecap:butt;stroke-linejoin:miter;stroke-opacity:1;"/>
<path class="atom-29" d="M 434.7,91.8 L 434.7,91.9 L 434.7,91.9 L 434.7,91.9 L 434.7,91.9 L 434.7,92.0 L 434.7,92.0 L 434.7,92.0 L 434.6,92.0 L 434.6,92.0 L 434.6,92.1 L 434.6,92.1 L 434.6,92.1 L 434.5,92.1 L 434.5,92.1 L 434.5,92.1 L 434.5,92.1 L 434.4,92.1 L 434.4,92.1 L 434.4,92.1 L 434.4,92.1 L 434.3,92.1 L 434.3,92.1 L 434.3,92.1 L 434.3,92.1 L 434.2,92.1 L 434.2,92.1 L 434.2,92.1 L 434.2,92.0 L 434.2,92.0 L 434.2,92.0 L 434.1,92.0 L 434.1,92.0 L 434.1,91.9 L 434.1,91.9 L 434.1,91.9 L 434.1,91.9 L 434.1,91.8 L 434.1,91.8 L 434.1,91.8 L 434.1,91.7 L 434.1,91.7 L 434.1,91.7 L 434.2,91.7 L 434.2,91.7 L 434.2,91.6 L 434.2,91.6 L 434.2,91.6 L 434.2,91.6 L 434.3,91.6 L 434.3,91.6 L 434.3,91.6 L 434.3,91.5 L 434.4,91.5 L 434.4,91.5 L 434.4,91.5 L 434.4,91.5 L 434.5,91.5 L 434.5,91.5 L 434.5,91.6 L 434.5,91.6 L 434.6,91.6 L 434.6,91.6 L 434.6,91.6 L 434.6,91.6 L 434.6,91.6 L 434.7,91.7 L 434.7,91.7 L 434.7,91.7 L 434.7,91.7 L 434.7,91.8 L 434.7,91.8 L 434.7,91.8 L 434.7,91.8 L 434.4,91.8 Z" style="fill:#000000;fill-rule:evenodd;fill-opacity:1;stroke:#000000;stroke-width:0.0px;stroke-linecap:butt;stroke-linejoin:miter;stroke-opacity:1;"/>
<path class="bond-0 atom-0 atom-1" d="M 711.6,50.0 L 720.4,58.4" style="fill:none;fill-rule:evenodd;stroke:#000000;stroke-width:2.0px;stroke-linecap:butt;stroke-linejoin:miter;stroke-opacity:1"/>
<path class="bond-0 atom-0 atom-1" d="M 709.9,51.8 L 718.7,60.1" style="fill:none;fill-rule:evenodd;stroke:#000000;stroke-width:2.0px;stroke-linecap:butt;stroke-linejoin:miter;stroke-opacity:1"/>
<path class="bond-1 atom-1 atom-2" d="M 719.5,59.3 L 731.1,55.8" style="fill:none;fill-rule:evenodd;stroke:#000000;stroke-width:2.0px;stroke-linecap:butt;stroke-linejoin:miter;stroke-opacity:1"/>
<path class="bond-2 atom-2 atom-3" d="M 731.1,55.8 L 734.0,44.1" style="fill:none;fill-rule:evenodd;stroke:#000000;stroke-width:2.0px;stroke-linecap:butt;stroke-linejoin:miter;stroke-opacity:1"/>
<path class="bond-2 atom-2 atom-3" d="M 733.9,54.7 L 735.9,46.4" style="fill:none;fill-rule:evenodd;stroke:#000000;stroke-width:2.0px;stroke-linecap:butt;stroke-linejoin:miter;stroke-opacity:1"/>
<path class="bond-3 atom-3 atom-4" d="M 734.0,44.1 L 745.6,40.7" style="fill:none;fill-rule:evenodd;stroke:#000000;stroke-width:2.0px;stroke-linecap:butt;stroke-linejoin:miter;stroke-opacity:1"/>
<path class="bond-4 atom-4 atom-5" d="M 745.6,40.7 L 754.4,49.0" style="fill:none;fill-rule:evenodd;stroke:#000000;stroke-width:2.0px;stroke-linecap:butt;stroke-linejoin:miter;stroke-opacity:1"/>
<path class="bond-4 atom-4 atom-5" d="M 745.2,43.7 L 751.4,49.5" style="fill:none;fill-rule:evenodd;stroke:#000000;stroke-width:2.0px;stroke-linecap:butt;stroke-linejoin:miter;stroke-opacity:1"/>
<path class="bond-5 atom-5 atom-6" d="M 754.4,49.0 L 759.2,47.6" style="fill:none;fill-rule:evenodd;stroke:#000000;stroke-width:2.0px;stroke-linecap:butt;stroke-linejoin:miter;stroke-opacity:1"/>
<path class="bond-5 atom-5 atom-6" d="M 759.2,47.6 L 764.0,46.2" style="fill:none;fill-rule:evenodd;stroke:#0000FF;stroke-width:2.0px;stroke-linecap:butt;stroke-linejoin:miter;stroke-opacity:1"/>
<path class="bond-6 atom-6 atom-7" d="M 768.0,47.5 L 771.4,50.7" style="fill:none;fill-rule:evenodd;stroke:#0000FF;stroke-width:2.0px;stroke-linecap:butt;stroke-linejoin:miter;stroke-opacity:1"/>
<path class="bond-6 atom-6 atom-7" d="M 771.4,50.7 L 774.7,53.9" style="fill:none;fill-rule:evenodd;stroke:#000000;stroke-width:2.0px;stroke-linecap:butt;stroke-linejoin:miter;stroke-opacity:1"/>
<path class="bond-7 atom-7 atom-8" d="M 774.7,53.9 L 779.7,53.0" style="fill:none;fill-rule:evenodd;stroke:#000000;stroke-width:2.0px;stroke-linecap:butt;stroke-linejoin:miter;stroke-opacity:1"/>
<path class="bond-7 atom-7 atom-8" d="M 779.7,53.0 L 784.6,52.1" style="fill:none;fill-rule:evenodd;stroke:#0000FF;stroke-width:2.0px;stroke-linecap:butt;stroke-linejoin:miter;stroke-opacity:1"/>
<path class="bond-7 atom-7 atom-8" d="M 776.7,56.1 L 780.1,55.4" style="fill:none;fill-rule:evenodd;stroke:#000000;stroke-width:2.0px;stroke-linecap:butt;stroke-linejoin:miter;stroke-opacity:1"/>
<path class="bond-7 atom-7 atom-8" d="M 780.1,55.4 L 783.6,54.8" style="fill:none;fill-rule:evenodd;stroke:#0000FF;stroke-width:2.0px;stroke-linecap:butt;stroke-linejoin:miter;stroke-opacity:1"/>
<path class="bond-8 atom-8 atom-9" d="M 788.0,54.3 L 791.0,59.9" style="fill:none;fill-rule:evenodd;stroke:#0000FF;stroke-width:2.0px;stroke-linecap:butt;stroke-linejoin:miter;stroke-opacity:1"/>
<path class="bond-9 atom-9 atom-10" d="M 794.4,62.7 L 799.4,63.3" style="fill:none;fill-rule:evenodd;stroke:#0000FF;stroke-width:2.0px;stroke-linecap:butt;stroke-linejoin:miter;stroke-opacity:1"/>
<path class="bond-9 atom-9 atom-10" d="M 799.4,63.3 L 804.4,64.0" style="fill:none;fill-rule:evenodd;stroke:#000000;stroke-width:2.0px;stroke-linecap:butt;stroke-linejoin:miter;stroke-opacity:1"/>
<path class="bond-10 atom-10 atom-11" d="M 804.4,64.0 L 803.9,51.9" style="fill:none;fill-rule:evenodd;stroke:#000000;stroke-width:2.0px;stroke-linecap:butt;stroke-linejoin:miter;stroke-opacity:1"/>
<path class="bond-11 atom-11 atom-12" d="M 803.9,51.9 L 814.1,45.4" style="fill:none;fill-rule:evenodd;stroke:#000000;stroke-width:2.0px;stroke-linecap:butt;stroke-linejoin:miter;stroke-opacity:1"/>
<path class="bond-12 atom-12 atom-13" d="M 814.1,45.4 L 818.2,42.8" style="fill:none;fill-rule:evenodd;stroke:#000000;stroke-width:2.0px;stroke-linecap:butt;stroke-linejoin:miter;stroke-opacity:1"/>
<path class="bond-12 atom-12 atom-13" d="M 818.2,42.8 L 822.3,40.2" style="fill:none;fill-rule:evenodd;stroke:#0000FF;stroke-width:2.0px;stroke-linecap:butt;stroke-linejoin:miter;stroke-opacity:1"/>
<path class="bond-12 atom-12 atom-13" d="M 814.0,42.6 L 817.5,40.4" style="fill:none;fill-rule:evenodd;stroke:#000000;stroke-width:2.0px;stroke-linecap:butt;stroke-linejoin:miter;stroke-opacity:1"/>
<path class="bond-12 atom-12 atom-13" d="M 817.5,40.4 L 821.0,38.2" style="fill:none;fill-rule:evenodd;stroke:#0000FF;stroke-width:2.0px;stroke-linecap:butt;stroke-linejoin:miter;stroke-opacity:1"/>
<path class="bond-12 atom-12 atom-13" d="M 816.6,46.7 L 820.1,44.5" style="fill:none;fill-rule:evenodd;stroke:#000000;stroke-width:2.0px;stroke-linecap:butt;stroke-linejoin:miter;stroke-opacity:1"/>
<path class="bond-12 atom-12 atom-13" d="M 820.1,44.5 L 823.6,42.3" style="fill:none;fill-rule:evenodd;stroke:#0000FF;stroke-width:2.0px;stroke-linecap:butt;stroke-linejoin:miter;stroke-opacity:1"/>
<path class="bond-13 atom-10 atom-14" d="M 804.4,64.0 L 800.7,75.6" style="fill:none;fill-rule:evenodd;stroke:#000000;stroke-width:2.0px;stroke-linecap:butt;stroke-linejoin:miter;stroke-opacity:1"/>
<path class="bond-14 atom-14 atom-15" d="M 800.7,75.6 L 808.9,84.5" style="fill:none;fill-rule:evenodd;stroke:#000000;stroke-width:2.0px;stroke-linecap:butt;stroke-linejoin:miter;stroke-opacity:1"/>
<path class="bond-15 atom-15 atom-16" d="M 808.9,84.5 L 813.8,83.4" style="fill:none;fill-rule:evenodd;stroke:#000000;stroke-width:2.0px;stroke-linecap:butt;stroke-linejoin:miter;stroke-opacity:1"/>
<path class="bond-15 atom-15 atom-16" d="M 813.8,83.4 L 818.7,82.3" style="fill:none;fill-rule:evenodd;stroke:#0000FF;stroke-width:2.0px;stroke-linecap:butt;stroke-linejoin:miter;stroke-opacity:1"/>
<path class="bond-16 atom-16 atom-17" d="M 822.7,84.1 L 825.8,87.5" style="fill:none;fill-rule:evenodd;stroke:#0000FF;stroke-width:2.0px;stroke-linecap:butt;stroke-linejoin:miter;stroke-opacity:1"/>
<path class="bond-16 atom-16 atom-17" d="M 825.8,87.5 L 828.9,90.8" style="fill:none;fill-rule:evenodd;stroke:#000000;stroke-width:2.0px;stroke-linecap:butt;stroke-linejoin:miter;stroke-opacity:1"/>
<path class="bond-17 atom-17 atom-18" d="M 828.6,89.7 L 833.3,88.6" style="fill:none;fill-rule:evenodd;stroke:#000000;stroke-width:2.0px;stroke-linecap:butt;stroke-linejoin:miter;stroke-opacity:1"/>
<path class="bond-17 atom-17 atom-18" d="M 833.3,88.6 L 838.1,87.6" style="fill:none;fill-rule:evenodd;stroke:#FF0000;stroke-width:2.0px;stroke-linecap:butt;stroke-linejoin:miter;stroke-opacity:1"/>
<path class="bond-17 atom-17 atom-18" d="M 829.1,92.0 L 833.9,91.0" style="fill:none;fill-rule:evenodd;stroke:#000000;stroke-width:2.0px;stroke-linecap:butt;stroke-linejoin:miter;stroke-opacity:1"/>
<path class="bond-17 atom-17 atom-18" d="M 833.9,91.0 L 838.6,89.9" style="fill:none;fill-rule:evenodd;stroke:#FF0000;stroke-width:2.0px;stroke-linecap:butt;stroke-linejoin:miter;stroke-opacity:1"/>
<path class="bond-18 atom-17 atom-19" d="M 828.9,90.8 L 827.4,95.3" style="fill:none;fill-rule:evenodd;stroke:#000000;stroke-width:2.0px;stroke-linecap:butt;stroke-linejoin:miter;stroke-opacity:1"/>
<path class="bond-18 atom-17 atom-19" d="M 827.4,95.3 L 826.0,99.8" style="fill:none;fill-rule:evenodd;stroke:#FF0000;stroke-width:2.0px;stroke-linecap:butt;stroke-linejoin:miter;stroke-opacity:1"/>
<path class="bond-19 atom-19 atom-20" d="M 827.6,104.9 L 830.5,108.1" style="fill:none;fill-rule:evenodd;stroke:#FF0000;stroke-width:2.0px;stroke-linecap:butt;stroke-linejoin:miter;stroke-opacity:1"/>
<path class="bond-19 atom-19 atom-20" d="M 830.5,108.1 L 833.4,111.3" style="fill:none;fill-rule:evenodd;stroke:#000000;stroke-width:2.0px;stroke-linecap:butt;stroke-linejoin:miter;stroke-opacity:1"/>
<path class="bond-20 atom-20 atom-21" d="M 833.4,111.3 L 824.4,119.5" style="fill:none;fill-rule:evenodd;stroke:#000000;stroke-width:2.0px;stroke-linecap:butt;stroke-linejoin:miter;stroke-opacity:1"/>
<path class="bond-21 atom-20 atom-22" d="M 833.4,111.3 L 842.3,103.2" style="fill:none;fill-rule:evenodd;stroke:#000000;stroke-width:2.0px;stroke-linecap:butt;stroke-linejoin:miter;stroke-opacity:1"/>
<path class="bond-22 atom-20 atom-23" d="M 833.4,111.3 L 841.5,120.3" style="fill:none;fill-rule:evenodd;stroke:#000000;stroke-width:2.0px;stroke-linecap:butt;stroke-linejoin:miter;stroke-opacity:1"/>
<path class="bond-23 atom-16 atom-24" d="M 821.5,79.4 L 822.9,74.9" style="fill:none;fill-rule:evenodd;stroke:#0000FF;stroke-width:2.0px;stroke-linecap:butt;stroke-linejoin:miter;stroke-opacity:1"/>
<path class="bond-23 atom-16 atom-24" d="M 822.9,74.9 L 824.4,70.4" style="fill:none;fill-rule:evenodd;stroke:#000000;stroke-width:2.0px;stroke-linecap:butt;stroke-linejoin:miter;stroke-opacity:1"/>
<path class="bond-24 atom-24 atom-25" d="M 824.4,70.4 L 816.2,61.4" style="fill:none;fill-rule:evenodd;stroke:#000000;stroke-width:2.0px;stroke-linecap:butt;stroke-linejoin:miter;stroke-opacity:1"/>
<path class="bond-25 atom-9 atom-26" d="M 790.4,64.5 L 787.2,67.9" style="fill:none;fill-rule:evenodd;stroke:#0000FF;stroke-width:2.0px;stroke-linecap:butt;stroke-linejoin:miter;stroke-opacity:1"/>
<path class="bond-25 atom-9 atom-26" d="M 787.2,67.9 L 784.0,71.2" style="fill:none;fill-rule:evenodd;stroke:#000000;stroke-width:2.0px;stroke-linecap:butt;stroke-linejoin:miter;stroke-opacity:1"/>
<path class="bond-26 atom-26 atom-27" d="M 784.0,71.2 L 773.1,65.9" style="fill:none;fill-rule:evenodd;stroke:#000000;stroke-width:2.0px;stroke-linecap:butt;stroke-linejoin:miter;stroke-opacity:1"/>
<path class="bond-26 atom-26 atom-27" d="M 783.5,68.2 L 775.8,64.5" style="fill:none;fill-rule:evenodd;stroke:#000000;stroke-width:2.0px;stroke-linecap:butt;stroke-linejoin:miter;stroke-opacity:1"/>
<path class="bond-27 atom-27 atom-28" d="M 773.1,65.9 L 768.7,68.3" style="fill:none;fill-rule:evenodd;stroke:#000000;stroke-width:2.0px;stroke-linecap:butt;stroke-linejoin:miter;stroke-opacity:1"/>
<path class="bond-27 atom-27 atom-28" d="M 768.7,68.3 L 764.2,70.7" style="fill:none;fill-rule:evenodd;stroke:#CCCC00;stroke-width:2.0px;stroke-linecap:butt;stroke-linejoin:miter;stroke-opacity:1"/>
<path class="bond-28 atom-28 atom-29" d="M 762.4,74.3 L 762.2,81.3" style="fill:none;fill-rule:evenodd;stroke:#CCCC00;stroke-width:2.0px;stroke-linecap:butt;stroke-linejoin:miter;stroke-opacity:1"/>
<path class="bond-29 atom-29 atom-30" d="M 761.0,85.8 L 757.5,87.7" style="fill:none;fill-rule:evenodd;stroke:#CCCC00;stroke-width:2.0px;stroke-linecap:butt;stroke-linejoin:miter;stroke-opacity:1"/>
<path class="bond-29 atom-29 atom-30" d="M 757.5,87.7 L 754.1,89.5" style="fill:none;fill-rule:evenodd;stroke:#000000;stroke-width:2.0px;stroke-linecap:butt;stroke-linejoin:miter;stroke-opacity:1"/>
<path class="bond-29 atom-29 atom-30" d="M 759.8,83.7 L 756.4,85.5" style="fill:none;fill-rule:evenodd;stroke:#CCCC00;stroke-width:2.0px;stroke-linecap:butt;stroke-linejoin:miter;stroke-opacity:1"/>
<path class="bond-29 atom-29 atom-30" d="M 756.4,85.5 L 753.0,87.4" style="fill:none;fill-rule:evenodd;stroke:#000000;stroke-width:2.0px;stroke-linecap:butt;stroke-linejoin:miter;stroke-opacity:1"/>
<path class="bond-30 atom-30 atom-31" d="M 750.0,91.7 L 743.5,95.3" style="fill:none;fill-rule:evenodd;stroke:#000000;stroke-width:2.0px;stroke-linecap:butt;stroke-linejoin:miter;stroke-opacity:1"/>
<path class="bond-30 atom-30 atom-31" d="M 748.9,89.6 L 742.3,93.1" style="fill:none;fill-rule:evenodd;stroke:#000000;stroke-width:2.0px;stroke-linecap:butt;stroke-linejoin:miter;stroke-opacity:1"/>
<path class="bond-31 atom-31 atom-32" d="M 739.4,97.5 L 732.8,101.0" style="fill:none;fill-rule:evenodd;stroke:#000000;stroke-width:2.0px;stroke-linecap:butt;stroke-linejoin:miter;stroke-opacity:1"/>
<path class="bond-31 atom-31 atom-32" d="M 738.2,95.3 L 731.7,98.9" style="fill:none;fill-rule:evenodd;stroke:#000000;stroke-width:2.0px;stroke-linecap:butt;stroke-linejoin:miter;stroke-opacity:1"/>
<path class="bond-32 atom-32 atom-33" d="M 728.7,103.2 L 720.1,107.9" style="fill:none;fill-rule:evenodd;stroke:#000000;stroke-width:2.0px;stroke-linecap:butt;stroke-linejoin:miter;stroke-opacity:1"/>
<path class="bond-32 atom-32 atom-33" d="M 727.6,101.1 L 719.0,105.8" style="fill:none;fill-rule:evenodd;stroke:#000000;stroke-width:2.0px;stroke-linecap:butt;stroke-linejoin:miter;stroke-opacity:1"/>
<path class="bond-33 atom-33 atom-34" d="M 719.5,106.8 L 719.4,111.6" style="fill:none;fill-rule:evenodd;stroke:#000000;stroke-width:2.0px;stroke-linecap:butt;stroke-linejoin:miter;stroke-opacity:1"/>
<path class="bond-33 atom-33 atom-34" d="M 719.4,111.6 L 719.3,116.4" style="fill:none;fill-rule:evenodd;stroke:#0000FF;stroke-width:2.0px;stroke-linecap:butt;stroke-linejoin:miter;stroke-opacity:1"/>
<path class="bond-34 atom-33 atom-35" d="M 719.5,106.8 L 709.2,100.5" style="fill:none;fill-rule:evenodd;stroke:#000000;stroke-width:2.0px;stroke-linecap:butt;stroke-linejoin:miter;stroke-opacity:1"/>
<path class="bond-35 atom-35 atom-36" d="M 709.2,100.5 L 709.6,88.4" style="fill:none;fill-rule:evenodd;stroke:#000000;stroke-width:2.0px;stroke-linecap:butt;stroke-linejoin:miter;stroke-opacity:1"/>
<path class="bond-35 atom-35 atom-36" d="M 706.9,98.6 L 707.1,90.1" style="fill:none;fill-rule:evenodd;stroke:#000000;stroke-width:2.0px;stroke-linecap:butt;stroke-linejoin:miter;stroke-opacity:1"/>
<path class="bond-36 atom-36 atom-37" d="M 709.6,88.4 L 699.3,82.0" style="fill:none;fill-rule:evenodd;stroke:#000000;stroke-width:2.0px;stroke-linecap:butt;stroke-linejoin:miter;stroke-opacity:1"/>
<path class="bond-37 atom-37 atom-38" d="M 699.3,82.0 L 688.6,87.8" style="fill:none;fill-rule:evenodd;stroke:#000000;stroke-width:2.0px;stroke-linecap:butt;stroke-linejoin:miter;stroke-opacity:1"/>
<path class="bond-37 atom-37 atom-38" d="M 698.8,85.0 L 691.4,89.1" style="fill:none;fill-rule:evenodd;stroke:#000000;stroke-width:2.0px;stroke-linecap:butt;stroke-linejoin:miter;stroke-opacity:1"/>
<path class="bond-38 atom-38 atom-39" d="M 688.6,87.8 L 684.3,85.2" style="fill:none;fill-rule:evenodd;stroke:#000000;stroke-width:2.0px;stroke-linecap:butt;stroke-linejoin:miter;stroke-opacity:1"/>
<path class="bond-38 atom-38 atom-39" d="M 684.3,85.2 L 680.1,82.5" style="fill:none;fill-rule:evenodd;stroke:#CCCC00;stroke-width:2.0px;stroke-linecap:butt;stroke-linejoin:miter;stroke-opacity:1"/>
<path class="bond-39 atom-39 atom-40" d="M 678.8,78.3 L 680.4,75.7" style="fill:none;fill-rule:evenodd;stroke:#CCCC00;stroke-width:2.0px;stroke-linecap:butt;stroke-linejoin:miter;stroke-opacity:1"/>
<path class="bond-39 atom-39 atom-40" d="M 680.4,75.7 L 682.0,73.1" style="fill:none;fill-rule:evenodd;stroke:#FF0000;stroke-width:2.0px;stroke-linecap:butt;stroke-linejoin:miter;stroke-opacity:1"/>
<path class="bond-39 atom-39 atom-40" d="M 680.9,79.6 L 682.5,77.0" style="fill:none;fill-rule:evenodd;stroke:#CCCC00;stroke-width:2.0px;stroke-linecap:butt;stroke-linejoin:miter;stroke-opacity:1"/>
<path class="bond-39 atom-39 atom-40" d="M 682.5,77.0 L 684.1,74.4" style="fill:none;fill-rule:evenodd;stroke:#FF0000;stroke-width:2.0px;stroke-linecap:butt;stroke-linejoin:miter;stroke-opacity:1"/>
<path class="bond-40 atom-39 atom-41" d="M 677.7,84.7 L 676.1,87.3" style="fill:none;fill-rule:evenodd;stroke:#CCCC00;stroke-width:2.0px;stroke-linecap:butt;stroke-linejoin:miter;stroke-opacity:1"/>
<path class="bond-40 atom-39 atom-41" d="M 676.1,87.3 L 674.6,89.8" style="fill:none;fill-rule:evenodd;stroke:#FF0000;stroke-width:2.0px;stroke-linecap:butt;stroke-linejoin:miter;stroke-opacity:1"/>
<path class="bond-40 atom-39 atom-41" d="M 675.7,83.4 L 674.1,86.0" style="fill:none;fill-rule:evenodd;stroke:#CCCC00;stroke-width:2.0px;stroke-linecap:butt;stroke-linejoin:miter;stroke-opacity:1"/>
<path class="bond-40 atom-39 atom-41" d="M 674.1,86.0 L 672.5,88.6" style="fill:none;fill-rule:evenodd;stroke:#FF0000;stroke-width:2.0px;stroke-linecap:butt;stroke-linejoin:miter;stroke-opacity:1"/>
<path class="bond-41 atom-39 atom-42" d="M 676.6,80.4 L 673.3,78.3" style="fill:none;fill-rule:evenodd;stroke:#CCCC00;stroke-width:2.0px;stroke-linecap:butt;stroke-linejoin:miter;stroke-opacity:1"/>
<path class="bond-41 atom-39 atom-42" d="M 673.3,78.3 L 670.0,76.3" style="fill:none;fill-rule:evenodd;stroke:#0000FF;stroke-width:2.0px;stroke-linecap:butt;stroke-linejoin:miter;stroke-opacity:1"/>
<path class="bond-42 atom-42 atom-43" d="M 666.0,76.2 L 661.7,78.5" style="fill:none;fill-rule:evenodd;stroke:#0000FF;stroke-width:2.0px;stroke-linecap:butt;stroke-linejoin:miter;stroke-opacity:1"/>
<path class="bond-42 atom-42 atom-43" d="M 661.7,78.5 L 657.4,80.9" style="fill:none;fill-rule:evenodd;stroke:#000000;stroke-width:2.0px;stroke-linecap:butt;stroke-linejoin:miter;stroke-opacity:1"/>
<path class="bond-43 atom-42 atom-44" d="M 668.1,72.6 L 668.2,67.8" style="fill:none;fill-rule:evenodd;stroke:#0000FF;stroke-width:2.0px;stroke-linecap:butt;stroke-linejoin:miter;stroke-opacity:1"/>
<path class="bond-43 atom-42 atom-44" d="M 668.2,67.8 L 668.3,63.0" style="fill:none;fill-rule:evenodd;stroke:#000000;stroke-width:2.0px;stroke-linecap:butt;stroke-linejoin:miter;stroke-opacity:1"/>
<path class="bond-44 atom-38 atom-45" d="M 688.6,87.8 L 688.3,99.9" style="fill:none;fill-rule:evenodd;stroke:#000000;stroke-width:2.0px;stroke-linecap:butt;stroke-linejoin:miter;stroke-opacity:1"/>
<path class="bond-45 atom-45 atom-46" d="M 688.3,99.9 L 698.6,106.2" style="fill:none;fill-rule:evenodd;stroke:#000000;stroke-width:2.0px;stroke-linecap:butt;stroke-linejoin:miter;stroke-opacity:1"/>
<path class="bond-45 atom-45 atom-46" d="M 691.1,98.8 L 698.3,103.2" style="fill:none;fill-rule:evenodd;stroke:#000000;stroke-width:2.0px;stroke-linecap:butt;stroke-linejoin:miter;stroke-opacity:1"/>
<path class="bond-46 atom-5 atom-47" d="M 754.4,49.0 L 751.5,60.8" style="fill:none;fill-rule:evenodd;stroke:#000000;stroke-width:2.0px;stroke-linecap:butt;stroke-linejoin:miter;stroke-opacity:1"/>
<path class="bond-47 atom-47 atom-48" d="M 751.5,60.8 L 739.9,64.2" style="fill:none;fill-rule:evenodd;stroke:#000000;stroke-width:2.0px;stroke-linecap:butt;stroke-linejoin:miter;stroke-opacity:1"/>
<path class="bond-47 atom-47 atom-48" d="M 749.1,59.0 L 741.0,61.4" style="fill:none;fill-rule:evenodd;stroke:#000000;stroke-width:2.0px;stroke-linecap:butt;stroke-linejoin:miter;stroke-opacity:1"/>
<path class="bond-48 atom-48 atom-2" d="M 739.9,64.2 L 731.1,55.8" style="fill:none;fill-rule:evenodd;stroke:#000000;stroke-width:2.0px;stroke-linecap:butt;stroke-linejoin:miter;stroke-opacity:1"/>
<path class="bond-49 atom-27 atom-7" d="M 773.1,65.9 L 774.7,53.9" style="fill:none;fill-rule:evenodd;stroke:#000000;stroke-width:2.0px;stroke-linecap:butt;stroke-linejoin:miter;stroke-opacity:1"/>
<path class="bond-50 atom-46 atom-35" d="M 698.6,106.2 L 709.2,100.5" style="fill:none;fill-rule:evenodd;stroke:#000000;stroke-width:2.0px;stroke-linecap:butt;stroke-linejoin:miter;stroke-opacity:1"/>
<path class="bond-51 atom-25 atom-10" d="M 816.2,61.4 L 804.4,64.0" style="fill:none;fill-rule:evenodd;stroke:#000000;stroke-width:2.0px;stroke-linecap:butt;stroke-linejoin:miter;stroke-opacity:1"/>
<path class="atom-6" d="M 765.0 43.5 L 766.4 45.7 Q 766.6 45.9, 766.8 46.3 Q 767.0 46.8, 767.0 46.8 L 767.0 43.5 L 767.6 43.5 L 767.6 47.7 L 767.0 47.7 L 765.5 45.3 Q 765.3 45.0, 765.1 44.6 Q 765.0 44.3, 764.9 44.2 L 764.9 47.7 L 764.4 47.7 L 764.4 43.5 L 765.0 43.5 " fill="#0000FF"/>
<path class="atom-6" d="M 764.3 38.8 L 764.9 38.8 L 764.9 40.6 L 767.1 40.6 L 767.1 38.8 L 767.6 38.8 L 767.6 43.1 L 767.1 43.1 L 767.1 41.1 L 764.9 41.1 L 764.9 43.1 L 764.3 43.1 L 764.3 38.8 " fill="#0000FF"/>
<path class="atom-8" d="M 785.7 49.6 L 787.1 51.9 Q 787.2 52.1, 787.5 52.5 Q 787.7 52.9, 787.7 52.9 L 787.7 49.6 L 788.2 49.6 L 788.2 53.9 L 787.7 53.9 L 786.2 51.4 Q 786.0 51.1, 785.8 50.8 Q 785.6 50.5, 785.6 50.4 L 785.6 53.9 L 785.0 53.9 L 785.0 49.6 L 785.7 49.6 " fill="#0000FF"/>
<path class="atom-9" d="M 791.5 60.3 L 792.8 62.5 Q 793.0 62.8, 793.2 63.2 Q 793.4 63.6, 793.4 63.6 L 793.4 60.3 L 794.0 60.3 L 794.0 64.5 L 793.4 64.5 L 791.9 62.1 Q 791.8 61.8, 791.6 61.5 Q 791.4 61.1, 791.3 61.0 L 791.3 64.5 L 790.8 64.5 L 790.8 60.3 L 791.5 60.3 " fill="#0000FF"/>
<path class="atom-13" d="M 823.4 36.8 L 824.8 39.1 Q 824.9 39.3, 825.1 39.7 Q 825.4 40.1, 825.4 40.1 L 825.4 36.8 L 825.9 36.8 L 825.9 41.1 L 825.4 41.1 L 823.9 38.6 Q 823.7 38.3, 823.5 38.0 Q 823.3 37.7, 823.3 37.6 L 823.3 41.1 L 822.7 41.1 L 822.7 36.8 L 823.4 36.8 " fill="#0000FF"/>
<path class="atom-16" d="M 819.8 79.8 L 821.2 82.0 Q 821.3 82.2, 821.5 82.6 Q 821.7 83.0, 821.8 83.1 L 821.8 79.8 L 822.3 79.8 L 822.3 84.0 L 821.7 84.0 L 820.2 81.6 Q 820.1 81.3, 819.9 80.9 Q 819.7 80.6, 819.7 80.5 L 819.7 84.0 L 819.1 84.0 L 819.1 79.8 L 819.8 79.8 " fill="#0000FF"/>
<path class="atom-18" d="M 838.7 88.3 Q 838.7 87.2, 839.2 86.7 Q 839.8 86.1, 840.7 86.1 Q 841.6 86.1, 842.1 86.7 Q 842.6 87.2, 842.6 88.3 Q 842.6 89.3, 842.1 89.9 Q 841.6 90.5, 840.7 90.5 Q 839.8 90.5, 839.2 89.9 Q 838.7 89.3, 838.7 88.3 M 840.7 90.0 Q 841.3 90.0, 841.7 89.5 Q 842.0 89.1, 842.0 88.3 Q 842.0 87.4, 841.7 87.0 Q 841.3 86.6, 840.7 86.6 Q 840.0 86.6, 839.7 87.0 Q 839.3 87.4, 839.3 88.3 Q 839.3 89.1, 839.7 89.5 Q 840.0 90.0, 840.7 90.0 " fill="#FF0000"/>
<path class="atom-19" d="M 823.3 102.4 Q 823.3 101.4, 823.8 100.8 Q 824.3 100.2, 825.2 100.2 Q 826.2 100.2, 826.7 100.8 Q 827.2 101.4, 827.2 102.4 Q 827.2 103.4, 826.7 104.0 Q 826.1 104.6, 825.2 104.6 Q 824.3 104.6, 823.8 104.0 Q 823.3 103.4, 823.3 102.4 M 825.2 104.1 Q 825.9 104.1, 826.2 103.7 Q 826.6 103.2, 826.6 102.4 Q 826.6 101.6, 826.2 101.1 Q 825.9 100.7, 825.2 100.7 Q 824.6 100.7, 824.2 101.1 Q 823.9 101.5, 823.9 102.4 Q 823.9 103.2, 824.2 103.7 Q 824.6 104.1, 825.2 104.1 " fill="#FF0000"/>
<path class="atom-28" d="M 757.3 69.6 L 757.9 69.6 L 757.9 71.4 L 760.0 71.4 L 760.0 69.6 L 760.6 69.6 L 760.6 73.8 L 760.0 73.8 L 760.0 71.9 L 757.9 71.9 L 757.9 73.8 L 757.3 73.8 L 757.3 69.6 " fill="#CCCC00"/>
<path class="atom-28" d="M 761.3 73.2 Q 761.3 73.2, 761.5 73.3 Q 761.7 73.4, 761.9 73.4 Q 762.2 73.5, 762.4 73.5 Q 762.8 73.5, 763.0 73.3 Q 763.2 73.1, 763.2 72.7 Q 763.2 72.5, 763.1 72.3 Q 763.0 72.2, 762.8 72.1 Q 762.7 72.0, 762.4 72.0 Q 762.0 71.8, 761.7 71.7 Q 761.5 71.6, 761.4 71.4 Q 761.2 71.2, 761.2 70.8 Q 761.2 70.2, 761.6 69.9 Q 761.9 69.6, 762.7 69.6 Q 763.1 69.6, 763.7 69.8 L 763.6 70.3 Q 763.1 70.1, 762.7 70.1 Q 762.3 70.1, 762.0 70.2 Q 761.8 70.4, 761.8 70.7 Q 761.8 70.9, 761.9 71.1 Q 762.0 71.2, 762.2 71.3 Q 762.4 71.4, 762.7 71.5 Q 763.1 71.6, 763.3 71.7 Q 763.5 71.8, 763.7 72.1 Q 763.8 72.3, 763.8 72.7 Q 763.8 73.3, 763.4 73.6 Q 763.1 73.9, 762.4 73.9 Q 762.0 73.9, 761.7 73.9 Q 761.5 73.8, 761.1 73.6 L 761.3 73.2 " fill="#CCCC00"/>
<path class="atom-29" d="M 760.9 85.3 Q 761.0 85.3, 761.2 85.4 Q 761.4 85.5, 761.6 85.5 Q 761.8 85.6, 762.0 85.6 Q 762.4 85.6, 762.7 85.4 Q 762.9 85.2, 762.9 84.8 Q 762.9 84.6, 762.8 84.4 Q 762.7 84.3, 762.5 84.2 Q 762.3 84.1, 762.0 84.1 Q 761.6 83.9, 761.4 83.8 Q 761.2 83.7, 761.0 83.5 Q 760.9 83.3, 760.9 82.9 Q 760.9 82.3, 761.2 82.0 Q 761.6 81.7, 762.3 81.7 Q 762.8 81.7, 763.4 81.9 L 763.2 82.4 Q 762.7 82.2, 762.3 82.2 Q 761.9 82.2, 761.7 82.3 Q 761.5 82.5, 761.5 82.8 Q 761.5 83.0, 761.6 83.2 Q 761.7 83.3, 761.9 83.4 Q 762.0 83.5, 762.3 83.6 Q 762.7 83.7, 762.9 83.8 Q 763.2 83.9, 763.3 84.2 Q 763.5 84.4, 763.5 84.8 Q 763.5 85.4, 763.1 85.7 Q 762.7 86.0, 762.1 86.0 Q 761.7 86.0, 761.4 86.0 Q 761.1 85.9, 760.8 85.7 L 760.9 85.3 " fill="#CCCC00"/>
<path class="atom-29" d="M 763.8 81.7 L 764.4 81.7 L 764.4 83.5 L 766.5 83.5 L 766.5 81.7 L 767.1 81.7 L 767.1 85.9 L 766.5 85.9 L 766.5 84.0 L 764.4 84.0 L 764.4 85.9 L 763.8 85.9 L 763.8 81.7 " fill="#CCCC00"/>
<path class="atom-30" d="M 749.9 89.6 Q 749.9 88.5, 750.3 88.0 Q 750.8 87.4, 751.8 87.4 Q 752.7 87.4, 753.1 88.0 L 752.7 88.3 Q 752.4 87.9, 751.8 87.9 Q 751.1 87.9, 750.8 88.3 Q 750.5 88.8, 750.5 89.6 Q 750.5 90.4, 750.8 90.8 Q 751.2 91.3, 751.9 91.3 Q 752.3 91.3, 752.9 91.0 L 753.0 91.4 Q 752.8 91.6, 752.5 91.7 Q 752.1 91.8, 751.8 91.8 Q 750.8 91.8, 750.3 91.2 Q 749.9 90.6, 749.9 89.6 " fill="#000000"/>
<path class="atom-31" d="M 739.2 95.3 Q 739.2 94.3, 739.7 93.7 Q 740.2 93.2, 741.1 93.2 Q 742.0 93.2, 742.5 93.8 L 742.1 94.1 Q 741.7 93.7, 741.1 93.7 Q 740.5 93.7, 740.2 94.1 Q 739.8 94.5, 739.8 95.3 Q 739.8 96.2, 740.2 96.6 Q 740.5 97.0, 741.2 97.0 Q 741.7 97.0, 742.2 96.8 L 742.4 97.2 Q 742.2 97.3, 741.8 97.4 Q 741.5 97.5, 741.1 97.5 Q 740.2 97.5, 739.7 96.9 Q 739.2 96.4, 739.2 95.3 " fill="#000000"/>
<path class="atom-32" d="M 728.6 101.1 Q 728.6 100.0, 729.0 99.5 Q 729.5 98.9, 730.5 98.9 Q 731.4 98.9, 731.8 99.5 L 731.4 99.9 Q 731.1 99.4, 730.5 99.4 Q 729.8 99.4, 729.5 99.8 Q 729.2 100.3, 729.2 101.1 Q 729.2 101.9, 729.5 102.4 Q 729.9 102.8, 730.6 102.8 Q 731.0 102.8, 731.6 102.5 L 731.7 103.0 Q 731.5 103.1, 731.2 103.2 Q 730.8 103.3, 730.5 103.3 Q 729.5 103.3, 729.0 102.7 Q 728.6 102.1, 728.6 101.1 " fill="#000000"/>
<path class="atom-34" d="M 718.3 116.8 L 719.7 119.0 Q 719.8 119.3, 720.0 119.7 Q 720.2 120.1, 720.3 120.1 L 720.3 116.8 L 720.8 116.8 L 720.8 121.0 L 720.2 121.0 L 718.7 118.6 Q 718.6 118.3, 718.4 118.0 Q 718.2 117.6, 718.1 117.5 L 718.1 121.0 L 717.6 121.0 L 717.6 116.8 L 718.3 116.8 " fill="#0000FF"/>
<path class="atom-34" d="M 721.3 116.8 L 721.9 116.8 L 721.9 118.6 L 724.1 118.6 L 724.1 116.8 L 724.6 116.8 L 724.6 121.0 L 724.1 121.0 L 724.1 119.1 L 721.9 119.1 L 721.9 121.0 L 721.3 121.0 L 721.3 116.8 " fill="#0000FF"/>
<path class="atom-34" d="M 725.2 120.9 Q 725.3 120.6, 725.5 120.5 Q 725.8 120.3, 726.1 120.3 Q 726.5 120.3, 726.8 120.6 Q 727.0 120.8, 727.0 121.2 Q 727.0 121.6, 726.7 122.0 Q 726.4 122.4, 725.7 122.9 L 727.0 122.9 L 727.0 123.2 L 725.1 123.2 L 725.1 122.9 Q 725.7 122.5, 726.0 122.3 Q 726.3 122.0, 726.4 121.7 Q 726.6 121.5, 726.6 121.2 Q 726.6 121.0, 726.5 120.8 Q 726.3 120.7, 726.1 120.7 Q 725.9 120.7, 725.7 120.7 Q 725.6 120.8, 725.5 121.0 L 725.2 120.9 " fill="#0000FF"/>
<path class="atom-39" d="M 677.1 82.9 Q 677.2 82.9, 677.4 83.0 Q 677.6 83.1, 677.8 83.1 Q 678.0 83.2, 678.2 83.2 Q 678.6 83.2, 678.8 83.0 Q 679.1 82.8, 679.1 82.5 Q 679.1 82.2, 679.0 82.1 Q 678.8 81.9, 678.7 81.9 Q 678.5 81.8, 678.2 81.7 Q 677.8 81.6, 677.6 81.5 Q 677.4 81.4, 677.2 81.1 Q 677.0 80.9, 677.0 80.5 Q 677.0 80.0, 677.4 79.7 Q 677.8 79.3, 678.5 79.3 Q 679.0 79.3, 679.5 79.6 L 679.4 80.0 Q 678.9 79.8, 678.5 79.8 Q 678.1 79.8, 677.9 80.0 Q 677.6 80.2, 677.6 80.4 Q 677.6 80.7, 677.8 80.8 Q 677.9 81.0, 678.0 81.0 Q 678.2 81.1, 678.5 81.2 Q 678.9 81.3, 679.1 81.4 Q 679.3 81.6, 679.5 81.8 Q 679.7 82.0, 679.7 82.5 Q 679.7 83.0, 679.3 83.4 Q 678.9 83.7, 678.2 83.7 Q 677.9 83.7, 677.6 83.6 Q 677.3 83.5, 677.0 83.4 L 677.1 82.9 " fill="#CCCC00"/>
<path class="atom-40" d="M 682.7 71.1 Q 682.7 70.1, 683.2 69.6 Q 683.7 69.0, 684.7 69.0 Q 685.6 69.0, 686.1 69.6 Q 686.6 70.1, 686.6 71.1 Q 686.6 72.2, 686.1 72.8 Q 685.6 73.3, 684.7 73.3 Q 683.7 73.3, 683.2 72.8 Q 682.7 72.2, 682.7 71.1 M 684.7 72.9 Q 685.3 72.9, 685.7 72.4 Q 686.0 72.0, 686.0 71.1 Q 686.0 70.3, 685.7 69.9 Q 685.3 69.5, 684.7 69.5 Q 684.0 69.5, 683.7 69.9 Q 683.3 70.3, 683.3 71.1 Q 683.3 72.0, 683.7 72.4 Q 684.0 72.9, 684.7 72.9 " fill="#FF0000"/>
<path class="atom-41" d="M 670.0 91.8 Q 670.0 90.7, 670.5 90.2 Q 671.0 89.6, 672.0 89.6 Q 672.9 89.6, 673.4 90.2 Q 673.9 90.7, 673.9 91.8 Q 673.9 92.8, 673.4 93.4 Q 672.9 94.0, 672.0 94.0 Q 671.0 94.0, 670.5 93.4 Q 670.0 92.8, 670.0 91.8 M 672.0 93.5 Q 672.6 93.5, 673.0 93.1 Q 673.3 92.6, 673.3 91.8 Q 673.3 90.9, 673.0 90.5 Q 672.6 90.1, 672.0 90.1 Q 671.3 90.1, 671.0 90.5 Q 670.6 90.9, 670.6 91.8 Q 670.6 92.6, 671.0 93.1 Q 671.3 93.5, 672.0 93.5 " fill="#FF0000"/>
<path class="atom-42" d="M 667.1 73.0 L 668.5 75.2 Q 668.6 75.4, 668.8 75.8 Q 669.0 76.3, 669.1 76.3 L 669.1 73.0 L 669.6 73.0 L 669.6 77.2 L 669.0 77.2 L 667.5 74.8 Q 667.4 74.5, 667.2 74.1 Q 667.0 73.8, 666.9 73.7 L 666.9 77.2 L 666.4 77.2 L 666.4 73.0 L 667.1 73.0 " fill="#0000FF"/>
<path class="atom-0" d="M 709.3,50.9 L 709.3,50.9 L 709.2,51.0 L 709.2,51.0 L 709.2,51.0 L 709.2,51.0 L 709.2,51.1 L 709.2,51.1 L 709.2,51.1 L 709.2,51.1 L 709.1,51.1 L 709.1,51.2 L 709.1,51.2 L 709.1,51.2 L 709.1,51.2 L 709.0,51.2 L 709.0,51.2 L 709.0,51.2 L 709.0,51.2 L 708.9,51.2 L 708.9,51.2 L 708.9,51.2 L 708.9,51.2 L 708.8,51.2 L 708.8,51.2 L 708.8,51.2 L 708.8,51.1 L 708.7,51.1 L 708.7,51.1 L 708.7,51.1 L 708.7,51.1 L 708.7,51.0 L 708.7,51.0 L 708.7,51.0 L 708.7,51.0 L 708.7,51.0 L 708.7,50.9 L 708.7,50.9 L 708.7,50.9 L 708.7,50.8 L 708.7,50.8 L 708.7,50.8 L 708.7,50.8 L 708.7,50.8 L 708.7,50.7 L 708.7,50.7 L 708.7,50.7 L 708.8,50.7 L 708.8,50.7 L 708.8,50.6 L 708.8,50.6 L 708.9,50.6 L 708.9,50.6 L 708.9,50.6 L 708.9,50.6 L 709.0,50.6 L 709.0,50.6 L 709.0,50.6 L 709.0,50.6 L 709.1,50.6 L 709.1,50.6 L 709.1,50.7 L 709.1,50.7 L 709.1,50.7 L 709.2,50.7 L 709.2,50.7 L 709.2,50.7 L 709.2,50.8 L 709.2,50.8 L 709.2,50.8 L 709.2,50.8 L 709.2,50.9 L 709.3,50.9 L 709.3,50.9 L 709.0,50.9 Z" style="fill:#000000;fill-rule:evenodd;fill-opacity:1;stroke:#000000;stroke-width:0.0px;stroke-linecap:butt;stroke-linejoin:miter;stroke-opacity:1;"/>
<path class="atom-28" d="M 756.7,71.7 L 756.7,71.7 L 756.7,71.8 L 756.7,71.8 L 756.7,71.8 L 756.7,71.8 L 756.6,71.8 L 756.6,71.9 L 756.6,71.9 L 756.6,71.9 L 756.6,71.9 L 756.6,71.9 L 756.5,72.0 L 756.5,72.0 L 756.5,72.0 L 756.5,72.0 L 756.4,72.0 L 756.4,72.0 L 756.4,72.0 L 756.4,72.0 L 756.3,72.0 L 756.3,72.0 L 756.3,72.0 L 756.3,72.0 L 756.2,72.0 L 756.2,72.0 L 756.2,71.9 L 756.2,71.9 L 756.2,71.9 L 756.1,71.9 L 756.1,71.9 L 756.1,71.8 L 756.1,71.8 L 756.1,71.8 L 756.1,71.8 L 756.1,71.7 L 756.1,71.7 L 756.1,71.7 L 756.1,71.7 L 756.1,71.6 L 756.1,71.6 L 756.1,71.6 L 756.1,71.6 L 756.1,71.5 L 756.1,71.5 L 756.2,71.5 L 756.2,71.5 L 756.2,71.5 L 756.2,71.5 L 756.2,71.4 L 756.3,71.4 L 756.3,71.4 L 756.3,71.4 L 756.3,71.4 L 756.4,71.4 L 756.4,71.4 L 756.4,71.4 L 756.4,71.4 L 756.5,71.4 L 756.5,71.4 L 756.5,71.4 L 756.5,71.4 L 756.6,71.5 L 756.6,71.5 L 756.6,71.5 L 756.6,71.5 L 756.6,71.5 L 756.6,71.6 L 756.7,71.6 L 756.7,71.6 L 756.7,71.6 L 756.7,71.6 L 756.7,71.7 L 756.7,71.7 L 756.4,71.7 Z" style="fill:#000000;fill-rule:evenodd;fill-opacity:1;stroke:#000000;stroke-width:0.0px;stroke-linecap:butt;stroke-linejoin:miter;stroke-opacity:1;"/>
</svg>